%TF.GenerationSoftware,KiCad,Pcbnew,7.0.11*%
%TF.CreationDate,2025-08-02T11:26:45+02:00*%
%TF.ProjectId,pal-2-kim-adapter,70616c2d-322d-46b6-996d-2d6164617074,rev?*%
%TF.SameCoordinates,Original*%
%TF.FileFunction,Legend,Bot*%
%TF.FilePolarity,Positive*%
%FSLAX46Y46*%
G04 Gerber Fmt 4.6, Leading zero omitted, Abs format (unit mm)*
G04 Created by KiCad (PCBNEW 7.0.11) date 2025-08-02 11:26:45*
%MOMM*%
%LPD*%
G01*
G04 APERTURE LIST*
G04 Aperture macros list*
%AMFreePoly0*
4,1,22,-1.270000,3.180000,1.270000,3.180000,1.270000,-1.910000,1.254364,-2.108672,1.198732,-2.329454,1.104571,-2.536755,0.974909,-2.723912,0.813912,-2.884909,0.626755,-3.014571,0.419454,-3.108732,0.198672,-3.164364,0.000000,-3.180000,-0.198672,-3.164364,-0.419454,-3.108732,-0.626755,-3.014571,-0.813912,-2.884909,-0.974909,-2.723912,-1.104571,-2.536755,-1.198732,-2.329454,-1.254364,-2.108672,
-1.270000,-1.910000,-1.270000,3.180000,-1.270000,3.180000,$1*%
G04 Aperture macros list end*
%ADD10C,0.150000*%
%ADD11C,0.200000*%
%ADD12C,0.010000*%
%ADD13R,1.700000X1.700000*%
%ADD14O,1.700000X1.700000*%
%ADD15FreePoly0,270.000000*%
G04 APERTURE END LIST*
D10*
X144747704Y-137220001D02*
X145547704Y-137220001D01*
X144747704Y-136877144D02*
X145166752Y-136877144D01*
X145166752Y-136877144D02*
X145242942Y-136915239D01*
X145242942Y-136915239D02*
X145281038Y-136991430D01*
X145281038Y-136991430D02*
X145281038Y-137105716D01*
X145281038Y-137105716D02*
X145242942Y-137181906D01*
X145242942Y-137181906D02*
X145204847Y-137220001D01*
X145281038Y-136610477D02*
X145281038Y-136305715D01*
X145547704Y-136496191D02*
X144861990Y-136496191D01*
X144861990Y-136496191D02*
X144785800Y-136458096D01*
X144785800Y-136458096D02*
X144747704Y-136381906D01*
X144747704Y-136381906D02*
X144747704Y-136305715D01*
X145281038Y-136153334D02*
X145281038Y-135848572D01*
X145547704Y-136039048D02*
X144861990Y-136039048D01*
X144861990Y-136039048D02*
X144785800Y-136000953D01*
X144785800Y-136000953D02*
X144747704Y-135924763D01*
X144747704Y-135924763D02*
X144747704Y-135848572D01*
X145281038Y-135581905D02*
X144481038Y-135581905D01*
X145242942Y-135581905D02*
X145281038Y-135505715D01*
X145281038Y-135505715D02*
X145281038Y-135353334D01*
X145281038Y-135353334D02*
X145242942Y-135277143D01*
X145242942Y-135277143D02*
X145204847Y-135239048D01*
X145204847Y-135239048D02*
X145128657Y-135200953D01*
X145128657Y-135200953D02*
X144900085Y-135200953D01*
X144900085Y-135200953D02*
X144823895Y-135239048D01*
X144823895Y-135239048D02*
X144785800Y-135277143D01*
X144785800Y-135277143D02*
X144747704Y-135353334D01*
X144747704Y-135353334D02*
X144747704Y-135505715D01*
X144747704Y-135505715D02*
X144785800Y-135581905D01*
X144785800Y-134896191D02*
X144747704Y-134820000D01*
X144747704Y-134820000D02*
X144747704Y-134667619D01*
X144747704Y-134667619D02*
X144785800Y-134591429D01*
X144785800Y-134591429D02*
X144861990Y-134553333D01*
X144861990Y-134553333D02*
X144900085Y-134553333D01*
X144900085Y-134553333D02*
X144976276Y-134591429D01*
X144976276Y-134591429D02*
X145014371Y-134667619D01*
X145014371Y-134667619D02*
X145014371Y-134781905D01*
X145014371Y-134781905D02*
X145052466Y-134858095D01*
X145052466Y-134858095D02*
X145128657Y-134896191D01*
X145128657Y-134896191D02*
X145166752Y-134896191D01*
X145166752Y-134896191D02*
X145242942Y-134858095D01*
X145242942Y-134858095D02*
X145281038Y-134781905D01*
X145281038Y-134781905D02*
X145281038Y-134667619D01*
X145281038Y-134667619D02*
X145242942Y-134591429D01*
X144823895Y-134210476D02*
X144785800Y-134172381D01*
X144785800Y-134172381D02*
X144747704Y-134210476D01*
X144747704Y-134210476D02*
X144785800Y-134248572D01*
X144785800Y-134248572D02*
X144823895Y-134210476D01*
X144823895Y-134210476D02*
X144747704Y-134210476D01*
X145242942Y-134210476D02*
X145204847Y-134172381D01*
X145204847Y-134172381D02*
X145166752Y-134210476D01*
X145166752Y-134210476D02*
X145204847Y-134248572D01*
X145204847Y-134248572D02*
X145242942Y-134210476D01*
X145242942Y-134210476D02*
X145166752Y-134210476D01*
X145585800Y-133258096D02*
X144557228Y-133943810D01*
X145585800Y-132420001D02*
X144557228Y-133105715D01*
X145281038Y-131810477D02*
X144633419Y-131810477D01*
X144633419Y-131810477D02*
X144557228Y-131848572D01*
X144557228Y-131848572D02*
X144519133Y-131886668D01*
X144519133Y-131886668D02*
X144481038Y-131962858D01*
X144481038Y-131962858D02*
X144481038Y-132077144D01*
X144481038Y-132077144D02*
X144519133Y-132153334D01*
X144785800Y-131810477D02*
X144747704Y-131886668D01*
X144747704Y-131886668D02*
X144747704Y-132039049D01*
X144747704Y-132039049D02*
X144785800Y-132115239D01*
X144785800Y-132115239D02*
X144823895Y-132153334D01*
X144823895Y-132153334D02*
X144900085Y-132191430D01*
X144900085Y-132191430D02*
X145128657Y-132191430D01*
X145128657Y-132191430D02*
X145204847Y-132153334D01*
X145204847Y-132153334D02*
X145242942Y-132115239D01*
X145242942Y-132115239D02*
X145281038Y-132039049D01*
X145281038Y-132039049D02*
X145281038Y-131886668D01*
X145281038Y-131886668D02*
X145242942Y-131810477D01*
X144747704Y-131429524D02*
X145281038Y-131429524D01*
X145547704Y-131429524D02*
X145509609Y-131467620D01*
X145509609Y-131467620D02*
X145471514Y-131429524D01*
X145471514Y-131429524D02*
X145509609Y-131391429D01*
X145509609Y-131391429D02*
X145547704Y-131429524D01*
X145547704Y-131429524D02*
X145471514Y-131429524D01*
X145281038Y-131162858D02*
X145281038Y-130858096D01*
X145547704Y-131048572D02*
X144861990Y-131048572D01*
X144861990Y-131048572D02*
X144785800Y-131010477D01*
X144785800Y-131010477D02*
X144747704Y-130934287D01*
X144747704Y-130934287D02*
X144747704Y-130858096D01*
X145281038Y-130248572D02*
X144633419Y-130248572D01*
X144633419Y-130248572D02*
X144557228Y-130286667D01*
X144557228Y-130286667D02*
X144519133Y-130324763D01*
X144519133Y-130324763D02*
X144481038Y-130400953D01*
X144481038Y-130400953D02*
X144481038Y-130515239D01*
X144481038Y-130515239D02*
X144519133Y-130591429D01*
X144785800Y-130248572D02*
X144747704Y-130324763D01*
X144747704Y-130324763D02*
X144747704Y-130477144D01*
X144747704Y-130477144D02*
X144785800Y-130553334D01*
X144785800Y-130553334D02*
X144823895Y-130591429D01*
X144823895Y-130591429D02*
X144900085Y-130629525D01*
X144900085Y-130629525D02*
X145128657Y-130629525D01*
X145128657Y-130629525D02*
X145204847Y-130591429D01*
X145204847Y-130591429D02*
X145242942Y-130553334D01*
X145242942Y-130553334D02*
X145281038Y-130477144D01*
X145281038Y-130477144D02*
X145281038Y-130324763D01*
X145281038Y-130324763D02*
X145242942Y-130248572D01*
X145281038Y-129524762D02*
X144747704Y-129524762D01*
X145281038Y-129867619D02*
X144861990Y-129867619D01*
X144861990Y-129867619D02*
X144785800Y-129829524D01*
X144785800Y-129829524D02*
X144747704Y-129753334D01*
X144747704Y-129753334D02*
X144747704Y-129639048D01*
X144747704Y-129639048D02*
X144785800Y-129562857D01*
X144785800Y-129562857D02*
X144823895Y-129524762D01*
X144747704Y-129143809D02*
X145547704Y-129143809D01*
X145242942Y-129143809D02*
X145281038Y-129067619D01*
X145281038Y-129067619D02*
X145281038Y-128915238D01*
X145281038Y-128915238D02*
X145242942Y-128839047D01*
X145242942Y-128839047D02*
X145204847Y-128800952D01*
X145204847Y-128800952D02*
X145128657Y-128762857D01*
X145128657Y-128762857D02*
X144900085Y-128762857D01*
X144900085Y-128762857D02*
X144823895Y-128800952D01*
X144823895Y-128800952D02*
X144785800Y-128839047D01*
X144785800Y-128839047D02*
X144747704Y-128915238D01*
X144747704Y-128915238D02*
X144747704Y-129067619D01*
X144747704Y-129067619D02*
X144785800Y-129143809D01*
X144823895Y-128419999D02*
X144785800Y-128381904D01*
X144785800Y-128381904D02*
X144747704Y-128419999D01*
X144747704Y-128419999D02*
X144785800Y-128458095D01*
X144785800Y-128458095D02*
X144823895Y-128419999D01*
X144823895Y-128419999D02*
X144747704Y-128419999D01*
X144785800Y-127696190D02*
X144747704Y-127772381D01*
X144747704Y-127772381D02*
X144747704Y-127924762D01*
X144747704Y-127924762D02*
X144785800Y-128000952D01*
X144785800Y-128000952D02*
X144823895Y-128039047D01*
X144823895Y-128039047D02*
X144900085Y-128077143D01*
X144900085Y-128077143D02*
X145128657Y-128077143D01*
X145128657Y-128077143D02*
X145204847Y-128039047D01*
X145204847Y-128039047D02*
X145242942Y-128000952D01*
X145242942Y-128000952D02*
X145281038Y-127924762D01*
X145281038Y-127924762D02*
X145281038Y-127772381D01*
X145281038Y-127772381D02*
X145242942Y-127696190D01*
X144747704Y-127239048D02*
X144785800Y-127315238D01*
X144785800Y-127315238D02*
X144823895Y-127353333D01*
X144823895Y-127353333D02*
X144900085Y-127391429D01*
X144900085Y-127391429D02*
X145128657Y-127391429D01*
X145128657Y-127391429D02*
X145204847Y-127353333D01*
X145204847Y-127353333D02*
X145242942Y-127315238D01*
X145242942Y-127315238D02*
X145281038Y-127239048D01*
X145281038Y-127239048D02*
X145281038Y-127124762D01*
X145281038Y-127124762D02*
X145242942Y-127048571D01*
X145242942Y-127048571D02*
X145204847Y-127010476D01*
X145204847Y-127010476D02*
X145128657Y-126972381D01*
X145128657Y-126972381D02*
X144900085Y-126972381D01*
X144900085Y-126972381D02*
X144823895Y-127010476D01*
X144823895Y-127010476D02*
X144785800Y-127048571D01*
X144785800Y-127048571D02*
X144747704Y-127124762D01*
X144747704Y-127124762D02*
X144747704Y-127239048D01*
X144747704Y-126629523D02*
X145281038Y-126629523D01*
X145204847Y-126629523D02*
X145242942Y-126591428D01*
X145242942Y-126591428D02*
X145281038Y-126515238D01*
X145281038Y-126515238D02*
X145281038Y-126400952D01*
X145281038Y-126400952D02*
X145242942Y-126324761D01*
X145242942Y-126324761D02*
X145166752Y-126286666D01*
X145166752Y-126286666D02*
X144747704Y-126286666D01*
X145166752Y-126286666D02*
X145242942Y-126248571D01*
X145242942Y-126248571D02*
X145281038Y-126172380D01*
X145281038Y-126172380D02*
X145281038Y-126058095D01*
X145281038Y-126058095D02*
X145242942Y-125981904D01*
X145242942Y-125981904D02*
X145166752Y-125943809D01*
X145166752Y-125943809D02*
X144747704Y-125943809D01*
X145585800Y-124991428D02*
X144557228Y-125677142D01*
X144785800Y-124419999D02*
X144747704Y-124496190D01*
X144747704Y-124496190D02*
X144747704Y-124648571D01*
X144747704Y-124648571D02*
X144785800Y-124724761D01*
X144785800Y-124724761D02*
X144861990Y-124762857D01*
X144861990Y-124762857D02*
X145166752Y-124762857D01*
X145166752Y-124762857D02*
X145242942Y-124724761D01*
X145242942Y-124724761D02*
X145281038Y-124648571D01*
X145281038Y-124648571D02*
X145281038Y-124496190D01*
X145281038Y-124496190D02*
X145242942Y-124419999D01*
X145242942Y-124419999D02*
X145166752Y-124381904D01*
X145166752Y-124381904D02*
X145090561Y-124381904D01*
X145090561Y-124381904D02*
X145014371Y-124762857D01*
X144747704Y-123696190D02*
X145547704Y-123696190D01*
X144785800Y-123696190D02*
X144747704Y-123772381D01*
X144747704Y-123772381D02*
X144747704Y-123924762D01*
X144747704Y-123924762D02*
X144785800Y-124000952D01*
X144785800Y-124000952D02*
X144823895Y-124039047D01*
X144823895Y-124039047D02*
X144900085Y-124077143D01*
X144900085Y-124077143D02*
X145128657Y-124077143D01*
X145128657Y-124077143D02*
X145204847Y-124039047D01*
X145204847Y-124039047D02*
X145242942Y-124000952D01*
X145242942Y-124000952D02*
X145281038Y-123924762D01*
X145281038Y-123924762D02*
X145281038Y-123772381D01*
X145281038Y-123772381D02*
X145242942Y-123696190D01*
X145281038Y-122972380D02*
X144747704Y-122972380D01*
X145281038Y-123315237D02*
X144861990Y-123315237D01*
X144861990Y-123315237D02*
X144785800Y-123277142D01*
X144785800Y-123277142D02*
X144747704Y-123200952D01*
X144747704Y-123200952D02*
X144747704Y-123086666D01*
X144747704Y-123086666D02*
X144785800Y-123010475D01*
X144785800Y-123010475D02*
X144823895Y-122972380D01*
X144747704Y-122248570D02*
X145166752Y-122248570D01*
X145166752Y-122248570D02*
X145242942Y-122286665D01*
X145242942Y-122286665D02*
X145281038Y-122362856D01*
X145281038Y-122362856D02*
X145281038Y-122515237D01*
X145281038Y-122515237D02*
X145242942Y-122591427D01*
X144785800Y-122248570D02*
X144747704Y-122324761D01*
X144747704Y-122324761D02*
X144747704Y-122515237D01*
X144747704Y-122515237D02*
X144785800Y-122591427D01*
X144785800Y-122591427D02*
X144861990Y-122629523D01*
X144861990Y-122629523D02*
X144938180Y-122629523D01*
X144938180Y-122629523D02*
X145014371Y-122591427D01*
X145014371Y-122591427D02*
X145052466Y-122515237D01*
X145052466Y-122515237D02*
X145052466Y-122324761D01*
X145052466Y-122324761D02*
X145090561Y-122248570D01*
X144747704Y-121867617D02*
X145281038Y-121867617D01*
X145128657Y-121867617D02*
X145204847Y-121829522D01*
X145204847Y-121829522D02*
X145242942Y-121791427D01*
X145242942Y-121791427D02*
X145281038Y-121715236D01*
X145281038Y-121715236D02*
X145281038Y-121639046D01*
X144747704Y-121029522D02*
X145547704Y-121029522D01*
X144785800Y-121029522D02*
X144747704Y-121105713D01*
X144747704Y-121105713D02*
X144747704Y-121258094D01*
X144747704Y-121258094D02*
X144785800Y-121334284D01*
X144785800Y-121334284D02*
X144823895Y-121372379D01*
X144823895Y-121372379D02*
X144900085Y-121410475D01*
X144900085Y-121410475D02*
X145128657Y-121410475D01*
X145128657Y-121410475D02*
X145204847Y-121372379D01*
X145204847Y-121372379D02*
X145242942Y-121334284D01*
X145242942Y-121334284D02*
X145281038Y-121258094D01*
X145281038Y-121258094D02*
X145281038Y-121105713D01*
X145281038Y-121105713D02*
X145242942Y-121029522D01*
X144747704Y-120534284D02*
X144785800Y-120610474D01*
X144785800Y-120610474D02*
X144823895Y-120648569D01*
X144823895Y-120648569D02*
X144900085Y-120686665D01*
X144900085Y-120686665D02*
X145128657Y-120686665D01*
X145128657Y-120686665D02*
X145204847Y-120648569D01*
X145204847Y-120648569D02*
X145242942Y-120610474D01*
X145242942Y-120610474D02*
X145281038Y-120534284D01*
X145281038Y-120534284D02*
X145281038Y-120419998D01*
X145281038Y-120419998D02*
X145242942Y-120343807D01*
X145242942Y-120343807D02*
X145204847Y-120305712D01*
X145204847Y-120305712D02*
X145128657Y-120267617D01*
X145128657Y-120267617D02*
X144900085Y-120267617D01*
X144900085Y-120267617D02*
X144823895Y-120305712D01*
X144823895Y-120305712D02*
X144785800Y-120343807D01*
X144785800Y-120343807D02*
X144747704Y-120419998D01*
X144747704Y-120419998D02*
X144747704Y-120534284D01*
X144785800Y-119581902D02*
X144747704Y-119658093D01*
X144747704Y-119658093D02*
X144747704Y-119810474D01*
X144747704Y-119810474D02*
X144785800Y-119886664D01*
X144785800Y-119886664D02*
X144823895Y-119924759D01*
X144823895Y-119924759D02*
X144900085Y-119962855D01*
X144900085Y-119962855D02*
X145128657Y-119962855D01*
X145128657Y-119962855D02*
X145204847Y-119924759D01*
X145204847Y-119924759D02*
X145242942Y-119886664D01*
X145242942Y-119886664D02*
X145281038Y-119810474D01*
X145281038Y-119810474D02*
X145281038Y-119658093D01*
X145281038Y-119658093D02*
X145242942Y-119581902D01*
X144747704Y-118896188D02*
X145166752Y-118896188D01*
X145166752Y-118896188D02*
X145242942Y-118934283D01*
X145242942Y-118934283D02*
X145281038Y-119010474D01*
X145281038Y-119010474D02*
X145281038Y-119162855D01*
X145281038Y-119162855D02*
X145242942Y-119239045D01*
X144785800Y-118896188D02*
X144747704Y-118972379D01*
X144747704Y-118972379D02*
X144747704Y-119162855D01*
X144747704Y-119162855D02*
X144785800Y-119239045D01*
X144785800Y-119239045D02*
X144861990Y-119277141D01*
X144861990Y-119277141D02*
X144938180Y-119277141D01*
X144938180Y-119277141D02*
X145014371Y-119239045D01*
X145014371Y-119239045D02*
X145052466Y-119162855D01*
X145052466Y-119162855D02*
X145052466Y-118972379D01*
X145052466Y-118972379D02*
X145090561Y-118896188D01*
X144785800Y-118553331D02*
X144747704Y-118477140D01*
X144747704Y-118477140D02*
X144747704Y-118324759D01*
X144747704Y-118324759D02*
X144785800Y-118248569D01*
X144785800Y-118248569D02*
X144861990Y-118210473D01*
X144861990Y-118210473D02*
X144900085Y-118210473D01*
X144900085Y-118210473D02*
X144976276Y-118248569D01*
X144976276Y-118248569D02*
X145014371Y-118324759D01*
X145014371Y-118324759D02*
X145014371Y-118439045D01*
X145014371Y-118439045D02*
X145052466Y-118515235D01*
X145052466Y-118515235D02*
X145128657Y-118553331D01*
X145128657Y-118553331D02*
X145166752Y-118553331D01*
X145166752Y-118553331D02*
X145242942Y-118515235D01*
X145242942Y-118515235D02*
X145281038Y-118439045D01*
X145281038Y-118439045D02*
X145281038Y-118324759D01*
X145281038Y-118324759D02*
X145242942Y-118248569D01*
X144747704Y-117867616D02*
X145281038Y-117867616D01*
X145547704Y-117867616D02*
X145509609Y-117905712D01*
X145509609Y-117905712D02*
X145471514Y-117867616D01*
X145471514Y-117867616D02*
X145509609Y-117829521D01*
X145509609Y-117829521D02*
X145547704Y-117867616D01*
X145547704Y-117867616D02*
X145471514Y-117867616D01*
X145281038Y-117486664D02*
X144747704Y-117486664D01*
X145204847Y-117486664D02*
X145242942Y-117448569D01*
X145242942Y-117448569D02*
X145281038Y-117372379D01*
X145281038Y-117372379D02*
X145281038Y-117258093D01*
X145281038Y-117258093D02*
X145242942Y-117181902D01*
X145242942Y-117181902D02*
X145166752Y-117143807D01*
X145166752Y-117143807D02*
X144747704Y-117143807D01*
X144747704Y-116648569D02*
X144785800Y-116724759D01*
X144785800Y-116724759D02*
X144823895Y-116762854D01*
X144823895Y-116762854D02*
X144900085Y-116800950D01*
X144900085Y-116800950D02*
X145128657Y-116800950D01*
X145128657Y-116800950D02*
X145204847Y-116762854D01*
X145204847Y-116762854D02*
X145242942Y-116724759D01*
X145242942Y-116724759D02*
X145281038Y-116648569D01*
X145281038Y-116648569D02*
X145281038Y-116534283D01*
X145281038Y-116534283D02*
X145242942Y-116458092D01*
X145242942Y-116458092D02*
X145204847Y-116419997D01*
X145204847Y-116419997D02*
X145128657Y-116381902D01*
X145128657Y-116381902D02*
X144900085Y-116381902D01*
X144900085Y-116381902D02*
X144823895Y-116419997D01*
X144823895Y-116419997D02*
X144785800Y-116458092D01*
X144785800Y-116458092D02*
X144747704Y-116534283D01*
X144747704Y-116534283D02*
X144747704Y-116648569D01*
D11*
X146879542Y-130734284D02*
X146822400Y-130791427D01*
X146822400Y-130791427D02*
X146765257Y-130962855D01*
X146765257Y-130962855D02*
X146765257Y-131077141D01*
X146765257Y-131077141D02*
X146822400Y-131248570D01*
X146822400Y-131248570D02*
X146936685Y-131362855D01*
X146936685Y-131362855D02*
X147050971Y-131419998D01*
X147050971Y-131419998D02*
X147279542Y-131477141D01*
X147279542Y-131477141D02*
X147450971Y-131477141D01*
X147450971Y-131477141D02*
X147679542Y-131419998D01*
X147679542Y-131419998D02*
X147793828Y-131362855D01*
X147793828Y-131362855D02*
X147908114Y-131248570D01*
X147908114Y-131248570D02*
X147965257Y-131077141D01*
X147965257Y-131077141D02*
X147965257Y-130962855D01*
X147965257Y-130962855D02*
X147908114Y-130791427D01*
X147908114Y-130791427D02*
X147850971Y-130734284D01*
X146879542Y-129534284D02*
X146822400Y-129591427D01*
X146822400Y-129591427D02*
X146765257Y-129762855D01*
X146765257Y-129762855D02*
X146765257Y-129877141D01*
X146765257Y-129877141D02*
X146822400Y-130048570D01*
X146822400Y-130048570D02*
X146936685Y-130162855D01*
X146936685Y-130162855D02*
X147050971Y-130219998D01*
X147050971Y-130219998D02*
X147279542Y-130277141D01*
X147279542Y-130277141D02*
X147450971Y-130277141D01*
X147450971Y-130277141D02*
X147679542Y-130219998D01*
X147679542Y-130219998D02*
X147793828Y-130162855D01*
X147793828Y-130162855D02*
X147908114Y-130048570D01*
X147908114Y-130048570D02*
X147965257Y-129877141D01*
X147965257Y-129877141D02*
X147965257Y-129762855D01*
X147965257Y-129762855D02*
X147908114Y-129591427D01*
X147908114Y-129591427D02*
X147850971Y-129534284D01*
X147222400Y-129019998D02*
X147222400Y-128105713D01*
X147393828Y-127134284D02*
X147336685Y-126962856D01*
X147336685Y-126962856D02*
X147279542Y-126905713D01*
X147279542Y-126905713D02*
X147165257Y-126848570D01*
X147165257Y-126848570D02*
X146993828Y-126848570D01*
X146993828Y-126848570D02*
X146879542Y-126905713D01*
X146879542Y-126905713D02*
X146822400Y-126962856D01*
X146822400Y-126962856D02*
X146765257Y-127077141D01*
X146765257Y-127077141D02*
X146765257Y-127534284D01*
X146765257Y-127534284D02*
X147965257Y-127534284D01*
X147965257Y-127534284D02*
X147965257Y-127134284D01*
X147965257Y-127134284D02*
X147908114Y-127019999D01*
X147908114Y-127019999D02*
X147850971Y-126962856D01*
X147850971Y-126962856D02*
X147736685Y-126905713D01*
X147736685Y-126905713D02*
X147622400Y-126905713D01*
X147622400Y-126905713D02*
X147508114Y-126962856D01*
X147508114Y-126962856D02*
X147450971Y-127019999D01*
X147450971Y-127019999D02*
X147393828Y-127134284D01*
X147393828Y-127134284D02*
X147393828Y-127534284D01*
X147336685Y-126105713D02*
X146765257Y-126105713D01*
X147965257Y-126505713D02*
X147336685Y-126105713D01*
X147336685Y-126105713D02*
X147965257Y-125705713D01*
X147222400Y-125305713D02*
X147222400Y-124391428D01*
X146822400Y-123877142D02*
X146765257Y-123705714D01*
X146765257Y-123705714D02*
X146765257Y-123419999D01*
X146765257Y-123419999D02*
X146822400Y-123305714D01*
X146822400Y-123305714D02*
X146879542Y-123248571D01*
X146879542Y-123248571D02*
X146993828Y-123191428D01*
X146993828Y-123191428D02*
X147108114Y-123191428D01*
X147108114Y-123191428D02*
X147222400Y-123248571D01*
X147222400Y-123248571D02*
X147279542Y-123305714D01*
X147279542Y-123305714D02*
X147336685Y-123419999D01*
X147336685Y-123419999D02*
X147393828Y-123648571D01*
X147393828Y-123648571D02*
X147450971Y-123762856D01*
X147450971Y-123762856D02*
X147508114Y-123819999D01*
X147508114Y-123819999D02*
X147622400Y-123877142D01*
X147622400Y-123877142D02*
X147736685Y-123877142D01*
X147736685Y-123877142D02*
X147850971Y-123819999D01*
X147850971Y-123819999D02*
X147908114Y-123762856D01*
X147908114Y-123762856D02*
X147965257Y-123648571D01*
X147965257Y-123648571D02*
X147965257Y-123362856D01*
X147965257Y-123362856D02*
X147908114Y-123191428D01*
X147108114Y-122734285D02*
X147108114Y-122162857D01*
X146765257Y-122848571D02*
X147965257Y-122448571D01*
X147965257Y-122448571D02*
X146765257Y-122048571D01*
%TO.C,REF\u002A\u002A*%
D12*
X149863081Y-128363883D02*
X149974569Y-128366847D01*
X150057579Y-128374351D01*
X150118801Y-128388190D01*
X150164925Y-128410155D01*
X150202642Y-128442039D01*
X150238642Y-128485633D01*
X150274911Y-128548336D01*
X150298588Y-128647117D01*
X150288316Y-128746372D01*
X150245431Y-128837629D01*
X150171271Y-128912416D01*
X150148056Y-128927917D01*
X150121744Y-128940774D01*
X150088580Y-128949893D01*
X150042119Y-128956102D01*
X149975918Y-128960233D01*
X149883532Y-128963116D01*
X149758515Y-128965579D01*
X149411722Y-128971697D01*
X149431262Y-128920303D01*
X149449213Y-128873246D01*
X149466489Y-128838015D01*
X149488758Y-128815017D01*
X149522835Y-128801655D01*
X149575537Y-128795328D01*
X149653677Y-128793437D01*
X149764072Y-128793385D01*
X149852065Y-128793117D01*
X149936498Y-128791521D01*
X149994166Y-128787712D01*
X150032012Y-128780820D01*
X150056976Y-128769975D01*
X150076000Y-128754308D01*
X150102847Y-128715792D01*
X150112966Y-128651091D01*
X150087394Y-128587081D01*
X150084120Y-128582856D01*
X150068993Y-128569689D01*
X150044732Y-128559975D01*
X150005350Y-128552903D01*
X149944859Y-128547656D01*
X149857271Y-128543421D01*
X149736598Y-128539385D01*
X149413485Y-128529615D01*
X149487935Y-128363539D01*
X149782938Y-128363539D01*
X149863081Y-128363883D01*
G36*
X149863081Y-128363883D02*
G01*
X149974569Y-128366847D01*
X150057579Y-128374351D01*
X150118801Y-128388190D01*
X150164925Y-128410155D01*
X150202642Y-128442039D01*
X150238642Y-128485633D01*
X150274911Y-128548336D01*
X150298588Y-128647117D01*
X150288316Y-128746372D01*
X150245431Y-128837629D01*
X150171271Y-128912416D01*
X150148056Y-128927917D01*
X150121744Y-128940774D01*
X150088580Y-128949893D01*
X150042119Y-128956102D01*
X149975918Y-128960233D01*
X149883532Y-128963116D01*
X149758515Y-128965579D01*
X149411722Y-128971697D01*
X149431262Y-128920303D01*
X149449213Y-128873246D01*
X149466489Y-128838015D01*
X149488758Y-128815017D01*
X149522835Y-128801655D01*
X149575537Y-128795328D01*
X149653677Y-128793437D01*
X149764072Y-128793385D01*
X149852065Y-128793117D01*
X149936498Y-128791521D01*
X149994166Y-128787712D01*
X150032012Y-128780820D01*
X150056976Y-128769975D01*
X150076000Y-128754308D01*
X150102847Y-128715792D01*
X150112966Y-128651091D01*
X150087394Y-128587081D01*
X150084120Y-128582856D01*
X150068993Y-128569689D01*
X150044732Y-128559975D01*
X150005350Y-128552903D01*
X149944859Y-128547656D01*
X149857271Y-128543421D01*
X149736598Y-128539385D01*
X149413485Y-128529615D01*
X149487935Y-128363539D01*
X149782938Y-128363539D01*
X149863081Y-128363883D01*
G37*
X150516436Y-125281346D02*
X150509155Y-125298136D01*
X150492713Y-125324859D01*
X150467813Y-125340156D01*
X150424268Y-125348563D01*
X150351894Y-125354615D01*
X150286911Y-125360144D01*
X150244250Y-125367450D01*
X150228330Y-125377918D01*
X150232600Y-125393692D01*
X150247603Y-125433890D01*
X150251322Y-125505728D01*
X150237428Y-125583010D01*
X150207495Y-125649688D01*
X150179789Y-125686371D01*
X150125731Y-125733472D01*
X150056423Y-125763638D01*
X149964235Y-125779678D01*
X149847014Y-125784191D01*
X149841538Y-125784401D01*
X149765348Y-125782839D01*
X149661493Y-125771810D01*
X149583667Y-125747814D01*
X149524240Y-125708043D01*
X149475582Y-125649688D01*
X149447454Y-125594100D01*
X149431801Y-125500751D01*
X149437656Y-125468863D01*
X149572705Y-125468863D01*
X149576110Y-125536625D01*
X149615958Y-125599734D01*
X149636602Y-125618526D01*
X149663971Y-125634254D01*
X149701808Y-125643039D01*
X149759645Y-125646859D01*
X149847014Y-125647692D01*
X149913681Y-125647281D01*
X149978755Y-125644434D01*
X150020749Y-125637256D01*
X150048937Y-125623889D01*
X150072594Y-125602472D01*
X150083247Y-125589890D01*
X150111943Y-125524699D01*
X150107425Y-125456400D01*
X150069856Y-125397098D01*
X150054960Y-125384333D01*
X150026911Y-125368764D01*
X149987742Y-125359762D01*
X149928142Y-125355617D01*
X149838800Y-125354615D01*
X149767684Y-125355077D01*
X149703359Y-125357999D01*
X149661834Y-125365221D01*
X149633933Y-125378561D01*
X149610483Y-125399836D01*
X149605975Y-125404821D01*
X149572705Y-125468863D01*
X149437656Y-125468863D01*
X149448916Y-125407530D01*
X149496612Y-125323272D01*
X149572706Y-125256818D01*
X149586738Y-125248793D01*
X149611321Y-125238196D01*
X149642691Y-125230335D01*
X149686231Y-125224807D01*
X149747322Y-125221206D01*
X149831345Y-125219128D01*
X149943680Y-125218167D01*
X150089711Y-125217919D01*
X150543037Y-125217846D01*
X150516436Y-125281346D01*
G36*
X150516436Y-125281346D02*
G01*
X150509155Y-125298136D01*
X150492713Y-125324859D01*
X150467813Y-125340156D01*
X150424268Y-125348563D01*
X150351894Y-125354615D01*
X150286911Y-125360144D01*
X150244250Y-125367450D01*
X150228330Y-125377918D01*
X150232600Y-125393692D01*
X150247603Y-125433890D01*
X150251322Y-125505728D01*
X150237428Y-125583010D01*
X150207495Y-125649688D01*
X150179789Y-125686371D01*
X150125731Y-125733472D01*
X150056423Y-125763638D01*
X149964235Y-125779678D01*
X149847014Y-125784191D01*
X149841538Y-125784401D01*
X149765348Y-125782839D01*
X149661493Y-125771810D01*
X149583667Y-125747814D01*
X149524240Y-125708043D01*
X149475582Y-125649688D01*
X149447454Y-125594100D01*
X149431801Y-125500751D01*
X149437656Y-125468863D01*
X149572705Y-125468863D01*
X149576110Y-125536625D01*
X149615958Y-125599734D01*
X149636602Y-125618526D01*
X149663971Y-125634254D01*
X149701808Y-125643039D01*
X149759645Y-125646859D01*
X149847014Y-125647692D01*
X149913681Y-125647281D01*
X149978755Y-125644434D01*
X150020749Y-125637256D01*
X150048937Y-125623889D01*
X150072594Y-125602472D01*
X150083247Y-125589890D01*
X150111943Y-125524699D01*
X150107425Y-125456400D01*
X150069856Y-125397098D01*
X150054960Y-125384333D01*
X150026911Y-125368764D01*
X149987742Y-125359762D01*
X149928142Y-125355617D01*
X149838800Y-125354615D01*
X149767684Y-125355077D01*
X149703359Y-125357999D01*
X149661834Y-125365221D01*
X149633933Y-125378561D01*
X149610483Y-125399836D01*
X149605975Y-125404821D01*
X149572705Y-125468863D01*
X149437656Y-125468863D01*
X149448916Y-125407530D01*
X149496612Y-125323272D01*
X149572706Y-125256818D01*
X149586738Y-125248793D01*
X149611321Y-125238196D01*
X149642691Y-125230335D01*
X149686231Y-125224807D01*
X149747322Y-125221206D01*
X149831345Y-125219128D01*
X149943680Y-125218167D01*
X150089711Y-125217919D01*
X150543037Y-125217846D01*
X150516436Y-125281346D01*
G37*
X149750642Y-127230338D02*
X149775258Y-127230384D01*
X149903581Y-127232970D01*
X150000616Y-127240913D01*
X150072943Y-127256155D01*
X150127145Y-127280636D01*
X150169802Y-127316298D01*
X150207495Y-127365082D01*
X150231090Y-127412661D01*
X150249328Y-127488732D01*
X150250364Y-127563556D01*
X150232622Y-127621077D01*
X150230171Y-127625402D01*
X150230434Y-127638738D01*
X150250961Y-127647851D01*
X150298020Y-127654428D01*
X150377880Y-127660154D01*
X150541764Y-127669923D01*
X150488194Y-127796923D01*
X149953545Y-127796923D01*
X149814906Y-127796660D01*
X149690195Y-127795958D01*
X149584443Y-127794883D01*
X149502678Y-127793500D01*
X149449931Y-127791874D01*
X149431231Y-127790070D01*
X149431294Y-127789364D01*
X149438088Y-127765387D01*
X149452680Y-127721685D01*
X149474130Y-127660154D01*
X149749383Y-127660154D01*
X149857534Y-127659763D01*
X149935974Y-127657946D01*
X149989353Y-127653767D01*
X150024744Y-127646286D01*
X150049221Y-127634567D01*
X150069856Y-127617671D01*
X150080830Y-127606152D01*
X150111225Y-127543864D01*
X150108534Y-127475211D01*
X150072594Y-127412298D01*
X150063675Y-127403139D01*
X150045156Y-127388471D01*
X150020674Y-127378433D01*
X149983607Y-127372151D01*
X149927333Y-127368748D01*
X149845229Y-127367349D01*
X149730671Y-127367077D01*
X149672570Y-127366947D01*
X149577007Y-127366099D01*
X149500474Y-127364594D01*
X149449655Y-127362585D01*
X149431231Y-127360223D01*
X149431294Y-127359518D01*
X149438088Y-127335541D01*
X149452680Y-127291839D01*
X149474130Y-127230308D01*
X149750642Y-127230338D01*
G36*
X149750642Y-127230338D02*
G01*
X149775258Y-127230384D01*
X149903581Y-127232970D01*
X150000616Y-127240913D01*
X150072943Y-127256155D01*
X150127145Y-127280636D01*
X150169802Y-127316298D01*
X150207495Y-127365082D01*
X150231090Y-127412661D01*
X150249328Y-127488732D01*
X150250364Y-127563556D01*
X150232622Y-127621077D01*
X150230171Y-127625402D01*
X150230434Y-127638738D01*
X150250961Y-127647851D01*
X150298020Y-127654428D01*
X150377880Y-127660154D01*
X150541764Y-127669923D01*
X150488194Y-127796923D01*
X149953545Y-127796923D01*
X149814906Y-127796660D01*
X149690195Y-127795958D01*
X149584443Y-127794883D01*
X149502678Y-127793500D01*
X149449931Y-127791874D01*
X149431231Y-127790070D01*
X149431294Y-127789364D01*
X149438088Y-127765387D01*
X149452680Y-127721685D01*
X149474130Y-127660154D01*
X149749383Y-127660154D01*
X149857534Y-127659763D01*
X149935974Y-127657946D01*
X149989353Y-127653767D01*
X150024744Y-127646286D01*
X150049221Y-127634567D01*
X150069856Y-127617671D01*
X150080830Y-127606152D01*
X150111225Y-127543864D01*
X150108534Y-127475211D01*
X150072594Y-127412298D01*
X150063675Y-127403139D01*
X150045156Y-127388471D01*
X150020674Y-127378433D01*
X149983607Y-127372151D01*
X149927333Y-127368748D01*
X149845229Y-127367349D01*
X149730671Y-127367077D01*
X149672570Y-127366947D01*
X149577007Y-127366099D01*
X149500474Y-127364594D01*
X149449655Y-127362585D01*
X149431231Y-127360223D01*
X149431294Y-127359518D01*
X149438088Y-127335541D01*
X149452680Y-127291839D01*
X149474130Y-127230308D01*
X149750642Y-127230338D01*
G37*
X149769702Y-126549923D02*
X149788072Y-126550414D01*
X149917008Y-126556025D01*
X150014186Y-126565938D01*
X150086075Y-126582175D01*
X150139148Y-126606759D01*
X150179873Y-126641715D01*
X150214721Y-126689064D01*
X150215267Y-126689940D01*
X150243697Y-126766499D01*
X150248500Y-126855044D01*
X150230772Y-126940458D01*
X150191611Y-127007622D01*
X150161098Y-127037169D01*
X150069890Y-127093948D01*
X149970452Y-127113077D01*
X149902040Y-127113077D01*
X149928482Y-127050191D01*
X149955163Y-127006700D01*
X150010554Y-126972426D01*
X150021976Y-126968907D01*
X150080162Y-126931028D01*
X150111593Y-126873936D01*
X150112942Y-126808383D01*
X150080884Y-126745117D01*
X150072617Y-126735672D01*
X150036689Y-126704087D01*
X150005365Y-126698871D01*
X149974609Y-126722765D01*
X149940383Y-126778510D01*
X149898650Y-126868846D01*
X149896007Y-126874956D01*
X149849245Y-126975241D01*
X149807819Y-127043735D01*
X149766458Y-127085899D01*
X149719889Y-127107193D01*
X149662840Y-127113077D01*
X149599592Y-127105366D01*
X149518636Y-127066430D01*
X149460478Y-126997932D01*
X149443017Y-126948388D01*
X149433463Y-126878469D01*
X149435504Y-126810575D01*
X149449918Y-126762093D01*
X149453507Y-126756943D01*
X149478584Y-126743267D01*
X149522782Y-126752757D01*
X149557473Y-126769246D01*
X149571916Y-126795687D01*
X149571197Y-126845834D01*
X149575340Y-126915453D01*
X149603946Y-126960943D01*
X149656896Y-126976308D01*
X149658418Y-126976294D01*
X149689155Y-126966983D01*
X149717357Y-126935311D01*
X149749864Y-126873731D01*
X149789002Y-126789986D01*
X149810294Y-126734518D01*
X149808921Y-126702497D01*
X149780797Y-126687534D01*
X149721830Y-126683242D01*
X149627932Y-126683231D01*
X149569969Y-126682752D01*
X149498388Y-126680556D01*
X149449394Y-126676986D01*
X149431231Y-126672491D01*
X149431354Y-126671290D01*
X149441198Y-126645319D01*
X149461972Y-126602305D01*
X149492713Y-126542859D01*
X149769702Y-126549923D01*
G36*
X149769702Y-126549923D02*
G01*
X149788072Y-126550414D01*
X149917008Y-126556025D01*
X150014186Y-126565938D01*
X150086075Y-126582175D01*
X150139148Y-126606759D01*
X150179873Y-126641715D01*
X150214721Y-126689064D01*
X150215267Y-126689940D01*
X150243697Y-126766499D01*
X150248500Y-126855044D01*
X150230772Y-126940458D01*
X150191611Y-127007622D01*
X150161098Y-127037169D01*
X150069890Y-127093948D01*
X149970452Y-127113077D01*
X149902040Y-127113077D01*
X149928482Y-127050191D01*
X149955163Y-127006700D01*
X150010554Y-126972426D01*
X150021976Y-126968907D01*
X150080162Y-126931028D01*
X150111593Y-126873936D01*
X150112942Y-126808383D01*
X150080884Y-126745117D01*
X150072617Y-126735672D01*
X150036689Y-126704087D01*
X150005365Y-126698871D01*
X149974609Y-126722765D01*
X149940383Y-126778510D01*
X149898650Y-126868846D01*
X149896007Y-126874956D01*
X149849245Y-126975241D01*
X149807819Y-127043735D01*
X149766458Y-127085899D01*
X149719889Y-127107193D01*
X149662840Y-127113077D01*
X149599592Y-127105366D01*
X149518636Y-127066430D01*
X149460478Y-126997932D01*
X149443017Y-126948388D01*
X149433463Y-126878469D01*
X149435504Y-126810575D01*
X149449918Y-126762093D01*
X149453507Y-126756943D01*
X149478584Y-126743267D01*
X149522782Y-126752757D01*
X149557473Y-126769246D01*
X149571916Y-126795687D01*
X149571197Y-126845834D01*
X149575340Y-126915453D01*
X149603946Y-126960943D01*
X149656896Y-126976308D01*
X149658418Y-126976294D01*
X149689155Y-126966983D01*
X149717357Y-126935311D01*
X149749864Y-126873731D01*
X149789002Y-126789986D01*
X149810294Y-126734518D01*
X149808921Y-126702497D01*
X149780797Y-126687534D01*
X149721830Y-126683242D01*
X149627932Y-126683231D01*
X149569969Y-126682752D01*
X149498388Y-126680556D01*
X149449394Y-126676986D01*
X149431231Y-126672491D01*
X149431354Y-126671290D01*
X149441198Y-126645319D01*
X149461972Y-126602305D01*
X149492713Y-126542859D01*
X149769702Y-126549923D01*
G37*
X149967464Y-129849187D02*
X150036902Y-129852490D01*
X150085055Y-129859828D01*
X150121134Y-129872655D01*
X150154352Y-129892423D01*
X150179739Y-129910569D01*
X150248273Y-129976461D01*
X150285495Y-130051114D01*
X150297278Y-130144904D01*
X150285533Y-130252240D01*
X150243405Y-130345031D01*
X150169102Y-130418421D01*
X150161236Y-130423954D01*
X150140332Y-130436857D01*
X150116445Y-130446742D01*
X150084418Y-130454093D01*
X150039095Y-130459394D01*
X149975321Y-130463127D01*
X149887940Y-130465778D01*
X149869958Y-130466096D01*
X149771795Y-130467828D01*
X149621731Y-130469763D01*
X149578198Y-130470300D01*
X149432656Y-130472019D01*
X149321289Y-130472365D01*
X149240196Y-130470277D01*
X149185478Y-130464698D01*
X149153239Y-130454567D01*
X149139578Y-130438826D01*
X149140597Y-130416417D01*
X149152397Y-130386280D01*
X149171080Y-130347355D01*
X149175067Y-130339038D01*
X149194581Y-130304402D01*
X149217798Y-130286314D01*
X149256508Y-130279392D01*
X149322503Y-130278256D01*
X149441000Y-130278205D01*
X149441000Y-130156141D01*
X149442063Y-130131858D01*
X149612372Y-130131858D01*
X149615583Y-130178110D01*
X149655035Y-130230350D01*
X149668518Y-130243128D01*
X149696163Y-130261949D01*
X149732120Y-130272562D01*
X149786636Y-130277252D01*
X149869958Y-130278308D01*
X149920402Y-130277394D01*
X150012143Y-130267477D01*
X150072248Y-130244842D01*
X150105100Y-130207238D01*
X150115077Y-130152416D01*
X150112950Y-130129317D01*
X150091853Y-130089350D01*
X150044839Y-130062926D01*
X149967825Y-130048330D01*
X149856729Y-130043846D01*
X149838869Y-130043880D01*
X149758252Y-130045735D01*
X149705553Y-130051693D01*
X149671332Y-130063506D01*
X149646154Y-130082923D01*
X149644951Y-130084133D01*
X149612372Y-130131858D01*
X149442063Y-130131858D01*
X149444288Y-130081055D01*
X149457623Y-130022015D01*
X149484577Y-129972986D01*
X149487212Y-129969330D01*
X149531714Y-129919581D01*
X149585477Y-129884959D01*
X149655846Y-129863123D01*
X149750170Y-129851737D01*
X149875794Y-129848462D01*
X149967464Y-129849187D01*
G36*
X149967464Y-129849187D02*
G01*
X150036902Y-129852490D01*
X150085055Y-129859828D01*
X150121134Y-129872655D01*
X150154352Y-129892423D01*
X150179739Y-129910569D01*
X150248273Y-129976461D01*
X150285495Y-130051114D01*
X150297278Y-130144904D01*
X150285533Y-130252240D01*
X150243405Y-130345031D01*
X150169102Y-130418421D01*
X150161236Y-130423954D01*
X150140332Y-130436857D01*
X150116445Y-130446742D01*
X150084418Y-130454093D01*
X150039095Y-130459394D01*
X149975321Y-130463127D01*
X149887940Y-130465778D01*
X149869958Y-130466096D01*
X149771795Y-130467828D01*
X149621731Y-130469763D01*
X149578198Y-130470300D01*
X149432656Y-130472019D01*
X149321289Y-130472365D01*
X149240196Y-130470277D01*
X149185478Y-130464698D01*
X149153239Y-130454567D01*
X149139578Y-130438826D01*
X149140597Y-130416417D01*
X149152397Y-130386280D01*
X149171080Y-130347355D01*
X149175067Y-130339038D01*
X149194581Y-130304402D01*
X149217798Y-130286314D01*
X149256508Y-130279392D01*
X149322503Y-130278256D01*
X149441000Y-130278205D01*
X149441000Y-130156141D01*
X149442063Y-130131858D01*
X149612372Y-130131858D01*
X149615583Y-130178110D01*
X149655035Y-130230350D01*
X149668518Y-130243128D01*
X149696163Y-130261949D01*
X149732120Y-130272562D01*
X149786636Y-130277252D01*
X149869958Y-130278308D01*
X149920402Y-130277394D01*
X150012143Y-130267477D01*
X150072248Y-130244842D01*
X150105100Y-130207238D01*
X150115077Y-130152416D01*
X150112950Y-130129317D01*
X150091853Y-130089350D01*
X150044839Y-130062926D01*
X149967825Y-130048330D01*
X149856729Y-130043846D01*
X149838869Y-130043880D01*
X149758252Y-130045735D01*
X149705553Y-130051693D01*
X149671332Y-130063506D01*
X149646154Y-130082923D01*
X149644951Y-130084133D01*
X149612372Y-130131858D01*
X149442063Y-130131858D01*
X149444288Y-130081055D01*
X149457623Y-130022015D01*
X149484577Y-129972986D01*
X149487212Y-129969330D01*
X149531714Y-129919581D01*
X149585477Y-129884959D01*
X149655846Y-129863123D01*
X149750170Y-129851737D01*
X149875794Y-129848462D01*
X149967464Y-129849187D01*
G37*
X149937948Y-130591699D02*
X150032467Y-130601262D01*
X150107273Y-130619943D01*
X150157095Y-130643951D01*
X150234591Y-130711536D01*
X150282744Y-130803114D01*
X150299297Y-130915213D01*
X150298401Y-130945151D01*
X150280071Y-131033315D01*
X150233896Y-131105733D01*
X150154352Y-131172192D01*
X150148452Y-131176147D01*
X150116712Y-131194040D01*
X150080837Y-131205678D01*
X150032094Y-131212371D01*
X149961751Y-131215426D01*
X149867818Y-131216106D01*
X149861077Y-131216154D01*
X149839895Y-131216135D01*
X149745416Y-131215076D01*
X149679586Y-131211436D01*
X149633606Y-131203892D01*
X149598679Y-131191122D01*
X149566005Y-131171803D01*
X149559225Y-131167050D01*
X149505769Y-131116759D01*
X149465453Y-131059457D01*
X149452371Y-131030032D01*
X149432746Y-130934942D01*
X149612739Y-130934942D01*
X149646154Y-130981692D01*
X149654947Y-130989824D01*
X149681259Y-131005754D01*
X149719480Y-131015159D01*
X149778651Y-131019632D01*
X149867818Y-131020769D01*
X149951336Y-131018822D01*
X150030905Y-131009105D01*
X150081192Y-130989047D01*
X150107487Y-130956240D01*
X150115077Y-130908280D01*
X150113568Y-130890016D01*
X150085893Y-130838848D01*
X150023828Y-130805035D01*
X149927963Y-130788796D01*
X149798886Y-130790349D01*
X149790580Y-130790974D01*
X149719357Y-130800077D01*
X149674191Y-130816288D01*
X149643248Y-130843660D01*
X149614263Y-130889553D01*
X149612739Y-130934942D01*
X149432746Y-130934942D01*
X149430550Y-130924299D01*
X149444664Y-130819734D01*
X149492895Y-130723368D01*
X149573421Y-130642235D01*
X149584209Y-130635385D01*
X149646847Y-130613097D01*
X149734065Y-130598079D01*
X149834790Y-130590792D01*
X149937948Y-130591699D01*
G36*
X149937948Y-130591699D02*
G01*
X150032467Y-130601262D01*
X150107273Y-130619943D01*
X150157095Y-130643951D01*
X150234591Y-130711536D01*
X150282744Y-130803114D01*
X150299297Y-130915213D01*
X150298401Y-130945151D01*
X150280071Y-131033315D01*
X150233896Y-131105733D01*
X150154352Y-131172192D01*
X150148452Y-131176147D01*
X150116712Y-131194040D01*
X150080837Y-131205678D01*
X150032094Y-131212371D01*
X149961751Y-131215426D01*
X149867818Y-131216106D01*
X149861077Y-131216154D01*
X149839895Y-131216135D01*
X149745416Y-131215076D01*
X149679586Y-131211436D01*
X149633606Y-131203892D01*
X149598679Y-131191122D01*
X149566005Y-131171803D01*
X149559225Y-131167050D01*
X149505769Y-131116759D01*
X149465453Y-131059457D01*
X149452371Y-131030032D01*
X149432746Y-130934942D01*
X149612739Y-130934942D01*
X149646154Y-130981692D01*
X149654947Y-130989824D01*
X149681259Y-131005754D01*
X149719480Y-131015159D01*
X149778651Y-131019632D01*
X149867818Y-131020769D01*
X149951336Y-131018822D01*
X150030905Y-131009105D01*
X150081192Y-130989047D01*
X150107487Y-130956240D01*
X150115077Y-130908280D01*
X150113568Y-130890016D01*
X150085893Y-130838848D01*
X150023828Y-130805035D01*
X149927963Y-130788796D01*
X149798886Y-130790349D01*
X149790580Y-130790974D01*
X149719357Y-130800077D01*
X149674191Y-130816288D01*
X149643248Y-130843660D01*
X149614263Y-130889553D01*
X149612739Y-130934942D01*
X149432746Y-130934942D01*
X149430550Y-130924299D01*
X149444664Y-130819734D01*
X149492895Y-130723368D01*
X149573421Y-130642235D01*
X149584209Y-130635385D01*
X149646847Y-130613097D01*
X149734065Y-130598079D01*
X149834790Y-130590792D01*
X149937948Y-130591699D01*
G37*
X153547820Y-123732946D02*
X153675953Y-123733379D01*
X153771580Y-123734659D01*
X153839589Y-123737168D01*
X153884867Y-123741286D01*
X153912303Y-123747395D01*
X153926782Y-123755878D01*
X153933193Y-123767115D01*
X153935791Y-123777994D01*
X153944978Y-123822347D01*
X153959009Y-123893106D01*
X153976514Y-123983074D01*
X153996126Y-124085056D01*
X154016475Y-124191857D01*
X154036193Y-124296281D01*
X154053911Y-124391132D01*
X154068262Y-124469214D01*
X154077876Y-124523332D01*
X154081384Y-124546291D01*
X154083503Y-124547842D01*
X154110994Y-124560325D01*
X154163594Y-124581927D01*
X154232808Y-124609123D01*
X154326063Y-124646866D01*
X154433841Y-124693328D01*
X154528828Y-124736878D01*
X154550149Y-124746858D01*
X154616914Y-124774862D01*
X154668410Y-124791641D01*
X154694905Y-124793854D01*
X154696782Y-124792713D01*
X154724435Y-124774584D01*
X154778151Y-124738644D01*
X154852697Y-124688418D01*
X154942838Y-124627430D01*
X155043343Y-124559205D01*
X155157530Y-124482330D01*
X155246230Y-124424663D01*
X155311279Y-124385426D01*
X155356705Y-124362350D01*
X155386537Y-124353166D01*
X155404805Y-124355604D01*
X155406175Y-124356424D01*
X155432795Y-124378477D01*
X155481303Y-124423436D01*
X155546892Y-124486673D01*
X155624753Y-124563559D01*
X155710078Y-124649465D01*
X155796666Y-124738579D01*
X155878053Y-124825872D01*
X155932965Y-124890018D01*
X155962810Y-124932679D01*
X155968996Y-124955521D01*
X155967606Y-124958505D01*
X155948873Y-124989936D01*
X155912267Y-125046997D01*
X155861303Y-125124343D01*
X155799496Y-125216626D01*
X155730361Y-125318502D01*
X155503580Y-125650593D01*
X155571647Y-125800566D01*
X155573619Y-125804923D01*
X155613509Y-125897000D01*
X155653182Y-125994683D01*
X155684326Y-126077539D01*
X155684455Y-126077905D01*
X155708544Y-126143685D01*
X155728890Y-126194323D01*
X155741099Y-126218884D01*
X155741542Y-126219282D01*
X155766544Y-126227619D01*
X155823402Y-126241341D01*
X155905986Y-126259123D01*
X156008169Y-126279641D01*
X156123822Y-126301571D01*
X156127967Y-126302336D01*
X156245981Y-126324229D01*
X156352849Y-126344281D01*
X156441748Y-126361192D01*
X156505855Y-126373667D01*
X156538346Y-126380406D01*
X156540147Y-126380837D01*
X156554056Y-126385273D01*
X156564511Y-126394263D01*
X156572004Y-126412737D01*
X156577028Y-126445628D01*
X156580078Y-126497868D01*
X156581645Y-126574388D01*
X156582224Y-126680122D01*
X156582308Y-126820000D01*
X156582307Y-126837575D01*
X156582193Y-126973371D01*
X156581528Y-127075576D01*
X156579818Y-127149122D01*
X156576571Y-127198942D01*
X156571294Y-127229967D01*
X156563493Y-127247129D01*
X156552675Y-127255361D01*
X156538346Y-127259594D01*
X156537832Y-127259716D01*
X156504149Y-127266672D01*
X156439083Y-127279320D01*
X156349458Y-127296360D01*
X156242096Y-127316496D01*
X156123822Y-127338429D01*
X156114144Y-127340218D01*
X155999350Y-127362083D01*
X155898520Y-127382430D01*
X155817783Y-127399934D01*
X155763266Y-127413271D01*
X155741099Y-127421116D01*
X155741064Y-127421158D01*
X155728800Y-127445884D01*
X155708424Y-127496631D01*
X155684326Y-127562462D01*
X155683017Y-127566169D01*
X155651209Y-127650331D01*
X155611315Y-127748230D01*
X155571647Y-127839435D01*
X155503580Y-127989407D01*
X155730361Y-128321499D01*
X155746312Y-128344889D01*
X155814110Y-128445080D01*
X155873792Y-128534480D01*
X155921844Y-128607745D01*
X155954750Y-128659527D01*
X155968996Y-128684480D01*
X155965730Y-128701577D01*
X155940429Y-128740395D01*
X155890325Y-128800385D01*
X155814011Y-128883210D01*
X155710078Y-128990535D01*
X155700618Y-129000139D01*
X155615855Y-129085302D01*
X155539063Y-129160949D01*
X155475053Y-129222449D01*
X155428639Y-129265173D01*
X155404631Y-129284489D01*
X155404515Y-129284552D01*
X155386237Y-129287006D01*
X155356589Y-129277956D01*
X155311514Y-129255119D01*
X155246956Y-129216213D01*
X155158860Y-129158954D01*
X155043170Y-129081059D01*
X155023643Y-129067785D01*
X154924722Y-129000652D01*
X154837152Y-128941410D01*
X154766169Y-128893588D01*
X154717009Y-128860715D01*
X154694905Y-128846318D01*
X154690223Y-128845232D01*
X154655290Y-128852044D01*
X154598247Y-128872450D01*
X154528828Y-128903123D01*
X154438041Y-128944808D01*
X154330314Y-128991352D01*
X154232808Y-129030877D01*
X154207570Y-129040676D01*
X154143130Y-129066340D01*
X154098237Y-129085193D01*
X154081384Y-129093710D01*
X154080125Y-129103111D01*
X154072841Y-129145363D01*
X154060261Y-129214521D01*
X154043754Y-129303387D01*
X154024688Y-129404768D01*
X154004431Y-129511467D01*
X153984353Y-129616288D01*
X153965821Y-129712036D01*
X153950205Y-129791516D01*
X153938873Y-129847530D01*
X153933193Y-129872885D01*
X153931592Y-129877088D01*
X153922955Y-129887334D01*
X153904567Y-129894957D01*
X153871540Y-129900338D01*
X153818987Y-129903859D01*
X153742021Y-129905901D01*
X153635754Y-129906847D01*
X153495299Y-129907077D01*
X153068155Y-129907077D01*
X153047909Y-129804500D01*
X153045482Y-129792092D01*
X153032912Y-129726199D01*
X153015830Y-129635084D01*
X152996171Y-129529104D01*
X152975868Y-129418615D01*
X152967701Y-129375105D01*
X152947833Y-129277882D01*
X152929046Y-129196858D01*
X152913141Y-129139477D01*
X152901921Y-129113187D01*
X152883589Y-129101273D01*
X152835084Y-129079583D01*
X152772308Y-129057395D01*
X152748800Y-129049585D01*
X152671634Y-129020835D01*
X152580306Y-128983752D01*
X152489907Y-128944375D01*
X152442690Y-128923315D01*
X152372163Y-128893311D01*
X152319345Y-128872692D01*
X152293088Y-128865026D01*
X152291106Y-128865452D01*
X152263249Y-128879993D01*
X152209490Y-128912783D01*
X152135037Y-128960493D01*
X152045103Y-129019798D01*
X151944896Y-129087369D01*
X151618584Y-129309713D01*
X151325984Y-129017601D01*
X151297829Y-128989349D01*
X151213551Y-128902961D01*
X151140872Y-128825756D01*
X151083888Y-128762258D01*
X151046693Y-128716990D01*
X151033384Y-128694474D01*
X151043510Y-128670023D01*
X151072579Y-128618819D01*
X151117104Y-128546747D01*
X151173589Y-128459460D01*
X151238538Y-128362612D01*
X151302686Y-128267486D01*
X151359173Y-128181669D01*
X151403816Y-128111652D01*
X151433145Y-128062876D01*
X151443692Y-128040783D01*
X151443596Y-128039488D01*
X151433198Y-128010139D01*
X151408988Y-127958093D01*
X151375751Y-127893708D01*
X151375387Y-127893032D01*
X151332559Y-127807521D01*
X151311635Y-127748926D01*
X151311577Y-127712571D01*
X151331346Y-127693775D01*
X151350805Y-127685819D01*
X151402920Y-127664347D01*
X151483036Y-127631273D01*
X151586893Y-127588356D01*
X151710233Y-127537356D01*
X151848799Y-127480033D01*
X151998330Y-127418146D01*
X152134364Y-127362052D01*
X152273950Y-127304977D01*
X152398685Y-127254479D01*
X152504328Y-127212254D01*
X152586635Y-127179995D01*
X152641365Y-127159397D01*
X152664274Y-127152154D01*
X152685282Y-127165986D01*
X152720358Y-127204412D01*
X152761113Y-127258807D01*
X152867733Y-127389395D01*
X153003975Y-127506260D01*
X153153882Y-127591780D01*
X153313029Y-127645431D01*
X153476988Y-127666684D01*
X153641333Y-127655014D01*
X153801639Y-127609894D01*
X153953480Y-127530797D01*
X154092428Y-127417197D01*
X154146540Y-127357965D01*
X154242218Y-127216054D01*
X154304595Y-127064206D01*
X154335156Y-126906861D01*
X154335385Y-126748456D01*
X154306768Y-126593429D01*
X154250790Y-126446220D01*
X154168936Y-126311266D01*
X154062691Y-126193005D01*
X153933541Y-126095877D01*
X153782969Y-126024318D01*
X153612461Y-125982769D01*
X153530278Y-125975143D01*
X153352225Y-125985634D01*
X153183296Y-126032882D01*
X153026478Y-126115489D01*
X152884755Y-126232059D01*
X152761113Y-126381193D01*
X152722018Y-126433561D01*
X152686557Y-126472832D01*
X152664308Y-126487846D01*
X152644912Y-126481859D01*
X152592941Y-126462432D01*
X152512998Y-126431194D01*
X152409327Y-126389839D01*
X152286168Y-126340061D01*
X152147766Y-126283553D01*
X151998363Y-126222009D01*
X151862980Y-126166008D01*
X151723148Y-126108184D01*
X151598128Y-126056500D01*
X151492178Y-126012718D01*
X151409559Y-125978597D01*
X151354528Y-125955898D01*
X151331346Y-125946380D01*
X151331072Y-125946269D01*
X151311497Y-125927228D01*
X151311721Y-125890694D01*
X151332790Y-125831954D01*
X151375751Y-125746292D01*
X151379369Y-125739549D01*
X151411913Y-125675938D01*
X151434950Y-125625707D01*
X151443692Y-125599218D01*
X151433361Y-125577506D01*
X151404212Y-125528984D01*
X151359713Y-125459163D01*
X151303332Y-125373484D01*
X151238538Y-125277388D01*
X151175016Y-125182706D01*
X151118295Y-125095132D01*
X151073453Y-125022642D01*
X151043984Y-124970889D01*
X151033384Y-124945526D01*
X151034730Y-124941206D01*
X151055944Y-124911092D01*
X151099763Y-124859640D01*
X151162091Y-124791375D01*
X151238830Y-124710820D01*
X151325884Y-124622500D01*
X151618383Y-124330488D01*
X152287475Y-124785360D01*
X152437084Y-124716208D01*
X152437527Y-124716003D01*
X152532899Y-124674477D01*
X152639104Y-124632044D01*
X152733231Y-124597858D01*
X152748412Y-124592684D01*
X152818891Y-124566601D01*
X152873658Y-124543081D01*
X152901921Y-124526677D01*
X152905912Y-124519996D01*
X152919303Y-124479892D01*
X152936627Y-124411795D01*
X152956083Y-124323145D01*
X152975868Y-124221385D01*
X152981449Y-124190904D01*
X153001767Y-124080628D01*
X153020905Y-123977731D01*
X153036930Y-123892569D01*
X153047909Y-123835500D01*
X153068155Y-123732923D01*
X153495299Y-123732923D01*
X153547820Y-123732946D01*
G36*
X153547820Y-123732946D02*
G01*
X153675953Y-123733379D01*
X153771580Y-123734659D01*
X153839589Y-123737168D01*
X153884867Y-123741286D01*
X153912303Y-123747395D01*
X153926782Y-123755878D01*
X153933193Y-123767115D01*
X153935791Y-123777994D01*
X153944978Y-123822347D01*
X153959009Y-123893106D01*
X153976514Y-123983074D01*
X153996126Y-124085056D01*
X154016475Y-124191857D01*
X154036193Y-124296281D01*
X154053911Y-124391132D01*
X154068262Y-124469214D01*
X154077876Y-124523332D01*
X154081384Y-124546291D01*
X154083503Y-124547842D01*
X154110994Y-124560325D01*
X154163594Y-124581927D01*
X154232808Y-124609123D01*
X154326063Y-124646866D01*
X154433841Y-124693328D01*
X154528828Y-124736878D01*
X154550149Y-124746858D01*
X154616914Y-124774862D01*
X154668410Y-124791641D01*
X154694905Y-124793854D01*
X154696782Y-124792713D01*
X154724435Y-124774584D01*
X154778151Y-124738644D01*
X154852697Y-124688418D01*
X154942838Y-124627430D01*
X155043343Y-124559205D01*
X155157530Y-124482330D01*
X155246230Y-124424663D01*
X155311279Y-124385426D01*
X155356705Y-124362350D01*
X155386537Y-124353166D01*
X155404805Y-124355604D01*
X155406175Y-124356424D01*
X155432795Y-124378477D01*
X155481303Y-124423436D01*
X155546892Y-124486673D01*
X155624753Y-124563559D01*
X155710078Y-124649465D01*
X155796666Y-124738579D01*
X155878053Y-124825872D01*
X155932965Y-124890018D01*
X155962810Y-124932679D01*
X155968996Y-124955521D01*
X155967606Y-124958505D01*
X155948873Y-124989936D01*
X155912267Y-125046997D01*
X155861303Y-125124343D01*
X155799496Y-125216626D01*
X155730361Y-125318502D01*
X155503580Y-125650593D01*
X155571647Y-125800566D01*
X155573619Y-125804923D01*
X155613509Y-125897000D01*
X155653182Y-125994683D01*
X155684326Y-126077539D01*
X155684455Y-126077905D01*
X155708544Y-126143685D01*
X155728890Y-126194323D01*
X155741099Y-126218884D01*
X155741542Y-126219282D01*
X155766544Y-126227619D01*
X155823402Y-126241341D01*
X155905986Y-126259123D01*
X156008169Y-126279641D01*
X156123822Y-126301571D01*
X156127967Y-126302336D01*
X156245981Y-126324229D01*
X156352849Y-126344281D01*
X156441748Y-126361192D01*
X156505855Y-126373667D01*
X156538346Y-126380406D01*
X156540147Y-126380837D01*
X156554056Y-126385273D01*
X156564511Y-126394263D01*
X156572004Y-126412737D01*
X156577028Y-126445628D01*
X156580078Y-126497868D01*
X156581645Y-126574388D01*
X156582224Y-126680122D01*
X156582308Y-126820000D01*
X156582307Y-126837575D01*
X156582193Y-126973371D01*
X156581528Y-127075576D01*
X156579818Y-127149122D01*
X156576571Y-127198942D01*
X156571294Y-127229967D01*
X156563493Y-127247129D01*
X156552675Y-127255361D01*
X156538346Y-127259594D01*
X156537832Y-127259716D01*
X156504149Y-127266672D01*
X156439083Y-127279320D01*
X156349458Y-127296360D01*
X156242096Y-127316496D01*
X156123822Y-127338429D01*
X156114144Y-127340218D01*
X155999350Y-127362083D01*
X155898520Y-127382430D01*
X155817783Y-127399934D01*
X155763266Y-127413271D01*
X155741099Y-127421116D01*
X155741064Y-127421158D01*
X155728800Y-127445884D01*
X155708424Y-127496631D01*
X155684326Y-127562462D01*
X155683017Y-127566169D01*
X155651209Y-127650331D01*
X155611315Y-127748230D01*
X155571647Y-127839435D01*
X155503580Y-127989407D01*
X155730361Y-128321499D01*
X155746312Y-128344889D01*
X155814110Y-128445080D01*
X155873792Y-128534480D01*
X155921844Y-128607745D01*
X155954750Y-128659527D01*
X155968996Y-128684480D01*
X155965730Y-128701577D01*
X155940429Y-128740395D01*
X155890325Y-128800385D01*
X155814011Y-128883210D01*
X155710078Y-128990535D01*
X155700618Y-129000139D01*
X155615855Y-129085302D01*
X155539063Y-129160949D01*
X155475053Y-129222449D01*
X155428639Y-129265173D01*
X155404631Y-129284489D01*
X155404515Y-129284552D01*
X155386237Y-129287006D01*
X155356589Y-129277956D01*
X155311514Y-129255119D01*
X155246956Y-129216213D01*
X155158860Y-129158954D01*
X155043170Y-129081059D01*
X155023643Y-129067785D01*
X154924722Y-129000652D01*
X154837152Y-128941410D01*
X154766169Y-128893588D01*
X154717009Y-128860715D01*
X154694905Y-128846318D01*
X154690223Y-128845232D01*
X154655290Y-128852044D01*
X154598247Y-128872450D01*
X154528828Y-128903123D01*
X154438041Y-128944808D01*
X154330314Y-128991352D01*
X154232808Y-129030877D01*
X154207570Y-129040676D01*
X154143130Y-129066340D01*
X154098237Y-129085193D01*
X154081384Y-129093710D01*
X154080125Y-129103111D01*
X154072841Y-129145363D01*
X154060261Y-129214521D01*
X154043754Y-129303387D01*
X154024688Y-129404768D01*
X154004431Y-129511467D01*
X153984353Y-129616288D01*
X153965821Y-129712036D01*
X153950205Y-129791516D01*
X153938873Y-129847530D01*
X153933193Y-129872885D01*
X153931592Y-129877088D01*
X153922955Y-129887334D01*
X153904567Y-129894957D01*
X153871540Y-129900338D01*
X153818987Y-129903859D01*
X153742021Y-129905901D01*
X153635754Y-129906847D01*
X153495299Y-129907077D01*
X153068155Y-129907077D01*
X153047909Y-129804500D01*
X153045482Y-129792092D01*
X153032912Y-129726199D01*
X153015830Y-129635084D01*
X152996171Y-129529104D01*
X152975868Y-129418615D01*
X152967701Y-129375105D01*
X152947833Y-129277882D01*
X152929046Y-129196858D01*
X152913141Y-129139477D01*
X152901921Y-129113187D01*
X152883589Y-129101273D01*
X152835084Y-129079583D01*
X152772308Y-129057395D01*
X152748800Y-129049585D01*
X152671634Y-129020835D01*
X152580306Y-128983752D01*
X152489907Y-128944375D01*
X152442690Y-128923315D01*
X152372163Y-128893311D01*
X152319345Y-128872692D01*
X152293088Y-128865026D01*
X152291106Y-128865452D01*
X152263249Y-128879993D01*
X152209490Y-128912783D01*
X152135037Y-128960493D01*
X152045103Y-129019798D01*
X151944896Y-129087369D01*
X151618584Y-129309713D01*
X151325984Y-129017601D01*
X151297829Y-128989349D01*
X151213551Y-128902961D01*
X151140872Y-128825756D01*
X151083888Y-128762258D01*
X151046693Y-128716990D01*
X151033384Y-128694474D01*
X151043510Y-128670023D01*
X151072579Y-128618819D01*
X151117104Y-128546747D01*
X151173589Y-128459460D01*
X151238538Y-128362612D01*
X151302686Y-128267486D01*
X151359173Y-128181669D01*
X151403816Y-128111652D01*
X151433145Y-128062876D01*
X151443692Y-128040783D01*
X151443596Y-128039488D01*
X151433198Y-128010139D01*
X151408988Y-127958093D01*
X151375751Y-127893708D01*
X151375387Y-127893032D01*
X151332559Y-127807521D01*
X151311635Y-127748926D01*
X151311577Y-127712571D01*
X151331346Y-127693775D01*
X151350805Y-127685819D01*
X151402920Y-127664347D01*
X151483036Y-127631273D01*
X151586893Y-127588356D01*
X151710233Y-127537356D01*
X151848799Y-127480033D01*
X151998330Y-127418146D01*
X152134364Y-127362052D01*
X152273950Y-127304977D01*
X152398685Y-127254479D01*
X152504328Y-127212254D01*
X152586635Y-127179995D01*
X152641365Y-127159397D01*
X152664274Y-127152154D01*
X152685282Y-127165986D01*
X152720358Y-127204412D01*
X152761113Y-127258807D01*
X152867733Y-127389395D01*
X153003975Y-127506260D01*
X153153882Y-127591780D01*
X153313029Y-127645431D01*
X153476988Y-127666684D01*
X153641333Y-127655014D01*
X153801639Y-127609894D01*
X153953480Y-127530797D01*
X154092428Y-127417197D01*
X154146540Y-127357965D01*
X154242218Y-127216054D01*
X154304595Y-127064206D01*
X154335156Y-126906861D01*
X154335385Y-126748456D01*
X154306768Y-126593429D01*
X154250790Y-126446220D01*
X154168936Y-126311266D01*
X154062691Y-126193005D01*
X153933541Y-126095877D01*
X153782969Y-126024318D01*
X153612461Y-125982769D01*
X153530278Y-125975143D01*
X153352225Y-125985634D01*
X153183296Y-126032882D01*
X153026478Y-126115489D01*
X152884755Y-126232059D01*
X152761113Y-126381193D01*
X152722018Y-126433561D01*
X152686557Y-126472832D01*
X152664308Y-126487846D01*
X152644912Y-126481859D01*
X152592941Y-126462432D01*
X152512998Y-126431194D01*
X152409327Y-126389839D01*
X152286168Y-126340061D01*
X152147766Y-126283553D01*
X151998363Y-126222009D01*
X151862980Y-126166008D01*
X151723148Y-126108184D01*
X151598128Y-126056500D01*
X151492178Y-126012718D01*
X151409559Y-125978597D01*
X151354528Y-125955898D01*
X151331346Y-125946380D01*
X151331072Y-125946269D01*
X151311497Y-125927228D01*
X151311721Y-125890694D01*
X151332790Y-125831954D01*
X151375751Y-125746292D01*
X151379369Y-125739549D01*
X151411913Y-125675938D01*
X151434950Y-125625707D01*
X151443692Y-125599218D01*
X151433361Y-125577506D01*
X151404212Y-125528984D01*
X151359713Y-125459163D01*
X151303332Y-125373484D01*
X151238538Y-125277388D01*
X151175016Y-125182706D01*
X151118295Y-125095132D01*
X151073453Y-125022642D01*
X151043984Y-124970889D01*
X151033384Y-124945526D01*
X151034730Y-124941206D01*
X151055944Y-124911092D01*
X151099763Y-124859640D01*
X151162091Y-124791375D01*
X151238830Y-124710820D01*
X151325884Y-124622500D01*
X151618383Y-124330488D01*
X152287475Y-124785360D01*
X152437084Y-124716208D01*
X152437527Y-124716003D01*
X152532899Y-124674477D01*
X152639104Y-124632044D01*
X152733231Y-124597858D01*
X152748412Y-124592684D01*
X152818891Y-124566601D01*
X152873658Y-124543081D01*
X152901921Y-124526677D01*
X152905912Y-124519996D01*
X152919303Y-124479892D01*
X152936627Y-124411795D01*
X152956083Y-124323145D01*
X152975868Y-124221385D01*
X152981449Y-124190904D01*
X153001767Y-124080628D01*
X153020905Y-123977731D01*
X153036930Y-123892569D01*
X153047909Y-123835500D01*
X153068155Y-123732923D01*
X153495299Y-123732923D01*
X153547820Y-123732946D01*
G37*
X150005143Y-124417251D02*
X150103808Y-124418753D01*
X150181932Y-124421089D01*
X150233338Y-124424071D01*
X150251846Y-124427509D01*
X150251796Y-124428230D01*
X150242587Y-124453203D01*
X150222293Y-124495399D01*
X150192739Y-124552549D01*
X149885254Y-124557928D01*
X149577769Y-124563308D01*
X149577769Y-124680539D01*
X149914808Y-124685885D01*
X150006426Y-124687579D01*
X150104351Y-124690005D01*
X150182094Y-124692634D01*
X150233358Y-124695246D01*
X150251846Y-124697623D01*
X150251781Y-124698306D01*
X150244980Y-124721996D01*
X150230396Y-124765546D01*
X150208946Y-124827077D01*
X149912896Y-124827376D01*
X149861468Y-124827676D01*
X149761534Y-124829754D01*
X149678075Y-124833470D01*
X149618623Y-124838430D01*
X149590713Y-124844240D01*
X149575786Y-124865024D01*
X149571175Y-124907440D01*
X149577769Y-124954077D01*
X149914808Y-124959423D01*
X150000454Y-124961336D01*
X150101828Y-124965303D01*
X150181345Y-124970491D01*
X150233264Y-124976499D01*
X150251846Y-124982927D01*
X150245966Y-125007998D01*
X150229171Y-125050850D01*
X150206497Y-125100615D01*
X149551467Y-125100615D01*
X149489637Y-125038785D01*
X149475772Y-125024662D01*
X149444954Y-124985536D01*
X149434972Y-124946078D01*
X149439567Y-124887362D01*
X149442538Y-124863456D01*
X149448824Y-124801801D01*
X149451328Y-124758692D01*
X149450945Y-124745905D01*
X149446800Y-124693446D01*
X149439567Y-124630022D01*
X149437082Y-124609730D01*
X149436105Y-124558610D01*
X149451538Y-124521207D01*
X149489637Y-124478599D01*
X149551467Y-124416769D01*
X149901657Y-124416769D01*
X150005143Y-124417251D01*
G36*
X150005143Y-124417251D02*
G01*
X150103808Y-124418753D01*
X150181932Y-124421089D01*
X150233338Y-124424071D01*
X150251846Y-124427509D01*
X150251796Y-124428230D01*
X150242587Y-124453203D01*
X150222293Y-124495399D01*
X150192739Y-124552549D01*
X149885254Y-124557928D01*
X149577769Y-124563308D01*
X149577769Y-124680539D01*
X149914808Y-124685885D01*
X150006426Y-124687579D01*
X150104351Y-124690005D01*
X150182094Y-124692634D01*
X150233358Y-124695246D01*
X150251846Y-124697623D01*
X150251781Y-124698306D01*
X150244980Y-124721996D01*
X150230396Y-124765546D01*
X150208946Y-124827077D01*
X149912896Y-124827376D01*
X149861468Y-124827676D01*
X149761534Y-124829754D01*
X149678075Y-124833470D01*
X149618623Y-124838430D01*
X149590713Y-124844240D01*
X149575786Y-124865024D01*
X149571175Y-124907440D01*
X149577769Y-124954077D01*
X149914808Y-124959423D01*
X150000454Y-124961336D01*
X150101828Y-124965303D01*
X150181345Y-124970491D01*
X150233264Y-124976499D01*
X150251846Y-124982927D01*
X150245966Y-125007998D01*
X150229171Y-125050850D01*
X150206497Y-125100615D01*
X149551467Y-125100615D01*
X149489637Y-125038785D01*
X149475772Y-125024662D01*
X149444954Y-124985536D01*
X149434972Y-124946078D01*
X149439567Y-124887362D01*
X149442538Y-124863456D01*
X149448824Y-124801801D01*
X149451328Y-124758692D01*
X149450945Y-124745905D01*
X149446800Y-124693446D01*
X149439567Y-124630022D01*
X149437082Y-124609730D01*
X149436105Y-124558610D01*
X149451538Y-124521207D01*
X149489637Y-124478599D01*
X149551467Y-124416769D01*
X149901657Y-124416769D01*
X150005143Y-124417251D01*
G37*
X149842060Y-123752780D02*
X149955299Y-123755789D01*
X150039308Y-123763454D01*
X150100480Y-123777562D01*
X150145205Y-123799899D01*
X150179876Y-123832253D01*
X150210883Y-123876410D01*
X150236472Y-123932667D01*
X150251846Y-124036540D01*
X150250089Y-124083936D01*
X150239453Y-124125807D01*
X150212938Y-124164791D01*
X150163580Y-124214965D01*
X150128721Y-124247232D01*
X150083466Y-124280844D01*
X150041049Y-124296003D01*
X149987232Y-124299539D01*
X149899150Y-124299539D01*
X149930213Y-124239470D01*
X149968064Y-124191867D01*
X150019050Y-124159261D01*
X150032912Y-124153661D01*
X150086642Y-124110992D01*
X150113583Y-124051707D01*
X150110961Y-123987061D01*
X150076000Y-123928308D01*
X150047606Y-123903450D01*
X150011282Y-123888970D01*
X149978954Y-123904470D01*
X149946435Y-123952667D01*
X149909539Y-124036274D01*
X149904443Y-124048962D01*
X149871093Y-124125078D01*
X149838207Y-124190396D01*
X149812231Y-124231953D01*
X149765833Y-124273576D01*
X149691789Y-124301247D01*
X149612330Y-124298310D01*
X149537132Y-124265571D01*
X149475869Y-124203841D01*
X149449790Y-124153858D01*
X149431530Y-124057303D01*
X149433993Y-124003647D01*
X149447313Y-123953976D01*
X149475261Y-123934919D01*
X149521290Y-123942045D01*
X149527376Y-123944118D01*
X149559651Y-123960556D01*
X149571867Y-123987926D01*
X149571050Y-124040068D01*
X149569939Y-124076884D01*
X149579472Y-124119961D01*
X149607974Y-124149475D01*
X149643065Y-124166286D01*
X149679825Y-124168161D01*
X149680039Y-124168074D01*
X149699902Y-124146279D01*
X149728808Y-124099632D01*
X149761114Y-124039278D01*
X149791177Y-123976360D01*
X149813354Y-123922023D01*
X149822000Y-123887410D01*
X149813533Y-123882260D01*
X149773691Y-123875778D01*
X149708629Y-123871339D01*
X149626615Y-123869692D01*
X149569847Y-123869309D01*
X149498352Y-123867505D01*
X149449390Y-123864558D01*
X149431231Y-123860843D01*
X149437333Y-123841424D01*
X149453905Y-123802227D01*
X149476580Y-123752462D01*
X149767491Y-123752462D01*
X149842060Y-123752780D01*
G36*
X149842060Y-123752780D02*
G01*
X149955299Y-123755789D01*
X150039308Y-123763454D01*
X150100480Y-123777562D01*
X150145205Y-123799899D01*
X150179876Y-123832253D01*
X150210883Y-123876410D01*
X150236472Y-123932667D01*
X150251846Y-124036540D01*
X150250089Y-124083936D01*
X150239453Y-124125807D01*
X150212938Y-124164791D01*
X150163580Y-124214965D01*
X150128721Y-124247232D01*
X150083466Y-124280844D01*
X150041049Y-124296003D01*
X149987232Y-124299539D01*
X149899150Y-124299539D01*
X149930213Y-124239470D01*
X149968064Y-124191867D01*
X150019050Y-124159261D01*
X150032912Y-124153661D01*
X150086642Y-124110992D01*
X150113583Y-124051707D01*
X150110961Y-123987061D01*
X150076000Y-123928308D01*
X150047606Y-123903450D01*
X150011282Y-123888970D01*
X149978954Y-123904470D01*
X149946435Y-123952667D01*
X149909539Y-124036274D01*
X149904443Y-124048962D01*
X149871093Y-124125078D01*
X149838207Y-124190396D01*
X149812231Y-124231953D01*
X149765833Y-124273576D01*
X149691789Y-124301247D01*
X149612330Y-124298310D01*
X149537132Y-124265571D01*
X149475869Y-124203841D01*
X149449790Y-124153858D01*
X149431530Y-124057303D01*
X149433993Y-124003647D01*
X149447313Y-123953976D01*
X149475261Y-123934919D01*
X149521290Y-123942045D01*
X149527376Y-123944118D01*
X149559651Y-123960556D01*
X149571867Y-123987926D01*
X149571050Y-124040068D01*
X149569939Y-124076884D01*
X149579472Y-124119961D01*
X149607974Y-124149475D01*
X149643065Y-124166286D01*
X149679825Y-124168161D01*
X149680039Y-124168074D01*
X149699902Y-124146279D01*
X149728808Y-124099632D01*
X149761114Y-124039278D01*
X149791177Y-123976360D01*
X149813354Y-123922023D01*
X149822000Y-123887410D01*
X149813533Y-123882260D01*
X149773691Y-123875778D01*
X149708629Y-123871339D01*
X149626615Y-123869692D01*
X149569847Y-123869309D01*
X149498352Y-123867505D01*
X149449390Y-123864558D01*
X149431231Y-123860843D01*
X149437333Y-123841424D01*
X149453905Y-123802227D01*
X149476580Y-123752462D01*
X149767491Y-123752462D01*
X149842060Y-123752780D01*
G37*
X149824785Y-129105582D02*
X149841538Y-129116548D01*
X149840520Y-129126290D01*
X149821991Y-129172877D01*
X149787919Y-129225682D01*
X149748478Y-129270603D01*
X149713845Y-129293535D01*
X149666867Y-129317373D01*
X149624138Y-129366230D01*
X149607077Y-129422963D01*
X149612010Y-129443758D01*
X149636843Y-129484804D01*
X149671315Y-129520557D01*
X149702589Y-129535846D01*
X149702705Y-129535842D01*
X149715750Y-129520086D01*
X149929874Y-129520086D01*
X149942448Y-129533410D01*
X149985532Y-129535846D01*
X150039153Y-129525724D01*
X150087881Y-129490631D01*
X150113144Y-129439823D01*
X150110594Y-129383181D01*
X150075880Y-129330584D01*
X150051893Y-129309910D01*
X150033637Y-129305000D01*
X150016223Y-129324911D01*
X149990128Y-129374521D01*
X149989390Y-129375976D01*
X149961517Y-129434506D01*
X149939281Y-129486868D01*
X149929874Y-129520086D01*
X149715750Y-129520086D01*
X149717067Y-129518495D01*
X149742975Y-129472247D01*
X149776790Y-129404067D01*
X149814871Y-129320923D01*
X149815073Y-129320466D01*
X149855291Y-129230138D01*
X149884267Y-129169592D01*
X149906526Y-129132888D01*
X149926593Y-129114086D01*
X149948991Y-129107246D01*
X149978244Y-129106429D01*
X150048346Y-129113622D01*
X150143588Y-129149184D01*
X150218433Y-129208714D01*
X150270255Y-129285746D01*
X150296427Y-129373815D01*
X150294324Y-129466454D01*
X150261319Y-129557198D01*
X150194785Y-129639579D01*
X150128945Y-129685222D01*
X150034964Y-129718008D01*
X149985532Y-129723339D01*
X149916464Y-129730787D01*
X149768357Y-129724574D01*
X149736979Y-129721066D01*
X149625295Y-129694927D01*
X149540358Y-129647694D01*
X149475259Y-129575862D01*
X149472572Y-129571802D01*
X149434366Y-129480487D01*
X149430966Y-129385144D01*
X149460061Y-129293274D01*
X149519340Y-129212379D01*
X149606490Y-129149962D01*
X149608591Y-129148914D01*
X149662711Y-129128173D01*
X149724219Y-129112980D01*
X149781961Y-129104921D01*
X149824785Y-129105582D01*
G36*
X149824785Y-129105582D02*
G01*
X149841538Y-129116548D01*
X149840520Y-129126290D01*
X149821991Y-129172877D01*
X149787919Y-129225682D01*
X149748478Y-129270603D01*
X149713845Y-129293535D01*
X149666867Y-129317373D01*
X149624138Y-129366230D01*
X149607077Y-129422963D01*
X149612010Y-129443758D01*
X149636843Y-129484804D01*
X149671315Y-129520557D01*
X149702589Y-129535846D01*
X149702705Y-129535842D01*
X149715750Y-129520086D01*
X149929874Y-129520086D01*
X149942448Y-129533410D01*
X149985532Y-129535846D01*
X150039153Y-129525724D01*
X150087881Y-129490631D01*
X150113144Y-129439823D01*
X150110594Y-129383181D01*
X150075880Y-129330584D01*
X150051893Y-129309910D01*
X150033637Y-129305000D01*
X150016223Y-129324911D01*
X149990128Y-129374521D01*
X149989390Y-129375976D01*
X149961517Y-129434506D01*
X149939281Y-129486868D01*
X149929874Y-129520086D01*
X149715750Y-129520086D01*
X149717067Y-129518495D01*
X149742975Y-129472247D01*
X149776790Y-129404067D01*
X149814871Y-129320923D01*
X149815073Y-129320466D01*
X149855291Y-129230138D01*
X149884267Y-129169592D01*
X149906526Y-129132888D01*
X149926593Y-129114086D01*
X149948991Y-129107246D01*
X149978244Y-129106429D01*
X150048346Y-129113622D01*
X150143588Y-129149184D01*
X150218433Y-129208714D01*
X150270255Y-129285746D01*
X150296427Y-129373815D01*
X150294324Y-129466454D01*
X150261319Y-129557198D01*
X150194785Y-129639579D01*
X150128945Y-129685222D01*
X150034964Y-129718008D01*
X149985532Y-129723339D01*
X149916464Y-129730787D01*
X149768357Y-129724574D01*
X149736979Y-129721066D01*
X149625295Y-129694927D01*
X149540358Y-129647694D01*
X149475259Y-129575862D01*
X149472572Y-129571802D01*
X149434366Y-129480487D01*
X149430966Y-129385144D01*
X149460061Y-129293274D01*
X149519340Y-129212379D01*
X149606490Y-129149962D01*
X149608591Y-129148914D01*
X149662711Y-129128173D01*
X149724219Y-129112980D01*
X149781961Y-129104921D01*
X149824785Y-129105582D01*
G37*
X150113872Y-125917856D02*
X150154650Y-125945978D01*
X150212579Y-126017883D01*
X150245330Y-126106638D01*
X150249788Y-126201542D01*
X150222833Y-126291892D01*
X150219419Y-126298060D01*
X150180308Y-126348447D01*
X150130025Y-126393498D01*
X150118661Y-126401355D01*
X150092140Y-126416376D01*
X150060664Y-126427107D01*
X150017409Y-126434486D01*
X149955551Y-126439452D01*
X149868267Y-126442942D01*
X149748731Y-126445893D01*
X149728522Y-126446311D01*
X149597501Y-126447654D01*
X149504704Y-126445761D01*
X149449493Y-126440605D01*
X149431231Y-126432158D01*
X149436699Y-126406594D01*
X149453267Y-126363166D01*
X149458112Y-126352940D01*
X149469080Y-126336967D01*
X149487110Y-126325954D01*
X149518604Y-126318750D01*
X149569964Y-126314208D01*
X149647590Y-126311180D01*
X149757885Y-126308516D01*
X149790125Y-126307785D01*
X149891950Y-126304965D01*
X149963212Y-126301304D01*
X150010668Y-126295694D01*
X150041075Y-126287029D01*
X150061190Y-126274202D01*
X150077771Y-126256105D01*
X150106839Y-126202525D01*
X150112436Y-126136612D01*
X150090193Y-126077635D01*
X150044141Y-126035203D01*
X149978308Y-126018923D01*
X149960413Y-126018470D01*
X149928018Y-126009578D01*
X149923075Y-125983325D01*
X149942367Y-125931919D01*
X149948554Y-125920013D01*
X149984942Y-125887835D01*
X150039046Y-125887198D01*
X150113872Y-125917856D01*
G36*
X150113872Y-125917856D02*
G01*
X150154650Y-125945978D01*
X150212579Y-126017883D01*
X150245330Y-126106638D01*
X150249788Y-126201542D01*
X150222833Y-126291892D01*
X150219419Y-126298060D01*
X150180308Y-126348447D01*
X150130025Y-126393498D01*
X150118661Y-126401355D01*
X150092140Y-126416376D01*
X150060664Y-126427107D01*
X150017409Y-126434486D01*
X149955551Y-126439452D01*
X149868267Y-126442942D01*
X149748731Y-126445893D01*
X149728522Y-126446311D01*
X149597501Y-126447654D01*
X149504704Y-126445761D01*
X149449493Y-126440605D01*
X149431231Y-126432158D01*
X149436699Y-126406594D01*
X149453267Y-126363166D01*
X149458112Y-126352940D01*
X149469080Y-126336967D01*
X149487110Y-126325954D01*
X149518604Y-126318750D01*
X149569964Y-126314208D01*
X149647590Y-126311180D01*
X149757885Y-126308516D01*
X149790125Y-126307785D01*
X149891950Y-126304965D01*
X149963212Y-126301304D01*
X150010668Y-126295694D01*
X150041075Y-126287029D01*
X150061190Y-126274202D01*
X150077771Y-126256105D01*
X150106839Y-126202525D01*
X150112436Y-126136612D01*
X150090193Y-126077635D01*
X150044141Y-126035203D01*
X149978308Y-126018923D01*
X149960413Y-126018470D01*
X149928018Y-126009578D01*
X149923075Y-125983325D01*
X149942367Y-125931919D01*
X149948554Y-125920013D01*
X149984942Y-125887835D01*
X150039046Y-125887198D01*
X150113872Y-125917856D01*
G37*
X150046913Y-123092952D02*
X150115033Y-123122431D01*
X150178866Y-123170098D01*
X150223012Y-123225839D01*
X150233218Y-123249193D01*
X150250282Y-123337619D01*
X150243524Y-123431501D01*
X150213560Y-123512167D01*
X150191046Y-123545714D01*
X150158788Y-123579687D01*
X150117754Y-123603919D01*
X150061892Y-123620001D01*
X149985149Y-123629521D01*
X149881475Y-123634068D01*
X149744816Y-123635231D01*
X149674195Y-123635003D01*
X149577692Y-123633860D01*
X149500677Y-123631919D01*
X149449681Y-123629365D01*
X149431231Y-123626381D01*
X149437333Y-123606962D01*
X149453905Y-123567766D01*
X149454442Y-123566589D01*
X149465097Y-123546235D01*
X149479718Y-123532546D01*
X149505327Y-123524199D01*
X149548946Y-123519874D01*
X149617597Y-123518248D01*
X149718302Y-123518000D01*
X149782187Y-123517500D01*
X149902249Y-123512164D01*
X149990191Y-123499945D01*
X150050625Y-123479552D01*
X150088164Y-123449695D01*
X150107419Y-123409082D01*
X150108761Y-123403448D01*
X150109809Y-123327378D01*
X150075729Y-123268052D01*
X150007402Y-123227077D01*
X149987649Y-123219770D01*
X149943934Y-123203114D01*
X149923845Y-123194679D01*
X149926613Y-123177356D01*
X149941635Y-123139525D01*
X149966444Y-123104240D01*
X150013330Y-123088154D01*
X150046913Y-123092952D01*
G36*
X150046913Y-123092952D02*
G01*
X150115033Y-123122431D01*
X150178866Y-123170098D01*
X150223012Y-123225839D01*
X150233218Y-123249193D01*
X150250282Y-123337619D01*
X150243524Y-123431501D01*
X150213560Y-123512167D01*
X150191046Y-123545714D01*
X150158788Y-123579687D01*
X150117754Y-123603919D01*
X150061892Y-123620001D01*
X149985149Y-123629521D01*
X149881475Y-123634068D01*
X149744816Y-123635231D01*
X149674195Y-123635003D01*
X149577692Y-123633860D01*
X149500677Y-123631919D01*
X149449681Y-123629365D01*
X149431231Y-123626381D01*
X149437333Y-123606962D01*
X149453905Y-123567766D01*
X149454442Y-123566589D01*
X149465097Y-123546235D01*
X149479718Y-123532546D01*
X149505327Y-123524199D01*
X149548946Y-123519874D01*
X149617597Y-123518248D01*
X149718302Y-123518000D01*
X149782187Y-123517500D01*
X149902249Y-123512164D01*
X149990191Y-123499945D01*
X150050625Y-123479552D01*
X150088164Y-123449695D01*
X150107419Y-123409082D01*
X150108761Y-123403448D01*
X150109809Y-123327378D01*
X150075729Y-123268052D01*
X150007402Y-123227077D01*
X149987649Y-123219770D01*
X149943934Y-123203114D01*
X149923845Y-123194679D01*
X149926613Y-123177356D01*
X149941635Y-123139525D01*
X149966444Y-123104240D01*
X150013330Y-123088154D01*
X150046913Y-123092952D01*
G37*
X149757448Y-122482346D02*
X149731636Y-122524994D01*
X149671072Y-122562064D01*
X149651680Y-122569803D01*
X149596765Y-122613074D01*
X149569121Y-122671976D01*
X149571607Y-122736111D01*
X149607077Y-122795077D01*
X149629195Y-122815342D01*
X149662564Y-122833720D01*
X149692883Y-122827971D01*
X149724087Y-122794887D01*
X149760113Y-122731261D01*
X149804897Y-122633885D01*
X149892555Y-122433615D01*
X149979393Y-122428301D01*
X150044337Y-122430647D01*
X150126410Y-122460186D01*
X150171639Y-122497472D01*
X150222162Y-122574776D01*
X150247684Y-122666478D01*
X150245664Y-122761274D01*
X150213560Y-122847859D01*
X150201233Y-122866920D01*
X150163088Y-122910640D01*
X150114833Y-122940540D01*
X150049290Y-122958968D01*
X149959280Y-122968270D01*
X149900052Y-122969499D01*
X149837624Y-122970794D01*
X149785551Y-122970413D01*
X149682953Y-122965641D01*
X149607874Y-122953150D01*
X149552252Y-122930121D01*
X149508025Y-122893732D01*
X149471479Y-122846751D01*
X149861077Y-122846751D01*
X149866562Y-122850161D01*
X149900052Y-122851529D01*
X149953884Y-122846651D01*
X150006527Y-122834364D01*
X150072849Y-122796041D01*
X150110220Y-122740720D01*
X150115279Y-122674640D01*
X150084661Y-122604040D01*
X150069352Y-122584474D01*
X150034704Y-122560783D01*
X150000462Y-122570688D01*
X149963904Y-122615756D01*
X149922308Y-122697557D01*
X149916282Y-122711092D01*
X149888247Y-122775818D01*
X149868528Y-122824247D01*
X149861077Y-122846751D01*
X149471479Y-122846751D01*
X149467131Y-122841162D01*
X149448534Y-122807714D01*
X149436009Y-122754098D01*
X149436997Y-122678780D01*
X149440965Y-122636672D01*
X149453080Y-122585879D01*
X149479415Y-122545280D01*
X149528486Y-122498049D01*
X149535654Y-122491738D01*
X149590811Y-122449277D01*
X149638850Y-122429018D01*
X149695816Y-122423846D01*
X149779529Y-122423846D01*
X149757448Y-122482346D01*
G36*
X149757448Y-122482346D02*
G01*
X149731636Y-122524994D01*
X149671072Y-122562064D01*
X149651680Y-122569803D01*
X149596765Y-122613074D01*
X149569121Y-122671976D01*
X149571607Y-122736111D01*
X149607077Y-122795077D01*
X149629195Y-122815342D01*
X149662564Y-122833720D01*
X149692883Y-122827971D01*
X149724087Y-122794887D01*
X149760113Y-122731261D01*
X149804897Y-122633885D01*
X149892555Y-122433615D01*
X149979393Y-122428301D01*
X150044337Y-122430647D01*
X150126410Y-122460186D01*
X150171639Y-122497472D01*
X150222162Y-122574776D01*
X150247684Y-122666478D01*
X150245664Y-122761274D01*
X150213560Y-122847859D01*
X150201233Y-122866920D01*
X150163088Y-122910640D01*
X150114833Y-122940540D01*
X150049290Y-122958968D01*
X149959280Y-122968270D01*
X149900052Y-122969499D01*
X149837624Y-122970794D01*
X149785551Y-122970413D01*
X149682953Y-122965641D01*
X149607874Y-122953150D01*
X149552252Y-122930121D01*
X149508025Y-122893732D01*
X149471479Y-122846751D01*
X149861077Y-122846751D01*
X149866562Y-122850161D01*
X149900052Y-122851529D01*
X149953884Y-122846651D01*
X150006527Y-122834364D01*
X150072849Y-122796041D01*
X150110220Y-122740720D01*
X150115279Y-122674640D01*
X150084661Y-122604040D01*
X150069352Y-122584474D01*
X150034704Y-122560783D01*
X150000462Y-122570688D01*
X149963904Y-122615756D01*
X149922308Y-122697557D01*
X149916282Y-122711092D01*
X149888247Y-122775818D01*
X149868528Y-122824247D01*
X149861077Y-122846751D01*
X149471479Y-122846751D01*
X149467131Y-122841162D01*
X149448534Y-122807714D01*
X149436009Y-122754098D01*
X149436997Y-122678780D01*
X149440965Y-122636672D01*
X149453080Y-122585879D01*
X149479415Y-122545280D01*
X149528486Y-122498049D01*
X149535654Y-122491738D01*
X149590811Y-122449277D01*
X149638850Y-122429018D01*
X149695816Y-122423846D01*
X149779529Y-122423846D01*
X149757448Y-122482346D01*
G37*
%TD*%
%LPC*%
D13*
%TO.C,J1*%
X151650000Y-54450000D03*
D14*
X151650000Y-56990000D03*
X151650000Y-59530000D03*
X151650000Y-62070000D03*
X151650000Y-64610000D03*
X151650000Y-67150000D03*
X151650000Y-69690000D03*
X151650000Y-72230000D03*
X151650000Y-74770000D03*
X151650000Y-77310000D03*
X151650000Y-79850000D03*
X151650000Y-82390000D03*
X151650000Y-84930000D03*
X151650000Y-87470000D03*
X151650000Y-90010000D03*
X151650000Y-92550000D03*
X151650000Y-95090000D03*
X151650000Y-97630000D03*
X151650000Y-100170000D03*
X151650000Y-102710000D03*
X151650000Y-105250000D03*
X151650000Y-107790000D03*
X149110000Y-54450000D03*
X149110000Y-56990000D03*
X149110000Y-59530000D03*
X149110000Y-62070000D03*
X149110000Y-64610000D03*
X149110000Y-67150000D03*
X149110000Y-69690000D03*
X149110000Y-72230000D03*
X149110000Y-74770000D03*
X149110000Y-77310000D03*
X149110000Y-79850000D03*
X149110000Y-82390000D03*
X149110000Y-84930000D03*
X149110000Y-87470000D03*
X149110000Y-90010000D03*
X149110000Y-92550000D03*
X149110000Y-95090000D03*
X149110000Y-97630000D03*
X149110000Y-100170000D03*
X149110000Y-102710000D03*
X149110000Y-105250000D03*
X149110000Y-107790000D03*
%TD*%
D13*
%TO.C,J3*%
X150520000Y-147435000D03*
%TD*%
D15*
%TO.C,J2*%
X160990000Y-57140000D03*
X160990000Y-61100000D03*
X160990000Y-65060000D03*
X160990000Y-69020000D03*
X160990000Y-72980000D03*
X160990000Y-76940000D03*
X160990000Y-80900000D03*
X160990000Y-84860000D03*
X160990000Y-88820000D03*
X160990000Y-92780000D03*
X160990000Y-96740000D03*
X160990000Y-100700000D03*
X160990000Y-104660000D03*
X160990000Y-108620000D03*
X160990000Y-112580000D03*
X160990000Y-116540000D03*
X160990000Y-120500000D03*
X160990000Y-124460000D03*
X160990000Y-128420000D03*
X160990000Y-132380000D03*
X160990000Y-136340000D03*
X160990000Y-140300000D03*
%TD*%
%LPD*%
M02*
