%TF.GenerationSoftware,KiCad,Pcbnew,9.0.7*%
%TF.CreationDate,2026-04-05T10:10:13+02:00*%
%TF.ProjectId,pal-2-kim-adapter,70616c2d-322d-46b6-996d-2d6164617074,rev?*%
%TF.SameCoordinates,Original*%
%TF.FileFunction,Legend,Top*%
%TF.FilePolarity,Positive*%
%FSLAX46Y46*%
G04 Gerber Fmt 4.6, Leading zero omitted, Abs format (unit mm)*
G04 Created by KiCad (PCBNEW 9.0.7) date 2026-04-05 10:10:13*
%MOMM*%
%LPD*%
G01*
G04 APERTURE LIST*
G04 Aperture macros list*
%AMRoundRect*
0 Rectangle with rounded corners*
0 $1 Rounding radius*
0 $2 $3 $4 $5 $6 $7 $8 $9 X,Y pos of 4 corners*
0 Add a 4 corners polygon primitive as box body*
4,1,4,$2,$3,$4,$5,$6,$7,$8,$9,$2,$3,0*
0 Add four circle primitives for the rounded corners*
1,1,$1+$1,$2,$3*
1,1,$1+$1,$4,$5*
1,1,$1+$1,$6,$7*
1,1,$1+$1,$8,$9*
0 Add four rect primitives between the rounded corners*
20,1,$1+$1,$2,$3,$4,$5,0*
20,1,$1+$1,$4,$5,$6,$7,0*
20,1,$1+$1,$6,$7,$8,$9,0*
20,1,$1+$1,$8,$9,$2,$3,0*%
%AMFreePoly0*
4,1,22,-1.270000,3.180000,1.270000,3.180000,1.270000,-1.910000,1.254364,-2.108672,1.198732,-2.329454,1.104571,-2.536755,0.974909,-2.723912,0.813912,-2.884909,0.626755,-3.014571,0.419454,-3.108732,0.198672,-3.164364,0.000000,-3.180000,-0.198672,-3.164364,-0.419454,-3.108732,-0.626755,-3.014571,-0.813912,-2.884909,-0.974909,-2.723912,-1.104571,-2.536755,-1.198732,-2.329454,-1.254364,-2.108672,
-1.270000,-1.910000,-1.270000,3.180000,-1.270000,3.180000,$1*%
G04 Aperture macros list end*
%ADD10C,0.200000*%
%ADD11C,0.150000*%
%ADD12C,0.120000*%
%ADD13RoundRect,0.250000X0.550000X0.550000X-0.550000X0.550000X-0.550000X-0.550000X0.550000X-0.550000X0*%
%ADD14C,1.600000*%
%ADD15R,1.700000X1.700000*%
%ADD16FreePoly0,270.000000*%
%ADD17O,1.700000X1.700000*%
G04 APERTURE END LIST*
D10*
X148873006Y-110606742D02*
X149673006Y-110606742D01*
X149673006Y-110606742D02*
X148873006Y-111806742D01*
X148873006Y-111806742D02*
X149673006Y-111806742D01*
X150415863Y-112206742D02*
X150415863Y-110492457D01*
X151215863Y-110721028D02*
X151273006Y-110663885D01*
X151273006Y-110663885D02*
X151387292Y-110606742D01*
X151387292Y-110606742D02*
X151673006Y-110606742D01*
X151673006Y-110606742D02*
X151787292Y-110663885D01*
X151787292Y-110663885D02*
X151844434Y-110721028D01*
X151844434Y-110721028D02*
X151901577Y-110835314D01*
X151901577Y-110835314D02*
X151901577Y-110949600D01*
X151901577Y-110949600D02*
X151844434Y-111121028D01*
X151844434Y-111121028D02*
X151158720Y-111806742D01*
X151158720Y-111806742D02*
X151901577Y-111806742D01*
X152358720Y-110721028D02*
X152415863Y-110663885D01*
X152415863Y-110663885D02*
X152530149Y-110606742D01*
X152530149Y-110606742D02*
X152815863Y-110606742D01*
X152815863Y-110606742D02*
X152930149Y-110663885D01*
X152930149Y-110663885D02*
X152987291Y-110721028D01*
X152987291Y-110721028D02*
X153044434Y-110835314D01*
X153044434Y-110835314D02*
X153044434Y-110949600D01*
X153044434Y-110949600D02*
X152987291Y-111121028D01*
X152987291Y-111121028D02*
X152301577Y-111806742D01*
X152301577Y-111806742D02*
X153044434Y-111806742D01*
X148930149Y-51063885D02*
X149501578Y-51063885D01*
X148815863Y-51406742D02*
X149215863Y-50206742D01*
X149215863Y-50206742D02*
X149615863Y-51406742D01*
X150301577Y-51806742D02*
X150301577Y-50092457D01*
X151787291Y-51406742D02*
X151101577Y-51406742D01*
X151444434Y-51406742D02*
X151444434Y-50206742D01*
X151444434Y-50206742D02*
X151330148Y-50378171D01*
X151330148Y-50378171D02*
X151215863Y-50492457D01*
X151215863Y-50492457D02*
X151101577Y-50549600D01*
D11*
X148938095Y-153574819D02*
X148938095Y-154384342D01*
X148938095Y-154384342D02*
X148985714Y-154479580D01*
X148985714Y-154479580D02*
X149033333Y-154527200D01*
X149033333Y-154527200D02*
X149128571Y-154574819D01*
X149128571Y-154574819D02*
X149319047Y-154574819D01*
X149319047Y-154574819D02*
X149414285Y-154527200D01*
X149414285Y-154527200D02*
X149461904Y-154479580D01*
X149461904Y-154479580D02*
X149509523Y-154384342D01*
X149509523Y-154384342D02*
X149509523Y-153574819D01*
X150509523Y-154574819D02*
X149938095Y-154574819D01*
X150223809Y-154574819D02*
X150223809Y-153574819D01*
X150223809Y-153574819D02*
X150128571Y-153717676D01*
X150128571Y-153717676D02*
X150033333Y-153812914D01*
X150033333Y-153812914D02*
X149938095Y-153860533D01*
X162382359Y-152139933D02*
X163096644Y-152139933D01*
X163096644Y-152139933D02*
X163239501Y-152187552D01*
X163239501Y-152187552D02*
X163334740Y-152282790D01*
X163334740Y-152282790D02*
X163382359Y-152425647D01*
X163382359Y-152425647D02*
X163382359Y-152520885D01*
X162382359Y-151758980D02*
X162382359Y-151139933D01*
X162382359Y-151139933D02*
X162763311Y-151473266D01*
X162763311Y-151473266D02*
X162763311Y-151330409D01*
X162763311Y-151330409D02*
X162810930Y-151235171D01*
X162810930Y-151235171D02*
X162858549Y-151187552D01*
X162858549Y-151187552D02*
X162953787Y-151139933D01*
X162953787Y-151139933D02*
X163191882Y-151139933D01*
X163191882Y-151139933D02*
X163287120Y-151187552D01*
X163287120Y-151187552D02*
X163334740Y-151235171D01*
X163334740Y-151235171D02*
X163382359Y-151330409D01*
X163382359Y-151330409D02*
X163382359Y-151616123D01*
X163382359Y-151616123D02*
X163334740Y-151711361D01*
X163334740Y-151711361D02*
X163287120Y-151758980D01*
X158458059Y-151810221D02*
X157981868Y-152143554D01*
X158458059Y-152381649D02*
X157458059Y-152381649D01*
X157458059Y-152381649D02*
X157458059Y-152000697D01*
X157458059Y-152000697D02*
X157505678Y-151905459D01*
X157505678Y-151905459D02*
X157553297Y-151857840D01*
X157553297Y-151857840D02*
X157648535Y-151810221D01*
X157648535Y-151810221D02*
X157791392Y-151810221D01*
X157791392Y-151810221D02*
X157886630Y-151857840D01*
X157886630Y-151857840D02*
X157934249Y-151905459D01*
X157934249Y-151905459D02*
X157981868Y-152000697D01*
X157981868Y-152000697D02*
X157981868Y-152381649D01*
X157934249Y-151381649D02*
X157934249Y-151048316D01*
X158458059Y-150905459D02*
X158458059Y-151381649D01*
X158458059Y-151381649D02*
X157458059Y-151381649D01*
X157458059Y-151381649D02*
X157458059Y-150905459D01*
X158410440Y-150524506D02*
X158458059Y-150381649D01*
X158458059Y-150381649D02*
X158458059Y-150143554D01*
X158458059Y-150143554D02*
X158410440Y-150048316D01*
X158410440Y-150048316D02*
X158362820Y-150000697D01*
X158362820Y-150000697D02*
X158267582Y-149953078D01*
X158267582Y-149953078D02*
X158172344Y-149953078D01*
X158172344Y-149953078D02*
X158077106Y-150000697D01*
X158077106Y-150000697D02*
X158029487Y-150048316D01*
X158029487Y-150048316D02*
X157981868Y-150143554D01*
X157981868Y-150143554D02*
X157934249Y-150334030D01*
X157934249Y-150334030D02*
X157886630Y-150429268D01*
X157886630Y-150429268D02*
X157839011Y-150476887D01*
X157839011Y-150476887D02*
X157743773Y-150524506D01*
X157743773Y-150524506D02*
X157648535Y-150524506D01*
X157648535Y-150524506D02*
X157553297Y-150476887D01*
X157553297Y-150476887D02*
X157505678Y-150429268D01*
X157505678Y-150429268D02*
X157458059Y-150334030D01*
X157458059Y-150334030D02*
X157458059Y-150095935D01*
X157458059Y-150095935D02*
X157505678Y-149953078D01*
X157934249Y-149524506D02*
X157934249Y-149191173D01*
X158458059Y-149048316D02*
X158458059Y-149524506D01*
X158458059Y-149524506D02*
X157458059Y-149524506D01*
X157458059Y-149524506D02*
X157458059Y-149048316D01*
X157458059Y-148762601D02*
X157458059Y-148191173D01*
X158458059Y-148476887D02*
X157458059Y-148476887D01*
X157180440Y-152519745D02*
X157180440Y-148195935D01*
X160636626Y-142578739D02*
X160636626Y-143293024D01*
X160636626Y-143293024D02*
X160589007Y-143435881D01*
X160589007Y-143435881D02*
X160493769Y-143531120D01*
X160493769Y-143531120D02*
X160350912Y-143578739D01*
X160350912Y-143578739D02*
X160255674Y-143578739D01*
X161065198Y-142673977D02*
X161112817Y-142626358D01*
X161112817Y-142626358D02*
X161208055Y-142578739D01*
X161208055Y-142578739D02*
X161446150Y-142578739D01*
X161446150Y-142578739D02*
X161541388Y-142626358D01*
X161541388Y-142626358D02*
X161589007Y-142673977D01*
X161589007Y-142673977D02*
X161636626Y-142769215D01*
X161636626Y-142769215D02*
X161636626Y-142864453D01*
X161636626Y-142864453D02*
X161589007Y-143007310D01*
X161589007Y-143007310D02*
X161017579Y-143578739D01*
X161017579Y-143578739D02*
X161636626Y-143578739D01*
X149234819Y-116873333D02*
X149949104Y-116873333D01*
X149949104Y-116873333D02*
X150091961Y-116920952D01*
X150091961Y-116920952D02*
X150187200Y-117016190D01*
X150187200Y-117016190D02*
X150234819Y-117159047D01*
X150234819Y-117159047D02*
X150234819Y-117254285D01*
X149568152Y-115968571D02*
X150234819Y-115968571D01*
X149187200Y-116206666D02*
X149901485Y-116444761D01*
X149901485Y-116444761D02*
X149901485Y-115825714D01*
X144951009Y-120492380D02*
X144951009Y-120159047D01*
X145474819Y-120016190D02*
X145474819Y-120492380D01*
X145474819Y-120492380D02*
X144474819Y-120492380D01*
X144474819Y-120492380D02*
X144474819Y-120016190D01*
X145474819Y-119682856D02*
X144808152Y-119159047D01*
X144808152Y-119682856D02*
X145474819Y-119159047D01*
X144808152Y-118920951D02*
X144808152Y-118539999D01*
X144474819Y-118778094D02*
X145331961Y-118778094D01*
X145331961Y-118778094D02*
X145427200Y-118730475D01*
X145427200Y-118730475D02*
X145474819Y-118635237D01*
X145474819Y-118635237D02*
X145474819Y-118539999D01*
X145093866Y-118206665D02*
X145093866Y-117444761D01*
X145474819Y-116968570D02*
X144474819Y-116968570D01*
X144474819Y-116968570D02*
X144474819Y-116730475D01*
X144474819Y-116730475D02*
X144522438Y-116587618D01*
X144522438Y-116587618D02*
X144617676Y-116492380D01*
X144617676Y-116492380D02*
X144712914Y-116444761D01*
X144712914Y-116444761D02*
X144903390Y-116397142D01*
X144903390Y-116397142D02*
X145046247Y-116397142D01*
X145046247Y-116397142D02*
X145236723Y-116444761D01*
X145236723Y-116444761D02*
X145331961Y-116492380D01*
X145331961Y-116492380D02*
X145427200Y-116587618D01*
X145427200Y-116587618D02*
X145474819Y-116730475D01*
X145474819Y-116730475D02*
X145474819Y-116968570D01*
X144951009Y-115968570D02*
X144951009Y-115635237D01*
X145474819Y-115492380D02*
X145474819Y-115968570D01*
X145474819Y-115968570D02*
X144474819Y-115968570D01*
X144474819Y-115968570D02*
X144474819Y-115492380D01*
X145379580Y-114492380D02*
X145427200Y-114539999D01*
X145427200Y-114539999D02*
X145474819Y-114682856D01*
X145474819Y-114682856D02*
X145474819Y-114778094D01*
X145474819Y-114778094D02*
X145427200Y-114920951D01*
X145427200Y-114920951D02*
X145331961Y-115016189D01*
X145331961Y-115016189D02*
X145236723Y-115063808D01*
X145236723Y-115063808D02*
X145046247Y-115111427D01*
X145046247Y-115111427D02*
X144903390Y-115111427D01*
X144903390Y-115111427D02*
X144712914Y-115063808D01*
X144712914Y-115063808D02*
X144617676Y-115016189D01*
X144617676Y-115016189D02*
X144522438Y-114920951D01*
X144522438Y-114920951D02*
X144474819Y-114778094D01*
X144474819Y-114778094D02*
X144474819Y-114682856D01*
X144474819Y-114682856D02*
X144522438Y-114539999D01*
X144522438Y-114539999D02*
X144570057Y-114492380D01*
X144951009Y-114063808D02*
X144951009Y-113730475D01*
X145474819Y-113587618D02*
X145474819Y-114063808D01*
X145474819Y-114063808D02*
X144474819Y-114063808D01*
X144474819Y-114063808D02*
X144474819Y-113587618D01*
X145474819Y-113159046D02*
X144474819Y-113159046D01*
X144474819Y-113159046D02*
X145474819Y-112587618D01*
X145474819Y-112587618D02*
X144474819Y-112587618D01*
X144197200Y-117106666D02*
X144197200Y-112449523D01*
X145666666Y-51134819D02*
X145666666Y-51849104D01*
X145666666Y-51849104D02*
X145619047Y-51991961D01*
X145619047Y-51991961D02*
X145523809Y-52087200D01*
X145523809Y-52087200D02*
X145380952Y-52134819D01*
X145380952Y-52134819D02*
X145285714Y-52134819D01*
X146666666Y-52134819D02*
X146095238Y-52134819D01*
X146380952Y-52134819D02*
X146380952Y-51134819D01*
X146380952Y-51134819D02*
X146285714Y-51277676D01*
X146285714Y-51277676D02*
X146190476Y-51372914D01*
X146190476Y-51372914D02*
X146095238Y-51420533D01*
D12*
%TO.C,U1*%
X147050000Y-135220000D02*
X147050000Y-153120000D01*
X147050000Y-153120000D02*
X148700000Y-153120000D01*
X150700000Y-153120000D02*
X152350000Y-153120000D01*
X152350000Y-135220000D02*
X147050000Y-135220000D01*
X152350000Y-153120000D02*
X152350000Y-135220000D01*
X148700000Y-153120000D02*
G75*
G02*
X150700000Y-153120000I1000000J0D01*
G01*
%TO.C,J3*%
X160227540Y-148581600D02*
X160227540Y-148811600D01*
X160657540Y-146151600D02*
X161927540Y-146151600D01*
X161087540Y-148581600D02*
X161087540Y-148811600D01*
X161927540Y-146151600D02*
X161927540Y-147421600D01*
X161087540Y-151571600D02*
X160227540Y-151571600D01*
X160227540Y-157571600D01*
X161087540Y-157571600D01*
X161087540Y-151571600D01*
G36*
X161087540Y-151571600D02*
G01*
X160227540Y-151571600D01*
X160227540Y-157571600D01*
X161087540Y-157571600D01*
X161087540Y-151571600D01*
G37*
X162037540Y-148811600D02*
X159277540Y-148811600D01*
X159277540Y-151571600D01*
X162037540Y-151571600D01*
X162037540Y-148811600D01*
%TO.C,J4*%
X146020000Y-115160000D02*
X146020000Y-117920000D01*
X146130000Y-115160000D02*
X146020000Y-115160000D01*
X146130000Y-115160000D02*
X146130000Y-117920000D01*
X146130000Y-117920000D02*
X146020000Y-117920000D01*
X147400000Y-115160000D02*
X148780000Y-115160000D01*
X148780000Y-115160000D02*
X148780000Y-116540000D01*
%TO.C,J1*%
X139020000Y-53120000D02*
X139020000Y-109120000D01*
X139020000Y-53120000D02*
X147650000Y-53120000D01*
X139020000Y-53240000D02*
X147650000Y-53240000D01*
X139020000Y-53358095D02*
X147650000Y-53358095D01*
X139020000Y-53476190D02*
X147650000Y-53476190D01*
X139020000Y-53594285D02*
X147650000Y-53594285D01*
X139020000Y-53712380D02*
X147650000Y-53712380D01*
X139020000Y-53830475D02*
X147650000Y-53830475D01*
X139020000Y-53948570D02*
X147650000Y-53948570D01*
X139020000Y-54066665D02*
X147650000Y-54066665D01*
X139020000Y-54184760D02*
X147650000Y-54184760D01*
X139020000Y-54302855D02*
X147650000Y-54302855D01*
X139020000Y-54420950D02*
X147650000Y-54420950D01*
X139020000Y-54539045D02*
X147650000Y-54539045D01*
X139020000Y-54657140D02*
X147650000Y-54657140D01*
X139020000Y-54775235D02*
X147650000Y-54775235D01*
X139020000Y-54893330D02*
X147650000Y-54893330D01*
X139020000Y-55011425D02*
X147650000Y-55011425D01*
X139020000Y-55129520D02*
X147650000Y-55129520D01*
X139020000Y-55247615D02*
X147650000Y-55247615D01*
X139020000Y-55365710D02*
X147650000Y-55365710D01*
X139020000Y-55483805D02*
X147650000Y-55483805D01*
X139020000Y-55601900D02*
X147650000Y-55601900D01*
X139020000Y-55720000D02*
X147650000Y-55720000D01*
X139020000Y-58260000D02*
X147650000Y-58260000D01*
X139020000Y-60800000D02*
X147650000Y-60800000D01*
X139020000Y-63340000D02*
X147650000Y-63340000D01*
X139020000Y-65880000D02*
X147650000Y-65880000D01*
X139020000Y-68420000D02*
X147650000Y-68420000D01*
X139020000Y-70960000D02*
X147650000Y-70960000D01*
X139020000Y-73500000D02*
X147650000Y-73500000D01*
X139020000Y-76040000D02*
X147650000Y-76040000D01*
X139020000Y-78580000D02*
X147650000Y-78580000D01*
X139020000Y-81120000D02*
X147650000Y-81120000D01*
X139020000Y-83660000D02*
X147650000Y-83660000D01*
X139020000Y-86200000D02*
X147650000Y-86200000D01*
X139020000Y-88740000D02*
X147650000Y-88740000D01*
X139020000Y-91280000D02*
X147650000Y-91280000D01*
X139020000Y-93820000D02*
X147650000Y-93820000D01*
X139020000Y-96360000D02*
X147650000Y-96360000D01*
X139020000Y-98900000D02*
X147650000Y-98900000D01*
X139020000Y-101440000D02*
X147650000Y-101440000D01*
X139020000Y-103980000D02*
X147650000Y-103980000D01*
X139020000Y-106520000D02*
X147650000Y-106520000D01*
X139020000Y-109120000D02*
X147650000Y-109120000D01*
X147650000Y-53120000D02*
X147650000Y-109120000D01*
X147650000Y-54090000D02*
X148060000Y-54090000D01*
X147650000Y-54810000D02*
X148060000Y-54810000D01*
X147650000Y-56630000D02*
X148060000Y-56630000D01*
X147650000Y-57350000D02*
X148060000Y-57350000D01*
X147650000Y-59170000D02*
X148060000Y-59170000D01*
X147650000Y-59890000D02*
X148060000Y-59890000D01*
X147650000Y-61710000D02*
X148060000Y-61710000D01*
X147650000Y-62430000D02*
X148060000Y-62430000D01*
X147650000Y-64250000D02*
X148060000Y-64250000D01*
X147650000Y-64970000D02*
X148060000Y-64970000D01*
X147650000Y-66790000D02*
X148060000Y-66790000D01*
X147650000Y-67510000D02*
X148060000Y-67510000D01*
X147650000Y-69330000D02*
X148060000Y-69330000D01*
X147650000Y-70050000D02*
X148060000Y-70050000D01*
X147650000Y-71870000D02*
X148060000Y-71870000D01*
X147650000Y-72590000D02*
X148060000Y-72590000D01*
X147650000Y-74410000D02*
X148060000Y-74410000D01*
X147650000Y-75130000D02*
X148060000Y-75130000D01*
X147650000Y-76950000D02*
X148060000Y-76950000D01*
X147650000Y-77670000D02*
X148060000Y-77670000D01*
X147650000Y-79490000D02*
X148060000Y-79490000D01*
X147650000Y-80210000D02*
X148060000Y-80210000D01*
X147650000Y-82030000D02*
X148060000Y-82030000D01*
X147650000Y-82750000D02*
X148060000Y-82750000D01*
X147650000Y-84570000D02*
X148060000Y-84570000D01*
X147650000Y-85290000D02*
X148060000Y-85290000D01*
X147650000Y-87110000D02*
X148060000Y-87110000D01*
X147650000Y-87830000D02*
X148060000Y-87830000D01*
X147650000Y-89650000D02*
X148060000Y-89650000D01*
X147650000Y-90370000D02*
X148060000Y-90370000D01*
X147650000Y-92190000D02*
X148060000Y-92190000D01*
X147650000Y-92910000D02*
X148060000Y-92910000D01*
X147650000Y-94730000D02*
X148060000Y-94730000D01*
X147650000Y-95450000D02*
X148060000Y-95450000D01*
X147650000Y-97270000D02*
X148060000Y-97270000D01*
X147650000Y-97990000D02*
X148060000Y-97990000D01*
X147650000Y-99810000D02*
X148060000Y-99810000D01*
X147650000Y-100530000D02*
X148060000Y-100530000D01*
X147650000Y-102350000D02*
X148060000Y-102350000D01*
X147650000Y-103070000D02*
X148060000Y-103070000D01*
X147650000Y-104890000D02*
X148060000Y-104890000D01*
X147650000Y-105610000D02*
X148060000Y-105610000D01*
X147650000Y-107430000D02*
X148060000Y-107430000D01*
X147650000Y-108150000D02*
X148060000Y-108150000D01*
X150160000Y-54090000D02*
X150540000Y-54090000D01*
X150160000Y-54810000D02*
X150540000Y-54810000D01*
X150160000Y-56630000D02*
X150600000Y-56630000D01*
X150160000Y-57350000D02*
X150600000Y-57350000D01*
X150160000Y-59170000D02*
X150600000Y-59170000D01*
X150160000Y-59890000D02*
X150600000Y-59890000D01*
X150160000Y-61710000D02*
X150600000Y-61710000D01*
X150160000Y-62430000D02*
X150600000Y-62430000D01*
X150160000Y-64250000D02*
X150600000Y-64250000D01*
X150160000Y-64970000D02*
X150600000Y-64970000D01*
X150160000Y-66790000D02*
X150600000Y-66790000D01*
X150160000Y-67510000D02*
X150600000Y-67510000D01*
X150160000Y-69330000D02*
X150600000Y-69330000D01*
X150160000Y-70050000D02*
X150600000Y-70050000D01*
X150160000Y-71870000D02*
X150600000Y-71870000D01*
X150160000Y-72590000D02*
X150600000Y-72590000D01*
X150160000Y-74410000D02*
X150600000Y-74410000D01*
X150160000Y-75130000D02*
X150600000Y-75130000D01*
X150160000Y-76950000D02*
X150600000Y-76950000D01*
X150160000Y-77670000D02*
X150600000Y-77670000D01*
X150160000Y-79490000D02*
X150600000Y-79490000D01*
X150160000Y-80210000D02*
X150600000Y-80210000D01*
X150160000Y-82030000D02*
X150600000Y-82030000D01*
X150160000Y-82750000D02*
X150600000Y-82750000D01*
X150160000Y-84570000D02*
X150600000Y-84570000D01*
X150160000Y-85290000D02*
X150600000Y-85290000D01*
X150160000Y-87110000D02*
X150600000Y-87110000D01*
X150160000Y-87830000D02*
X150600000Y-87830000D01*
X150160000Y-89650000D02*
X150600000Y-89650000D01*
X150160000Y-90370000D02*
X150600000Y-90370000D01*
X150160000Y-92190000D02*
X150600000Y-92190000D01*
X150160000Y-92910000D02*
X150600000Y-92910000D01*
X150160000Y-94730000D02*
X150600000Y-94730000D01*
X150160000Y-95450000D02*
X150600000Y-95450000D01*
X150160000Y-97270000D02*
X150600000Y-97270000D01*
X150160000Y-97990000D02*
X150600000Y-97990000D01*
X150160000Y-99810000D02*
X150600000Y-99810000D01*
X150160000Y-100530000D02*
X150600000Y-100530000D01*
X150160000Y-102350000D02*
X150600000Y-102350000D01*
X150160000Y-103070000D02*
X150600000Y-103070000D01*
X150160000Y-104890000D02*
X150600000Y-104890000D01*
X150160000Y-105610000D02*
X150600000Y-105610000D01*
X150160000Y-107430000D02*
X150600000Y-107430000D01*
X150160000Y-108150000D02*
X150600000Y-108150000D01*
X151650000Y-53120000D02*
X152760000Y-53120000D01*
X152760000Y-53120000D02*
X152760000Y-54450000D01*
%TD*%
%LPC*%
D13*
%TO.C,U1*%
X153510000Y-151790000D03*
D14*
X153510000Y-149250000D03*
X153510000Y-146710000D03*
X153510000Y-144170000D03*
X153510000Y-141630000D03*
X153510000Y-139090000D03*
X153510000Y-136550000D03*
X145890000Y-136550000D03*
X145890000Y-139090000D03*
X145890000Y-141630000D03*
X145890000Y-144170000D03*
X145890000Y-146710000D03*
X145890000Y-149250000D03*
X145890000Y-151790000D03*
%TD*%
D15*
%TO.C,J3*%
X160657540Y-147421600D03*
%TD*%
D16*
%TO.C,J2*%
X160990000Y-57140000D03*
X160990000Y-61100000D03*
X160990000Y-65060000D03*
X160990000Y-69020000D03*
X160990000Y-72980000D03*
X160990000Y-76940000D03*
X160990000Y-80900000D03*
X160990000Y-84860000D03*
X160990000Y-88820000D03*
X160990000Y-92780000D03*
X160990000Y-96740000D03*
X160990000Y-100700000D03*
X160990000Y-104660000D03*
X160990000Y-108620000D03*
X160990000Y-112580000D03*
X160990000Y-116540000D03*
X160990000Y-120500000D03*
X160990000Y-124460000D03*
X160990000Y-128420000D03*
X160990000Y-132380000D03*
X160990000Y-136340000D03*
X160990000Y-140300000D03*
%TD*%
D15*
%TO.C,J4*%
X147400000Y-116540000D03*
%TD*%
%TO.C,J1*%
X151650000Y-54450000D03*
D17*
X151650000Y-56990000D03*
X151650000Y-59530000D03*
X151650000Y-62070000D03*
X151650000Y-64610000D03*
X151650000Y-67150000D03*
X151650000Y-69690000D03*
X151650000Y-72230000D03*
X151650000Y-74770000D03*
X151650000Y-77310000D03*
X151650000Y-79850000D03*
X151650000Y-82390000D03*
X151650000Y-84930000D03*
X151650000Y-87470000D03*
X151650000Y-90010000D03*
X151650000Y-92550000D03*
X151650000Y-95090000D03*
X151650000Y-97630000D03*
X151650000Y-100170000D03*
X151650000Y-102710000D03*
X151650000Y-105250000D03*
X151650000Y-107790000D03*
X149110000Y-54450000D03*
X149110000Y-56990000D03*
X149110000Y-59530000D03*
X149110000Y-62070000D03*
X149110000Y-64610000D03*
X149110000Y-67150000D03*
X149110000Y-69690000D03*
X149110000Y-72230000D03*
X149110000Y-74770000D03*
X149110000Y-77310000D03*
X149110000Y-79850000D03*
X149110000Y-82390000D03*
X149110000Y-84930000D03*
X149110000Y-87470000D03*
X149110000Y-90010000D03*
X149110000Y-92550000D03*
X149110000Y-95090000D03*
X149110000Y-97630000D03*
X149110000Y-100170000D03*
X149110000Y-102710000D03*
X149110000Y-105250000D03*
X149110000Y-107790000D03*
%TD*%
%LPD*%
M02*
