%TF.GenerationSoftware,KiCad,Pcbnew,7.0.11*%
%TF.CreationDate,2025-08-02T11:26:45+02:00*%
%TF.ProjectId,pal-2-kim-adapter,70616c2d-322d-46b6-996d-2d6164617074,rev?*%
%TF.SameCoordinates,Original*%
%TF.FileFunction,Legend,Top*%
%TF.FilePolarity,Positive*%
%FSLAX46Y46*%
G04 Gerber Fmt 4.6, Leading zero omitted, Abs format (unit mm)*
G04 Created by KiCad (PCBNEW 7.0.11) date 2025-08-02 11:26:45*
%MOMM*%
%LPD*%
G01*
G04 APERTURE LIST*
G04 Aperture macros list*
%AMFreePoly0*
4,1,22,-1.270000,3.180000,1.270000,3.180000,1.270000,-1.910000,1.254364,-2.108672,1.198732,-2.329454,1.104571,-2.536755,0.974909,-2.723912,0.813912,-2.884909,0.626755,-3.014571,0.419454,-3.108732,0.198672,-3.164364,0.000000,-3.180000,-0.198672,-3.164364,-0.419454,-3.108732,-0.626755,-3.014571,-0.813912,-2.884909,-0.974909,-2.723912,-1.104571,-2.536755,-1.198732,-2.329454,-1.254364,-2.108672,
-1.270000,-1.910000,-1.270000,3.180000,-1.270000,3.180000,$1*%
G04 Aperture macros list end*
%ADD10C,0.150000*%
%ADD11C,0.200000*%
%ADD12C,0.120000*%
%ADD13R,1.700000X1.700000*%
%ADD14O,1.700000X1.700000*%
%ADD15FreePoly0,270.000000*%
G04 APERTURE END LIST*
D10*
X147429819Y-151671792D02*
X146953628Y-152005125D01*
X147429819Y-152243220D02*
X146429819Y-152243220D01*
X146429819Y-152243220D02*
X146429819Y-151862268D01*
X146429819Y-151862268D02*
X146477438Y-151767030D01*
X146477438Y-151767030D02*
X146525057Y-151719411D01*
X146525057Y-151719411D02*
X146620295Y-151671792D01*
X146620295Y-151671792D02*
X146763152Y-151671792D01*
X146763152Y-151671792D02*
X146858390Y-151719411D01*
X146858390Y-151719411D02*
X146906009Y-151767030D01*
X146906009Y-151767030D02*
X146953628Y-151862268D01*
X146953628Y-151862268D02*
X146953628Y-152243220D01*
X146906009Y-151243220D02*
X146906009Y-150909887D01*
X147429819Y-150767030D02*
X147429819Y-151243220D01*
X147429819Y-151243220D02*
X146429819Y-151243220D01*
X146429819Y-151243220D02*
X146429819Y-150767030D01*
X147382200Y-150386077D02*
X147429819Y-150243220D01*
X147429819Y-150243220D02*
X147429819Y-150005125D01*
X147429819Y-150005125D02*
X147382200Y-149909887D01*
X147382200Y-149909887D02*
X147334580Y-149862268D01*
X147334580Y-149862268D02*
X147239342Y-149814649D01*
X147239342Y-149814649D02*
X147144104Y-149814649D01*
X147144104Y-149814649D02*
X147048866Y-149862268D01*
X147048866Y-149862268D02*
X147001247Y-149909887D01*
X147001247Y-149909887D02*
X146953628Y-150005125D01*
X146953628Y-150005125D02*
X146906009Y-150195601D01*
X146906009Y-150195601D02*
X146858390Y-150290839D01*
X146858390Y-150290839D02*
X146810771Y-150338458D01*
X146810771Y-150338458D02*
X146715533Y-150386077D01*
X146715533Y-150386077D02*
X146620295Y-150386077D01*
X146620295Y-150386077D02*
X146525057Y-150338458D01*
X146525057Y-150338458D02*
X146477438Y-150290839D01*
X146477438Y-150290839D02*
X146429819Y-150195601D01*
X146429819Y-150195601D02*
X146429819Y-149957506D01*
X146429819Y-149957506D02*
X146477438Y-149814649D01*
X146906009Y-149386077D02*
X146906009Y-149052744D01*
X147429819Y-148909887D02*
X147429819Y-149386077D01*
X147429819Y-149386077D02*
X146429819Y-149386077D01*
X146429819Y-149386077D02*
X146429819Y-148909887D01*
X146429819Y-148624172D02*
X146429819Y-148052744D01*
X147429819Y-148338458D02*
X146429819Y-148338458D01*
D11*
X148873006Y-110606742D02*
X149673006Y-110606742D01*
X149673006Y-110606742D02*
X148873006Y-111806742D01*
X148873006Y-111806742D02*
X149673006Y-111806742D01*
X150415863Y-112206742D02*
X150415863Y-110492457D01*
X151215863Y-110721028D02*
X151273006Y-110663885D01*
X151273006Y-110663885D02*
X151387292Y-110606742D01*
X151387292Y-110606742D02*
X151673006Y-110606742D01*
X151673006Y-110606742D02*
X151787292Y-110663885D01*
X151787292Y-110663885D02*
X151844434Y-110721028D01*
X151844434Y-110721028D02*
X151901577Y-110835314D01*
X151901577Y-110835314D02*
X151901577Y-110949600D01*
X151901577Y-110949600D02*
X151844434Y-111121028D01*
X151844434Y-111121028D02*
X151158720Y-111806742D01*
X151158720Y-111806742D02*
X151901577Y-111806742D01*
X152358720Y-110721028D02*
X152415863Y-110663885D01*
X152415863Y-110663885D02*
X152530149Y-110606742D01*
X152530149Y-110606742D02*
X152815863Y-110606742D01*
X152815863Y-110606742D02*
X152930149Y-110663885D01*
X152930149Y-110663885D02*
X152987291Y-110721028D01*
X152987291Y-110721028D02*
X153044434Y-110835314D01*
X153044434Y-110835314D02*
X153044434Y-110949600D01*
X153044434Y-110949600D02*
X152987291Y-111121028D01*
X152987291Y-111121028D02*
X152301577Y-111806742D01*
X152301577Y-111806742D02*
X153044434Y-111806742D01*
X148930149Y-51063885D02*
X149501578Y-51063885D01*
X148815863Y-51406742D02*
X149215863Y-50206742D01*
X149215863Y-50206742D02*
X149615863Y-51406742D01*
X150301577Y-51806742D02*
X150301577Y-50092457D01*
X151787291Y-51406742D02*
X151101577Y-51406742D01*
X151444434Y-51406742D02*
X151444434Y-50206742D01*
X151444434Y-50206742D02*
X151330148Y-50378171D01*
X151330148Y-50378171D02*
X151215863Y-50492457D01*
X151215863Y-50492457D02*
X151101577Y-50549600D01*
D10*
X145666666Y-51134819D02*
X145666666Y-51849104D01*
X145666666Y-51849104D02*
X145619047Y-51991961D01*
X145619047Y-51991961D02*
X145523809Y-52087200D01*
X145523809Y-52087200D02*
X145380952Y-52134819D01*
X145380952Y-52134819D02*
X145285714Y-52134819D01*
X146666666Y-52134819D02*
X146095238Y-52134819D01*
X146380952Y-52134819D02*
X146380952Y-51134819D01*
X146380952Y-51134819D02*
X146285714Y-51277676D01*
X146285714Y-51277676D02*
X146190476Y-51372914D01*
X146190476Y-51372914D02*
X146095238Y-51420533D01*
X152244819Y-152153333D02*
X152959104Y-152153333D01*
X152959104Y-152153333D02*
X153101961Y-152200952D01*
X153101961Y-152200952D02*
X153197200Y-152296190D01*
X153197200Y-152296190D02*
X153244819Y-152439047D01*
X153244819Y-152439047D02*
X153244819Y-152534285D01*
X152244819Y-151772380D02*
X152244819Y-151153333D01*
X152244819Y-151153333D02*
X152625771Y-151486666D01*
X152625771Y-151486666D02*
X152625771Y-151343809D01*
X152625771Y-151343809D02*
X152673390Y-151248571D01*
X152673390Y-151248571D02*
X152721009Y-151200952D01*
X152721009Y-151200952D02*
X152816247Y-151153333D01*
X152816247Y-151153333D02*
X153054342Y-151153333D01*
X153054342Y-151153333D02*
X153149580Y-151200952D01*
X153149580Y-151200952D02*
X153197200Y-151248571D01*
X153197200Y-151248571D02*
X153244819Y-151343809D01*
X153244819Y-151343809D02*
X153244819Y-151629523D01*
X153244819Y-151629523D02*
X153197200Y-151724761D01*
X153197200Y-151724761D02*
X153149580Y-151772380D01*
X160656666Y-144074819D02*
X160656666Y-144789104D01*
X160656666Y-144789104D02*
X160609047Y-144931961D01*
X160609047Y-144931961D02*
X160513809Y-145027200D01*
X160513809Y-145027200D02*
X160370952Y-145074819D01*
X160370952Y-145074819D02*
X160275714Y-145074819D01*
X161085238Y-144170057D02*
X161132857Y-144122438D01*
X161132857Y-144122438D02*
X161228095Y-144074819D01*
X161228095Y-144074819D02*
X161466190Y-144074819D01*
X161466190Y-144074819D02*
X161561428Y-144122438D01*
X161561428Y-144122438D02*
X161609047Y-144170057D01*
X161609047Y-144170057D02*
X161656666Y-144265295D01*
X161656666Y-144265295D02*
X161656666Y-144360533D01*
X161656666Y-144360533D02*
X161609047Y-144503390D01*
X161609047Y-144503390D02*
X161037619Y-145074819D01*
X161037619Y-145074819D02*
X161656666Y-145074819D01*
D12*
%TO.C,J1*%
X139020000Y-53120000D02*
X139020000Y-109120000D01*
X139020000Y-53120000D02*
X147650000Y-53120000D01*
X139020000Y-53240000D02*
X147650000Y-53240000D01*
X139020000Y-53358095D02*
X147650000Y-53358095D01*
X139020000Y-53476190D02*
X147650000Y-53476190D01*
X139020000Y-53594285D02*
X147650000Y-53594285D01*
X139020000Y-53712380D02*
X147650000Y-53712380D01*
X139020000Y-53830475D02*
X147650000Y-53830475D01*
X139020000Y-53948570D02*
X147650000Y-53948570D01*
X139020000Y-54066665D02*
X147650000Y-54066665D01*
X139020000Y-54184760D02*
X147650000Y-54184760D01*
X139020000Y-54302855D02*
X147650000Y-54302855D01*
X139020000Y-54420950D02*
X147650000Y-54420950D01*
X139020000Y-54539045D02*
X147650000Y-54539045D01*
X139020000Y-54657140D02*
X147650000Y-54657140D01*
X139020000Y-54775235D02*
X147650000Y-54775235D01*
X139020000Y-54893330D02*
X147650000Y-54893330D01*
X139020000Y-55011425D02*
X147650000Y-55011425D01*
X139020000Y-55129520D02*
X147650000Y-55129520D01*
X139020000Y-55247615D02*
X147650000Y-55247615D01*
X139020000Y-55365710D02*
X147650000Y-55365710D01*
X139020000Y-55483805D02*
X147650000Y-55483805D01*
X139020000Y-55601900D02*
X147650000Y-55601900D01*
X139020000Y-55720000D02*
X147650000Y-55720000D01*
X139020000Y-58260000D02*
X147650000Y-58260000D01*
X139020000Y-60800000D02*
X147650000Y-60800000D01*
X139020000Y-63340000D02*
X147650000Y-63340000D01*
X139020000Y-65880000D02*
X147650000Y-65880000D01*
X139020000Y-68420000D02*
X147650000Y-68420000D01*
X139020000Y-70960000D02*
X147650000Y-70960000D01*
X139020000Y-73500000D02*
X147650000Y-73500000D01*
X139020000Y-76040000D02*
X147650000Y-76040000D01*
X139020000Y-78580000D02*
X147650000Y-78580000D01*
X139020000Y-81120000D02*
X147650000Y-81120000D01*
X139020000Y-83660000D02*
X147650000Y-83660000D01*
X139020000Y-86200000D02*
X147650000Y-86200000D01*
X139020000Y-88740000D02*
X147650000Y-88740000D01*
X139020000Y-91280000D02*
X147650000Y-91280000D01*
X139020000Y-93820000D02*
X147650000Y-93820000D01*
X139020000Y-96360000D02*
X147650000Y-96360000D01*
X139020000Y-98900000D02*
X147650000Y-98900000D01*
X139020000Y-101440000D02*
X147650000Y-101440000D01*
X139020000Y-103980000D02*
X147650000Y-103980000D01*
X139020000Y-106520000D02*
X147650000Y-106520000D01*
X139020000Y-109120000D02*
X147650000Y-109120000D01*
X147650000Y-53120000D02*
X147650000Y-109120000D01*
X147650000Y-54090000D02*
X148060000Y-54090000D01*
X147650000Y-54810000D02*
X148060000Y-54810000D01*
X147650000Y-56630000D02*
X148060000Y-56630000D01*
X147650000Y-57350000D02*
X148060000Y-57350000D01*
X147650000Y-59170000D02*
X148060000Y-59170000D01*
X147650000Y-59890000D02*
X148060000Y-59890000D01*
X147650000Y-61710000D02*
X148060000Y-61710000D01*
X147650000Y-62430000D02*
X148060000Y-62430000D01*
X147650000Y-64250000D02*
X148060000Y-64250000D01*
X147650000Y-64970000D02*
X148060000Y-64970000D01*
X147650000Y-66790000D02*
X148060000Y-66790000D01*
X147650000Y-67510000D02*
X148060000Y-67510000D01*
X147650000Y-69330000D02*
X148060000Y-69330000D01*
X147650000Y-70050000D02*
X148060000Y-70050000D01*
X147650000Y-71870000D02*
X148060000Y-71870000D01*
X147650000Y-72590000D02*
X148060000Y-72590000D01*
X147650000Y-74410000D02*
X148060000Y-74410000D01*
X147650000Y-75130000D02*
X148060000Y-75130000D01*
X147650000Y-76950000D02*
X148060000Y-76950000D01*
X147650000Y-77670000D02*
X148060000Y-77670000D01*
X147650000Y-79490000D02*
X148060000Y-79490000D01*
X147650000Y-80210000D02*
X148060000Y-80210000D01*
X147650000Y-82030000D02*
X148060000Y-82030000D01*
X147650000Y-82750000D02*
X148060000Y-82750000D01*
X147650000Y-84570000D02*
X148060000Y-84570000D01*
X147650000Y-85290000D02*
X148060000Y-85290000D01*
X147650000Y-87110000D02*
X148060000Y-87110000D01*
X147650000Y-87830000D02*
X148060000Y-87830000D01*
X147650000Y-89650000D02*
X148060000Y-89650000D01*
X147650000Y-90370000D02*
X148060000Y-90370000D01*
X147650000Y-92190000D02*
X148060000Y-92190000D01*
X147650000Y-92910000D02*
X148060000Y-92910000D01*
X147650000Y-94730000D02*
X148060000Y-94730000D01*
X147650000Y-95450000D02*
X148060000Y-95450000D01*
X147650000Y-97270000D02*
X148060000Y-97270000D01*
X147650000Y-97990000D02*
X148060000Y-97990000D01*
X147650000Y-99810000D02*
X148060000Y-99810000D01*
X147650000Y-100530000D02*
X148060000Y-100530000D01*
X147650000Y-102350000D02*
X148060000Y-102350000D01*
X147650000Y-103070000D02*
X148060000Y-103070000D01*
X147650000Y-104890000D02*
X148060000Y-104890000D01*
X147650000Y-105610000D02*
X148060000Y-105610000D01*
X147650000Y-107430000D02*
X148060000Y-107430000D01*
X147650000Y-108150000D02*
X148060000Y-108150000D01*
X150160000Y-54090000D02*
X150540000Y-54090000D01*
X150160000Y-54810000D02*
X150540000Y-54810000D01*
X150160000Y-56630000D02*
X150600000Y-56630000D01*
X150160000Y-57350000D02*
X150600000Y-57350000D01*
X150160000Y-59170000D02*
X150600000Y-59170000D01*
X150160000Y-59890000D02*
X150600000Y-59890000D01*
X150160000Y-61710000D02*
X150600000Y-61710000D01*
X150160000Y-62430000D02*
X150600000Y-62430000D01*
X150160000Y-64250000D02*
X150600000Y-64250000D01*
X150160000Y-64970000D02*
X150600000Y-64970000D01*
X150160000Y-66790000D02*
X150600000Y-66790000D01*
X150160000Y-67510000D02*
X150600000Y-67510000D01*
X150160000Y-69330000D02*
X150600000Y-69330000D01*
X150160000Y-70050000D02*
X150600000Y-70050000D01*
X150160000Y-71870000D02*
X150600000Y-71870000D01*
X150160000Y-72590000D02*
X150600000Y-72590000D01*
X150160000Y-74410000D02*
X150600000Y-74410000D01*
X150160000Y-75130000D02*
X150600000Y-75130000D01*
X150160000Y-76950000D02*
X150600000Y-76950000D01*
X150160000Y-77670000D02*
X150600000Y-77670000D01*
X150160000Y-79490000D02*
X150600000Y-79490000D01*
X150160000Y-80210000D02*
X150600000Y-80210000D01*
X150160000Y-82030000D02*
X150600000Y-82030000D01*
X150160000Y-82750000D02*
X150600000Y-82750000D01*
X150160000Y-84570000D02*
X150600000Y-84570000D01*
X150160000Y-85290000D02*
X150600000Y-85290000D01*
X150160000Y-87110000D02*
X150600000Y-87110000D01*
X150160000Y-87830000D02*
X150600000Y-87830000D01*
X150160000Y-89650000D02*
X150600000Y-89650000D01*
X150160000Y-90370000D02*
X150600000Y-90370000D01*
X150160000Y-92190000D02*
X150600000Y-92190000D01*
X150160000Y-92910000D02*
X150600000Y-92910000D01*
X150160000Y-94730000D02*
X150600000Y-94730000D01*
X150160000Y-95450000D02*
X150600000Y-95450000D01*
X150160000Y-97270000D02*
X150600000Y-97270000D01*
X150160000Y-97990000D02*
X150600000Y-97990000D01*
X150160000Y-99810000D02*
X150600000Y-99810000D01*
X150160000Y-100530000D02*
X150600000Y-100530000D01*
X150160000Y-102350000D02*
X150600000Y-102350000D01*
X150160000Y-103070000D02*
X150600000Y-103070000D01*
X150160000Y-104890000D02*
X150600000Y-104890000D01*
X150160000Y-105610000D02*
X150600000Y-105610000D01*
X150160000Y-107430000D02*
X150600000Y-107430000D01*
X150160000Y-108150000D02*
X150600000Y-108150000D01*
X151650000Y-53120000D02*
X152760000Y-53120000D01*
X152760000Y-53120000D02*
X152760000Y-54450000D01*
%TO.C,J3*%
X150480000Y-151535000D02*
X150480000Y-157535000D01*
X151850000Y-151535000D02*
X151850000Y-148875000D01*
X151790000Y-146165000D02*
X151790000Y-147435000D01*
X150520000Y-146165000D02*
X151790000Y-146165000D01*
X150140000Y-148545000D02*
X150140000Y-148875000D01*
X149190000Y-151535000D02*
X151850000Y-151535000D01*
X150900000Y-157535000D02*
X150140000Y-157535000D01*
X150240000Y-151535000D02*
X150240000Y-157535000D01*
X150720000Y-151535000D02*
X150720000Y-157535000D01*
X150900000Y-151535000D02*
X150900000Y-157535000D01*
X150840000Y-151535000D02*
X150840000Y-157535000D01*
X150600000Y-151535000D02*
X150600000Y-157535000D01*
X150900000Y-148545000D02*
X150900000Y-148875000D01*
X150140000Y-157535000D02*
X150140000Y-151535000D01*
X150360000Y-151535000D02*
X150360000Y-157535000D01*
X151850000Y-148875000D02*
X149190000Y-148875000D01*
X149190000Y-148875000D02*
X149190000Y-151535000D01*
%TD*%
%LPC*%
D13*
%TO.C,J1*%
X151650000Y-54450000D03*
D14*
X151650000Y-56990000D03*
X151650000Y-59530000D03*
X151650000Y-62070000D03*
X151650000Y-64610000D03*
X151650000Y-67150000D03*
X151650000Y-69690000D03*
X151650000Y-72230000D03*
X151650000Y-74770000D03*
X151650000Y-77310000D03*
X151650000Y-79850000D03*
X151650000Y-82390000D03*
X151650000Y-84930000D03*
X151650000Y-87470000D03*
X151650000Y-90010000D03*
X151650000Y-92550000D03*
X151650000Y-95090000D03*
X151650000Y-97630000D03*
X151650000Y-100170000D03*
X151650000Y-102710000D03*
X151650000Y-105250000D03*
X151650000Y-107790000D03*
X149110000Y-54450000D03*
X149110000Y-56990000D03*
X149110000Y-59530000D03*
X149110000Y-62070000D03*
X149110000Y-64610000D03*
X149110000Y-67150000D03*
X149110000Y-69690000D03*
X149110000Y-72230000D03*
X149110000Y-74770000D03*
X149110000Y-77310000D03*
X149110000Y-79850000D03*
X149110000Y-82390000D03*
X149110000Y-84930000D03*
X149110000Y-87470000D03*
X149110000Y-90010000D03*
X149110000Y-92550000D03*
X149110000Y-95090000D03*
X149110000Y-97630000D03*
X149110000Y-100170000D03*
X149110000Y-102710000D03*
X149110000Y-105250000D03*
X149110000Y-107790000D03*
%TD*%
D13*
%TO.C,J3*%
X150520000Y-147435000D03*
%TD*%
D15*
%TO.C,J2*%
X160990000Y-57140000D03*
X160990000Y-61100000D03*
X160990000Y-65060000D03*
X160990000Y-69020000D03*
X160990000Y-72980000D03*
X160990000Y-76940000D03*
X160990000Y-80900000D03*
X160990000Y-84860000D03*
X160990000Y-88820000D03*
X160990000Y-92780000D03*
X160990000Y-96740000D03*
X160990000Y-100700000D03*
X160990000Y-104660000D03*
X160990000Y-108620000D03*
X160990000Y-112580000D03*
X160990000Y-116540000D03*
X160990000Y-120500000D03*
X160990000Y-124460000D03*
X160990000Y-128420000D03*
X160990000Y-132380000D03*
X160990000Y-136340000D03*
X160990000Y-140300000D03*
%TD*%
%LPD*%
M02*
