%TF.GenerationSoftware,KiCad,Pcbnew,9.0.7*%
%TF.CreationDate,2026-04-05T10:10:13+02:00*%
%TF.ProjectId,pal-2-kim-adapter,70616c2d-322d-46b6-996d-2d6164617074,rev?*%
%TF.SameCoordinates,Original*%
%TF.FileFunction,Soldermask,Bot*%
%TF.FilePolarity,Negative*%
%FSLAX46Y46*%
G04 Gerber Fmt 4.6, Leading zero omitted, Abs format (unit mm)*
G04 Created by KiCad (PCBNEW 9.0.7) date 2026-04-05 10:10:13*
%MOMM*%
%LPD*%
G01*
G04 APERTURE LIST*
G04 Aperture macros list*
%AMRoundRect*
0 Rectangle with rounded corners*
0 $1 Rounding radius*
0 $2 $3 $4 $5 $6 $7 $8 $9 X,Y pos of 4 corners*
0 Add a 4 corners polygon primitive as box body*
4,1,4,$2,$3,$4,$5,$6,$7,$8,$9,$2,$3,0*
0 Add four circle primitives for the rounded corners*
1,1,$1+$1,$2,$3*
1,1,$1+$1,$4,$5*
1,1,$1+$1,$6,$7*
1,1,$1+$1,$8,$9*
0 Add four rect primitives between the rounded corners*
20,1,$1+$1,$2,$3,$4,$5,0*
20,1,$1+$1,$4,$5,$6,$7,0*
20,1,$1+$1,$6,$7,$8,$9,0*
20,1,$1+$1,$8,$9,$2,$3,0*%
%AMFreePoly0*
4,1,22,-1.270000,3.180000,1.270000,3.180000,1.270000,-1.910000,1.254364,-2.108672,1.198732,-2.329454,1.104571,-2.536755,0.974909,-2.723912,0.813912,-2.884909,0.626755,-3.014571,0.419454,-3.108732,0.198672,-3.164364,0.000000,-3.180000,-0.198672,-3.164364,-0.419454,-3.108732,-0.626755,-3.014571,-0.813912,-2.884909,-0.974909,-2.723912,-1.104571,-2.536755,-1.198732,-2.329454,-1.254364,-2.108672,
-1.270000,-1.910000,-1.270000,3.180000,-1.270000,3.180000,$1*%
G04 Aperture macros list end*
%ADD10RoundRect,0.250000X0.550000X0.550000X-0.550000X0.550000X-0.550000X-0.550000X0.550000X-0.550000X0*%
%ADD11C,1.600000*%
%ADD12R,1.700000X1.700000*%
%ADD13FreePoly0,270.000000*%
%ADD14O,1.700000X1.700000*%
G04 APERTURE END LIST*
D10*
%TO.C,U1*%
X153510000Y-151790000D03*
D11*
X153510000Y-149250000D03*
X153510000Y-146710000D03*
X153510000Y-144170000D03*
X153510000Y-141630000D03*
X153510000Y-139090000D03*
X153510000Y-136550000D03*
X145890000Y-136550000D03*
X145890000Y-139090000D03*
X145890000Y-141630000D03*
X145890000Y-144170000D03*
X145890000Y-146710000D03*
X145890000Y-149250000D03*
X145890000Y-151790000D03*
%TD*%
D12*
%TO.C,J3*%
X160657540Y-147421600D03*
%TD*%
D13*
%TO.C,J2*%
X160990000Y-57140000D03*
X160990000Y-61100000D03*
X160990000Y-65060000D03*
X160990000Y-69020000D03*
X160990000Y-72980000D03*
X160990000Y-76940000D03*
X160990000Y-80900000D03*
X160990000Y-84860000D03*
X160990000Y-88820000D03*
X160990000Y-92780000D03*
X160990000Y-96740000D03*
X160990000Y-100700000D03*
X160990000Y-104660000D03*
X160990000Y-108620000D03*
X160990000Y-112580000D03*
X160990000Y-116540000D03*
X160990000Y-120500000D03*
X160990000Y-124460000D03*
X160990000Y-128420000D03*
X160990000Y-132380000D03*
X160990000Y-136340000D03*
X160990000Y-140300000D03*
%TD*%
D12*
%TO.C,J4*%
X147400000Y-116540000D03*
%TD*%
%TO.C,J1*%
X151650000Y-54450000D03*
D14*
X151650000Y-56990000D03*
X151650000Y-59530000D03*
X151650000Y-62070000D03*
X151650000Y-64610000D03*
X151650000Y-67150000D03*
X151650000Y-69690000D03*
X151650000Y-72230000D03*
X151650000Y-74770000D03*
X151650000Y-77310000D03*
X151650000Y-79850000D03*
X151650000Y-82390000D03*
X151650000Y-84930000D03*
X151650000Y-87470000D03*
X151650000Y-90010000D03*
X151650000Y-92550000D03*
X151650000Y-95090000D03*
X151650000Y-97630000D03*
X151650000Y-100170000D03*
X151650000Y-102710000D03*
X151650000Y-105250000D03*
X151650000Y-107790000D03*
X149110000Y-54450000D03*
X149110000Y-56990000D03*
X149110000Y-59530000D03*
X149110000Y-62070000D03*
X149110000Y-64610000D03*
X149110000Y-67150000D03*
X149110000Y-69690000D03*
X149110000Y-72230000D03*
X149110000Y-74770000D03*
X149110000Y-77310000D03*
X149110000Y-79850000D03*
X149110000Y-82390000D03*
X149110000Y-84930000D03*
X149110000Y-87470000D03*
X149110000Y-90010000D03*
X149110000Y-92550000D03*
X149110000Y-95090000D03*
X149110000Y-97630000D03*
X149110000Y-100170000D03*
X149110000Y-102710000D03*
X149110000Y-105250000D03*
X149110000Y-107790000D03*
%TD*%
M02*
