%TF.GenerationSoftware,KiCad,Pcbnew,9.0.7*%
%TF.CreationDate,2026-04-05T10:10:13+02:00*%
%TF.ProjectId,pal-2-kim-adapter,70616c2d-322d-46b6-996d-2d6164617074,rev?*%
%TF.SameCoordinates,Original*%
%TF.FileFunction,Legend,Bot*%
%TF.FilePolarity,Positive*%
%FSLAX46Y46*%
G04 Gerber Fmt 4.6, Leading zero omitted, Abs format (unit mm)*
G04 Created by KiCad (PCBNEW 9.0.7) date 2026-04-05 10:10:13*
%MOMM*%
%LPD*%
G01*
G04 APERTURE LIST*
G04 Aperture macros list*
%AMRoundRect*
0 Rectangle with rounded corners*
0 $1 Rounding radius*
0 $2 $3 $4 $5 $6 $7 $8 $9 X,Y pos of 4 corners*
0 Add a 4 corners polygon primitive as box body*
4,1,4,$2,$3,$4,$5,$6,$7,$8,$9,$2,$3,0*
0 Add four circle primitives for the rounded corners*
1,1,$1+$1,$2,$3*
1,1,$1+$1,$4,$5*
1,1,$1+$1,$6,$7*
1,1,$1+$1,$8,$9*
0 Add four rect primitives between the rounded corners*
20,1,$1+$1,$2,$3,$4,$5,0*
20,1,$1+$1,$4,$5,$6,$7,0*
20,1,$1+$1,$6,$7,$8,$9,0*
20,1,$1+$1,$8,$9,$2,$3,0*%
%AMFreePoly0*
4,1,22,-1.270000,3.180000,1.270000,3.180000,1.270000,-1.910000,1.254364,-2.108672,1.198732,-2.329454,1.104571,-2.536755,0.974909,-2.723912,0.813912,-2.884909,0.626755,-3.014571,0.419454,-3.108732,0.198672,-3.164364,0.000000,-3.180000,-0.198672,-3.164364,-0.419454,-3.108732,-0.626755,-3.014571,-0.813912,-2.884909,-0.974909,-2.723912,-1.104571,-2.536755,-1.198732,-2.329454,-1.254364,-2.108672,
-1.270000,-1.910000,-1.270000,3.180000,-1.270000,3.180000,$1*%
G04 Aperture macros list end*
%ADD10C,0.200000*%
%ADD11C,0.150000*%
%ADD12C,0.010000*%
%ADD13RoundRect,0.250000X0.550000X0.550000X-0.550000X0.550000X-0.550000X-0.550000X0.550000X-0.550000X0*%
%ADD14C,1.600000*%
%ADD15R,1.700000X1.700000*%
%ADD16FreePoly0,270.000000*%
%ADD17O,1.700000X1.700000*%
G04 APERTURE END LIST*
D10*
X146394602Y-127124604D02*
X146337460Y-127181747D01*
X146337460Y-127181747D02*
X146280317Y-127353175D01*
X146280317Y-127353175D02*
X146280317Y-127467461D01*
X146280317Y-127467461D02*
X146337460Y-127638890D01*
X146337460Y-127638890D02*
X146451745Y-127753175D01*
X146451745Y-127753175D02*
X146566031Y-127810318D01*
X146566031Y-127810318D02*
X146794602Y-127867461D01*
X146794602Y-127867461D02*
X146966031Y-127867461D01*
X146966031Y-127867461D02*
X147194602Y-127810318D01*
X147194602Y-127810318D02*
X147308888Y-127753175D01*
X147308888Y-127753175D02*
X147423174Y-127638890D01*
X147423174Y-127638890D02*
X147480317Y-127467461D01*
X147480317Y-127467461D02*
X147480317Y-127353175D01*
X147480317Y-127353175D02*
X147423174Y-127181747D01*
X147423174Y-127181747D02*
X147366031Y-127124604D01*
X146394602Y-125924604D02*
X146337460Y-125981747D01*
X146337460Y-125981747D02*
X146280317Y-126153175D01*
X146280317Y-126153175D02*
X146280317Y-126267461D01*
X146280317Y-126267461D02*
X146337460Y-126438890D01*
X146337460Y-126438890D02*
X146451745Y-126553175D01*
X146451745Y-126553175D02*
X146566031Y-126610318D01*
X146566031Y-126610318D02*
X146794602Y-126667461D01*
X146794602Y-126667461D02*
X146966031Y-126667461D01*
X146966031Y-126667461D02*
X147194602Y-126610318D01*
X147194602Y-126610318D02*
X147308888Y-126553175D01*
X147308888Y-126553175D02*
X147423174Y-126438890D01*
X147423174Y-126438890D02*
X147480317Y-126267461D01*
X147480317Y-126267461D02*
X147480317Y-126153175D01*
X147480317Y-126153175D02*
X147423174Y-125981747D01*
X147423174Y-125981747D02*
X147366031Y-125924604D01*
X146737460Y-125410318D02*
X146737460Y-124496033D01*
X146908888Y-123524604D02*
X146851745Y-123353176D01*
X146851745Y-123353176D02*
X146794602Y-123296033D01*
X146794602Y-123296033D02*
X146680317Y-123238890D01*
X146680317Y-123238890D02*
X146508888Y-123238890D01*
X146508888Y-123238890D02*
X146394602Y-123296033D01*
X146394602Y-123296033D02*
X146337460Y-123353176D01*
X146337460Y-123353176D02*
X146280317Y-123467461D01*
X146280317Y-123467461D02*
X146280317Y-123924604D01*
X146280317Y-123924604D02*
X147480317Y-123924604D01*
X147480317Y-123924604D02*
X147480317Y-123524604D01*
X147480317Y-123524604D02*
X147423174Y-123410319D01*
X147423174Y-123410319D02*
X147366031Y-123353176D01*
X147366031Y-123353176D02*
X147251745Y-123296033D01*
X147251745Y-123296033D02*
X147137460Y-123296033D01*
X147137460Y-123296033D02*
X147023174Y-123353176D01*
X147023174Y-123353176D02*
X146966031Y-123410319D01*
X146966031Y-123410319D02*
X146908888Y-123524604D01*
X146908888Y-123524604D02*
X146908888Y-123924604D01*
X146851745Y-122496033D02*
X146280317Y-122496033D01*
X147480317Y-122896033D02*
X146851745Y-122496033D01*
X146851745Y-122496033D02*
X147480317Y-122096033D01*
X146737460Y-121696033D02*
X146737460Y-120781748D01*
X146337460Y-120267462D02*
X146280317Y-120096034D01*
X146280317Y-120096034D02*
X146280317Y-119810319D01*
X146280317Y-119810319D02*
X146337460Y-119696034D01*
X146337460Y-119696034D02*
X146394602Y-119638891D01*
X146394602Y-119638891D02*
X146508888Y-119581748D01*
X146508888Y-119581748D02*
X146623174Y-119581748D01*
X146623174Y-119581748D02*
X146737460Y-119638891D01*
X146737460Y-119638891D02*
X146794602Y-119696034D01*
X146794602Y-119696034D02*
X146851745Y-119810319D01*
X146851745Y-119810319D02*
X146908888Y-120038891D01*
X146908888Y-120038891D02*
X146966031Y-120153176D01*
X146966031Y-120153176D02*
X147023174Y-120210319D01*
X147023174Y-120210319D02*
X147137460Y-120267462D01*
X147137460Y-120267462D02*
X147251745Y-120267462D01*
X147251745Y-120267462D02*
X147366031Y-120210319D01*
X147366031Y-120210319D02*
X147423174Y-120153176D01*
X147423174Y-120153176D02*
X147480317Y-120038891D01*
X147480317Y-120038891D02*
X147480317Y-119753176D01*
X147480317Y-119753176D02*
X147423174Y-119581748D01*
X146623174Y-119124605D02*
X146623174Y-118553177D01*
X146280317Y-119238891D02*
X147480317Y-118838891D01*
X147480317Y-118838891D02*
X146280317Y-118438891D01*
D11*
X144262764Y-133610321D02*
X145062764Y-133610321D01*
X144262764Y-133267464D02*
X144681812Y-133267464D01*
X144681812Y-133267464D02*
X144758002Y-133305559D01*
X144758002Y-133305559D02*
X144796098Y-133381750D01*
X144796098Y-133381750D02*
X144796098Y-133496036D01*
X144796098Y-133496036D02*
X144758002Y-133572226D01*
X144758002Y-133572226D02*
X144719907Y-133610321D01*
X144796098Y-133000797D02*
X144796098Y-132696035D01*
X145062764Y-132886511D02*
X144377050Y-132886511D01*
X144377050Y-132886511D02*
X144300860Y-132848416D01*
X144300860Y-132848416D02*
X144262764Y-132772226D01*
X144262764Y-132772226D02*
X144262764Y-132696035D01*
X144796098Y-132543654D02*
X144796098Y-132238892D01*
X145062764Y-132429368D02*
X144377050Y-132429368D01*
X144377050Y-132429368D02*
X144300860Y-132391273D01*
X144300860Y-132391273D02*
X144262764Y-132315083D01*
X144262764Y-132315083D02*
X144262764Y-132238892D01*
X144796098Y-131972225D02*
X143996098Y-131972225D01*
X144758002Y-131972225D02*
X144796098Y-131896035D01*
X144796098Y-131896035D02*
X144796098Y-131743654D01*
X144796098Y-131743654D02*
X144758002Y-131667463D01*
X144758002Y-131667463D02*
X144719907Y-131629368D01*
X144719907Y-131629368D02*
X144643717Y-131591273D01*
X144643717Y-131591273D02*
X144415145Y-131591273D01*
X144415145Y-131591273D02*
X144338955Y-131629368D01*
X144338955Y-131629368D02*
X144300860Y-131667463D01*
X144300860Y-131667463D02*
X144262764Y-131743654D01*
X144262764Y-131743654D02*
X144262764Y-131896035D01*
X144262764Y-131896035D02*
X144300860Y-131972225D01*
X144300860Y-131286511D02*
X144262764Y-131210320D01*
X144262764Y-131210320D02*
X144262764Y-131057939D01*
X144262764Y-131057939D02*
X144300860Y-130981749D01*
X144300860Y-130981749D02*
X144377050Y-130943653D01*
X144377050Y-130943653D02*
X144415145Y-130943653D01*
X144415145Y-130943653D02*
X144491336Y-130981749D01*
X144491336Y-130981749D02*
X144529431Y-131057939D01*
X144529431Y-131057939D02*
X144529431Y-131172225D01*
X144529431Y-131172225D02*
X144567526Y-131248415D01*
X144567526Y-131248415D02*
X144643717Y-131286511D01*
X144643717Y-131286511D02*
X144681812Y-131286511D01*
X144681812Y-131286511D02*
X144758002Y-131248415D01*
X144758002Y-131248415D02*
X144796098Y-131172225D01*
X144796098Y-131172225D02*
X144796098Y-131057939D01*
X144796098Y-131057939D02*
X144758002Y-130981749D01*
X144338955Y-130600796D02*
X144300860Y-130562701D01*
X144300860Y-130562701D02*
X144262764Y-130600796D01*
X144262764Y-130600796D02*
X144300860Y-130638892D01*
X144300860Y-130638892D02*
X144338955Y-130600796D01*
X144338955Y-130600796D02*
X144262764Y-130600796D01*
X144758002Y-130600796D02*
X144719907Y-130562701D01*
X144719907Y-130562701D02*
X144681812Y-130600796D01*
X144681812Y-130600796D02*
X144719907Y-130638892D01*
X144719907Y-130638892D02*
X144758002Y-130600796D01*
X144758002Y-130600796D02*
X144681812Y-130600796D01*
X145100860Y-129648416D02*
X144072288Y-130334130D01*
X145100860Y-128810321D02*
X144072288Y-129496035D01*
X144796098Y-128200797D02*
X144148479Y-128200797D01*
X144148479Y-128200797D02*
X144072288Y-128238892D01*
X144072288Y-128238892D02*
X144034193Y-128276988D01*
X144034193Y-128276988D02*
X143996098Y-128353178D01*
X143996098Y-128353178D02*
X143996098Y-128467464D01*
X143996098Y-128467464D02*
X144034193Y-128543654D01*
X144300860Y-128200797D02*
X144262764Y-128276988D01*
X144262764Y-128276988D02*
X144262764Y-128429369D01*
X144262764Y-128429369D02*
X144300860Y-128505559D01*
X144300860Y-128505559D02*
X144338955Y-128543654D01*
X144338955Y-128543654D02*
X144415145Y-128581750D01*
X144415145Y-128581750D02*
X144643717Y-128581750D01*
X144643717Y-128581750D02*
X144719907Y-128543654D01*
X144719907Y-128543654D02*
X144758002Y-128505559D01*
X144758002Y-128505559D02*
X144796098Y-128429369D01*
X144796098Y-128429369D02*
X144796098Y-128276988D01*
X144796098Y-128276988D02*
X144758002Y-128200797D01*
X144262764Y-127819844D02*
X144796098Y-127819844D01*
X145062764Y-127819844D02*
X145024669Y-127857940D01*
X145024669Y-127857940D02*
X144986574Y-127819844D01*
X144986574Y-127819844D02*
X145024669Y-127781749D01*
X145024669Y-127781749D02*
X145062764Y-127819844D01*
X145062764Y-127819844D02*
X144986574Y-127819844D01*
X144796098Y-127553178D02*
X144796098Y-127248416D01*
X145062764Y-127438892D02*
X144377050Y-127438892D01*
X144377050Y-127438892D02*
X144300860Y-127400797D01*
X144300860Y-127400797D02*
X144262764Y-127324607D01*
X144262764Y-127324607D02*
X144262764Y-127248416D01*
X144796098Y-126638892D02*
X144148479Y-126638892D01*
X144148479Y-126638892D02*
X144072288Y-126676987D01*
X144072288Y-126676987D02*
X144034193Y-126715083D01*
X144034193Y-126715083D02*
X143996098Y-126791273D01*
X143996098Y-126791273D02*
X143996098Y-126905559D01*
X143996098Y-126905559D02*
X144034193Y-126981749D01*
X144300860Y-126638892D02*
X144262764Y-126715083D01*
X144262764Y-126715083D02*
X144262764Y-126867464D01*
X144262764Y-126867464D02*
X144300860Y-126943654D01*
X144300860Y-126943654D02*
X144338955Y-126981749D01*
X144338955Y-126981749D02*
X144415145Y-127019845D01*
X144415145Y-127019845D02*
X144643717Y-127019845D01*
X144643717Y-127019845D02*
X144719907Y-126981749D01*
X144719907Y-126981749D02*
X144758002Y-126943654D01*
X144758002Y-126943654D02*
X144796098Y-126867464D01*
X144796098Y-126867464D02*
X144796098Y-126715083D01*
X144796098Y-126715083D02*
X144758002Y-126638892D01*
X144796098Y-125915082D02*
X144262764Y-125915082D01*
X144796098Y-126257939D02*
X144377050Y-126257939D01*
X144377050Y-126257939D02*
X144300860Y-126219844D01*
X144300860Y-126219844D02*
X144262764Y-126143654D01*
X144262764Y-126143654D02*
X144262764Y-126029368D01*
X144262764Y-126029368D02*
X144300860Y-125953177D01*
X144300860Y-125953177D02*
X144338955Y-125915082D01*
X144262764Y-125534129D02*
X145062764Y-125534129D01*
X144758002Y-125534129D02*
X144796098Y-125457939D01*
X144796098Y-125457939D02*
X144796098Y-125305558D01*
X144796098Y-125305558D02*
X144758002Y-125229367D01*
X144758002Y-125229367D02*
X144719907Y-125191272D01*
X144719907Y-125191272D02*
X144643717Y-125153177D01*
X144643717Y-125153177D02*
X144415145Y-125153177D01*
X144415145Y-125153177D02*
X144338955Y-125191272D01*
X144338955Y-125191272D02*
X144300860Y-125229367D01*
X144300860Y-125229367D02*
X144262764Y-125305558D01*
X144262764Y-125305558D02*
X144262764Y-125457939D01*
X144262764Y-125457939D02*
X144300860Y-125534129D01*
X144338955Y-124810319D02*
X144300860Y-124772224D01*
X144300860Y-124772224D02*
X144262764Y-124810319D01*
X144262764Y-124810319D02*
X144300860Y-124848415D01*
X144300860Y-124848415D02*
X144338955Y-124810319D01*
X144338955Y-124810319D02*
X144262764Y-124810319D01*
X144300860Y-124086510D02*
X144262764Y-124162701D01*
X144262764Y-124162701D02*
X144262764Y-124315082D01*
X144262764Y-124315082D02*
X144300860Y-124391272D01*
X144300860Y-124391272D02*
X144338955Y-124429367D01*
X144338955Y-124429367D02*
X144415145Y-124467463D01*
X144415145Y-124467463D02*
X144643717Y-124467463D01*
X144643717Y-124467463D02*
X144719907Y-124429367D01*
X144719907Y-124429367D02*
X144758002Y-124391272D01*
X144758002Y-124391272D02*
X144796098Y-124315082D01*
X144796098Y-124315082D02*
X144796098Y-124162701D01*
X144796098Y-124162701D02*
X144758002Y-124086510D01*
X144262764Y-123629368D02*
X144300860Y-123705558D01*
X144300860Y-123705558D02*
X144338955Y-123743653D01*
X144338955Y-123743653D02*
X144415145Y-123781749D01*
X144415145Y-123781749D02*
X144643717Y-123781749D01*
X144643717Y-123781749D02*
X144719907Y-123743653D01*
X144719907Y-123743653D02*
X144758002Y-123705558D01*
X144758002Y-123705558D02*
X144796098Y-123629368D01*
X144796098Y-123629368D02*
X144796098Y-123515082D01*
X144796098Y-123515082D02*
X144758002Y-123438891D01*
X144758002Y-123438891D02*
X144719907Y-123400796D01*
X144719907Y-123400796D02*
X144643717Y-123362701D01*
X144643717Y-123362701D02*
X144415145Y-123362701D01*
X144415145Y-123362701D02*
X144338955Y-123400796D01*
X144338955Y-123400796D02*
X144300860Y-123438891D01*
X144300860Y-123438891D02*
X144262764Y-123515082D01*
X144262764Y-123515082D02*
X144262764Y-123629368D01*
X144262764Y-123019843D02*
X144796098Y-123019843D01*
X144719907Y-123019843D02*
X144758002Y-122981748D01*
X144758002Y-122981748D02*
X144796098Y-122905558D01*
X144796098Y-122905558D02*
X144796098Y-122791272D01*
X144796098Y-122791272D02*
X144758002Y-122715081D01*
X144758002Y-122715081D02*
X144681812Y-122676986D01*
X144681812Y-122676986D02*
X144262764Y-122676986D01*
X144681812Y-122676986D02*
X144758002Y-122638891D01*
X144758002Y-122638891D02*
X144796098Y-122562700D01*
X144796098Y-122562700D02*
X144796098Y-122448415D01*
X144796098Y-122448415D02*
X144758002Y-122372224D01*
X144758002Y-122372224D02*
X144681812Y-122334129D01*
X144681812Y-122334129D02*
X144262764Y-122334129D01*
X145100860Y-121381748D02*
X144072288Y-122067462D01*
X144300860Y-120810319D02*
X144262764Y-120886510D01*
X144262764Y-120886510D02*
X144262764Y-121038891D01*
X144262764Y-121038891D02*
X144300860Y-121115081D01*
X144300860Y-121115081D02*
X144377050Y-121153177D01*
X144377050Y-121153177D02*
X144681812Y-121153177D01*
X144681812Y-121153177D02*
X144758002Y-121115081D01*
X144758002Y-121115081D02*
X144796098Y-121038891D01*
X144796098Y-121038891D02*
X144796098Y-120886510D01*
X144796098Y-120886510D02*
X144758002Y-120810319D01*
X144758002Y-120810319D02*
X144681812Y-120772224D01*
X144681812Y-120772224D02*
X144605621Y-120772224D01*
X144605621Y-120772224D02*
X144529431Y-121153177D01*
X144262764Y-120086510D02*
X145062764Y-120086510D01*
X144300860Y-120086510D02*
X144262764Y-120162701D01*
X144262764Y-120162701D02*
X144262764Y-120315082D01*
X144262764Y-120315082D02*
X144300860Y-120391272D01*
X144300860Y-120391272D02*
X144338955Y-120429367D01*
X144338955Y-120429367D02*
X144415145Y-120467463D01*
X144415145Y-120467463D02*
X144643717Y-120467463D01*
X144643717Y-120467463D02*
X144719907Y-120429367D01*
X144719907Y-120429367D02*
X144758002Y-120391272D01*
X144758002Y-120391272D02*
X144796098Y-120315082D01*
X144796098Y-120315082D02*
X144796098Y-120162701D01*
X144796098Y-120162701D02*
X144758002Y-120086510D01*
X144796098Y-119362700D02*
X144262764Y-119362700D01*
X144796098Y-119705557D02*
X144377050Y-119705557D01*
X144377050Y-119705557D02*
X144300860Y-119667462D01*
X144300860Y-119667462D02*
X144262764Y-119591272D01*
X144262764Y-119591272D02*
X144262764Y-119476986D01*
X144262764Y-119476986D02*
X144300860Y-119400795D01*
X144300860Y-119400795D02*
X144338955Y-119362700D01*
X144262764Y-118638890D02*
X144681812Y-118638890D01*
X144681812Y-118638890D02*
X144758002Y-118676985D01*
X144758002Y-118676985D02*
X144796098Y-118753176D01*
X144796098Y-118753176D02*
X144796098Y-118905557D01*
X144796098Y-118905557D02*
X144758002Y-118981747D01*
X144300860Y-118638890D02*
X144262764Y-118715081D01*
X144262764Y-118715081D02*
X144262764Y-118905557D01*
X144262764Y-118905557D02*
X144300860Y-118981747D01*
X144300860Y-118981747D02*
X144377050Y-119019843D01*
X144377050Y-119019843D02*
X144453240Y-119019843D01*
X144453240Y-119019843D02*
X144529431Y-118981747D01*
X144529431Y-118981747D02*
X144567526Y-118905557D01*
X144567526Y-118905557D02*
X144567526Y-118715081D01*
X144567526Y-118715081D02*
X144605621Y-118638890D01*
X144262764Y-118257937D02*
X144796098Y-118257937D01*
X144643717Y-118257937D02*
X144719907Y-118219842D01*
X144719907Y-118219842D02*
X144758002Y-118181747D01*
X144758002Y-118181747D02*
X144796098Y-118105556D01*
X144796098Y-118105556D02*
X144796098Y-118029366D01*
X144262764Y-117419842D02*
X145062764Y-117419842D01*
X144300860Y-117419842D02*
X144262764Y-117496033D01*
X144262764Y-117496033D02*
X144262764Y-117648414D01*
X144262764Y-117648414D02*
X144300860Y-117724604D01*
X144300860Y-117724604D02*
X144338955Y-117762699D01*
X144338955Y-117762699D02*
X144415145Y-117800795D01*
X144415145Y-117800795D02*
X144643717Y-117800795D01*
X144643717Y-117800795D02*
X144719907Y-117762699D01*
X144719907Y-117762699D02*
X144758002Y-117724604D01*
X144758002Y-117724604D02*
X144796098Y-117648414D01*
X144796098Y-117648414D02*
X144796098Y-117496033D01*
X144796098Y-117496033D02*
X144758002Y-117419842D01*
X144262764Y-116924604D02*
X144300860Y-117000794D01*
X144300860Y-117000794D02*
X144338955Y-117038889D01*
X144338955Y-117038889D02*
X144415145Y-117076985D01*
X144415145Y-117076985D02*
X144643717Y-117076985D01*
X144643717Y-117076985D02*
X144719907Y-117038889D01*
X144719907Y-117038889D02*
X144758002Y-117000794D01*
X144758002Y-117000794D02*
X144796098Y-116924604D01*
X144796098Y-116924604D02*
X144796098Y-116810318D01*
X144796098Y-116810318D02*
X144758002Y-116734127D01*
X144758002Y-116734127D02*
X144719907Y-116696032D01*
X144719907Y-116696032D02*
X144643717Y-116657937D01*
X144643717Y-116657937D02*
X144415145Y-116657937D01*
X144415145Y-116657937D02*
X144338955Y-116696032D01*
X144338955Y-116696032D02*
X144300860Y-116734127D01*
X144300860Y-116734127D02*
X144262764Y-116810318D01*
X144262764Y-116810318D02*
X144262764Y-116924604D01*
X144300860Y-115972222D02*
X144262764Y-116048413D01*
X144262764Y-116048413D02*
X144262764Y-116200794D01*
X144262764Y-116200794D02*
X144300860Y-116276984D01*
X144300860Y-116276984D02*
X144338955Y-116315079D01*
X144338955Y-116315079D02*
X144415145Y-116353175D01*
X144415145Y-116353175D02*
X144643717Y-116353175D01*
X144643717Y-116353175D02*
X144719907Y-116315079D01*
X144719907Y-116315079D02*
X144758002Y-116276984D01*
X144758002Y-116276984D02*
X144796098Y-116200794D01*
X144796098Y-116200794D02*
X144796098Y-116048413D01*
X144796098Y-116048413D02*
X144758002Y-115972222D01*
X144262764Y-115286508D02*
X144681812Y-115286508D01*
X144681812Y-115286508D02*
X144758002Y-115324603D01*
X144758002Y-115324603D02*
X144796098Y-115400794D01*
X144796098Y-115400794D02*
X144796098Y-115553175D01*
X144796098Y-115553175D02*
X144758002Y-115629365D01*
X144300860Y-115286508D02*
X144262764Y-115362699D01*
X144262764Y-115362699D02*
X144262764Y-115553175D01*
X144262764Y-115553175D02*
X144300860Y-115629365D01*
X144300860Y-115629365D02*
X144377050Y-115667461D01*
X144377050Y-115667461D02*
X144453240Y-115667461D01*
X144453240Y-115667461D02*
X144529431Y-115629365D01*
X144529431Y-115629365D02*
X144567526Y-115553175D01*
X144567526Y-115553175D02*
X144567526Y-115362699D01*
X144567526Y-115362699D02*
X144605621Y-115286508D01*
X144300860Y-114943651D02*
X144262764Y-114867460D01*
X144262764Y-114867460D02*
X144262764Y-114715079D01*
X144262764Y-114715079D02*
X144300860Y-114638889D01*
X144300860Y-114638889D02*
X144377050Y-114600793D01*
X144377050Y-114600793D02*
X144415145Y-114600793D01*
X144415145Y-114600793D02*
X144491336Y-114638889D01*
X144491336Y-114638889D02*
X144529431Y-114715079D01*
X144529431Y-114715079D02*
X144529431Y-114829365D01*
X144529431Y-114829365D02*
X144567526Y-114905555D01*
X144567526Y-114905555D02*
X144643717Y-114943651D01*
X144643717Y-114943651D02*
X144681812Y-114943651D01*
X144681812Y-114943651D02*
X144758002Y-114905555D01*
X144758002Y-114905555D02*
X144796098Y-114829365D01*
X144796098Y-114829365D02*
X144796098Y-114715079D01*
X144796098Y-114715079D02*
X144758002Y-114638889D01*
X144262764Y-114257936D02*
X144796098Y-114257936D01*
X145062764Y-114257936D02*
X145024669Y-114296032D01*
X145024669Y-114296032D02*
X144986574Y-114257936D01*
X144986574Y-114257936D02*
X145024669Y-114219841D01*
X145024669Y-114219841D02*
X145062764Y-114257936D01*
X145062764Y-114257936D02*
X144986574Y-114257936D01*
X144796098Y-113876984D02*
X144262764Y-113876984D01*
X144719907Y-113876984D02*
X144758002Y-113838889D01*
X144758002Y-113838889D02*
X144796098Y-113762699D01*
X144796098Y-113762699D02*
X144796098Y-113648413D01*
X144796098Y-113648413D02*
X144758002Y-113572222D01*
X144758002Y-113572222D02*
X144681812Y-113534127D01*
X144681812Y-113534127D02*
X144262764Y-113534127D01*
X144262764Y-113038889D02*
X144300860Y-113115079D01*
X144300860Y-113115079D02*
X144338955Y-113153174D01*
X144338955Y-113153174D02*
X144415145Y-113191270D01*
X144415145Y-113191270D02*
X144643717Y-113191270D01*
X144643717Y-113191270D02*
X144719907Y-113153174D01*
X144719907Y-113153174D02*
X144758002Y-113115079D01*
X144758002Y-113115079D02*
X144796098Y-113038889D01*
X144796098Y-113038889D02*
X144796098Y-112924603D01*
X144796098Y-112924603D02*
X144758002Y-112848412D01*
X144758002Y-112848412D02*
X144719907Y-112810317D01*
X144719907Y-112810317D02*
X144643717Y-112772222D01*
X144643717Y-112772222D02*
X144415145Y-112772222D01*
X144415145Y-112772222D02*
X144338955Y-112810317D01*
X144338955Y-112810317D02*
X144300860Y-112848412D01*
X144300860Y-112848412D02*
X144262764Y-112924603D01*
X144262764Y-112924603D02*
X144262764Y-113038889D01*
D12*
%TO.C,REF\u002A\u002A*%
X149561973Y-119483272D02*
X149630093Y-119512751D01*
X149693926Y-119560418D01*
X149738072Y-119616159D01*
X149748278Y-119639513D01*
X149765342Y-119727939D01*
X149758584Y-119821821D01*
X149728620Y-119902487D01*
X149706106Y-119936034D01*
X149673848Y-119970007D01*
X149632814Y-119994239D01*
X149576952Y-120010321D01*
X149500209Y-120019841D01*
X149396535Y-120024388D01*
X149259876Y-120025551D01*
X149189255Y-120025323D01*
X149092752Y-120024180D01*
X149015737Y-120022239D01*
X148964741Y-120019685D01*
X148946291Y-120016701D01*
X148952393Y-119997282D01*
X148968965Y-119958086D01*
X148969502Y-119956909D01*
X148980157Y-119936555D01*
X148994778Y-119922866D01*
X149020387Y-119914519D01*
X149064006Y-119910194D01*
X149132657Y-119908568D01*
X149233362Y-119908320D01*
X149297247Y-119907820D01*
X149417309Y-119902484D01*
X149505251Y-119890265D01*
X149565685Y-119869872D01*
X149603224Y-119840015D01*
X149622479Y-119799402D01*
X149623821Y-119793768D01*
X149624869Y-119717698D01*
X149590789Y-119658372D01*
X149522462Y-119617397D01*
X149502709Y-119610090D01*
X149458994Y-119593434D01*
X149438905Y-119584999D01*
X149441673Y-119567676D01*
X149456695Y-119529845D01*
X149481504Y-119494560D01*
X149528390Y-119478474D01*
X149561973Y-119483272D01*
G36*
X149561973Y-119483272D02*
G01*
X149630093Y-119512751D01*
X149693926Y-119560418D01*
X149738072Y-119616159D01*
X149748278Y-119639513D01*
X149765342Y-119727939D01*
X149758584Y-119821821D01*
X149728620Y-119902487D01*
X149706106Y-119936034D01*
X149673848Y-119970007D01*
X149632814Y-119994239D01*
X149576952Y-120010321D01*
X149500209Y-120019841D01*
X149396535Y-120024388D01*
X149259876Y-120025551D01*
X149189255Y-120025323D01*
X149092752Y-120024180D01*
X149015737Y-120022239D01*
X148964741Y-120019685D01*
X148946291Y-120016701D01*
X148952393Y-119997282D01*
X148968965Y-119958086D01*
X148969502Y-119956909D01*
X148980157Y-119936555D01*
X148994778Y-119922866D01*
X149020387Y-119914519D01*
X149064006Y-119910194D01*
X149132657Y-119908568D01*
X149233362Y-119908320D01*
X149297247Y-119907820D01*
X149417309Y-119902484D01*
X149505251Y-119890265D01*
X149565685Y-119869872D01*
X149603224Y-119840015D01*
X149622479Y-119799402D01*
X149623821Y-119793768D01*
X149624869Y-119717698D01*
X149590789Y-119658372D01*
X149522462Y-119617397D01*
X149502709Y-119610090D01*
X149458994Y-119593434D01*
X149438905Y-119584999D01*
X149441673Y-119567676D01*
X149456695Y-119529845D01*
X149481504Y-119494560D01*
X149528390Y-119478474D01*
X149561973Y-119483272D01*
G37*
X149378141Y-124754203D02*
X149489629Y-124757167D01*
X149572639Y-124764671D01*
X149633861Y-124778510D01*
X149679985Y-124800475D01*
X149717702Y-124832359D01*
X149753702Y-124875953D01*
X149789971Y-124938656D01*
X149813648Y-125037437D01*
X149803376Y-125136692D01*
X149760491Y-125227949D01*
X149686331Y-125302736D01*
X149663116Y-125318237D01*
X149636804Y-125331094D01*
X149603640Y-125340213D01*
X149557179Y-125346422D01*
X149490978Y-125350553D01*
X149398592Y-125353436D01*
X149273575Y-125355899D01*
X148926782Y-125362017D01*
X148946322Y-125310623D01*
X148964273Y-125263566D01*
X148981549Y-125228335D01*
X149003818Y-125205337D01*
X149037895Y-125191975D01*
X149090597Y-125185648D01*
X149168737Y-125183757D01*
X149279132Y-125183705D01*
X149367125Y-125183437D01*
X149451558Y-125181841D01*
X149509226Y-125178032D01*
X149547072Y-125171140D01*
X149572036Y-125160295D01*
X149591060Y-125144628D01*
X149617907Y-125106112D01*
X149628026Y-125041411D01*
X149602454Y-124977401D01*
X149599180Y-124973176D01*
X149584053Y-124960009D01*
X149559792Y-124950295D01*
X149520410Y-124943223D01*
X149459919Y-124937976D01*
X149372331Y-124933741D01*
X149251658Y-124929705D01*
X148928545Y-124919935D01*
X149002995Y-124753859D01*
X149297998Y-124753859D01*
X149378141Y-124754203D01*
G36*
X149378141Y-124754203D02*
G01*
X149489629Y-124757167D01*
X149572639Y-124764671D01*
X149633861Y-124778510D01*
X149679985Y-124800475D01*
X149717702Y-124832359D01*
X149753702Y-124875953D01*
X149789971Y-124938656D01*
X149813648Y-125037437D01*
X149803376Y-125136692D01*
X149760491Y-125227949D01*
X149686331Y-125302736D01*
X149663116Y-125318237D01*
X149636804Y-125331094D01*
X149603640Y-125340213D01*
X149557179Y-125346422D01*
X149490978Y-125350553D01*
X149398592Y-125353436D01*
X149273575Y-125355899D01*
X148926782Y-125362017D01*
X148946322Y-125310623D01*
X148964273Y-125263566D01*
X148981549Y-125228335D01*
X149003818Y-125205337D01*
X149037895Y-125191975D01*
X149090597Y-125185648D01*
X149168737Y-125183757D01*
X149279132Y-125183705D01*
X149367125Y-125183437D01*
X149451558Y-125181841D01*
X149509226Y-125178032D01*
X149547072Y-125171140D01*
X149572036Y-125160295D01*
X149591060Y-125144628D01*
X149617907Y-125106112D01*
X149628026Y-125041411D01*
X149602454Y-124977401D01*
X149599180Y-124973176D01*
X149584053Y-124960009D01*
X149559792Y-124950295D01*
X149520410Y-124943223D01*
X149459919Y-124937976D01*
X149372331Y-124933741D01*
X149251658Y-124929705D01*
X148928545Y-124919935D01*
X149002995Y-124753859D01*
X149297998Y-124753859D01*
X149378141Y-124754203D01*
G37*
X149628932Y-122308176D02*
X149669710Y-122336298D01*
X149727639Y-122408203D01*
X149760390Y-122496958D01*
X149764848Y-122591862D01*
X149737893Y-122682212D01*
X149734479Y-122688380D01*
X149695368Y-122738767D01*
X149645085Y-122783818D01*
X149633721Y-122791675D01*
X149607200Y-122806696D01*
X149575724Y-122817427D01*
X149532469Y-122824806D01*
X149470611Y-122829772D01*
X149383327Y-122833262D01*
X149263791Y-122836213D01*
X149243582Y-122836631D01*
X149112561Y-122837974D01*
X149019764Y-122836081D01*
X148964553Y-122830925D01*
X148946291Y-122822478D01*
X148951759Y-122796914D01*
X148968327Y-122753486D01*
X148973172Y-122743260D01*
X148984140Y-122727287D01*
X149002170Y-122716274D01*
X149033664Y-122709070D01*
X149085024Y-122704528D01*
X149162650Y-122701500D01*
X149272945Y-122698836D01*
X149305185Y-122698105D01*
X149407010Y-122695285D01*
X149478272Y-122691624D01*
X149525728Y-122686014D01*
X149556135Y-122677349D01*
X149576250Y-122664522D01*
X149592831Y-122646425D01*
X149621899Y-122592845D01*
X149627496Y-122526932D01*
X149605253Y-122467955D01*
X149559201Y-122425523D01*
X149493368Y-122409243D01*
X149475473Y-122408790D01*
X149443078Y-122399898D01*
X149438135Y-122373645D01*
X149457427Y-122322239D01*
X149463614Y-122310333D01*
X149500002Y-122278155D01*
X149554106Y-122277518D01*
X149628932Y-122308176D01*
G36*
X149628932Y-122308176D02*
G01*
X149669710Y-122336298D01*
X149727639Y-122408203D01*
X149760390Y-122496958D01*
X149764848Y-122591862D01*
X149737893Y-122682212D01*
X149734479Y-122688380D01*
X149695368Y-122738767D01*
X149645085Y-122783818D01*
X149633721Y-122791675D01*
X149607200Y-122806696D01*
X149575724Y-122817427D01*
X149532469Y-122824806D01*
X149470611Y-122829772D01*
X149383327Y-122833262D01*
X149263791Y-122836213D01*
X149243582Y-122836631D01*
X149112561Y-122837974D01*
X149019764Y-122836081D01*
X148964553Y-122830925D01*
X148946291Y-122822478D01*
X148951759Y-122796914D01*
X148968327Y-122753486D01*
X148973172Y-122743260D01*
X148984140Y-122727287D01*
X149002170Y-122716274D01*
X149033664Y-122709070D01*
X149085024Y-122704528D01*
X149162650Y-122701500D01*
X149272945Y-122698836D01*
X149305185Y-122698105D01*
X149407010Y-122695285D01*
X149478272Y-122691624D01*
X149525728Y-122686014D01*
X149556135Y-122677349D01*
X149576250Y-122664522D01*
X149592831Y-122646425D01*
X149621899Y-122592845D01*
X149627496Y-122526932D01*
X149605253Y-122467955D01*
X149559201Y-122425523D01*
X149493368Y-122409243D01*
X149475473Y-122408790D01*
X149443078Y-122399898D01*
X149438135Y-122373645D01*
X149457427Y-122322239D01*
X149463614Y-122310333D01*
X149500002Y-122278155D01*
X149554106Y-122277518D01*
X149628932Y-122308176D01*
G37*
X149265702Y-123620658D02*
X149290318Y-123620704D01*
X149418641Y-123623290D01*
X149515676Y-123631233D01*
X149588003Y-123646475D01*
X149642205Y-123670956D01*
X149684862Y-123706618D01*
X149722555Y-123755402D01*
X149746150Y-123802981D01*
X149764388Y-123879052D01*
X149765424Y-123953876D01*
X149747682Y-124011397D01*
X149745231Y-124015722D01*
X149745494Y-124029058D01*
X149766021Y-124038171D01*
X149813080Y-124044748D01*
X149892940Y-124050474D01*
X150056824Y-124060243D01*
X150003254Y-124187243D01*
X149468605Y-124187243D01*
X149329966Y-124186980D01*
X149205255Y-124186278D01*
X149099503Y-124185203D01*
X149017738Y-124183820D01*
X148964991Y-124182194D01*
X148946291Y-124180390D01*
X148946354Y-124179684D01*
X148953148Y-124155707D01*
X148967740Y-124112005D01*
X148989190Y-124050474D01*
X149264443Y-124050474D01*
X149372594Y-124050083D01*
X149451034Y-124048266D01*
X149504413Y-124044087D01*
X149539804Y-124036606D01*
X149564281Y-124024887D01*
X149584916Y-124007991D01*
X149595890Y-123996472D01*
X149626285Y-123934184D01*
X149623594Y-123865531D01*
X149587654Y-123802618D01*
X149578735Y-123793459D01*
X149560216Y-123778791D01*
X149535734Y-123768753D01*
X149498667Y-123762471D01*
X149442393Y-123759068D01*
X149360289Y-123757669D01*
X149245731Y-123757397D01*
X149187630Y-123757267D01*
X149092067Y-123756419D01*
X149015534Y-123754914D01*
X148964715Y-123752905D01*
X148946291Y-123750543D01*
X148946354Y-123749838D01*
X148953148Y-123725861D01*
X148967740Y-123682159D01*
X148989190Y-123620628D01*
X149265702Y-123620658D01*
G36*
X149265702Y-123620658D02*
G01*
X149290318Y-123620704D01*
X149418641Y-123623290D01*
X149515676Y-123631233D01*
X149588003Y-123646475D01*
X149642205Y-123670956D01*
X149684862Y-123706618D01*
X149722555Y-123755402D01*
X149746150Y-123802981D01*
X149764388Y-123879052D01*
X149765424Y-123953876D01*
X149747682Y-124011397D01*
X149745231Y-124015722D01*
X149745494Y-124029058D01*
X149766021Y-124038171D01*
X149813080Y-124044748D01*
X149892940Y-124050474D01*
X150056824Y-124060243D01*
X150003254Y-124187243D01*
X149468605Y-124187243D01*
X149329966Y-124186980D01*
X149205255Y-124186278D01*
X149099503Y-124185203D01*
X149017738Y-124183820D01*
X148964991Y-124182194D01*
X148946291Y-124180390D01*
X148946354Y-124179684D01*
X148953148Y-124155707D01*
X148967740Y-124112005D01*
X148989190Y-124050474D01*
X149264443Y-124050474D01*
X149372594Y-124050083D01*
X149451034Y-124048266D01*
X149504413Y-124044087D01*
X149539804Y-124036606D01*
X149564281Y-124024887D01*
X149584916Y-124007991D01*
X149595890Y-123996472D01*
X149626285Y-123934184D01*
X149623594Y-123865531D01*
X149587654Y-123802618D01*
X149578735Y-123793459D01*
X149560216Y-123778791D01*
X149535734Y-123768753D01*
X149498667Y-123762471D01*
X149442393Y-123759068D01*
X149360289Y-123757669D01*
X149245731Y-123757397D01*
X149187630Y-123757267D01*
X149092067Y-123756419D01*
X149015534Y-123754914D01*
X148964715Y-123752905D01*
X148946291Y-123750543D01*
X148946354Y-123749838D01*
X148953148Y-123725861D01*
X148967740Y-123682159D01*
X148989190Y-123620628D01*
X149265702Y-123620658D01*
G37*
X149520203Y-120807571D02*
X149618868Y-120809073D01*
X149696992Y-120811409D01*
X149748398Y-120814391D01*
X149766906Y-120817829D01*
X149766856Y-120818550D01*
X149757647Y-120843523D01*
X149737353Y-120885719D01*
X149707799Y-120942869D01*
X149400314Y-120948248D01*
X149092829Y-120953628D01*
X149092829Y-121070859D01*
X149429868Y-121076205D01*
X149521486Y-121077899D01*
X149619411Y-121080325D01*
X149697154Y-121082954D01*
X149748418Y-121085566D01*
X149766906Y-121087943D01*
X149766841Y-121088626D01*
X149760040Y-121112316D01*
X149745456Y-121155866D01*
X149724006Y-121217397D01*
X149427956Y-121217696D01*
X149376528Y-121217996D01*
X149276594Y-121220074D01*
X149193135Y-121223790D01*
X149133683Y-121228750D01*
X149105773Y-121234560D01*
X149090846Y-121255344D01*
X149086235Y-121297760D01*
X149092829Y-121344397D01*
X149429868Y-121349743D01*
X149515514Y-121351656D01*
X149616888Y-121355623D01*
X149696405Y-121360811D01*
X149748324Y-121366819D01*
X149766906Y-121373247D01*
X149761026Y-121398318D01*
X149744231Y-121441170D01*
X149721557Y-121490935D01*
X149066527Y-121490935D01*
X149004697Y-121429105D01*
X148990832Y-121414982D01*
X148960014Y-121375856D01*
X148950032Y-121336398D01*
X148954627Y-121277682D01*
X148957598Y-121253776D01*
X148963884Y-121192121D01*
X148966388Y-121149012D01*
X148966005Y-121136225D01*
X148961860Y-121083766D01*
X148954627Y-121020342D01*
X148952142Y-121000050D01*
X148951165Y-120948930D01*
X148966598Y-120911527D01*
X149004697Y-120868919D01*
X149066527Y-120807089D01*
X149416717Y-120807089D01*
X149520203Y-120807571D01*
G36*
X149520203Y-120807571D02*
G01*
X149618868Y-120809073D01*
X149696992Y-120811409D01*
X149748398Y-120814391D01*
X149766906Y-120817829D01*
X149766856Y-120818550D01*
X149757647Y-120843523D01*
X149737353Y-120885719D01*
X149707799Y-120942869D01*
X149400314Y-120948248D01*
X149092829Y-120953628D01*
X149092829Y-121070859D01*
X149429868Y-121076205D01*
X149521486Y-121077899D01*
X149619411Y-121080325D01*
X149697154Y-121082954D01*
X149748418Y-121085566D01*
X149766906Y-121087943D01*
X149766841Y-121088626D01*
X149760040Y-121112316D01*
X149745456Y-121155866D01*
X149724006Y-121217397D01*
X149427956Y-121217696D01*
X149376528Y-121217996D01*
X149276594Y-121220074D01*
X149193135Y-121223790D01*
X149133683Y-121228750D01*
X149105773Y-121234560D01*
X149090846Y-121255344D01*
X149086235Y-121297760D01*
X149092829Y-121344397D01*
X149429868Y-121349743D01*
X149515514Y-121351656D01*
X149616888Y-121355623D01*
X149696405Y-121360811D01*
X149748324Y-121366819D01*
X149766906Y-121373247D01*
X149761026Y-121398318D01*
X149744231Y-121441170D01*
X149721557Y-121490935D01*
X149066527Y-121490935D01*
X149004697Y-121429105D01*
X148990832Y-121414982D01*
X148960014Y-121375856D01*
X148950032Y-121336398D01*
X148954627Y-121277682D01*
X148957598Y-121253776D01*
X148963884Y-121192121D01*
X148966388Y-121149012D01*
X148966005Y-121136225D01*
X148961860Y-121083766D01*
X148954627Y-121020342D01*
X148952142Y-121000050D01*
X148951165Y-120948930D01*
X148966598Y-120911527D01*
X149004697Y-120868919D01*
X149066527Y-120807089D01*
X149416717Y-120807089D01*
X149520203Y-120807571D01*
G37*
X149453008Y-126982019D02*
X149547527Y-126991582D01*
X149622333Y-127010263D01*
X149672155Y-127034271D01*
X149749651Y-127101856D01*
X149797804Y-127193434D01*
X149814357Y-127305533D01*
X149813461Y-127335471D01*
X149795131Y-127423635D01*
X149748956Y-127496053D01*
X149669412Y-127562512D01*
X149663512Y-127566467D01*
X149631772Y-127584360D01*
X149595897Y-127595998D01*
X149547154Y-127602691D01*
X149476811Y-127605746D01*
X149382878Y-127606426D01*
X149376137Y-127606474D01*
X149354955Y-127606455D01*
X149260476Y-127605396D01*
X149194646Y-127601756D01*
X149148666Y-127594212D01*
X149113739Y-127581442D01*
X149081065Y-127562123D01*
X149074285Y-127557370D01*
X149020829Y-127507079D01*
X148980513Y-127449777D01*
X148967431Y-127420352D01*
X148947806Y-127325262D01*
X149127799Y-127325262D01*
X149161214Y-127372012D01*
X149170007Y-127380144D01*
X149196319Y-127396074D01*
X149234540Y-127405479D01*
X149293711Y-127409952D01*
X149382878Y-127411089D01*
X149466396Y-127409142D01*
X149545965Y-127399425D01*
X149596252Y-127379367D01*
X149622547Y-127346560D01*
X149630137Y-127298600D01*
X149628628Y-127280336D01*
X149600953Y-127229168D01*
X149538888Y-127195355D01*
X149443023Y-127179116D01*
X149313946Y-127180669D01*
X149305640Y-127181294D01*
X149234417Y-127190397D01*
X149189251Y-127206608D01*
X149158308Y-127233980D01*
X149129323Y-127279873D01*
X149127799Y-127325262D01*
X148947806Y-127325262D01*
X148945610Y-127314619D01*
X148959724Y-127210054D01*
X149007955Y-127113688D01*
X149088481Y-127032555D01*
X149099269Y-127025705D01*
X149161907Y-127003417D01*
X149249125Y-126988399D01*
X149349850Y-126981112D01*
X149453008Y-126982019D01*
G36*
X149453008Y-126982019D02*
G01*
X149547527Y-126991582D01*
X149622333Y-127010263D01*
X149672155Y-127034271D01*
X149749651Y-127101856D01*
X149797804Y-127193434D01*
X149814357Y-127305533D01*
X149813461Y-127335471D01*
X149795131Y-127423635D01*
X149748956Y-127496053D01*
X149669412Y-127562512D01*
X149663512Y-127566467D01*
X149631772Y-127584360D01*
X149595897Y-127595998D01*
X149547154Y-127602691D01*
X149476811Y-127605746D01*
X149382878Y-127606426D01*
X149376137Y-127606474D01*
X149354955Y-127606455D01*
X149260476Y-127605396D01*
X149194646Y-127601756D01*
X149148666Y-127594212D01*
X149113739Y-127581442D01*
X149081065Y-127562123D01*
X149074285Y-127557370D01*
X149020829Y-127507079D01*
X148980513Y-127449777D01*
X148967431Y-127420352D01*
X148947806Y-127325262D01*
X149127799Y-127325262D01*
X149161214Y-127372012D01*
X149170007Y-127380144D01*
X149196319Y-127396074D01*
X149234540Y-127405479D01*
X149293711Y-127409952D01*
X149382878Y-127411089D01*
X149466396Y-127409142D01*
X149545965Y-127399425D01*
X149596252Y-127379367D01*
X149622547Y-127346560D01*
X149630137Y-127298600D01*
X149628628Y-127280336D01*
X149600953Y-127229168D01*
X149538888Y-127195355D01*
X149443023Y-127179116D01*
X149313946Y-127180669D01*
X149305640Y-127181294D01*
X149234417Y-127190397D01*
X149189251Y-127206608D01*
X149158308Y-127233980D01*
X149129323Y-127279873D01*
X149127799Y-127325262D01*
X148947806Y-127325262D01*
X148945610Y-127314619D01*
X148959724Y-127210054D01*
X149007955Y-127113688D01*
X149088481Y-127032555D01*
X149099269Y-127025705D01*
X149161907Y-127003417D01*
X149249125Y-126988399D01*
X149349850Y-126981112D01*
X149453008Y-126982019D01*
G37*
X149272508Y-118872666D02*
X149246696Y-118915314D01*
X149186132Y-118952384D01*
X149166740Y-118960123D01*
X149111825Y-119003394D01*
X149084181Y-119062296D01*
X149086667Y-119126431D01*
X149122137Y-119185397D01*
X149144255Y-119205662D01*
X149177624Y-119224040D01*
X149207943Y-119218291D01*
X149239147Y-119185207D01*
X149275173Y-119121581D01*
X149319957Y-119024205D01*
X149407615Y-118823935D01*
X149494453Y-118818621D01*
X149559397Y-118820967D01*
X149641470Y-118850506D01*
X149686699Y-118887792D01*
X149737222Y-118965096D01*
X149762744Y-119056798D01*
X149760724Y-119151594D01*
X149728620Y-119238179D01*
X149716293Y-119257240D01*
X149678148Y-119300960D01*
X149629893Y-119330860D01*
X149564350Y-119349288D01*
X149474340Y-119358590D01*
X149415112Y-119359819D01*
X149352684Y-119361114D01*
X149300611Y-119360733D01*
X149198013Y-119355961D01*
X149122934Y-119343470D01*
X149067312Y-119320441D01*
X149023085Y-119284052D01*
X148986539Y-119237071D01*
X149376137Y-119237071D01*
X149381622Y-119240481D01*
X149415112Y-119241849D01*
X149468944Y-119236971D01*
X149521587Y-119224684D01*
X149587909Y-119186361D01*
X149625280Y-119131040D01*
X149630339Y-119064960D01*
X149599721Y-118994360D01*
X149584412Y-118974794D01*
X149549764Y-118951103D01*
X149515522Y-118961008D01*
X149478964Y-119006076D01*
X149437368Y-119087877D01*
X149431342Y-119101412D01*
X149403307Y-119166138D01*
X149383588Y-119214567D01*
X149376137Y-119237071D01*
X148986539Y-119237071D01*
X148982191Y-119231482D01*
X148963594Y-119198034D01*
X148951069Y-119144418D01*
X148952057Y-119069100D01*
X148956025Y-119026992D01*
X148968140Y-118976199D01*
X148994475Y-118935600D01*
X149043546Y-118888369D01*
X149050714Y-118882058D01*
X149105871Y-118839597D01*
X149153910Y-118819338D01*
X149210876Y-118814166D01*
X149294589Y-118814166D01*
X149272508Y-118872666D01*
G36*
X149272508Y-118872666D02*
G01*
X149246696Y-118915314D01*
X149186132Y-118952384D01*
X149166740Y-118960123D01*
X149111825Y-119003394D01*
X149084181Y-119062296D01*
X149086667Y-119126431D01*
X149122137Y-119185397D01*
X149144255Y-119205662D01*
X149177624Y-119224040D01*
X149207943Y-119218291D01*
X149239147Y-119185207D01*
X149275173Y-119121581D01*
X149319957Y-119024205D01*
X149407615Y-118823935D01*
X149494453Y-118818621D01*
X149559397Y-118820967D01*
X149641470Y-118850506D01*
X149686699Y-118887792D01*
X149737222Y-118965096D01*
X149762744Y-119056798D01*
X149760724Y-119151594D01*
X149728620Y-119238179D01*
X149716293Y-119257240D01*
X149678148Y-119300960D01*
X149629893Y-119330860D01*
X149564350Y-119349288D01*
X149474340Y-119358590D01*
X149415112Y-119359819D01*
X149352684Y-119361114D01*
X149300611Y-119360733D01*
X149198013Y-119355961D01*
X149122934Y-119343470D01*
X149067312Y-119320441D01*
X149023085Y-119284052D01*
X148986539Y-119237071D01*
X149376137Y-119237071D01*
X149381622Y-119240481D01*
X149415112Y-119241849D01*
X149468944Y-119236971D01*
X149521587Y-119224684D01*
X149587909Y-119186361D01*
X149625280Y-119131040D01*
X149630339Y-119064960D01*
X149599721Y-118994360D01*
X149584412Y-118974794D01*
X149549764Y-118951103D01*
X149515522Y-118961008D01*
X149478964Y-119006076D01*
X149437368Y-119087877D01*
X149431342Y-119101412D01*
X149403307Y-119166138D01*
X149383588Y-119214567D01*
X149376137Y-119237071D01*
X148986539Y-119237071D01*
X148982191Y-119231482D01*
X148963594Y-119198034D01*
X148951069Y-119144418D01*
X148952057Y-119069100D01*
X148956025Y-119026992D01*
X148968140Y-118976199D01*
X148994475Y-118935600D01*
X149043546Y-118888369D01*
X149050714Y-118882058D01*
X149105871Y-118839597D01*
X149153910Y-118819338D01*
X149210876Y-118814166D01*
X149294589Y-118814166D01*
X149272508Y-118872666D01*
G37*
X150031496Y-121671666D02*
X150024215Y-121688456D01*
X150007773Y-121715179D01*
X149982873Y-121730476D01*
X149939328Y-121738883D01*
X149866954Y-121744935D01*
X149801971Y-121750464D01*
X149759310Y-121757770D01*
X149743390Y-121768238D01*
X149747660Y-121784012D01*
X149762663Y-121824210D01*
X149766382Y-121896048D01*
X149752488Y-121973330D01*
X149722555Y-122040008D01*
X149694849Y-122076691D01*
X149640791Y-122123792D01*
X149571483Y-122153958D01*
X149479295Y-122169998D01*
X149362074Y-122174511D01*
X149356598Y-122174721D01*
X149280408Y-122173159D01*
X149176553Y-122162130D01*
X149098727Y-122138134D01*
X149039300Y-122098363D01*
X148990642Y-122040008D01*
X148962514Y-121984420D01*
X148946861Y-121891071D01*
X148952716Y-121859183D01*
X149087765Y-121859183D01*
X149091170Y-121926945D01*
X149131018Y-121990054D01*
X149151662Y-122008846D01*
X149179031Y-122024574D01*
X149216868Y-122033359D01*
X149274705Y-122037179D01*
X149362074Y-122038012D01*
X149428741Y-122037601D01*
X149493815Y-122034754D01*
X149535809Y-122027576D01*
X149563997Y-122014209D01*
X149587654Y-121992792D01*
X149598307Y-121980210D01*
X149627003Y-121915019D01*
X149622485Y-121846720D01*
X149584916Y-121787418D01*
X149570020Y-121774653D01*
X149541971Y-121759084D01*
X149502802Y-121750082D01*
X149443202Y-121745937D01*
X149353860Y-121744935D01*
X149282744Y-121745397D01*
X149218419Y-121748319D01*
X149176894Y-121755541D01*
X149148993Y-121768881D01*
X149125543Y-121790156D01*
X149121035Y-121795141D01*
X149087765Y-121859183D01*
X148952716Y-121859183D01*
X148963976Y-121797850D01*
X149011672Y-121713592D01*
X149087766Y-121647138D01*
X149101798Y-121639113D01*
X149126381Y-121628516D01*
X149157751Y-121620655D01*
X149201291Y-121615127D01*
X149262382Y-121611526D01*
X149346405Y-121609448D01*
X149458740Y-121608487D01*
X149604771Y-121608239D01*
X150058097Y-121608166D01*
X150031496Y-121671666D01*
G36*
X150031496Y-121671666D02*
G01*
X150024215Y-121688456D01*
X150007773Y-121715179D01*
X149982873Y-121730476D01*
X149939328Y-121738883D01*
X149866954Y-121744935D01*
X149801971Y-121750464D01*
X149759310Y-121757770D01*
X149743390Y-121768238D01*
X149747660Y-121784012D01*
X149762663Y-121824210D01*
X149766382Y-121896048D01*
X149752488Y-121973330D01*
X149722555Y-122040008D01*
X149694849Y-122076691D01*
X149640791Y-122123792D01*
X149571483Y-122153958D01*
X149479295Y-122169998D01*
X149362074Y-122174511D01*
X149356598Y-122174721D01*
X149280408Y-122173159D01*
X149176553Y-122162130D01*
X149098727Y-122138134D01*
X149039300Y-122098363D01*
X148990642Y-122040008D01*
X148962514Y-121984420D01*
X148946861Y-121891071D01*
X148952716Y-121859183D01*
X149087765Y-121859183D01*
X149091170Y-121926945D01*
X149131018Y-121990054D01*
X149151662Y-122008846D01*
X149179031Y-122024574D01*
X149216868Y-122033359D01*
X149274705Y-122037179D01*
X149362074Y-122038012D01*
X149428741Y-122037601D01*
X149493815Y-122034754D01*
X149535809Y-122027576D01*
X149563997Y-122014209D01*
X149587654Y-121992792D01*
X149598307Y-121980210D01*
X149627003Y-121915019D01*
X149622485Y-121846720D01*
X149584916Y-121787418D01*
X149570020Y-121774653D01*
X149541971Y-121759084D01*
X149502802Y-121750082D01*
X149443202Y-121745937D01*
X149353860Y-121744935D01*
X149282744Y-121745397D01*
X149218419Y-121748319D01*
X149176894Y-121755541D01*
X149148993Y-121768881D01*
X149125543Y-121790156D01*
X149121035Y-121795141D01*
X149087765Y-121859183D01*
X148952716Y-121859183D01*
X148963976Y-121797850D01*
X149011672Y-121713592D01*
X149087766Y-121647138D01*
X149101798Y-121639113D01*
X149126381Y-121628516D01*
X149157751Y-121620655D01*
X149201291Y-121615127D01*
X149262382Y-121611526D01*
X149346405Y-121609448D01*
X149458740Y-121608487D01*
X149604771Y-121608239D01*
X150058097Y-121608166D01*
X150031496Y-121671666D01*
G37*
X149339845Y-125495902D02*
X149356598Y-125506868D01*
X149355580Y-125516610D01*
X149337051Y-125563197D01*
X149302979Y-125616002D01*
X149263538Y-125660923D01*
X149228905Y-125683855D01*
X149181927Y-125707693D01*
X149139198Y-125756550D01*
X149122137Y-125813283D01*
X149127070Y-125834078D01*
X149151903Y-125875124D01*
X149186375Y-125910877D01*
X149217649Y-125926166D01*
X149217765Y-125926162D01*
X149230810Y-125910406D01*
X149444934Y-125910406D01*
X149457508Y-125923730D01*
X149500592Y-125926166D01*
X149554213Y-125916044D01*
X149602941Y-125880951D01*
X149628204Y-125830143D01*
X149625654Y-125773501D01*
X149590940Y-125720904D01*
X149566953Y-125700230D01*
X149548697Y-125695320D01*
X149531283Y-125715231D01*
X149505188Y-125764841D01*
X149504450Y-125766296D01*
X149476577Y-125824826D01*
X149454341Y-125877188D01*
X149444934Y-125910406D01*
X149230810Y-125910406D01*
X149232127Y-125908815D01*
X149258035Y-125862567D01*
X149291850Y-125794387D01*
X149329931Y-125711243D01*
X149330133Y-125710786D01*
X149370351Y-125620458D01*
X149399327Y-125559912D01*
X149421586Y-125523208D01*
X149441653Y-125504406D01*
X149464051Y-125497566D01*
X149493304Y-125496749D01*
X149563406Y-125503942D01*
X149658648Y-125539504D01*
X149733493Y-125599034D01*
X149785315Y-125676066D01*
X149811487Y-125764135D01*
X149809384Y-125856774D01*
X149776379Y-125947518D01*
X149709845Y-126029899D01*
X149644005Y-126075542D01*
X149550024Y-126108328D01*
X149500592Y-126113659D01*
X149431524Y-126121107D01*
X149283417Y-126114894D01*
X149252039Y-126111386D01*
X149140355Y-126085247D01*
X149055418Y-126038014D01*
X148990319Y-125966182D01*
X148987632Y-125962122D01*
X148949426Y-125870807D01*
X148946026Y-125775464D01*
X148975121Y-125683594D01*
X149034400Y-125602699D01*
X149121550Y-125540282D01*
X149123651Y-125539234D01*
X149177771Y-125518493D01*
X149239279Y-125503300D01*
X149297021Y-125495241D01*
X149339845Y-125495902D01*
G36*
X149339845Y-125495902D02*
G01*
X149356598Y-125506868D01*
X149355580Y-125516610D01*
X149337051Y-125563197D01*
X149302979Y-125616002D01*
X149263538Y-125660923D01*
X149228905Y-125683855D01*
X149181927Y-125707693D01*
X149139198Y-125756550D01*
X149122137Y-125813283D01*
X149127070Y-125834078D01*
X149151903Y-125875124D01*
X149186375Y-125910877D01*
X149217649Y-125926166D01*
X149217765Y-125926162D01*
X149230810Y-125910406D01*
X149444934Y-125910406D01*
X149457508Y-125923730D01*
X149500592Y-125926166D01*
X149554213Y-125916044D01*
X149602941Y-125880951D01*
X149628204Y-125830143D01*
X149625654Y-125773501D01*
X149590940Y-125720904D01*
X149566953Y-125700230D01*
X149548697Y-125695320D01*
X149531283Y-125715231D01*
X149505188Y-125764841D01*
X149504450Y-125766296D01*
X149476577Y-125824826D01*
X149454341Y-125877188D01*
X149444934Y-125910406D01*
X149230810Y-125910406D01*
X149232127Y-125908815D01*
X149258035Y-125862567D01*
X149291850Y-125794387D01*
X149329931Y-125711243D01*
X149330133Y-125710786D01*
X149370351Y-125620458D01*
X149399327Y-125559912D01*
X149421586Y-125523208D01*
X149441653Y-125504406D01*
X149464051Y-125497566D01*
X149493304Y-125496749D01*
X149563406Y-125503942D01*
X149658648Y-125539504D01*
X149733493Y-125599034D01*
X149785315Y-125676066D01*
X149811487Y-125764135D01*
X149809384Y-125856774D01*
X149776379Y-125947518D01*
X149709845Y-126029899D01*
X149644005Y-126075542D01*
X149550024Y-126108328D01*
X149500592Y-126113659D01*
X149431524Y-126121107D01*
X149283417Y-126114894D01*
X149252039Y-126111386D01*
X149140355Y-126085247D01*
X149055418Y-126038014D01*
X148990319Y-125966182D01*
X148987632Y-125962122D01*
X148949426Y-125870807D01*
X148946026Y-125775464D01*
X148975121Y-125683594D01*
X149034400Y-125602699D01*
X149121550Y-125540282D01*
X149123651Y-125539234D01*
X149177771Y-125518493D01*
X149239279Y-125503300D01*
X149297021Y-125495241D01*
X149339845Y-125495902D01*
G37*
X149284762Y-122940243D02*
X149303132Y-122940734D01*
X149432068Y-122946345D01*
X149529246Y-122956258D01*
X149601135Y-122972495D01*
X149654208Y-122997079D01*
X149694933Y-123032035D01*
X149729781Y-123079384D01*
X149730327Y-123080260D01*
X149758757Y-123156819D01*
X149763560Y-123245364D01*
X149745832Y-123330778D01*
X149706671Y-123397942D01*
X149676158Y-123427489D01*
X149584950Y-123484268D01*
X149485512Y-123503397D01*
X149417100Y-123503397D01*
X149443542Y-123440511D01*
X149470223Y-123397020D01*
X149525614Y-123362746D01*
X149537036Y-123359227D01*
X149595222Y-123321348D01*
X149626653Y-123264256D01*
X149628002Y-123198703D01*
X149595944Y-123135437D01*
X149587677Y-123125992D01*
X149551749Y-123094407D01*
X149520425Y-123089191D01*
X149489669Y-123113085D01*
X149455443Y-123168830D01*
X149413710Y-123259166D01*
X149411067Y-123265276D01*
X149364305Y-123365561D01*
X149322879Y-123434055D01*
X149281518Y-123476219D01*
X149234949Y-123497513D01*
X149177900Y-123503397D01*
X149114652Y-123495686D01*
X149033696Y-123456750D01*
X148975538Y-123388252D01*
X148958077Y-123338708D01*
X148948523Y-123268789D01*
X148950564Y-123200895D01*
X148964978Y-123152413D01*
X148968567Y-123147263D01*
X148993644Y-123133587D01*
X149037842Y-123143077D01*
X149072533Y-123159566D01*
X149086976Y-123186007D01*
X149086257Y-123236154D01*
X149090400Y-123305773D01*
X149119006Y-123351263D01*
X149171956Y-123366628D01*
X149173478Y-123366614D01*
X149204215Y-123357303D01*
X149232417Y-123325631D01*
X149264924Y-123264051D01*
X149304062Y-123180306D01*
X149325354Y-123124838D01*
X149323981Y-123092817D01*
X149295857Y-123077854D01*
X149236890Y-123073562D01*
X149142992Y-123073551D01*
X149085029Y-123073072D01*
X149013448Y-123070876D01*
X148964454Y-123067306D01*
X148946291Y-123062811D01*
X148946414Y-123061610D01*
X148956258Y-123035639D01*
X148977032Y-122992625D01*
X149007773Y-122933179D01*
X149284762Y-122940243D01*
G36*
X149284762Y-122940243D02*
G01*
X149303132Y-122940734D01*
X149432068Y-122946345D01*
X149529246Y-122956258D01*
X149601135Y-122972495D01*
X149654208Y-122997079D01*
X149694933Y-123032035D01*
X149729781Y-123079384D01*
X149730327Y-123080260D01*
X149758757Y-123156819D01*
X149763560Y-123245364D01*
X149745832Y-123330778D01*
X149706671Y-123397942D01*
X149676158Y-123427489D01*
X149584950Y-123484268D01*
X149485512Y-123503397D01*
X149417100Y-123503397D01*
X149443542Y-123440511D01*
X149470223Y-123397020D01*
X149525614Y-123362746D01*
X149537036Y-123359227D01*
X149595222Y-123321348D01*
X149626653Y-123264256D01*
X149628002Y-123198703D01*
X149595944Y-123135437D01*
X149587677Y-123125992D01*
X149551749Y-123094407D01*
X149520425Y-123089191D01*
X149489669Y-123113085D01*
X149455443Y-123168830D01*
X149413710Y-123259166D01*
X149411067Y-123265276D01*
X149364305Y-123365561D01*
X149322879Y-123434055D01*
X149281518Y-123476219D01*
X149234949Y-123497513D01*
X149177900Y-123503397D01*
X149114652Y-123495686D01*
X149033696Y-123456750D01*
X148975538Y-123388252D01*
X148958077Y-123338708D01*
X148948523Y-123268789D01*
X148950564Y-123200895D01*
X148964978Y-123152413D01*
X148968567Y-123147263D01*
X148993644Y-123133587D01*
X149037842Y-123143077D01*
X149072533Y-123159566D01*
X149086976Y-123186007D01*
X149086257Y-123236154D01*
X149090400Y-123305773D01*
X149119006Y-123351263D01*
X149171956Y-123366628D01*
X149173478Y-123366614D01*
X149204215Y-123357303D01*
X149232417Y-123325631D01*
X149264924Y-123264051D01*
X149304062Y-123180306D01*
X149325354Y-123124838D01*
X149323981Y-123092817D01*
X149295857Y-123077854D01*
X149236890Y-123073562D01*
X149142992Y-123073551D01*
X149085029Y-123073072D01*
X149013448Y-123070876D01*
X148964454Y-123067306D01*
X148946291Y-123062811D01*
X148946414Y-123061610D01*
X148956258Y-123035639D01*
X148977032Y-122992625D01*
X149007773Y-122933179D01*
X149284762Y-122940243D01*
G37*
X149357120Y-120143100D02*
X149470359Y-120146109D01*
X149554368Y-120153774D01*
X149615540Y-120167882D01*
X149660265Y-120190219D01*
X149694936Y-120222573D01*
X149725943Y-120266730D01*
X149751532Y-120322987D01*
X149766906Y-120426860D01*
X149765149Y-120474256D01*
X149754513Y-120516127D01*
X149727998Y-120555111D01*
X149678640Y-120605285D01*
X149643781Y-120637552D01*
X149598526Y-120671164D01*
X149556109Y-120686323D01*
X149502292Y-120689859D01*
X149414210Y-120689859D01*
X149445273Y-120629790D01*
X149483124Y-120582187D01*
X149534110Y-120549581D01*
X149547972Y-120543981D01*
X149601702Y-120501312D01*
X149628643Y-120442027D01*
X149626021Y-120377381D01*
X149591060Y-120318628D01*
X149562666Y-120293770D01*
X149526342Y-120279290D01*
X149494014Y-120294790D01*
X149461495Y-120342987D01*
X149424599Y-120426594D01*
X149419503Y-120439282D01*
X149386153Y-120515398D01*
X149353267Y-120580716D01*
X149327291Y-120622273D01*
X149280893Y-120663896D01*
X149206849Y-120691567D01*
X149127390Y-120688630D01*
X149052192Y-120655891D01*
X148990929Y-120594161D01*
X148964850Y-120544178D01*
X148946590Y-120447623D01*
X148949053Y-120393967D01*
X148962373Y-120344296D01*
X148990321Y-120325239D01*
X149036350Y-120332365D01*
X149042436Y-120334438D01*
X149074711Y-120350876D01*
X149086927Y-120378246D01*
X149086110Y-120430388D01*
X149084999Y-120467204D01*
X149094532Y-120510281D01*
X149123034Y-120539795D01*
X149158125Y-120556606D01*
X149194885Y-120558481D01*
X149195099Y-120558394D01*
X149214962Y-120536599D01*
X149243868Y-120489952D01*
X149276174Y-120429598D01*
X149306237Y-120366680D01*
X149328414Y-120312343D01*
X149337060Y-120277730D01*
X149328593Y-120272580D01*
X149288751Y-120266098D01*
X149223689Y-120261659D01*
X149141675Y-120260012D01*
X149084907Y-120259629D01*
X149013412Y-120257825D01*
X148964450Y-120254878D01*
X148946291Y-120251163D01*
X148952393Y-120231744D01*
X148968965Y-120192547D01*
X148991640Y-120142782D01*
X149282551Y-120142782D01*
X149357120Y-120143100D01*
G36*
X149357120Y-120143100D02*
G01*
X149470359Y-120146109D01*
X149554368Y-120153774D01*
X149615540Y-120167882D01*
X149660265Y-120190219D01*
X149694936Y-120222573D01*
X149725943Y-120266730D01*
X149751532Y-120322987D01*
X149766906Y-120426860D01*
X149765149Y-120474256D01*
X149754513Y-120516127D01*
X149727998Y-120555111D01*
X149678640Y-120605285D01*
X149643781Y-120637552D01*
X149598526Y-120671164D01*
X149556109Y-120686323D01*
X149502292Y-120689859D01*
X149414210Y-120689859D01*
X149445273Y-120629790D01*
X149483124Y-120582187D01*
X149534110Y-120549581D01*
X149547972Y-120543981D01*
X149601702Y-120501312D01*
X149628643Y-120442027D01*
X149626021Y-120377381D01*
X149591060Y-120318628D01*
X149562666Y-120293770D01*
X149526342Y-120279290D01*
X149494014Y-120294790D01*
X149461495Y-120342987D01*
X149424599Y-120426594D01*
X149419503Y-120439282D01*
X149386153Y-120515398D01*
X149353267Y-120580716D01*
X149327291Y-120622273D01*
X149280893Y-120663896D01*
X149206849Y-120691567D01*
X149127390Y-120688630D01*
X149052192Y-120655891D01*
X148990929Y-120594161D01*
X148964850Y-120544178D01*
X148946590Y-120447623D01*
X148949053Y-120393967D01*
X148962373Y-120344296D01*
X148990321Y-120325239D01*
X149036350Y-120332365D01*
X149042436Y-120334438D01*
X149074711Y-120350876D01*
X149086927Y-120378246D01*
X149086110Y-120430388D01*
X149084999Y-120467204D01*
X149094532Y-120510281D01*
X149123034Y-120539795D01*
X149158125Y-120556606D01*
X149194885Y-120558481D01*
X149195099Y-120558394D01*
X149214962Y-120536599D01*
X149243868Y-120489952D01*
X149276174Y-120429598D01*
X149306237Y-120366680D01*
X149328414Y-120312343D01*
X149337060Y-120277730D01*
X149328593Y-120272580D01*
X149288751Y-120266098D01*
X149223689Y-120261659D01*
X149141675Y-120260012D01*
X149084907Y-120259629D01*
X149013412Y-120257825D01*
X148964450Y-120254878D01*
X148946291Y-120251163D01*
X148952393Y-120231744D01*
X148968965Y-120192547D01*
X148991640Y-120142782D01*
X149282551Y-120142782D01*
X149357120Y-120143100D01*
G37*
X149482524Y-126239507D02*
X149551962Y-126242810D01*
X149600115Y-126250148D01*
X149636194Y-126262975D01*
X149669412Y-126282743D01*
X149694799Y-126300889D01*
X149763333Y-126366781D01*
X149800555Y-126441434D01*
X149812338Y-126535224D01*
X149800593Y-126642560D01*
X149758465Y-126735351D01*
X149684162Y-126808741D01*
X149676296Y-126814274D01*
X149655392Y-126827177D01*
X149631505Y-126837062D01*
X149599478Y-126844413D01*
X149554155Y-126849714D01*
X149490381Y-126853447D01*
X149403000Y-126856098D01*
X149385018Y-126856416D01*
X149286855Y-126858148D01*
X149136791Y-126860083D01*
X149093258Y-126860620D01*
X148947716Y-126862339D01*
X148836349Y-126862685D01*
X148755256Y-126860597D01*
X148700538Y-126855018D01*
X148668299Y-126844887D01*
X148654638Y-126829146D01*
X148655657Y-126806737D01*
X148667457Y-126776600D01*
X148686140Y-126737675D01*
X148690127Y-126729358D01*
X148709641Y-126694722D01*
X148732858Y-126676634D01*
X148771568Y-126669712D01*
X148837563Y-126668576D01*
X148956060Y-126668525D01*
X148956060Y-126546461D01*
X148957123Y-126522178D01*
X149127432Y-126522178D01*
X149130643Y-126568430D01*
X149170095Y-126620670D01*
X149183578Y-126633448D01*
X149211223Y-126652269D01*
X149247180Y-126662882D01*
X149301696Y-126667572D01*
X149385018Y-126668628D01*
X149435462Y-126667714D01*
X149527203Y-126657797D01*
X149587308Y-126635162D01*
X149620160Y-126597558D01*
X149630137Y-126542736D01*
X149628010Y-126519637D01*
X149606913Y-126479670D01*
X149559899Y-126453246D01*
X149482885Y-126438650D01*
X149371789Y-126434166D01*
X149353929Y-126434200D01*
X149273312Y-126436055D01*
X149220613Y-126442013D01*
X149186392Y-126453826D01*
X149161214Y-126473243D01*
X149160011Y-126474453D01*
X149127432Y-126522178D01*
X148957123Y-126522178D01*
X148959348Y-126471375D01*
X148972683Y-126412335D01*
X148999637Y-126363306D01*
X149002272Y-126359650D01*
X149046774Y-126309901D01*
X149100537Y-126275279D01*
X149170906Y-126253443D01*
X149265230Y-126242057D01*
X149390854Y-126238782D01*
X149482524Y-126239507D01*
G36*
X149482524Y-126239507D02*
G01*
X149551962Y-126242810D01*
X149600115Y-126250148D01*
X149636194Y-126262975D01*
X149669412Y-126282743D01*
X149694799Y-126300889D01*
X149763333Y-126366781D01*
X149800555Y-126441434D01*
X149812338Y-126535224D01*
X149800593Y-126642560D01*
X149758465Y-126735351D01*
X149684162Y-126808741D01*
X149676296Y-126814274D01*
X149655392Y-126827177D01*
X149631505Y-126837062D01*
X149599478Y-126844413D01*
X149554155Y-126849714D01*
X149490381Y-126853447D01*
X149403000Y-126856098D01*
X149385018Y-126856416D01*
X149286855Y-126858148D01*
X149136791Y-126860083D01*
X149093258Y-126860620D01*
X148947716Y-126862339D01*
X148836349Y-126862685D01*
X148755256Y-126860597D01*
X148700538Y-126855018D01*
X148668299Y-126844887D01*
X148654638Y-126829146D01*
X148655657Y-126806737D01*
X148667457Y-126776600D01*
X148686140Y-126737675D01*
X148690127Y-126729358D01*
X148709641Y-126694722D01*
X148732858Y-126676634D01*
X148771568Y-126669712D01*
X148837563Y-126668576D01*
X148956060Y-126668525D01*
X148956060Y-126546461D01*
X148957123Y-126522178D01*
X149127432Y-126522178D01*
X149130643Y-126568430D01*
X149170095Y-126620670D01*
X149183578Y-126633448D01*
X149211223Y-126652269D01*
X149247180Y-126662882D01*
X149301696Y-126667572D01*
X149385018Y-126668628D01*
X149435462Y-126667714D01*
X149527203Y-126657797D01*
X149587308Y-126635162D01*
X149620160Y-126597558D01*
X149630137Y-126542736D01*
X149628010Y-126519637D01*
X149606913Y-126479670D01*
X149559899Y-126453246D01*
X149482885Y-126438650D01*
X149371789Y-126434166D01*
X149353929Y-126434200D01*
X149273312Y-126436055D01*
X149220613Y-126442013D01*
X149186392Y-126453826D01*
X149161214Y-126473243D01*
X149160011Y-126474453D01*
X149127432Y-126522178D01*
X148957123Y-126522178D01*
X148959348Y-126471375D01*
X148972683Y-126412335D01*
X148999637Y-126363306D01*
X149002272Y-126359650D01*
X149046774Y-126309901D01*
X149100537Y-126275279D01*
X149170906Y-126253443D01*
X149265230Y-126242057D01*
X149390854Y-126238782D01*
X149482524Y-126239507D01*
G37*
X153062880Y-120123266D02*
X153191013Y-120123699D01*
X153286640Y-120124979D01*
X153354649Y-120127488D01*
X153399927Y-120131606D01*
X153427363Y-120137715D01*
X153441842Y-120146198D01*
X153448253Y-120157435D01*
X153450851Y-120168314D01*
X153460038Y-120212667D01*
X153474069Y-120283426D01*
X153491574Y-120373394D01*
X153511186Y-120475376D01*
X153531535Y-120582177D01*
X153551253Y-120686601D01*
X153568971Y-120781452D01*
X153583322Y-120859534D01*
X153592936Y-120913652D01*
X153596444Y-120936611D01*
X153598563Y-120938162D01*
X153626054Y-120950645D01*
X153678654Y-120972247D01*
X153747868Y-120999443D01*
X153841123Y-121037186D01*
X153948901Y-121083648D01*
X154043888Y-121127198D01*
X154065209Y-121137178D01*
X154131974Y-121165182D01*
X154183470Y-121181961D01*
X154209965Y-121184174D01*
X154211842Y-121183033D01*
X154239495Y-121164904D01*
X154293211Y-121128964D01*
X154367757Y-121078738D01*
X154457898Y-121017750D01*
X154558403Y-120949525D01*
X154672590Y-120872650D01*
X154761290Y-120814983D01*
X154826339Y-120775746D01*
X154871765Y-120752670D01*
X154901597Y-120743486D01*
X154919865Y-120745924D01*
X154921235Y-120746744D01*
X154947855Y-120768797D01*
X154996363Y-120813756D01*
X155061952Y-120876993D01*
X155139813Y-120953879D01*
X155225138Y-121039785D01*
X155311726Y-121128899D01*
X155393113Y-121216192D01*
X155448025Y-121280338D01*
X155477870Y-121322999D01*
X155484056Y-121345841D01*
X155482666Y-121348825D01*
X155463933Y-121380256D01*
X155427327Y-121437317D01*
X155376363Y-121514663D01*
X155314556Y-121606946D01*
X155245421Y-121708822D01*
X155018640Y-122040913D01*
X155086707Y-122190886D01*
X155088679Y-122195243D01*
X155128569Y-122287320D01*
X155168242Y-122385003D01*
X155199386Y-122467859D01*
X155199515Y-122468225D01*
X155223604Y-122534005D01*
X155243950Y-122584643D01*
X155256159Y-122609204D01*
X155256602Y-122609602D01*
X155281604Y-122617939D01*
X155338462Y-122631661D01*
X155421046Y-122649443D01*
X155523229Y-122669961D01*
X155638882Y-122691891D01*
X155643027Y-122692656D01*
X155761041Y-122714549D01*
X155867909Y-122734601D01*
X155956808Y-122751512D01*
X156020915Y-122763987D01*
X156053406Y-122770726D01*
X156055207Y-122771157D01*
X156069116Y-122775593D01*
X156079571Y-122784583D01*
X156087064Y-122803057D01*
X156092088Y-122835948D01*
X156095138Y-122888188D01*
X156096705Y-122964708D01*
X156097284Y-123070442D01*
X156097368Y-123210320D01*
X156097367Y-123227895D01*
X156097253Y-123363691D01*
X156096588Y-123465896D01*
X156094878Y-123539442D01*
X156091631Y-123589262D01*
X156086354Y-123620287D01*
X156078553Y-123637449D01*
X156067735Y-123645681D01*
X156053406Y-123649914D01*
X156052892Y-123650036D01*
X156019209Y-123656992D01*
X155954143Y-123669640D01*
X155864518Y-123686680D01*
X155757156Y-123706816D01*
X155638882Y-123728749D01*
X155629204Y-123730538D01*
X155514410Y-123752403D01*
X155413580Y-123772750D01*
X155332843Y-123790254D01*
X155278326Y-123803591D01*
X155256159Y-123811436D01*
X155256124Y-123811478D01*
X155243860Y-123836204D01*
X155223484Y-123886951D01*
X155199386Y-123952782D01*
X155198077Y-123956489D01*
X155166269Y-124040651D01*
X155126375Y-124138550D01*
X155086707Y-124229755D01*
X155018640Y-124379727D01*
X155245421Y-124711819D01*
X155261372Y-124735209D01*
X155329170Y-124835400D01*
X155388852Y-124924800D01*
X155436904Y-124998065D01*
X155469810Y-125049847D01*
X155484056Y-125074800D01*
X155480790Y-125091897D01*
X155455489Y-125130715D01*
X155405385Y-125190705D01*
X155329071Y-125273530D01*
X155225138Y-125380855D01*
X155215678Y-125390459D01*
X155130915Y-125475622D01*
X155054123Y-125551269D01*
X154990113Y-125612769D01*
X154943699Y-125655493D01*
X154919691Y-125674809D01*
X154919575Y-125674872D01*
X154901297Y-125677326D01*
X154871649Y-125668276D01*
X154826574Y-125645439D01*
X154762016Y-125606533D01*
X154673920Y-125549274D01*
X154558230Y-125471379D01*
X154538703Y-125458105D01*
X154439782Y-125390972D01*
X154352212Y-125331730D01*
X154281229Y-125283908D01*
X154232069Y-125251035D01*
X154209965Y-125236638D01*
X154205283Y-125235552D01*
X154170350Y-125242364D01*
X154113307Y-125262770D01*
X154043888Y-125293443D01*
X153953101Y-125335128D01*
X153845374Y-125381672D01*
X153747868Y-125421197D01*
X153722630Y-125430996D01*
X153658190Y-125456660D01*
X153613297Y-125475513D01*
X153596444Y-125484030D01*
X153595185Y-125493431D01*
X153587901Y-125535683D01*
X153575321Y-125604841D01*
X153558814Y-125693707D01*
X153539748Y-125795088D01*
X153519491Y-125901787D01*
X153499413Y-126006608D01*
X153480881Y-126102356D01*
X153465265Y-126181836D01*
X153453933Y-126237850D01*
X153448253Y-126263205D01*
X153446652Y-126267408D01*
X153438015Y-126277654D01*
X153419627Y-126285277D01*
X153386600Y-126290658D01*
X153334047Y-126294179D01*
X153257081Y-126296221D01*
X153150814Y-126297167D01*
X153010359Y-126297397D01*
X152583215Y-126297397D01*
X152562969Y-126194820D01*
X152560542Y-126182412D01*
X152547972Y-126116519D01*
X152530890Y-126025404D01*
X152511231Y-125919424D01*
X152490928Y-125808935D01*
X152482761Y-125765425D01*
X152462893Y-125668202D01*
X152444106Y-125587178D01*
X152428201Y-125529797D01*
X152416981Y-125503507D01*
X152398649Y-125491593D01*
X152350144Y-125469903D01*
X152287368Y-125447715D01*
X152263860Y-125439905D01*
X152186694Y-125411155D01*
X152095366Y-125374072D01*
X152004967Y-125334695D01*
X151957750Y-125313635D01*
X151887223Y-125283631D01*
X151834405Y-125263012D01*
X151808148Y-125255346D01*
X151806166Y-125255772D01*
X151778309Y-125270313D01*
X151724550Y-125303103D01*
X151650097Y-125350813D01*
X151560163Y-125410118D01*
X151459956Y-125477689D01*
X151133644Y-125700033D01*
X150841044Y-125407921D01*
X150812889Y-125379669D01*
X150728611Y-125293281D01*
X150655932Y-125216076D01*
X150598948Y-125152578D01*
X150561753Y-125107310D01*
X150548444Y-125084794D01*
X150558570Y-125060343D01*
X150587639Y-125009139D01*
X150632164Y-124937067D01*
X150688649Y-124849780D01*
X150753598Y-124752932D01*
X150817746Y-124657806D01*
X150874233Y-124571989D01*
X150918876Y-124501972D01*
X150948205Y-124453196D01*
X150958752Y-124431103D01*
X150958656Y-124429808D01*
X150948258Y-124400459D01*
X150924048Y-124348413D01*
X150890811Y-124284028D01*
X150890447Y-124283352D01*
X150847619Y-124197841D01*
X150826695Y-124139246D01*
X150826637Y-124102891D01*
X150846406Y-124084095D01*
X150865865Y-124076139D01*
X150917980Y-124054667D01*
X150998096Y-124021593D01*
X151101953Y-123978676D01*
X151225293Y-123927676D01*
X151363859Y-123870353D01*
X151513390Y-123808466D01*
X151649424Y-123752372D01*
X151789010Y-123695297D01*
X151913745Y-123644799D01*
X152019388Y-123602574D01*
X152101695Y-123570315D01*
X152156425Y-123549717D01*
X152179334Y-123542474D01*
X152200342Y-123556306D01*
X152235418Y-123594732D01*
X152276173Y-123649127D01*
X152382793Y-123779715D01*
X152519035Y-123896580D01*
X152668942Y-123982100D01*
X152828089Y-124035751D01*
X152992048Y-124057004D01*
X153156393Y-124045334D01*
X153316699Y-124000214D01*
X153468540Y-123921117D01*
X153607488Y-123807517D01*
X153661600Y-123748285D01*
X153757278Y-123606374D01*
X153819655Y-123454526D01*
X153850216Y-123297181D01*
X153850445Y-123138776D01*
X153821828Y-122983749D01*
X153765850Y-122836540D01*
X153683996Y-122701586D01*
X153577751Y-122583325D01*
X153448601Y-122486197D01*
X153298029Y-122414638D01*
X153127521Y-122373089D01*
X153045338Y-122365463D01*
X152867285Y-122375954D01*
X152698356Y-122423202D01*
X152541538Y-122505809D01*
X152399815Y-122622379D01*
X152276173Y-122771513D01*
X152237078Y-122823881D01*
X152201617Y-122863152D01*
X152179368Y-122878166D01*
X152159972Y-122872179D01*
X152108001Y-122852752D01*
X152028058Y-122821514D01*
X151924387Y-122780159D01*
X151801228Y-122730381D01*
X151662826Y-122673873D01*
X151513423Y-122612329D01*
X151378040Y-122556328D01*
X151238208Y-122498504D01*
X151113188Y-122446820D01*
X151007238Y-122403038D01*
X150924619Y-122368917D01*
X150869588Y-122346218D01*
X150846406Y-122336700D01*
X150846132Y-122336589D01*
X150826557Y-122317548D01*
X150826781Y-122281014D01*
X150847850Y-122222274D01*
X150890811Y-122136612D01*
X150894429Y-122129869D01*
X150926973Y-122066258D01*
X150950010Y-122016027D01*
X150958752Y-121989538D01*
X150948421Y-121967826D01*
X150919272Y-121919304D01*
X150874773Y-121849483D01*
X150818392Y-121763804D01*
X150753598Y-121667708D01*
X150690076Y-121573026D01*
X150633355Y-121485452D01*
X150588513Y-121412962D01*
X150559044Y-121361209D01*
X150548444Y-121335846D01*
X150549790Y-121331526D01*
X150571004Y-121301412D01*
X150614823Y-121249960D01*
X150677151Y-121181695D01*
X150753890Y-121101140D01*
X150840944Y-121012820D01*
X151133443Y-120720808D01*
X151802535Y-121175680D01*
X151952144Y-121106528D01*
X151952587Y-121106323D01*
X152047959Y-121064797D01*
X152154164Y-121022364D01*
X152248291Y-120988178D01*
X152263472Y-120983004D01*
X152333951Y-120956921D01*
X152388718Y-120933401D01*
X152416981Y-120916997D01*
X152420972Y-120910316D01*
X152434363Y-120870212D01*
X152451687Y-120802115D01*
X152471143Y-120713465D01*
X152490928Y-120611705D01*
X152496509Y-120581224D01*
X152516827Y-120470948D01*
X152535965Y-120368051D01*
X152551990Y-120282889D01*
X152562969Y-120225820D01*
X152583215Y-120123243D01*
X153010359Y-120123243D01*
X153062880Y-120123266D01*
G36*
X153062880Y-120123266D02*
G01*
X153191013Y-120123699D01*
X153286640Y-120124979D01*
X153354649Y-120127488D01*
X153399927Y-120131606D01*
X153427363Y-120137715D01*
X153441842Y-120146198D01*
X153448253Y-120157435D01*
X153450851Y-120168314D01*
X153460038Y-120212667D01*
X153474069Y-120283426D01*
X153491574Y-120373394D01*
X153511186Y-120475376D01*
X153531535Y-120582177D01*
X153551253Y-120686601D01*
X153568971Y-120781452D01*
X153583322Y-120859534D01*
X153592936Y-120913652D01*
X153596444Y-120936611D01*
X153598563Y-120938162D01*
X153626054Y-120950645D01*
X153678654Y-120972247D01*
X153747868Y-120999443D01*
X153841123Y-121037186D01*
X153948901Y-121083648D01*
X154043888Y-121127198D01*
X154065209Y-121137178D01*
X154131974Y-121165182D01*
X154183470Y-121181961D01*
X154209965Y-121184174D01*
X154211842Y-121183033D01*
X154239495Y-121164904D01*
X154293211Y-121128964D01*
X154367757Y-121078738D01*
X154457898Y-121017750D01*
X154558403Y-120949525D01*
X154672590Y-120872650D01*
X154761290Y-120814983D01*
X154826339Y-120775746D01*
X154871765Y-120752670D01*
X154901597Y-120743486D01*
X154919865Y-120745924D01*
X154921235Y-120746744D01*
X154947855Y-120768797D01*
X154996363Y-120813756D01*
X155061952Y-120876993D01*
X155139813Y-120953879D01*
X155225138Y-121039785D01*
X155311726Y-121128899D01*
X155393113Y-121216192D01*
X155448025Y-121280338D01*
X155477870Y-121322999D01*
X155484056Y-121345841D01*
X155482666Y-121348825D01*
X155463933Y-121380256D01*
X155427327Y-121437317D01*
X155376363Y-121514663D01*
X155314556Y-121606946D01*
X155245421Y-121708822D01*
X155018640Y-122040913D01*
X155086707Y-122190886D01*
X155088679Y-122195243D01*
X155128569Y-122287320D01*
X155168242Y-122385003D01*
X155199386Y-122467859D01*
X155199515Y-122468225D01*
X155223604Y-122534005D01*
X155243950Y-122584643D01*
X155256159Y-122609204D01*
X155256602Y-122609602D01*
X155281604Y-122617939D01*
X155338462Y-122631661D01*
X155421046Y-122649443D01*
X155523229Y-122669961D01*
X155638882Y-122691891D01*
X155643027Y-122692656D01*
X155761041Y-122714549D01*
X155867909Y-122734601D01*
X155956808Y-122751512D01*
X156020915Y-122763987D01*
X156053406Y-122770726D01*
X156055207Y-122771157D01*
X156069116Y-122775593D01*
X156079571Y-122784583D01*
X156087064Y-122803057D01*
X156092088Y-122835948D01*
X156095138Y-122888188D01*
X156096705Y-122964708D01*
X156097284Y-123070442D01*
X156097368Y-123210320D01*
X156097367Y-123227895D01*
X156097253Y-123363691D01*
X156096588Y-123465896D01*
X156094878Y-123539442D01*
X156091631Y-123589262D01*
X156086354Y-123620287D01*
X156078553Y-123637449D01*
X156067735Y-123645681D01*
X156053406Y-123649914D01*
X156052892Y-123650036D01*
X156019209Y-123656992D01*
X155954143Y-123669640D01*
X155864518Y-123686680D01*
X155757156Y-123706816D01*
X155638882Y-123728749D01*
X155629204Y-123730538D01*
X155514410Y-123752403D01*
X155413580Y-123772750D01*
X155332843Y-123790254D01*
X155278326Y-123803591D01*
X155256159Y-123811436D01*
X155256124Y-123811478D01*
X155243860Y-123836204D01*
X155223484Y-123886951D01*
X155199386Y-123952782D01*
X155198077Y-123956489D01*
X155166269Y-124040651D01*
X155126375Y-124138550D01*
X155086707Y-124229755D01*
X155018640Y-124379727D01*
X155245421Y-124711819D01*
X155261372Y-124735209D01*
X155329170Y-124835400D01*
X155388852Y-124924800D01*
X155436904Y-124998065D01*
X155469810Y-125049847D01*
X155484056Y-125074800D01*
X155480790Y-125091897D01*
X155455489Y-125130715D01*
X155405385Y-125190705D01*
X155329071Y-125273530D01*
X155225138Y-125380855D01*
X155215678Y-125390459D01*
X155130915Y-125475622D01*
X155054123Y-125551269D01*
X154990113Y-125612769D01*
X154943699Y-125655493D01*
X154919691Y-125674809D01*
X154919575Y-125674872D01*
X154901297Y-125677326D01*
X154871649Y-125668276D01*
X154826574Y-125645439D01*
X154762016Y-125606533D01*
X154673920Y-125549274D01*
X154558230Y-125471379D01*
X154538703Y-125458105D01*
X154439782Y-125390972D01*
X154352212Y-125331730D01*
X154281229Y-125283908D01*
X154232069Y-125251035D01*
X154209965Y-125236638D01*
X154205283Y-125235552D01*
X154170350Y-125242364D01*
X154113307Y-125262770D01*
X154043888Y-125293443D01*
X153953101Y-125335128D01*
X153845374Y-125381672D01*
X153747868Y-125421197D01*
X153722630Y-125430996D01*
X153658190Y-125456660D01*
X153613297Y-125475513D01*
X153596444Y-125484030D01*
X153595185Y-125493431D01*
X153587901Y-125535683D01*
X153575321Y-125604841D01*
X153558814Y-125693707D01*
X153539748Y-125795088D01*
X153519491Y-125901787D01*
X153499413Y-126006608D01*
X153480881Y-126102356D01*
X153465265Y-126181836D01*
X153453933Y-126237850D01*
X153448253Y-126263205D01*
X153446652Y-126267408D01*
X153438015Y-126277654D01*
X153419627Y-126285277D01*
X153386600Y-126290658D01*
X153334047Y-126294179D01*
X153257081Y-126296221D01*
X153150814Y-126297167D01*
X153010359Y-126297397D01*
X152583215Y-126297397D01*
X152562969Y-126194820D01*
X152560542Y-126182412D01*
X152547972Y-126116519D01*
X152530890Y-126025404D01*
X152511231Y-125919424D01*
X152490928Y-125808935D01*
X152482761Y-125765425D01*
X152462893Y-125668202D01*
X152444106Y-125587178D01*
X152428201Y-125529797D01*
X152416981Y-125503507D01*
X152398649Y-125491593D01*
X152350144Y-125469903D01*
X152287368Y-125447715D01*
X152263860Y-125439905D01*
X152186694Y-125411155D01*
X152095366Y-125374072D01*
X152004967Y-125334695D01*
X151957750Y-125313635D01*
X151887223Y-125283631D01*
X151834405Y-125263012D01*
X151808148Y-125255346D01*
X151806166Y-125255772D01*
X151778309Y-125270313D01*
X151724550Y-125303103D01*
X151650097Y-125350813D01*
X151560163Y-125410118D01*
X151459956Y-125477689D01*
X151133644Y-125700033D01*
X150841044Y-125407921D01*
X150812889Y-125379669D01*
X150728611Y-125293281D01*
X150655932Y-125216076D01*
X150598948Y-125152578D01*
X150561753Y-125107310D01*
X150548444Y-125084794D01*
X150558570Y-125060343D01*
X150587639Y-125009139D01*
X150632164Y-124937067D01*
X150688649Y-124849780D01*
X150753598Y-124752932D01*
X150817746Y-124657806D01*
X150874233Y-124571989D01*
X150918876Y-124501972D01*
X150948205Y-124453196D01*
X150958752Y-124431103D01*
X150958656Y-124429808D01*
X150948258Y-124400459D01*
X150924048Y-124348413D01*
X150890811Y-124284028D01*
X150890447Y-124283352D01*
X150847619Y-124197841D01*
X150826695Y-124139246D01*
X150826637Y-124102891D01*
X150846406Y-124084095D01*
X150865865Y-124076139D01*
X150917980Y-124054667D01*
X150998096Y-124021593D01*
X151101953Y-123978676D01*
X151225293Y-123927676D01*
X151363859Y-123870353D01*
X151513390Y-123808466D01*
X151649424Y-123752372D01*
X151789010Y-123695297D01*
X151913745Y-123644799D01*
X152019388Y-123602574D01*
X152101695Y-123570315D01*
X152156425Y-123549717D01*
X152179334Y-123542474D01*
X152200342Y-123556306D01*
X152235418Y-123594732D01*
X152276173Y-123649127D01*
X152382793Y-123779715D01*
X152519035Y-123896580D01*
X152668942Y-123982100D01*
X152828089Y-124035751D01*
X152992048Y-124057004D01*
X153156393Y-124045334D01*
X153316699Y-124000214D01*
X153468540Y-123921117D01*
X153607488Y-123807517D01*
X153661600Y-123748285D01*
X153757278Y-123606374D01*
X153819655Y-123454526D01*
X153850216Y-123297181D01*
X153850445Y-123138776D01*
X153821828Y-122983749D01*
X153765850Y-122836540D01*
X153683996Y-122701586D01*
X153577751Y-122583325D01*
X153448601Y-122486197D01*
X153298029Y-122414638D01*
X153127521Y-122373089D01*
X153045338Y-122365463D01*
X152867285Y-122375954D01*
X152698356Y-122423202D01*
X152541538Y-122505809D01*
X152399815Y-122622379D01*
X152276173Y-122771513D01*
X152237078Y-122823881D01*
X152201617Y-122863152D01*
X152179368Y-122878166D01*
X152159972Y-122872179D01*
X152108001Y-122852752D01*
X152028058Y-122821514D01*
X151924387Y-122780159D01*
X151801228Y-122730381D01*
X151662826Y-122673873D01*
X151513423Y-122612329D01*
X151378040Y-122556328D01*
X151238208Y-122498504D01*
X151113188Y-122446820D01*
X151007238Y-122403038D01*
X150924619Y-122368917D01*
X150869588Y-122346218D01*
X150846406Y-122336700D01*
X150846132Y-122336589D01*
X150826557Y-122317548D01*
X150826781Y-122281014D01*
X150847850Y-122222274D01*
X150890811Y-122136612D01*
X150894429Y-122129869D01*
X150926973Y-122066258D01*
X150950010Y-122016027D01*
X150958752Y-121989538D01*
X150948421Y-121967826D01*
X150919272Y-121919304D01*
X150874773Y-121849483D01*
X150818392Y-121763804D01*
X150753598Y-121667708D01*
X150690076Y-121573026D01*
X150633355Y-121485452D01*
X150588513Y-121412962D01*
X150559044Y-121361209D01*
X150548444Y-121335846D01*
X150549790Y-121331526D01*
X150571004Y-121301412D01*
X150614823Y-121249960D01*
X150677151Y-121181695D01*
X150753890Y-121101140D01*
X150840944Y-121012820D01*
X151133443Y-120720808D01*
X151802535Y-121175680D01*
X151952144Y-121106528D01*
X151952587Y-121106323D01*
X152047959Y-121064797D01*
X152154164Y-121022364D01*
X152248291Y-120988178D01*
X152263472Y-120983004D01*
X152333951Y-120956921D01*
X152388718Y-120933401D01*
X152416981Y-120916997D01*
X152420972Y-120910316D01*
X152434363Y-120870212D01*
X152451687Y-120802115D01*
X152471143Y-120713465D01*
X152490928Y-120611705D01*
X152496509Y-120581224D01*
X152516827Y-120470948D01*
X152535965Y-120368051D01*
X152551990Y-120282889D01*
X152562969Y-120225820D01*
X152583215Y-120123243D01*
X153010359Y-120123243D01*
X153062880Y-120123266D01*
G37*
%TD*%
%LPC*%
D13*
%TO.C,U1*%
X153510000Y-151790000D03*
D14*
X153510000Y-149250000D03*
X153510000Y-146710000D03*
X153510000Y-144170000D03*
X153510000Y-141630000D03*
X153510000Y-139090000D03*
X153510000Y-136550000D03*
X145890000Y-136550000D03*
X145890000Y-139090000D03*
X145890000Y-141630000D03*
X145890000Y-144170000D03*
X145890000Y-146710000D03*
X145890000Y-149250000D03*
X145890000Y-151790000D03*
%TD*%
D15*
%TO.C,J3*%
X160657540Y-147421600D03*
%TD*%
D16*
%TO.C,J2*%
X160990000Y-57140000D03*
X160990000Y-61100000D03*
X160990000Y-65060000D03*
X160990000Y-69020000D03*
X160990000Y-72980000D03*
X160990000Y-76940000D03*
X160990000Y-80900000D03*
X160990000Y-84860000D03*
X160990000Y-88820000D03*
X160990000Y-92780000D03*
X160990000Y-96740000D03*
X160990000Y-100700000D03*
X160990000Y-104660000D03*
X160990000Y-108620000D03*
X160990000Y-112580000D03*
X160990000Y-116540000D03*
X160990000Y-120500000D03*
X160990000Y-124460000D03*
X160990000Y-128420000D03*
X160990000Y-132380000D03*
X160990000Y-136340000D03*
X160990000Y-140300000D03*
%TD*%
D15*
%TO.C,J4*%
X147400000Y-116540000D03*
%TD*%
%TO.C,J1*%
X151650000Y-54450000D03*
D17*
X151650000Y-56990000D03*
X151650000Y-59530000D03*
X151650000Y-62070000D03*
X151650000Y-64610000D03*
X151650000Y-67150000D03*
X151650000Y-69690000D03*
X151650000Y-72230000D03*
X151650000Y-74770000D03*
X151650000Y-77310000D03*
X151650000Y-79850000D03*
X151650000Y-82390000D03*
X151650000Y-84930000D03*
X151650000Y-87470000D03*
X151650000Y-90010000D03*
X151650000Y-92550000D03*
X151650000Y-95090000D03*
X151650000Y-97630000D03*
X151650000Y-100170000D03*
X151650000Y-102710000D03*
X151650000Y-105250000D03*
X151650000Y-107790000D03*
X149110000Y-54450000D03*
X149110000Y-56990000D03*
X149110000Y-59530000D03*
X149110000Y-62070000D03*
X149110000Y-64610000D03*
X149110000Y-67150000D03*
X149110000Y-69690000D03*
X149110000Y-72230000D03*
X149110000Y-74770000D03*
X149110000Y-77310000D03*
X149110000Y-79850000D03*
X149110000Y-82390000D03*
X149110000Y-84930000D03*
X149110000Y-87470000D03*
X149110000Y-90010000D03*
X149110000Y-92550000D03*
X149110000Y-95090000D03*
X149110000Y-97630000D03*
X149110000Y-100170000D03*
X149110000Y-102710000D03*
X149110000Y-105250000D03*
X149110000Y-107790000D03*
%TD*%
%LPD*%
M02*
