%TF.GenerationSoftware,KiCad,Pcbnew,7.0.11*%
%TF.CreationDate,2025-08-02T11:26:45+02:00*%
%TF.ProjectId,pal-2-kim-adapter,70616c2d-322d-46b6-996d-2d6164617074,rev?*%
%TF.SameCoordinates,Original*%
%TF.FileFunction,Copper,L1,Top*%
%TF.FilePolarity,Positive*%
%FSLAX46Y46*%
G04 Gerber Fmt 4.6, Leading zero omitted, Abs format (unit mm)*
G04 Created by KiCad (PCBNEW 7.0.11) date 2025-08-02 11:26:45*
%MOMM*%
%LPD*%
G01*
G04 APERTURE LIST*
G04 Aperture macros list*
%AMFreePoly0*
4,1,22,-1.270000,3.180000,1.270000,3.180000,1.270000,-1.910000,1.254364,-2.108672,1.198732,-2.329454,1.104571,-2.536755,0.974909,-2.723912,0.813912,-2.884909,0.626755,-3.014571,0.419454,-3.108732,0.198672,-3.164364,0.000000,-3.180000,-0.198672,-3.164364,-0.419454,-3.108732,-0.626755,-3.014571,-0.813912,-2.884909,-0.974909,-2.723912,-1.104571,-2.536755,-1.198732,-2.329454,-1.254364,-2.108672,
-1.270000,-1.910000,-1.270000,3.180000,-1.270000,3.180000,$1*%
G04 Aperture macros list end*
%TA.AperFunction,ComponentPad*%
%ADD10R,1.700000X1.700000*%
%TD*%
%TA.AperFunction,ComponentPad*%
%ADD11O,1.700000X1.700000*%
%TD*%
%TA.AperFunction,ConnectorPad*%
%ADD12FreePoly0,270.000000*%
%TD*%
%TA.AperFunction,Conductor*%
%ADD13C,0.160000*%
%TD*%
%TA.AperFunction,Conductor*%
%ADD14C,1.600000*%
%TD*%
G04 APERTURE END LIST*
D10*
%TO.P,J1,1,SYNC*%
%TO.N,Net-(J1-SYNC)*%
X151650000Y-54450000D03*
D11*
%TO.P,J1,2,~{RDY}*%
%TO.N,Net-(J1-~{RDY})*%
X151650000Y-56990000D03*
%TO.P,J1,3,\u00D81*%
%TO.N,Net-(J1-\u00D81)*%
X151650000Y-59530000D03*
%TO.P,J1,4,~{IRQ}*%
%TO.N,Net-(J1-~{IRQ})*%
X151650000Y-62070000D03*
%TO.P,J1,5,R0*%
%TO.N,Net-(J1-R0)*%
X151650000Y-64610000D03*
%TO.P,J1,6,~{NMI}*%
%TO.N,Net-(J1-~{NMI})*%
X151650000Y-67150000D03*
%TO.P,J1,7,~{RES}*%
%TO.N,Net-(J1-~{RES})*%
X151650000Y-69690000D03*
%TO.P,J1,8,D7*%
%TO.N,Net-(J1-D7)*%
X151650000Y-72230000D03*
%TO.P,J1,9,D6*%
%TO.N,Net-(J1-D6)*%
X151650000Y-74770000D03*
%TO.P,J1,10,D5*%
%TO.N,Net-(J1-D5)*%
X151650000Y-77310000D03*
%TO.P,J1,11,D4*%
%TO.N,Net-(J1-D4)*%
X151650000Y-79850000D03*
%TO.P,J1,12,D3*%
%TO.N,Net-(J1-D3)*%
X151650000Y-82390000D03*
%TO.P,J1,13,D2*%
%TO.N,Net-(J1-D2)*%
X151650000Y-84930000D03*
%TO.P,J1,14,D1*%
%TO.N,Net-(J1-D1)*%
X151650000Y-87470000D03*
%TO.P,J1,15,D0*%
%TO.N,Net-(J1-D0)*%
X151650000Y-90010000D03*
%TO.P,J1,16,K6*%
%TO.N,Net-(J1-K6)*%
X151650000Y-92550000D03*
%TO.P,J1,17,SST*%
%TO.N,Net-(J1-SST)*%
X151650000Y-95090000D03*
%TO.P,J1,18,N.C.*%
%TO.N,Net-(J1-N.C.-Pad18)*%
X151650000Y-97630000D03*
%TO.P,J1,19,N.C.*%
%TO.N,Net-(J1-N.C.-Pad19)*%
X151650000Y-100170000D03*
%TO.P,J1,20,N.C.*%
%TO.N,Net-(J1-N.C.-Pad20)*%
X151650000Y-102710000D03*
%TO.P,J1,21,+5V*%
%TO.N,Net-(J1-+5V)*%
X151650000Y-105250000D03*
%TO.P,J1,22,GND*%
%TO.N,Net-(J1-GND)*%
X151650000Y-107790000D03*
%TO.P,J1,A,A0*%
%TO.N,Net-(J1-A0)*%
X149110000Y-54450000D03*
%TO.P,J1,B,A1*%
%TO.N,Net-(J1-A1)*%
X149110000Y-56990000D03*
%TO.P,J1,C,A2*%
%TO.N,Net-(J1-A2)*%
X149110000Y-59530000D03*
%TO.P,J1,D,A3*%
%TO.N,Net-(J1-A3)*%
X149110000Y-62070000D03*
%TO.P,J1,E,A4*%
%TO.N,Net-(J1-A4)*%
X149110000Y-64610000D03*
%TO.P,J1,F,A5*%
%TO.N,Net-(J1-A5)*%
X149110000Y-67150000D03*
%TO.P,J1,H,A6*%
%TO.N,Net-(J1-A6)*%
X149110000Y-69690000D03*
%TO.P,J1,J,A7*%
%TO.N,Net-(J1-A7)*%
X149110000Y-72230000D03*
%TO.P,J1,K,A8*%
%TO.N,Net-(J1-A8)*%
X149110000Y-74770000D03*
%TO.P,J1,L,A9*%
%TO.N,Net-(J1-A9)*%
X149110000Y-77310000D03*
%TO.P,J1,M,A10*%
%TO.N,Net-(J1-A10)*%
X149110000Y-79850000D03*
%TO.P,J1,N,A11*%
%TO.N,Net-(J1-A11)*%
X149110000Y-82390000D03*
%TO.P,J1,P,A12*%
%TO.N,Net-(J1-A12)*%
X149110000Y-84930000D03*
%TO.P,J1,R,A13*%
%TO.N,Net-(J1-A13)*%
X149110000Y-87470000D03*
%TO.P,J1,S,A14*%
%TO.N,Net-(J1-A14)*%
X149110000Y-90010000D03*
%TO.P,J1,T,A15*%
%TO.N,Net-(J1-A15)*%
X149110000Y-92550000D03*
%TO.P,J1,U,\u00D82*%
%TO.N,Net-(J1-\u00D82)*%
X149110000Y-95090000D03*
%TO.P,J1,V,R/~{W}*%
%TO.N,Net-(J1-R{slash}~{W})*%
X149110000Y-97630000D03*
%TO.P,J1,W,~{R}/W*%
%TO.N,Net-(J1-~{R}{slash}W)*%
X149110000Y-100170000D03*
%TO.P,J1,X,PLL*%
%TO.N,Net-(J1-PLL)*%
X149110000Y-102710000D03*
%TO.P,J1,Y,~{\u00D82}*%
%TO.N,Net-(J1-~{\u00D82})*%
X149110000Y-105250000D03*
%TO.P,J1,Z,RAMRW*%
%TO.N,Net-(J1-RAMRW)*%
X149110000Y-107790000D03*
%TD*%
D10*
%TO.P,J3,1,Pin_1*%
%TO.N,Net-(J1-~{RES})*%
X150520000Y-147435000D03*
%TD*%
D12*
%TO.P,J2,1,SYNC*%
%TO.N,Net-(J1-SYNC)*%
X160990000Y-57140000D03*
%TO.P,J2,2,~{RDY}*%
%TO.N,Net-(J1-~{RDY})*%
X160990000Y-61100000D03*
%TO.P,J2,3,\u00D81*%
%TO.N,Net-(J1-\u00D81)*%
X160990000Y-65060000D03*
%TO.P,J2,4,~{IRQ}*%
%TO.N,Net-(J1-~{IRQ})*%
X160990000Y-69020000D03*
%TO.P,J2,5,R0*%
%TO.N,Net-(J1-R0)*%
X160990000Y-72980000D03*
%TO.P,J2,6,~{NMI}*%
%TO.N,Net-(J1-~{NMI})*%
X160990000Y-76940000D03*
%TO.P,J2,7,~{RES}*%
%TO.N,Net-(J1-~{RES})*%
X160990000Y-80900000D03*
%TO.P,J2,8,D7*%
%TO.N,Net-(J1-D7)*%
X160990000Y-84860000D03*
%TO.P,J2,9,D6*%
%TO.N,Net-(J1-D6)*%
X160990000Y-88820000D03*
%TO.P,J2,10,D5*%
%TO.N,Net-(J1-D5)*%
X160990000Y-92780000D03*
%TO.P,J2,11,D4*%
%TO.N,Net-(J1-D4)*%
X160990000Y-96740000D03*
%TO.P,J2,12,D3*%
%TO.N,Net-(J1-D3)*%
X160990000Y-100700000D03*
%TO.P,J2,13,D2*%
%TO.N,Net-(J1-D2)*%
X160990000Y-104660000D03*
%TO.P,J2,14,D1*%
%TO.N,Net-(J1-D1)*%
X160990000Y-108620000D03*
%TO.P,J2,15,D0*%
%TO.N,Net-(J1-D0)*%
X160990000Y-112580000D03*
%TO.P,J2,16,K6*%
%TO.N,Net-(J1-K6)*%
X160990000Y-116540000D03*
%TO.P,J2,17,SST*%
%TO.N,Net-(J1-SST)*%
X160990000Y-120500000D03*
%TO.P,J2,18,N.C.*%
%TO.N,Net-(J1-N.C.-Pad18)*%
X160990000Y-124460000D03*
%TO.P,J2,19,N.C.*%
%TO.N,Net-(J1-N.C.-Pad19)*%
X160990000Y-128420000D03*
%TO.P,J2,20,N.C.*%
%TO.N,Net-(J1-N.C.-Pad20)*%
X160990000Y-132380000D03*
%TO.P,J2,21,+5V*%
%TO.N,Net-(J1-+5V)*%
X160990000Y-136340000D03*
%TO.P,J2,22,GND*%
%TO.N,Net-(J1-GND)*%
X160990000Y-140300000D03*
%TD*%
D13*
%TO.N,Net-(J1-SYNC)*%
X160990000Y-57140000D02*
X157590000Y-57140000D01*
X157590000Y-57140000D02*
X154900000Y-54450000D01*
X154900000Y-54450000D02*
X151650000Y-54450000D01*
%TO.N,Net-(J1-~{RDY})*%
X153510000Y-56990000D02*
X151650000Y-56990000D01*
X157620000Y-61100000D02*
X153510000Y-56990000D01*
X160990000Y-61100000D02*
X157620000Y-61100000D01*
%TO.N,Net-(J1-\u00D81)*%
X152090000Y-59530000D02*
X151650000Y-59530000D01*
X160990000Y-65060000D02*
X157620000Y-65060000D01*
X157620000Y-65060000D02*
X152090000Y-59530000D01*
%TO.N,Net-(J1-~{IRQ})*%
X152780000Y-64230000D02*
X152780000Y-63200000D01*
X160990000Y-69020000D02*
X157570000Y-69020000D01*
X152780000Y-63200000D02*
X151650000Y-62070000D01*
X157570000Y-69020000D02*
X152780000Y-64230000D01*
%TO.N,Net-(J1-R0)*%
X157610000Y-72980000D02*
X154970000Y-70340000D01*
X154970000Y-67930000D02*
X151650000Y-64610000D01*
X154970000Y-70340000D02*
X154970000Y-67930000D01*
X160990000Y-72980000D02*
X157610000Y-72980000D01*
%TO.N,Net-(J1-~{NMI})*%
X157610000Y-76940000D02*
X154610000Y-73940000D01*
X154610000Y-70110000D02*
X151650000Y-67150000D01*
X160990000Y-76940000D02*
X157610000Y-76940000D01*
X154610000Y-73940000D02*
X154610000Y-70110000D01*
%TO.N,Net-(J1-~{RES})*%
X160990000Y-80900000D02*
X157630000Y-80900000D01*
X154250000Y-72290000D02*
X151650000Y-69690000D01*
X157630000Y-80900000D02*
X154250000Y-77520000D01*
X150520000Y-70820000D02*
X151650000Y-69690000D01*
X154250000Y-77520000D02*
X154250000Y-72290000D01*
X150520000Y-147435000D02*
X150520000Y-70820000D01*
%TO.N,Net-(J1-D7)*%
X160990000Y-84860000D02*
X157600000Y-84860000D01*
X153890000Y-81150000D02*
X153890000Y-74470000D01*
X153890000Y-74470000D02*
X151650000Y-72230000D01*
X157600000Y-84860000D02*
X153890000Y-81150000D01*
%TO.N,Net-(J1-D6)*%
X153530000Y-82740000D02*
X153530000Y-76650000D01*
X157620000Y-88820000D02*
X154580000Y-85780000D01*
X160990000Y-88820000D02*
X157620000Y-88820000D01*
X154580000Y-83790000D02*
X153530000Y-82740000D01*
X153530000Y-76650000D02*
X151650000Y-74770000D01*
X154580000Y-85780000D02*
X154580000Y-83790000D01*
%TO.N,Net-(J1-D5)*%
X153170000Y-78830000D02*
X151650000Y-77310000D01*
X153170000Y-82890000D02*
X153170000Y-78830000D01*
X154220000Y-83940000D02*
X153170000Y-82890000D01*
X154220000Y-89380000D02*
X154220000Y-83940000D01*
X160990000Y-92780000D02*
X157620000Y-92780000D01*
X157620000Y-92780000D02*
X154220000Y-89380000D01*
%TO.N,Net-(J1-D4)*%
X152810000Y-81010000D02*
X151650000Y-79850000D01*
X154943232Y-94063232D02*
X154943232Y-91266768D01*
X160990000Y-96740000D02*
X157620000Y-96740000D01*
X153860000Y-90183536D02*
X153860000Y-84090000D01*
X152810000Y-83040000D02*
X152810000Y-81010000D01*
X153860000Y-84090000D02*
X152810000Y-83040000D01*
X154943232Y-91266768D02*
X153860000Y-90183536D01*
X157620000Y-96740000D02*
X154943232Y-94063232D01*
%TO.N,Net-(J1-D3)*%
X157620000Y-100700000D02*
X155100000Y-98180000D01*
X154560000Y-95440000D02*
X154560000Y-91392652D01*
X155100000Y-98180000D02*
X155100000Y-95980000D01*
X155100000Y-95980000D02*
X154560000Y-95440000D01*
X154560000Y-91392652D02*
X153500000Y-90332652D01*
X153500000Y-84240000D02*
X151650000Y-82390000D01*
X153500000Y-90332652D02*
X153500000Y-84240000D01*
X160990000Y-100700000D02*
X157620000Y-100700000D01*
%TO.N,Net-(J1-D2)*%
X157100000Y-104220000D02*
X157100000Y-102590000D01*
X157100000Y-102590000D02*
X154740000Y-100230000D01*
X154740000Y-100230000D02*
X154740000Y-96130000D01*
X154200000Y-95590000D02*
X154200000Y-91541768D01*
X157540000Y-104660000D02*
X157100000Y-104220000D01*
X160990000Y-104660000D02*
X157540000Y-104660000D01*
X153140000Y-86420000D02*
X151650000Y-84930000D01*
X154740000Y-96130000D02*
X154200000Y-95590000D01*
X154200000Y-91541768D02*
X153140000Y-90481768D01*
X153140000Y-90481768D02*
X153140000Y-86420000D01*
%TO.N,Net-(J1-D1)*%
X152780000Y-90630884D02*
X152780000Y-88600000D01*
X160990000Y-108620000D02*
X157610000Y-108620000D01*
X153840000Y-95750000D02*
X153840000Y-91690884D01*
X154380000Y-100380000D02*
X154380000Y-96290000D01*
X157610000Y-108620000D02*
X156740000Y-107750000D01*
X156740000Y-107750000D02*
X156740000Y-102740000D01*
X152780000Y-88600000D02*
X151650000Y-87470000D01*
X156740000Y-102740000D02*
X154380000Y-100380000D01*
X154380000Y-96290000D02*
X153840000Y-95750000D01*
X153840000Y-91690884D02*
X152780000Y-90630884D01*
%TO.N,Net-(J1-D0)*%
X153480000Y-95900000D02*
X153480000Y-91840000D01*
X154020000Y-100529116D02*
X154020000Y-96440000D01*
X154020000Y-96440000D02*
X153480000Y-95900000D01*
X156380000Y-102889116D02*
X154020000Y-100529116D01*
X156380000Y-111340000D02*
X156380000Y-102889116D01*
X160990000Y-112580000D02*
X157620000Y-112580000D01*
X157620000Y-112580000D02*
X156380000Y-111340000D01*
X153480000Y-91840000D02*
X151650000Y-90010000D01*
%TO.N,Net-(J1-K6)*%
X153120000Y-94020000D02*
X151650000Y-92550000D01*
X153120000Y-96050000D02*
X153120000Y-94020000D01*
X153660000Y-96590000D02*
X153120000Y-96050000D01*
X157630000Y-116540000D02*
X156020000Y-114930000D01*
X160990000Y-116540000D02*
X157630000Y-116540000D01*
X156020000Y-103038232D02*
X153660000Y-100678232D01*
X153660000Y-100678232D02*
X153660000Y-96590000D01*
X156020000Y-114930000D02*
X156020000Y-103038232D01*
%TO.N,Net-(J1-SST)*%
X155660000Y-118540000D02*
X155660000Y-103187348D01*
X153300000Y-100827348D02*
X153300000Y-96740000D01*
X155660000Y-103187348D02*
X153300000Y-100827348D01*
X153300000Y-96740000D02*
X151650000Y-95090000D01*
X157620000Y-120500000D02*
X155660000Y-118540000D01*
X160990000Y-120500000D02*
X157620000Y-120500000D01*
%TO.N,Net-(J1-N.C.-Pad18)*%
X155300000Y-103336464D02*
X152940000Y-100976464D01*
X152940000Y-100976464D02*
X152940000Y-98920000D01*
X152940000Y-98920000D02*
X151650000Y-97630000D01*
X160990000Y-124460000D02*
X157610000Y-124460000D01*
X155300000Y-122150000D02*
X155300000Y-103336464D01*
X157610000Y-124460000D02*
X155300000Y-122150000D01*
%TO.N,Net-(J1-N.C.-Pad19)*%
X154940000Y-103485580D02*
X151650000Y-100195580D01*
X157610000Y-128420000D02*
X154940000Y-125750000D01*
X151650000Y-100195580D02*
X151650000Y-100170000D01*
X154940000Y-125750000D02*
X154940000Y-103485580D01*
X160990000Y-128420000D02*
X157610000Y-128420000D01*
%TO.N,Net-(J1-N.C.-Pad20)*%
X157620000Y-132380000D02*
X154580000Y-129340000D01*
X154580000Y-129340000D02*
X154580000Y-105640000D01*
X160990000Y-132380000D02*
X157620000Y-132380000D01*
X154580000Y-105640000D02*
X151650000Y-102710000D01*
D14*
%TO.N,Net-(J1-+5V)*%
X157360000Y-136340000D02*
X153500000Y-132480000D01*
X152457953Y-105250000D02*
X151650000Y-105250000D01*
X160990000Y-136340000D02*
X157360000Y-136340000D01*
X153500000Y-132480000D02*
X153500000Y-106292047D01*
X153500000Y-106292047D02*
X152457953Y-105250000D01*
%TO.N,Net-(J1-GND)*%
X160990000Y-140300000D02*
X157270000Y-140300000D01*
X151650000Y-134680000D02*
X151650000Y-107790000D01*
X157270000Y-140300000D02*
X151650000Y-134680000D01*
%TD*%
M02*
