M48
; DRILL file {KiCad 7.0.11} date Sat Aug  2 11:26:22 2025
; FORMAT={-:-/ absolute / inch / decimal}
; #@! TF.CreationDate,2025-08-02T11:26:22+02:00
; #@! TF.GenerationSoftware,Kicad,Pcbnew,7.0.11
; #@! TF.FileFunction,MixedPlating,1,2
FMAT,2
INCH
; #@! TA.AperFunction,Plated,PTH,ComponentDrill
T1C0.0394
%
G90
G05
T1
X5.8705Y-2.1437
X5.8705Y-2.2437
X5.8705Y-2.3437
X5.8705Y-2.4437
X5.8705Y-2.5437
X5.8705Y-2.6437
X5.8705Y-2.7437
X5.8705Y-2.8437
X5.8705Y-2.9437
X5.8705Y-3.0437
X5.8705Y-3.1437
X5.8705Y-3.2437
X5.8705Y-3.3437
X5.8705Y-3.4437
X5.8705Y-3.5437
X5.8705Y-3.6437
X5.8705Y-3.7437
X5.8705Y-3.8437
X5.8705Y-3.9437
X5.8705Y-4.0437
X5.8705Y-4.1437
X5.8705Y-4.2437
X5.926Y-5.8045
X5.9705Y-2.1437
X5.9705Y-2.2437
X5.9705Y-2.3437
X5.9705Y-2.4437
X5.9705Y-2.5437
X5.9705Y-2.6437
X5.9705Y-2.7437
X5.9705Y-2.8437
X5.9705Y-2.9437
X5.9705Y-3.0437
X5.9705Y-3.1437
X5.9705Y-3.2437
X5.9705Y-3.3437
X5.9705Y-3.4437
X5.9705Y-3.5437
X5.9705Y-3.6437
X5.9705Y-3.7437
X5.9705Y-3.8437
X5.9705Y-3.9437
X5.9705Y-4.0437
X5.9705Y-4.1437
X5.9705Y-4.2437
M30
