M48
; DRILL file {KiCad 9.0.7} date 2026-04-05T10:10:10+0200
; FORMAT={-:-/ absolute / metric / decimal}
; #@! TF.CreationDate,2026-04-05T10:10:10+02:00
; #@! TF.GenerationSoftware,Kicad,Pcbnew,9.0.7
; #@! TF.FileFunction,MixedPlating,1,2
FMAT,2
METRIC
; #@! TA.AperFunction,Plated,PTH,ComponentDrill
T1C0.800
; #@! TA.AperFunction,Plated,PTH,ComponentDrill
T2C1.000
%
G90
G05
T1
X145.89Y-136.55
X145.89Y-139.09
X145.89Y-141.63
X145.89Y-144.17
X145.89Y-146.71
X145.89Y-149.25
X145.89Y-151.79
X153.51Y-136.55
X153.51Y-139.09
X153.51Y-141.63
X153.51Y-144.17
X153.51Y-146.71
X153.51Y-149.25
X153.51Y-151.79
T2
X147.4Y-116.54
X149.11Y-54.45
X149.11Y-56.99
X149.11Y-59.53
X149.11Y-62.07
X149.11Y-64.61
X149.11Y-67.15
X149.11Y-69.69
X149.11Y-72.23
X149.11Y-74.77
X149.11Y-77.31
X149.11Y-79.85
X149.11Y-82.39
X149.11Y-84.93
X149.11Y-87.47
X149.11Y-90.01
X149.11Y-92.55
X149.11Y-95.09
X149.11Y-97.63
X149.11Y-100.17
X149.11Y-102.71
X149.11Y-105.25
X149.11Y-107.79
X151.65Y-54.45
X151.65Y-56.99
X151.65Y-59.53
X151.65Y-62.07
X151.65Y-64.61
X151.65Y-67.15
X151.65Y-69.69
X151.65Y-72.23
X151.65Y-74.77
X151.65Y-77.31
X151.65Y-79.85
X151.65Y-82.39
X151.65Y-84.93
X151.65Y-87.47
X151.65Y-90.01
X151.65Y-92.55
X151.65Y-95.09
X151.65Y-97.63
X151.65Y-100.17
X151.65Y-102.71
X151.65Y-105.25
X151.65Y-107.79
X160.658Y-147.422
M30
