%TF.GenerationSoftware,KiCad,Pcbnew,7.0.11*%
%TF.CreationDate,2024-03-22T09:44:27+01:00*%
%TF.ProjectId,kim-1-programmable-memory,6b696d2d-312d-4707-926f-6772616d6d61,rev?*%
%TF.SameCoordinates,Original*%
%TF.FileFunction,Copper,L1,Top*%
%TF.FilePolarity,Positive*%
%FSLAX46Y46*%
G04 Gerber Fmt 4.6, Leading zero omitted, Abs format (unit mm)*
G04 Created by KiCad (PCBNEW 7.0.11) date 2024-03-22 09:44:27*
%MOMM*%
%LPD*%
G01*
G04 APERTURE LIST*
G04 Aperture macros list*
%AMRoundRect*
0 Rectangle with rounded corners*
0 $1 Rounding radius*
0 $2 $3 $4 $5 $6 $7 $8 $9 X,Y pos of 4 corners*
0 Add a 4 corners polygon primitive as box body*
4,1,4,$2,$3,$4,$5,$6,$7,$8,$9,$2,$3,0*
0 Add four circle primitives for the rounded corners*
1,1,$1+$1,$2,$3*
1,1,$1+$1,$4,$5*
1,1,$1+$1,$6,$7*
1,1,$1+$1,$8,$9*
0 Add four rect primitives between the rounded corners*
20,1,$1+$1,$2,$3,$4,$5,0*
20,1,$1+$1,$4,$5,$6,$7,0*
20,1,$1+$1,$6,$7,$8,$9,0*
20,1,$1+$1,$8,$9,$2,$3,0*%
%AMFreePoly0*
4,1,22,-1.300000,3.270000,1.300000,3.270000,1.300000,-1.970000,1.280250,-2.195743,1.221600,-2.414626,1.125833,-2.620000,0.995858,-2.805624,0.835624,-2.965858,0.650000,-3.095833,0.444626,-3.191600,0.225743,-3.250250,0.000000,-3.270000,-0.225743,-3.250250,-0.444626,-3.191600,-0.650000,-3.095833,-0.835624,-2.965858,-0.995858,-2.805624,-1.125833,-2.620000,-1.221600,-2.414626,-1.280250,-2.195743,
-1.300000,-1.970000,-1.300000,3.270000,-1.300000,3.270000,$1*%
G04 Aperture macros list end*
%TA.AperFunction,SMDPad,CuDef*%
%ADD10RoundRect,0.237500X0.250000X0.237500X-0.250000X0.237500X-0.250000X-0.237500X0.250000X-0.237500X0*%
%TD*%
%TA.AperFunction,SMDPad,CuDef*%
%ADD11RoundRect,0.237500X0.237500X-0.300000X0.237500X0.300000X-0.237500X0.300000X-0.237500X-0.300000X0*%
%TD*%
%TA.AperFunction,SMDPad,CuDef*%
%ADD12RoundRect,0.150000X0.150000X-0.875000X0.150000X0.875000X-0.150000X0.875000X-0.150000X-0.875000X0*%
%TD*%
%TA.AperFunction,ComponentPad*%
%ADD13R,1.700000X1.700000*%
%TD*%
%TA.AperFunction,ComponentPad*%
%ADD14O,1.700000X1.700000*%
%TD*%
%TA.AperFunction,SMDPad,CuDef*%
%ADD15RoundRect,0.162500X-0.617500X-0.162500X0.617500X-0.162500X0.617500X0.162500X-0.617500X0.162500X0*%
%TD*%
%TA.AperFunction,SMDPad,CuDef*%
%ADD16RoundRect,0.250000X0.550000X-1.500000X0.550000X1.500000X-0.550000X1.500000X-0.550000X-1.500000X0*%
%TD*%
%TA.AperFunction,SMDPad,CuDef*%
%ADD17RoundRect,0.237500X0.300000X0.237500X-0.300000X0.237500X-0.300000X-0.237500X0.300000X-0.237500X0*%
%TD*%
%TA.AperFunction,SMDPad,CuDef*%
%ADD18R,1.600000X1.400000*%
%TD*%
%TA.AperFunction,SMDPad,CuDef*%
%ADD19R,1.700000X3.500000*%
%TD*%
%TA.AperFunction,SMDPad,CuDef*%
%ADD20RoundRect,0.237500X-0.237500X0.300000X-0.237500X-0.300000X0.237500X-0.300000X0.237500X0.300000X0*%
%TD*%
%TA.AperFunction,SMDPad,CuDef*%
%ADD21RoundRect,0.150000X-0.150000X0.587500X-0.150000X-0.587500X0.150000X-0.587500X0.150000X0.587500X0*%
%TD*%
%TA.AperFunction,SMDPad,CuDef*%
%ADD22RoundRect,0.162500X0.162500X-0.617500X0.162500X0.617500X-0.162500X0.617500X-0.162500X-0.617500X0*%
%TD*%
%TA.AperFunction,ConnectorPad*%
%ADD23FreePoly0,180.000000*%
%TD*%
%TA.AperFunction,SMDPad,CuDef*%
%ADD24RoundRect,0.237500X-0.237500X0.250000X-0.237500X-0.250000X0.237500X-0.250000X0.237500X0.250000X0*%
%TD*%
%TA.AperFunction,ViaPad*%
%ADD25C,0.500000*%
%TD*%
%TA.AperFunction,ViaPad*%
%ADD26C,0.600000*%
%TD*%
%TA.AperFunction,ViaPad*%
%ADD27C,1.600000*%
%TD*%
%TA.AperFunction,Conductor*%
%ADD28C,0.200000*%
%TD*%
%TA.AperFunction,Conductor*%
%ADD29C,1.600000*%
%TD*%
%TA.AperFunction,Conductor*%
%ADD30C,0.950000*%
%TD*%
%TA.AperFunction,Conductor*%
%ADD31C,0.600000*%
%TD*%
G04 APERTURE END LIST*
D10*
%TO.P,R2,1*%
%TO.N,/~{CE}*%
X103975000Y-136700000D03*
%TO.P,R2,2*%
%TO.N,+3.3V*%
X102150000Y-136700000D03*
%TD*%
D11*
%TO.P,C3,1*%
%TO.N,GND*%
X102150000Y-142492500D03*
%TO.P,C3,2*%
%TO.N,+3.3V*%
X102150000Y-140767500D03*
%TD*%
D12*
%TO.P,U3,1,A->B*%
%TO.N,/RAM~{R}W*%
X103935000Y-150030000D03*
%TO.P,U3,2,A0*%
%TO.N,/DB7*%
X105205000Y-150030000D03*
%TO.P,U3,3,A1*%
%TO.N,/DB6*%
X106475000Y-150030000D03*
%TO.P,U3,4,A2*%
%TO.N,/DB5*%
X107745000Y-150030000D03*
%TO.P,U3,5,A3*%
%TO.N,/DB4*%
X109015000Y-150030000D03*
%TO.P,U3,6,A4*%
%TO.N,/DB3*%
X110285000Y-150030000D03*
%TO.P,U3,7,A5*%
%TO.N,/DB2*%
X111555000Y-150030000D03*
%TO.P,U3,8,A6*%
%TO.N,/DB1*%
X112825000Y-150030000D03*
%TO.P,U3,9,A7*%
%TO.N,/DB0*%
X114095000Y-150030000D03*
%TO.P,U3,10,GND*%
%TO.N,GND*%
X115365000Y-150030000D03*
%TO.P,U3,11,B7*%
%TO.N,/D0*%
X115365000Y-140730000D03*
%TO.P,U3,12,B6*%
%TO.N,/D1*%
X114095000Y-140730000D03*
%TO.P,U3,13,B5*%
%TO.N,/D2*%
X112825000Y-140730000D03*
%TO.P,U3,14,B4*%
%TO.N,/D3*%
X111555000Y-140730000D03*
%TO.P,U3,15,B3*%
%TO.N,/D4*%
X110285000Y-140730000D03*
%TO.P,U3,16,B2*%
%TO.N,/D5*%
X109015000Y-140730000D03*
%TO.P,U3,17,B1*%
%TO.N,/D6*%
X107745000Y-140730000D03*
%TO.P,U3,18,B0*%
%TO.N,/D7*%
X106475000Y-140730000D03*
%TO.P,U3,19,CE*%
%TO.N,/~{CE}*%
X105205000Y-140730000D03*
%TO.P,U3,20,VCC*%
%TO.N,+3.3V*%
X103935000Y-140730000D03*
%TD*%
D13*
%TO.P,J1,1,Pin_1*%
%TO.N,/~{DECEN}*%
X140650000Y-153380000D03*
D14*
%TO.P,J1,2,Pin_2*%
%TO.N,Net-(J1-Pin_2)*%
X140650000Y-150840000D03*
%TD*%
D12*
%TO.P,U2,1,G1*%
%TO.N,GND*%
X83935000Y-150030000D03*
%TO.P,U2,2,A0*%
%TO.N,/AB8*%
X85205000Y-150030000D03*
%TO.P,U2,3,A1*%
%TO.N,/AB9*%
X86475000Y-150030000D03*
%TO.P,U2,4,A2*%
%TO.N,/AB10*%
X87745000Y-150030000D03*
%TO.P,U2,5,A3*%
%TO.N,/AB11*%
X89015000Y-150030000D03*
%TO.P,U2,6,A4*%
%TO.N,/AB12*%
X90285000Y-150030000D03*
%TO.P,U2,7,A5*%
%TO.N,/AB13*%
X91555000Y-150030000D03*
%TO.P,U2,8,A6*%
%TO.N,/AB14*%
X92825000Y-150030000D03*
%TO.P,U2,9,A7*%
%TO.N,/AB15*%
X94095000Y-150030000D03*
%TO.P,U2,10,GND*%
%TO.N,GND*%
X95365000Y-150030000D03*
%TO.P,U2,11,Y7*%
%TO.N,/A15*%
X95365000Y-140730000D03*
%TO.P,U2,12,Y6*%
%TO.N,/A14*%
X94095000Y-140730000D03*
%TO.P,U2,13,Y5*%
%TO.N,/A13*%
X92825000Y-140730000D03*
%TO.P,U2,14,Y4*%
%TO.N,/A12*%
X91555000Y-140730000D03*
%TO.P,U2,15,Y3*%
%TO.N,/A11*%
X90285000Y-140730000D03*
%TO.P,U2,16,Y2*%
%TO.N,/A10*%
X89015000Y-140730000D03*
%TO.P,U2,17,Y1*%
%TO.N,/A9*%
X87745000Y-140730000D03*
%TO.P,U2,18,Y0*%
%TO.N,/A8*%
X86475000Y-140730000D03*
%TO.P,U2,19,G2*%
%TO.N,GND*%
X85205000Y-140730000D03*
%TO.P,U2,20,VCC*%
%TO.N,+3.3V*%
X83935000Y-140730000D03*
%TD*%
D15*
%TO.P,U7,1*%
%TO.N,/A14*%
X139780000Y-136870000D03*
%TO.P,U7,2,GND*%
%TO.N,GND*%
X139780000Y-137820000D03*
%TO.P,U7,3*%
%TO.N,/A15*%
X139780000Y-138770000D03*
%TO.P,U7,4*%
%TO.N,Net-(U6-Pad1)*%
X142480000Y-138770000D03*
%TO.P,U7,5,VCC*%
%TO.N,+3.3V*%
X142480000Y-137820000D03*
%TO.P,U7,6*%
%TO.N,/A13*%
X142480000Y-136870000D03*
%TD*%
D16*
%TO.P,C9,1*%
%TO.N,+5V*%
X149150000Y-151230000D03*
%TO.P,C9,2*%
%TO.N,GND*%
X149150000Y-145630000D03*
%TD*%
D17*
%TO.P,C6,1*%
%TO.N,GND*%
X146042500Y-140540000D03*
%TO.P,C6,2*%
%TO.N,+3.3V*%
X144317500Y-140540000D03*
%TD*%
D11*
%TO.P,C8,1*%
%TO.N,+5V*%
X144650000Y-152405000D03*
%TO.P,C8,2*%
%TO.N,GND*%
X144650000Y-150680000D03*
%TD*%
D18*
%TO.P,SW1,1,1*%
%TO.N,Net-(U8-RUN)*%
X122140000Y-137970000D03*
X129340000Y-137970000D03*
%TO.P,SW1,2,2*%
%TO.N,GND*%
X122140000Y-140970000D03*
X129340000Y-140970000D03*
%TD*%
D11*
%TO.P,C2,1*%
%TO.N,GND*%
X82150000Y-142492500D03*
%TO.P,C2,2*%
%TO.N,+3.3V*%
X82150000Y-140767500D03*
%TD*%
D19*
%TO.P,U8,1,GPIO0*%
%TO.N,/A0*%
X156897500Y-112927500D03*
%TO.P,U8,2,GPIO1*%
%TO.N,/A1*%
X154357500Y-112927500D03*
%TO.P,U8,3,GND*%
%TO.N,GND*%
X151817500Y-112927500D03*
%TO.P,U8,4,GPIO2*%
%TO.N,/A2*%
X149277500Y-112927500D03*
%TO.P,U8,5,GPIO3*%
%TO.N,/A3*%
X146737500Y-112927500D03*
%TO.P,U8,6,GPIO4*%
%TO.N,/A4*%
X144197500Y-112927500D03*
%TO.P,U8,7,GPIO5*%
%TO.N,/A5*%
X141657500Y-112927500D03*
%TO.P,U8,8,GND*%
%TO.N,GND*%
X139117500Y-112927500D03*
%TO.P,U8,9,GPIO6*%
%TO.N,/A6*%
X136577500Y-112927500D03*
%TO.P,U8,10,GPIO7*%
%TO.N,/A7*%
X134037500Y-112927500D03*
%TO.P,U8,11,GPIO8*%
%TO.N,/A8*%
X131497500Y-112927500D03*
%TO.P,U8,12,GPIO9*%
%TO.N,/A9*%
X128957500Y-112927500D03*
%TO.P,U8,13,GND*%
%TO.N,GND*%
X126417500Y-112927500D03*
%TO.P,U8,14,GPIO10*%
%TO.N,/A10*%
X123877500Y-112927500D03*
%TO.P,U8,15,GPIO11*%
%TO.N,/A11*%
X121337500Y-112927500D03*
%TO.P,U8,16,GPIO12*%
%TO.N,/A12*%
X118797500Y-112927500D03*
%TO.P,U8,17,GPIO13*%
%TO.N,/A13*%
X116257500Y-112927500D03*
%TO.P,U8,18,GND*%
%TO.N,GND*%
X113717500Y-112927500D03*
%TO.P,U8,19,GPIO14*%
%TO.N,/A14*%
X111177500Y-112927500D03*
%TO.P,U8,20,GPIO15*%
%TO.N,/A15*%
X108637500Y-112927500D03*
%TO.P,U8,21,GPIO16*%
%TO.N,/~{CE}*%
X108637500Y-132507500D03*
%TO.P,U8,22,GPIO17*%
%TO.N,/D7*%
X111177500Y-132507500D03*
%TO.P,U8,23,GND*%
%TO.N,GND*%
X113717500Y-132507500D03*
%TO.P,U8,24,GPIO18*%
%TO.N,/D6*%
X116257500Y-132507500D03*
%TO.P,U8,25,GPIO19*%
%TO.N,/D5*%
X118797500Y-132507500D03*
%TO.P,U8,26,GPIO20*%
%TO.N,/D4*%
X121337500Y-132507500D03*
%TO.P,U8,27,GPIO21*%
%TO.N,/D3*%
X123877500Y-132507500D03*
%TO.P,U8,28,GND*%
%TO.N,GND*%
X126417500Y-132507500D03*
%TO.P,U8,29,GPIO22*%
%TO.N,/D2*%
X128957500Y-132507500D03*
%TO.P,U8,30,RUN*%
%TO.N,Net-(U8-RUN)*%
X131497500Y-132507500D03*
%TO.P,U8,31,GPIO26_ADC0*%
%TO.N,/D1*%
X134037500Y-132507500D03*
%TO.P,U8,32,GPIO27_ADC1*%
%TO.N,/D0*%
X136577500Y-132507500D03*
%TO.P,U8,33,AGND*%
%TO.N,GND*%
X139117500Y-132507500D03*
%TO.P,U8,34,GPIO28_ADC2*%
%TO.N,/RAM~{R}W*%
X141657500Y-132507500D03*
%TO.P,U8,35,ADC_VREF*%
%TO.N,unconnected-(U8-ADC_VREF-Pad35)*%
X144197500Y-132507500D03*
%TO.P,U8,36,3V3*%
%TO.N,+3.3V*%
X146737500Y-132507500D03*
%TO.P,U8,37,3V3_EN*%
%TO.N,unconnected-(U8-3V3_EN-Pad37)*%
X149277500Y-132507500D03*
%TO.P,U8,38,GND*%
%TO.N,GND*%
X151817500Y-132507500D03*
%TO.P,U8,39,VSYS*%
%TO.N,Net-(Q1-S)*%
X154357500Y-132507500D03*
%TO.P,U8,40,VBUS*%
%TO.N,Net-(Q1-G)*%
X156897500Y-132507500D03*
%TD*%
D20*
%TO.P,C4,1*%
%TO.N,GND*%
X135750000Y-139720000D03*
%TO.P,C4,2*%
%TO.N,+3.3V*%
X135750000Y-141445000D03*
%TD*%
D11*
%TO.P,C1,1*%
%TO.N,GND*%
X62150000Y-142492500D03*
%TO.P,C1,2*%
%TO.N,+3.3V*%
X62150000Y-140767500D03*
%TD*%
D21*
%TO.P,Q1,1,G*%
%TO.N,Net-(Q1-G)*%
X156580000Y-135515000D03*
%TO.P,Q1,2,S*%
%TO.N,Net-(Q1-S)*%
X154680000Y-135515000D03*
%TO.P,Q1,3,D*%
%TO.N,+5V*%
X155630000Y-137390000D03*
%TD*%
D22*
%TO.P,U4,1*%
%TO.N,N/C*%
X135750000Y-145970000D03*
%TO.P,U4,2*%
%TO.N,/RAMR~{W}*%
X136700000Y-145970000D03*
%TO.P,U4,3,GND*%
%TO.N,GND*%
X137650000Y-145970000D03*
%TO.P,U4,4*%
%TO.N,/RAM~{R}W*%
X137650000Y-143270000D03*
%TO.P,U4,5,VCC*%
%TO.N,+3.3V*%
X135750000Y-143270000D03*
%TD*%
D23*
%TO.P,J3,1,SYNC*%
%TO.N,unconnected-(J3-SYNC-Pad1)*%
X65420000Y-159880000D03*
%TO.P,J3,2,~{RDY}*%
%TO.N,unconnected-(J3-~{RDY}-Pad2)*%
X69380000Y-159880000D03*
%TO.P,J3,3,\u00D81*%
%TO.N,unconnected-(J3-\u00D81-Pad3)*%
X73340000Y-159880000D03*
%TO.P,J3,4,~{IRQ}*%
%TO.N,unconnected-(J3-~{IRQ}-Pad4)*%
X77300000Y-159880000D03*
%TO.P,J3,5,R0*%
%TO.N,unconnected-(J3-R0-Pad5)*%
X81260000Y-159880000D03*
%TO.P,J3,6,~{NMI}*%
%TO.N,unconnected-(J3-~{NMI}-Pad6)*%
X85220000Y-159880000D03*
%TO.P,J3,7,~{RES}*%
%TO.N,unconnected-(J3-~{RES}-Pad7)*%
X89180000Y-159880000D03*
%TO.P,J3,8,D7*%
%TO.N,/DB7*%
X93140000Y-159880000D03*
%TO.P,J3,9,D6*%
%TO.N,/DB6*%
X97100000Y-159880000D03*
%TO.P,J3,10,D5*%
%TO.N,/DB5*%
X101060000Y-159880000D03*
%TO.P,J3,11,D4*%
%TO.N,/DB4*%
X105020000Y-159880000D03*
%TO.P,J3,12,D3*%
%TO.N,/DB3*%
X108980000Y-159880000D03*
%TO.P,J3,13,D2*%
%TO.N,/DB2*%
X112940000Y-159880000D03*
%TO.P,J3,14,D1*%
%TO.N,/DB1*%
X116900000Y-159880000D03*
%TO.P,J3,15,D0*%
%TO.N,/DB0*%
X120860000Y-159880000D03*
%TO.P,J3,16,K6*%
%TO.N,unconnected-(J3-K6-Pad16)*%
X124820000Y-159880000D03*
%TO.P,J3,17,SST*%
%TO.N,unconnected-(J3-SST-Pad17)*%
X128780000Y-159880000D03*
%TO.P,J3,18,+7.5V_RAW*%
%TO.N,unconnected-(J3-+7.5V_RAW-Pad18)*%
X132740000Y-159880000D03*
%TO.P,J3,19,K7*%
%TO.N,unconnected-(J3-K7-Pad19)*%
X136700000Y-159880000D03*
%TO.P,J3,20,~{DECODE_ENABLE}*%
%TO.N,/~{DECEN}*%
X140660000Y-159880000D03*
%TO.P,J3,21,+5V*%
%TO.N,+5V*%
X144620000Y-159880000D03*
%TO.P,J3,22,GND*%
%TO.N,GND*%
X148580000Y-159880000D03*
%TD*%
D15*
%TO.P,U6,1*%
%TO.N,Net-(U6-Pad1)*%
X139780000Y-140540000D03*
%TO.P,U6,2*%
%TO.N,/~{CE}*%
X139780000Y-141490000D03*
%TO.P,U6,3,GND*%
%TO.N,GND*%
X139780000Y-142440000D03*
%TO.P,U6,4*%
%TO.N,Net-(J1-Pin_2)*%
X142480000Y-142440000D03*
%TO.P,U6,5,VCC*%
%TO.N,+3.3V*%
X142480000Y-140540000D03*
%TD*%
D17*
%TO.P,C7,1*%
%TO.N,GND*%
X146042500Y-137820000D03*
%TO.P,C7,2*%
%TO.N,+3.3V*%
X144317500Y-137820000D03*
%TD*%
D12*
%TO.P,U1,1,G1*%
%TO.N,GND*%
X63935000Y-150030000D03*
%TO.P,U1,2,A0*%
%TO.N,/AB0*%
X65205000Y-150030000D03*
%TO.P,U1,3,A1*%
%TO.N,/AB1*%
X66475000Y-150030000D03*
%TO.P,U1,4,A2*%
%TO.N,/AB2*%
X67745000Y-150030000D03*
%TO.P,U1,5,A3*%
%TO.N,/AB3*%
X69015000Y-150030000D03*
%TO.P,U1,6,A4*%
%TO.N,/AB4*%
X70285000Y-150030000D03*
%TO.P,U1,7,A5*%
%TO.N,/AB5*%
X71555000Y-150030000D03*
%TO.P,U1,8,A6*%
%TO.N,/AB6*%
X72825000Y-150030000D03*
%TO.P,U1,9,A7*%
%TO.N,/AB7*%
X74095000Y-150030000D03*
%TO.P,U1,10,GND*%
%TO.N,GND*%
X75365000Y-150030000D03*
%TO.P,U1,11,Y7*%
%TO.N,/A7*%
X75365000Y-140730000D03*
%TO.P,U1,12,Y6*%
%TO.N,/A6*%
X74095000Y-140730000D03*
%TO.P,U1,13,Y5*%
%TO.N,/A5*%
X72825000Y-140730000D03*
%TO.P,U1,14,Y4*%
%TO.N,/A4*%
X71555000Y-140730000D03*
%TO.P,U1,15,Y3*%
%TO.N,/A3*%
X70285000Y-140730000D03*
%TO.P,U1,16,Y2*%
%TO.N,/A2*%
X69015000Y-140730000D03*
%TO.P,U1,17,Y1*%
%TO.N,/A1*%
X67745000Y-140730000D03*
%TO.P,U1,18,Y0*%
%TO.N,/A0*%
X66475000Y-140730000D03*
%TO.P,U1,19,G2*%
%TO.N,GND*%
X65205000Y-140730000D03*
%TO.P,U1,20,VCC*%
%TO.N,+3.3V*%
X63935000Y-140730000D03*
%TD*%
D24*
%TO.P,R1,1*%
%TO.N,Net-(J1-Pin_2)*%
X137900000Y-150967500D03*
%TO.P,R1,2*%
%TO.N,+5V*%
X137900000Y-152792500D03*
%TD*%
D25*
%TO.N,/RAM~{R}W*%
X103940000Y-148400000D03*
D26*
%TO.N,GND*%
X138440000Y-145970000D03*
X151820000Y-130320000D03*
D25*
X83935000Y-151460000D03*
D26*
X139780000Y-143170000D03*
X151820000Y-110720000D03*
X112990000Y-114020000D03*
D25*
X85210000Y-139270000D03*
X74740000Y-151790000D03*
D26*
X139120000Y-110720000D03*
D25*
X115365000Y-148600000D03*
X68390000Y-151790000D03*
X85808909Y-151831091D03*
D26*
X141040000Y-137820000D03*
D25*
X65210000Y-139320000D03*
D27*
X148580000Y-154970000D03*
D25*
X92158909Y-151831091D03*
X87078909Y-151831091D03*
D26*
X139120000Y-115120000D03*
X149150000Y-143470000D03*
X82150000Y-143620000D03*
X120890000Y-140970000D03*
D25*
X69660000Y-151790000D03*
D26*
X145540000Y-150680000D03*
D25*
X83935000Y-148600000D03*
X94698909Y-151831091D03*
D26*
X146040000Y-139620000D03*
X62150000Y-143620000D03*
X102150000Y-143620000D03*
D25*
X73470000Y-151790000D03*
X72200000Y-151790000D03*
D26*
X128090000Y-140970000D03*
X146040000Y-141470000D03*
X113720000Y-134720000D03*
X126420000Y-110720000D03*
X126420000Y-115120000D03*
X130590000Y-140970000D03*
X123390000Y-140970000D03*
D25*
X67120000Y-151790000D03*
X63935000Y-148600000D03*
X88348909Y-151831091D03*
X136000000Y-155200000D03*
X93428909Y-151831091D03*
X95365000Y-151460000D03*
X65850000Y-151790000D03*
X75365000Y-148600000D03*
X95365000Y-148600000D03*
D26*
X139120000Y-130320000D03*
D25*
X63935000Y-151460000D03*
D26*
X114440000Y-114020000D03*
X146040000Y-136920000D03*
X113720000Y-130320000D03*
D25*
X90888909Y-151831091D03*
D26*
X149150000Y-147770000D03*
X139120000Y-134720000D03*
X143740000Y-150680000D03*
D25*
X75365000Y-151460000D03*
D26*
X151820000Y-115120000D03*
D25*
X89618909Y-151831091D03*
D26*
X136690000Y-139720000D03*
X146040000Y-138720000D03*
X126420000Y-130670000D03*
D25*
X141990000Y-135520000D03*
X70930000Y-151790000D03*
D26*
X134840000Y-139720000D03*
X151820000Y-134720000D03*
X126420000Y-134720000D03*
D25*
%TO.N,/AB0*%
X65205000Y-151460000D03*
%TO.N,/AB1*%
X66475000Y-151460000D03*
%TO.N,/AB2*%
X67745000Y-151460000D03*
%TO.N,/AB3*%
X69015000Y-151460000D03*
%TO.N,/AB4*%
X70285000Y-151460000D03*
%TO.N,/AB5*%
X71555000Y-151460000D03*
%TO.N,/AB6*%
X72825000Y-151460000D03*
%TO.N,/AB7*%
X74095000Y-151460000D03*
%TO.N,/AB8*%
X85205000Y-151460000D03*
%TO.N,/AB9*%
X86475000Y-151460000D03*
%TO.N,/AB10*%
X87745000Y-151460000D03*
%TO.N,/AB11*%
X89015000Y-151460000D03*
%TO.N,/AB12*%
X90285000Y-151460000D03*
%TO.N,/AB13*%
X91555000Y-151460000D03*
%TO.N,/AB14*%
X92825000Y-151460000D03*
%TO.N,/AB15*%
X94095000Y-151460000D03*
%TO.N,/RAMR~{W}*%
X136700000Y-155200000D03*
%TO.N,/RAM~{R}W*%
X141660000Y-134870000D03*
X138440000Y-143270000D03*
%TD*%
D28*
%TO.N,Net-(J1-Pin_2)*%
X140356815Y-150967510D02*
G75*
G03*
X140639658Y-150850342I-15J400010D01*
G01*
%TO.N,/D2*%
X118836893Y-139065995D02*
G75*
G03*
X119190447Y-138919553I7J499995D01*
G01*
X121847107Y-136470005D02*
G75*
G03*
X121493554Y-136616446I-7J-499995D01*
G01*
X113671108Y-139066006D02*
G75*
G03*
X113317555Y-139212446I-8J-499994D01*
G01*
X112971443Y-139558550D02*
G75*
G03*
X112825000Y-139912108I353557J-353550D01*
G01*
X128811057Y-134648949D02*
G75*
G03*
X128957500Y-134295393I-353557J353549D01*
G01*
X126782893Y-136469995D02*
G75*
G03*
X127136447Y-136323553I7J499995D01*
G01*
D29*
%TO.N,+5V*%
X147137107Y-151230005D02*
G75*
G03*
X146783553Y-151376447I-7J-499995D01*
G01*
D28*
%TO.N,Net-(J1-Pin_2)*%
X142333557Y-145416449D02*
G75*
G03*
X142480000Y-145062893I-353557J353549D01*
G01*
D30*
%TO.N,+5V*%
X155483557Y-147096449D02*
G75*
G03*
X155630000Y-146742893I-353557J353549D01*
G01*
D28*
X138669607Y-152230005D02*
G75*
G03*
X138316054Y-152376446I-7J-499995D01*
G01*
%TO.N,Net-(J1-Pin_2)*%
X140796444Y-146953550D02*
G75*
G03*
X140650000Y-147307107I353556J-353550D01*
G01*
%TO.N,+5V*%
X144621450Y-152376444D02*
G75*
G03*
X144267893Y-152230000I-353550J-353556D01*
G01*
D30*
X151142893Y-151229995D02*
G75*
G03*
X151496447Y-151083553I7J499995D01*
G01*
D29*
X144766443Y-153393551D02*
G75*
G03*
X144620000Y-153747107I353557J-353549D01*
G01*
D28*
%TO.N,/A1*%
X67891429Y-138544265D02*
G75*
G03*
X67745000Y-138897835I353571J-353535D01*
G01*
X154357495Y-112474607D02*
G75*
G03*
X154211053Y-112121053I-499995J7D01*
G01*
X100035835Y-106607025D02*
G75*
G03*
X99682281Y-106753447I-35J-499975D01*
G01*
X148843449Y-106753443D02*
G75*
G03*
X148489893Y-106607000I-353549J-353557D01*
G01*
%TO.N,/A0*%
X151056449Y-106426443D02*
G75*
G03*
X150702893Y-106280000I-353549J-353557D01*
G01*
X156897495Y-112474607D02*
G75*
G03*
X156751053Y-112121053I-499995J7D01*
G01*
X99900387Y-106279991D02*
G75*
G03*
X99546833Y-106426447I13J-500009D01*
G01*
X66621453Y-139351841D02*
G75*
G03*
X66475000Y-139705387I353547J-353559D01*
G01*
%TO.N,/D3*%
X118653893Y-138738995D02*
G75*
G03*
X119007447Y-138592553I7J499995D01*
G01*
X112728108Y-138739006D02*
G75*
G03*
X112374555Y-138885446I-8J-499994D01*
G01*
X111701443Y-139558550D02*
G75*
G03*
X111555000Y-139912108I353557J-353550D01*
G01*
X123731057Y-133868949D02*
G75*
G03*
X123877500Y-133515393I-353557J353549D01*
G01*
%TO.N,/A13*%
X142783556Y-136568950D02*
G75*
G03*
X142930000Y-136215393I-353556J353550D01*
G01*
X116257502Y-113875497D02*
G75*
G03*
X116403947Y-114229051I499998J-3D01*
G01*
%TO.N,/A14*%
X122389025Y-120676531D02*
G75*
G03*
X122742555Y-120823000I353575J353531D01*
G01*
X116931874Y-115219468D02*
G75*
G03*
X116578341Y-115073000I-353574J-353532D01*
G01*
%TO.N,/A15*%
X129396450Y-121296444D02*
G75*
G03*
X129042893Y-121150000I-353550J-353556D01*
G01*
X110063551Y-115253557D02*
G75*
G03*
X110417107Y-115400000I353549J353557D01*
G01*
%TO.N,/A14*%
X112276551Y-114926557D02*
G75*
G03*
X112630107Y-115073000I353549J353557D01*
G01*
%TO.N,/A15*%
X138853551Y-138626058D02*
G75*
G03*
X139207108Y-138772500I353549J353558D01*
G01*
X122253551Y-121003557D02*
G75*
G03*
X122607107Y-121150000I353549J353557D01*
G01*
X116796450Y-115546444D02*
G75*
G03*
X116442893Y-115400000I-353550J-353556D01*
G01*
%TO.N,/A14*%
X131169450Y-120969444D02*
G75*
G03*
X130815893Y-120823000I-353550J-353556D01*
G01*
%TO.N,/A13*%
X142929995Y-130777107D02*
G75*
G03*
X142783554Y-130423554I-499995J7D01*
G01*
X133002450Y-120642444D02*
G75*
G03*
X132648893Y-120496000I-353550J-353556D01*
G01*
X122524449Y-120349555D02*
G75*
G03*
X122878003Y-120496000I353551J353555D01*
G01*
%TO.N,/A15*%
X137850006Y-137415392D02*
G75*
G03*
X137996447Y-137768946I499994J-8D01*
G01*
X137849995Y-129957107D02*
G75*
G03*
X137703554Y-129603554I-499995J7D01*
G01*
%TO.N,/A14*%
X140389995Y-130397107D02*
G75*
G03*
X140243554Y-130043554I-499995J7D01*
G01*
X140243556Y-136408950D02*
G75*
G03*
X140390000Y-136055393I-353556J353550D01*
G01*
%TO.N,/D1*%
X133891057Y-136318949D02*
G75*
G03*
X134037500Y-135965393I-353557J353549D01*
G01*
X130609893Y-139392995D02*
G75*
G03*
X130963447Y-139246553I7J499995D01*
G01*
X114614108Y-139393006D02*
G75*
G03*
X114260555Y-139539446I-8J-499994D01*
G01*
X114241443Y-139558550D02*
G75*
G03*
X114095000Y-139912108I353557J-353550D01*
G01*
%TO.N,/D6*%
X107891444Y-139233550D02*
G75*
G03*
X107745000Y-139587107I353556J-353550D01*
G01*
%TO.N,/D5*%
X110842108Y-138085006D02*
G75*
G03*
X110488555Y-138231446I-8J-499994D01*
G01*
%TO.N,/D4*%
X121191057Y-133313949D02*
G75*
G03*
X121337500Y-132960393I-353557J353549D01*
G01*
%TO.N,/D5*%
X113672893Y-138084995D02*
G75*
G03*
X114026447Y-137938553I7J499995D01*
G01*
X118651057Y-133313949D02*
G75*
G03*
X118797500Y-132960393I-353557J353549D01*
G01*
%TO.N,/D4*%
X115885893Y-138411995D02*
G75*
G03*
X116239447Y-138265553I7J499995D01*
G01*
X111785108Y-138412006D02*
G75*
G03*
X111431555Y-138558446I-8J-499994D01*
G01*
%TO.N,/D6*%
X116111057Y-133588949D02*
G75*
G03*
X116257500Y-133235393I-353557J353549D01*
G01*
%TO.N,/D4*%
X110431443Y-139558550D02*
G75*
G03*
X110285000Y-139912108I353557J-353550D01*
G01*
%TO.N,/D6*%
X111734893Y-137757995D02*
G75*
G03*
X112088447Y-137611553I7J499995D01*
G01*
X109574107Y-137758005D02*
G75*
G03*
X109220554Y-137904446I-7J-499995D01*
G01*
%TO.N,/D5*%
X109161443Y-139558550D02*
G75*
G03*
X109015000Y-139912108I353557J-353550D01*
G01*
%TO.N,/DB7*%
X105058557Y-151231449D02*
G75*
G03*
X105205000Y-150877893I-353557J353549D01*
G01*
X103122893Y-152959995D02*
G75*
G03*
X103476447Y-152813553I7J499995D01*
G01*
%TO.N,/DB6*%
X99217107Y-154380005D02*
G75*
G03*
X98863554Y-154526446I-7J-499995D01*
G01*
X97246444Y-156143550D02*
G75*
G03*
X97100000Y-156497107I353556J-353550D01*
G01*
%TO.N,/DB7*%
X96997107Y-152960005D02*
G75*
G03*
X96643554Y-153106446I-7J-499995D01*
G01*
X93286444Y-156463550D02*
G75*
G03*
X93140000Y-156817107I353556J-353550D01*
G01*
%TO.N,Net-(U6-Pad1)*%
X140502893Y-140539995D02*
G75*
G03*
X140856447Y-140393553I7J499995D01*
G01*
%TO.N,/DB4*%
X105166444Y-156263550D02*
G75*
G03*
X105020000Y-156617107I353556J-353550D01*
G01*
%TO.N,/DB3*%
X110138557Y-155121449D02*
G75*
G03*
X110285000Y-154767893I-353557J353549D01*
G01*
X109126444Y-156133550D02*
G75*
G03*
X108980000Y-156487107I353556J-353550D01*
G01*
%TO.N,/DB2*%
X111555005Y-154007893D02*
G75*
G03*
X111701446Y-154361446I499995J-7D01*
G01*
%TO.N,/DB4*%
X108868557Y-152561449D02*
G75*
G03*
X109015000Y-152207893I-353557J353549D01*
G01*
%TO.N,/DB6*%
X103052893Y-154379995D02*
G75*
G03*
X103406447Y-154233553I7J499995D01*
G01*
%TO.N,/DB0*%
X120859995Y-158157107D02*
G75*
G03*
X120713553Y-157803553I-499995J7D01*
G01*
%TO.N,/DB2*%
X112939995Y-155807107D02*
G75*
G03*
X112793553Y-155453553I-499995J7D01*
G01*
%TO.N,/DB6*%
X106328557Y-151311449D02*
G75*
G03*
X106475000Y-150957893I-353557J353549D01*
G01*
%TO.N,/DB5*%
X107598557Y-151361449D02*
G75*
G03*
X107745000Y-151007893I-353557J353549D01*
G01*
%TO.N,/DB1*%
X112825005Y-151397893D02*
G75*
G03*
X112971446Y-151751446I499995J-7D01*
G01*
X116899995Y-155887107D02*
G75*
G03*
X116753553Y-155533553I-499995J7D01*
G01*
%TO.N,/DB0*%
X114095005Y-150977893D02*
G75*
G03*
X114241446Y-151331446I499995J-7D01*
G01*
%TO.N,/DB5*%
X101206444Y-157753550D02*
G75*
G03*
X101060000Y-158107107I353556J-353550D01*
G01*
D31*
%TO.N,+3.3V*%
X105511051Y-143121057D02*
G75*
G03*
X105864607Y-143267500I353549J353557D01*
G01*
D28*
%TO.N,/~{CE}*%
X104386449Y-136846443D02*
G75*
G03*
X104032893Y-136700000I-353549J-353557D01*
G01*
%TO.N,/D7*%
X106621444Y-137723550D02*
G75*
G03*
X106475000Y-138077107I353556J-353550D01*
G01*
%TO.N,Net-(U8-RUN)*%
X131351056Y-136058950D02*
G75*
G03*
X131497500Y-135705393I-353556J353550D01*
G01*
%TO.N,/~{CE}*%
X105358551Y-141908558D02*
G75*
G03*
X105712108Y-142055000I353549J353558D01*
G01*
X105205006Y-141547892D02*
G75*
G03*
X105351447Y-141901446I499994J-8D01*
G01*
X108491057Y-134378949D02*
G75*
G03*
X108637500Y-134025393I-353557J353549D01*
G01*
X138813551Y-141343557D02*
G75*
G03*
X139167107Y-141490000I353549J353557D01*
G01*
X138186450Y-140716444D02*
G75*
G03*
X137832893Y-140570000I-353550J-353556D01*
G01*
D31*
%TO.N,+3.3V*%
X136003950Y-143413944D02*
G75*
G03*
X135650393Y-143267500I-353550J-353556D01*
G01*
X95653775Y-142429982D02*
G75*
G03*
X96007328Y-142283554I25J499982D01*
G01*
D28*
%TO.N,/~{CE}*%
X134047107Y-140570005D02*
G75*
G03*
X133693554Y-140716446I-7J-499995D01*
G01*
X132147893Y-142054995D02*
G75*
G03*
X132501447Y-141908553I7J499995D01*
G01*
%TO.N,/D7*%
X111031057Y-133313949D02*
G75*
G03*
X111177500Y-132960393I-353557J353549D01*
G01*
D31*
%TO.N,+3.3V*%
X63293949Y-140913943D02*
G75*
G03*
X62940393Y-140767500I-353549J-353557D01*
G01*
X64663550Y-142283556D02*
G75*
G03*
X65017107Y-142430000I353550J353556D01*
G01*
X146591057Y-134548949D02*
G75*
G03*
X146737500Y-134195393I-353557J353549D01*
G01*
X144463944Y-136676050D02*
G75*
G03*
X144317500Y-137029607I353556J-353550D01*
G01*
X97730489Y-140767493D02*
G75*
G03*
X97376936Y-140913948I11J-500007D01*
G01*
X139352893Y-144549995D02*
G75*
G03*
X139706447Y-144403553I7J499995D01*
G01*
X136993551Y-144403557D02*
G75*
G03*
X137347107Y-144550000I353549J353557D01*
G01*
X83323949Y-140913943D02*
G75*
G03*
X82970393Y-140767500I-353549J-353557D01*
G01*
X84693550Y-142283556D02*
G75*
G03*
X85047107Y-142430000I353550J353556D01*
G01*
X141346444Y-141673550D02*
G75*
G03*
X141200000Y-142027107I353556J-353550D01*
G01*
X141053557Y-143056449D02*
G75*
G03*
X141200000Y-142702893I-353557J353549D01*
G01*
X75653775Y-142429982D02*
G75*
G03*
X76007328Y-142283554I25J499982D01*
G01*
X77730489Y-140767493D02*
G75*
G03*
X77376936Y-140913948I11J-500007D01*
G01*
X103303950Y-140913944D02*
G75*
G03*
X102950393Y-140767500I-353550J-353556D01*
G01*
D28*
%TO.N,/A14*%
X101777159Y-110877471D02*
G75*
G03*
X101423605Y-111023947I41J-500029D01*
G01*
%TO.N,/D0*%
X116582107Y-139720005D02*
G75*
G03*
X116228554Y-139866446I-7J-499995D01*
G01*
%TO.N,/A14*%
X94241467Y-118206127D02*
G75*
G03*
X94095000Y-118559659I353533J-353573D01*
G01*
%TO.N,/A15*%
X95511443Y-117398551D02*
G75*
G03*
X95365000Y-117752107I353557J-353549D01*
G01*
%TO.N,/D0*%
X136431057Y-134828949D02*
G75*
G03*
X136577500Y-134475393I-353557J353549D01*
G01*
X131332893Y-139719995D02*
G75*
G03*
X131686447Y-139573553I7J499995D01*
G01*
%TO.N,/A14*%
X109933949Y-111023943D02*
G75*
G03*
X109580393Y-110877500I-353549J-353557D01*
G01*
%TO.N,/A12*%
X101506263Y-110223474D02*
G75*
G03*
X101152709Y-110369947I37J-500026D01*
G01*
X116899949Y-110369943D02*
G75*
G03*
X116546393Y-110223500I-353549J-353557D01*
G01*
X118797495Y-112474607D02*
G75*
G03*
X118651053Y-112121053I-499995J7D01*
G01*
%TO.N,/A13*%
X92971441Y-119013653D02*
G75*
G03*
X92825000Y-119367211I353559J-353547D01*
G01*
%TO.N,/A15*%
X99289607Y-113827505D02*
G75*
G03*
X98936053Y-113973947I-7J-499995D01*
G01*
X108783950Y-113973944D02*
G75*
G03*
X108430393Y-113827500I-353550J-353556D01*
G01*
%TO.N,/A13*%
X101641711Y-110550508D02*
G75*
G03*
X101288157Y-110696947I-11J-499992D01*
G01*
X114686949Y-110696943D02*
G75*
G03*
X114333393Y-110550500I-353549J-353557D01*
G01*
%TO.N,/A12*%
X91701465Y-119821229D02*
G75*
G03*
X91555000Y-120174763I353535J-353571D01*
G01*
%TO.N,/A8*%
X86621461Y-123051433D02*
G75*
G03*
X86475000Y-123404971I353539J-353567D01*
G01*
%TO.N,/A3*%
X70431431Y-136929163D02*
G75*
G03*
X70285000Y-137282731I353569J-353537D01*
G01*
%TO.N,/A9*%
X128957495Y-112474607D02*
G75*
G03*
X128811053Y-112121053I-499995J7D01*
G01*
%TO.N,/A2*%
X100171283Y-106933988D02*
G75*
G03*
X99817729Y-107080447I17J-500012D01*
G01*
%TO.N,/A8*%
X131497495Y-112474607D02*
G75*
G03*
X131351053Y-112121053I-499995J7D01*
G01*
%TO.N,/A3*%
X100287231Y-107280522D02*
G75*
G03*
X99933677Y-107426947I-31J-499978D01*
G01*
%TO.N,/A8*%
X100964471Y-108915480D02*
G75*
G03*
X100610917Y-109061947I29J-500020D01*
G01*
X128291949Y-109061943D02*
G75*
G03*
X127938393Y-108915500I-353549J-353557D01*
G01*
%TO.N,/A9*%
X87891437Y-122243857D02*
G75*
G03*
X87745000Y-122597419I353563J-353543D01*
G01*
%TO.N,/A6*%
X136577495Y-112474607D02*
G75*
G03*
X136431053Y-112121053I-499995J7D01*
G01*
%TO.N,/A2*%
X144090449Y-107080443D02*
G75*
G03*
X143736893Y-106934000I-353549J-353557D01*
G01*
X69161455Y-137736739D02*
G75*
G03*
X69015000Y-138090283I353545J-353561D01*
G01*
X149277495Y-112474607D02*
G75*
G03*
X149131053Y-112121053I-499995J7D01*
G01*
%TO.N,/A4*%
X139683949Y-107753943D02*
G75*
G03*
X139330393Y-107607500I-353549J-353557D01*
G01*
X144197495Y-112474607D02*
G75*
G03*
X144051053Y-112121053I-499995J7D01*
G01*
%TO.N,/A11*%
X121337495Y-112474607D02*
G75*
G03*
X121191053Y-112121053I-499995J7D01*
G01*
X90431439Y-120628755D02*
G75*
G03*
X90285000Y-120982315I353561J-353545D01*
G01*
%TO.N,/A10*%
X123877495Y-112474607D02*
G75*
G03*
X123731053Y-112121053I-499995J7D01*
G01*
%TO.N,/A7*%
X75511435Y-133698959D02*
G75*
G03*
X75365000Y-134052523I353565J-353541D01*
G01*
%TO.N,/A4*%
X71701457Y-136121637D02*
G75*
G03*
X71555000Y-136475179I353543J-353563D01*
G01*
X100422679Y-107607485D02*
G75*
G03*
X100069125Y-107753947I21J-500015D01*
G01*
%TO.N,/A10*%
X101235367Y-109569477D02*
G75*
G03*
X100881813Y-109715947I33J-500023D01*
G01*
X121325949Y-109715943D02*
G75*
G03*
X120972393Y-109569500I-353549J-353557D01*
G01*
%TO.N,/A9*%
X101099919Y-109242514D02*
G75*
G03*
X100746366Y-109388948I-19J-499986D01*
G01*
X126078949Y-109388943D02*
G75*
G03*
X125725393Y-109242500I-353549J-353557D01*
G01*
%TO.N,/A5*%
X137470949Y-108080943D02*
G75*
G03*
X137117393Y-107934500I-353549J-353557D01*
G01*
%TO.N,/A7*%
X100829023Y-108588517D02*
G75*
G03*
X100475470Y-108734948I-23J-499983D01*
G01*
X130504949Y-108734943D02*
G75*
G03*
X130151393Y-108588500I-353549J-353557D01*
G01*
X134037495Y-112474607D02*
G75*
G03*
X133891053Y-112121053I-499995J7D01*
G01*
%TO.N,/A6*%
X100693575Y-108261483D02*
G75*
G03*
X100340022Y-108407948I25J-500017D01*
G01*
X132717949Y-108407943D02*
G75*
G03*
X132364393Y-108261500I-353549J-353557D01*
G01*
%TO.N,/A3*%
X141896949Y-107426943D02*
G75*
G03*
X141543393Y-107280500I-353549J-353557D01*
G01*
X146737495Y-112474607D02*
G75*
G03*
X146591053Y-112121053I-499995J7D01*
G01*
%TO.N,/A6*%
X74241459Y-134506535D02*
G75*
G03*
X74095000Y-134860075I353541J-353565D01*
G01*
%TO.N,/A5*%
X141657495Y-112474607D02*
G75*
G03*
X141511053Y-112121053I-499995J7D01*
G01*
X72971433Y-135314061D02*
G75*
G03*
X72825000Y-135667627I353567J-353539D01*
G01*
X100558127Y-107934519D02*
G75*
G03*
X100204573Y-108080947I-27J-499981D01*
G01*
%TO.N,/A11*%
X101370815Y-109896511D02*
G75*
G03*
X101017261Y-110042947I-15J-499989D01*
G01*
X119112949Y-110042943D02*
G75*
G03*
X118759393Y-109896500I-353549J-353557D01*
G01*
%TO.N,/A10*%
X89161463Y-121436331D02*
G75*
G03*
X89015000Y-121789867I353537J-353569D01*
G01*
%TO.N,/D1*%
X134037500Y-135965393D02*
X134037500Y-131607500D01*
X130963447Y-139246553D02*
X133891054Y-136318946D01*
X114241447Y-139558554D02*
X114260555Y-139539446D01*
X114614108Y-139393000D02*
X130609893Y-139393000D01*
X114095000Y-140730000D02*
X114095000Y-139912108D01*
%TO.N,/D2*%
X127136447Y-136323553D02*
X128811054Y-134648946D01*
X121847107Y-136470000D02*
X126782893Y-136470000D01*
X119190447Y-138919553D02*
X121493554Y-136616446D01*
X113671108Y-139066000D02*
X118836893Y-139066000D01*
X128957500Y-134295393D02*
X128957500Y-131607500D01*
X112971447Y-139558554D02*
X113317555Y-139212446D01*
X112825000Y-140730000D02*
X112825000Y-139912108D01*
%TO.N,/D3*%
X123877500Y-133515393D02*
X123877500Y-131607500D01*
X119007447Y-138592553D02*
X123731054Y-133868946D01*
X112728108Y-138739000D02*
X118653893Y-138739000D01*
X111701447Y-139558554D02*
X112374555Y-138885446D01*
X111555000Y-140730000D02*
X111555000Y-139912108D01*
%TO.N,/D4*%
X116239447Y-138265553D02*
X121191054Y-133313946D01*
X110431447Y-139558554D02*
X111431555Y-138558446D01*
X110285000Y-140730000D02*
X110285000Y-139912108D01*
%TO.N,/D6*%
X116257500Y-133235393D02*
X116257500Y-131607500D01*
X112088447Y-137611553D02*
X116111054Y-133588946D01*
X109574107Y-137758000D02*
X111734893Y-137758000D01*
X107745000Y-140730000D02*
X107745000Y-139587107D01*
X107891447Y-139233553D02*
X109220554Y-137904446D01*
%TO.N,/D4*%
X121337500Y-132960393D02*
X121337500Y-131607500D01*
%TO.N,/D5*%
X109161447Y-139558554D02*
X110488555Y-138231446D01*
X109015000Y-140730000D02*
X109015000Y-139912108D01*
X118797500Y-132960393D02*
X118797500Y-131607500D01*
X110842108Y-138085000D02*
X113672893Y-138085000D01*
X114026447Y-137938553D02*
X118651054Y-133313946D01*
%TO.N,/D4*%
X111785108Y-138412000D02*
X115885893Y-138412000D01*
%TO.N,/A15*%
X139207108Y-138772500D02*
X139780000Y-138772500D01*
X137996447Y-137768946D02*
X138853555Y-138626054D01*
X129396447Y-121296447D02*
X137703554Y-129603554D01*
X122607107Y-121150000D02*
X129042893Y-121150000D01*
X116796447Y-115546447D02*
X122253554Y-121003554D01*
X110417107Y-115400000D02*
X116442893Y-115400000D01*
X108783947Y-113973947D02*
X110063554Y-115253554D01*
%TO.N,/A13*%
X142783553Y-136568947D02*
X142480000Y-136872500D01*
X142930000Y-130777107D02*
X142930000Y-136215393D01*
X133002447Y-120642447D02*
X142783554Y-130423554D01*
X116403947Y-114229051D02*
X122524450Y-120349554D01*
X116257500Y-113827500D02*
X116257500Y-113875497D01*
%TO.N,/A14*%
X122742555Y-120823000D02*
X130815893Y-120823000D01*
X116931895Y-115219447D02*
X122389002Y-120676554D01*
X111177500Y-113827500D02*
X112276554Y-114926554D01*
X131169447Y-120969447D02*
X140243554Y-130043554D01*
X112630107Y-115073000D02*
X116578341Y-115073000D01*
X140390000Y-130397107D02*
X140390000Y-136055393D01*
X140243553Y-136408947D02*
X139780000Y-136872500D01*
%TO.N,/A13*%
X122878003Y-120496000D02*
X132648893Y-120496000D01*
%TO.N,/A15*%
X137850000Y-129957107D02*
X137850000Y-137415392D01*
%TO.N,/RAM~{R}W*%
X103935000Y-148405000D02*
X103940000Y-148400000D01*
X103935000Y-150030000D02*
X103935000Y-148405000D01*
%TO.N,/RAMR~{W}*%
X136700000Y-155200000D02*
X136700000Y-145970000D01*
%TO.N,Net-(J1-Pin_2)*%
X142480000Y-145062893D02*
X142480000Y-142440000D01*
X140650000Y-150840000D02*
X140650000Y-147307107D01*
X140796447Y-146953553D02*
X142333554Y-145416446D01*
X140639658Y-150850342D02*
X140650000Y-150840000D01*
X137900000Y-150967500D02*
X140356815Y-150967500D01*
D30*
%TO.N,+5V*%
X151496447Y-151083553D02*
X155483554Y-147096446D01*
D29*
X146783553Y-151376447D02*
X144766446Y-153393554D01*
D28*
X144621447Y-152376447D02*
X144650000Y-152405000D01*
D30*
X155630000Y-146742893D02*
X155630000Y-137390000D01*
X149150000Y-151230000D02*
X151142893Y-151230000D01*
D28*
X137900000Y-152792500D02*
X138316054Y-152376446D01*
X144650000Y-159850000D02*
X144620000Y-159880000D01*
D29*
X149150000Y-151230000D02*
X147137107Y-151230000D01*
D28*
X138669607Y-152230000D02*
X144267893Y-152230000D01*
D29*
X144620000Y-153747107D02*
X144620000Y-159880000D01*
D28*
%TO.N,/A0*%
X66475000Y-139705387D02*
X66475000Y-140730000D01*
X99546833Y-106426447D02*
X66621446Y-139351834D01*
X156897500Y-113827500D02*
X156897500Y-112474607D01*
X156751053Y-112121053D02*
X151056446Y-106426446D01*
X150702893Y-106280000D02*
X99900387Y-106280000D01*
%TO.N,/A1*%
X148489893Y-106607000D02*
X100035835Y-106607000D01*
X67745000Y-138897835D02*
X67745000Y-140730000D01*
X154211053Y-112121053D02*
X148843446Y-106753446D01*
X99682281Y-106753447D02*
X67891446Y-138544282D01*
X154357500Y-113827500D02*
X154357500Y-112474607D01*
%TO.N,GND*%
X95365000Y-148600000D02*
X95365000Y-150030000D01*
D31*
X139120000Y-110720000D02*
X139120000Y-113825000D01*
D28*
X120890000Y-140970000D02*
X122140000Y-140970000D01*
D31*
X102150000Y-143620000D02*
X102150000Y-142492500D01*
D28*
X75365000Y-148600000D02*
X75365000Y-150030000D01*
D31*
X113720000Y-131605000D02*
X113717500Y-131607500D01*
X149150000Y-143470000D02*
X149150000Y-145630000D01*
X126420000Y-110720000D02*
X126420000Y-113825000D01*
X126420000Y-113825000D02*
X126417500Y-113827500D01*
X113720000Y-131610000D02*
X113717500Y-131607500D01*
D28*
X63935000Y-150030000D02*
X63935000Y-148600000D01*
X128090000Y-140970000D02*
X129340000Y-140970000D01*
D31*
X146042500Y-136922500D02*
X146040000Y-136920000D01*
X151820000Y-110720000D02*
X151820000Y-113825000D01*
X149150000Y-147770000D02*
X149150000Y-145630000D01*
D28*
X63935000Y-151460000D02*
X63935000Y-150030000D01*
X85205000Y-139275000D02*
X85210000Y-139270000D01*
D31*
X145540000Y-150680000D02*
X144650000Y-150680000D01*
D28*
X115365000Y-148600000D02*
X115365000Y-150030000D01*
D31*
X139120000Y-131610000D02*
X139117500Y-131607500D01*
X139120000Y-113825000D02*
X139117500Y-113827500D01*
X113720000Y-134720000D02*
X113720000Y-131610000D01*
X146040000Y-141470000D02*
X146040000Y-140542500D01*
D28*
X65210000Y-139320000D02*
X65210000Y-140725000D01*
X123390000Y-140970000D02*
X122140000Y-140970000D01*
D31*
X126420000Y-130670000D02*
X126420000Y-131605000D01*
X139120000Y-131605000D02*
X139117500Y-131607500D01*
X126420000Y-134720000D02*
X126420000Y-131610000D01*
X151820000Y-131610000D02*
X151817500Y-131607500D01*
X151820000Y-131605000D02*
X151817500Y-131607500D01*
D28*
X65210000Y-140725000D02*
X65205000Y-140730000D01*
D31*
X151820000Y-115120000D02*
X151820000Y-113830000D01*
X151820000Y-134720000D02*
X151820000Y-131610000D01*
X146042500Y-137820000D02*
X146042500Y-136922500D01*
X151820000Y-130320000D02*
X151820000Y-131605000D01*
X146040000Y-137822500D02*
X146042500Y-137820000D01*
X146040000Y-138720000D02*
X146040000Y-137822500D01*
X136690000Y-139720000D02*
X135750000Y-139720000D01*
D28*
X83935000Y-150030000D02*
X83935000Y-148600000D01*
D31*
X126420000Y-113830000D02*
X126417500Y-113827500D01*
X62150000Y-143620000D02*
X62150000Y-142492500D01*
X146040000Y-140542500D02*
X146042500Y-140540000D01*
X126420000Y-131610000D02*
X126417500Y-131607500D01*
X82150000Y-143620000D02*
X82150000Y-142492500D01*
X151820000Y-113830000D02*
X151817500Y-113827500D01*
X134840000Y-139720000D02*
X135750000Y-139720000D01*
D28*
X85205000Y-140730000D02*
X85205000Y-139275000D01*
D31*
X113720000Y-130320000D02*
X113720000Y-131605000D01*
X146040000Y-140537500D02*
X146042500Y-140540000D01*
X143740000Y-150680000D02*
X144650000Y-150680000D01*
X139120000Y-130320000D02*
X139120000Y-131605000D01*
X139120000Y-134720000D02*
X139120000Y-131610000D01*
D28*
X83935000Y-151460000D02*
X83935000Y-150030000D01*
D31*
X139120000Y-113830000D02*
X139117500Y-113827500D01*
X141040000Y-137820000D02*
X139780000Y-137820000D01*
D28*
X75365000Y-151460000D02*
X75365000Y-150030000D01*
D31*
X146040000Y-139620000D02*
X146040000Y-140537500D01*
X139120000Y-115120000D02*
X139120000Y-113830000D01*
X151820000Y-113825000D02*
X151817500Y-113827500D01*
D28*
X130590000Y-140970000D02*
X129340000Y-140970000D01*
X95365000Y-151460000D02*
X95365000Y-150030000D01*
D31*
X138440000Y-145970000D02*
X137650000Y-145970000D01*
X126420000Y-131605000D02*
X126417500Y-131607500D01*
X139780000Y-143170000D02*
X139780000Y-142440000D01*
D29*
X148580000Y-159880000D02*
X148580000Y-154970000D01*
D31*
X126420000Y-115120000D02*
X126420000Y-113830000D01*
D28*
%TO.N,/A2*%
X99817729Y-107080447D02*
X69161446Y-137736730D01*
X69015000Y-138090283D02*
X69015000Y-140730000D01*
X149131053Y-112121053D02*
X144090446Y-107080446D01*
X149277500Y-113827500D02*
X149277500Y-112474607D01*
X143736893Y-106934000D02*
X100171283Y-106934000D01*
%TO.N,/A3*%
X70285000Y-137282731D02*
X70285000Y-140730000D01*
X146737500Y-113827500D02*
X146737500Y-112474607D01*
X141543393Y-107280500D02*
X100287231Y-107280500D01*
X99933677Y-107426947D02*
X70431446Y-136929178D01*
X146591053Y-112121053D02*
X141896946Y-107426946D01*
%TO.N,/A4*%
X144051053Y-112121053D02*
X139683946Y-107753946D01*
X144197500Y-113827500D02*
X144197500Y-112474607D01*
X71555000Y-136475179D02*
X71555000Y-140730000D01*
X139330393Y-107607500D02*
X100422679Y-107607500D01*
X100069125Y-107753947D02*
X71701446Y-136121626D01*
%TO.N,/A5*%
X141511053Y-112121053D02*
X137470946Y-108080946D01*
X141657500Y-113827500D02*
X141657500Y-112474607D01*
X100204573Y-108080947D02*
X72971446Y-135314074D01*
X137117393Y-107934500D02*
X100558127Y-107934500D01*
X72825000Y-135667627D02*
X72825000Y-140730000D01*
%TO.N,/A6*%
X136431053Y-112121053D02*
X132717946Y-108407946D01*
X100340021Y-108407947D02*
X74241446Y-134506522D01*
X136577500Y-113827500D02*
X136577500Y-112474607D01*
X132364393Y-108261500D02*
X100693575Y-108261500D01*
X74095000Y-134860075D02*
X74095000Y-140730000D01*
%TO.N,/A7*%
X134037500Y-113827500D02*
X134037500Y-112474607D01*
X130151393Y-108588500D02*
X100829023Y-108588500D01*
X133891053Y-112121053D02*
X130504946Y-108734946D01*
X75365000Y-134052523D02*
X75365000Y-140730000D01*
X100475469Y-108734947D02*
X75511446Y-133698970D01*
%TO.N,/A8*%
X131351053Y-112121053D02*
X128291946Y-109061946D01*
X131497500Y-113827500D02*
X131497500Y-112474607D01*
X127938393Y-108915500D02*
X100964471Y-108915500D01*
X86475000Y-123404971D02*
X86475000Y-140730000D01*
X100610917Y-109061947D02*
X86621446Y-123051418D01*
%TO.N,/A9*%
X128957500Y-113827500D02*
X128957500Y-112474607D01*
X125725393Y-109242500D02*
X101099919Y-109242500D01*
X128811053Y-112121053D02*
X126078946Y-109388946D01*
X87745000Y-122597419D02*
X87745000Y-140730000D01*
X100746365Y-109388947D02*
X87891446Y-122243866D01*
%TO.N,/A10*%
X100881813Y-109715947D02*
X89161446Y-121436314D01*
X89015000Y-121789867D02*
X89015000Y-140730000D01*
X123877500Y-113827500D02*
X123877500Y-112474607D01*
X120972393Y-109569500D02*
X101235367Y-109569500D01*
X123731053Y-112121053D02*
X121325946Y-109715946D01*
%TO.N,/A11*%
X101017261Y-110042947D02*
X90431446Y-120628762D01*
X118759393Y-109896500D02*
X101370815Y-109896500D01*
X121337500Y-113827500D02*
X121337500Y-112474607D01*
X90285000Y-120982315D02*
X90285000Y-140730000D01*
X121191053Y-112121053D02*
X119112946Y-110042946D01*
%TO.N,/A12*%
X101152709Y-110369947D02*
X91701446Y-119821210D01*
X116546393Y-110223500D02*
X101506263Y-110223500D01*
X118651053Y-112121053D02*
X116899946Y-110369946D01*
X118797500Y-113827500D02*
X118797500Y-112474607D01*
X91555000Y-120174763D02*
X91555000Y-140730000D01*
%TO.N,/A13*%
X114333393Y-110550500D02*
X101641711Y-110550500D01*
X92825000Y-119367211D02*
X92825000Y-140730000D01*
X116257500Y-112267500D02*
X114686946Y-110696946D01*
X101288157Y-110696947D02*
X92971446Y-119013658D01*
%TO.N,/A14*%
X101423605Y-111023947D02*
X94241446Y-118206106D01*
X111177500Y-112267500D02*
X109933946Y-111023946D01*
X109580393Y-110877500D02*
X101777159Y-110877500D01*
X94095000Y-118559659D02*
X94095000Y-140730000D01*
%TO.N,/A15*%
X108430393Y-113827500D02*
X99289607Y-113827500D01*
X98936053Y-113973947D02*
X95511446Y-117398554D01*
X95365000Y-117752107D02*
X95365000Y-140730000D01*
%TO.N,/D0*%
X131686447Y-139573553D02*
X136431054Y-134828946D01*
X115365000Y-140730000D02*
X116228554Y-139866446D01*
X136577500Y-134475393D02*
X136577500Y-131607500D01*
X116582107Y-139720000D02*
X131332893Y-139720000D01*
%TO.N,/D7*%
X111177500Y-132960393D02*
X111177500Y-131607500D01*
X106475000Y-140730000D02*
X106475000Y-138077107D01*
X106621447Y-137723553D02*
X111031054Y-133313946D01*
%TO.N,/~{CE}*%
X138186447Y-140716447D02*
X138813554Y-141343554D01*
X134047107Y-140570000D02*
X137832893Y-140570000D01*
X132501447Y-141908553D02*
X133693554Y-140716446D01*
X108637500Y-134025393D02*
X108637500Y-131607500D01*
X105712108Y-142055000D02*
X132147893Y-142055000D01*
X105351447Y-141901446D02*
X105358555Y-141908554D01*
X105205000Y-137665000D02*
X104386446Y-136846446D01*
X105205000Y-140730000D02*
X105205000Y-141547892D01*
X105205000Y-137665000D02*
X108491054Y-134378946D01*
X139167107Y-141490000D02*
X139780000Y-141490000D01*
X104032893Y-136700000D02*
X103975000Y-136700000D01*
X105205000Y-140730000D02*
X105205000Y-137665000D01*
D31*
%TO.N,Net-(Q1-G)*%
X156690000Y-131815000D02*
X156897500Y-131607500D01*
D30*
X156580000Y-135515000D02*
X156580000Y-131810000D01*
%TO.N,Net-(Q1-S)*%
X154680000Y-135515000D02*
X154680000Y-132035000D01*
D31*
X154790000Y-132040000D02*
X154357500Y-131607500D01*
D28*
%TO.N,Net-(U8-RUN)*%
X131497500Y-131607500D02*
X131497500Y-135705393D01*
X129340000Y-137970000D02*
X122140000Y-137970000D01*
X131351053Y-136058947D02*
X129640000Y-137770000D01*
D31*
%TO.N,+3.3V*%
X82970393Y-140767500D02*
X82150000Y-140767500D01*
X142480000Y-137820000D02*
X144317500Y-137820000D01*
X84693553Y-142283553D02*
X83323946Y-140913946D01*
X97376935Y-140913947D02*
X96007328Y-142283554D01*
X103303947Y-140913947D02*
X105511054Y-143121054D01*
X136003947Y-143413947D02*
X136993554Y-144403554D01*
X77376935Y-140913947D02*
X76007328Y-142283554D01*
X75653775Y-142430000D02*
X65017107Y-142430000D01*
X102150000Y-140767500D02*
X102950393Y-140767500D01*
X141200000Y-142702893D02*
X141200000Y-142027107D01*
X137347107Y-144550000D02*
X139352893Y-144550000D01*
X102150000Y-140767500D02*
X97730489Y-140767500D01*
X144463947Y-136676053D02*
X146591054Y-134548946D01*
X142480000Y-140540000D02*
X144317500Y-140540000D01*
X64663553Y-142283553D02*
X63293946Y-140913946D01*
X141346447Y-141673553D02*
X142480000Y-140540000D01*
X95653775Y-142430000D02*
X85047107Y-142430000D01*
X135750000Y-143270000D02*
X135750000Y-141445000D01*
X102150000Y-140767500D02*
X102150000Y-136700000D01*
X144317500Y-140540000D02*
X144317500Y-137820000D01*
X62940393Y-140767500D02*
X62259552Y-140767500D01*
X146737500Y-134195393D02*
X146737500Y-131607500D01*
X82150000Y-140767500D02*
X77730489Y-140767500D01*
X139706447Y-144403553D02*
X141053554Y-143056446D01*
X105864607Y-143267500D02*
X135650393Y-143267500D01*
X144317500Y-137820000D02*
X144317500Y-137029607D01*
D28*
%TO.N,/AB0*%
X65205000Y-151460000D02*
X65205000Y-150030000D01*
%TO.N,/AB1*%
X66475000Y-151460000D02*
X66475000Y-150030000D01*
%TO.N,/AB2*%
X67745000Y-151460000D02*
X67745000Y-150030000D01*
%TO.N,/AB3*%
X69015000Y-151460000D02*
X69015000Y-150030000D01*
%TO.N,/AB4*%
X70285000Y-151460000D02*
X70285000Y-150030000D01*
%TO.N,/AB5*%
X71555000Y-151460000D02*
X71555000Y-150030000D01*
%TO.N,/AB6*%
X72825000Y-151460000D02*
X72825000Y-150030000D01*
%TO.N,/AB7*%
X74095000Y-151460000D02*
X74095000Y-150030000D01*
%TO.N,/AB8*%
X85205000Y-151460000D02*
X85205000Y-150030000D01*
%TO.N,/AB9*%
X86475000Y-151460000D02*
X86475000Y-150030000D01*
%TO.N,/AB10*%
X87745000Y-151460000D02*
X87745000Y-150030000D01*
%TO.N,/AB11*%
X89015000Y-151460000D02*
X89015000Y-150030000D01*
%TO.N,/AB12*%
X90285000Y-151460000D02*
X90285000Y-150030000D01*
%TO.N,/AB13*%
X91555000Y-151460000D02*
X91555000Y-150030000D01*
%TO.N,/AB14*%
X92825000Y-151460000D02*
X92825000Y-150030000D01*
%TO.N,/AB15*%
X94095000Y-151460000D02*
X94095000Y-150030000D01*
%TO.N,/DB0*%
X120713553Y-157803553D02*
X114241446Y-151331446D01*
X114095000Y-150977893D02*
X114095000Y-150030000D01*
X120860000Y-159880000D02*
X120860000Y-158157107D01*
%TO.N,/DB1*%
X116900000Y-159880000D02*
X116900000Y-155887107D01*
X112825000Y-151397893D02*
X112825000Y-150030000D01*
X116753553Y-155533553D02*
X112971446Y-151751446D01*
%TO.N,/DB2*%
X112940000Y-159880000D02*
X112940000Y-155807107D01*
X111555000Y-154007893D02*
X111555000Y-150030000D01*
X112793553Y-155453553D02*
X111701446Y-154361446D01*
%TO.N,/DB3*%
X109126447Y-156133553D02*
X110138554Y-155121446D01*
X108980000Y-159880000D02*
X108980000Y-156487107D01*
X110285000Y-154767893D02*
X110285000Y-150030000D01*
%TO.N,/DB4*%
X105166447Y-156263553D02*
X108868554Y-152561446D01*
X105020000Y-159880000D02*
X105020000Y-156617107D01*
X109015000Y-152207893D02*
X109015000Y-150030000D01*
%TO.N,/DB5*%
X101060000Y-159880000D02*
X101060000Y-158107107D01*
X101206447Y-157753553D02*
X107598554Y-151361446D01*
X107745000Y-151007893D02*
X107745000Y-150030000D01*
%TO.N,/DB6*%
X106475000Y-150957893D02*
X106475000Y-150030000D01*
X103406447Y-154233553D02*
X106328554Y-151311446D01*
X97100000Y-159880000D02*
X97100000Y-156497107D01*
X97246447Y-156143553D02*
X98863554Y-154526446D01*
X99217107Y-154380000D02*
X103052893Y-154380000D01*
%TO.N,/DB7*%
X96997107Y-152960000D02*
X103122893Y-152960000D01*
X105205000Y-150877893D02*
X105205000Y-150030000D01*
X93140000Y-159880000D02*
X93140000Y-156817107D01*
X93286447Y-156463553D02*
X96643554Y-153106446D01*
X103476447Y-152813553D02*
X105058554Y-151231446D01*
%TO.N,/~{DECEN}*%
X140650000Y-153380000D02*
X140650000Y-159870000D01*
X140650000Y-159870000D02*
X140660000Y-159880000D01*
%TO.N,Net-(U6-Pad1)*%
X139780000Y-140542500D02*
X140207500Y-140542500D01*
X141977500Y-138772500D02*
X142480000Y-138772500D01*
X140856447Y-140393553D02*
X142480000Y-138770000D01*
X139780000Y-140540000D02*
X140502893Y-140540000D01*
%TO.N,/RAM~{R}W*%
X137650000Y-143270000D02*
X138440000Y-143270000D01*
X141657500Y-131607500D02*
X141400000Y-131865000D01*
X141660000Y-131610000D02*
X141657500Y-131607500D01*
X141660000Y-134870000D02*
X141660000Y-131610000D01*
%TD*%
M02*
