M48
; DRILL file {KiCad 7.0.11} date Mon Sep 16 15:12:24 2024
; FORMAT={-:-/ absolute / inch / decimal}
; #@! TF.CreationDate,2024-09-16T15:12:24+02:00
; #@! TF.GenerationSoftware,Kicad,Pcbnew,7.0.11
; #@! TF.FileFunction,Plated,1,2,PTH
FMAT,2
INCH
; #@! TA.AperFunction,Plated,PTH,ViaDrill
T1C0.0079
; #@! TA.AperFunction,Plated,PTH,ViaDrill
T2C0.0118
; #@! TA.AperFunction,Plated,PTH,ViaDrill
T3C0.0197
; #@! TA.AperFunction,Plated,PTH,ComponentDrill
T4C0.0394
; #@! TA.AperFunction,Plated,PTH,ComponentDrill
T5C0.0669
; #@! TA.AperFunction,Plated,PTH,ComponentDrill
T6C0.1024
; #@! TA.AperFunction,Plated,PTH,ComponentDrill
T7C0.1260
%
G90
G05
T1
X2.2165Y-3.6783
X2.2165Y-4.072
X2.2165Y-4.4657
X2.2165Y-4.8594
X2.2165Y-5.2531
X2.2165Y-5.6469
X2.2165Y-6.0406
X2.5671Y-5.963
X2.5925Y-5.976
X2.6102Y-3.6783
X2.6102Y-4.072
X2.6102Y-4.8594
X2.6102Y-5.2531
X2.6102Y-5.6469
X2.6102Y-6.0406
X2.6171Y-5.963
X2.6425Y-5.976
X2.6671Y-5.963
X2.6925Y-5.976
X2.7171Y-5.963
X2.7425Y-5.976
X2.7671Y-5.963
X2.7925Y-5.976
X2.8171Y-5.963
X2.8425Y-5.976
X2.8671Y-5.963
X2.8925Y-5.976
X2.9171Y-5.963
X2.9425Y-5.976
X2.9671Y-5.963
X3.0039Y-3.6783
X3.0039Y-4.4657
X3.0039Y-4.8594
X3.0104Y-5.2553
X3.3545Y-5.963
X3.3783Y-5.9776
X3.3829Y-5.2528
X3.3976Y-4.4657
X3.4045Y-5.963
X3.4283Y-5.9776
X3.439Y-4.3315
X3.4545Y-5.963
X3.4618Y-4.1287
X3.4618Y-4.315
X3.4783Y-5.9776
X3.4886Y-4.122
X3.5045Y-5.963
X3.5283Y-5.9776
X3.5545Y-5.963
X3.5752Y-4.122
X3.5783Y-5.9776
X3.6045Y-5.963
X3.6283Y-5.9776
X3.6402Y-4.2906
X3.6545Y-5.963
X3.6618Y-4.2732
X3.6783Y-5.9776
X3.7045Y-5.963
X3.7283Y-5.9776
X3.9734Y-4.6622
X3.9734Y-5.2528
X3.9843Y-3.6425
X3.9998Y-3.6197
X4.185Y-3.6783
X4.185Y-4.072
X4.2161Y-5.1547
X4.2236Y-5.1815
X4.326Y-5.4189
X4.3386Y-5.3941
X4.5252Y-5.3693
X4.5386Y-5.3941
X4.5787Y-4.072
X4.6256Y-5.3697
X4.6386Y-5.3941
X4.7508Y-5.3108
X4.7772Y-5.3028
X4.8957Y-5.9602
X4.913Y-5.9819
X4.9181Y-5.7684
X4.9457Y-5.7661
X4.9516Y-6.0693
X5.0Y-4.0291
X5.0118Y-4.0551
X5.025Y-4.15
X5.0646Y-4.148
X5.074Y-5.6325
X5.0771Y-5.3028
X5.0898Y-3.9949
X5.0957Y-5.6571
X5.0957Y-5.9602
X5.1057Y-4.0175
X5.1142Y-5.8515
X5.118Y-5.9819
X5.1457Y-5.8524
X5.1634Y-6.0693
X5.1711Y-4.1609
X5.2173Y-4.163
X5.2398Y-5.5965
X5.2622Y-4.0102
X5.2622Y-4.0677
X5.2637Y-4.0386
X5.2673Y-5.5961
X5.3771Y-5.128
X5.3921Y-5.1035
X5.5472Y-5.5917
X5.5603Y-5.616
X5.5654Y-5.4634
X5.5771Y-5.128
X5.5889Y-5.1031
X5.7598Y-4.072
X6.0551Y-6.0406
X6.1535Y-4.072
T2
X2.4311Y-5.4282
X2.4724Y-5.4728
X2.5673Y-5.485
X2.5673Y-5.5957
X3.1417Y-3.6555
X3.1693Y-4.0315
X3.2287Y-3.6555
X3.2303Y-5.4282
X3.2303Y-5.5996
X3.2303Y-5.7976
X3.2724Y-4.0315
X3.3045Y-5.963
X3.3547Y-5.4831
X3.4232Y-4.1634
X3.4232Y-4.2209
X3.6185Y-4.0217
X3.6185Y-4.1244
X3.752Y-3.6555
X3.752Y-4.0217
X3.7545Y-5.963
X3.839Y-3.6555
X3.839Y-4.0217
X3.9957Y-3.7453
X4.028Y-5.5999
X4.028Y-5.7976
X4.0919Y-5.4858
X4.0919Y-5.5949
X4.4602Y-4.498
X4.4771Y-5.128
X4.4771Y-5.3063
X4.4929Y-4.498
X4.622Y-5.7976
X4.622Y-5.8713
X4.7173Y-5.7118
X4.7343Y-5.9067
X4.8445Y-5.4988
X4.8957Y-3.8579
X4.8957Y-3.974
X4.9429Y-5.4988
X4.9771Y-4.3567
X4.9771Y-4.535
X4.9771Y-5.128
X4.9771Y-5.3063
X4.9957Y-5.8524
X5.128Y-5.4988
X5.1957Y-5.8524
X5.2264Y-5.4988
X5.3685Y-4.1252
X5.4272Y-4.15
X5.4272Y-4.5345
X5.4771Y-4.3567
X5.4771Y-4.535
X5.4771Y-5.128
X5.4771Y-5.3063
X5.5031Y-5.6953
X5.5528Y-5.426
X5.7496Y-5.3906
X5.7496Y-5.4614
X5.7496Y-5.5555
X5.7496Y-5.6283
X5.9771Y-4.3567
X5.9771Y-4.535
X5.9771Y-5.128
X5.9771Y-5.3063
T3
X5.6378Y-5.9256
X5.6937Y-5.8756
X5.8118Y-5.7335
X5.8496Y-6.1012
X5.9319Y-5.7335
T4
X5.3585Y-3.6957
X5.4035Y-3.6177
X5.4035Y-3.7736
X5.4486Y-3.6957
X5.4937Y-3.6177
X5.4937Y-3.7736
X5.5374Y-5.9386
X5.5374Y-6.0386
X5.5388Y-3.6957
X5.5839Y-3.6177
X5.5839Y-3.7736
X5.6289Y-3.6957
X5.674Y-3.6177
X5.674Y-3.7736
X5.7191Y-3.6957
X5.7642Y-3.6177
X5.7642Y-3.7736
T5
X4.5685Y-3.7733
T6
X4.3717Y-3.7733
X4.5685Y-3.5962
X4.7654Y-3.7733
T7
X5.0813Y-3.6929
X6.0656Y-3.6929
M30
