%TF.GenerationSoftware,KiCad,Pcbnew,7.0.11*%
%TF.CreationDate,2024-03-12T09:18:09+01:00*%
%TF.ProjectId,kim-1-programmable-memory,6b696d2d-312d-4707-926f-6772616d6d61,rev?*%
%TF.SameCoordinates,Original*%
%TF.FileFunction,Copper,L2,Bot*%
%TF.FilePolarity,Positive*%
%FSLAX46Y46*%
G04 Gerber Fmt 4.6, Leading zero omitted, Abs format (unit mm)*
G04 Created by KiCad (PCBNEW 7.0.11) date 2024-03-12 09:18:09*
%MOMM*%
%LPD*%
G01*
G04 APERTURE LIST*
G04 Aperture macros list*
%AMFreePoly0*
4,1,22,-1.300000,3.270000,1.300000,3.270000,1.300000,-1.970000,1.280250,-2.195743,1.221600,-2.414626,1.125833,-2.620000,0.995858,-2.805624,0.835624,-2.965858,0.650000,-3.095833,0.444626,-3.191600,0.225743,-3.250250,0.000000,-3.270000,-0.225743,-3.250250,-0.444626,-3.191600,-0.650000,-3.095833,-0.835624,-2.965858,-0.995858,-2.805624,-1.125833,-2.620000,-1.221600,-2.414626,-1.280250,-2.195743,
-1.300000,-1.970000,-1.300000,3.270000,-1.300000,3.270000,$1*%
G04 Aperture macros list end*
%TA.AperFunction,ComponentPad*%
%ADD10R,1.700000X1.700000*%
%TD*%
%TA.AperFunction,ComponentPad*%
%ADD11O,1.700000X1.700000*%
%TD*%
%TA.AperFunction,ConnectorPad*%
%ADD12FreePoly0,180.000000*%
%TD*%
%TA.AperFunction,ViaPad*%
%ADD13C,0.600000*%
%TD*%
%TA.AperFunction,ViaPad*%
%ADD14C,0.500000*%
%TD*%
%TA.AperFunction,ViaPad*%
%ADD15C,1.600000*%
%TD*%
%TA.AperFunction,Conductor*%
%ADD16C,0.200000*%
%TD*%
G04 APERTURE END LIST*
D10*
%TO.P,J1,1,Pin_1*%
%TO.N,/~{DECEN}*%
X140650000Y-153380000D03*
D11*
%TO.P,J1,2,Pin_2*%
%TO.N,Net-(J1-Pin_2)*%
X140650000Y-150840000D03*
%TD*%
D12*
%TO.P,J3,A,A0*%
%TO.N,/AB0*%
X65420000Y-159880000D03*
%TO.P,J3,B,A1*%
%TO.N,/AB1*%
X69380000Y-159880000D03*
%TO.P,J3,C,A2*%
%TO.N,/AB2*%
X73340000Y-159880000D03*
%TO.P,J3,D,A3*%
%TO.N,/AB3*%
X77300000Y-159880000D03*
%TO.P,J3,E,A4*%
%TO.N,/AB4*%
X81260000Y-159880000D03*
%TO.P,J3,F,A5*%
%TO.N,/AB5*%
X85220000Y-159880000D03*
%TO.P,J3,H,A6*%
%TO.N,/AB6*%
X89180000Y-159880000D03*
%TO.P,J3,J,A7*%
%TO.N,/AB7*%
X93140000Y-159880000D03*
%TO.P,J3,K,A8*%
%TO.N,/AB8*%
X97100000Y-159880000D03*
%TO.P,J3,L,A9*%
%TO.N,/AB9*%
X101060000Y-159880000D03*
%TO.P,J3,M,A10*%
%TO.N,/AB10*%
X105020000Y-159880000D03*
%TO.P,J3,N,A11*%
%TO.N,/AB11*%
X108980000Y-159880000D03*
%TO.P,J3,P,A12*%
%TO.N,/AB12*%
X112940000Y-159880000D03*
%TO.P,J3,R,A13*%
%TO.N,/AB13*%
X116900000Y-159880000D03*
%TO.P,J3,S,A14*%
%TO.N,/AB14*%
X120860000Y-159880000D03*
%TO.P,J3,T,A15*%
%TO.N,/AB15*%
X124820000Y-159880000D03*
%TO.P,J3,U,\u00D82*%
%TO.N,unconnected-(J3-\u00D82-PadU)*%
X128780000Y-159880000D03*
%TO.P,J3,V,R/~{W}*%
%TO.N,/R{slash}~{W}*%
X132740000Y-159880000D03*
%TO.P,J3,W,~{R}/W*%
%TO.N,/~{R}{slash}W*%
X136700000Y-159880000D03*
%TO.P,J3,X,+16V_RAW*%
%TO.N,unconnected-(J3-+16V_RAW-PadX)*%
X140660000Y-159880000D03*
%TO.P,J3,Y,~{\u00D82}*%
%TO.N,unconnected-(J3-~{\u00D82}-PadY)*%
X144620000Y-159880000D03*
%TO.P,J3,Z,RAMRW*%
%TO.N,unconnected-(J3-RAMRW-PadZ)*%
X148580000Y-159880000D03*
%TD*%
D13*
%TO.N,GND*%
X138440000Y-145970000D03*
X151820000Y-130320000D03*
D14*
X83935000Y-151460000D03*
D13*
X139780000Y-143170000D03*
X151820000Y-110720000D03*
X112990000Y-114020000D03*
D14*
X85210000Y-139270000D03*
X74740000Y-151790000D03*
D13*
X139120000Y-110720000D03*
D14*
X115365000Y-148600000D03*
X68390000Y-151790000D03*
X85808909Y-151831091D03*
D13*
X141040000Y-137820000D03*
D14*
X65210000Y-139320000D03*
D15*
X148580000Y-154970000D03*
D14*
X92158909Y-151831091D03*
X87078909Y-151831091D03*
D13*
X139120000Y-115120000D03*
X149150000Y-143470000D03*
X82150000Y-143620000D03*
X120890000Y-140970000D03*
D14*
X69660000Y-151790000D03*
D13*
X145540000Y-150680000D03*
D14*
X83935000Y-148600000D03*
X94698909Y-151831091D03*
D13*
X146040000Y-139620000D03*
X62150000Y-143620000D03*
X102150000Y-143620000D03*
D14*
X73470000Y-151790000D03*
X72200000Y-151790000D03*
D13*
X128090000Y-140970000D03*
X146040000Y-141470000D03*
X113720000Y-134720000D03*
X126420000Y-110720000D03*
X126420000Y-115120000D03*
X130590000Y-140970000D03*
X123390000Y-140970000D03*
D14*
X67120000Y-151790000D03*
X63935000Y-148600000D03*
X88348909Y-151831091D03*
X137440000Y-156070000D03*
X93428909Y-151831091D03*
X95365000Y-151460000D03*
X65850000Y-151790000D03*
X75365000Y-148600000D03*
X95365000Y-148600000D03*
D13*
X139120000Y-130320000D03*
D14*
X63935000Y-151460000D03*
D13*
X114440000Y-114020000D03*
X146040000Y-136920000D03*
X113720000Y-130320000D03*
D14*
X90888909Y-151831091D03*
D13*
X149150000Y-147770000D03*
X139120000Y-134720000D03*
X143740000Y-150680000D03*
D14*
X75365000Y-151460000D03*
D13*
X151820000Y-115120000D03*
D14*
X89618909Y-151831091D03*
X132030000Y-155070000D03*
D13*
X136690000Y-139720000D03*
X146040000Y-138720000D03*
X126420000Y-130670000D03*
D14*
X141990000Y-135520000D03*
X70930000Y-151790000D03*
D13*
X134840000Y-139720000D03*
X151820000Y-134720000D03*
X126420000Y-134720000D03*
D14*
%TO.N,/R{slash}~{W}*%
X132740000Y-155070000D03*
%TO.N,/AB0*%
X65205000Y-151460000D03*
%TO.N,/AB1*%
X66475000Y-151460000D03*
%TO.N,/AB2*%
X67745000Y-151460000D03*
%TO.N,/AB3*%
X69015000Y-151460000D03*
%TO.N,/AB4*%
X70285000Y-151460000D03*
%TO.N,/AB5*%
X71555000Y-151460000D03*
%TO.N,/AB6*%
X72825000Y-151460000D03*
%TO.N,/AB7*%
X74095000Y-151460000D03*
%TO.N,/AB8*%
X85205000Y-151460000D03*
%TO.N,/AB9*%
X86475000Y-151460000D03*
%TO.N,/AB10*%
X87745000Y-151460000D03*
%TO.N,/AB11*%
X89015000Y-151460000D03*
%TO.N,/AB12*%
X90285000Y-151460000D03*
%TO.N,/AB13*%
X91555000Y-151460000D03*
%TO.N,/AB14*%
X92825000Y-151460000D03*
%TO.N,/AB15*%
X94095000Y-151460000D03*
%TO.N,/~{R}{slash}W*%
X136700000Y-156070000D03*
%TO.N,/~{R}{slash}W'*%
X141660000Y-134870000D03*
X138440000Y-143270000D03*
%TD*%
D16*
%TO.N,/R{slash}~{W}*%
X132740000Y-155070000D02*
X132740000Y-159880000D01*
%TO.N,/AB0*%
X65420000Y-159880000D02*
X65205000Y-159665000D01*
X65205000Y-159665000D02*
X65205000Y-151460000D01*
%TO.N,/AB1*%
X66475000Y-151935000D02*
X66475000Y-151460000D01*
X69380000Y-154840000D02*
X66475000Y-151935000D01*
X69380000Y-159880000D02*
X69380000Y-154840000D01*
%TO.N,/AB2*%
X70500000Y-154700000D02*
X67745000Y-151945000D01*
X71870000Y-154700000D02*
X70500000Y-154700000D01*
X73340000Y-159880000D02*
X73340000Y-156170000D01*
X73340000Y-156170000D02*
X71870000Y-154700000D01*
X67745000Y-151945000D02*
X67745000Y-151460000D01*
%TO.N,/AB3*%
X69015000Y-151955000D02*
X69015000Y-151460000D01*
X77300000Y-159422448D02*
X71217552Y-153340000D01*
X70400000Y-153340000D02*
X69015000Y-151955000D01*
X71217552Y-153340000D02*
X70400000Y-153340000D01*
X77300000Y-159880000D02*
X77300000Y-159422448D01*
%TO.N,/AB4*%
X70285000Y-151945000D02*
X70285000Y-151460000D01*
X71731000Y-153391000D02*
X70285000Y-151945000D01*
X78041000Y-153391000D02*
X71731000Y-153391000D01*
X81260000Y-156610000D02*
X78041000Y-153391000D01*
X81260000Y-159880000D02*
X81260000Y-156610000D01*
%TO.N,/AB5*%
X81674000Y-153064000D02*
X72696448Y-153064000D01*
X72696448Y-153064000D02*
X71555000Y-151922552D01*
X85220000Y-159880000D02*
X85220000Y-156610000D01*
X85220000Y-156610000D02*
X81674000Y-153064000D01*
X71555000Y-151922552D02*
X71555000Y-151460000D01*
%TO.N,/AB6*%
X72825000Y-151922818D02*
X72825000Y-151460000D01*
X83657000Y-152737000D02*
X73639182Y-152737000D01*
X89180000Y-159880000D02*
X89180000Y-158260000D01*
X73639182Y-152737000D02*
X72825000Y-151922818D01*
X89180000Y-158260000D02*
X83657000Y-152737000D01*
%TO.N,/AB7*%
X74512182Y-152340000D02*
X74095000Y-151922818D01*
X93140000Y-156610000D02*
X91550000Y-155020000D01*
X91550000Y-155020000D02*
X86840000Y-155020000D01*
X93140000Y-159880000D02*
X93140000Y-156610000D01*
X86840000Y-155020000D02*
X84160000Y-152340000D01*
X74095000Y-151922818D02*
X74095000Y-151460000D01*
X84160000Y-152340000D02*
X74512182Y-152340000D01*
%TO.N,/AB8*%
X97100000Y-156610000D02*
X95160000Y-154670000D01*
X95160000Y-154670000D02*
X87840000Y-154670000D01*
X87840000Y-154670000D02*
X85205000Y-152035000D01*
X85205000Y-152035000D02*
X85205000Y-151460000D01*
X97100000Y-159880000D02*
X97100000Y-156610000D01*
%TO.N,/AB9*%
X101060000Y-159880000D02*
X101060000Y-156610000D01*
X101060000Y-156610000D02*
X98793000Y-154343000D01*
X98793000Y-154343000D02*
X88813000Y-154343000D01*
X86475000Y-152005000D02*
X86475000Y-151460000D01*
X88813000Y-154343000D02*
X86475000Y-152005000D01*
%TO.N,/AB10*%
X105020000Y-156610000D02*
X102426091Y-154016091D01*
X102426091Y-154016091D02*
X89736091Y-154016091D01*
X87745000Y-152025000D02*
X87745000Y-151460000D01*
X89736091Y-154016091D02*
X87745000Y-152025000D01*
X105020000Y-159880000D02*
X105020000Y-156610000D01*
%TO.N,/AB11*%
X89015000Y-152045000D02*
X89015000Y-151460000D01*
X106059091Y-153689091D02*
X90659091Y-153689091D01*
X108980000Y-159880000D02*
X108980000Y-156610000D01*
X108980000Y-156610000D02*
X106059091Y-153689091D01*
X90659091Y-153689091D02*
X89015000Y-152045000D01*
%TO.N,/AB12*%
X112940000Y-156610000D02*
X109692091Y-153362091D01*
X109692091Y-153362091D02*
X91632091Y-153362091D01*
X91632091Y-153362091D02*
X90285000Y-152015000D01*
X90285000Y-152015000D02*
X90285000Y-151460000D01*
X112940000Y-159880000D02*
X112940000Y-156610000D01*
%TO.N,/AB13*%
X113325091Y-153035091D02*
X92505091Y-153035091D01*
X116900000Y-159880000D02*
X116900000Y-156610000D01*
X116900000Y-156610000D02*
X113325091Y-153035091D01*
X91555000Y-152085000D02*
X91555000Y-151460000D01*
X92505091Y-153035091D02*
X91555000Y-152085000D01*
%TO.N,/AB14*%
X93528091Y-152708091D02*
X92825000Y-152005000D01*
X92825000Y-152005000D02*
X92825000Y-151460000D01*
X120860000Y-156610000D02*
X116958091Y-152708091D01*
X120860000Y-159880000D02*
X120860000Y-156610000D01*
X116958091Y-152708091D02*
X93528091Y-152708091D01*
%TO.N,/AB15*%
X120591091Y-152381091D02*
X94471091Y-152381091D01*
X124820000Y-156610000D02*
X120591091Y-152381091D01*
X94095000Y-152005000D02*
X94095000Y-151460000D01*
X124820000Y-159880000D02*
X124820000Y-156610000D01*
X94471091Y-152381091D02*
X94095000Y-152005000D01*
%TO.N,/~{R}{slash}W*%
X136700000Y-156070000D02*
X136700000Y-159880000D01*
%TO.N,/~{R}{slash}W'*%
X138440000Y-143270000D02*
X138440000Y-138090000D01*
X138440000Y-138090000D02*
X141660000Y-134870000D01*
%TD*%
%TA.AperFunction,Conductor*%
%TO.N,GND*%
G36*
X158242539Y-105720185D02*
G01*
X158288294Y-105772989D01*
X158299500Y-105824500D01*
X158299500Y-155575500D01*
X158279815Y-155642539D01*
X158227011Y-155688294D01*
X158175500Y-155699500D01*
X153858872Y-155699500D01*
X153627990Y-155729898D01*
X153598884Y-155733730D01*
X153398091Y-155787532D01*
X153345581Y-155801602D01*
X153345571Y-155801605D01*
X153103309Y-155901953D01*
X153103299Y-155901958D01*
X152876201Y-156033072D01*
X152668148Y-156192718D01*
X152580155Y-156280711D01*
X152518831Y-156314195D01*
X152492416Y-156317029D01*
X137263678Y-156309958D01*
X137196648Y-156290242D01*
X137150918Y-156237417D01*
X137140998Y-156168311D01*
X137141073Y-156167789D01*
X137155133Y-156070000D01*
X137136697Y-155941774D01*
X137082882Y-155823937D01*
X136998049Y-155726033D01*
X136889069Y-155655996D01*
X136889065Y-155655994D01*
X136889064Y-155655994D01*
X136764774Y-155619500D01*
X136764772Y-155619500D01*
X136635228Y-155619500D01*
X136635226Y-155619500D01*
X136510935Y-155655994D01*
X136510932Y-155655995D01*
X136510931Y-155655996D01*
X136473868Y-155679815D01*
X136401950Y-155726033D01*
X136317118Y-155823937D01*
X136317117Y-155823938D01*
X136263302Y-155941774D01*
X136244867Y-156070000D01*
X136258926Y-156167789D01*
X136248982Y-156236947D01*
X136203227Y-156289751D01*
X136136187Y-156309435D01*
X136136130Y-156309435D01*
X133164442Y-156308055D01*
X133097412Y-156288339D01*
X133051682Y-156235514D01*
X133040500Y-156184055D01*
X133040500Y-155457386D01*
X133060185Y-155390347D01*
X133070778Y-155376194D01*
X133122882Y-155316063D01*
X133176697Y-155198226D01*
X133195133Y-155070000D01*
X133176697Y-154941774D01*
X133122882Y-154823937D01*
X133038049Y-154726033D01*
X132929069Y-154655996D01*
X132929065Y-154655994D01*
X132929064Y-154655994D01*
X132804774Y-154619500D01*
X132804772Y-154619500D01*
X132675228Y-154619500D01*
X132675226Y-154619500D01*
X132550935Y-154655994D01*
X132550932Y-154655995D01*
X132550931Y-154655996D01*
X132531890Y-154668233D01*
X132441950Y-154726033D01*
X132357118Y-154823937D01*
X132357117Y-154823938D01*
X132303302Y-154941774D01*
X132284867Y-155070000D01*
X132303302Y-155198225D01*
X132340610Y-155279916D01*
X132357118Y-155316063D01*
X132409214Y-155376186D01*
X132438238Y-155439738D01*
X132439500Y-155457386D01*
X132439500Y-156183661D01*
X132419815Y-156250700D01*
X132367011Y-156296455D01*
X132315442Y-156307661D01*
X124990536Y-156304260D01*
X124923506Y-156284544D01*
X124902913Y-156267941D01*
X122884724Y-154249752D01*
X139599500Y-154249752D01*
X139611131Y-154308229D01*
X139611132Y-154308230D01*
X139655447Y-154374552D01*
X139721769Y-154418867D01*
X139721770Y-154418868D01*
X139780247Y-154430499D01*
X139780250Y-154430500D01*
X139780252Y-154430500D01*
X141519750Y-154430500D01*
X141519751Y-154430499D01*
X141534568Y-154427552D01*
X141578229Y-154418868D01*
X141578229Y-154418867D01*
X141578231Y-154418867D01*
X141644552Y-154374552D01*
X141688867Y-154308231D01*
X141688867Y-154308229D01*
X141688868Y-154308229D01*
X141700499Y-154249752D01*
X141700500Y-154249750D01*
X141700500Y-152510249D01*
X141700499Y-152510247D01*
X141688868Y-152451770D01*
X141688867Y-152451769D01*
X141644552Y-152385447D01*
X141578230Y-152341132D01*
X141578229Y-152341131D01*
X141519752Y-152329500D01*
X141519748Y-152329500D01*
X139780252Y-152329500D01*
X139780247Y-152329500D01*
X139721770Y-152341131D01*
X139721769Y-152341132D01*
X139655447Y-152385447D01*
X139611132Y-152451769D01*
X139611131Y-152451770D01*
X139599500Y-152510247D01*
X139599500Y-154249752D01*
X122884724Y-154249752D01*
X120851053Y-152216082D01*
X120839778Y-152203126D01*
X120835046Y-152196859D01*
X120800774Y-152165616D01*
X120796651Y-152161680D01*
X120783888Y-152148917D01*
X120783887Y-152148916D01*
X120783885Y-152148914D01*
X120780168Y-152145828D01*
X120771770Y-152139175D01*
X120752024Y-152121175D01*
X120745561Y-152118671D01*
X120720283Y-152105347D01*
X120714572Y-152101435D01*
X120714569Y-152101434D01*
X120714570Y-152101434D01*
X120688574Y-152095319D01*
X120672180Y-152090242D01*
X120647265Y-152080591D01*
X120647264Y-152080591D01*
X120640340Y-152080591D01*
X120611949Y-152077297D01*
X120605210Y-152075712D01*
X120578757Y-152079402D01*
X120561627Y-152080591D01*
X94646924Y-152080591D01*
X94579885Y-152060906D01*
X94559243Y-152044272D01*
X94440277Y-151925306D01*
X94406792Y-151863983D01*
X94411776Y-151794291D01*
X94434242Y-151756426D01*
X94477882Y-151706063D01*
X94531697Y-151588226D01*
X94550133Y-151460000D01*
X94531697Y-151331774D01*
X94477882Y-151213937D01*
X94393049Y-151116033D01*
X94284069Y-151045996D01*
X94284065Y-151045994D01*
X94284064Y-151045994D01*
X94159774Y-151009500D01*
X94159772Y-151009500D01*
X94030228Y-151009500D01*
X94030226Y-151009500D01*
X93905935Y-151045994D01*
X93905932Y-151045995D01*
X93905931Y-151045996D01*
X93854677Y-151078934D01*
X93796950Y-151116033D01*
X93712118Y-151213937D01*
X93712117Y-151213938D01*
X93658302Y-151331774D01*
X93639867Y-151460000D01*
X93658302Y-151588225D01*
X93712116Y-151706058D01*
X93712118Y-151706063D01*
X93764214Y-151766186D01*
X93793238Y-151829738D01*
X93794500Y-151847386D01*
X93794500Y-151937861D01*
X93793312Y-151954988D01*
X93792227Y-151962765D01*
X93794368Y-152009079D01*
X93794500Y-152014804D01*
X93794500Y-152032842D01*
X93794947Y-152037671D01*
X93796181Y-152048305D01*
X93797415Y-152074992D01*
X93797416Y-152074997D01*
X93800214Y-152081334D01*
X93808664Y-152108620D01*
X93809937Y-152115429D01*
X93809937Y-152115430D01*
X93809939Y-152115433D01*
X93824001Y-152138146D01*
X93831997Y-152153315D01*
X93842794Y-152177765D01*
X93842795Y-152177766D01*
X93842796Y-152177768D01*
X93847689Y-152182661D01*
X93865433Y-152205061D01*
X93873637Y-152218310D01*
X93892195Y-152285670D01*
X93871389Y-152352370D01*
X93817825Y-152397233D01*
X93768212Y-152407591D01*
X93703924Y-152407591D01*
X93636885Y-152387906D01*
X93616243Y-152371272D01*
X93170277Y-151925306D01*
X93136792Y-151863983D01*
X93141776Y-151794291D01*
X93164242Y-151756426D01*
X93207882Y-151706063D01*
X93261697Y-151588226D01*
X93280133Y-151460000D01*
X93261697Y-151331774D01*
X93207882Y-151213937D01*
X93123049Y-151116033D01*
X93014069Y-151045996D01*
X93014065Y-151045994D01*
X93014064Y-151045994D01*
X92889774Y-151009500D01*
X92889772Y-151009500D01*
X92760228Y-151009500D01*
X92760226Y-151009500D01*
X92635935Y-151045994D01*
X92635932Y-151045995D01*
X92635931Y-151045996D01*
X92584677Y-151078934D01*
X92526950Y-151116033D01*
X92442118Y-151213937D01*
X92442117Y-151213938D01*
X92388302Y-151331774D01*
X92369867Y-151460000D01*
X92388302Y-151588225D01*
X92442116Y-151706058D01*
X92442118Y-151706063D01*
X92494214Y-151766186D01*
X92523238Y-151829738D01*
X92524500Y-151847386D01*
X92524500Y-151937861D01*
X92523312Y-151954988D01*
X92522227Y-151962765D01*
X92524368Y-152009079D01*
X92524500Y-152014804D01*
X92524500Y-152032842D01*
X92524947Y-152037671D01*
X92526181Y-152048305D01*
X92527415Y-152074992D01*
X92527416Y-152074997D01*
X92530214Y-152081334D01*
X92538664Y-152108620D01*
X92539937Y-152115429D01*
X92539937Y-152115430D01*
X92539939Y-152115433D01*
X92554001Y-152138146D01*
X92561997Y-152153315D01*
X92572794Y-152177765D01*
X92572795Y-152177766D01*
X92572796Y-152177768D01*
X92577689Y-152182661D01*
X92595435Y-152205065D01*
X92599077Y-152210948D01*
X92599079Y-152210950D01*
X92599080Y-152210951D01*
X92599081Y-152210952D01*
X92620396Y-152227048D01*
X92633350Y-152238321D01*
X92917939Y-152522910D01*
X92951424Y-152584233D01*
X92946440Y-152653925D01*
X92904568Y-152709858D01*
X92839104Y-152734275D01*
X92830258Y-152734591D01*
X92680924Y-152734591D01*
X92613885Y-152714906D01*
X92593243Y-152698272D01*
X91891819Y-151996848D01*
X91858334Y-151935525D01*
X91855500Y-151909167D01*
X91855500Y-151847386D01*
X91875185Y-151780347D01*
X91885778Y-151766194D01*
X91937882Y-151706063D01*
X91991697Y-151588226D01*
X92010133Y-151460000D01*
X91991697Y-151331774D01*
X91937882Y-151213937D01*
X91853049Y-151116033D01*
X91744069Y-151045996D01*
X91744065Y-151045994D01*
X91744064Y-151045994D01*
X91619774Y-151009500D01*
X91619772Y-151009500D01*
X91490228Y-151009500D01*
X91490226Y-151009500D01*
X91365935Y-151045994D01*
X91365932Y-151045995D01*
X91365931Y-151045996D01*
X91314677Y-151078934D01*
X91256950Y-151116033D01*
X91172118Y-151213937D01*
X91172117Y-151213938D01*
X91118302Y-151331774D01*
X91099867Y-151460000D01*
X91118302Y-151588225D01*
X91172116Y-151706058D01*
X91172118Y-151706063D01*
X91224214Y-151766186D01*
X91253238Y-151829738D01*
X91254500Y-151847386D01*
X91254500Y-152017861D01*
X91253312Y-152034988D01*
X91252227Y-152042765D01*
X91254368Y-152089079D01*
X91254500Y-152094804D01*
X91254500Y-152112842D01*
X91254947Y-152117671D01*
X91256181Y-152128305D01*
X91257415Y-152154992D01*
X91257416Y-152154997D01*
X91260214Y-152161334D01*
X91268664Y-152188620D01*
X91269937Y-152195429D01*
X91269937Y-152195430D01*
X91269939Y-152195433D01*
X91284001Y-152218146D01*
X91291997Y-152233315D01*
X91302794Y-152257765D01*
X91302797Y-152257771D01*
X91307836Y-152265127D01*
X91329482Y-152331559D01*
X91311774Y-152399148D01*
X91260337Y-152446434D01*
X91191500Y-152458404D01*
X91127120Y-152431259D01*
X91117854Y-152422882D01*
X90625635Y-151930663D01*
X90592150Y-151869340D01*
X90597134Y-151799648D01*
X90619604Y-151761779D01*
X90629585Y-151750261D01*
X90667882Y-151706063D01*
X90721697Y-151588226D01*
X90740133Y-151460000D01*
X90721697Y-151331774D01*
X90667882Y-151213937D01*
X90583049Y-151116033D01*
X90474069Y-151045996D01*
X90474065Y-151045994D01*
X90474064Y-151045994D01*
X90349774Y-151009500D01*
X90349772Y-151009500D01*
X90220228Y-151009500D01*
X90220226Y-151009500D01*
X90095935Y-151045994D01*
X90095932Y-151045995D01*
X90095931Y-151045996D01*
X90044677Y-151078934D01*
X89986950Y-151116033D01*
X89902118Y-151213937D01*
X89902117Y-151213938D01*
X89848302Y-151331774D01*
X89829867Y-151460000D01*
X89848302Y-151588225D01*
X89902116Y-151706058D01*
X89902118Y-151706063D01*
X89954214Y-151766186D01*
X89983238Y-151829738D01*
X89984500Y-151847386D01*
X89984500Y-151947861D01*
X89983312Y-151964988D01*
X89982227Y-151972765D01*
X89984368Y-152019079D01*
X89984500Y-152024804D01*
X89984500Y-152042842D01*
X89984947Y-152047671D01*
X89986181Y-152058305D01*
X89987415Y-152084992D01*
X89987416Y-152084997D01*
X89990214Y-152091334D01*
X89998664Y-152118620D01*
X89999937Y-152125429D01*
X89999937Y-152125430D01*
X89999939Y-152125433D01*
X90014001Y-152148146D01*
X90021997Y-152163315D01*
X90032794Y-152187765D01*
X90032795Y-152187766D01*
X90032796Y-152187768D01*
X90037689Y-152192661D01*
X90055435Y-152215065D01*
X90059077Y-152220948D01*
X90059079Y-152220950D01*
X90059080Y-152220951D01*
X90059081Y-152220952D01*
X90077770Y-152235065D01*
X90080396Y-152237048D01*
X90093350Y-152248321D01*
X91021939Y-153176910D01*
X91055424Y-153238233D01*
X91050440Y-153307925D01*
X91008568Y-153363858D01*
X90943104Y-153388275D01*
X90934258Y-153388591D01*
X90834924Y-153388591D01*
X90767885Y-153368906D01*
X90747243Y-153352272D01*
X89351819Y-151956848D01*
X89318334Y-151895525D01*
X89315500Y-151869167D01*
X89315500Y-151847386D01*
X89335185Y-151780347D01*
X89345778Y-151766194D01*
X89397882Y-151706063D01*
X89451697Y-151588226D01*
X89470133Y-151460000D01*
X89451697Y-151331774D01*
X89397882Y-151213937D01*
X89313049Y-151116033D01*
X89204069Y-151045996D01*
X89204065Y-151045994D01*
X89204064Y-151045994D01*
X89079774Y-151009500D01*
X89079772Y-151009500D01*
X88950228Y-151009500D01*
X88950226Y-151009500D01*
X88825935Y-151045994D01*
X88825932Y-151045995D01*
X88825931Y-151045996D01*
X88774677Y-151078934D01*
X88716950Y-151116033D01*
X88632118Y-151213937D01*
X88632117Y-151213938D01*
X88578302Y-151331774D01*
X88559867Y-151460000D01*
X88578302Y-151588225D01*
X88632116Y-151706058D01*
X88632118Y-151706063D01*
X88684214Y-151766186D01*
X88713238Y-151829738D01*
X88714500Y-151847386D01*
X88714500Y-151977861D01*
X88713312Y-151994988D01*
X88712227Y-152002765D01*
X88714368Y-152049079D01*
X88714500Y-152054804D01*
X88714500Y-152072842D01*
X88714947Y-152077671D01*
X88716181Y-152088305D01*
X88717415Y-152114992D01*
X88717416Y-152114997D01*
X88720214Y-152121334D01*
X88728664Y-152148620D01*
X88729937Y-152155429D01*
X88729937Y-152155430D01*
X88730146Y-152155768D01*
X88744001Y-152178146D01*
X88751997Y-152193315D01*
X88762794Y-152217765D01*
X88762795Y-152217766D01*
X88762796Y-152217768D01*
X88767689Y-152222661D01*
X88785435Y-152245065D01*
X88789077Y-152250948D01*
X88789079Y-152250950D01*
X88789080Y-152250951D01*
X88789081Y-152250952D01*
X88804020Y-152262233D01*
X88810396Y-152267048D01*
X88823350Y-152278321D01*
X90048939Y-153503910D01*
X90082424Y-153565233D01*
X90077440Y-153634925D01*
X90035568Y-153690858D01*
X89970104Y-153715275D01*
X89961258Y-153715591D01*
X89911924Y-153715591D01*
X89844885Y-153695906D01*
X89824243Y-153679272D01*
X88081819Y-151936848D01*
X88048334Y-151875525D01*
X88045500Y-151849167D01*
X88045500Y-151847386D01*
X88065185Y-151780347D01*
X88075778Y-151766194D01*
X88127882Y-151706063D01*
X88181697Y-151588226D01*
X88200133Y-151460000D01*
X88181697Y-151331774D01*
X88127882Y-151213937D01*
X88043049Y-151116033D01*
X87934069Y-151045996D01*
X87934065Y-151045994D01*
X87934064Y-151045994D01*
X87809774Y-151009500D01*
X87809772Y-151009500D01*
X87680228Y-151009500D01*
X87680226Y-151009500D01*
X87555935Y-151045994D01*
X87555932Y-151045995D01*
X87555931Y-151045996D01*
X87504677Y-151078934D01*
X87446950Y-151116033D01*
X87362118Y-151213937D01*
X87362117Y-151213938D01*
X87308302Y-151331774D01*
X87289867Y-151460000D01*
X87308302Y-151588225D01*
X87362116Y-151706058D01*
X87362118Y-151706063D01*
X87414214Y-151766186D01*
X87443238Y-151829738D01*
X87444500Y-151847386D01*
X87444500Y-151957861D01*
X87443312Y-151974988D01*
X87442227Y-151982765D01*
X87444368Y-152029079D01*
X87444500Y-152034804D01*
X87444500Y-152052842D01*
X87444947Y-152057671D01*
X87446181Y-152068305D01*
X87447415Y-152094992D01*
X87447416Y-152094997D01*
X87450214Y-152101334D01*
X87458664Y-152128620D01*
X87459937Y-152135429D01*
X87459937Y-152135430D01*
X87459939Y-152135433D01*
X87474001Y-152158146D01*
X87481997Y-152173315D01*
X87492794Y-152197765D01*
X87492795Y-152197766D01*
X87492796Y-152197768D01*
X87497689Y-152202661D01*
X87515435Y-152225065D01*
X87519077Y-152230948D01*
X87519079Y-152230950D01*
X87519080Y-152230951D01*
X87519081Y-152230952D01*
X87534020Y-152242233D01*
X87540396Y-152247048D01*
X87553350Y-152258321D01*
X89125848Y-153830819D01*
X89159333Y-153892142D01*
X89154349Y-153961834D01*
X89112477Y-154017767D01*
X89047013Y-154042184D01*
X89038167Y-154042500D01*
X88988833Y-154042500D01*
X88921794Y-154022815D01*
X88901152Y-154006181D01*
X86820277Y-151925306D01*
X86786792Y-151863983D01*
X86791776Y-151794291D01*
X86814242Y-151756426D01*
X86857882Y-151706063D01*
X86911697Y-151588226D01*
X86930133Y-151460000D01*
X86911697Y-151331774D01*
X86857882Y-151213937D01*
X86773049Y-151116033D01*
X86664069Y-151045996D01*
X86664065Y-151045994D01*
X86664064Y-151045994D01*
X86539774Y-151009500D01*
X86539772Y-151009500D01*
X86410228Y-151009500D01*
X86410226Y-151009500D01*
X86285935Y-151045994D01*
X86285932Y-151045995D01*
X86285931Y-151045996D01*
X86234677Y-151078934D01*
X86176950Y-151116033D01*
X86092118Y-151213937D01*
X86092117Y-151213938D01*
X86038302Y-151331774D01*
X86019867Y-151460000D01*
X86038302Y-151588225D01*
X86092116Y-151706058D01*
X86092118Y-151706063D01*
X86144214Y-151766186D01*
X86173238Y-151829738D01*
X86174500Y-151847386D01*
X86174500Y-151937861D01*
X86173312Y-151954988D01*
X86172227Y-151962765D01*
X86174368Y-152009079D01*
X86174500Y-152014804D01*
X86174500Y-152032842D01*
X86174947Y-152037671D01*
X86176181Y-152048305D01*
X86177415Y-152074992D01*
X86177416Y-152074997D01*
X86180214Y-152081334D01*
X86188664Y-152108620D01*
X86189937Y-152115429D01*
X86189937Y-152115430D01*
X86189939Y-152115433D01*
X86204001Y-152138146D01*
X86211997Y-152153315D01*
X86222794Y-152177765D01*
X86222795Y-152177766D01*
X86222796Y-152177768D01*
X86227689Y-152182661D01*
X86245435Y-152205065D01*
X86249077Y-152210948D01*
X86249079Y-152210950D01*
X86249080Y-152210951D01*
X86249081Y-152210952D01*
X86270396Y-152227048D01*
X86283350Y-152238321D01*
X88202848Y-154157819D01*
X88236333Y-154219142D01*
X88231349Y-154288834D01*
X88189477Y-154344767D01*
X88124013Y-154369184D01*
X88115167Y-154369500D01*
X88015833Y-154369500D01*
X87948794Y-154349815D01*
X87928152Y-154333181D01*
X85541819Y-151946848D01*
X85508334Y-151885525D01*
X85505500Y-151859167D01*
X85505500Y-151847386D01*
X85525185Y-151780347D01*
X85535778Y-151766194D01*
X85587882Y-151706063D01*
X85641697Y-151588226D01*
X85660133Y-151460000D01*
X85641697Y-151331774D01*
X85587882Y-151213937D01*
X85503049Y-151116033D01*
X85394069Y-151045996D01*
X85394065Y-151045994D01*
X85394064Y-151045994D01*
X85269774Y-151009500D01*
X85269772Y-151009500D01*
X85140228Y-151009500D01*
X85140226Y-151009500D01*
X85015935Y-151045994D01*
X85015932Y-151045995D01*
X85015931Y-151045996D01*
X84964677Y-151078934D01*
X84906950Y-151116033D01*
X84822118Y-151213937D01*
X84822117Y-151213938D01*
X84768302Y-151331774D01*
X84749867Y-151460000D01*
X84768302Y-151588225D01*
X84822116Y-151706058D01*
X84822118Y-151706063D01*
X84874214Y-151766186D01*
X84903238Y-151829738D01*
X84904500Y-151847386D01*
X84904500Y-151967861D01*
X84903312Y-151984988D01*
X84902227Y-151992765D01*
X84904368Y-152039079D01*
X84904500Y-152044804D01*
X84904500Y-152062842D01*
X84904947Y-152067671D01*
X84906181Y-152078305D01*
X84907415Y-152104992D01*
X84907416Y-152104997D01*
X84910214Y-152111334D01*
X84918664Y-152138620D01*
X84919937Y-152145429D01*
X84919937Y-152145430D01*
X84921614Y-152148139D01*
X84934001Y-152168146D01*
X84941997Y-152183315D01*
X84952794Y-152207765D01*
X84952795Y-152207766D01*
X84952796Y-152207768D01*
X84957689Y-152212661D01*
X84975435Y-152235065D01*
X84979077Y-152240948D01*
X84979079Y-152240950D01*
X84979080Y-152240951D01*
X84979081Y-152240952D01*
X84994020Y-152252233D01*
X85000396Y-152257048D01*
X85013350Y-152268321D01*
X87252848Y-154507819D01*
X87286333Y-154569142D01*
X87281349Y-154638834D01*
X87239477Y-154694767D01*
X87174013Y-154719184D01*
X87165167Y-154719500D01*
X87015834Y-154719500D01*
X86948795Y-154699815D01*
X86928153Y-154683181D01*
X84419962Y-152174991D01*
X84408687Y-152162035D01*
X84403955Y-152155768D01*
X84369683Y-152124525D01*
X84365560Y-152120589D01*
X84352797Y-152107826D01*
X84352796Y-152107825D01*
X84352794Y-152107823D01*
X84349077Y-152104737D01*
X84340679Y-152098084D01*
X84320933Y-152080084D01*
X84314470Y-152077580D01*
X84289192Y-152064256D01*
X84283481Y-152060344D01*
X84283478Y-152060343D01*
X84283479Y-152060343D01*
X84257483Y-152054228D01*
X84241089Y-152049151D01*
X84216174Y-152039500D01*
X84216173Y-152039500D01*
X84209249Y-152039500D01*
X84180858Y-152036206D01*
X84174119Y-152034621D01*
X84147666Y-152038311D01*
X84130536Y-152039500D01*
X74688016Y-152039500D01*
X74620977Y-152019815D01*
X74600339Y-152003185D01*
X74478427Y-151881274D01*
X74444944Y-151819954D01*
X74449928Y-151750262D01*
X74472397Y-151712392D01*
X74477882Y-151706063D01*
X74531697Y-151588226D01*
X74550133Y-151460000D01*
X74531697Y-151331774D01*
X74477882Y-151213937D01*
X74393049Y-151116033D01*
X74284069Y-151045996D01*
X74284065Y-151045994D01*
X74284064Y-151045994D01*
X74159774Y-151009500D01*
X74159772Y-151009500D01*
X74030228Y-151009500D01*
X74030226Y-151009500D01*
X73905935Y-151045994D01*
X73905932Y-151045995D01*
X73905931Y-151045996D01*
X73854677Y-151078934D01*
X73796950Y-151116033D01*
X73712118Y-151213937D01*
X73712117Y-151213938D01*
X73658302Y-151331774D01*
X73639867Y-151460000D01*
X73658302Y-151588225D01*
X73712116Y-151706058D01*
X73712118Y-151706063D01*
X73764214Y-151766186D01*
X73793238Y-151829738D01*
X73794500Y-151847386D01*
X73794500Y-151855679D01*
X73793312Y-151872806D01*
X73792227Y-151880583D01*
X73794368Y-151926897D01*
X73794500Y-151932622D01*
X73794500Y-151950660D01*
X73794947Y-151955489D01*
X73796181Y-151966123D01*
X73797415Y-151992810D01*
X73797416Y-151992815D01*
X73800214Y-151999152D01*
X73808664Y-152026438D01*
X73809937Y-152033247D01*
X73809937Y-152033248D01*
X73811769Y-152036206D01*
X73824001Y-152055964D01*
X73831997Y-152071133D01*
X73842794Y-152095583D01*
X73842795Y-152095584D01*
X73842796Y-152095586D01*
X73847689Y-152100479D01*
X73865435Y-152122883D01*
X73869077Y-152128766D01*
X73869079Y-152128768D01*
X73869080Y-152128769D01*
X73869081Y-152128770D01*
X73881488Y-152138139D01*
X73890396Y-152144866D01*
X73903350Y-152156139D01*
X73972030Y-152224819D01*
X74005515Y-152286142D01*
X74000531Y-152355834D01*
X73958659Y-152411767D01*
X73893195Y-152436184D01*
X73884349Y-152436500D01*
X73815015Y-152436500D01*
X73747976Y-152416815D01*
X73727334Y-152400181D01*
X73208429Y-151881276D01*
X73174944Y-151819953D01*
X73179928Y-151750261D01*
X73202397Y-151712392D01*
X73207882Y-151706063D01*
X73261697Y-151588226D01*
X73280133Y-151460000D01*
X73261697Y-151331774D01*
X73207882Y-151213937D01*
X73123049Y-151116033D01*
X73014069Y-151045996D01*
X73014065Y-151045994D01*
X73014064Y-151045994D01*
X72889774Y-151009500D01*
X72889772Y-151009500D01*
X72760228Y-151009500D01*
X72760226Y-151009500D01*
X72635935Y-151045994D01*
X72635932Y-151045995D01*
X72635931Y-151045996D01*
X72584677Y-151078934D01*
X72526950Y-151116033D01*
X72442118Y-151213937D01*
X72442117Y-151213938D01*
X72388302Y-151331774D01*
X72369867Y-151460000D01*
X72388302Y-151588225D01*
X72442116Y-151706058D01*
X72442118Y-151706063D01*
X72494214Y-151766186D01*
X72523238Y-151829738D01*
X72524500Y-151847386D01*
X72524500Y-151855679D01*
X72523312Y-151872806D01*
X72522227Y-151880583D01*
X72524368Y-151926897D01*
X72524500Y-151932622D01*
X72524500Y-151950660D01*
X72524947Y-151955489D01*
X72526181Y-151966123D01*
X72527415Y-151992810D01*
X72527416Y-151992815D01*
X72530214Y-151999152D01*
X72538664Y-152026438D01*
X72539937Y-152033247D01*
X72539937Y-152033248D01*
X72541769Y-152036206D01*
X72554001Y-152055964D01*
X72561997Y-152071133D01*
X72572794Y-152095583D01*
X72572795Y-152095584D01*
X72572796Y-152095586D01*
X72577689Y-152100479D01*
X72595435Y-152122883D01*
X72599077Y-152128766D01*
X72599079Y-152128768D01*
X72599080Y-152128769D01*
X72599081Y-152128770D01*
X72611488Y-152138139D01*
X72620396Y-152144866D01*
X72633350Y-152156139D01*
X73029030Y-152551819D01*
X73062515Y-152613142D01*
X73057531Y-152682834D01*
X73015659Y-152738767D01*
X72950195Y-152763184D01*
X72941349Y-152763500D01*
X72872281Y-152763500D01*
X72805242Y-152743815D01*
X72784600Y-152727181D01*
X71938552Y-151881133D01*
X71905067Y-151819810D01*
X71910051Y-151750118D01*
X71932523Y-151712246D01*
X71937882Y-151706063D01*
X71991697Y-151588226D01*
X72010133Y-151460000D01*
X71991697Y-151331774D01*
X71937882Y-151213937D01*
X71853049Y-151116033D01*
X71744069Y-151045996D01*
X71744065Y-151045994D01*
X71744064Y-151045994D01*
X71619774Y-151009500D01*
X71619772Y-151009500D01*
X71490228Y-151009500D01*
X71490226Y-151009500D01*
X71365935Y-151045994D01*
X71365932Y-151045995D01*
X71365931Y-151045996D01*
X71314677Y-151078934D01*
X71256950Y-151116033D01*
X71172118Y-151213937D01*
X71172117Y-151213938D01*
X71118302Y-151331774D01*
X71099867Y-151460000D01*
X71118302Y-151588225D01*
X71172116Y-151706058D01*
X71172118Y-151706063D01*
X71224214Y-151766186D01*
X71253238Y-151829738D01*
X71254500Y-151847386D01*
X71254500Y-151855413D01*
X71253312Y-151872540D01*
X71252227Y-151880317D01*
X71254368Y-151926631D01*
X71254500Y-151932356D01*
X71254500Y-151950394D01*
X71254947Y-151955223D01*
X71256181Y-151965857D01*
X71257415Y-151992544D01*
X71257416Y-151992549D01*
X71260214Y-151998886D01*
X71268664Y-152026172D01*
X71269937Y-152032981D01*
X71269937Y-152032982D01*
X71270952Y-152034621D01*
X71284001Y-152055698D01*
X71291997Y-152070867D01*
X71302794Y-152095317D01*
X71302795Y-152095318D01*
X71302796Y-152095320D01*
X71307689Y-152100213D01*
X71325435Y-152122617D01*
X71329077Y-152128500D01*
X71329079Y-152128502D01*
X71329080Y-152128503D01*
X71329081Y-152128504D01*
X71345565Y-152140952D01*
X71350396Y-152144600D01*
X71363350Y-152155873D01*
X72086296Y-152878819D01*
X72119781Y-152940142D01*
X72114797Y-153009834D01*
X72072925Y-153065767D01*
X72007461Y-153090184D01*
X71998615Y-153090500D01*
X71906833Y-153090500D01*
X71839794Y-153070815D01*
X71819152Y-153054181D01*
X70658131Y-151893160D01*
X70624646Y-151831837D01*
X70629630Y-151762145D01*
X70652098Y-151724278D01*
X70667882Y-151706063D01*
X70721697Y-151588226D01*
X70740133Y-151460000D01*
X70721697Y-151331774D01*
X70667882Y-151213937D01*
X70583049Y-151116033D01*
X70474069Y-151045996D01*
X70474065Y-151045994D01*
X70474064Y-151045994D01*
X70349774Y-151009500D01*
X70349772Y-151009500D01*
X70220228Y-151009500D01*
X70220226Y-151009500D01*
X70095935Y-151045994D01*
X70095932Y-151045995D01*
X70095931Y-151045996D01*
X70044677Y-151078934D01*
X69986950Y-151116033D01*
X69902118Y-151213937D01*
X69902117Y-151213938D01*
X69848302Y-151331774D01*
X69829867Y-151460000D01*
X69848302Y-151588225D01*
X69902116Y-151706058D01*
X69902118Y-151706063D01*
X69954214Y-151766186D01*
X69983238Y-151829738D01*
X69984500Y-151847386D01*
X69984500Y-151877861D01*
X69983312Y-151894988D01*
X69982227Y-151902765D01*
X69984368Y-151949079D01*
X69984500Y-151954804D01*
X69984500Y-151972842D01*
X69984947Y-151977671D01*
X69986181Y-151988305D01*
X69987415Y-152014992D01*
X69987416Y-152014997D01*
X69990214Y-152021334D01*
X69998664Y-152048620D01*
X69999937Y-152055429D01*
X69999937Y-152055430D01*
X69999939Y-152055433D01*
X70014001Y-152078146D01*
X70021997Y-152093315D01*
X70032794Y-152117765D01*
X70032795Y-152117766D01*
X70032796Y-152117768D01*
X70037689Y-152122661D01*
X70055435Y-152145065D01*
X70059077Y-152150948D01*
X70059079Y-152150950D01*
X70059080Y-152150951D01*
X70059081Y-152150952D01*
X70078500Y-152165616D01*
X70080396Y-152167048D01*
X70093350Y-152178321D01*
X70742848Y-152827819D01*
X70776333Y-152889142D01*
X70771349Y-152958834D01*
X70729477Y-153014767D01*
X70664013Y-153039184D01*
X70655167Y-153039500D01*
X70575833Y-153039500D01*
X70508794Y-153019815D01*
X70488152Y-153003181D01*
X69383489Y-151898518D01*
X69350004Y-151837195D01*
X69354988Y-151767503D01*
X69377458Y-151729634D01*
X69397879Y-151706067D01*
X69397881Y-151706064D01*
X69397882Y-151706063D01*
X69451697Y-151588226D01*
X69470133Y-151460000D01*
X69451697Y-151331774D01*
X69397882Y-151213937D01*
X69313049Y-151116033D01*
X69204069Y-151045996D01*
X69204065Y-151045994D01*
X69204064Y-151045994D01*
X69079774Y-151009500D01*
X69079772Y-151009500D01*
X68950228Y-151009500D01*
X68950226Y-151009500D01*
X68825935Y-151045994D01*
X68825932Y-151045995D01*
X68825931Y-151045996D01*
X68774677Y-151078934D01*
X68716950Y-151116033D01*
X68632118Y-151213937D01*
X68632117Y-151213938D01*
X68578302Y-151331774D01*
X68559867Y-151460000D01*
X68578302Y-151588225D01*
X68632116Y-151706058D01*
X68632118Y-151706063D01*
X68684214Y-151766186D01*
X68713238Y-151829738D01*
X68714500Y-151847386D01*
X68714500Y-151887861D01*
X68713312Y-151904988D01*
X68712227Y-151912765D01*
X68714368Y-151959079D01*
X68714500Y-151964804D01*
X68714500Y-151982842D01*
X68714947Y-151987671D01*
X68716181Y-151998305D01*
X68717415Y-152024992D01*
X68717416Y-152024997D01*
X68720214Y-152031334D01*
X68728664Y-152058620D01*
X68729937Y-152065429D01*
X68729937Y-152065430D01*
X68729939Y-152065433D01*
X68744001Y-152088146D01*
X68751997Y-152103315D01*
X68762794Y-152127765D01*
X68762795Y-152127766D01*
X68762796Y-152127768D01*
X68767689Y-152132661D01*
X68785435Y-152155065D01*
X68789077Y-152160948D01*
X68789079Y-152160950D01*
X68789080Y-152160951D01*
X68789081Y-152160952D01*
X68810396Y-152177048D01*
X68823350Y-152188321D01*
X70140039Y-153505010D01*
X70151310Y-153517962D01*
X70156039Y-153524225D01*
X70190317Y-153555474D01*
X70194458Y-153559429D01*
X70207203Y-153572174D01*
X70210931Y-153575270D01*
X70219324Y-153581918D01*
X70239067Y-153599916D01*
X70244868Y-153602163D01*
X70245528Y-153602419D01*
X70270809Y-153615745D01*
X70276520Y-153619657D01*
X70302517Y-153625771D01*
X70318918Y-153630851D01*
X70343824Y-153640500D01*
X70343827Y-153640500D01*
X70350752Y-153640500D01*
X70379140Y-153643793D01*
X70385881Y-153645379D01*
X70412333Y-153641689D01*
X70429464Y-153640500D01*
X71041719Y-153640500D01*
X71108758Y-153660185D01*
X71129400Y-153676819D01*
X71640400Y-154187819D01*
X71673885Y-154249142D01*
X71668901Y-154318834D01*
X71627029Y-154374767D01*
X71561565Y-154399184D01*
X71552719Y-154399500D01*
X70675834Y-154399500D01*
X70608795Y-154379815D01*
X70588153Y-154363181D01*
X68118132Y-151893160D01*
X68084647Y-151831837D01*
X68089631Y-151762145D01*
X68112098Y-151724277D01*
X68127882Y-151706063D01*
X68181697Y-151588226D01*
X68200133Y-151460000D01*
X68181697Y-151331774D01*
X68127882Y-151213937D01*
X68043049Y-151116033D01*
X67934069Y-151045996D01*
X67934065Y-151045994D01*
X67934064Y-151045994D01*
X67809774Y-151009500D01*
X67809772Y-151009500D01*
X67680228Y-151009500D01*
X67680226Y-151009500D01*
X67555935Y-151045994D01*
X67555932Y-151045995D01*
X67555931Y-151045996D01*
X67504677Y-151078934D01*
X67446950Y-151116033D01*
X67362118Y-151213937D01*
X67362117Y-151213938D01*
X67308302Y-151331774D01*
X67289867Y-151460000D01*
X67308302Y-151588225D01*
X67362116Y-151706058D01*
X67362118Y-151706063D01*
X67414214Y-151766186D01*
X67443238Y-151829738D01*
X67444500Y-151847386D01*
X67444500Y-151877861D01*
X67443312Y-151894988D01*
X67442227Y-151902765D01*
X67444368Y-151949079D01*
X67444500Y-151954804D01*
X67444500Y-151972842D01*
X67444947Y-151977671D01*
X67446181Y-151988305D01*
X67447415Y-152014992D01*
X67447416Y-152014997D01*
X67450214Y-152021334D01*
X67458664Y-152048620D01*
X67459937Y-152055429D01*
X67459937Y-152055430D01*
X67459939Y-152055433D01*
X67474001Y-152078146D01*
X67481997Y-152093315D01*
X67492794Y-152117765D01*
X67492795Y-152117766D01*
X67492796Y-152117768D01*
X67497689Y-152122661D01*
X67515435Y-152145065D01*
X67519077Y-152150948D01*
X67519079Y-152150950D01*
X67519080Y-152150951D01*
X67519081Y-152150952D01*
X67538500Y-152165616D01*
X67540396Y-152167048D01*
X67553350Y-152178321D01*
X70240039Y-154865010D01*
X70251310Y-154877962D01*
X70256039Y-154884225D01*
X70290317Y-154915474D01*
X70294458Y-154919429D01*
X70307203Y-154932174D01*
X70310931Y-154935270D01*
X70319324Y-154941918D01*
X70328124Y-154949940D01*
X70339064Y-154959914D01*
X70339065Y-154959914D01*
X70339067Y-154959916D01*
X70345530Y-154962419D01*
X70370807Y-154975743D01*
X70376519Y-154979656D01*
X70402514Y-154985769D01*
X70418910Y-154990846D01*
X70443827Y-155000500D01*
X70450751Y-155000500D01*
X70479141Y-155003793D01*
X70485881Y-155005379D01*
X70508655Y-155002201D01*
X70512334Y-155001689D01*
X70529464Y-155000500D01*
X71694167Y-155000500D01*
X71761206Y-155020185D01*
X71781848Y-155036819D01*
X72813344Y-156068315D01*
X72846829Y-156129638D01*
X72841845Y-156199330D01*
X72799973Y-156255263D01*
X72734509Y-156279680D01*
X72725605Y-156279996D01*
X69804442Y-156278640D01*
X69737412Y-156258924D01*
X69691682Y-156206099D01*
X69680500Y-156154640D01*
X69680500Y-154907136D01*
X69681689Y-154890005D01*
X69682771Y-154882239D01*
X69682773Y-154882235D01*
X69680632Y-154835920D01*
X69680500Y-154830195D01*
X69680500Y-154812159D01*
X69680046Y-154807266D01*
X69678817Y-154796680D01*
X69678687Y-154793858D01*
X69677585Y-154770008D01*
X69674786Y-154763670D01*
X69666333Y-154736373D01*
X69665061Y-154729567D01*
X69651002Y-154706862D01*
X69642998Y-154691676D01*
X69639247Y-154683181D01*
X69632206Y-154667234D01*
X69627309Y-154662337D01*
X69609561Y-154639931D01*
X69608882Y-154638834D01*
X69605919Y-154634048D01*
X69584606Y-154617953D01*
X69571653Y-154606681D01*
X66852774Y-151887802D01*
X66819289Y-151826479D01*
X66824273Y-151756787D01*
X66846741Y-151718919D01*
X66857882Y-151706063D01*
X66911697Y-151588226D01*
X66930133Y-151460000D01*
X66911697Y-151331774D01*
X66857882Y-151213937D01*
X66773049Y-151116033D01*
X66664069Y-151045996D01*
X66664065Y-151045994D01*
X66664064Y-151045994D01*
X66539774Y-151009500D01*
X66539772Y-151009500D01*
X66410228Y-151009500D01*
X66410226Y-151009500D01*
X66285935Y-151045994D01*
X66285932Y-151045995D01*
X66285931Y-151045996D01*
X66234677Y-151078934D01*
X66176950Y-151116033D01*
X66092118Y-151213937D01*
X66092117Y-151213938D01*
X66038302Y-151331774D01*
X66019867Y-151460000D01*
X66038302Y-151588225D01*
X66092116Y-151706058D01*
X66092118Y-151706063D01*
X66144214Y-151766186D01*
X66173238Y-151829738D01*
X66174500Y-151847386D01*
X66174500Y-151867861D01*
X66173312Y-151884988D01*
X66172227Y-151892765D01*
X66174368Y-151939079D01*
X66174500Y-151944804D01*
X66174500Y-151962842D01*
X66174947Y-151967671D01*
X66176181Y-151978305D01*
X66177415Y-152004992D01*
X66177416Y-152004997D01*
X66180214Y-152011334D01*
X66188664Y-152038620D01*
X66189937Y-152045429D01*
X66189937Y-152045430D01*
X66189939Y-152045433D01*
X66204001Y-152068146D01*
X66211997Y-152083315D01*
X66222794Y-152107765D01*
X66222795Y-152107766D01*
X66222796Y-152107768D01*
X66227689Y-152112661D01*
X66245435Y-152135065D01*
X66249077Y-152140948D01*
X66249079Y-152140950D01*
X66249080Y-152140951D01*
X66249081Y-152140952D01*
X66268701Y-152155768D01*
X66270396Y-152157048D01*
X66283350Y-152168321D01*
X69043181Y-154928152D01*
X69076666Y-154989475D01*
X69079500Y-155015833D01*
X69079500Y-156154246D01*
X69059815Y-156221285D01*
X69007011Y-156267040D01*
X68955442Y-156278246D01*
X65629442Y-156276702D01*
X65562412Y-156256986D01*
X65516682Y-156204161D01*
X65505500Y-156152702D01*
X65505500Y-151847386D01*
X65525185Y-151780347D01*
X65535778Y-151766194D01*
X65587882Y-151706063D01*
X65641697Y-151588226D01*
X65660133Y-151460000D01*
X65641697Y-151331774D01*
X65587882Y-151213937D01*
X65503049Y-151116033D01*
X65394069Y-151045996D01*
X65394065Y-151045994D01*
X65394064Y-151045994D01*
X65269774Y-151009500D01*
X65269772Y-151009500D01*
X65140228Y-151009500D01*
X65140226Y-151009500D01*
X65015935Y-151045994D01*
X65015932Y-151045995D01*
X65015931Y-151045996D01*
X64964677Y-151078934D01*
X64906950Y-151116033D01*
X64822118Y-151213937D01*
X64822117Y-151213938D01*
X64768302Y-151331774D01*
X64749867Y-151460000D01*
X64768302Y-151588225D01*
X64822116Y-151706058D01*
X64822118Y-151706063D01*
X64874214Y-151766186D01*
X64903238Y-151829738D01*
X64904500Y-151847386D01*
X64904500Y-156152308D01*
X64884815Y-156219347D01*
X64832011Y-156265102D01*
X64780442Y-156276308D01*
X61941432Y-156274990D01*
X61874402Y-156255274D01*
X61834103Y-156212991D01*
X61833531Y-156212001D01*
X61782692Y-156123945D01*
X61782691Y-156123943D01*
X61782690Y-156123942D01*
X61670163Y-155989836D01*
X61536057Y-155877309D01*
X61384446Y-155789775D01*
X61219937Y-155729898D01*
X61047534Y-155699500D01*
X61047532Y-155699500D01*
X60995799Y-155699500D01*
X51924500Y-155699500D01*
X51857461Y-155679815D01*
X51811706Y-155627011D01*
X51800500Y-155575500D01*
X51800500Y-150840000D01*
X139594417Y-150840000D01*
X139614699Y-151045932D01*
X139635964Y-151116033D01*
X139674768Y-151243954D01*
X139772315Y-151426450D01*
X139772317Y-151426452D01*
X139903589Y-151586410D01*
X140000209Y-151665702D01*
X140063550Y-151717685D01*
X140246046Y-151815232D01*
X140444066Y-151875300D01*
X140444065Y-151875300D01*
X140446350Y-151875525D01*
X140650000Y-151895583D01*
X140855934Y-151875300D01*
X141053954Y-151815232D01*
X141236450Y-151717685D01*
X141396410Y-151586410D01*
X141527685Y-151426450D01*
X141625232Y-151243954D01*
X141685300Y-151045934D01*
X141705583Y-150840000D01*
X141685300Y-150634066D01*
X141625232Y-150436046D01*
X141527685Y-150253550D01*
X141475702Y-150190209D01*
X141396410Y-150093589D01*
X141236452Y-149962317D01*
X141236453Y-149962317D01*
X141236450Y-149962315D01*
X141053954Y-149864768D01*
X140855934Y-149804700D01*
X140855932Y-149804699D01*
X140855934Y-149804699D01*
X140650000Y-149784417D01*
X140444067Y-149804699D01*
X140246043Y-149864769D01*
X140135898Y-149923643D01*
X140063550Y-149962315D01*
X140063548Y-149962316D01*
X140063547Y-149962317D01*
X139903589Y-150093589D01*
X139772317Y-150253547D01*
X139674769Y-150436043D01*
X139614699Y-150634067D01*
X139594417Y-150840000D01*
X51800500Y-150840000D01*
X51800500Y-143270000D01*
X137984867Y-143270000D01*
X138003302Y-143398225D01*
X138057117Y-143516061D01*
X138057118Y-143516063D01*
X138141951Y-143613967D01*
X138250931Y-143684004D01*
X138375225Y-143720499D01*
X138375227Y-143720500D01*
X138375228Y-143720500D01*
X138504773Y-143720500D01*
X138504773Y-143720499D01*
X138629069Y-143684004D01*
X138738049Y-143613967D01*
X138822882Y-143516063D01*
X138876697Y-143398226D01*
X138895133Y-143270000D01*
X138876697Y-143141774D01*
X138822882Y-143023937D01*
X138822880Y-143023935D01*
X138822879Y-143023932D01*
X138770786Y-142963812D01*
X138741762Y-142900256D01*
X138740500Y-142882611D01*
X138740500Y-138265833D01*
X138760185Y-138198794D01*
X138776819Y-138178152D01*
X141598153Y-135356819D01*
X141659476Y-135323334D01*
X141685834Y-135320500D01*
X141724773Y-135320500D01*
X141724773Y-135320499D01*
X141849069Y-135284004D01*
X141958049Y-135213967D01*
X142042882Y-135116063D01*
X142096697Y-134998226D01*
X142115133Y-134870000D01*
X142096697Y-134741774D01*
X142042882Y-134623937D01*
X141958049Y-134526033D01*
X141849069Y-134455996D01*
X141849065Y-134455994D01*
X141849064Y-134455994D01*
X141724774Y-134419500D01*
X141724772Y-134419500D01*
X141595228Y-134419500D01*
X141595226Y-134419500D01*
X141470935Y-134455994D01*
X141470932Y-134455995D01*
X141470931Y-134455996D01*
X141419677Y-134488934D01*
X141361950Y-134526033D01*
X141277118Y-134623937D01*
X141277117Y-134623938D01*
X141223302Y-134741774D01*
X141205675Y-134864376D01*
X141176650Y-134927931D01*
X141170618Y-134934409D01*
X138274986Y-137830041D01*
X138262035Y-137841312D01*
X138255767Y-137846044D01*
X138224522Y-137880318D01*
X138220574Y-137884453D01*
X138207827Y-137897200D01*
X138204746Y-137900911D01*
X138198085Y-137909319D01*
X138180083Y-137929066D01*
X138180083Y-137929067D01*
X138177578Y-137935533D01*
X138164259Y-137960802D01*
X138160345Y-137966515D01*
X138160343Y-137966520D01*
X138154228Y-137992517D01*
X138149151Y-138008913D01*
X138139500Y-138033826D01*
X138139500Y-138040751D01*
X138136206Y-138069141D01*
X138134621Y-138075877D01*
X138134621Y-138075882D01*
X138138311Y-138102333D01*
X138139500Y-138119464D01*
X138139500Y-142882611D01*
X138119815Y-142949650D01*
X138109214Y-142963812D01*
X138057120Y-143023932D01*
X138057117Y-143023938D01*
X138003302Y-143141774D01*
X137984867Y-143270000D01*
X51800500Y-143270000D01*
X51800500Y-129941963D01*
X125179500Y-129941963D01*
X125187190Y-129968154D01*
X125190947Y-129985423D01*
X125194835Y-130012455D01*
X125194835Y-130012457D01*
X125206173Y-130037283D01*
X125212355Y-130053858D01*
X125220047Y-130080053D01*
X125234801Y-130103012D01*
X125234806Y-130103019D01*
X125243282Y-130118541D01*
X125254623Y-130143373D01*
X125266437Y-130157007D01*
X125272496Y-130164000D01*
X125283095Y-130178160D01*
X125297853Y-130201123D01*
X125297857Y-130201128D01*
X125318488Y-130219006D01*
X125330992Y-130231510D01*
X125348870Y-130252141D01*
X125348872Y-130252143D01*
X125371844Y-130266905D01*
X125385996Y-130277500D01*
X125406627Y-130295377D01*
X125429899Y-130306005D01*
X125431451Y-130306714D01*
X125446978Y-130315192D01*
X125469947Y-130329953D01*
X125496136Y-130337643D01*
X125512713Y-130343826D01*
X125537538Y-130355163D01*
X125537539Y-130355163D01*
X125537543Y-130355165D01*
X125564564Y-130359050D01*
X125581846Y-130362809D01*
X125608039Y-130370500D01*
X128771960Y-130370500D01*
X128771961Y-130370500D01*
X128798153Y-130362809D01*
X128815436Y-130359050D01*
X128819882Y-130358410D01*
X128842457Y-130355165D01*
X128867287Y-130343824D01*
X128883862Y-130337642D01*
X128910053Y-130329953D01*
X128933020Y-130315192D01*
X128948540Y-130306717D01*
X128973373Y-130295377D01*
X128994006Y-130277497D01*
X129008148Y-130266910D01*
X129031128Y-130252143D01*
X129049015Y-130231499D01*
X129061499Y-130219015D01*
X129082143Y-130201128D01*
X129096910Y-130178148D01*
X129107497Y-130164006D01*
X129125377Y-130143373D01*
X129136717Y-130118540D01*
X129145193Y-130103019D01*
X129159953Y-130080053D01*
X129167644Y-130053858D01*
X129173824Y-130037287D01*
X129185165Y-130012457D01*
X129189050Y-129985435D01*
X129192809Y-129968153D01*
X129200500Y-129941961D01*
X129200500Y-129798039D01*
X129200500Y-121754201D01*
X129200500Y-121718039D01*
X129192808Y-121691842D01*
X129189050Y-121674564D01*
X129185165Y-121647546D01*
X129185165Y-121647544D01*
X129185165Y-121647543D01*
X129185163Y-121647538D01*
X129173826Y-121622713D01*
X129167643Y-121606136D01*
X129159953Y-121579948D01*
X129159953Y-121579946D01*
X129145192Y-121556978D01*
X129136714Y-121541451D01*
X129136005Y-121539899D01*
X129125377Y-121516627D01*
X129107500Y-121495996D01*
X129096903Y-121481840D01*
X129082143Y-121458872D01*
X129082142Y-121458871D01*
X129061510Y-121440992D01*
X129049006Y-121428488D01*
X129031128Y-121407857D01*
X129031123Y-121407853D01*
X129008160Y-121393095D01*
X128994000Y-121382496D01*
X128987007Y-121376437D01*
X128973373Y-121364623D01*
X128948541Y-121353282D01*
X128933019Y-121344806D01*
X128933017Y-121344805D01*
X128910053Y-121330047D01*
X128910051Y-121330046D01*
X128883858Y-121322355D01*
X128867288Y-121316174D01*
X128842457Y-121304835D01*
X128815423Y-121300947D01*
X128798154Y-121297190D01*
X128771963Y-121289500D01*
X128771961Y-121289500D01*
X128735799Y-121289500D01*
X125751961Y-121289500D01*
X125608039Y-121289500D01*
X125608036Y-121289500D01*
X125608034Y-121289501D01*
X125581842Y-121297190D01*
X125564568Y-121300948D01*
X125537544Y-121304834D01*
X125537541Y-121304835D01*
X125512710Y-121316175D01*
X125496141Y-121322355D01*
X125483171Y-121326163D01*
X125469947Y-121330047D01*
X125469945Y-121330047D01*
X125469945Y-121330048D01*
X125446982Y-121344805D01*
X125431461Y-121353280D01*
X125406628Y-121364621D01*
X125406625Y-121364623D01*
X125386000Y-121382495D01*
X125371840Y-121393095D01*
X125348876Y-121407853D01*
X125348871Y-121407857D01*
X125330993Y-121428489D01*
X125318489Y-121440993D01*
X125297857Y-121458871D01*
X125297853Y-121458876D01*
X125283095Y-121481840D01*
X125272495Y-121496000D01*
X125254623Y-121516625D01*
X125254621Y-121516628D01*
X125243280Y-121541461D01*
X125234805Y-121556982D01*
X125220048Y-121579945D01*
X125212355Y-121606141D01*
X125206175Y-121622710D01*
X125194835Y-121647541D01*
X125194834Y-121647544D01*
X125190948Y-121674568D01*
X125187190Y-121691842D01*
X125179501Y-121718034D01*
X125179500Y-121718042D01*
X125179500Y-129941963D01*
X51800500Y-129941963D01*
X51800500Y-115557500D01*
X107207500Y-115557500D01*
X107207500Y-129877500D01*
X115827500Y-129877500D01*
X115827500Y-115557500D01*
X107207500Y-115557500D01*
X51800500Y-115557500D01*
X51800500Y-105824500D01*
X51820185Y-105757461D01*
X51872989Y-105711706D01*
X51924500Y-105700500D01*
X158175500Y-105700500D01*
X158242539Y-105720185D01*
G37*
%TD.AperFunction*%
%TD*%
M02*
