%TF.GenerationSoftware,KiCad,Pcbnew,7.0.11*%
%TF.CreationDate,2024-04-16T11:56:58+02:00*%
%TF.ProjectId,kim-1-programmable-memory,6b696d2d-312d-4707-926f-6772616d6d61,rev?*%
%TF.SameCoordinates,Original*%
%TF.FileFunction,Copper,L3,Inr*%
%TF.FilePolarity,Positive*%
%FSLAX46Y46*%
G04 Gerber Fmt 4.6, Leading zero omitted, Abs format (unit mm)*
G04 Created by KiCad (PCBNEW 7.0.11) date 2024-04-16 11:56:58*
%MOMM*%
%LPD*%
G01*
G04 APERTURE LIST*
%TA.AperFunction,ComponentPad*%
%ADD10C,3.616000*%
%TD*%
%TA.AperFunction,ComponentPad*%
%ADD11C,4.000000*%
%TD*%
%TA.AperFunction,ComponentPad*%
%ADD12C,1.600000*%
%TD*%
%TA.AperFunction,ViaPad*%
%ADD13C,0.500000*%
%TD*%
%TA.AperFunction,ViaPad*%
%ADD14C,0.600000*%
%TD*%
%TA.AperFunction,ViaPad*%
%ADD15C,1.000000*%
%TD*%
%TA.AperFunction,ViaPad*%
%ADD16C,1.600000*%
%TD*%
G04 APERTURE END LIST*
D10*
%TO.N,GND*%
%TO.C,J4*%
X116040000Y-91342500D03*
X121040000Y-95842500D03*
X111040000Y-95842500D03*
%TD*%
D11*
%TO.N,GND*%
%TO.C,J3*%
X154065000Y-93800000D03*
X129065000Y-93800000D03*
D12*
X146410000Y-95850000D03*
X136105000Y-93870000D03*
X138395000Y-93870000D03*
X140685000Y-93870000D03*
X145265000Y-93870000D03*
%TD*%
D13*
%TO.N,GND*%
X131150000Y-154160000D03*
X125770000Y-154160000D03*
X153800000Y-153430000D03*
X100925000Y-118420000D03*
X100925000Y-133420000D03*
X156300000Y-103430000D03*
X146300000Y-103430000D03*
X116300000Y-103430000D03*
X106300000Y-93430000D03*
X106300000Y-103430000D03*
X85925000Y-133420000D03*
X76463909Y-133483909D03*
X66300000Y-153430000D03*
X66300000Y-143430000D03*
X66300000Y-133430000D03*
X56300000Y-153430000D03*
X56300000Y-143430000D03*
X56300000Y-133430000D03*
X76300000Y-123430000D03*
X66300000Y-123430000D03*
X56300000Y-123430000D03*
X86300000Y-113430000D03*
X76300000Y-113430000D03*
X56300000Y-113430000D03*
X66300000Y-103430000D03*
X56300000Y-103430000D03*
X76300000Y-93430000D03*
X66300000Y-93430000D03*
X56300000Y-93430000D03*
X127635545Y-105410883D03*
X132520000Y-105740000D03*
X133698909Y-102581091D03*
X129280000Y-101470000D03*
X127000000Y-102340000D03*
X101200000Y-92520000D03*
X87930000Y-104870000D03*
X92460000Y-108980000D03*
X87350000Y-110020000D03*
X107090000Y-130930000D03*
X141232864Y-142645797D03*
X136960000Y-129630000D03*
X141957841Y-129617703D03*
X109880000Y-137640000D03*
X114940000Y-136380000D03*
X117490000Y-136390000D03*
X120670658Y-134894901D03*
X133090000Y-142150000D03*
X128880000Y-143065958D03*
X129901078Y-148628896D03*
X124920000Y-146517500D03*
X129997570Y-151940000D03*
X124790000Y-151940000D03*
D14*
X126890000Y-148650000D03*
X151817500Y-110660000D03*
X151817500Y-115190000D03*
X139117500Y-110660000D03*
X139117500Y-115190000D03*
X126417500Y-110660000D03*
X126417500Y-115190000D03*
X114120000Y-114250000D03*
X113290000Y-114250000D03*
X124350000Y-97990000D03*
X124350000Y-100940000D03*
X136360000Y-104780000D03*
X82010000Y-92850000D03*
X79800000Y-92850000D03*
X97510000Y-92850000D03*
X95300000Y-92850000D03*
X97510000Y-102150000D03*
X95300000Y-102150000D03*
X101490000Y-95130000D03*
X83120000Y-102400000D03*
X80500000Y-102400000D03*
X91910000Y-104760000D03*
X91910000Y-102150000D03*
X86950000Y-107210000D03*
X86950000Y-105750000D03*
X151817500Y-130250000D03*
X151817500Y-134780000D03*
X139117500Y-130250000D03*
X139117500Y-134780000D03*
X126417500Y-134780000D03*
X126417500Y-130250000D03*
X113717500Y-134780000D03*
X113717500Y-130250000D03*
X62800000Y-139010000D03*
X65210000Y-142130000D03*
X103935000Y-142110000D03*
X103935000Y-139340000D03*
X131970000Y-148650000D03*
X139780000Y-144660000D03*
D15*
X147620000Y-145630000D03*
D14*
X85210000Y-139270000D03*
D13*
X74740000Y-151790000D03*
X68390000Y-151790000D03*
X85808909Y-151831091D03*
D14*
X141040000Y-137820000D03*
X65210000Y-139320000D03*
D16*
X148580000Y-154970000D03*
D13*
X92158909Y-151831091D03*
X87078909Y-151831091D03*
D14*
X82050000Y-137877500D03*
X123050000Y-139670000D03*
D13*
X69660000Y-151790000D03*
D15*
X144620000Y-149240000D03*
D13*
X94698909Y-151831091D03*
D14*
X146040000Y-141110000D03*
X61750000Y-137877500D03*
X120250000Y-150030000D03*
D13*
X73470000Y-151790000D03*
X72200000Y-151790000D03*
D14*
X130250000Y-139670000D03*
X146040000Y-142960000D03*
X132750000Y-139670000D03*
X125550000Y-139670000D03*
D13*
X67120000Y-151790000D03*
D14*
X63935000Y-148600000D03*
D13*
X88348909Y-151831091D03*
X93428909Y-151831091D03*
D14*
X95365000Y-151460000D03*
D13*
X65850000Y-151790000D03*
X75365000Y-148600000D03*
D15*
X150670000Y-145630000D03*
D14*
X119820000Y-145080000D03*
X63935000Y-151460000D03*
X146040000Y-136920000D03*
D13*
X90888909Y-151831091D03*
D15*
X143200000Y-150510000D03*
D13*
X75365000Y-151460000D03*
X89618909Y-151831091D03*
D14*
X146040000Y-138720000D03*
D13*
X70930000Y-151790000D03*
%TD*%
%TA.AperFunction,Conductor*%
%TO.N,GND*%
G36*
X115281306Y-88950185D02*
G01*
X115327061Y-89002989D01*
X115337005Y-89072147D01*
X115307980Y-89135703D01*
X115254126Y-89171919D01*
X115154876Y-89205609D01*
X115154855Y-89205618D01*
X114883531Y-89339420D01*
X114631958Y-89507516D01*
X114592859Y-89541804D01*
X114592859Y-89541806D01*
X115314527Y-90263473D01*
X115201184Y-90342838D01*
X115040338Y-90503684D01*
X114960974Y-90617027D01*
X114239306Y-89895359D01*
X114239304Y-89895359D01*
X114205016Y-89934458D01*
X114036920Y-90186031D01*
X113903118Y-90457355D01*
X113903109Y-90457376D01*
X113805862Y-90743855D01*
X113805859Y-90743869D01*
X113746838Y-91040588D01*
X113746834Y-91040615D01*
X113727048Y-91342492D01*
X113727048Y-91342507D01*
X113746834Y-91644384D01*
X113746838Y-91644411D01*
X113805859Y-91941130D01*
X113805862Y-91941144D01*
X113903109Y-92227623D01*
X113903118Y-92227644D01*
X114036920Y-92498968D01*
X114036925Y-92498975D01*
X114205009Y-92750534D01*
X114239305Y-92789640D01*
X114960973Y-92067971D01*
X115040338Y-92181316D01*
X115201184Y-92342162D01*
X115314526Y-92421525D01*
X114592858Y-93143193D01*
X114592859Y-93143194D01*
X114631965Y-93177489D01*
X114883524Y-93345574D01*
X114883531Y-93345579D01*
X115154855Y-93479381D01*
X115154876Y-93479390D01*
X115441355Y-93576637D01*
X115441369Y-93576640D01*
X115738088Y-93635661D01*
X115738115Y-93635665D01*
X116039993Y-93655452D01*
X116040007Y-93655452D01*
X116341884Y-93635665D01*
X116341911Y-93635661D01*
X116638630Y-93576640D01*
X116638644Y-93576637D01*
X116925123Y-93479390D01*
X116925144Y-93479381D01*
X117196468Y-93345579D01*
X117196475Y-93345574D01*
X117448028Y-93177493D01*
X117448039Y-93177485D01*
X117487139Y-93143194D01*
X117487139Y-93143193D01*
X116765472Y-92421525D01*
X116878816Y-92342162D01*
X117039662Y-92181316D01*
X117119026Y-92067972D01*
X117840693Y-92789639D01*
X117840694Y-92789639D01*
X117874985Y-92750539D01*
X117874993Y-92750528D01*
X118043074Y-92498975D01*
X118043079Y-92498968D01*
X118176881Y-92227644D01*
X118176890Y-92227623D01*
X118274137Y-91941144D01*
X118274140Y-91941130D01*
X118333161Y-91644411D01*
X118333165Y-91644384D01*
X118352952Y-91342507D01*
X118352952Y-91342492D01*
X118333165Y-91040615D01*
X118333161Y-91040588D01*
X118274140Y-90743869D01*
X118274137Y-90743855D01*
X118176890Y-90457376D01*
X118176881Y-90457355D01*
X118043079Y-90186031D01*
X118043074Y-90186024D01*
X117874989Y-89934465D01*
X117840694Y-89895359D01*
X117840693Y-89895358D01*
X117119025Y-90617026D01*
X117039662Y-90503684D01*
X116878816Y-90342838D01*
X116765472Y-90263473D01*
X117487140Y-89541805D01*
X117487140Y-89541804D01*
X117448034Y-89507509D01*
X117196475Y-89339425D01*
X117196468Y-89339420D01*
X116925144Y-89205618D01*
X116925123Y-89205609D01*
X116825874Y-89171919D01*
X116768720Y-89131730D01*
X116742367Y-89067021D01*
X116755181Y-88998336D01*
X116803095Y-88947483D01*
X116865733Y-88930500D01*
X158175500Y-88930500D01*
X158242539Y-88950185D01*
X158288294Y-89002989D01*
X158299500Y-89054500D01*
X158299500Y-155575500D01*
X158279815Y-155642539D01*
X158227011Y-155688294D01*
X158175500Y-155699500D01*
X153858872Y-155699500D01*
X153627990Y-155729898D01*
X153598884Y-155733730D01*
X153398091Y-155787532D01*
X153345581Y-155801602D01*
X153345571Y-155801605D01*
X153103309Y-155901953D01*
X153103299Y-155901958D01*
X152876201Y-156033072D01*
X152668148Y-156192718D01*
X152557784Y-156303082D01*
X152496461Y-156336566D01*
X152470091Y-156339400D01*
X61973820Y-156331007D01*
X61906783Y-156311316D01*
X61866445Y-156269008D01*
X61782692Y-156123945D01*
X61782691Y-156123943D01*
X61782690Y-156123942D01*
X61670163Y-155989836D01*
X61536057Y-155877309D01*
X61384446Y-155789775D01*
X61219937Y-155729898D01*
X61047534Y-155699500D01*
X61047532Y-155699500D01*
X60995799Y-155699500D01*
X51924500Y-155699500D01*
X51857461Y-155679815D01*
X51811706Y-155627011D01*
X51800500Y-155575500D01*
X51800500Y-153423933D01*
X139895668Y-153423933D01*
X139911058Y-153511210D01*
X139926135Y-153596711D01*
X139995623Y-153757804D01*
X139995624Y-153757806D01*
X139995626Y-153757809D01*
X140050278Y-153831218D01*
X140100390Y-153898530D01*
X140234786Y-154011302D01*
X140312488Y-154050325D01*
X140391562Y-154090038D01*
X140391563Y-154090038D01*
X140391567Y-154090040D01*
X140562279Y-154130500D01*
X140562282Y-154130500D01*
X140693701Y-154130500D01*
X140693709Y-154130500D01*
X140824255Y-154115241D01*
X140989117Y-154055237D01*
X141135696Y-153958830D01*
X141256092Y-153831218D01*
X141343812Y-153679281D01*
X141394130Y-153511210D01*
X141404331Y-153336065D01*
X141373865Y-153163289D01*
X141304377Y-153002196D01*
X141199610Y-152861470D01*
X141127747Y-152801170D01*
X141065214Y-152748698D01*
X141065212Y-152748697D01*
X140908437Y-152669961D01*
X140908433Y-152669960D01*
X140737721Y-152629500D01*
X140606291Y-152629500D01*
X140501854Y-152641707D01*
X140475743Y-152644759D01*
X140475740Y-152644760D01*
X140310884Y-152704762D01*
X140310880Y-152704764D01*
X140164306Y-152801167D01*
X140164305Y-152801168D01*
X140043910Y-152928778D01*
X139956188Y-153080718D01*
X139905870Y-153248789D01*
X139905869Y-153248794D01*
X139895668Y-153423933D01*
X51800500Y-153423933D01*
X51800500Y-151460002D01*
X64850131Y-151460002D01*
X64867498Y-151569658D01*
X64917904Y-151668585D01*
X64917909Y-151668592D01*
X64996407Y-151747090D01*
X64996410Y-151747092D01*
X64996413Y-151747095D01*
X65095339Y-151797500D01*
X65095341Y-151797501D01*
X65204998Y-151814869D01*
X65205000Y-151814869D01*
X65205002Y-151814869D01*
X65314658Y-151797501D01*
X65314659Y-151797500D01*
X65314661Y-151797500D01*
X65413587Y-151747095D01*
X65492095Y-151668587D01*
X65542500Y-151569661D01*
X65542500Y-151569659D01*
X65542501Y-151569658D01*
X65559869Y-151460002D01*
X66120131Y-151460002D01*
X66137498Y-151569658D01*
X66187904Y-151668585D01*
X66187909Y-151668592D01*
X66266407Y-151747090D01*
X66266410Y-151747092D01*
X66266413Y-151747095D01*
X66365339Y-151797500D01*
X66365341Y-151797501D01*
X66474998Y-151814869D01*
X66475000Y-151814869D01*
X66475002Y-151814869D01*
X66584658Y-151797501D01*
X66584659Y-151797500D01*
X66584661Y-151797500D01*
X66683587Y-151747095D01*
X66762095Y-151668587D01*
X66812500Y-151569661D01*
X66812500Y-151569659D01*
X66812501Y-151569658D01*
X66829869Y-151460002D01*
X67390131Y-151460002D01*
X67407498Y-151569658D01*
X67457904Y-151668585D01*
X67457909Y-151668592D01*
X67536407Y-151747090D01*
X67536410Y-151747092D01*
X67536413Y-151747095D01*
X67635339Y-151797500D01*
X67635341Y-151797501D01*
X67744998Y-151814869D01*
X67745000Y-151814869D01*
X67745002Y-151814869D01*
X67854658Y-151797501D01*
X67854659Y-151797500D01*
X67854661Y-151797500D01*
X67953587Y-151747095D01*
X68032095Y-151668587D01*
X68082500Y-151569661D01*
X68082500Y-151569659D01*
X68082501Y-151569658D01*
X68099869Y-151460002D01*
X68660131Y-151460002D01*
X68677498Y-151569658D01*
X68727904Y-151668585D01*
X68727909Y-151668592D01*
X68806407Y-151747090D01*
X68806410Y-151747092D01*
X68806413Y-151747095D01*
X68905339Y-151797500D01*
X68905341Y-151797501D01*
X69014998Y-151814869D01*
X69015000Y-151814869D01*
X69015002Y-151814869D01*
X69124658Y-151797501D01*
X69124659Y-151797500D01*
X69124661Y-151797500D01*
X69223587Y-151747095D01*
X69302095Y-151668587D01*
X69352500Y-151569661D01*
X69352500Y-151569659D01*
X69352501Y-151569658D01*
X69369869Y-151460002D01*
X69930131Y-151460002D01*
X69947498Y-151569658D01*
X69997904Y-151668585D01*
X69997909Y-151668592D01*
X70076407Y-151747090D01*
X70076410Y-151747092D01*
X70076413Y-151747095D01*
X70175339Y-151797500D01*
X70175341Y-151797501D01*
X70284998Y-151814869D01*
X70285000Y-151814869D01*
X70285002Y-151814869D01*
X70394658Y-151797501D01*
X70394659Y-151797500D01*
X70394661Y-151797500D01*
X70493587Y-151747095D01*
X70572095Y-151668587D01*
X70622500Y-151569661D01*
X70622500Y-151569659D01*
X70622501Y-151569658D01*
X70639869Y-151460002D01*
X71200131Y-151460002D01*
X71217498Y-151569658D01*
X71267904Y-151668585D01*
X71267909Y-151668592D01*
X71346407Y-151747090D01*
X71346410Y-151747092D01*
X71346413Y-151747095D01*
X71445339Y-151797500D01*
X71445341Y-151797501D01*
X71554998Y-151814869D01*
X71555000Y-151814869D01*
X71555002Y-151814869D01*
X71664658Y-151797501D01*
X71664659Y-151797500D01*
X71664661Y-151797500D01*
X71763587Y-151747095D01*
X71842095Y-151668587D01*
X71892500Y-151569661D01*
X71892500Y-151569659D01*
X71892501Y-151569658D01*
X71909869Y-151460002D01*
X72470131Y-151460002D01*
X72487498Y-151569658D01*
X72537904Y-151668585D01*
X72537909Y-151668592D01*
X72616407Y-151747090D01*
X72616410Y-151747092D01*
X72616413Y-151747095D01*
X72715339Y-151797500D01*
X72715341Y-151797501D01*
X72824998Y-151814869D01*
X72825000Y-151814869D01*
X72825002Y-151814869D01*
X72934658Y-151797501D01*
X72934659Y-151797500D01*
X72934661Y-151797500D01*
X73033587Y-151747095D01*
X73112095Y-151668587D01*
X73162500Y-151569661D01*
X73162500Y-151569659D01*
X73162501Y-151569658D01*
X73179869Y-151460002D01*
X73740131Y-151460002D01*
X73757498Y-151569658D01*
X73807904Y-151668585D01*
X73807909Y-151668592D01*
X73886407Y-151747090D01*
X73886410Y-151747092D01*
X73886413Y-151747095D01*
X73985339Y-151797500D01*
X73985341Y-151797501D01*
X74094998Y-151814869D01*
X74095000Y-151814869D01*
X74095002Y-151814869D01*
X74204658Y-151797501D01*
X74204659Y-151797500D01*
X74204661Y-151797500D01*
X74303587Y-151747095D01*
X74382095Y-151668587D01*
X74432500Y-151569661D01*
X74432500Y-151569659D01*
X74432501Y-151569658D01*
X74449869Y-151460002D01*
X84850131Y-151460002D01*
X84867498Y-151569658D01*
X84917904Y-151668585D01*
X84917909Y-151668592D01*
X84996407Y-151747090D01*
X84996410Y-151747092D01*
X84996413Y-151747095D01*
X85095339Y-151797500D01*
X85095341Y-151797501D01*
X85204998Y-151814869D01*
X85205000Y-151814869D01*
X85205002Y-151814869D01*
X85314658Y-151797501D01*
X85314659Y-151797500D01*
X85314661Y-151797500D01*
X85413587Y-151747095D01*
X85492095Y-151668587D01*
X85542500Y-151569661D01*
X85542500Y-151569659D01*
X85542501Y-151569658D01*
X85559869Y-151460002D01*
X86120131Y-151460002D01*
X86137498Y-151569658D01*
X86187904Y-151668585D01*
X86187909Y-151668592D01*
X86266407Y-151747090D01*
X86266410Y-151747092D01*
X86266413Y-151747095D01*
X86365339Y-151797500D01*
X86365341Y-151797501D01*
X86474998Y-151814869D01*
X86475000Y-151814869D01*
X86475002Y-151814869D01*
X86584658Y-151797501D01*
X86584659Y-151797500D01*
X86584661Y-151797500D01*
X86683587Y-151747095D01*
X86762095Y-151668587D01*
X86812500Y-151569661D01*
X86812500Y-151569659D01*
X86812501Y-151569658D01*
X86829869Y-151460002D01*
X87390131Y-151460002D01*
X87407498Y-151569658D01*
X87457904Y-151668585D01*
X87457909Y-151668592D01*
X87536407Y-151747090D01*
X87536410Y-151747092D01*
X87536413Y-151747095D01*
X87635339Y-151797500D01*
X87635341Y-151797501D01*
X87744998Y-151814869D01*
X87745000Y-151814869D01*
X87745002Y-151814869D01*
X87854658Y-151797501D01*
X87854659Y-151797500D01*
X87854661Y-151797500D01*
X87953587Y-151747095D01*
X88032095Y-151668587D01*
X88082500Y-151569661D01*
X88082500Y-151569659D01*
X88082501Y-151569658D01*
X88099869Y-151460002D01*
X88660131Y-151460002D01*
X88677498Y-151569658D01*
X88727904Y-151668585D01*
X88727909Y-151668592D01*
X88806407Y-151747090D01*
X88806410Y-151747092D01*
X88806413Y-151747095D01*
X88905339Y-151797500D01*
X88905341Y-151797501D01*
X89014998Y-151814869D01*
X89015000Y-151814869D01*
X89015002Y-151814869D01*
X89124658Y-151797501D01*
X89124659Y-151797500D01*
X89124661Y-151797500D01*
X89223587Y-151747095D01*
X89302095Y-151668587D01*
X89352500Y-151569661D01*
X89352500Y-151569659D01*
X89352501Y-151569658D01*
X89369869Y-151460002D01*
X89930131Y-151460002D01*
X89947498Y-151569658D01*
X89997904Y-151668585D01*
X89997909Y-151668592D01*
X90076407Y-151747090D01*
X90076410Y-151747092D01*
X90076413Y-151747095D01*
X90175339Y-151797500D01*
X90175341Y-151797501D01*
X90284998Y-151814869D01*
X90285000Y-151814869D01*
X90285002Y-151814869D01*
X90394658Y-151797501D01*
X90394659Y-151797500D01*
X90394661Y-151797500D01*
X90493587Y-151747095D01*
X90572095Y-151668587D01*
X90622500Y-151569661D01*
X90622500Y-151569659D01*
X90622501Y-151569658D01*
X90639869Y-151460002D01*
X91200131Y-151460002D01*
X91217498Y-151569658D01*
X91267904Y-151668585D01*
X91267909Y-151668592D01*
X91346407Y-151747090D01*
X91346410Y-151747092D01*
X91346413Y-151747095D01*
X91445339Y-151797500D01*
X91445341Y-151797501D01*
X91554998Y-151814869D01*
X91555000Y-151814869D01*
X91555002Y-151814869D01*
X91664658Y-151797501D01*
X91664659Y-151797500D01*
X91664661Y-151797500D01*
X91763587Y-151747095D01*
X91842095Y-151668587D01*
X91892500Y-151569661D01*
X91892500Y-151569659D01*
X91892501Y-151569658D01*
X91909869Y-151460002D01*
X92470131Y-151460002D01*
X92487498Y-151569658D01*
X92537904Y-151668585D01*
X92537909Y-151668592D01*
X92616407Y-151747090D01*
X92616410Y-151747092D01*
X92616413Y-151747095D01*
X92715339Y-151797500D01*
X92715341Y-151797501D01*
X92824998Y-151814869D01*
X92825000Y-151814869D01*
X92825002Y-151814869D01*
X92934658Y-151797501D01*
X92934659Y-151797500D01*
X92934661Y-151797500D01*
X93033587Y-151747095D01*
X93112095Y-151668587D01*
X93162500Y-151569661D01*
X93162500Y-151569659D01*
X93162501Y-151569658D01*
X93179869Y-151460002D01*
X93740131Y-151460002D01*
X93757498Y-151569658D01*
X93807904Y-151668585D01*
X93807909Y-151668592D01*
X93886407Y-151747090D01*
X93886410Y-151747092D01*
X93886413Y-151747095D01*
X93985339Y-151797500D01*
X93985341Y-151797501D01*
X94094998Y-151814869D01*
X94095000Y-151814869D01*
X94095002Y-151814869D01*
X94204658Y-151797501D01*
X94204659Y-151797500D01*
X94204661Y-151797500D01*
X94303587Y-151747095D01*
X94382095Y-151668587D01*
X94432500Y-151569661D01*
X94432500Y-151569659D01*
X94432501Y-151569658D01*
X94449869Y-151460002D01*
X94449869Y-151459997D01*
X94438783Y-151390002D01*
X123995131Y-151390002D01*
X124012498Y-151499658D01*
X124062904Y-151598585D01*
X124062909Y-151598592D01*
X124141407Y-151677090D01*
X124141410Y-151677092D01*
X124141413Y-151677095D01*
X124240339Y-151727500D01*
X124240341Y-151727501D01*
X124349998Y-151744869D01*
X124350000Y-151744869D01*
X124350002Y-151744869D01*
X124459658Y-151727501D01*
X124459659Y-151727500D01*
X124459661Y-151727500D01*
X124558587Y-151677095D01*
X124637095Y-151598587D01*
X124687500Y-151499661D01*
X124687500Y-151499659D01*
X124687501Y-151499658D01*
X124704869Y-151390002D01*
X129075131Y-151390002D01*
X129092498Y-151499658D01*
X129142904Y-151598585D01*
X129142909Y-151598592D01*
X129221407Y-151677090D01*
X129221410Y-151677092D01*
X129221413Y-151677095D01*
X129320339Y-151727500D01*
X129320341Y-151727501D01*
X129429998Y-151744869D01*
X129430000Y-151744869D01*
X129430002Y-151744869D01*
X129539658Y-151727501D01*
X129539659Y-151727500D01*
X129539661Y-151727500D01*
X129638587Y-151677095D01*
X129717095Y-151598587D01*
X129767500Y-151499661D01*
X129767500Y-151499659D01*
X129767501Y-151499658D01*
X129784869Y-151390002D01*
X129784869Y-151389997D01*
X129767501Y-151280341D01*
X129752762Y-151251414D01*
X129717095Y-151181413D01*
X129717092Y-151181410D01*
X129717090Y-151181407D01*
X129638592Y-151102909D01*
X129638588Y-151102906D01*
X129638587Y-151102905D01*
X129547926Y-151056711D01*
X129539658Y-151052498D01*
X129430002Y-151035131D01*
X129429998Y-151035131D01*
X129320341Y-151052498D01*
X129221414Y-151102904D01*
X129221407Y-151102909D01*
X129142909Y-151181407D01*
X129142904Y-151181414D01*
X129092498Y-151280341D01*
X129075131Y-151389997D01*
X129075131Y-151390002D01*
X124704869Y-151390002D01*
X124704869Y-151389997D01*
X124687501Y-151280341D01*
X124672762Y-151251414D01*
X124637095Y-151181413D01*
X124637092Y-151181410D01*
X124637090Y-151181407D01*
X124558592Y-151102909D01*
X124558588Y-151102906D01*
X124558587Y-151102905D01*
X124467926Y-151056711D01*
X124459658Y-151052498D01*
X124350002Y-151035131D01*
X124349998Y-151035131D01*
X124240341Y-151052498D01*
X124141414Y-151102904D01*
X124141407Y-151102909D01*
X124062909Y-151181407D01*
X124062904Y-151181414D01*
X124012498Y-151280341D01*
X123995131Y-151389997D01*
X123995131Y-151390002D01*
X94438783Y-151390002D01*
X94432501Y-151350341D01*
X94402378Y-151291221D01*
X94382095Y-151251413D01*
X94382092Y-151251410D01*
X94382090Y-151251407D01*
X94303592Y-151172909D01*
X94303588Y-151172906D01*
X94303587Y-151172905D01*
X94237596Y-151139281D01*
X94204658Y-151122498D01*
X94095002Y-151105131D01*
X94094998Y-151105131D01*
X93985341Y-151122498D01*
X93886414Y-151172904D01*
X93886407Y-151172909D01*
X93807909Y-151251407D01*
X93807904Y-151251414D01*
X93757498Y-151350341D01*
X93740131Y-151459997D01*
X93740131Y-151460002D01*
X93179869Y-151460002D01*
X93179869Y-151459997D01*
X93162501Y-151350341D01*
X93132378Y-151291221D01*
X93112095Y-151251413D01*
X93112092Y-151251410D01*
X93112090Y-151251407D01*
X93033592Y-151172909D01*
X93033588Y-151172906D01*
X93033587Y-151172905D01*
X92967596Y-151139281D01*
X92934658Y-151122498D01*
X92825002Y-151105131D01*
X92824998Y-151105131D01*
X92715341Y-151122498D01*
X92616414Y-151172904D01*
X92616407Y-151172909D01*
X92537909Y-151251407D01*
X92537904Y-151251414D01*
X92487498Y-151350341D01*
X92470131Y-151459997D01*
X92470131Y-151460002D01*
X91909869Y-151460002D01*
X91909869Y-151459997D01*
X91892501Y-151350341D01*
X91862378Y-151291221D01*
X91842095Y-151251413D01*
X91842092Y-151251410D01*
X91842090Y-151251407D01*
X91763592Y-151172909D01*
X91763588Y-151172906D01*
X91763587Y-151172905D01*
X91697596Y-151139281D01*
X91664658Y-151122498D01*
X91555002Y-151105131D01*
X91554998Y-151105131D01*
X91445341Y-151122498D01*
X91346414Y-151172904D01*
X91346407Y-151172909D01*
X91267909Y-151251407D01*
X91267904Y-151251414D01*
X91217498Y-151350341D01*
X91200131Y-151459997D01*
X91200131Y-151460002D01*
X90639869Y-151460002D01*
X90639869Y-151459997D01*
X90622501Y-151350341D01*
X90592378Y-151291221D01*
X90572095Y-151251413D01*
X90572092Y-151251410D01*
X90572090Y-151251407D01*
X90493592Y-151172909D01*
X90493588Y-151172906D01*
X90493587Y-151172905D01*
X90427596Y-151139281D01*
X90394658Y-151122498D01*
X90285002Y-151105131D01*
X90284998Y-151105131D01*
X90175341Y-151122498D01*
X90076414Y-151172904D01*
X90076407Y-151172909D01*
X89997909Y-151251407D01*
X89997904Y-151251414D01*
X89947498Y-151350341D01*
X89930131Y-151459997D01*
X89930131Y-151460002D01*
X89369869Y-151460002D01*
X89369869Y-151459997D01*
X89352501Y-151350341D01*
X89322378Y-151291221D01*
X89302095Y-151251413D01*
X89302092Y-151251410D01*
X89302090Y-151251407D01*
X89223592Y-151172909D01*
X89223588Y-151172906D01*
X89223587Y-151172905D01*
X89157596Y-151139281D01*
X89124658Y-151122498D01*
X89015002Y-151105131D01*
X89014998Y-151105131D01*
X88905341Y-151122498D01*
X88806414Y-151172904D01*
X88806407Y-151172909D01*
X88727909Y-151251407D01*
X88727904Y-151251414D01*
X88677498Y-151350341D01*
X88660131Y-151459997D01*
X88660131Y-151460002D01*
X88099869Y-151460002D01*
X88099869Y-151459997D01*
X88082501Y-151350341D01*
X88052378Y-151291221D01*
X88032095Y-151251413D01*
X88032092Y-151251410D01*
X88032090Y-151251407D01*
X87953592Y-151172909D01*
X87953588Y-151172906D01*
X87953587Y-151172905D01*
X87887596Y-151139281D01*
X87854658Y-151122498D01*
X87745002Y-151105131D01*
X87744998Y-151105131D01*
X87635341Y-151122498D01*
X87536414Y-151172904D01*
X87536407Y-151172909D01*
X87457909Y-151251407D01*
X87457904Y-151251414D01*
X87407498Y-151350341D01*
X87390131Y-151459997D01*
X87390131Y-151460002D01*
X86829869Y-151460002D01*
X86829869Y-151459997D01*
X86812501Y-151350341D01*
X86782378Y-151291221D01*
X86762095Y-151251413D01*
X86762092Y-151251410D01*
X86762090Y-151251407D01*
X86683592Y-151172909D01*
X86683588Y-151172906D01*
X86683587Y-151172905D01*
X86617596Y-151139281D01*
X86584658Y-151122498D01*
X86475002Y-151105131D01*
X86474998Y-151105131D01*
X86365341Y-151122498D01*
X86266414Y-151172904D01*
X86266407Y-151172909D01*
X86187909Y-151251407D01*
X86187904Y-151251414D01*
X86137498Y-151350341D01*
X86120131Y-151459997D01*
X86120131Y-151460002D01*
X85559869Y-151460002D01*
X85559869Y-151459997D01*
X85542501Y-151350341D01*
X85512378Y-151291221D01*
X85492095Y-151251413D01*
X85492092Y-151251410D01*
X85492090Y-151251407D01*
X85413592Y-151172909D01*
X85413588Y-151172906D01*
X85413587Y-151172905D01*
X85347596Y-151139281D01*
X85314658Y-151122498D01*
X85205002Y-151105131D01*
X85204998Y-151105131D01*
X85095341Y-151122498D01*
X84996414Y-151172904D01*
X84996407Y-151172909D01*
X84917909Y-151251407D01*
X84917904Y-151251414D01*
X84867498Y-151350341D01*
X84850131Y-151459997D01*
X84850131Y-151460002D01*
X74449869Y-151460002D01*
X74449869Y-151459997D01*
X74432501Y-151350341D01*
X74402378Y-151291221D01*
X74382095Y-151251413D01*
X74382092Y-151251410D01*
X74382090Y-151251407D01*
X74303592Y-151172909D01*
X74303588Y-151172906D01*
X74303587Y-151172905D01*
X74237596Y-151139281D01*
X74204658Y-151122498D01*
X74095002Y-151105131D01*
X74094998Y-151105131D01*
X73985341Y-151122498D01*
X73886414Y-151172904D01*
X73886407Y-151172909D01*
X73807909Y-151251407D01*
X73807904Y-151251414D01*
X73757498Y-151350341D01*
X73740131Y-151459997D01*
X73740131Y-151460002D01*
X73179869Y-151460002D01*
X73179869Y-151459997D01*
X73162501Y-151350341D01*
X73132378Y-151291221D01*
X73112095Y-151251413D01*
X73112092Y-151251410D01*
X73112090Y-151251407D01*
X73033592Y-151172909D01*
X73033588Y-151172906D01*
X73033587Y-151172905D01*
X72967596Y-151139281D01*
X72934658Y-151122498D01*
X72825002Y-151105131D01*
X72824998Y-151105131D01*
X72715341Y-151122498D01*
X72616414Y-151172904D01*
X72616407Y-151172909D01*
X72537909Y-151251407D01*
X72537904Y-151251414D01*
X72487498Y-151350341D01*
X72470131Y-151459997D01*
X72470131Y-151460002D01*
X71909869Y-151460002D01*
X71909869Y-151459997D01*
X71892501Y-151350341D01*
X71862378Y-151291221D01*
X71842095Y-151251413D01*
X71842092Y-151251410D01*
X71842090Y-151251407D01*
X71763592Y-151172909D01*
X71763588Y-151172906D01*
X71763587Y-151172905D01*
X71697596Y-151139281D01*
X71664658Y-151122498D01*
X71555002Y-151105131D01*
X71554998Y-151105131D01*
X71445341Y-151122498D01*
X71346414Y-151172904D01*
X71346407Y-151172909D01*
X71267909Y-151251407D01*
X71267904Y-151251414D01*
X71217498Y-151350341D01*
X71200131Y-151459997D01*
X71200131Y-151460002D01*
X70639869Y-151460002D01*
X70639869Y-151459997D01*
X70622501Y-151350341D01*
X70592378Y-151291221D01*
X70572095Y-151251413D01*
X70572092Y-151251410D01*
X70572090Y-151251407D01*
X70493592Y-151172909D01*
X70493588Y-151172906D01*
X70493587Y-151172905D01*
X70427596Y-151139281D01*
X70394658Y-151122498D01*
X70285002Y-151105131D01*
X70284998Y-151105131D01*
X70175341Y-151122498D01*
X70076414Y-151172904D01*
X70076407Y-151172909D01*
X69997909Y-151251407D01*
X69997904Y-151251414D01*
X69947498Y-151350341D01*
X69930131Y-151459997D01*
X69930131Y-151460002D01*
X69369869Y-151460002D01*
X69369869Y-151459997D01*
X69352501Y-151350341D01*
X69322378Y-151291221D01*
X69302095Y-151251413D01*
X69302092Y-151251410D01*
X69302090Y-151251407D01*
X69223592Y-151172909D01*
X69223588Y-151172906D01*
X69223587Y-151172905D01*
X69157596Y-151139281D01*
X69124658Y-151122498D01*
X69015002Y-151105131D01*
X69014998Y-151105131D01*
X68905341Y-151122498D01*
X68806414Y-151172904D01*
X68806407Y-151172909D01*
X68727909Y-151251407D01*
X68727904Y-151251414D01*
X68677498Y-151350341D01*
X68660131Y-151459997D01*
X68660131Y-151460002D01*
X68099869Y-151460002D01*
X68099869Y-151459997D01*
X68082501Y-151350341D01*
X68052378Y-151291221D01*
X68032095Y-151251413D01*
X68032092Y-151251410D01*
X68032090Y-151251407D01*
X67953592Y-151172909D01*
X67953588Y-151172906D01*
X67953587Y-151172905D01*
X67887596Y-151139281D01*
X67854658Y-151122498D01*
X67745002Y-151105131D01*
X67744998Y-151105131D01*
X67635341Y-151122498D01*
X67536414Y-151172904D01*
X67536407Y-151172909D01*
X67457909Y-151251407D01*
X67457904Y-151251414D01*
X67407498Y-151350341D01*
X67390131Y-151459997D01*
X67390131Y-151460002D01*
X66829869Y-151460002D01*
X66829869Y-151459997D01*
X66812501Y-151350341D01*
X66782378Y-151291221D01*
X66762095Y-151251413D01*
X66762092Y-151251410D01*
X66762090Y-151251407D01*
X66683592Y-151172909D01*
X66683588Y-151172906D01*
X66683587Y-151172905D01*
X66617596Y-151139281D01*
X66584658Y-151122498D01*
X66475002Y-151105131D01*
X66474998Y-151105131D01*
X66365341Y-151122498D01*
X66266414Y-151172904D01*
X66266407Y-151172909D01*
X66187909Y-151251407D01*
X66187904Y-151251414D01*
X66137498Y-151350341D01*
X66120131Y-151459997D01*
X66120131Y-151460002D01*
X65559869Y-151460002D01*
X65559869Y-151459997D01*
X65542501Y-151350341D01*
X65512378Y-151291221D01*
X65492095Y-151251413D01*
X65492092Y-151251410D01*
X65492090Y-151251407D01*
X65413592Y-151172909D01*
X65413588Y-151172906D01*
X65413587Y-151172905D01*
X65347596Y-151139281D01*
X65314658Y-151122498D01*
X65205002Y-151105131D01*
X65204998Y-151105131D01*
X65095341Y-151122498D01*
X64996414Y-151172904D01*
X64996407Y-151172909D01*
X64917909Y-151251407D01*
X64917904Y-151251414D01*
X64867498Y-151350341D01*
X64850131Y-151459997D01*
X64850131Y-151460002D01*
X51800500Y-151460002D01*
X51800500Y-150883933D01*
X139895668Y-150883933D01*
X139911058Y-150971210D01*
X139926135Y-151056711D01*
X139995623Y-151217804D01*
X139995624Y-151217806D01*
X139995626Y-151217809D01*
X140042180Y-151280341D01*
X140100390Y-151358530D01*
X140234786Y-151471302D01*
X140291248Y-151499658D01*
X140391562Y-151550038D01*
X140391563Y-151550038D01*
X140391567Y-151550040D01*
X140562279Y-151590500D01*
X140562282Y-151590500D01*
X140693701Y-151590500D01*
X140693709Y-151590500D01*
X140824255Y-151575241D01*
X140989117Y-151515237D01*
X141135696Y-151418830D01*
X141256092Y-151291218D01*
X141343812Y-151139281D01*
X141394130Y-150971210D01*
X141404331Y-150796065D01*
X141373865Y-150623289D01*
X141304377Y-150462196D01*
X141199610Y-150321470D01*
X141127747Y-150261170D01*
X141065214Y-150208698D01*
X141065212Y-150208697D01*
X140908437Y-150129961D01*
X140908433Y-150129960D01*
X140737721Y-150089500D01*
X140606291Y-150089500D01*
X140501854Y-150101707D01*
X140475743Y-150104759D01*
X140475740Y-150104760D01*
X140310884Y-150164762D01*
X140310880Y-150164764D01*
X140164306Y-150261167D01*
X140164305Y-150261168D01*
X140043910Y-150388778D01*
X139956188Y-150540718D01*
X139905870Y-150708789D01*
X139905869Y-150708794D01*
X139895668Y-150883933D01*
X51800500Y-150883933D01*
X51800500Y-149130003D01*
X116994508Y-149130003D01*
X117014352Y-149255300D01*
X117014352Y-149255301D01*
X117014354Y-149255304D01*
X117071950Y-149368342D01*
X117071952Y-149368344D01*
X117071954Y-149368347D01*
X117161652Y-149458045D01*
X117161654Y-149458046D01*
X117161658Y-149458050D01*
X117274696Y-149515646D01*
X117274697Y-149515646D01*
X117274699Y-149515647D01*
X117399997Y-149535492D01*
X117400000Y-149535492D01*
X117400003Y-149535492D01*
X117525300Y-149515647D01*
X117525301Y-149515647D01*
X117525302Y-149515646D01*
X117525304Y-149515646D01*
X117638342Y-149458050D01*
X117728050Y-149368342D01*
X117785646Y-149255304D01*
X117785646Y-149255302D01*
X117785647Y-149255301D01*
X117785647Y-149255300D01*
X117805492Y-149130003D01*
X117805492Y-149129996D01*
X117785647Y-149004699D01*
X117785647Y-149004698D01*
X117785646Y-149004696D01*
X117728050Y-148891658D01*
X117728046Y-148891654D01*
X117728045Y-148891652D01*
X117638347Y-148801954D01*
X117638344Y-148801952D01*
X117638342Y-148801950D01*
X117525304Y-148744354D01*
X117525303Y-148744353D01*
X117525300Y-148744352D01*
X117400003Y-148724508D01*
X117399997Y-148724508D01*
X117274699Y-148744352D01*
X117274698Y-148744352D01*
X117199337Y-148782751D01*
X117161658Y-148801950D01*
X117161657Y-148801951D01*
X117161652Y-148801954D01*
X117071954Y-148891652D01*
X117071951Y-148891657D01*
X117014352Y-149004698D01*
X117014352Y-149004699D01*
X116994508Y-149129996D01*
X116994508Y-149130003D01*
X51800500Y-149130003D01*
X51800500Y-148650002D01*
X130345131Y-148650002D01*
X130362498Y-148759658D01*
X130412904Y-148858585D01*
X130412909Y-148858592D01*
X130491407Y-148937090D01*
X130491410Y-148937092D01*
X130491413Y-148937095D01*
X130590339Y-148987500D01*
X130590341Y-148987501D01*
X130699998Y-149004869D01*
X130700000Y-149004869D01*
X130700002Y-149004869D01*
X130809658Y-148987501D01*
X130809659Y-148987500D01*
X130809661Y-148987500D01*
X130908587Y-148937095D01*
X130987095Y-148858587D01*
X131037500Y-148759661D01*
X131037500Y-148759659D01*
X131037501Y-148759658D01*
X131054869Y-148650002D01*
X131054869Y-148649997D01*
X131037501Y-148540341D01*
X131037500Y-148540339D01*
X130987095Y-148441413D01*
X130987092Y-148441410D01*
X130987090Y-148441407D01*
X130908592Y-148362909D01*
X130908588Y-148362906D01*
X130908587Y-148362905D01*
X130904743Y-148360946D01*
X130809658Y-148312498D01*
X130700002Y-148295131D01*
X130699998Y-148295131D01*
X130590341Y-148312498D01*
X130491414Y-148362904D01*
X130491407Y-148362909D01*
X130412909Y-148441407D01*
X130412904Y-148441414D01*
X130362498Y-148540341D01*
X130345131Y-148649997D01*
X130345131Y-148650002D01*
X51800500Y-148650002D01*
X51800500Y-147260003D01*
X81644508Y-147260003D01*
X81664352Y-147385300D01*
X81664352Y-147385301D01*
X81664354Y-147385304D01*
X81721950Y-147498342D01*
X81721952Y-147498344D01*
X81721954Y-147498347D01*
X81811652Y-147588045D01*
X81811654Y-147588046D01*
X81811658Y-147588050D01*
X81924696Y-147645646D01*
X81924697Y-147645646D01*
X81924699Y-147645647D01*
X82049997Y-147665492D01*
X82050000Y-147665492D01*
X82050003Y-147665492D01*
X82175300Y-147645647D01*
X82175301Y-147645647D01*
X82175302Y-147645646D01*
X82175304Y-147645646D01*
X82288342Y-147588050D01*
X82378050Y-147498342D01*
X82435646Y-147385304D01*
X82435646Y-147385302D01*
X82435647Y-147385301D01*
X82435647Y-147385300D01*
X82455492Y-147260003D01*
X101904508Y-147260003D01*
X101924352Y-147385300D01*
X101924352Y-147385301D01*
X101924354Y-147385304D01*
X101981950Y-147498342D01*
X101981952Y-147498344D01*
X101981954Y-147498347D01*
X102071652Y-147588045D01*
X102071654Y-147588046D01*
X102071658Y-147588050D01*
X102184696Y-147645646D01*
X102184697Y-147645646D01*
X102184699Y-147645647D01*
X102309997Y-147665492D01*
X102310000Y-147665492D01*
X102310003Y-147665492D01*
X102435300Y-147645647D01*
X102435301Y-147645647D01*
X102435302Y-147645646D01*
X102435304Y-147645646D01*
X102548342Y-147588050D01*
X102638050Y-147498342D01*
X102695646Y-147385304D01*
X102695646Y-147385302D01*
X102695647Y-147385301D01*
X102695647Y-147385300D01*
X102715492Y-147260003D01*
X116994508Y-147260003D01*
X117014352Y-147385300D01*
X117014352Y-147385301D01*
X117014354Y-147385304D01*
X117071950Y-147498342D01*
X117071952Y-147498344D01*
X117071954Y-147498347D01*
X117161652Y-147588045D01*
X117161654Y-147588046D01*
X117161658Y-147588050D01*
X117274696Y-147645646D01*
X117274697Y-147645646D01*
X117274699Y-147645647D01*
X117399997Y-147665492D01*
X117400000Y-147665492D01*
X117400003Y-147665492D01*
X117525300Y-147645647D01*
X117525301Y-147645647D01*
X117525302Y-147645646D01*
X117525304Y-147645646D01*
X117638342Y-147588050D01*
X117728050Y-147498342D01*
X117785646Y-147385304D01*
X117785646Y-147385302D01*
X117785647Y-147385301D01*
X117785647Y-147385300D01*
X117805492Y-147260003D01*
X117805492Y-147259996D01*
X117785647Y-147134699D01*
X117785647Y-147134698D01*
X117785646Y-147134696D01*
X117728050Y-147021658D01*
X117728046Y-147021654D01*
X117728045Y-147021652D01*
X117638347Y-146931954D01*
X117638344Y-146931952D01*
X117638342Y-146931950D01*
X117525304Y-146874354D01*
X117525303Y-146874353D01*
X117525300Y-146874352D01*
X117400003Y-146854508D01*
X117399997Y-146854508D01*
X117274699Y-146874352D01*
X117274698Y-146874352D01*
X117199337Y-146912751D01*
X117161658Y-146931950D01*
X117161657Y-146931951D01*
X117161652Y-146931954D01*
X117071954Y-147021652D01*
X117071951Y-147021657D01*
X117014352Y-147134698D01*
X117014352Y-147134699D01*
X116994508Y-147259996D01*
X116994508Y-147260003D01*
X102715492Y-147260003D01*
X102715492Y-147259996D01*
X102695647Y-147134699D01*
X102695647Y-147134698D01*
X102695646Y-147134696D01*
X102638050Y-147021658D01*
X102638046Y-147021654D01*
X102638045Y-147021652D01*
X102548347Y-146931954D01*
X102548344Y-146931952D01*
X102548342Y-146931950D01*
X102435304Y-146874354D01*
X102435303Y-146874353D01*
X102435300Y-146874352D01*
X102310003Y-146854508D01*
X102309997Y-146854508D01*
X102184699Y-146874352D01*
X102184698Y-146874352D01*
X102109337Y-146912751D01*
X102071658Y-146931950D01*
X102071657Y-146931951D01*
X102071652Y-146931954D01*
X101981954Y-147021652D01*
X101981951Y-147021657D01*
X101924352Y-147134698D01*
X101924352Y-147134699D01*
X101904508Y-147259996D01*
X101904508Y-147260003D01*
X82455492Y-147260003D01*
X82455492Y-147259996D01*
X82435647Y-147134699D01*
X82435647Y-147134698D01*
X82435646Y-147134696D01*
X82378050Y-147021658D01*
X82378046Y-147021654D01*
X82378045Y-147021652D01*
X82288347Y-146931954D01*
X82288344Y-146931952D01*
X82288342Y-146931950D01*
X82175304Y-146874354D01*
X82175303Y-146874353D01*
X82175300Y-146874352D01*
X82050003Y-146854508D01*
X82049997Y-146854508D01*
X81924699Y-146874352D01*
X81924698Y-146874352D01*
X81849337Y-146912751D01*
X81811658Y-146931950D01*
X81811657Y-146931951D01*
X81811652Y-146931954D01*
X81721954Y-147021652D01*
X81721951Y-147021657D01*
X81664352Y-147134698D01*
X81664352Y-147134699D01*
X81644508Y-147259996D01*
X81644508Y-147260003D01*
X51800500Y-147260003D01*
X51800500Y-146460002D01*
X125265131Y-146460002D01*
X125282498Y-146569658D01*
X125332904Y-146668585D01*
X125332909Y-146668592D01*
X125411407Y-146747090D01*
X125411410Y-146747092D01*
X125411413Y-146747095D01*
X125510339Y-146797500D01*
X125510341Y-146797501D01*
X125619998Y-146814869D01*
X125620000Y-146814869D01*
X125620002Y-146814869D01*
X125729658Y-146797501D01*
X125729659Y-146797500D01*
X125729661Y-146797500D01*
X125828587Y-146747095D01*
X125907095Y-146668587D01*
X125957500Y-146569661D01*
X125957500Y-146569659D01*
X125957501Y-146569658D01*
X125974869Y-146460002D01*
X125974869Y-146459997D01*
X125957501Y-146350341D01*
X125957500Y-146350339D01*
X125907095Y-146251413D01*
X125907092Y-146251410D01*
X125907090Y-146251407D01*
X125828592Y-146172909D01*
X125828588Y-146172906D01*
X125828587Y-146172905D01*
X125824743Y-146170946D01*
X125729658Y-146122498D01*
X125620002Y-146105131D01*
X125619998Y-146105131D01*
X125510341Y-146122498D01*
X125411414Y-146172904D01*
X125411407Y-146172909D01*
X125332909Y-146251407D01*
X125332904Y-146251414D01*
X125282498Y-146350341D01*
X125265131Y-146459997D01*
X125265131Y-146460002D01*
X51800500Y-146460002D01*
X51800500Y-143690002D01*
X129075131Y-143690002D01*
X129092498Y-143799658D01*
X129142904Y-143898585D01*
X129142909Y-143898592D01*
X129221407Y-143977090D01*
X129221410Y-143977092D01*
X129221413Y-143977095D01*
X129320339Y-144027500D01*
X129320341Y-144027501D01*
X129429998Y-144044869D01*
X129430000Y-144044869D01*
X129430002Y-144044869D01*
X129539658Y-144027501D01*
X129539659Y-144027500D01*
X129539661Y-144027500D01*
X129638587Y-143977095D01*
X129717095Y-143898587D01*
X129767500Y-143799661D01*
X129767500Y-143799659D01*
X129767501Y-143799658D01*
X129784869Y-143690002D01*
X129784869Y-143689997D01*
X129767501Y-143580341D01*
X129767500Y-143580339D01*
X129717095Y-143481413D01*
X129717092Y-143481410D01*
X129717090Y-143481407D01*
X129638592Y-143402909D01*
X129638588Y-143402906D01*
X129638587Y-143402905D01*
X129634743Y-143400946D01*
X129539658Y-143352498D01*
X129430002Y-143335131D01*
X129429998Y-143335131D01*
X129320341Y-143352498D01*
X129221414Y-143402904D01*
X129221407Y-143402909D01*
X129142909Y-143481407D01*
X129142904Y-143481414D01*
X129092498Y-143580341D01*
X129075131Y-143689997D01*
X129075131Y-143690002D01*
X51800500Y-143690002D01*
X51800500Y-142230003D01*
X81644508Y-142230003D01*
X81664352Y-142355300D01*
X81664352Y-142355301D01*
X81679418Y-142384869D01*
X81721950Y-142468342D01*
X81721952Y-142468344D01*
X81721954Y-142468347D01*
X81811652Y-142558045D01*
X81811654Y-142558046D01*
X81811658Y-142558050D01*
X81924696Y-142615646D01*
X81924697Y-142615646D01*
X81924699Y-142615647D01*
X82049997Y-142635492D01*
X82050000Y-142635492D01*
X82050003Y-142635492D01*
X82175300Y-142615647D01*
X82175301Y-142615647D01*
X82175302Y-142615646D01*
X82175304Y-142615646D01*
X82288342Y-142558050D01*
X82378050Y-142468342D01*
X82435646Y-142355304D01*
X82435646Y-142355302D01*
X82435647Y-142355301D01*
X82435647Y-142355300D01*
X82454225Y-142238003D01*
X101904508Y-142238003D01*
X101924352Y-142363300D01*
X101924352Y-142363301D01*
X101924354Y-142363304D01*
X101981950Y-142476342D01*
X101981952Y-142476344D01*
X101981954Y-142476347D01*
X102071652Y-142566045D01*
X102071654Y-142566046D01*
X102071658Y-142566050D01*
X102184696Y-142623646D01*
X102184697Y-142623646D01*
X102184699Y-142623647D01*
X102309997Y-142643492D01*
X102310000Y-142643492D01*
X102310003Y-142643492D01*
X102435300Y-142623647D01*
X102435301Y-142623647D01*
X102435302Y-142623646D01*
X102435304Y-142623646D01*
X102548342Y-142566050D01*
X102638050Y-142476342D01*
X102695646Y-142363304D01*
X102695646Y-142363302D01*
X102695647Y-142363301D01*
X102695647Y-142363300D01*
X102715492Y-142238003D01*
X102715492Y-142237996D01*
X102699971Y-142140002D01*
X133435131Y-142140002D01*
X133452498Y-142249658D01*
X133502904Y-142348585D01*
X133502909Y-142348592D01*
X133581407Y-142427090D01*
X133581410Y-142427092D01*
X133581413Y-142427095D01*
X133662375Y-142468347D01*
X133680341Y-142477501D01*
X133789998Y-142494869D01*
X133790000Y-142494869D01*
X133790002Y-142494869D01*
X133899658Y-142477501D01*
X133899659Y-142477500D01*
X133899661Y-142477500D01*
X133998587Y-142427095D01*
X134077095Y-142348587D01*
X134127500Y-142249661D01*
X134127500Y-142249659D01*
X134127501Y-142249658D01*
X134144869Y-142140002D01*
X134144869Y-142139997D01*
X134127501Y-142030341D01*
X134127328Y-142030002D01*
X140545131Y-142030002D01*
X140562498Y-142139658D01*
X140612904Y-142238585D01*
X140612909Y-142238592D01*
X140691407Y-142317090D01*
X140691410Y-142317092D01*
X140691413Y-142317095D01*
X140753216Y-142348585D01*
X140790341Y-142367501D01*
X140899998Y-142384869D01*
X140900000Y-142384869D01*
X140900002Y-142384869D01*
X141009658Y-142367501D01*
X141009659Y-142367500D01*
X141009661Y-142367500D01*
X141108587Y-142317095D01*
X141187095Y-142238587D01*
X141237500Y-142139661D01*
X141237500Y-142139659D01*
X141237501Y-142139658D01*
X141254869Y-142030002D01*
X141254869Y-142029997D01*
X141237501Y-141920341D01*
X141192748Y-141832508D01*
X141187095Y-141821413D01*
X141187092Y-141821410D01*
X141187090Y-141821407D01*
X141108592Y-141742909D01*
X141108588Y-141742906D01*
X141108587Y-141742905D01*
X141104743Y-141740946D01*
X141009658Y-141692498D01*
X140900002Y-141675131D01*
X140899998Y-141675131D01*
X140790341Y-141692498D01*
X140691414Y-141742904D01*
X140691407Y-141742909D01*
X140612909Y-141821407D01*
X140612904Y-141821414D01*
X140562498Y-141920341D01*
X140545131Y-142029997D01*
X140545131Y-142030002D01*
X134127328Y-142030002D01*
X134107791Y-141991658D01*
X134077095Y-141931413D01*
X134077092Y-141931410D01*
X134077090Y-141931407D01*
X133998592Y-141852909D01*
X133998588Y-141852906D01*
X133998587Y-141852905D01*
X133981801Y-141844352D01*
X133899658Y-141802498D01*
X133790002Y-141785131D01*
X133789998Y-141785131D01*
X133680341Y-141802498D01*
X133581414Y-141852904D01*
X133581407Y-141852909D01*
X133502909Y-141931407D01*
X133502904Y-141931414D01*
X133452498Y-142030341D01*
X133435131Y-142139997D01*
X133435131Y-142140002D01*
X102699971Y-142140002D01*
X102695647Y-142112699D01*
X102695647Y-142112698D01*
X102691570Y-142104696D01*
X102638050Y-141999658D01*
X102638046Y-141999654D01*
X102638045Y-141999652D01*
X102548347Y-141909954D01*
X102548344Y-141909952D01*
X102548342Y-141909950D01*
X102435304Y-141852354D01*
X102435303Y-141852353D01*
X102435300Y-141852352D01*
X102310003Y-141832508D01*
X102309997Y-141832508D01*
X102184699Y-141852352D01*
X102184698Y-141852352D01*
X102109337Y-141890751D01*
X102071658Y-141909950D01*
X102071657Y-141909951D01*
X102071652Y-141909954D01*
X101981954Y-141999652D01*
X101981951Y-141999657D01*
X101981950Y-141999658D01*
X101966490Y-142030000D01*
X101924352Y-142112698D01*
X101924352Y-142112699D01*
X101904508Y-142237996D01*
X101904508Y-142238003D01*
X82454225Y-142238003D01*
X82455492Y-142230003D01*
X82455492Y-142229996D01*
X82435647Y-142104699D01*
X82435647Y-142104698D01*
X82435646Y-142104696D01*
X82378050Y-141991658D01*
X82378046Y-141991654D01*
X82378045Y-141991652D01*
X82288347Y-141901954D01*
X82288344Y-141901952D01*
X82288342Y-141901950D01*
X82175304Y-141844354D01*
X82175303Y-141844353D01*
X82175300Y-141844352D01*
X82050003Y-141824508D01*
X82049997Y-141824508D01*
X81924699Y-141844352D01*
X81924698Y-141844352D01*
X81849337Y-141882751D01*
X81811658Y-141901950D01*
X81811657Y-141901951D01*
X81811652Y-141901954D01*
X81721954Y-141991652D01*
X81721951Y-141991657D01*
X81721950Y-141991658D01*
X81717874Y-141999658D01*
X81664352Y-142104698D01*
X81664352Y-142104699D01*
X81644508Y-142229996D01*
X81644508Y-142230003D01*
X51800500Y-142230003D01*
X51800500Y-138770002D01*
X141005131Y-138770002D01*
X141022498Y-138879658D01*
X141072904Y-138978585D01*
X141072909Y-138978592D01*
X141151407Y-139057090D01*
X141151410Y-139057092D01*
X141151413Y-139057095D01*
X141250339Y-139107500D01*
X141250341Y-139107501D01*
X141359998Y-139124869D01*
X141360000Y-139124869D01*
X141360002Y-139124869D01*
X141469658Y-139107501D01*
X141469659Y-139107500D01*
X141469661Y-139107500D01*
X141568587Y-139057095D01*
X141647095Y-138978587D01*
X141697500Y-138879661D01*
X141697500Y-138879659D01*
X141697501Y-138879658D01*
X141714869Y-138770002D01*
X141714869Y-138769997D01*
X141697501Y-138660341D01*
X141697500Y-138660339D01*
X141647095Y-138561413D01*
X141647092Y-138561410D01*
X141647090Y-138561407D01*
X141568592Y-138482909D01*
X141568588Y-138482906D01*
X141568587Y-138482905D01*
X141564743Y-138480946D01*
X141469658Y-138432498D01*
X141360002Y-138415131D01*
X141359998Y-138415131D01*
X141250341Y-138432498D01*
X141151414Y-138482904D01*
X141151407Y-138482909D01*
X141072909Y-138561407D01*
X141072904Y-138561414D01*
X141022498Y-138660341D01*
X141005131Y-138769997D01*
X141005131Y-138770002D01*
X51800500Y-138770002D01*
X51800500Y-137010002D01*
X109845131Y-137010002D01*
X109862498Y-137119658D01*
X109912904Y-137218585D01*
X109912909Y-137218592D01*
X109991407Y-137297090D01*
X109991410Y-137297092D01*
X109991413Y-137297095D01*
X110090339Y-137347500D01*
X110090341Y-137347501D01*
X110199998Y-137364869D01*
X110200000Y-137364869D01*
X110200002Y-137364869D01*
X110309658Y-137347501D01*
X110309659Y-137347500D01*
X110309661Y-137347500D01*
X110408587Y-137297095D01*
X110487095Y-137218587D01*
X110537500Y-137119661D01*
X110537500Y-137119659D01*
X110537501Y-137119658D01*
X110554869Y-137010002D01*
X114925131Y-137010002D01*
X114942498Y-137119658D01*
X114992904Y-137218585D01*
X114992909Y-137218592D01*
X115071407Y-137297090D01*
X115071410Y-137297092D01*
X115071413Y-137297095D01*
X115170339Y-137347500D01*
X115170341Y-137347501D01*
X115279998Y-137364869D01*
X115280000Y-137364869D01*
X115280002Y-137364869D01*
X115389658Y-137347501D01*
X115389659Y-137347500D01*
X115389661Y-137347500D01*
X115488587Y-137297095D01*
X115567095Y-137218587D01*
X115617500Y-137119661D01*
X115617500Y-137119659D01*
X115617501Y-137119658D01*
X115634869Y-137010002D01*
X117465131Y-137010002D01*
X117482498Y-137119658D01*
X117532904Y-137218585D01*
X117532909Y-137218592D01*
X117611407Y-137297090D01*
X117611410Y-137297092D01*
X117611413Y-137297095D01*
X117710339Y-137347500D01*
X117710341Y-137347501D01*
X117819998Y-137364869D01*
X117820000Y-137364869D01*
X117820002Y-137364869D01*
X117929658Y-137347501D01*
X117929659Y-137347500D01*
X117929661Y-137347500D01*
X118028587Y-137297095D01*
X118107095Y-137218587D01*
X118157500Y-137119661D01*
X118157500Y-137119659D01*
X118157501Y-137119658D01*
X118174869Y-137010002D01*
X118174869Y-137009997D01*
X118157501Y-136900341D01*
X118157500Y-136900339D01*
X118107095Y-136801413D01*
X118107092Y-136801410D01*
X118107090Y-136801407D01*
X118028592Y-136722909D01*
X118028588Y-136722906D01*
X118028587Y-136722905D01*
X118024743Y-136720946D01*
X117929658Y-136672498D01*
X117820002Y-136655131D01*
X117819998Y-136655131D01*
X117710341Y-136672498D01*
X117611414Y-136722904D01*
X117611407Y-136722909D01*
X117532909Y-136801407D01*
X117532904Y-136801414D01*
X117482498Y-136900341D01*
X117465131Y-137009997D01*
X117465131Y-137010002D01*
X115634869Y-137010002D01*
X115634869Y-137009997D01*
X115617501Y-136900341D01*
X115617500Y-136900339D01*
X115567095Y-136801413D01*
X115567092Y-136801410D01*
X115567090Y-136801407D01*
X115488592Y-136722909D01*
X115488588Y-136722906D01*
X115488587Y-136722905D01*
X115484743Y-136720946D01*
X115389658Y-136672498D01*
X115280002Y-136655131D01*
X115279998Y-136655131D01*
X115170341Y-136672498D01*
X115071414Y-136722904D01*
X115071407Y-136722909D01*
X114992909Y-136801407D01*
X114992904Y-136801414D01*
X114942498Y-136900341D01*
X114925131Y-137009997D01*
X114925131Y-137010002D01*
X110554869Y-137010002D01*
X110554869Y-137009997D01*
X110537501Y-136900341D01*
X110537500Y-136900339D01*
X110487095Y-136801413D01*
X110487092Y-136801410D01*
X110487090Y-136801407D01*
X110408592Y-136722909D01*
X110408588Y-136722906D01*
X110408587Y-136722905D01*
X110404743Y-136720946D01*
X110309658Y-136672498D01*
X110200002Y-136655131D01*
X110199998Y-136655131D01*
X110090341Y-136672498D01*
X109991414Y-136722904D01*
X109991407Y-136722909D01*
X109912909Y-136801407D01*
X109912904Y-136801414D01*
X109862498Y-136900341D01*
X109845131Y-137009997D01*
X109845131Y-137010002D01*
X51800500Y-137010002D01*
X51800500Y-134690002D01*
X120985131Y-134690002D01*
X121002498Y-134799658D01*
X121052904Y-134898585D01*
X121052909Y-134898592D01*
X121131407Y-134977090D01*
X121131410Y-134977092D01*
X121131413Y-134977095D01*
X121230339Y-135027500D01*
X121230341Y-135027501D01*
X121339998Y-135044869D01*
X121340000Y-135044869D01*
X121340002Y-135044869D01*
X121449658Y-135027501D01*
X121449659Y-135027500D01*
X121449661Y-135027500D01*
X121548587Y-134977095D01*
X121627095Y-134898587D01*
X121677500Y-134799661D01*
X121677500Y-134799659D01*
X121677501Y-134799658D01*
X121694869Y-134690002D01*
X128602631Y-134690002D01*
X128619998Y-134799658D01*
X128670404Y-134898585D01*
X128670409Y-134898592D01*
X128748907Y-134977090D01*
X128748910Y-134977092D01*
X128748913Y-134977095D01*
X128847839Y-135027500D01*
X128847841Y-135027501D01*
X128957498Y-135044869D01*
X128957500Y-135044869D01*
X128957502Y-135044869D01*
X129067158Y-135027501D01*
X129067159Y-135027500D01*
X129067161Y-135027500D01*
X129166087Y-134977095D01*
X129244595Y-134898587D01*
X129295000Y-134799661D01*
X129295000Y-134799659D01*
X129295001Y-134799658D01*
X129312369Y-134690002D01*
X129312369Y-134689997D01*
X129295001Y-134580341D01*
X129295000Y-134580339D01*
X129244595Y-134481413D01*
X129244592Y-134481410D01*
X129244590Y-134481407D01*
X129166092Y-134402909D01*
X129166088Y-134402906D01*
X129166087Y-134402905D01*
X129162243Y-134400946D01*
X129067158Y-134352498D01*
X128957502Y-134335131D01*
X128957498Y-134335131D01*
X128847841Y-134352498D01*
X128748914Y-134402904D01*
X128748907Y-134402909D01*
X128670409Y-134481407D01*
X128670404Y-134481414D01*
X128619998Y-134580341D01*
X128602631Y-134689997D01*
X128602631Y-134690002D01*
X121694869Y-134690002D01*
X121694869Y-134689997D01*
X121677501Y-134580341D01*
X121677500Y-134580339D01*
X121627095Y-134481413D01*
X121627092Y-134481410D01*
X121627090Y-134481407D01*
X121548592Y-134402909D01*
X121548588Y-134402906D01*
X121548587Y-134402905D01*
X121544743Y-134400946D01*
X121449658Y-134352498D01*
X121340002Y-134335131D01*
X121339998Y-134335131D01*
X121230341Y-134352498D01*
X121131414Y-134402904D01*
X121131407Y-134402909D01*
X121052909Y-134481407D01*
X121052904Y-134481414D01*
X121002498Y-134580341D01*
X120985131Y-134689997D01*
X120985131Y-134690002D01*
X51800500Y-134690002D01*
X51800500Y-131610002D01*
X106925131Y-131610002D01*
X106942498Y-131719658D01*
X106992904Y-131818585D01*
X106992909Y-131818592D01*
X107071407Y-131897090D01*
X107071410Y-131897092D01*
X107071413Y-131897095D01*
X107170339Y-131947500D01*
X107170341Y-131947501D01*
X107279998Y-131964869D01*
X107280000Y-131964869D01*
X107280002Y-131964869D01*
X107389658Y-131947501D01*
X107389659Y-131947500D01*
X107389661Y-131947500D01*
X107488587Y-131897095D01*
X107567095Y-131818587D01*
X107617500Y-131719661D01*
X107617500Y-131719659D01*
X107617501Y-131719658D01*
X107634869Y-131610002D01*
X107634869Y-131609997D01*
X107617501Y-131500341D01*
X107617500Y-131500339D01*
X107567095Y-131401413D01*
X107567092Y-131401410D01*
X107567090Y-131401407D01*
X107488592Y-131322909D01*
X107488588Y-131322906D01*
X107488587Y-131322905D01*
X107484743Y-131320946D01*
X107389658Y-131272498D01*
X107280002Y-131255131D01*
X107279998Y-131255131D01*
X107170341Y-131272498D01*
X107071414Y-131322904D01*
X107071407Y-131322909D01*
X106992909Y-131401407D01*
X106992904Y-131401414D01*
X106942498Y-131500341D01*
X106925131Y-131609997D01*
X106925131Y-131610002D01*
X51800500Y-131610002D01*
X51800500Y-130250002D01*
X136222631Y-130250002D01*
X136239998Y-130359658D01*
X136290404Y-130458585D01*
X136290409Y-130458592D01*
X136368907Y-130537090D01*
X136368910Y-130537092D01*
X136368913Y-130537095D01*
X136467839Y-130587500D01*
X136467841Y-130587501D01*
X136577498Y-130604869D01*
X136577500Y-130604869D01*
X136577502Y-130604869D01*
X136687158Y-130587501D01*
X136687159Y-130587500D01*
X136687161Y-130587500D01*
X136786087Y-130537095D01*
X136864595Y-130458587D01*
X136915000Y-130359661D01*
X136915000Y-130359659D01*
X136915001Y-130359658D01*
X136932369Y-130250002D01*
X141302631Y-130250002D01*
X141319998Y-130359658D01*
X141370404Y-130458585D01*
X141370409Y-130458592D01*
X141448907Y-130537090D01*
X141448910Y-130537092D01*
X141448913Y-130537095D01*
X141547839Y-130587500D01*
X141547841Y-130587501D01*
X141657498Y-130604869D01*
X141657500Y-130604869D01*
X141657502Y-130604869D01*
X141767158Y-130587501D01*
X141767159Y-130587500D01*
X141767161Y-130587500D01*
X141866087Y-130537095D01*
X141944595Y-130458587D01*
X141995000Y-130359661D01*
X141995000Y-130359659D01*
X141995001Y-130359658D01*
X142012369Y-130250002D01*
X142012369Y-130249997D01*
X141995001Y-130140341D01*
X141995000Y-130140339D01*
X141944595Y-130041413D01*
X141944592Y-130041410D01*
X141944590Y-130041407D01*
X141866092Y-129962909D01*
X141866088Y-129962906D01*
X141866087Y-129962905D01*
X141862243Y-129960946D01*
X141767158Y-129912498D01*
X141657502Y-129895131D01*
X141657498Y-129895131D01*
X141547841Y-129912498D01*
X141448914Y-129962904D01*
X141448907Y-129962909D01*
X141370409Y-130041407D01*
X141370404Y-130041414D01*
X141319998Y-130140341D01*
X141302631Y-130249997D01*
X141302631Y-130250002D01*
X136932369Y-130250002D01*
X136932369Y-130249997D01*
X136915001Y-130140341D01*
X136915000Y-130140339D01*
X136864595Y-130041413D01*
X136864592Y-130041410D01*
X136864590Y-130041407D01*
X136786092Y-129962909D01*
X136786088Y-129962906D01*
X136786087Y-129962905D01*
X136782243Y-129960946D01*
X136687158Y-129912498D01*
X136577502Y-129895131D01*
X136577498Y-129895131D01*
X136467841Y-129912498D01*
X136368914Y-129962904D01*
X136368907Y-129962909D01*
X136290409Y-130041407D01*
X136290404Y-130041414D01*
X136239998Y-130140341D01*
X136222631Y-130249997D01*
X136222631Y-130250002D01*
X51800500Y-130250002D01*
X51800500Y-115557500D01*
X107207500Y-115557500D01*
X107207500Y-129877500D01*
X115827500Y-129877500D01*
X115827500Y-115557500D01*
X107207500Y-115557500D01*
X51800500Y-115557500D01*
X51800500Y-115177505D01*
X137444508Y-115177505D01*
X137464352Y-115302802D01*
X137464352Y-115302803D01*
X137464354Y-115302806D01*
X137521950Y-115415844D01*
X137521952Y-115415846D01*
X137521954Y-115415849D01*
X137611652Y-115505547D01*
X137611654Y-115505548D01*
X137611658Y-115505552D01*
X137724696Y-115563148D01*
X137724697Y-115563148D01*
X137724699Y-115563149D01*
X137849997Y-115582994D01*
X137850000Y-115582994D01*
X137850003Y-115582994D01*
X137975300Y-115563149D01*
X137975301Y-115563149D01*
X137975302Y-115563148D01*
X137975304Y-115563148D01*
X138088342Y-115505552D01*
X138178050Y-115415844D01*
X138235646Y-115302806D01*
X138235646Y-115302804D01*
X138235647Y-115302803D01*
X138235647Y-115302802D01*
X138255492Y-115177505D01*
X138255492Y-115177498D01*
X138235647Y-115052201D01*
X138235647Y-115052200D01*
X138235646Y-115052198D01*
X138178050Y-114939160D01*
X138178046Y-114939156D01*
X138178045Y-114939154D01*
X138088347Y-114849456D01*
X138088344Y-114849454D01*
X138088342Y-114849452D01*
X137975304Y-114791856D01*
X137975303Y-114791855D01*
X137975300Y-114791854D01*
X137850003Y-114772010D01*
X137849997Y-114772010D01*
X137724699Y-114791854D01*
X137724698Y-114791854D01*
X137649337Y-114830253D01*
X137611658Y-114849452D01*
X137611657Y-114849453D01*
X137611652Y-114849456D01*
X137521954Y-114939154D01*
X137521951Y-114939159D01*
X137464352Y-115052200D01*
X137464352Y-115052201D01*
X137444508Y-115177498D01*
X137444508Y-115177505D01*
X51800500Y-115177505D01*
X51800500Y-109600002D01*
X87575131Y-109600002D01*
X87592498Y-109709658D01*
X87642904Y-109808585D01*
X87642909Y-109808592D01*
X87721407Y-109887090D01*
X87721410Y-109887092D01*
X87721413Y-109887095D01*
X87820339Y-109937500D01*
X87820341Y-109937501D01*
X87929998Y-109954869D01*
X87930000Y-109954869D01*
X87930002Y-109954869D01*
X88039658Y-109937501D01*
X88039659Y-109937500D01*
X88039661Y-109937500D01*
X88138587Y-109887095D01*
X88217095Y-109808587D01*
X88267500Y-109709661D01*
X88267500Y-109709659D01*
X88267501Y-109709658D01*
X88284869Y-109600002D01*
X88284869Y-109599997D01*
X88267501Y-109490341D01*
X88267500Y-109490339D01*
X88217095Y-109391413D01*
X88217092Y-109391410D01*
X88217090Y-109391407D01*
X88138592Y-109312909D01*
X88138588Y-109312906D01*
X88138587Y-109312905D01*
X88134743Y-109310946D01*
X88039658Y-109262498D01*
X87930002Y-109245131D01*
X87929998Y-109245131D01*
X87820341Y-109262498D01*
X87721414Y-109312904D01*
X87721407Y-109312909D01*
X87642909Y-109391407D01*
X87642904Y-109391414D01*
X87592498Y-109490341D01*
X87575131Y-109599997D01*
X87575131Y-109600002D01*
X51800500Y-109600002D01*
X51800500Y-108540002D01*
X92655131Y-108540002D01*
X92672498Y-108649658D01*
X92722904Y-108748585D01*
X92722909Y-108748592D01*
X92801407Y-108827090D01*
X92801410Y-108827092D01*
X92801413Y-108827095D01*
X92900339Y-108877500D01*
X92900341Y-108877501D01*
X93009998Y-108894869D01*
X93010000Y-108894869D01*
X93010002Y-108894869D01*
X93119658Y-108877501D01*
X93119659Y-108877500D01*
X93119661Y-108877500D01*
X93218587Y-108827095D01*
X93297095Y-108748587D01*
X93347500Y-108649661D01*
X93347500Y-108649659D01*
X93347501Y-108649658D01*
X93364869Y-108540002D01*
X93364869Y-108539997D01*
X93347501Y-108430341D01*
X93347500Y-108430339D01*
X93297095Y-108331413D01*
X93297092Y-108331410D01*
X93297090Y-108331407D01*
X93218592Y-108252909D01*
X93218588Y-108252906D01*
X93218587Y-108252905D01*
X93214743Y-108250946D01*
X93119658Y-108202498D01*
X93010002Y-108185131D01*
X93009998Y-108185131D01*
X92900341Y-108202498D01*
X92801414Y-108252904D01*
X92801407Y-108252909D01*
X92722909Y-108331407D01*
X92722904Y-108331414D01*
X92672498Y-108430341D01*
X92655131Y-108539997D01*
X92655131Y-108540002D01*
X51800500Y-108540002D01*
X51800500Y-105360002D01*
X128286921Y-105360002D01*
X128304288Y-105469658D01*
X128354694Y-105568585D01*
X128354699Y-105568592D01*
X128433197Y-105647090D01*
X128433200Y-105647092D01*
X128433203Y-105647095D01*
X128513023Y-105687765D01*
X128532131Y-105697501D01*
X128641788Y-105714869D01*
X128641790Y-105714869D01*
X128641792Y-105714869D01*
X128751448Y-105697501D01*
X128751449Y-105697500D01*
X128751451Y-105697500D01*
X128770547Y-105687770D01*
X130990032Y-105687770D01*
X131007399Y-105797426D01*
X131057805Y-105896353D01*
X131057810Y-105896360D01*
X131136308Y-105974858D01*
X131136311Y-105974860D01*
X131136314Y-105974863D01*
X131235240Y-106025268D01*
X131235242Y-106025269D01*
X131344899Y-106042637D01*
X131344901Y-106042637D01*
X131344903Y-106042637D01*
X131454559Y-106025269D01*
X131454560Y-106025268D01*
X131454562Y-106025268D01*
X131553488Y-105974863D01*
X131631996Y-105896355D01*
X131682401Y-105797429D01*
X131682401Y-105797427D01*
X131682402Y-105797426D01*
X131699770Y-105687770D01*
X131699770Y-105687765D01*
X131682402Y-105578109D01*
X131660590Y-105535300D01*
X131631996Y-105479181D01*
X131631993Y-105479178D01*
X131631991Y-105479175D01*
X131562819Y-105410003D01*
X137444508Y-105410003D01*
X137464352Y-105535300D01*
X137464352Y-105535301D01*
X137464354Y-105535304D01*
X137521950Y-105648342D01*
X137521952Y-105648344D01*
X137521954Y-105648347D01*
X137611652Y-105738045D01*
X137611654Y-105738046D01*
X137611658Y-105738050D01*
X137724696Y-105795646D01*
X137724697Y-105795646D01*
X137724699Y-105795647D01*
X137849997Y-105815492D01*
X137850000Y-105815492D01*
X137850003Y-105815492D01*
X137975300Y-105795647D01*
X137975301Y-105795647D01*
X137975302Y-105795646D01*
X137975304Y-105795646D01*
X138088342Y-105738050D01*
X138178050Y-105648342D01*
X138235646Y-105535304D01*
X138235646Y-105535302D01*
X138235647Y-105535301D01*
X138235647Y-105535300D01*
X138255492Y-105410003D01*
X138255492Y-105409996D01*
X138235647Y-105284699D01*
X138235647Y-105284698D01*
X138218140Y-105250339D01*
X138178050Y-105171658D01*
X138178046Y-105171654D01*
X138178045Y-105171652D01*
X138088347Y-105081954D01*
X138088344Y-105081952D01*
X138088342Y-105081950D01*
X137975304Y-105024354D01*
X137975303Y-105024353D01*
X137975300Y-105024352D01*
X137850003Y-105004508D01*
X137849997Y-105004508D01*
X137724699Y-105024352D01*
X137724698Y-105024352D01*
X137664807Y-105054869D01*
X137611658Y-105081950D01*
X137611657Y-105081951D01*
X137611652Y-105081954D01*
X137521954Y-105171652D01*
X137521951Y-105171657D01*
X137464352Y-105284698D01*
X137464352Y-105284699D01*
X137444508Y-105409996D01*
X137444508Y-105410003D01*
X131562819Y-105410003D01*
X131553493Y-105400677D01*
X131553489Y-105400674D01*
X131553488Y-105400673D01*
X131549644Y-105398714D01*
X131454559Y-105350266D01*
X131344903Y-105332899D01*
X131344899Y-105332899D01*
X131235242Y-105350266D01*
X131136315Y-105400672D01*
X131136308Y-105400677D01*
X131057810Y-105479175D01*
X131057805Y-105479182D01*
X131007399Y-105578109D01*
X130990032Y-105687765D01*
X130990032Y-105687770D01*
X128770547Y-105687770D01*
X128850377Y-105647095D01*
X128928885Y-105568587D01*
X128979290Y-105469661D01*
X128979290Y-105469659D01*
X128979291Y-105469658D01*
X128996659Y-105360002D01*
X128996659Y-105359997D01*
X128979291Y-105250341D01*
X128939200Y-105171658D01*
X128928885Y-105151413D01*
X128928882Y-105151410D01*
X128928880Y-105151407D01*
X128850382Y-105072909D01*
X128850378Y-105072906D01*
X128850377Y-105072905D01*
X128814979Y-105054869D01*
X128751448Y-105022498D01*
X128641792Y-105005131D01*
X128641788Y-105005131D01*
X128532131Y-105022498D01*
X128433204Y-105072904D01*
X128433197Y-105072909D01*
X128354699Y-105151407D01*
X128354694Y-105151414D01*
X128304288Y-105250341D01*
X128286921Y-105359997D01*
X128286921Y-105360002D01*
X51800500Y-105360002D01*
X51800500Y-104700002D01*
X88255131Y-104700002D01*
X88272498Y-104809658D01*
X88322904Y-104908585D01*
X88322909Y-104908592D01*
X88401407Y-104987090D01*
X88401410Y-104987092D01*
X88401413Y-104987095D01*
X88500339Y-105037500D01*
X88500341Y-105037501D01*
X88609998Y-105054869D01*
X88610000Y-105054869D01*
X88610002Y-105054869D01*
X88719658Y-105037501D01*
X88719659Y-105037500D01*
X88719661Y-105037500D01*
X88818587Y-104987095D01*
X88897095Y-104908587D01*
X88947500Y-104809661D01*
X88947500Y-104809659D01*
X88947501Y-104809658D01*
X88964869Y-104700002D01*
X90455131Y-104700002D01*
X90472498Y-104809658D01*
X90522904Y-104908585D01*
X90522909Y-104908592D01*
X90601407Y-104987090D01*
X90601410Y-104987092D01*
X90601413Y-104987095D01*
X90700339Y-105037500D01*
X90700341Y-105037501D01*
X90809998Y-105054869D01*
X90810000Y-105054869D01*
X90810002Y-105054869D01*
X90919658Y-105037501D01*
X90919659Y-105037500D01*
X90919661Y-105037500D01*
X91018587Y-104987095D01*
X91097095Y-104908587D01*
X91147500Y-104809661D01*
X91147500Y-104809659D01*
X91147501Y-104809658D01*
X91164869Y-104700002D01*
X91164869Y-104699997D01*
X91147501Y-104590341D01*
X91147500Y-104590339D01*
X91097095Y-104491413D01*
X91097092Y-104491410D01*
X91097090Y-104491407D01*
X91018592Y-104412909D01*
X91018588Y-104412906D01*
X91018587Y-104412905D01*
X91014743Y-104410946D01*
X90919658Y-104362498D01*
X90810002Y-104345131D01*
X90809998Y-104345131D01*
X90700341Y-104362498D01*
X90601414Y-104412904D01*
X90601407Y-104412909D01*
X90522909Y-104491407D01*
X90522904Y-104491414D01*
X90472498Y-104590341D01*
X90455131Y-104699997D01*
X90455131Y-104700002D01*
X88964869Y-104700002D01*
X88964869Y-104699997D01*
X88947501Y-104590341D01*
X88947500Y-104590339D01*
X88897095Y-104491413D01*
X88897092Y-104491410D01*
X88897090Y-104491407D01*
X88818592Y-104412909D01*
X88818588Y-104412906D01*
X88818587Y-104412905D01*
X88814743Y-104410946D01*
X88719658Y-104362498D01*
X88610002Y-104345131D01*
X88609998Y-104345131D01*
X88500341Y-104362498D01*
X88401414Y-104412904D01*
X88401407Y-104412909D01*
X88322909Y-104491407D01*
X88322904Y-104491414D01*
X88272498Y-104590341D01*
X88255131Y-104699997D01*
X88255131Y-104700002D01*
X51800500Y-104700002D01*
X51800500Y-103000002D01*
X126945131Y-103000002D01*
X126962498Y-103109658D01*
X127012904Y-103208585D01*
X127012909Y-103208592D01*
X127091407Y-103287090D01*
X127091410Y-103287092D01*
X127091413Y-103287095D01*
X127155993Y-103320000D01*
X127190341Y-103337501D01*
X127299998Y-103354869D01*
X127300000Y-103354869D01*
X127300002Y-103354869D01*
X127409658Y-103337501D01*
X127409659Y-103337500D01*
X127409661Y-103337500D01*
X127444003Y-103320002D01*
X133305131Y-103320002D01*
X133322498Y-103429658D01*
X133372904Y-103528585D01*
X133372909Y-103528592D01*
X133451407Y-103607090D01*
X133451410Y-103607092D01*
X133451413Y-103607095D01*
X133550339Y-103657500D01*
X133550341Y-103657501D01*
X133659998Y-103674869D01*
X133660000Y-103674869D01*
X133660002Y-103674869D01*
X133769658Y-103657501D01*
X133769659Y-103657500D01*
X133769661Y-103657500D01*
X133868587Y-103607095D01*
X133947095Y-103528587D01*
X133997500Y-103429661D01*
X133997500Y-103429659D01*
X133997501Y-103429658D01*
X134014869Y-103320002D01*
X134014869Y-103319997D01*
X133997501Y-103210341D01*
X133996606Y-103208585D01*
X133947095Y-103111413D01*
X133947092Y-103111410D01*
X133947090Y-103111407D01*
X133868592Y-103032909D01*
X133868588Y-103032906D01*
X133868587Y-103032905D01*
X133804007Y-103000000D01*
X133769658Y-102982498D01*
X133660002Y-102965131D01*
X133659998Y-102965131D01*
X133550341Y-102982498D01*
X133451414Y-103032904D01*
X133451407Y-103032909D01*
X133372909Y-103111407D01*
X133372904Y-103111414D01*
X133322498Y-103210341D01*
X133305131Y-103319997D01*
X133305131Y-103320002D01*
X127444003Y-103320002D01*
X127508587Y-103287095D01*
X127587095Y-103208587D01*
X127637500Y-103109661D01*
X127637500Y-103109659D01*
X127637501Y-103109658D01*
X127654869Y-103000002D01*
X127654869Y-102999997D01*
X127637501Y-102890341D01*
X127637500Y-102890339D01*
X127587095Y-102791413D01*
X127587092Y-102791410D01*
X127587090Y-102791407D01*
X127508592Y-102712909D01*
X127508588Y-102712906D01*
X127508587Y-102712905D01*
X127504743Y-102710946D01*
X127409658Y-102662498D01*
X127300002Y-102645131D01*
X127299998Y-102645131D01*
X127190341Y-102662498D01*
X127091414Y-102712904D01*
X127091407Y-102712909D01*
X127012909Y-102791407D01*
X127012904Y-102791414D01*
X126962498Y-102890341D01*
X126945131Y-102999997D01*
X126945131Y-103000002D01*
X51800500Y-103000002D01*
X51800500Y-102045002D01*
X129330131Y-102045002D01*
X129347498Y-102154658D01*
X129397904Y-102253585D01*
X129397909Y-102253592D01*
X129476407Y-102332090D01*
X129476410Y-102332092D01*
X129476413Y-102332095D01*
X129575339Y-102382500D01*
X129575341Y-102382501D01*
X129684998Y-102399869D01*
X129685000Y-102399869D01*
X129685002Y-102399869D01*
X129794658Y-102382501D01*
X129794659Y-102382500D01*
X129794661Y-102382500D01*
X129893587Y-102332095D01*
X129972095Y-102253587D01*
X130022500Y-102154661D01*
X130022500Y-102154659D01*
X130022501Y-102154658D01*
X130039869Y-102045002D01*
X130039869Y-102044997D01*
X130022501Y-101935341D01*
X129984114Y-101860002D01*
X133305131Y-101860002D01*
X133322498Y-101969658D01*
X133372904Y-102068585D01*
X133372909Y-102068592D01*
X133451407Y-102147090D01*
X133451410Y-102147092D01*
X133451413Y-102147095D01*
X133550339Y-102197500D01*
X133550341Y-102197501D01*
X133659998Y-102214869D01*
X133660000Y-102214869D01*
X133660002Y-102214869D01*
X133769658Y-102197501D01*
X133769659Y-102197500D01*
X133769661Y-102197500D01*
X133868587Y-102147095D01*
X133947095Y-102068587D01*
X133997500Y-101969661D01*
X133997500Y-101969659D01*
X133997501Y-101969658D01*
X134014869Y-101860002D01*
X134014869Y-101859997D01*
X133997501Y-101750341D01*
X133997500Y-101750339D01*
X133947095Y-101651413D01*
X133947092Y-101651410D01*
X133947090Y-101651407D01*
X133868592Y-101572909D01*
X133868588Y-101572906D01*
X133868587Y-101572905D01*
X133864743Y-101570946D01*
X133769658Y-101522498D01*
X133660002Y-101505131D01*
X133659998Y-101505131D01*
X133550341Y-101522498D01*
X133451414Y-101572904D01*
X133451407Y-101572909D01*
X133372909Y-101651407D01*
X133372904Y-101651414D01*
X133322498Y-101750341D01*
X133305131Y-101859997D01*
X133305131Y-101860002D01*
X129984114Y-101860002D01*
X129984113Y-101860000D01*
X129972095Y-101836413D01*
X129972092Y-101836410D01*
X129972090Y-101836407D01*
X129893592Y-101757909D01*
X129893588Y-101757906D01*
X129893587Y-101757905D01*
X129878738Y-101750339D01*
X129794658Y-101707498D01*
X129685002Y-101690131D01*
X129684998Y-101690131D01*
X129575341Y-101707498D01*
X129476414Y-101757904D01*
X129476407Y-101757909D01*
X129397909Y-101836407D01*
X129397904Y-101836414D01*
X129347498Y-101935341D01*
X129330131Y-102044997D01*
X129330131Y-102045002D01*
X51800500Y-102045002D01*
X51800500Y-95842507D01*
X108727048Y-95842507D01*
X108746834Y-96144384D01*
X108746838Y-96144411D01*
X108805859Y-96441130D01*
X108805862Y-96441144D01*
X108903109Y-96727623D01*
X108903118Y-96727644D01*
X109036920Y-96998968D01*
X109036925Y-96998975D01*
X109205009Y-97250534D01*
X109239305Y-97289640D01*
X109960973Y-96567971D01*
X110040338Y-96681316D01*
X110201184Y-96842162D01*
X110314526Y-96921525D01*
X109592858Y-97643193D01*
X109592859Y-97643194D01*
X109631965Y-97677489D01*
X109883524Y-97845574D01*
X109883531Y-97845579D01*
X110154855Y-97979381D01*
X110154876Y-97979390D01*
X110441355Y-98076637D01*
X110441369Y-98076640D01*
X110738088Y-98135661D01*
X110738115Y-98135665D01*
X111039993Y-98155452D01*
X111040007Y-98155452D01*
X111341884Y-98135665D01*
X111341911Y-98135661D01*
X111638630Y-98076640D01*
X111638644Y-98076637D01*
X111925123Y-97979390D01*
X111925144Y-97979381D01*
X112196468Y-97845579D01*
X112196475Y-97845574D01*
X112448028Y-97677493D01*
X112448039Y-97677485D01*
X112487139Y-97643194D01*
X112487139Y-97643193D01*
X111765472Y-96921525D01*
X111878816Y-96842162D01*
X112039662Y-96681316D01*
X112119026Y-96567972D01*
X112840693Y-97289639D01*
X112840694Y-97289639D01*
X112874985Y-97250539D01*
X112874993Y-97250528D01*
X113043074Y-96998975D01*
X113043079Y-96998968D01*
X113176881Y-96727644D01*
X113176890Y-96727623D01*
X113274137Y-96441144D01*
X113274140Y-96441130D01*
X113333161Y-96144411D01*
X113333165Y-96144384D01*
X113352952Y-95842507D01*
X113352952Y-95842492D01*
X113349505Y-95789901D01*
X114935746Y-95789901D01*
X114945745Y-95999827D01*
X114995296Y-96204078D01*
X114995298Y-96204082D01*
X115082598Y-96395243D01*
X115082601Y-96395248D01*
X115082602Y-96395250D01*
X115082604Y-96395253D01*
X115175164Y-96525235D01*
X115204515Y-96566453D01*
X115204520Y-96566459D01*
X115356620Y-96711485D01*
X115451578Y-96772511D01*
X115533428Y-96825113D01*
X115728543Y-96903225D01*
X115831729Y-96923112D01*
X115934914Y-96943000D01*
X115934915Y-96943000D01*
X116092419Y-96943000D01*
X116092425Y-96943000D01*
X116249218Y-96928028D01*
X116450875Y-96868816D01*
X116637682Y-96772511D01*
X116802886Y-96642592D01*
X116940519Y-96483756D01*
X116941937Y-96481301D01*
X117045601Y-96301749D01*
X117045600Y-96301749D01*
X117045604Y-96301744D01*
X117114344Y-96103133D01*
X117144254Y-95895102D01*
X117141749Y-95842507D01*
X118727048Y-95842507D01*
X118746834Y-96144384D01*
X118746838Y-96144411D01*
X118805859Y-96441130D01*
X118805862Y-96441144D01*
X118903109Y-96727623D01*
X118903118Y-96727644D01*
X119036920Y-96998968D01*
X119036925Y-96998975D01*
X119205009Y-97250534D01*
X119239305Y-97289640D01*
X119960973Y-96567971D01*
X120040338Y-96681316D01*
X120201184Y-96842162D01*
X120314526Y-96921525D01*
X119592858Y-97643193D01*
X119592859Y-97643194D01*
X119631965Y-97677489D01*
X119883524Y-97845574D01*
X119883531Y-97845579D01*
X120154855Y-97979381D01*
X120154876Y-97979390D01*
X120441355Y-98076637D01*
X120441369Y-98076640D01*
X120738088Y-98135661D01*
X120738115Y-98135665D01*
X121039993Y-98155452D01*
X121040007Y-98155452D01*
X121341884Y-98135665D01*
X121341911Y-98135661D01*
X121638630Y-98076640D01*
X121638644Y-98076637D01*
X121925123Y-97979390D01*
X121925144Y-97979381D01*
X122196468Y-97845579D01*
X122196475Y-97845574D01*
X122448028Y-97677493D01*
X122448039Y-97677485D01*
X122487139Y-97643194D01*
X122487139Y-97643193D01*
X121765472Y-96921525D01*
X121878816Y-96842162D01*
X122039662Y-96681316D01*
X122119026Y-96567972D01*
X122840693Y-97289639D01*
X122840694Y-97289639D01*
X122874985Y-97250539D01*
X122874993Y-97250528D01*
X123043074Y-96998975D01*
X123043079Y-96998968D01*
X123176881Y-96727644D01*
X123176890Y-96727623D01*
X123274137Y-96441144D01*
X123274140Y-96441130D01*
X123333161Y-96144411D01*
X123333165Y-96144384D01*
X123352952Y-95842507D01*
X123352952Y-95842492D01*
X123333165Y-95540615D01*
X123333161Y-95540588D01*
X123274140Y-95243869D01*
X123274137Y-95243855D01*
X123176890Y-94957376D01*
X123176881Y-94957355D01*
X123043079Y-94686031D01*
X123043074Y-94686024D01*
X122874989Y-94434465D01*
X122840694Y-94395359D01*
X122840693Y-94395358D01*
X122119025Y-95117026D01*
X122039662Y-95003684D01*
X121878816Y-94842838D01*
X121765472Y-94763473D01*
X122487140Y-94041805D01*
X122487140Y-94041804D01*
X122448034Y-94007509D01*
X122196475Y-93839425D01*
X122196468Y-93839420D01*
X122116542Y-93800005D01*
X126560057Y-93800005D01*
X126579807Y-94113942D01*
X126579808Y-94113949D01*
X126638755Y-94422958D01*
X126735963Y-94722132D01*
X126735965Y-94722137D01*
X126869900Y-95006761D01*
X126869903Y-95006767D01*
X127038457Y-95272367D01*
X127038460Y-95272371D01*
X127129286Y-95382160D01*
X127767266Y-94744180D01*
X127930130Y-94934870D01*
X128120818Y-95097732D01*
X127479971Y-95738579D01*
X127479972Y-95738581D01*
X127722772Y-95914985D01*
X127722790Y-95914996D01*
X127998447Y-96066540D01*
X127998455Y-96066544D01*
X128290926Y-96182340D01*
X128595620Y-96260573D01*
X128595629Y-96260575D01*
X128907701Y-96299999D01*
X128907715Y-96300000D01*
X129222285Y-96300000D01*
X129222298Y-96299999D01*
X129534370Y-96260575D01*
X129534379Y-96260573D01*
X129839073Y-96182340D01*
X130131544Y-96066544D01*
X130131552Y-96066540D01*
X130407209Y-95914996D01*
X130407219Y-95914990D01*
X130436201Y-95893933D01*
X136495668Y-95893933D01*
X136526134Y-96066706D01*
X136526135Y-96066711D01*
X136595623Y-96227804D01*
X136595624Y-96227806D01*
X136595626Y-96227809D01*
X136686595Y-96350000D01*
X136700390Y-96368530D01*
X136834786Y-96481302D01*
X136912488Y-96520325D01*
X136991562Y-96560038D01*
X136991563Y-96560038D01*
X136991567Y-96560040D01*
X137162279Y-96600500D01*
X137162282Y-96600500D01*
X137293701Y-96600500D01*
X137293709Y-96600500D01*
X137424255Y-96585241D01*
X137589117Y-96525237D01*
X137735696Y-96428830D01*
X137856092Y-96301218D01*
X137943812Y-96149281D01*
X137994130Y-95981210D01*
X137999213Y-95893933D01*
X138785668Y-95893933D01*
X138816134Y-96066706D01*
X138816135Y-96066711D01*
X138885623Y-96227804D01*
X138885624Y-96227806D01*
X138885626Y-96227809D01*
X138976595Y-96350000D01*
X138990390Y-96368530D01*
X139124786Y-96481302D01*
X139202488Y-96520325D01*
X139281562Y-96560038D01*
X139281563Y-96560038D01*
X139281567Y-96560040D01*
X139452279Y-96600500D01*
X139452282Y-96600500D01*
X139583701Y-96600500D01*
X139583709Y-96600500D01*
X139714255Y-96585241D01*
X139879117Y-96525237D01*
X140025696Y-96428830D01*
X140146092Y-96301218D01*
X140233812Y-96149281D01*
X140284130Y-95981210D01*
X140289213Y-95893933D01*
X141075668Y-95893933D01*
X141106134Y-96066706D01*
X141106135Y-96066711D01*
X141175623Y-96227804D01*
X141175624Y-96227806D01*
X141175626Y-96227809D01*
X141266595Y-96350000D01*
X141280390Y-96368530D01*
X141414786Y-96481302D01*
X141492488Y-96520325D01*
X141571562Y-96560038D01*
X141571563Y-96560038D01*
X141571567Y-96560040D01*
X141742279Y-96600500D01*
X141742282Y-96600500D01*
X141873701Y-96600500D01*
X141873709Y-96600500D01*
X142004255Y-96585241D01*
X142169117Y-96525237D01*
X142315696Y-96428830D01*
X142436092Y-96301218D01*
X142523812Y-96149281D01*
X142574130Y-95981210D01*
X142579213Y-95893933D01*
X143365668Y-95893933D01*
X143396134Y-96066706D01*
X143396135Y-96066711D01*
X143465623Y-96227804D01*
X143465624Y-96227806D01*
X143465626Y-96227809D01*
X143556595Y-96350000D01*
X143570390Y-96368530D01*
X143704786Y-96481302D01*
X143782488Y-96520325D01*
X143861562Y-96560038D01*
X143861563Y-96560038D01*
X143861567Y-96560040D01*
X144032279Y-96600500D01*
X144032282Y-96600500D01*
X144163701Y-96600500D01*
X144163709Y-96600500D01*
X144294255Y-96585241D01*
X144459117Y-96525237D01*
X144605696Y-96428830D01*
X144726092Y-96301218D01*
X144813812Y-96149281D01*
X144864130Y-95981210D01*
X144866028Y-95948612D01*
X144889576Y-95882832D01*
X144932061Y-95850140D01*
X144900594Y-95832304D01*
X144868087Y-95770457D01*
X144867552Y-95767621D01*
X144843865Y-95633289D01*
X144774377Y-95472196D01*
X144739276Y-95425048D01*
X144669609Y-95331469D01*
X144573746Y-95251030D01*
X144535044Y-95192859D01*
X144533936Y-95122998D01*
X144534260Y-95122475D01*
X144477302Y-95155963D01*
X144407487Y-95153191D01*
X144391463Y-95146504D01*
X144378435Y-95139961D01*
X144378434Y-95139960D01*
X144378433Y-95139960D01*
X144207721Y-95099500D01*
X144076291Y-95099500D01*
X143971854Y-95111707D01*
X143945743Y-95114759D01*
X143945740Y-95114760D01*
X143780884Y-95174762D01*
X143780880Y-95174764D01*
X143634306Y-95271167D01*
X143634305Y-95271168D01*
X143513910Y-95398778D01*
X143426188Y-95550718D01*
X143375870Y-95718789D01*
X143375869Y-95718794D01*
X143365668Y-95893933D01*
X142579213Y-95893933D01*
X142584331Y-95806065D01*
X142553865Y-95633289D01*
X142484377Y-95472196D01*
X142449276Y-95425048D01*
X142379609Y-95331469D01*
X142245214Y-95218698D01*
X142245212Y-95218697D01*
X142088437Y-95139961D01*
X142088433Y-95139960D01*
X141917721Y-95099500D01*
X141786291Y-95099500D01*
X141681854Y-95111707D01*
X141655743Y-95114759D01*
X141655737Y-95114761D01*
X141537131Y-95157929D01*
X141467402Y-95162360D01*
X141406347Y-95128389D01*
X141405447Y-95126710D01*
X141405987Y-95194606D01*
X141368680Y-95253682D01*
X141354878Y-95264214D01*
X141344307Y-95271166D01*
X141344305Y-95271168D01*
X141223910Y-95398778D01*
X141136188Y-95550718D01*
X141085870Y-95718789D01*
X141085869Y-95718794D01*
X141075668Y-95893933D01*
X140289213Y-95893933D01*
X140294331Y-95806065D01*
X140263865Y-95633289D01*
X140194377Y-95472196D01*
X140159276Y-95425048D01*
X140089609Y-95331469D01*
X139993746Y-95251030D01*
X139955044Y-95192859D01*
X139953936Y-95122998D01*
X139954260Y-95122475D01*
X139897302Y-95155963D01*
X139827487Y-95153191D01*
X139811463Y-95146504D01*
X139798435Y-95139961D01*
X139798434Y-95139960D01*
X139798433Y-95139960D01*
X139627721Y-95099500D01*
X139496291Y-95099500D01*
X139391854Y-95111707D01*
X139365743Y-95114759D01*
X139365737Y-95114761D01*
X139247131Y-95157929D01*
X139177402Y-95162360D01*
X139116347Y-95128389D01*
X139115447Y-95126710D01*
X139115987Y-95194606D01*
X139078680Y-95253682D01*
X139064878Y-95264214D01*
X139054307Y-95271166D01*
X139054305Y-95271168D01*
X138933910Y-95398778D01*
X138846188Y-95550718D01*
X138795870Y-95718789D01*
X138795869Y-95718794D01*
X138785668Y-95893933D01*
X137999213Y-95893933D01*
X138004331Y-95806065D01*
X137973865Y-95633289D01*
X137904377Y-95472196D01*
X137869276Y-95425048D01*
X137799609Y-95331469D01*
X137703746Y-95251030D01*
X137665044Y-95192859D01*
X137663936Y-95122998D01*
X137664260Y-95122475D01*
X137607302Y-95155963D01*
X137537487Y-95153191D01*
X137521463Y-95146504D01*
X137508435Y-95139961D01*
X137508434Y-95139960D01*
X137508433Y-95139960D01*
X137337721Y-95099500D01*
X137206291Y-95099500D01*
X137101854Y-95111707D01*
X137075743Y-95114759D01*
X137075737Y-95114761D01*
X136957131Y-95157929D01*
X136887402Y-95162360D01*
X136826347Y-95128389D01*
X136825447Y-95126710D01*
X136825987Y-95194606D01*
X136788680Y-95253682D01*
X136774878Y-95264214D01*
X136764307Y-95271166D01*
X136764305Y-95271168D01*
X136643910Y-95398778D01*
X136556188Y-95550718D01*
X136505870Y-95718789D01*
X136505869Y-95718794D01*
X136495668Y-95893933D01*
X130436201Y-95893933D01*
X130650026Y-95738579D01*
X130650027Y-95738579D01*
X130009180Y-95097733D01*
X130199870Y-94934870D01*
X130362733Y-94744181D01*
X131000712Y-95382160D01*
X131091544Y-95272364D01*
X131260096Y-95006767D01*
X131260099Y-95006761D01*
X131394034Y-94722137D01*
X131394036Y-94722132D01*
X131491244Y-94422958D01*
X131550191Y-94113949D01*
X131550192Y-94113942D01*
X131565539Y-93870002D01*
X134800034Y-93870002D01*
X134819858Y-94096599D01*
X134819860Y-94096610D01*
X134878730Y-94316317D01*
X134878735Y-94316331D01*
X134974863Y-94522478D01*
X135025974Y-94595472D01*
X135621923Y-93999523D01*
X135645507Y-94079844D01*
X135723239Y-94200798D01*
X135831900Y-94294952D01*
X135962685Y-94354680D01*
X135972466Y-94356086D01*
X135379526Y-94949025D01*
X135452513Y-95000132D01*
X135452521Y-95000136D01*
X135658668Y-95096264D01*
X135658682Y-95096269D01*
X135878389Y-95155139D01*
X135878400Y-95155141D01*
X136104998Y-95174966D01*
X136105002Y-95174966D01*
X136331599Y-95155141D01*
X136331610Y-95155139D01*
X136551317Y-95096269D01*
X136551326Y-95096265D01*
X136654331Y-95048234D01*
X136723408Y-95037742D01*
X136787192Y-95066262D01*
X136819670Y-95115927D01*
X136793350Y-95066802D01*
X136798888Y-94997152D01*
X136829817Y-94956512D01*
X136830472Y-94949025D01*
X136237533Y-94356086D01*
X136247315Y-94354680D01*
X136378100Y-94294952D01*
X136486761Y-94200798D01*
X136564493Y-94079844D01*
X136588076Y-93999523D01*
X137184024Y-94595471D01*
X137239191Y-94590645D01*
X137260806Y-94590645D01*
X137315974Y-94595472D01*
X137911923Y-93999523D01*
X137935507Y-94079844D01*
X138013239Y-94200798D01*
X138121900Y-94294952D01*
X138252685Y-94354680D01*
X138262466Y-94356086D01*
X137669526Y-94949025D01*
X137670678Y-94962193D01*
X137691864Y-94988698D01*
X137699056Y-95058197D01*
X137676677Y-95102461D01*
X137700773Y-95063628D01*
X137763860Y-95033599D01*
X137833168Y-95042444D01*
X137835857Y-95043659D01*
X137948673Y-95096265D01*
X137948682Y-95096269D01*
X138168389Y-95155139D01*
X138168400Y-95155141D01*
X138394998Y-95174966D01*
X138395002Y-95174966D01*
X138621599Y-95155141D01*
X138621610Y-95155139D01*
X138841317Y-95096269D01*
X138841326Y-95096265D01*
X138944331Y-95048234D01*
X139013408Y-95037742D01*
X139077192Y-95066262D01*
X139109670Y-95115927D01*
X139083350Y-95066802D01*
X139088888Y-94997152D01*
X139119817Y-94956512D01*
X139120472Y-94949025D01*
X138527533Y-94356086D01*
X138537315Y-94354680D01*
X138668100Y-94294952D01*
X138776761Y-94200798D01*
X138854493Y-94079844D01*
X138878076Y-93999523D01*
X139474024Y-94595471D01*
X139529191Y-94590645D01*
X139550806Y-94590645D01*
X139605974Y-94595472D01*
X140201923Y-93999523D01*
X140225507Y-94079844D01*
X140303239Y-94200798D01*
X140411900Y-94294952D01*
X140542685Y-94354680D01*
X140552466Y-94356086D01*
X139959526Y-94949025D01*
X139960678Y-94962193D01*
X139981864Y-94988698D01*
X139989056Y-95058197D01*
X139966677Y-95102461D01*
X139990773Y-95063628D01*
X140053860Y-95033599D01*
X140123168Y-95042444D01*
X140125857Y-95043659D01*
X140238673Y-95096265D01*
X140238682Y-95096269D01*
X140458389Y-95155139D01*
X140458400Y-95155141D01*
X140684998Y-95174966D01*
X140685002Y-95174966D01*
X140911599Y-95155141D01*
X140911610Y-95155139D01*
X141131317Y-95096269D01*
X141131326Y-95096265D01*
X141234331Y-95048234D01*
X141303408Y-95037742D01*
X141367192Y-95066262D01*
X141399670Y-95115927D01*
X141373350Y-95066802D01*
X141378888Y-94997152D01*
X141409817Y-94956512D01*
X141410472Y-94949025D01*
X140817533Y-94356086D01*
X140827315Y-94354680D01*
X140958100Y-94294952D01*
X141066761Y-94200798D01*
X141144493Y-94079844D01*
X141168076Y-93999523D01*
X141764024Y-94595471D01*
X141815136Y-94522478D01*
X141911264Y-94316331D01*
X141911269Y-94316317D01*
X141970139Y-94096610D01*
X141970141Y-94096599D01*
X141981815Y-93963167D01*
X142007267Y-93898098D01*
X142046265Y-93869857D01*
X142162935Y-93869857D01*
X142194404Y-93887695D01*
X142226912Y-93949541D01*
X142227456Y-93952429D01*
X142251135Y-94086711D01*
X142320623Y-94247804D01*
X142320624Y-94247806D01*
X142320626Y-94247809D01*
X142411595Y-94370000D01*
X142425390Y-94388530D01*
X142559786Y-94501302D01*
X142614203Y-94528631D01*
X142716562Y-94580038D01*
X142716563Y-94580038D01*
X142716567Y-94580040D01*
X142887279Y-94620500D01*
X142887282Y-94620500D01*
X143018701Y-94620500D01*
X143018709Y-94620500D01*
X143149255Y-94605241D01*
X143314117Y-94545237D01*
X143460696Y-94448830D01*
X143581092Y-94321218D01*
X143668812Y-94169281D01*
X143719130Y-94001210D01*
X143721028Y-93968612D01*
X143744576Y-93902832D01*
X143785372Y-93871440D01*
X143901938Y-93871440D01*
X143931331Y-93886988D01*
X143965625Y-93947863D01*
X143968346Y-93965014D01*
X143979858Y-94096600D01*
X143979860Y-94096610D01*
X144038730Y-94316317D01*
X144038735Y-94316331D01*
X144134863Y-94522478D01*
X144185974Y-94595472D01*
X144781923Y-93999523D01*
X144805507Y-94079844D01*
X144883239Y-94200798D01*
X144991900Y-94294952D01*
X145122685Y-94354680D01*
X145132466Y-94356086D01*
X144539526Y-94949025D01*
X144540678Y-94962193D01*
X144561864Y-94988698D01*
X144569056Y-95058197D01*
X144546677Y-95102461D01*
X144570773Y-95063628D01*
X144633860Y-95033599D01*
X144703168Y-95042444D01*
X144705857Y-95043659D01*
X144818673Y-95096265D01*
X144818682Y-95096269D01*
X145038389Y-95155139D01*
X145038400Y-95155141D01*
X145112970Y-95161665D01*
X145178039Y-95187117D01*
X145219017Y-95243708D01*
X145222896Y-95313470D01*
X145214545Y-95337597D01*
X145183735Y-95403668D01*
X145183730Y-95403682D01*
X145124860Y-95623389D01*
X145124858Y-95623399D01*
X145113184Y-95756833D01*
X145087731Y-95821902D01*
X145046938Y-95851440D01*
X145076331Y-95866988D01*
X145110625Y-95927863D01*
X145113346Y-95945014D01*
X145124858Y-96076600D01*
X145124860Y-96076610D01*
X145183730Y-96296317D01*
X145183735Y-96296331D01*
X145279863Y-96502478D01*
X145330974Y-96575472D01*
X145926922Y-95979523D01*
X145950507Y-96059844D01*
X146028239Y-96180798D01*
X146136900Y-96274952D01*
X146267685Y-96334680D01*
X146277466Y-96336086D01*
X145684526Y-96929025D01*
X145757513Y-96980132D01*
X145757521Y-96980136D01*
X145963668Y-97076264D01*
X145963682Y-97076269D01*
X146183389Y-97135139D01*
X146183400Y-97135141D01*
X146409998Y-97154966D01*
X146410002Y-97154966D01*
X146636599Y-97135141D01*
X146636610Y-97135139D01*
X146856317Y-97076269D01*
X146856331Y-97076264D01*
X147062478Y-96980136D01*
X147135471Y-96929024D01*
X146542533Y-96336086D01*
X146552315Y-96334680D01*
X146683100Y-96274952D01*
X146791761Y-96180798D01*
X146869493Y-96059844D01*
X146893076Y-95979523D01*
X147489024Y-96575471D01*
X147540136Y-96502478D01*
X147636264Y-96296331D01*
X147636269Y-96296317D01*
X147695139Y-96076610D01*
X147695141Y-96076599D01*
X147714966Y-95850002D01*
X147714966Y-95849997D01*
X147695141Y-95623400D01*
X147695139Y-95623389D01*
X147636269Y-95403682D01*
X147636264Y-95403668D01*
X147540136Y-95197521D01*
X147540132Y-95197513D01*
X147489025Y-95124526D01*
X146893076Y-95720475D01*
X146869493Y-95640156D01*
X146791761Y-95519202D01*
X146683100Y-95425048D01*
X146552315Y-95365320D01*
X146542532Y-95363913D01*
X147135472Y-94770974D01*
X147062478Y-94719863D01*
X146856331Y-94623735D01*
X146856317Y-94623730D01*
X146636610Y-94564860D01*
X146636600Y-94564858D01*
X146562028Y-94558334D01*
X146496959Y-94532881D01*
X146455981Y-94476290D01*
X146452103Y-94406528D01*
X146460454Y-94382400D01*
X146491267Y-94316321D01*
X146491269Y-94316317D01*
X146550139Y-94096610D01*
X146550141Y-94096599D01*
X146569966Y-93870002D01*
X146569966Y-93869997D01*
X146563842Y-93800005D01*
X151560057Y-93800005D01*
X151579807Y-94113942D01*
X151579808Y-94113949D01*
X151638755Y-94422958D01*
X151735963Y-94722132D01*
X151735965Y-94722137D01*
X151869900Y-95006761D01*
X151869903Y-95006767D01*
X152038457Y-95272367D01*
X152038460Y-95272371D01*
X152129286Y-95382160D01*
X152767266Y-94744180D01*
X152930130Y-94934870D01*
X153120818Y-95097732D01*
X152479971Y-95738579D01*
X152479972Y-95738581D01*
X152722772Y-95914985D01*
X152722790Y-95914996D01*
X152998447Y-96066540D01*
X152998455Y-96066544D01*
X153290926Y-96182340D01*
X153595620Y-96260573D01*
X153595629Y-96260575D01*
X153907701Y-96299999D01*
X153907715Y-96300000D01*
X154222285Y-96300000D01*
X154222298Y-96299999D01*
X154534370Y-96260575D01*
X154534379Y-96260573D01*
X154839073Y-96182340D01*
X155131544Y-96066544D01*
X155131552Y-96066540D01*
X155407209Y-95914996D01*
X155407219Y-95914990D01*
X155650026Y-95738579D01*
X155650027Y-95738579D01*
X155009180Y-95097733D01*
X155199870Y-94934870D01*
X155362733Y-94744181D01*
X156000712Y-95382160D01*
X156091544Y-95272364D01*
X156260096Y-95006767D01*
X156260099Y-95006761D01*
X156394034Y-94722137D01*
X156394036Y-94722132D01*
X156491244Y-94422958D01*
X156550191Y-94113949D01*
X156550192Y-94113942D01*
X156569943Y-93800005D01*
X156569943Y-93799994D01*
X156550192Y-93486057D01*
X156550191Y-93486050D01*
X156491244Y-93177041D01*
X156394036Y-92877867D01*
X156394034Y-92877862D01*
X156260099Y-92593238D01*
X156260096Y-92593232D01*
X156091542Y-92327632D01*
X156091539Y-92327628D01*
X156000712Y-92217838D01*
X155362732Y-92855818D01*
X155199870Y-92665130D01*
X155009180Y-92502266D01*
X155650027Y-91861419D01*
X155650026Y-91861417D01*
X155407227Y-91685014D01*
X155407209Y-91685003D01*
X155131552Y-91533459D01*
X155131544Y-91533455D01*
X154839073Y-91417659D01*
X154534379Y-91339426D01*
X154534370Y-91339424D01*
X154222298Y-91300000D01*
X153907701Y-91300000D01*
X153595629Y-91339424D01*
X153595620Y-91339426D01*
X153290926Y-91417659D01*
X152998455Y-91533455D01*
X152998447Y-91533459D01*
X152722787Y-91685004D01*
X152722782Y-91685007D01*
X152479972Y-91861418D01*
X152479971Y-91861419D01*
X153120819Y-92502266D01*
X152930130Y-92665130D01*
X152767266Y-92855818D01*
X152129286Y-92217838D01*
X152129285Y-92217838D01*
X152038459Y-92327629D01*
X152038457Y-92327632D01*
X151869903Y-92593232D01*
X151869900Y-92593238D01*
X151735965Y-92877862D01*
X151735963Y-92877867D01*
X151638755Y-93177041D01*
X151579808Y-93486050D01*
X151579807Y-93486057D01*
X151560057Y-93799994D01*
X151560057Y-93800005D01*
X146563842Y-93800005D01*
X146550141Y-93643400D01*
X146550139Y-93643389D01*
X146491269Y-93423682D01*
X146491264Y-93423668D01*
X146395136Y-93217521D01*
X146395132Y-93217513D01*
X146344025Y-93144526D01*
X145748076Y-93740475D01*
X145724493Y-93660156D01*
X145646761Y-93539202D01*
X145538100Y-93445048D01*
X145407315Y-93385320D01*
X145397533Y-93383913D01*
X145990472Y-92790974D01*
X145989320Y-92777805D01*
X145968136Y-92751303D01*
X145960944Y-92681804D01*
X145983331Y-92637519D01*
X145959226Y-92676371D01*
X145896139Y-92706400D01*
X145826831Y-92697555D01*
X145824143Y-92696340D01*
X145711331Y-92643735D01*
X145711317Y-92643730D01*
X145491610Y-92584860D01*
X145491599Y-92584858D01*
X145265002Y-92565034D01*
X145264998Y-92565034D01*
X145038400Y-92584858D01*
X145038389Y-92584860D01*
X144818682Y-92643730D01*
X144818677Y-92643732D01*
X144715665Y-92691767D01*
X144646587Y-92702258D01*
X144582804Y-92673738D01*
X144550281Y-92624004D01*
X144576639Y-92673199D01*
X144571102Y-92742849D01*
X144540182Y-92783477D01*
X144539526Y-92790974D01*
X145132466Y-93383913D01*
X145122685Y-93385320D01*
X144991900Y-93445048D01*
X144883239Y-93539202D01*
X144805507Y-93660156D01*
X144781923Y-93740475D01*
X144185974Y-93144526D01*
X144185973Y-93144526D01*
X144134868Y-93217512D01*
X144134866Y-93217516D01*
X144038734Y-93423673D01*
X144038730Y-93423682D01*
X143979860Y-93643389D01*
X143979858Y-93643399D01*
X143968184Y-93776833D01*
X143942731Y-93841902D01*
X143901938Y-93871440D01*
X143785372Y-93871440D01*
X143787061Y-93870140D01*
X143755594Y-93852304D01*
X143723087Y-93790457D01*
X143722552Y-93787621D01*
X143698865Y-93653289D01*
X143629377Y-93492196D01*
X143624801Y-93486050D01*
X143524609Y-93351469D01*
X143390214Y-93238698D01*
X143390212Y-93238697D01*
X143233437Y-93159961D01*
X143233433Y-93159960D01*
X143062721Y-93119500D01*
X142931291Y-93119500D01*
X142826854Y-93131707D01*
X142800743Y-93134759D01*
X142800740Y-93134760D01*
X142635884Y-93194762D01*
X142635880Y-93194764D01*
X142489306Y-93291167D01*
X142489305Y-93291168D01*
X142368910Y-93418778D01*
X142281188Y-93570718D01*
X142230870Y-93738789D01*
X142230869Y-93738793D01*
X142228971Y-93771389D01*
X142205421Y-93837170D01*
X142162935Y-93869857D01*
X142046265Y-93869857D01*
X142048059Y-93868558D01*
X142018666Y-93853009D01*
X141984374Y-93792133D01*
X141981653Y-93774984D01*
X141970141Y-93643400D01*
X141970139Y-93643389D01*
X141911269Y-93423682D01*
X141911264Y-93423668D01*
X141815136Y-93217521D01*
X141815132Y-93217513D01*
X141764025Y-93144526D01*
X141168076Y-93740475D01*
X141144493Y-93660156D01*
X141066761Y-93539202D01*
X140958100Y-93445048D01*
X140827315Y-93385320D01*
X140817533Y-93383913D01*
X141410472Y-92790974D01*
X141409320Y-92777805D01*
X141388136Y-92751303D01*
X141380944Y-92681804D01*
X141403331Y-92637519D01*
X141379226Y-92676371D01*
X141316139Y-92706400D01*
X141246831Y-92697555D01*
X141244143Y-92696340D01*
X141131331Y-92643735D01*
X141131317Y-92643730D01*
X140911610Y-92584860D01*
X140911599Y-92584858D01*
X140685002Y-92565034D01*
X140684998Y-92565034D01*
X140458400Y-92584858D01*
X140458389Y-92584860D01*
X140238682Y-92643730D01*
X140238677Y-92643732D01*
X140135665Y-92691767D01*
X140066587Y-92702258D01*
X140002804Y-92673738D01*
X139970281Y-92624004D01*
X139996639Y-92673199D01*
X139991102Y-92742849D01*
X139960182Y-92783477D01*
X139959526Y-92790974D01*
X140552466Y-93383913D01*
X140542685Y-93385320D01*
X140411900Y-93445048D01*
X140303239Y-93539202D01*
X140225507Y-93660156D01*
X140201923Y-93740475D01*
X139605973Y-93144525D01*
X139550804Y-93149352D01*
X139529193Y-93149352D01*
X139474025Y-93144526D01*
X138878076Y-93740475D01*
X138854493Y-93660156D01*
X138776761Y-93539202D01*
X138668100Y-93445048D01*
X138537315Y-93385320D01*
X138527533Y-93383913D01*
X139120472Y-92790974D01*
X139119320Y-92777805D01*
X139098136Y-92751303D01*
X139090944Y-92681804D01*
X139113331Y-92637519D01*
X139089226Y-92676371D01*
X139026139Y-92706400D01*
X138956831Y-92697555D01*
X138954143Y-92696340D01*
X138841331Y-92643735D01*
X138841317Y-92643730D01*
X138621610Y-92584860D01*
X138621599Y-92584858D01*
X138395002Y-92565034D01*
X138394998Y-92565034D01*
X138168400Y-92584858D01*
X138168389Y-92584860D01*
X137948682Y-92643730D01*
X137948677Y-92643732D01*
X137845665Y-92691767D01*
X137776587Y-92702258D01*
X137712804Y-92673738D01*
X137680281Y-92624004D01*
X137706639Y-92673199D01*
X137701102Y-92742849D01*
X137670182Y-92783477D01*
X137669526Y-92790974D01*
X138262466Y-93383913D01*
X138252685Y-93385320D01*
X138121900Y-93445048D01*
X138013239Y-93539202D01*
X137935507Y-93660156D01*
X137911923Y-93740475D01*
X137315973Y-93144525D01*
X137260804Y-93149352D01*
X137239193Y-93149352D01*
X137184025Y-93144526D01*
X136588076Y-93740475D01*
X136564493Y-93660156D01*
X136486761Y-93539202D01*
X136378100Y-93445048D01*
X136247315Y-93385320D01*
X136237533Y-93383913D01*
X136830472Y-92790974D01*
X136829320Y-92777805D01*
X136808136Y-92751303D01*
X136800944Y-92681804D01*
X136823331Y-92637519D01*
X136799226Y-92676371D01*
X136736139Y-92706400D01*
X136666831Y-92697555D01*
X136664143Y-92696340D01*
X136551331Y-92643735D01*
X136551317Y-92643730D01*
X136331610Y-92584860D01*
X136331599Y-92584858D01*
X136105002Y-92565034D01*
X136104998Y-92565034D01*
X135878400Y-92584858D01*
X135878389Y-92584860D01*
X135658682Y-92643730D01*
X135658673Y-92643734D01*
X135452516Y-92739866D01*
X135452512Y-92739868D01*
X135379526Y-92790973D01*
X135379526Y-92790974D01*
X135972466Y-93383913D01*
X135962685Y-93385320D01*
X135831900Y-93445048D01*
X135723239Y-93539202D01*
X135645507Y-93660156D01*
X135621923Y-93740475D01*
X135025974Y-93144526D01*
X135025973Y-93144526D01*
X134974868Y-93217512D01*
X134974866Y-93217516D01*
X134878734Y-93423673D01*
X134878730Y-93423682D01*
X134819860Y-93643389D01*
X134819858Y-93643400D01*
X134800034Y-93869997D01*
X134800034Y-93870002D01*
X131565539Y-93870002D01*
X131569943Y-93800005D01*
X131569943Y-93799994D01*
X131550192Y-93486057D01*
X131550191Y-93486050D01*
X131491244Y-93177041D01*
X131394036Y-92877867D01*
X131394034Y-92877862D01*
X131260099Y-92593238D01*
X131260096Y-92593232D01*
X131091542Y-92327632D01*
X131091539Y-92327628D01*
X131000712Y-92217838D01*
X130362732Y-92855818D01*
X130199870Y-92665130D01*
X130009180Y-92502266D01*
X130577513Y-91933933D01*
X136495668Y-91933933D01*
X136516075Y-92049661D01*
X136526135Y-92106711D01*
X136595623Y-92267804D01*
X136595624Y-92267806D01*
X136595626Y-92267809D01*
X136700390Y-92408530D01*
X136796253Y-92488969D01*
X136834955Y-92547140D01*
X136836063Y-92617001D01*
X136835736Y-92617527D01*
X136892697Y-92584037D01*
X136962512Y-92586808D01*
X136978535Y-92593495D01*
X136991567Y-92600040D01*
X137162279Y-92640500D01*
X137162282Y-92640500D01*
X137293701Y-92640500D01*
X137293709Y-92640500D01*
X137424255Y-92625241D01*
X137542860Y-92582072D01*
X137612586Y-92577642D01*
X137673642Y-92611612D01*
X137674548Y-92613303D01*
X137674011Y-92545393D01*
X137711318Y-92486318D01*
X137725113Y-92475789D01*
X137735696Y-92468830D01*
X137856092Y-92341218D01*
X137943812Y-92189281D01*
X137994130Y-92021210D01*
X137999213Y-91933933D01*
X138785668Y-91933933D01*
X138806075Y-92049661D01*
X138816135Y-92106711D01*
X138885623Y-92267804D01*
X138885624Y-92267806D01*
X138885626Y-92267809D01*
X138990390Y-92408530D01*
X139086253Y-92488969D01*
X139124955Y-92547140D01*
X139126063Y-92617001D01*
X139125736Y-92617527D01*
X139182697Y-92584037D01*
X139252512Y-92586808D01*
X139268535Y-92593495D01*
X139281567Y-92600040D01*
X139452279Y-92640500D01*
X139452282Y-92640500D01*
X139583701Y-92640500D01*
X139583709Y-92640500D01*
X139714255Y-92625241D01*
X139832860Y-92582072D01*
X139902586Y-92577642D01*
X139963642Y-92611612D01*
X139964548Y-92613303D01*
X139964011Y-92545393D01*
X140001318Y-92486318D01*
X140015113Y-92475789D01*
X140025696Y-92468830D01*
X140146092Y-92341218D01*
X140233812Y-92189281D01*
X140284130Y-92021210D01*
X140289213Y-91933933D01*
X141075668Y-91933933D01*
X141096075Y-92049661D01*
X141106135Y-92106711D01*
X141175623Y-92267804D01*
X141175624Y-92267806D01*
X141175626Y-92267809D01*
X141280390Y-92408530D01*
X141376253Y-92488969D01*
X141414955Y-92547140D01*
X141416063Y-92617001D01*
X141415736Y-92617527D01*
X141472697Y-92584037D01*
X141542512Y-92586808D01*
X141558535Y-92593495D01*
X141571567Y-92600040D01*
X141742279Y-92640500D01*
X141742282Y-92640500D01*
X141873701Y-92640500D01*
X141873709Y-92640500D01*
X142004255Y-92625241D01*
X142169117Y-92565237D01*
X142315696Y-92468830D01*
X142436092Y-92341218D01*
X142523812Y-92189281D01*
X142574130Y-92021210D01*
X142579213Y-91933933D01*
X143365668Y-91933933D01*
X143386075Y-92049661D01*
X143396135Y-92106711D01*
X143465623Y-92267804D01*
X143465624Y-92267806D01*
X143465626Y-92267809D01*
X143541691Y-92369981D01*
X143570390Y-92408530D01*
X143704786Y-92521302D01*
X143756234Y-92547140D01*
X143861562Y-92600038D01*
X143861563Y-92600038D01*
X143861567Y-92600040D01*
X144032279Y-92640500D01*
X144032282Y-92640500D01*
X144163701Y-92640500D01*
X144163709Y-92640500D01*
X144294255Y-92625241D01*
X144412860Y-92582072D01*
X144482586Y-92577642D01*
X144543642Y-92611612D01*
X144544548Y-92613303D01*
X144544011Y-92545393D01*
X144581318Y-92486318D01*
X144595113Y-92475789D01*
X144605696Y-92468830D01*
X144726092Y-92341218D01*
X144813812Y-92189281D01*
X144864130Y-92021210D01*
X144869213Y-91933933D01*
X145655668Y-91933933D01*
X145676075Y-92049661D01*
X145686135Y-92106711D01*
X145755623Y-92267804D01*
X145755624Y-92267806D01*
X145755626Y-92267809D01*
X145860390Y-92408530D01*
X145956253Y-92488969D01*
X145994955Y-92547140D01*
X145996063Y-92617001D01*
X145995736Y-92617527D01*
X146052697Y-92584037D01*
X146122512Y-92586808D01*
X146138535Y-92593495D01*
X146151567Y-92600040D01*
X146322279Y-92640500D01*
X146322282Y-92640500D01*
X146453701Y-92640500D01*
X146453709Y-92640500D01*
X146584255Y-92625241D01*
X146749117Y-92565237D01*
X146895696Y-92468830D01*
X147016092Y-92341218D01*
X147103812Y-92189281D01*
X147154130Y-92021210D01*
X147164331Y-91846065D01*
X147133865Y-91673289D01*
X147064377Y-91512196D01*
X146959610Y-91371470D01*
X146925075Y-91342492D01*
X146825214Y-91258698D01*
X146825212Y-91258697D01*
X146668437Y-91179961D01*
X146668433Y-91179960D01*
X146497721Y-91139500D01*
X146366291Y-91139500D01*
X146261854Y-91151707D01*
X146235743Y-91154759D01*
X146235740Y-91154760D01*
X146070884Y-91214762D01*
X146070880Y-91214764D01*
X145924306Y-91311167D01*
X145924305Y-91311168D01*
X145803910Y-91438778D01*
X145716188Y-91590718D01*
X145665870Y-91758789D01*
X145665869Y-91758794D01*
X145655668Y-91933933D01*
X144869213Y-91933933D01*
X144874331Y-91846065D01*
X144843865Y-91673289D01*
X144774377Y-91512196D01*
X144669610Y-91371470D01*
X144635075Y-91342492D01*
X144535214Y-91258698D01*
X144535212Y-91258697D01*
X144378437Y-91179961D01*
X144378433Y-91179960D01*
X144207721Y-91139500D01*
X144076291Y-91139500D01*
X143971854Y-91151707D01*
X143945743Y-91154759D01*
X143945740Y-91154760D01*
X143780884Y-91214762D01*
X143780880Y-91214764D01*
X143634306Y-91311167D01*
X143634305Y-91311168D01*
X143513910Y-91438778D01*
X143426188Y-91590718D01*
X143375870Y-91758789D01*
X143375869Y-91758794D01*
X143365668Y-91933933D01*
X142579213Y-91933933D01*
X142584331Y-91846065D01*
X142553865Y-91673289D01*
X142484377Y-91512196D01*
X142379610Y-91371470D01*
X142345075Y-91342492D01*
X142245214Y-91258698D01*
X142245212Y-91258697D01*
X142088437Y-91179961D01*
X142088433Y-91179960D01*
X141917721Y-91139500D01*
X141786291Y-91139500D01*
X141681854Y-91151707D01*
X141655743Y-91154759D01*
X141655740Y-91154760D01*
X141490884Y-91214762D01*
X141490880Y-91214764D01*
X141344306Y-91311167D01*
X141344305Y-91311168D01*
X141223910Y-91438778D01*
X141136188Y-91590718D01*
X141085870Y-91758789D01*
X141085869Y-91758794D01*
X141075668Y-91933933D01*
X140289213Y-91933933D01*
X140294331Y-91846065D01*
X140263865Y-91673289D01*
X140194377Y-91512196D01*
X140089610Y-91371470D01*
X140055075Y-91342492D01*
X139955214Y-91258698D01*
X139955212Y-91258697D01*
X139798437Y-91179961D01*
X139798433Y-91179960D01*
X139627721Y-91139500D01*
X139496291Y-91139500D01*
X139391854Y-91151707D01*
X139365743Y-91154759D01*
X139365740Y-91154760D01*
X139200884Y-91214762D01*
X139200880Y-91214764D01*
X139054306Y-91311167D01*
X139054305Y-91311168D01*
X138933910Y-91438778D01*
X138846188Y-91590718D01*
X138795870Y-91758789D01*
X138795869Y-91758794D01*
X138785668Y-91933933D01*
X137999213Y-91933933D01*
X138004331Y-91846065D01*
X137973865Y-91673289D01*
X137904377Y-91512196D01*
X137799610Y-91371470D01*
X137765075Y-91342492D01*
X137665214Y-91258698D01*
X137665212Y-91258697D01*
X137508437Y-91179961D01*
X137508433Y-91179960D01*
X137337721Y-91139500D01*
X137206291Y-91139500D01*
X137101854Y-91151707D01*
X137075743Y-91154759D01*
X137075740Y-91154760D01*
X136910884Y-91214762D01*
X136910880Y-91214764D01*
X136764306Y-91311167D01*
X136764305Y-91311168D01*
X136643910Y-91438778D01*
X136556188Y-91590718D01*
X136505870Y-91758789D01*
X136505869Y-91758794D01*
X136495668Y-91933933D01*
X130577513Y-91933933D01*
X130650027Y-91861419D01*
X130650026Y-91861417D01*
X130407227Y-91685014D01*
X130407209Y-91685003D01*
X130131552Y-91533459D01*
X130131544Y-91533455D01*
X129839073Y-91417659D01*
X129534379Y-91339426D01*
X129534370Y-91339424D01*
X129222298Y-91300000D01*
X128907701Y-91300000D01*
X128595629Y-91339424D01*
X128595620Y-91339426D01*
X128290926Y-91417659D01*
X127998455Y-91533455D01*
X127998447Y-91533459D01*
X127722787Y-91685004D01*
X127722782Y-91685007D01*
X127479972Y-91861418D01*
X127479971Y-91861419D01*
X128120819Y-92502266D01*
X127930130Y-92665130D01*
X127767266Y-92855818D01*
X127129286Y-92217838D01*
X127129285Y-92217838D01*
X127038459Y-92327629D01*
X127038457Y-92327632D01*
X126869903Y-92593232D01*
X126869900Y-92593238D01*
X126735965Y-92877862D01*
X126735963Y-92877867D01*
X126638755Y-93177041D01*
X126579808Y-93486050D01*
X126579807Y-93486057D01*
X126560057Y-93799994D01*
X126560057Y-93800005D01*
X122116542Y-93800005D01*
X121925144Y-93705618D01*
X121925123Y-93705609D01*
X121638644Y-93608362D01*
X121638630Y-93608359D01*
X121341911Y-93549338D01*
X121341884Y-93549334D01*
X121040007Y-93529548D01*
X121039993Y-93529548D01*
X120738115Y-93549334D01*
X120738088Y-93549338D01*
X120441369Y-93608359D01*
X120441355Y-93608362D01*
X120154876Y-93705609D01*
X120154855Y-93705618D01*
X119883531Y-93839420D01*
X119631958Y-94007516D01*
X119592859Y-94041804D01*
X119592859Y-94041806D01*
X120314527Y-94763473D01*
X120201184Y-94842838D01*
X120040338Y-95003684D01*
X119960974Y-95117027D01*
X119239306Y-94395359D01*
X119239304Y-94395359D01*
X119205016Y-94434458D01*
X119036920Y-94686031D01*
X118903118Y-94957355D01*
X118903109Y-94957376D01*
X118805862Y-95243855D01*
X118805859Y-95243869D01*
X118746838Y-95540588D01*
X118746834Y-95540615D01*
X118727048Y-95842492D01*
X118727048Y-95842507D01*
X117141749Y-95842507D01*
X117134254Y-95685170D01*
X117084704Y-95480924D01*
X117080718Y-95472196D01*
X116997401Y-95289756D01*
X116997398Y-95289751D01*
X116997397Y-95289750D01*
X116997396Y-95289747D01*
X116875486Y-95118548D01*
X116875484Y-95118546D01*
X116875479Y-95118540D01*
X116723379Y-94973514D01*
X116546574Y-94859888D01*
X116503985Y-94842838D01*
X116351457Y-94781775D01*
X116351455Y-94781774D01*
X116145086Y-94742000D01*
X116145085Y-94742000D01*
X115987575Y-94742000D01*
X115830782Y-94756972D01*
X115830778Y-94756973D01*
X115629127Y-94816183D01*
X115442313Y-94912491D01*
X115277116Y-95042405D01*
X115277112Y-95042409D01*
X115139478Y-95201246D01*
X115034398Y-95383250D01*
X114965656Y-95581865D01*
X114965656Y-95581867D01*
X114938542Y-95770457D01*
X114935746Y-95789901D01*
X113349505Y-95789901D01*
X113333165Y-95540615D01*
X113333161Y-95540588D01*
X113274140Y-95243869D01*
X113274137Y-95243855D01*
X113176890Y-94957376D01*
X113176881Y-94957355D01*
X113043079Y-94686031D01*
X113043074Y-94686024D01*
X112874989Y-94434465D01*
X112840694Y-94395359D01*
X112840693Y-94395358D01*
X112119025Y-95117026D01*
X112039662Y-95003684D01*
X111878816Y-94842838D01*
X111765472Y-94763473D01*
X112487140Y-94041805D01*
X112487140Y-94041804D01*
X112448034Y-94007509D01*
X112196475Y-93839425D01*
X112196468Y-93839420D01*
X111925144Y-93705618D01*
X111925123Y-93705609D01*
X111638644Y-93608362D01*
X111638630Y-93608359D01*
X111341911Y-93549338D01*
X111341884Y-93549334D01*
X111040007Y-93529548D01*
X111039993Y-93529548D01*
X110738115Y-93549334D01*
X110738088Y-93549338D01*
X110441369Y-93608359D01*
X110441355Y-93608362D01*
X110154876Y-93705609D01*
X110154855Y-93705618D01*
X109883531Y-93839420D01*
X109631958Y-94007516D01*
X109592859Y-94041804D01*
X109592859Y-94041806D01*
X110314527Y-94763473D01*
X110201184Y-94842838D01*
X110040338Y-95003684D01*
X109960974Y-95117027D01*
X109239306Y-94395359D01*
X109239304Y-94395359D01*
X109205016Y-94434458D01*
X109036920Y-94686031D01*
X108903118Y-94957355D01*
X108903109Y-94957376D01*
X108805862Y-95243855D01*
X108805859Y-95243869D01*
X108746838Y-95540588D01*
X108746834Y-95540615D01*
X108727048Y-95842492D01*
X108727048Y-95842507D01*
X51800500Y-95842507D01*
X51800500Y-92493933D01*
X84855668Y-92493933D01*
X84885856Y-92665130D01*
X84886135Y-92666711D01*
X84955623Y-92827804D01*
X84955624Y-92827806D01*
X84955626Y-92827809D01*
X85010278Y-92901218D01*
X85060390Y-92968530D01*
X85194786Y-93081302D01*
X85270845Y-93119500D01*
X85351562Y-93160038D01*
X85351563Y-93160038D01*
X85351567Y-93160040D01*
X85522279Y-93200500D01*
X85522282Y-93200500D01*
X85653701Y-93200500D01*
X85653709Y-93200500D01*
X85784255Y-93185241D01*
X85949117Y-93125237D01*
X86095696Y-93028830D01*
X86216092Y-92901218D01*
X86303812Y-92749281D01*
X86354130Y-92581210D01*
X86359213Y-92493933D01*
X92855668Y-92493933D01*
X92885856Y-92665130D01*
X92886135Y-92666711D01*
X92955623Y-92827804D01*
X92955624Y-92827806D01*
X92955626Y-92827809D01*
X93010278Y-92901218D01*
X93060390Y-92968530D01*
X93194786Y-93081302D01*
X93270845Y-93119500D01*
X93351562Y-93160038D01*
X93351563Y-93160038D01*
X93351567Y-93160040D01*
X93522279Y-93200500D01*
X93522282Y-93200500D01*
X93653701Y-93200500D01*
X93653709Y-93200500D01*
X93784255Y-93185241D01*
X93949117Y-93125237D01*
X94095696Y-93028830D01*
X94216092Y-92901218D01*
X94303812Y-92749281D01*
X94354130Y-92581210D01*
X94364331Y-92406065D01*
X94333865Y-92233289D01*
X94264377Y-92072196D01*
X94247600Y-92049661D01*
X94166812Y-91941144D01*
X94165962Y-91940002D01*
X101241131Y-91940002D01*
X101258498Y-92049658D01*
X101308904Y-92148585D01*
X101308909Y-92148592D01*
X101387407Y-92227090D01*
X101387410Y-92227092D01*
X101387413Y-92227095D01*
X101467319Y-92267809D01*
X101486341Y-92277501D01*
X101595998Y-92294869D01*
X101596000Y-92294869D01*
X101596002Y-92294869D01*
X101705658Y-92277501D01*
X101705659Y-92277500D01*
X101705661Y-92277500D01*
X101804587Y-92227095D01*
X101883095Y-92148587D01*
X101933500Y-92049661D01*
X101933500Y-92049659D01*
X101933501Y-92049658D01*
X101950869Y-91940002D01*
X101950869Y-91939997D01*
X101933501Y-91830341D01*
X101927568Y-91818697D01*
X101883095Y-91731413D01*
X101883092Y-91731410D01*
X101883090Y-91731407D01*
X101804592Y-91652909D01*
X101804588Y-91652906D01*
X101804587Y-91652905D01*
X101800743Y-91650946D01*
X101705658Y-91602498D01*
X101596002Y-91585131D01*
X101595998Y-91585131D01*
X101486341Y-91602498D01*
X101387414Y-91652904D01*
X101387407Y-91652909D01*
X101308909Y-91731407D01*
X101308904Y-91731414D01*
X101258498Y-91830341D01*
X101241131Y-91939997D01*
X101241131Y-91940002D01*
X94165962Y-91940002D01*
X94159610Y-91931470D01*
X94087747Y-91871170D01*
X94025214Y-91818698D01*
X94025212Y-91818697D01*
X93868437Y-91739961D01*
X93868433Y-91739960D01*
X93697721Y-91699500D01*
X93566291Y-91699500D01*
X93461854Y-91711707D01*
X93435743Y-91714759D01*
X93435740Y-91714760D01*
X93270884Y-91774762D01*
X93270880Y-91774764D01*
X93124306Y-91871167D01*
X93124305Y-91871168D01*
X93003910Y-91998778D01*
X92916188Y-92150718D01*
X92865870Y-92318789D01*
X92865869Y-92318794D01*
X92855668Y-92493933D01*
X86359213Y-92493933D01*
X86364331Y-92406065D01*
X86333865Y-92233289D01*
X86264377Y-92072196D01*
X86247600Y-92049661D01*
X86166812Y-91941144D01*
X86159610Y-91931470D01*
X86087747Y-91871170D01*
X86025214Y-91818698D01*
X86025212Y-91818697D01*
X85868437Y-91739961D01*
X85868433Y-91739960D01*
X85697721Y-91699500D01*
X85566291Y-91699500D01*
X85461854Y-91711707D01*
X85435743Y-91714759D01*
X85435740Y-91714760D01*
X85270884Y-91774762D01*
X85270880Y-91774764D01*
X85124306Y-91871167D01*
X85124305Y-91871168D01*
X85003910Y-91998778D01*
X84916188Y-92150718D01*
X84865870Y-92318789D01*
X84865869Y-92318794D01*
X84855668Y-92493933D01*
X51800500Y-92493933D01*
X51800500Y-89054500D01*
X51820185Y-88987461D01*
X51872989Y-88941706D01*
X51924500Y-88930500D01*
X115214267Y-88930500D01*
X115281306Y-88950185D01*
G37*
%TD.AperFunction*%
%TD*%
M02*
