%TF.GenerationSoftware,KiCad,Pcbnew,7.0.11*%
%TF.CreationDate,2024-09-16T15:15:14+02:00*%
%TF.ProjectId,kim-1-programmable-memory,6b696d2d-312d-4707-926f-6772616d6d61,rev?*%
%TF.SameCoordinates,Original*%
%TF.FileFunction,Copper,L2,Bot*%
%TF.FilePolarity,Positive*%
%FSLAX46Y46*%
G04 Gerber Fmt 4.6, Leading zero omitted, Abs format (unit mm)*
G04 Created by KiCad (PCBNEW 7.0.11) date 2024-09-16 15:15:14*
%MOMM*%
%LPD*%
G01*
G04 APERTURE LIST*
G04 Aperture macros list*
%AMFreePoly0*
4,1,22,-1.300000,3.270000,1.300000,3.270000,1.300000,-1.970000,1.280250,-2.195743,1.221600,-2.414626,1.125833,-2.620000,0.995858,-2.805624,0.835624,-2.965858,0.650000,-3.095833,0.444626,-3.191600,0.225743,-3.250250,0.000000,-3.270000,-0.225743,-3.250250,-0.444626,-3.191600,-0.650000,-3.095833,-0.835624,-2.965858,-0.995858,-2.805624,-1.125833,-2.620000,-1.221600,-2.414626,-1.280250,-2.195743,
-1.300000,-1.970000,-1.300000,3.270000,-1.300000,3.270000,$1*%
G04 Aperture macros list end*
%TA.AperFunction,ComponentPad*%
%ADD10C,2.550000*%
%TD*%
%TA.AperFunction,ComponentPad*%
%ADD11C,3.616000*%
%TD*%
%TA.AperFunction,ComponentPad*%
%ADD12R,1.700000X1.700000*%
%TD*%
%TA.AperFunction,ComponentPad*%
%ADD13O,1.700000X1.700000*%
%TD*%
%TA.AperFunction,ComponentPad*%
%ADD14C,4.000000*%
%TD*%
%TA.AperFunction,ComponentPad*%
%ADD15R,1.600000X1.600000*%
%TD*%
%TA.AperFunction,ComponentPad*%
%ADD16C,1.600000*%
%TD*%
%TA.AperFunction,ConnectorPad*%
%ADD17FreePoly0,180.000000*%
%TD*%
%TA.AperFunction,ViaPad*%
%ADD18C,0.600000*%
%TD*%
%TA.AperFunction,ViaPad*%
%ADD19C,0.500000*%
%TD*%
%TA.AperFunction,ViaPad*%
%ADD20C,1.000000*%
%TD*%
%TA.AperFunction,ViaPad*%
%ADD21C,1.600000*%
%TD*%
%TA.AperFunction,Conductor*%
%ADD22C,0.127000*%
%TD*%
%TA.AperFunction,Conductor*%
%ADD23C,0.500000*%
%TD*%
%TA.AperFunction,Conductor*%
%ADD24C,0.600000*%
%TD*%
%TA.AperFunction,Conductor*%
%ADD25C,0.200000*%
%TD*%
G04 APERTURE END LIST*
D10*
%TO.P,J4,1,In*%
%TO.N,/COMPOSITE*%
X116040000Y-95842500D03*
D11*
%TO.P,J4,2,Ext*%
%TO.N,GND*%
X116040000Y-91342500D03*
X121040000Y-95842500D03*
X111040000Y-95842500D03*
%TD*%
D12*
%TO.P,J1,1,Pin_1*%
%TO.N,/~{DECEN}*%
X140650000Y-153380000D03*
D13*
%TO.P,J1,2,Pin_2*%
%TO.N,Net-(J1-Pin_2)*%
X140650000Y-150840000D03*
%TD*%
D14*
%TO.P,J3,0,PAD*%
%TO.N,GND*%
X154065000Y-93800000D03*
X129065000Y-93800000D03*
D15*
%TO.P,J3,1,1*%
%TO.N,/RED*%
X137250000Y-95850000D03*
D16*
%TO.P,J3,2,2*%
%TO.N,/GREEN*%
X139540000Y-95850000D03*
%TO.P,J3,3,3*%
%TO.N,/BLUE*%
X141830000Y-95850000D03*
%TO.P,J3,4,4*%
%TO.N,unconnected-(J3-Pad4)*%
X144120000Y-95850000D03*
%TO.P,J3,5,5*%
%TO.N,GND*%
X146410000Y-95850000D03*
%TO.P,J3,6,6*%
X136105000Y-93870000D03*
%TO.P,J3,7,7*%
X138395000Y-93870000D03*
%TO.P,J3,8,8*%
X140685000Y-93870000D03*
%TO.P,J3,9,P9*%
%TO.N,unconnected-(J3-P9-Pad9)*%
X142975000Y-93870000D03*
%TO.P,J3,10,P10*%
%TO.N,GND*%
X145265000Y-93870000D03*
%TO.P,J3,11,P111*%
%TO.N,unconnected-(J3-P111-Pad11)*%
X137250000Y-91890000D03*
%TO.P,J3,12,P12*%
%TO.N,unconnected-(J3-P12-Pad12)*%
X139540000Y-91890000D03*
%TO.P,J3,13,P13*%
%TO.N,Net-(J3-P13)*%
X141830000Y-91890000D03*
%TO.P,J3,14,P14*%
%TO.N,Net-(J3-P14)*%
X144120000Y-91890000D03*
%TO.P,J3,15,P15*%
%TO.N,unconnected-(J3-P15-Pad15)*%
X146410000Y-91890000D03*
%TD*%
D17*
%TO.P,J2,A,A0*%
%TO.N,/AB0*%
X65420000Y-159880000D03*
%TO.P,J2,B,A1*%
%TO.N,/AB1*%
X69380000Y-159880000D03*
%TO.P,J2,C,A2*%
%TO.N,/AB2*%
X73340000Y-159880000D03*
%TO.P,J2,D,A3*%
%TO.N,/AB3*%
X77300000Y-159880000D03*
%TO.P,J2,E,A4*%
%TO.N,/AB4*%
X81260000Y-159880000D03*
%TO.P,J2,F,A5*%
%TO.N,/AB5*%
X85220000Y-159880000D03*
%TO.P,J2,H,A6*%
%TO.N,/AB6*%
X89180000Y-159880000D03*
%TO.P,J2,J,A7*%
%TO.N,/AB7*%
X93140000Y-159880000D03*
%TO.P,J2,K,A8*%
%TO.N,/AB8*%
X97100000Y-159880000D03*
%TO.P,J2,L,A9*%
%TO.N,/AB9*%
X101060000Y-159880000D03*
%TO.P,J2,M,A10*%
%TO.N,/AB10*%
X105020000Y-159880000D03*
%TO.P,J2,N,A11*%
%TO.N,/AB11*%
X108980000Y-159880000D03*
%TO.P,J2,P,A12*%
%TO.N,/AB12*%
X112940000Y-159880000D03*
%TO.P,J2,R,A13*%
%TO.N,/AB13*%
X116900000Y-159880000D03*
%TO.P,J2,S,A14*%
%TO.N,/AB14*%
X120860000Y-159880000D03*
%TO.P,J2,T,A15*%
%TO.N,/AB15*%
X124820000Y-159880000D03*
%TO.P,J2,U,\u00D82*%
%TO.N,unconnected-(J2-\u00D82-PadU)*%
X128780000Y-159880000D03*
%TO.P,J2,V,R/~{W}*%
%TO.N,unconnected-(J2-R{slash}~{W}-PadV)*%
X132740000Y-159880000D03*
%TO.P,J2,W,~{R}/W*%
%TO.N,/~{R}{slash}W*%
X136700000Y-159880000D03*
%TO.P,J2,X,+16V_RAW*%
%TO.N,unconnected-(J2-+16V_RAW-PadX)*%
X140660000Y-159880000D03*
%TO.P,J2,Y,~{\u00D82}*%
%TO.N,/~{\u00D82}*%
X144620000Y-159880000D03*
%TO.P,J2,Z,RAMRW*%
%TO.N,unconnected-(J2-RAMRW-PadZ)*%
X148580000Y-159880000D03*
%TD*%
D18*
%TO.N,GND*%
X97510000Y-92850000D03*
X65210000Y-142130000D03*
D19*
X132520000Y-105740000D03*
X156300000Y-103430000D03*
X66300000Y-103430000D03*
D18*
X131970000Y-148650000D03*
X151817500Y-115190000D03*
X126417500Y-130250000D03*
X139780000Y-144660000D03*
X91910000Y-104760000D03*
D20*
X147620000Y-145630000D03*
D19*
X129280000Y-101470000D03*
D18*
X85210000Y-139270000D03*
D19*
X56300000Y-93430000D03*
X74740000Y-151790000D03*
X107090000Y-130930000D03*
X56300000Y-153430000D03*
X124790000Y-151940000D03*
X68390000Y-151790000D03*
D18*
X83120000Y-102400000D03*
D19*
X76463909Y-133483909D03*
X141957841Y-129617703D03*
X85808909Y-151831091D03*
D18*
X141040000Y-137820000D03*
X139117500Y-110660000D03*
X83935000Y-151460000D03*
X65210000Y-139320000D03*
D21*
X148580000Y-154970000D03*
D18*
X91910000Y-102150000D03*
D19*
X133090000Y-142150000D03*
X92158909Y-151831091D03*
X106300000Y-103430000D03*
X153800000Y-153430000D03*
X87078909Y-151831091D03*
X128880000Y-143065958D03*
D18*
X136360000Y-104780000D03*
X62800000Y-139010000D03*
D19*
X100925000Y-133420000D03*
D18*
X82050000Y-137877500D03*
X123050000Y-139670000D03*
X126417500Y-134780000D03*
D19*
X69660000Y-151790000D03*
D18*
X80500000Y-102400000D03*
D19*
X127000000Y-102340000D03*
X56300000Y-143430000D03*
X66300000Y-123430000D03*
X56300000Y-133430000D03*
D20*
X144620000Y-149240000D03*
D19*
X92460000Y-108980000D03*
D18*
X113717500Y-134780000D03*
X126417500Y-115190000D03*
D19*
X94698909Y-151831091D03*
X85925000Y-133420000D03*
X56300000Y-123430000D03*
D18*
X146040000Y-141110000D03*
X61750000Y-137877500D03*
X103935000Y-142110000D03*
X126417500Y-110660000D03*
D19*
X146300000Y-103430000D03*
X117490000Y-136390000D03*
D18*
X120250000Y-150030000D03*
X139117500Y-134780000D03*
X114120000Y-114250000D03*
D19*
X73470000Y-151790000D03*
X72200000Y-151790000D03*
D18*
X130250000Y-139670000D03*
D19*
X133698909Y-102581091D03*
D18*
X146040000Y-142960000D03*
X95300000Y-102150000D03*
X126890000Y-148650000D03*
D19*
X66300000Y-133430000D03*
D18*
X95300000Y-92850000D03*
D19*
X101200000Y-92520000D03*
D18*
X101490000Y-95130000D03*
X132750000Y-139670000D03*
X86950000Y-105750000D03*
D19*
X114940000Y-136380000D03*
D18*
X125550000Y-139670000D03*
D19*
X67120000Y-151790000D03*
X100925000Y-118420000D03*
X88348909Y-151831091D03*
X93428909Y-151831091D03*
D18*
X139117500Y-115190000D03*
X95365000Y-151460000D03*
D19*
X65850000Y-151790000D03*
X129901078Y-148628896D03*
X66300000Y-143430000D03*
X131150000Y-154160000D03*
X129997570Y-151940000D03*
X87930000Y-104870000D03*
D20*
X150670000Y-145630000D03*
D18*
X124350000Y-97990000D03*
X124350000Y-100940000D03*
D19*
X87350000Y-110020000D03*
X56300000Y-103430000D03*
D18*
X113290000Y-114250000D03*
X82010000Y-92850000D03*
X139117500Y-130250000D03*
D19*
X106300000Y-93430000D03*
D18*
X151817500Y-134780000D03*
X119820000Y-145080000D03*
X151817500Y-110660000D03*
X86950000Y-107210000D03*
X97510000Y-102150000D03*
X103935000Y-139340000D03*
D19*
X124920000Y-146517500D03*
X136960000Y-129630000D03*
X76300000Y-93430000D03*
X125770000Y-154160000D03*
D18*
X146040000Y-136920000D03*
D19*
X90888909Y-151831091D03*
X127635545Y-105410883D03*
X141232864Y-142645797D03*
D20*
X143200000Y-150510000D03*
D19*
X75365000Y-151460000D03*
X116300000Y-103430000D03*
X89618909Y-151831091D03*
D18*
X146040000Y-138720000D03*
D19*
X56300000Y-113430000D03*
D18*
X113717500Y-130250000D03*
D19*
X109880000Y-137640000D03*
X120670658Y-134894901D03*
X66300000Y-153430000D03*
X86300000Y-113430000D03*
D18*
X79800000Y-92850000D03*
D19*
X76300000Y-123430000D03*
X66300000Y-93430000D03*
X70930000Y-151790000D03*
X76300000Y-113430000D03*
D18*
X151817500Y-130250000D03*
D19*
%TO.N,/~{R}{slash}W*%
X125620000Y-146460000D03*
%TO.N,/~{\u00D82}*%
X129430000Y-151390000D03*
%TO.N,/~{CE}*%
X121340000Y-134690000D03*
X124350000Y-151390000D03*
D18*
%TO.N,+3.3V*%
X82050000Y-142230000D03*
X117400000Y-147260000D03*
X82050000Y-147260000D03*
X117400000Y-149130000D03*
X137850000Y-105410000D03*
X102310000Y-142238000D03*
X137850000Y-115177502D03*
X102310000Y-147260000D03*
D19*
%TO.N,/AB0*%
X65205000Y-151460000D03*
%TO.N,/AB1*%
X66475000Y-151460000D03*
%TO.N,/AB2*%
X67745000Y-151460000D03*
%TO.N,/AB3*%
X69015000Y-151460000D03*
%TO.N,/AB4*%
X70285000Y-151460000D03*
%TO.N,/AB5*%
X71555000Y-151460000D03*
%TO.N,/AB6*%
X72825000Y-151460000D03*
%TO.N,/AB7*%
X74095000Y-151460000D03*
%TO.N,/AB8*%
X85205000Y-151460000D03*
%TO.N,/AB9*%
X86475000Y-151460000D03*
%TO.N,/AB10*%
X87745000Y-151460000D03*
%TO.N,/AB11*%
X89015000Y-151460000D03*
%TO.N,/AB12*%
X90285000Y-151460000D03*
%TO.N,/AB13*%
X91555000Y-151460000D03*
%TO.N,/AB14*%
X92825000Y-151460000D03*
%TO.N,/AB15*%
X94095000Y-151460000D03*
%TO.N,Net-(J3-P14)*%
X133790000Y-142140000D03*
%TO.N,/RX*%
X107280000Y-131610000D03*
X93010000Y-108540000D03*
%TO.N,Net-(J5-DAT3{slash}CD)*%
X110200000Y-137010000D03*
X87930000Y-109600000D03*
%TO.N,Net-(J5-CMD)*%
X88610000Y-104700000D03*
X117820000Y-137010000D03*
%TO.N,Net-(J5-CLK)*%
X115280000Y-137010000D03*
X90810000Y-104700000D03*
%TO.N,Net-(R16-Pad2)*%
X129685000Y-102045000D03*
X133660000Y-101860000D03*
%TO.N,Net-(R17-Pad2)*%
X133660000Y-103320000D03*
X127300000Y-103000000D03*
%TO.N,/\u00D82*%
X128957500Y-134690000D03*
X130700000Y-148650000D03*
%TO.N,Net-(D1-A)*%
X101596000Y-91940000D03*
X129430000Y-143690000D03*
%TO.N,Net-(U2-Pad1)*%
X140900000Y-142030000D03*
X141360000Y-138770000D03*
%TO.N,/HSYNC*%
X136577500Y-130250000D03*
X128641790Y-105360000D03*
%TO.N,/VIDEO*%
X141657500Y-130250000D03*
X131344901Y-105687768D03*
%TD*%
D22*
%TO.N,/~{R}{slash}W*%
X136553553Y-156193553D02*
X133466446Y-153106446D01*
X133112893Y-152960000D02*
X130027107Y-152960000D01*
X125620000Y-148552893D02*
X125620000Y-146460000D01*
X136700000Y-159880000D02*
X136700000Y-156547107D01*
X129673553Y-152813553D02*
X125766446Y-148906446D01*
X133466449Y-153106443D02*
G75*
G03*
X133112893Y-152960000I-353549J-353557D01*
G01*
X125620005Y-148552893D02*
G75*
G03*
X125766446Y-148906446I499995J-7D01*
G01*
X129673550Y-152813556D02*
G75*
G03*
X130027107Y-152960000I353550J353556D01*
G01*
X136699995Y-156547107D02*
G75*
G03*
X136553553Y-156193553I-499995J7D01*
G01*
%TO.N,/~{\u00D82}*%
X143846447Y-155836447D02*
X144473554Y-156463554D01*
X144620000Y-156817107D02*
X144620000Y-159880000D01*
X132816447Y-151536447D02*
X136823554Y-155543554D01*
X129430000Y-151390000D02*
X132462893Y-151390000D01*
X137177107Y-155690000D02*
X143492893Y-155690000D01*
X132816450Y-151536444D02*
G75*
G03*
X132462893Y-151390000I-353550J-353556D01*
G01*
X143846450Y-155836444D02*
G75*
G03*
X143492893Y-155690000I-353550J-353556D01*
G01*
X144619995Y-156817107D02*
G75*
G03*
X144473554Y-156463554I-499995J7D01*
G01*
X136823551Y-155543557D02*
G75*
G03*
X137177107Y-155690000I353549J353557D01*
G01*
%TO.N,/~{CE}*%
X121337500Y-148170393D02*
X121337500Y-134692500D01*
X124350000Y-151390000D02*
X121483946Y-148523946D01*
X121337500Y-134692500D02*
X121340000Y-134690000D01*
X121337505Y-148170393D02*
G75*
G03*
X121483946Y-148523946I499995J-7D01*
G01*
D23*
%TO.N,+3.3V*%
X102310000Y-147260000D02*
X102310000Y-142238000D01*
D24*
X137850000Y-105410000D02*
X137850000Y-115177502D01*
D23*
X117400000Y-149130000D02*
X117400000Y-147260000D01*
D24*
X82050000Y-142230000D02*
X82050000Y-147260000D01*
D25*
%TO.N,/AB0*%
X65420000Y-159880000D02*
X65351446Y-159811446D01*
D22*
X65205000Y-159457893D02*
X65205000Y-151460000D01*
D25*
X65205005Y-159457893D02*
G75*
G03*
X65351446Y-159811446I499995J-7D01*
G01*
D22*
%TO.N,/AB1*%
X66475000Y-151727893D02*
X66475000Y-151460000D01*
X69233553Y-154693553D02*
X66621446Y-152081446D01*
X69380000Y-159880000D02*
X69380000Y-155047107D01*
X69379995Y-155047107D02*
G75*
G03*
X69233553Y-154693553I-499995J7D01*
G01*
X66475005Y-151727893D02*
G75*
G03*
X66621446Y-152081446I499995J-7D01*
G01*
%TO.N,/AB2*%
X72273692Y-155106447D02*
X73238540Y-156071295D01*
X67745000Y-151460000D02*
X67745000Y-151737893D01*
X73340000Y-156377107D02*
X73340000Y-159880000D01*
X67891446Y-152091446D02*
X70613554Y-154813554D01*
X70967107Y-154960000D02*
X71920138Y-154960000D01*
X67745005Y-151737893D02*
G75*
G03*
X67891446Y-152091446I499995J-7D01*
G01*
X73339987Y-156377107D02*
G75*
G03*
X73238539Y-156071296I-523087J-3793D01*
G01*
X70613551Y-154813557D02*
G75*
G03*
X70967107Y-154960000I353549J353557D01*
G01*
X72273673Y-155106466D02*
G75*
G03*
X71920138Y-154960000I-353573J-353534D01*
G01*
%TO.N,/AB3*%
X69015000Y-151725445D02*
X69015000Y-151460000D01*
X77153553Y-156053553D02*
X75472999Y-154372999D01*
X77300000Y-159880000D02*
X77300000Y-156407107D01*
X75119446Y-154226553D02*
X71516108Y-154226553D01*
X71162554Y-154080106D02*
X69161446Y-152078998D01*
X69014969Y-151725445D02*
G75*
G03*
X69161447Y-152078997I500031J45D01*
G01*
X75472986Y-154373012D02*
G75*
G03*
X75119446Y-154226553I-353586J-353588D01*
G01*
X71162560Y-154080100D02*
G75*
G03*
X71516108Y-154226553I353540J353500D01*
G01*
X77299995Y-156407107D02*
G75*
G03*
X77153553Y-156053553I-499995J7D01*
G01*
%TO.N,/AB4*%
X70285000Y-151737893D02*
X70285000Y-151460000D01*
X71584553Y-153244553D02*
X70431446Y-152091446D01*
X77833893Y-153391000D02*
X71938107Y-153391000D01*
X81113553Y-156463553D02*
X78187446Y-153537446D01*
X81260000Y-159880000D02*
X81260000Y-156817107D01*
X70285005Y-151737893D02*
G75*
G03*
X70431446Y-152091446I499995J-7D01*
G01*
X71584550Y-153244556D02*
G75*
G03*
X71938107Y-153391000I353550J353556D01*
G01*
X78187449Y-153537443D02*
G75*
G03*
X77833893Y-153391000I-353549J-353557D01*
G01*
X81259995Y-156817107D02*
G75*
G03*
X81113553Y-156463553I-499995J7D01*
G01*
%TO.N,/AB5*%
X81466893Y-153064000D02*
X72903555Y-153064000D01*
X72550001Y-152917553D02*
X71701446Y-152068998D01*
X85220000Y-159880000D02*
X85220000Y-156817107D01*
X85073553Y-156463553D02*
X81820446Y-153210446D01*
X71555000Y-151715445D02*
X71555000Y-151460000D01*
X81820449Y-153210443D02*
G75*
G03*
X81466893Y-153064000I-353549J-353557D01*
G01*
X71554969Y-151715445D02*
G75*
G03*
X71701447Y-152068997I500031J45D01*
G01*
X72550024Y-152917530D02*
G75*
G03*
X72903555Y-153064000I353576J353530D01*
G01*
X85219995Y-156817107D02*
G75*
G03*
X85073553Y-156463553I-499995J7D01*
G01*
%TO.N,/AB6*%
X72825000Y-151715711D02*
X72825000Y-151460000D01*
X83449893Y-152737000D02*
X73846289Y-152737000D01*
X89180000Y-159880000D02*
X89180000Y-158467107D01*
X73492735Y-152590553D02*
X72971446Y-152069264D01*
X89033553Y-158113553D02*
X83803446Y-152883446D01*
X73492741Y-152590547D02*
G75*
G03*
X73846289Y-152737000I353559J353547D01*
G01*
X83803449Y-152883443D02*
G75*
G03*
X83449893Y-152737000I-353549J-353557D01*
G01*
X89179995Y-158467107D02*
G75*
G03*
X89033553Y-158113553I-499995J7D01*
G01*
X72824993Y-151715711D02*
G75*
G03*
X72971447Y-152069263I500007J11D01*
G01*
%TO.N,/AB7*%
X74365735Y-152193553D02*
X74241446Y-152069264D01*
X92993553Y-156463553D02*
X91696446Y-155166446D01*
X91342893Y-155020000D02*
X87047107Y-155020000D01*
X93140000Y-159880000D02*
X93140000Y-156817107D01*
X86693553Y-154873553D02*
X84306446Y-152486446D01*
X74095000Y-151715711D02*
X74095000Y-151460000D01*
X83952893Y-152340000D02*
X74719289Y-152340000D01*
X84306449Y-152486443D02*
G75*
G03*
X83952893Y-152340000I-353549J-353557D01*
G01*
X93139995Y-156817107D02*
G75*
G03*
X92993553Y-156463553I-499995J7D01*
G01*
X86693550Y-154873556D02*
G75*
G03*
X87047107Y-155020000I353550J353556D01*
G01*
X74365741Y-152193547D02*
G75*
G03*
X74719289Y-152340000I353559J353547D01*
G01*
X74094993Y-151715711D02*
G75*
G03*
X74241447Y-152069263I500007J11D01*
G01*
X91696449Y-155166443D02*
G75*
G03*
X91342893Y-155020000I-353549J-353557D01*
G01*
%TO.N,/AB8*%
X96953553Y-156463553D02*
X95306446Y-154816446D01*
X94952893Y-154670000D02*
X88047107Y-154670000D01*
X87693553Y-154523553D02*
X85351446Y-152181446D01*
X85205000Y-151827893D02*
X85205000Y-151460000D01*
X97100000Y-159880000D02*
X97100000Y-156817107D01*
X97099995Y-156817107D02*
G75*
G03*
X96953553Y-156463553I-499995J7D01*
G01*
X85205005Y-151827893D02*
G75*
G03*
X85351446Y-152181446I499995J-7D01*
G01*
X95306449Y-154816443D02*
G75*
G03*
X94952893Y-154670000I-353549J-353557D01*
G01*
X87693550Y-154523556D02*
G75*
G03*
X88047107Y-154670000I353550J353556D01*
G01*
%TO.N,/AB9*%
X101060000Y-159880000D02*
X101060000Y-156817107D01*
X100913553Y-156463553D02*
X98939446Y-154489446D01*
X98585893Y-154343000D02*
X89020107Y-154343000D01*
X86475000Y-151797893D02*
X86475000Y-151460000D01*
X88666553Y-154196553D02*
X86621446Y-152151446D01*
X88666550Y-154196556D02*
G75*
G03*
X89020107Y-154343000I353550J353556D01*
G01*
X98939449Y-154489443D02*
G75*
G03*
X98585893Y-154343000I-353549J-353557D01*
G01*
X101059995Y-156817107D02*
G75*
G03*
X100913553Y-156463553I-499995J7D01*
G01*
X86475005Y-151797893D02*
G75*
G03*
X86621446Y-152151446I499995J-7D01*
G01*
%TO.N,/AB10*%
X104873553Y-156463553D02*
X102572537Y-154162537D01*
X102218984Y-154016091D02*
X89943198Y-154016091D01*
X87745000Y-151817893D02*
X87745000Y-151460000D01*
X89589644Y-153869644D02*
X87891446Y-152171446D01*
X105020000Y-159880000D02*
X105020000Y-156817107D01*
X105019995Y-156817107D02*
G75*
G03*
X104873553Y-156463553I-499995J7D01*
G01*
X102572547Y-154162527D02*
G75*
G03*
X102218984Y-154016091I-353547J-353573D01*
G01*
X87745005Y-151817893D02*
G75*
G03*
X87891446Y-152171446I499995J-7D01*
G01*
X89589647Y-153869641D02*
G75*
G03*
X89943198Y-154016091I353553J353541D01*
G01*
%TO.N,/AB11*%
X89015000Y-151837893D02*
X89015000Y-151460000D01*
X105851984Y-153689091D02*
X90866198Y-153689091D01*
X108980000Y-159880000D02*
X108980000Y-156817107D01*
X108833553Y-156463553D02*
X106205537Y-153835537D01*
X90512644Y-153542644D02*
X89161446Y-152191446D01*
X89015005Y-151837893D02*
G75*
G03*
X89161446Y-152191446I499995J-7D01*
G01*
X108979995Y-156817107D02*
G75*
G03*
X108833553Y-156463553I-499995J7D01*
G01*
X90512647Y-153542641D02*
G75*
G03*
X90866198Y-153689091I353553J353541D01*
G01*
X106205547Y-153835527D02*
G75*
G03*
X105851984Y-153689091I-353547J-353573D01*
G01*
%TO.N,/AB12*%
X112793553Y-156463553D02*
X109838537Y-153508537D01*
X109484984Y-153362091D02*
X91839198Y-153362091D01*
X91485644Y-153215644D02*
X90431446Y-152161446D01*
X90285000Y-151807893D02*
X90285000Y-151460000D01*
X112940000Y-159880000D02*
X112940000Y-156817107D01*
X109838547Y-153508527D02*
G75*
G03*
X109484984Y-153362091I-353547J-353573D01*
G01*
X112939995Y-156817107D02*
G75*
G03*
X112793553Y-156463553I-499995J7D01*
G01*
X90285005Y-151807893D02*
G75*
G03*
X90431446Y-152161446I499995J-7D01*
G01*
X91485647Y-153215641D02*
G75*
G03*
X91839198Y-153362091I353553J353541D01*
G01*
%TO.N,/AB13*%
X113117984Y-153035091D02*
X92712198Y-153035091D01*
X116900000Y-159880000D02*
X116900000Y-156817107D01*
X116753553Y-156463553D02*
X113471537Y-153181537D01*
X91555000Y-151877893D02*
X91555000Y-151460000D01*
X92358644Y-152888644D02*
X91701446Y-152231446D01*
X92358647Y-152888641D02*
G75*
G03*
X92712198Y-153035091I353553J353541D01*
G01*
X91555005Y-151877893D02*
G75*
G03*
X91701446Y-152231446I499995J-7D01*
G01*
X113471547Y-153181527D02*
G75*
G03*
X113117984Y-153035091I-353547J-353573D01*
G01*
X116899995Y-156817107D02*
G75*
G03*
X116753553Y-156463553I-499995J7D01*
G01*
%TO.N,/AB14*%
X93381644Y-152561644D02*
X92971446Y-152151446D01*
X92825000Y-151797893D02*
X92825000Y-151460000D01*
X120713553Y-156463553D02*
X117104537Y-152854537D01*
X120860000Y-159880000D02*
X120860000Y-156817107D01*
X116750984Y-152708091D02*
X93735198Y-152708091D01*
X120859995Y-156817107D02*
G75*
G03*
X120713553Y-156463553I-499995J7D01*
G01*
X92825005Y-151797893D02*
G75*
G03*
X92971446Y-152151446I499995J-7D01*
G01*
X93381647Y-152561641D02*
G75*
G03*
X93735198Y-152708091I353553J353541D01*
G01*
X117104547Y-152854527D02*
G75*
G03*
X116750984Y-152708091I-353547J-353573D01*
G01*
%TO.N,/AB15*%
X120383984Y-152381091D02*
X94678198Y-152381091D01*
X124673553Y-156463553D02*
X120737537Y-152527537D01*
X94095000Y-151797893D02*
X94095000Y-151460000D01*
X124820000Y-159880000D02*
X124820000Y-156817107D01*
X94324644Y-152234644D02*
X94241446Y-152151446D01*
X94324647Y-152234641D02*
G75*
G03*
X94678198Y-152381091I353553J353541D01*
G01*
X124819995Y-156817107D02*
G75*
G03*
X124673553Y-156463553I-499995J7D01*
G01*
X120737547Y-152527527D02*
G75*
G03*
X120383984Y-152381091I-353547J-353573D01*
G01*
X94095005Y-151797893D02*
G75*
G03*
X94241446Y-152151446I499995J-7D01*
G01*
%TO.N,Net-(J3-P14)*%
X147741053Y-94791053D02*
X144986446Y-92036446D01*
X147887500Y-127835393D02*
X147887500Y-95144607D01*
X144632893Y-91890000D02*
X144120000Y-91890000D01*
X133790000Y-142140000D02*
X147741054Y-128188946D01*
X147887495Y-95144607D02*
G75*
G03*
X147741053Y-94791053I-499995J7D01*
G01*
X144986449Y-92036443D02*
G75*
G03*
X144632893Y-91890000I-353549J-353557D01*
G01*
X147741057Y-128188949D02*
G75*
G03*
X147887500Y-127835393I-353557J353549D01*
G01*
%TO.N,/RX*%
X93010000Y-117612893D02*
X93010000Y-108540000D01*
X107280000Y-131610000D02*
X107007107Y-131610000D01*
X106653553Y-131463553D02*
X93156446Y-117966446D01*
X106653550Y-131463556D02*
G75*
G03*
X107007107Y-131610000I353550J353556D01*
G01*
X93010005Y-117612893D02*
G75*
G03*
X93156446Y-117966446I499995J-7D01*
G01*
%TO.N,Net-(J5-DAT3{slash}CD)*%
X87930000Y-109600000D02*
X87930000Y-115112893D01*
X88076447Y-115466447D02*
X109473554Y-136863554D01*
X109827107Y-137010000D02*
X110200000Y-137010000D01*
X87930005Y-115112893D02*
G75*
G03*
X88076447Y-115466447I499995J-7D01*
G01*
X109473551Y-136863557D02*
G75*
G03*
X109827107Y-137010000I353549J353557D01*
G01*
%TO.N,Net-(J5-CMD)*%
X112943553Y-137463553D02*
X112036446Y-136556446D01*
X88610000Y-114482893D02*
X88610000Y-104700000D01*
X117012893Y-137610000D02*
X113297107Y-137610000D01*
X111682893Y-136410000D02*
X110537107Y-136410000D01*
X117820000Y-137010000D02*
X117366446Y-137463554D01*
X110183553Y-136263553D02*
X88756446Y-114836446D01*
X112943550Y-137463556D02*
G75*
G03*
X113297107Y-137610000I353550J353556D01*
G01*
X88610005Y-114482893D02*
G75*
G03*
X88756446Y-114836446I499995J-7D01*
G01*
X117012893Y-137609995D02*
G75*
G03*
X117366446Y-137463554I7J499995D01*
G01*
X110183550Y-136263556D02*
G75*
G03*
X110537107Y-136410000I353550J353556D01*
G01*
X112036449Y-136556443D02*
G75*
G03*
X111682893Y-136410000I-353549J-353557D01*
G01*
%TO.N,Net-(J5-CLK)*%
X93560000Y-116312893D02*
X93560000Y-108237107D01*
X115280000Y-137010000D02*
X114257107Y-137010000D01*
X113903553Y-136863553D02*
X93706446Y-116666446D01*
X90810000Y-105072893D02*
X90810000Y-104700000D01*
X93413553Y-107883553D02*
X90956446Y-105426446D01*
X93559995Y-108237107D02*
G75*
G03*
X93413553Y-107883553I-499995J7D01*
G01*
X90810005Y-105072893D02*
G75*
G03*
X90956446Y-105426446I499995J-7D01*
G01*
X93560005Y-116312893D02*
G75*
G03*
X93706446Y-116666446I499995J-7D01*
G01*
X113903550Y-136863556D02*
G75*
G03*
X114257107Y-137010000I353550J353556D01*
G01*
%TO.N,Net-(R16-Pad2)*%
X129723553Y-102006447D02*
X129685000Y-102045000D01*
X133660000Y-101860000D02*
X130077107Y-101860000D01*
X130077107Y-101860005D02*
G75*
G03*
X129723553Y-102006447I-7J-499995D01*
G01*
%TO.N,Net-(R17-Pad2)*%
X127687107Y-102820000D02*
X132952893Y-102820000D01*
X133306447Y-102966447D02*
X133660000Y-103320000D01*
X127300000Y-103000000D02*
X127333554Y-102966446D01*
X127687107Y-102820005D02*
G75*
G03*
X127333554Y-102966446I-7J-499995D01*
G01*
X133306450Y-102966444D02*
G75*
G03*
X132952893Y-102820000I-353550J-353556D01*
G01*
%TO.N,/\u00D82*%
X128957500Y-139620393D02*
X128957500Y-134690000D01*
X130060000Y-147802893D02*
X130060000Y-141137107D01*
X129913553Y-140783553D02*
X129103946Y-139973946D01*
X130700000Y-148650000D02*
X130206446Y-148156446D01*
X130059995Y-141137107D02*
G75*
G03*
X129913553Y-140783553I-499995J7D01*
G01*
X130060005Y-147802893D02*
G75*
G03*
X130206446Y-148156446I499995J-7D01*
G01*
X128957505Y-139620393D02*
G75*
G03*
X129103946Y-139973946I499995J-7D01*
G01*
%TO.N,Net-(D1-A)*%
X122610000Y-134182893D02*
X122610000Y-113161107D01*
X122463553Y-112807553D02*
X101596000Y-91940000D01*
X129283553Y-141063553D02*
X122756446Y-134536446D01*
X129430000Y-143690000D02*
X129430000Y-141417107D01*
X122609995Y-113161107D02*
G75*
G03*
X122463553Y-112807553I-499995J7D01*
G01*
X129429995Y-141417107D02*
G75*
G03*
X129283553Y-141063553I-499995J7D01*
G01*
X122610005Y-134182893D02*
G75*
G03*
X122756446Y-134536446I499995J-7D01*
G01*
%TO.N,Net-(U2-Pad1)*%
X141046447Y-139623553D02*
X141213554Y-139456446D01*
X140900000Y-142030000D02*
X140900000Y-139977107D01*
X141360000Y-139102893D02*
X141360000Y-138770000D01*
X141046444Y-139623550D02*
G75*
G03*
X140900000Y-139977107I353556J-353550D01*
G01*
X141213557Y-139456449D02*
G75*
G03*
X141360000Y-139102893I-353557J353549D01*
G01*
%TO.N,/HSYNC*%
X136577500Y-130250000D02*
X130366446Y-124038946D01*
X130073553Y-106791763D02*
X128641790Y-105360000D01*
X130220000Y-123685393D02*
X130220000Y-107145317D01*
X130220005Y-123685393D02*
G75*
G03*
X130366446Y-124038946I499995J-7D01*
G01*
X130219988Y-107145317D02*
G75*
G03*
X130073553Y-106791763I-499988J17D01*
G01*
%TO.N,/VIDEO*%
X132623553Y-106966420D02*
X131344901Y-105687768D01*
X141657500Y-130250000D02*
X132916446Y-121508946D01*
X132770000Y-121155393D02*
X132770000Y-107319974D01*
X132770018Y-107319974D02*
G75*
G03*
X132623553Y-106966420I-500018J-26D01*
G01*
X132770005Y-121155393D02*
G75*
G03*
X132916446Y-121508946I499995J-7D01*
G01*
%TD*%
%TA.AperFunction,Conductor*%
%TO.N,GND*%
G36*
X158242539Y-88950185D02*
G01*
X158288294Y-89002989D01*
X158299500Y-89054500D01*
X158299500Y-155575500D01*
X158279815Y-155642539D01*
X158227011Y-155688294D01*
X158175500Y-155699500D01*
X153858872Y-155699500D01*
X153627990Y-155729898D01*
X153598884Y-155733730D01*
X153413352Y-155783443D01*
X153345581Y-155801602D01*
X153345571Y-155801605D01*
X153103309Y-155901953D01*
X153103299Y-155901958D01*
X152876201Y-156033072D01*
X152668148Y-156192718D01*
X152557784Y-156303082D01*
X152496461Y-156336566D01*
X152470091Y-156339400D01*
X144773388Y-156338686D01*
X144706351Y-156318995D01*
X144685719Y-156302367D01*
X144660234Y-156276882D01*
X144660233Y-156276880D01*
X144620260Y-156236905D01*
X144620240Y-156236888D01*
X144083479Y-155700127D01*
X144083477Y-155700124D01*
X144069444Y-155686091D01*
X144069435Y-155686075D01*
X143979919Y-155596561D01*
X143979917Y-155596559D01*
X143854786Y-155512950D01*
X143854776Y-155512944D01*
X143715751Y-155455360D01*
X143715746Y-155455358D01*
X143715742Y-155455357D01*
X143568137Y-155425999D01*
X143568135Y-155425999D01*
X143492889Y-155426000D01*
X137233654Y-155426000D01*
X137233642Y-155425999D01*
X137185226Y-155425999D01*
X137169041Y-155424938D01*
X137132208Y-155420089D01*
X137100944Y-155411712D01*
X137074185Y-155400629D01*
X137046148Y-155384443D01*
X137016696Y-155361844D01*
X137004501Y-155351149D01*
X135903104Y-154249752D01*
X139599500Y-154249752D01*
X139611131Y-154308229D01*
X139611132Y-154308230D01*
X139655447Y-154374552D01*
X139721769Y-154418867D01*
X139721770Y-154418868D01*
X139780247Y-154430499D01*
X139780250Y-154430500D01*
X139780252Y-154430500D01*
X141519750Y-154430500D01*
X141519751Y-154430499D01*
X141534568Y-154427552D01*
X141578229Y-154418868D01*
X141578229Y-154418867D01*
X141578231Y-154418867D01*
X141644552Y-154374552D01*
X141688867Y-154308231D01*
X141688867Y-154308229D01*
X141688868Y-154308229D01*
X141699158Y-154256495D01*
X141700500Y-154249748D01*
X141700500Y-152510252D01*
X141700500Y-152510249D01*
X141700499Y-152510247D01*
X141688868Y-152451770D01*
X141688867Y-152451769D01*
X141644552Y-152385447D01*
X141578230Y-152341132D01*
X141578229Y-152341131D01*
X141519752Y-152329500D01*
X141519748Y-152329500D01*
X139780252Y-152329500D01*
X139780247Y-152329500D01*
X139721770Y-152341131D01*
X139721769Y-152341132D01*
X139655447Y-152385447D01*
X139611132Y-152451769D01*
X139611131Y-152451770D01*
X139599500Y-152510247D01*
X139599500Y-154249752D01*
X135903104Y-154249752D01*
X133053479Y-151400127D01*
X133053477Y-151400124D01*
X133039444Y-151386091D01*
X133039435Y-151386075D01*
X132949919Y-151296561D01*
X132949917Y-151296559D01*
X132824786Y-151212950D01*
X132824776Y-151212944D01*
X132685751Y-151155360D01*
X132685746Y-151155358D01*
X132685742Y-151155357D01*
X132538137Y-151125999D01*
X132538135Y-151125999D01*
X132462889Y-151126000D01*
X129853969Y-151126000D01*
X129786930Y-151106315D01*
X129760255Y-151083201D01*
X129728051Y-151046034D01*
X129671202Y-151009500D01*
X129619069Y-150975996D01*
X129619065Y-150975994D01*
X129619064Y-150975994D01*
X129494774Y-150939500D01*
X129494772Y-150939500D01*
X129365228Y-150939500D01*
X129365226Y-150939500D01*
X129240935Y-150975994D01*
X129240932Y-150975995D01*
X129240931Y-150975996D01*
X129189677Y-151008934D01*
X129131950Y-151046033D01*
X129047118Y-151143937D01*
X129047117Y-151143938D01*
X128993302Y-151261774D01*
X128974867Y-151390000D01*
X128980873Y-151431773D01*
X128970929Y-151500932D01*
X128925174Y-151553736D01*
X128858135Y-151573420D01*
X128791095Y-151553735D01*
X128770454Y-151537101D01*
X128073353Y-150840000D01*
X139594417Y-150840000D01*
X139614699Y-151045932D01*
X139633016Y-151106315D01*
X139674768Y-151243954D01*
X139772315Y-151426450D01*
X139799849Y-151460000D01*
X139903589Y-151586410D01*
X139985949Y-151654000D01*
X140063550Y-151717685D01*
X140246046Y-151815232D01*
X140444066Y-151875300D01*
X140444065Y-151875300D01*
X140462529Y-151877118D01*
X140650000Y-151895583D01*
X140855934Y-151875300D01*
X141053954Y-151815232D01*
X141236450Y-151717685D01*
X141396410Y-151586410D01*
X141527685Y-151426450D01*
X141625232Y-151243954D01*
X141685300Y-151045934D01*
X141705583Y-150840000D01*
X141685300Y-150634066D01*
X141625232Y-150436046D01*
X141527685Y-150253550D01*
X141475702Y-150190209D01*
X141396410Y-150093589D01*
X141236452Y-149962317D01*
X141236453Y-149962317D01*
X141236450Y-149962315D01*
X141053954Y-149864768D01*
X140855934Y-149804700D01*
X140855932Y-149804699D01*
X140855934Y-149804699D01*
X140650000Y-149784417D01*
X140444067Y-149804699D01*
X140246043Y-149864769D01*
X140135898Y-149923643D01*
X140063550Y-149962315D01*
X140063548Y-149962316D01*
X140063547Y-149962317D01*
X139903589Y-150093589D01*
X139772317Y-150253547D01*
X139674769Y-150436043D01*
X139614699Y-150634067D01*
X139594417Y-150840000D01*
X128073353Y-150840000D01*
X125958874Y-148725522D01*
X125948176Y-148713324D01*
X125946101Y-148710620D01*
X125925557Y-148683844D01*
X125909375Y-148655813D01*
X125898293Y-148629058D01*
X125889915Y-148597789D01*
X125885061Y-148560915D01*
X125884000Y-148544729D01*
X125884000Y-148532276D01*
X125884001Y-148506346D01*
X125884000Y-148506343D01*
X125884000Y-146889510D01*
X125903685Y-146822471D01*
X125914287Y-146808307D01*
X125918045Y-146803969D01*
X125918049Y-146803967D01*
X126002882Y-146706063D01*
X126056697Y-146588226D01*
X126075133Y-146460000D01*
X126056697Y-146331774D01*
X126002882Y-146213937D01*
X125918049Y-146116033D01*
X125809069Y-146045996D01*
X125809065Y-146045994D01*
X125809064Y-146045994D01*
X125684774Y-146009500D01*
X125684772Y-146009500D01*
X125555228Y-146009500D01*
X125555226Y-146009500D01*
X125430935Y-146045994D01*
X125430932Y-146045995D01*
X125430931Y-146045996D01*
X125379677Y-146078934D01*
X125321950Y-146116033D01*
X125237118Y-146213937D01*
X125237117Y-146213938D01*
X125183302Y-146331774D01*
X125164867Y-146460000D01*
X125183302Y-146588225D01*
X125237117Y-146706061D01*
X125237118Y-146706063D01*
X125321951Y-146803967D01*
X125321954Y-146803968D01*
X125325713Y-146808307D01*
X125354738Y-146871863D01*
X125356000Y-146889510D01*
X125356000Y-148584189D01*
X125356004Y-148584282D01*
X125356004Y-148628137D01*
X125385362Y-148775740D01*
X125386392Y-148778226D01*
X125442950Y-148914776D01*
X125442956Y-148914786D01*
X125526557Y-149039909D01*
X125579765Y-149093117D01*
X125579767Y-149093120D01*
X125622884Y-149136239D01*
X125622896Y-149136248D01*
X129450557Y-152963910D01*
X129450565Y-152963925D01*
X129519259Y-153032617D01*
X129540084Y-153053442D01*
X129665217Y-153137052D01*
X129665220Y-153137053D01*
X129665223Y-153137055D01*
X129778012Y-153183772D01*
X129804258Y-153194643D01*
X129951863Y-153224001D01*
X130027111Y-153224000D01*
X133066343Y-153224000D01*
X133066346Y-153224001D01*
X133104772Y-153224000D01*
X133120955Y-153225060D01*
X133157791Y-153229910D01*
X133189055Y-153238287D01*
X133215814Y-153249370D01*
X133243850Y-153265555D01*
X133273301Y-153288153D01*
X133285497Y-153298849D01*
X136112841Y-156126194D01*
X136146326Y-156187517D01*
X136141342Y-156257209D01*
X136099470Y-156313142D01*
X136034006Y-156337559D01*
X136025148Y-156337875D01*
X124971551Y-156336849D01*
X124904514Y-156317158D01*
X124883882Y-156300530D01*
X124877672Y-156294320D01*
X124877670Y-156294317D01*
X124820250Y-156236897D01*
X124820243Y-156236891D01*
X120966034Y-152382682D01*
X120966017Y-152382661D01*
X120960534Y-152377178D01*
X120960512Y-152377138D01*
X120924215Y-152340844D01*
X120924216Y-152340844D01*
X120871006Y-152287638D01*
X120745870Y-152204031D01*
X120606828Y-152146444D01*
X120606826Y-152146443D01*
X120606822Y-152146442D01*
X120459223Y-152117088D01*
X120383976Y-152117091D01*
X94686328Y-152117091D01*
X94670142Y-152116030D01*
X94660414Y-152114749D01*
X94633301Y-152111179D01*
X94602037Y-152102801D01*
X94575285Y-152091720D01*
X94547251Y-152075535D01*
X94529233Y-152061709D01*
X94517745Y-152052893D01*
X94505556Y-152042203D01*
X94488620Y-152025267D01*
X94488618Y-152025264D01*
X94474093Y-152010738D01*
X94474070Y-152010717D01*
X94454211Y-151990858D01*
X94433870Y-151970518D01*
X94423175Y-151958322D01*
X94407783Y-151938261D01*
X94382592Y-151873091D01*
X94396633Y-151804647D01*
X94412442Y-151781584D01*
X94477882Y-151706063D01*
X94531697Y-151588226D01*
X94550133Y-151460000D01*
X94531697Y-151331774D01*
X94477882Y-151213937D01*
X94393049Y-151116033D01*
X94284069Y-151045996D01*
X94284065Y-151045994D01*
X94284064Y-151045994D01*
X94159774Y-151009500D01*
X94159772Y-151009500D01*
X94030228Y-151009500D01*
X94030226Y-151009500D01*
X93905935Y-151045994D01*
X93905932Y-151045995D01*
X93905931Y-151045996D01*
X93854677Y-151078934D01*
X93796950Y-151116033D01*
X93712118Y-151213937D01*
X93712117Y-151213938D01*
X93658302Y-151331774D01*
X93639867Y-151460000D01*
X93658302Y-151588225D01*
X93707320Y-151695557D01*
X93712118Y-151706063D01*
X93796951Y-151803967D01*
X93796953Y-151803968D01*
X93801860Y-151809631D01*
X93828273Y-151867468D01*
X93829816Y-151867162D01*
X93831004Y-151873134D01*
X93831004Y-151873137D01*
X93860362Y-152020740D01*
X93872790Y-152050744D01*
X93917950Y-152159776D01*
X93917956Y-152159786D01*
X93979036Y-152251202D01*
X93999913Y-152317880D01*
X93981427Y-152385260D01*
X93929448Y-152431949D01*
X93875933Y-152444091D01*
X93743328Y-152444091D01*
X93727142Y-152443030D01*
X93714609Y-152441380D01*
X93690301Y-152438179D01*
X93659037Y-152429801D01*
X93632285Y-152418720D01*
X93604251Y-152402535D01*
X93601775Y-152400635D01*
X93574745Y-152379893D01*
X93562556Y-152369203D01*
X93543742Y-152350389D01*
X93543739Y-152350383D01*
X93543738Y-152350385D01*
X93525208Y-152331853D01*
X93525193Y-152331841D01*
X93163874Y-151970522D01*
X93153177Y-151958324D01*
X93137784Y-151938262D01*
X93112592Y-151873092D01*
X93126632Y-151804648D01*
X93142442Y-151781584D01*
X93207882Y-151706063D01*
X93261697Y-151588226D01*
X93280133Y-151460000D01*
X93261697Y-151331774D01*
X93207882Y-151213937D01*
X93123049Y-151116033D01*
X93014069Y-151045996D01*
X93014065Y-151045994D01*
X93014064Y-151045994D01*
X92889774Y-151009500D01*
X92889772Y-151009500D01*
X92760228Y-151009500D01*
X92760226Y-151009500D01*
X92635935Y-151045994D01*
X92635932Y-151045995D01*
X92635931Y-151045996D01*
X92584677Y-151078934D01*
X92526950Y-151116033D01*
X92442118Y-151213937D01*
X92442117Y-151213938D01*
X92388302Y-151331774D01*
X92369867Y-151460000D01*
X92388302Y-151588225D01*
X92437320Y-151695557D01*
X92442118Y-151706063D01*
X92526951Y-151803967D01*
X92526953Y-151803968D01*
X92531860Y-151809631D01*
X92558273Y-151867468D01*
X92559816Y-151867162D01*
X92561004Y-151873134D01*
X92561004Y-151873137D01*
X92590362Y-152020740D01*
X92602790Y-152050744D01*
X92647950Y-152159776D01*
X92647956Y-152159786D01*
X92731557Y-152284909D01*
X92784765Y-152338117D01*
X92784767Y-152338120D01*
X92827884Y-152381239D01*
X92827897Y-152381249D01*
X93006058Y-152559410D01*
X93039543Y-152620733D01*
X93034559Y-152690425D01*
X92992687Y-152746358D01*
X92927223Y-152770775D01*
X92918377Y-152771091D01*
X92720328Y-152771091D01*
X92704142Y-152770030D01*
X92694414Y-152768749D01*
X92667301Y-152765179D01*
X92636040Y-152756802D01*
X92609289Y-152745722D01*
X92581251Y-152729535D01*
X92567749Y-152719174D01*
X92551747Y-152706895D01*
X92539552Y-152696200D01*
X92538291Y-152694939D01*
X92512408Y-152669054D01*
X92512407Y-152669053D01*
X92505344Y-152661990D01*
X92505331Y-152661979D01*
X91893870Y-152050518D01*
X91883173Y-152038320D01*
X91873155Y-152025264D01*
X91860559Y-152008847D01*
X91844375Y-151980815D01*
X91833292Y-151954057D01*
X91824915Y-151922791D01*
X91824655Y-151920816D01*
X91822321Y-151903086D01*
X91833087Y-151834052D01*
X91851547Y-151805699D01*
X91853046Y-151803968D01*
X91853049Y-151803967D01*
X91937882Y-151706063D01*
X91991697Y-151588226D01*
X92010133Y-151460000D01*
X91991697Y-151331774D01*
X91937882Y-151213937D01*
X91853049Y-151116033D01*
X91744069Y-151045996D01*
X91744065Y-151045994D01*
X91744064Y-151045994D01*
X91619774Y-151009500D01*
X91619772Y-151009500D01*
X91490228Y-151009500D01*
X91490226Y-151009500D01*
X91365935Y-151045994D01*
X91365932Y-151045995D01*
X91365931Y-151045996D01*
X91314677Y-151078934D01*
X91256950Y-151116033D01*
X91172118Y-151213937D01*
X91172117Y-151213938D01*
X91118302Y-151331774D01*
X91099867Y-151460000D01*
X91118302Y-151588225D01*
X91167320Y-151695557D01*
X91172118Y-151706063D01*
X91256951Y-151803967D01*
X91256954Y-151803968D01*
X91260713Y-151808307D01*
X91289738Y-151871863D01*
X91291000Y-151889510D01*
X91291000Y-151909189D01*
X91291004Y-151909282D01*
X91291004Y-151953137D01*
X91320362Y-152100740D01*
X91327135Y-152117091D01*
X91377950Y-152239776D01*
X91377956Y-152239786D01*
X91461557Y-152364909D01*
X91514765Y-152418117D01*
X91514767Y-152418120D01*
X91557884Y-152461239D01*
X91557897Y-152461249D01*
X91983057Y-152886410D01*
X92016542Y-152947733D01*
X92011558Y-153017425D01*
X91969686Y-153073358D01*
X91904222Y-153097775D01*
X91895376Y-153098091D01*
X91847328Y-153098091D01*
X91831142Y-153097030D01*
X91821414Y-153095749D01*
X91794301Y-153092179D01*
X91763040Y-153083802D01*
X91736289Y-153072722D01*
X91708251Y-153056535D01*
X91690032Y-153042555D01*
X91678747Y-153033895D01*
X91666552Y-153023200D01*
X91639408Y-152996054D01*
X91639407Y-152996053D01*
X91632344Y-152988990D01*
X91632331Y-152988979D01*
X90623870Y-151980518D01*
X90613182Y-151968331D01*
X90593713Y-151942957D01*
X90568522Y-151877790D01*
X90582562Y-151809345D01*
X90598372Y-151786282D01*
X90667882Y-151706063D01*
X90721697Y-151588226D01*
X90740133Y-151460000D01*
X90721697Y-151331774D01*
X90667882Y-151213937D01*
X90583049Y-151116033D01*
X90474069Y-151045996D01*
X90474065Y-151045994D01*
X90474064Y-151045994D01*
X90349774Y-151009500D01*
X90349772Y-151009500D01*
X90220228Y-151009500D01*
X90220226Y-151009500D01*
X90095935Y-151045994D01*
X90095932Y-151045995D01*
X90095931Y-151045996D01*
X90044677Y-151078934D01*
X89986950Y-151116033D01*
X89902118Y-151213937D01*
X89902117Y-151213938D01*
X89848302Y-151331774D01*
X89829867Y-151460000D01*
X89848302Y-151588225D01*
X89897320Y-151695557D01*
X89902118Y-151706063D01*
X89981009Y-151797109D01*
X89990749Y-151808350D01*
X90019773Y-151871906D01*
X90020437Y-151877390D01*
X90021002Y-151883126D01*
X90021004Y-151883136D01*
X90021004Y-151883137D01*
X90050362Y-152030740D01*
X90062790Y-152060744D01*
X90107950Y-152169776D01*
X90107956Y-152169786D01*
X90191557Y-152294909D01*
X90244765Y-152348117D01*
X90244767Y-152348120D01*
X90287884Y-152391239D01*
X90287897Y-152391249D01*
X91110057Y-153213410D01*
X91143542Y-153274733D01*
X91138558Y-153344425D01*
X91096686Y-153400358D01*
X91031222Y-153424775D01*
X91022376Y-153425091D01*
X90874328Y-153425091D01*
X90858142Y-153424030D01*
X90848414Y-153422749D01*
X90821301Y-153419179D01*
X90790037Y-153410801D01*
X90763285Y-153399720D01*
X90735251Y-153383535D01*
X90717032Y-153369555D01*
X90705745Y-153360893D01*
X90693556Y-153350203D01*
X90675741Y-153332388D01*
X90675739Y-153332385D01*
X90675739Y-153332386D01*
X90671353Y-153328000D01*
X90666408Y-153323054D01*
X90666407Y-153323053D01*
X90659341Y-153315987D01*
X90659336Y-153315983D01*
X89353874Y-152010522D01*
X89343176Y-151998324D01*
X89341312Y-151995895D01*
X89325105Y-151974772D01*
X89320557Y-151968844D01*
X89304376Y-151940817D01*
X89298195Y-151925895D01*
X89298141Y-151925765D01*
X89290672Y-151856299D01*
X89318988Y-151797112D01*
X89397882Y-151706063D01*
X89451697Y-151588226D01*
X89470133Y-151460000D01*
X89451697Y-151331774D01*
X89397882Y-151213937D01*
X89313049Y-151116033D01*
X89204069Y-151045996D01*
X89204065Y-151045994D01*
X89204064Y-151045994D01*
X89079774Y-151009500D01*
X89079772Y-151009500D01*
X88950228Y-151009500D01*
X88950226Y-151009500D01*
X88825935Y-151045994D01*
X88825932Y-151045995D01*
X88825931Y-151045996D01*
X88774677Y-151078934D01*
X88716950Y-151116033D01*
X88632118Y-151213937D01*
X88632117Y-151213938D01*
X88578302Y-151331774D01*
X88559867Y-151460000D01*
X88578302Y-151588225D01*
X88627320Y-151695557D01*
X88632118Y-151706063D01*
X88716951Y-151803967D01*
X88716953Y-151803968D01*
X88720717Y-151808312D01*
X88749742Y-151871868D01*
X88751004Y-151889510D01*
X88751004Y-151913137D01*
X88780362Y-152060740D01*
X88791383Y-152087347D01*
X88837950Y-152199776D01*
X88837956Y-152199786D01*
X88921557Y-152324909D01*
X88974765Y-152378117D01*
X88974767Y-152378120D01*
X89017884Y-152421239D01*
X89017897Y-152421249D01*
X90137057Y-153540410D01*
X90170542Y-153601733D01*
X90165558Y-153671425D01*
X90123686Y-153727358D01*
X90058222Y-153751775D01*
X90049376Y-153752091D01*
X89951328Y-153752091D01*
X89935142Y-153751030D01*
X89925414Y-153749749D01*
X89898301Y-153746179D01*
X89867037Y-153737801D01*
X89840285Y-153726720D01*
X89812251Y-153710535D01*
X89794032Y-153696555D01*
X89782745Y-153687893D01*
X89770556Y-153677203D01*
X89756397Y-153663044D01*
X89756396Y-153663042D01*
X89736350Y-153642995D01*
X89736335Y-153642982D01*
X88083874Y-151990522D01*
X88073176Y-151978324D01*
X88069828Y-151973961D01*
X88055967Y-151955895D01*
X88050557Y-151948844D01*
X88034392Y-151920855D01*
X88033763Y-151919338D01*
X88026269Y-151849871D01*
X88054591Y-151790645D01*
X88127882Y-151706063D01*
X88181697Y-151588226D01*
X88200133Y-151460000D01*
X88181697Y-151331774D01*
X88127882Y-151213937D01*
X88043049Y-151116033D01*
X87934069Y-151045996D01*
X87934065Y-151045994D01*
X87934064Y-151045994D01*
X87809774Y-151009500D01*
X87809772Y-151009500D01*
X87680228Y-151009500D01*
X87680226Y-151009500D01*
X87555935Y-151045994D01*
X87555932Y-151045995D01*
X87555931Y-151045996D01*
X87504677Y-151078934D01*
X87446950Y-151116033D01*
X87362118Y-151213937D01*
X87362117Y-151213938D01*
X87308302Y-151331774D01*
X87289867Y-151460000D01*
X87308302Y-151588225D01*
X87357320Y-151695557D01*
X87362118Y-151706063D01*
X87446951Y-151803967D01*
X87446953Y-151803968D01*
X87450717Y-151808312D01*
X87479742Y-151871868D01*
X87481004Y-151889510D01*
X87481004Y-151893137D01*
X87510362Y-152040740D01*
X87528321Y-152084098D01*
X87567950Y-152179776D01*
X87567956Y-152179786D01*
X87651557Y-152304909D01*
X87704765Y-152358117D01*
X87704767Y-152358120D01*
X87747884Y-152401239D01*
X87747897Y-152401249D01*
X89213966Y-153867319D01*
X89247451Y-153928642D01*
X89242467Y-153998334D01*
X89200595Y-154054267D01*
X89135131Y-154078684D01*
X89126285Y-154079000D01*
X89076654Y-154079000D01*
X89076642Y-154078999D01*
X89028226Y-154078999D01*
X89012045Y-154077939D01*
X89001723Y-154076580D01*
X88975207Y-154073089D01*
X88943942Y-154064713D01*
X88917182Y-154053629D01*
X88889151Y-154037445D01*
X88859702Y-154014849D01*
X88847510Y-154004157D01*
X88820314Y-153976961D01*
X88820309Y-153976957D01*
X86813870Y-151970518D01*
X86803176Y-151958324D01*
X86787783Y-151938262D01*
X86762591Y-151873096D01*
X86776630Y-151804651D01*
X86792441Y-151781586D01*
X86857882Y-151706063D01*
X86911697Y-151588226D01*
X86930133Y-151460000D01*
X86911697Y-151331774D01*
X86857882Y-151213937D01*
X86773049Y-151116033D01*
X86664069Y-151045996D01*
X86664065Y-151045994D01*
X86664064Y-151045994D01*
X86539774Y-151009500D01*
X86539772Y-151009500D01*
X86410228Y-151009500D01*
X86410226Y-151009500D01*
X86285935Y-151045994D01*
X86285932Y-151045995D01*
X86285931Y-151045996D01*
X86234677Y-151078934D01*
X86176950Y-151116033D01*
X86092118Y-151213937D01*
X86092117Y-151213938D01*
X86038302Y-151331774D01*
X86019867Y-151460000D01*
X86038302Y-151588225D01*
X86087320Y-151695557D01*
X86092118Y-151706063D01*
X86176951Y-151803967D01*
X86176953Y-151803968D01*
X86181860Y-151809631D01*
X86208273Y-151867468D01*
X86209816Y-151867162D01*
X86211004Y-151873134D01*
X86211004Y-151873137D01*
X86240362Y-152020740D01*
X86252790Y-152050744D01*
X86297950Y-152159776D01*
X86297956Y-152159786D01*
X86381557Y-152284909D01*
X86434765Y-152338117D01*
X86434767Y-152338120D01*
X86477884Y-152381239D01*
X86477897Y-152381249D01*
X88290967Y-154194319D01*
X88324452Y-154255642D01*
X88319468Y-154325334D01*
X88277596Y-154381267D01*
X88212132Y-154405684D01*
X88203286Y-154406000D01*
X88103654Y-154406000D01*
X88103642Y-154405999D01*
X88055226Y-154405999D01*
X88039045Y-154404939D01*
X88028723Y-154403580D01*
X88002207Y-154400089D01*
X87970942Y-154391713D01*
X87944182Y-154380629D01*
X87916151Y-154364445D01*
X87886702Y-154341849D01*
X87874510Y-154331157D01*
X87847314Y-154303961D01*
X87847309Y-154303957D01*
X85543870Y-152000518D01*
X85533173Y-151988320D01*
X85525503Y-151978324D01*
X85510559Y-151958847D01*
X85494375Y-151930815D01*
X85490943Y-151922529D01*
X85483476Y-151853059D01*
X85511789Y-151793879D01*
X85587882Y-151706063D01*
X85641697Y-151588226D01*
X85660133Y-151460000D01*
X85641697Y-151331774D01*
X85587882Y-151213937D01*
X85503049Y-151116033D01*
X85394069Y-151045996D01*
X85394065Y-151045994D01*
X85394064Y-151045994D01*
X85269774Y-151009500D01*
X85269772Y-151009500D01*
X85140228Y-151009500D01*
X85140226Y-151009500D01*
X85015935Y-151045994D01*
X85015932Y-151045995D01*
X85015931Y-151045996D01*
X84964677Y-151078934D01*
X84906950Y-151116033D01*
X84822118Y-151213937D01*
X84822117Y-151213938D01*
X84768302Y-151331774D01*
X84749867Y-151460000D01*
X84768302Y-151588225D01*
X84817320Y-151695557D01*
X84822118Y-151706063D01*
X84906951Y-151803967D01*
X84906953Y-151803968D01*
X84910717Y-151808312D01*
X84939742Y-151871868D01*
X84941004Y-151889510D01*
X84941004Y-151903137D01*
X84970362Y-152050740D01*
X84984748Y-152085473D01*
X85027950Y-152189776D01*
X85027956Y-152189786D01*
X85111557Y-152314909D01*
X85164765Y-152368117D01*
X85164767Y-152368120D01*
X85207884Y-152411239D01*
X85207897Y-152411249D01*
X87340967Y-154544319D01*
X87374452Y-154605642D01*
X87369468Y-154675334D01*
X87327596Y-154731267D01*
X87262132Y-154755684D01*
X87253286Y-154756000D01*
X87103654Y-154756000D01*
X87103642Y-154755999D01*
X87055226Y-154755999D01*
X87039045Y-154754939D01*
X87028723Y-154753580D01*
X87002207Y-154750089D01*
X86970942Y-154741713D01*
X86944182Y-154730629D01*
X86916151Y-154714445D01*
X86886702Y-154691849D01*
X86874510Y-154681157D01*
X86847314Y-154653961D01*
X86847309Y-154653957D01*
X84536249Y-152342897D01*
X84536239Y-152342884D01*
X84525849Y-152332494D01*
X84525842Y-152332482D01*
X84439918Y-152246560D01*
X84439916Y-152246558D01*
X84429781Y-152239786D01*
X84314782Y-152162947D01*
X84307150Y-152159786D01*
X84175746Y-152105359D01*
X84175745Y-152105358D01*
X84175741Y-152105357D01*
X84028137Y-152075999D01*
X84028135Y-152075999D01*
X83952889Y-152076000D01*
X74727425Y-152076000D01*
X74711234Y-152074938D01*
X74674393Y-152070086D01*
X74643132Y-152061709D01*
X74616382Y-152050629D01*
X74588344Y-152034441D01*
X74558818Y-152011783D01*
X74546625Y-152001090D01*
X74512435Y-151966899D01*
X74512422Y-151966888D01*
X74478477Y-151932943D01*
X74478475Y-151932940D01*
X74454466Y-151908931D01*
X74420981Y-151847608D01*
X74425965Y-151777916D01*
X74448435Y-151740047D01*
X74477879Y-151706067D01*
X74477879Y-151706065D01*
X74477882Y-151706063D01*
X74531697Y-151588226D01*
X74550133Y-151460000D01*
X74531697Y-151331774D01*
X74477882Y-151213937D01*
X74393049Y-151116033D01*
X74284069Y-151045996D01*
X74284065Y-151045994D01*
X74284064Y-151045994D01*
X74159774Y-151009500D01*
X74159772Y-151009500D01*
X74030228Y-151009500D01*
X74030226Y-151009500D01*
X73905935Y-151045994D01*
X73905932Y-151045995D01*
X73905931Y-151045996D01*
X73854677Y-151078934D01*
X73796950Y-151116033D01*
X73712118Y-151213937D01*
X73712117Y-151213938D01*
X73658302Y-151331774D01*
X73639867Y-151460000D01*
X73658302Y-151588225D01*
X73707320Y-151695557D01*
X73712118Y-151706063D01*
X73796950Y-151803966D01*
X73796953Y-151803969D01*
X73803652Y-151809774D01*
X73802306Y-151811326D01*
X73840401Y-151855287D01*
X73849224Y-151882604D01*
X73856895Y-151921166D01*
X73860357Y-151938567D01*
X73860358Y-151938570D01*
X73917952Y-152077605D01*
X74001562Y-152202733D01*
X74001566Y-152202738D01*
X74036382Y-152237552D01*
X74037329Y-152238499D01*
X74037336Y-152238509D01*
X74060145Y-152261317D01*
X74093632Y-152322639D01*
X74088649Y-152392331D01*
X74046779Y-152448265D01*
X73981315Y-152472684D01*
X73972466Y-152473000D01*
X73854425Y-152473000D01*
X73838234Y-152471938D01*
X73801393Y-152467086D01*
X73770132Y-152458709D01*
X73743382Y-152447629D01*
X73715344Y-152431441D01*
X73685818Y-152408783D01*
X73673625Y-152398090D01*
X73639435Y-152363899D01*
X73639422Y-152363888D01*
X73208477Y-151932943D01*
X73208475Y-151932940D01*
X73184466Y-151908931D01*
X73150981Y-151847608D01*
X73155965Y-151777916D01*
X73178435Y-151740047D01*
X73207879Y-151706067D01*
X73207879Y-151706065D01*
X73207882Y-151706063D01*
X73261697Y-151588226D01*
X73280133Y-151460000D01*
X73261697Y-151331774D01*
X73207882Y-151213937D01*
X73123049Y-151116033D01*
X73014069Y-151045996D01*
X73014065Y-151045994D01*
X73014064Y-151045994D01*
X72889774Y-151009500D01*
X72889772Y-151009500D01*
X72760228Y-151009500D01*
X72760226Y-151009500D01*
X72635935Y-151045994D01*
X72635932Y-151045995D01*
X72635931Y-151045996D01*
X72584677Y-151078934D01*
X72526950Y-151116033D01*
X72442118Y-151213937D01*
X72442117Y-151213938D01*
X72388302Y-151331774D01*
X72369867Y-151460000D01*
X72388302Y-151588225D01*
X72437320Y-151695557D01*
X72442118Y-151706063D01*
X72526950Y-151803966D01*
X72526953Y-151803969D01*
X72533652Y-151809774D01*
X72532306Y-151811326D01*
X72570401Y-151855287D01*
X72579224Y-151882604D01*
X72586895Y-151921166D01*
X72590357Y-151938567D01*
X72590358Y-151938570D01*
X72647952Y-152077605D01*
X72731562Y-152202733D01*
X72731566Y-152202738D01*
X72766382Y-152237552D01*
X72767329Y-152238499D01*
X72767334Y-152238506D01*
X72803284Y-152274454D01*
X73117149Y-152588319D01*
X73150634Y-152649642D01*
X73145650Y-152719334D01*
X73103778Y-152775267D01*
X73038314Y-152799684D01*
X73029468Y-152800000D01*
X72911712Y-152800000D01*
X72895517Y-152798938D01*
X72858685Y-152794086D01*
X72827420Y-152785706D01*
X72800661Y-152774619D01*
X72772634Y-152758434D01*
X72770507Y-152756802D01*
X72742959Y-152735660D01*
X72730763Y-152724962D01*
X72696740Y-152690932D01*
X72696686Y-152690886D01*
X71929110Y-151923310D01*
X71929080Y-151923274D01*
X71914597Y-151908793D01*
X71881108Y-151847472D01*
X71886087Y-151777780D01*
X71908556Y-151739906D01*
X71937882Y-151706063D01*
X71991697Y-151588226D01*
X72010133Y-151460000D01*
X71991697Y-151331774D01*
X71937882Y-151213937D01*
X71853049Y-151116033D01*
X71744069Y-151045996D01*
X71744065Y-151045994D01*
X71744064Y-151045994D01*
X71619774Y-151009500D01*
X71619772Y-151009500D01*
X71490228Y-151009500D01*
X71490226Y-151009500D01*
X71365935Y-151045994D01*
X71365932Y-151045995D01*
X71365931Y-151045996D01*
X71314677Y-151078934D01*
X71256950Y-151116033D01*
X71172118Y-151213937D01*
X71172117Y-151213938D01*
X71118302Y-151331774D01*
X71099867Y-151460000D01*
X71118302Y-151588225D01*
X71167320Y-151695557D01*
X71172118Y-151706063D01*
X71202778Y-151741447D01*
X71256949Y-151803965D01*
X71263651Y-151809772D01*
X71262314Y-151811314D01*
X71300442Y-151855314D01*
X71309264Y-151882624D01*
X71320348Y-151938319D01*
X71320350Y-151938324D01*
X71377947Y-152077347D01*
X71377950Y-152077353D01*
X71461567Y-152202476D01*
X71461570Y-152202480D01*
X71497336Y-152238242D01*
X71497342Y-152238250D01*
X71522026Y-152262930D01*
X71522033Y-152262937D01*
X72174414Y-152915319D01*
X72207899Y-152976642D01*
X72202915Y-153046334D01*
X72161043Y-153102267D01*
X72095579Y-153126684D01*
X72086733Y-153127000D01*
X71994654Y-153127000D01*
X71994642Y-153126999D01*
X71946226Y-153126999D01*
X71930045Y-153125939D01*
X71919723Y-153124580D01*
X71893207Y-153121089D01*
X71861940Y-153112712D01*
X71835181Y-153101628D01*
X71807150Y-153085444D01*
X71777705Y-153062851D01*
X71765508Y-153052155D01*
X70634168Y-151920816D01*
X70600683Y-151859493D01*
X70605667Y-151789801D01*
X70628134Y-151751935D01*
X70667882Y-151706063D01*
X70721697Y-151588226D01*
X70740133Y-151460000D01*
X70721697Y-151331774D01*
X70667882Y-151213937D01*
X70583049Y-151116033D01*
X70474069Y-151045996D01*
X70474065Y-151045994D01*
X70474064Y-151045994D01*
X70349774Y-151009500D01*
X70349772Y-151009500D01*
X70220228Y-151009500D01*
X70220226Y-151009500D01*
X70095935Y-151045994D01*
X70095932Y-151045995D01*
X70095931Y-151045996D01*
X70044677Y-151078934D01*
X69986950Y-151116033D01*
X69902118Y-151213937D01*
X69902117Y-151213938D01*
X69848302Y-151331774D01*
X69829867Y-151460000D01*
X69848302Y-151588225D01*
X69902117Y-151706061D01*
X69902120Y-151706067D01*
X69986949Y-151803965D01*
X69993656Y-151809777D01*
X69991161Y-151812655D01*
X70025215Y-151851744D01*
X70034176Y-151879365D01*
X70039060Y-151903918D01*
X70050362Y-151960741D01*
X70107950Y-152099776D01*
X70107956Y-152099786D01*
X70191557Y-152224909D01*
X70244765Y-152278117D01*
X70244767Y-152278120D01*
X70287884Y-152321239D01*
X70287896Y-152321248D01*
X71361557Y-153394910D01*
X71361565Y-153394925D01*
X71397875Y-153431234D01*
X71451084Y-153484442D01*
X71576217Y-153568052D01*
X71576220Y-153568053D01*
X71576223Y-153568055D01*
X71657532Y-153601733D01*
X71715258Y-153625643D01*
X71862863Y-153655001D01*
X71938111Y-153655000D01*
X77787343Y-153655000D01*
X77787346Y-153655001D01*
X77825772Y-153655000D01*
X77841955Y-153656060D01*
X77878791Y-153660910D01*
X77910055Y-153669287D01*
X77936814Y-153680370D01*
X77964848Y-153696554D01*
X77983069Y-153710535D01*
X77994301Y-153719153D01*
X78006497Y-153729849D01*
X80397675Y-156121027D01*
X80431160Y-156182350D01*
X80426176Y-156252042D01*
X80384304Y-156307975D01*
X80318840Y-156332392D01*
X80309982Y-156332708D01*
X77665868Y-156332462D01*
X77598831Y-156312771D01*
X77553081Y-156259963D01*
X77544264Y-156232658D01*
X77534638Y-156184260D01*
X77477048Y-156045220D01*
X77393438Y-155920087D01*
X77357670Y-155884319D01*
X77357669Y-155884316D01*
X77300250Y-155826897D01*
X77300243Y-155826891D01*
X75710032Y-154236680D01*
X75710030Y-154236677D01*
X75642235Y-154168882D01*
X75642232Y-154168880D01*
X75637032Y-154163680D01*
X75636750Y-154163425D01*
X75606457Y-154133130D01*
X75481334Y-154049522D01*
X75385696Y-154009902D01*
X75342307Y-153991927D01*
X75342308Y-153991927D01*
X75194708Y-153962558D01*
X75194713Y-153962558D01*
X75151586Y-153962555D01*
X75151538Y-153962553D01*
X75145448Y-153962553D01*
X75119470Y-153962553D01*
X75072920Y-153962548D01*
X75072919Y-153962548D01*
X75062305Y-153962547D01*
X75062235Y-153962553D01*
X71572654Y-153962553D01*
X71572642Y-153962552D01*
X71524227Y-153962552D01*
X71508046Y-153961492D01*
X71497653Y-153960124D01*
X71471215Y-153956643D01*
X71439942Y-153948263D01*
X71431180Y-153944633D01*
X71413196Y-153937183D01*
X71385167Y-153920999D01*
X71355652Y-153898350D01*
X71343455Y-153887652D01*
X71309286Y-153853479D01*
X71309238Y-153853438D01*
X69389110Y-151933310D01*
X69389085Y-151933280D01*
X69381029Y-151925225D01*
X69381029Y-151925224D01*
X69369951Y-151914147D01*
X69336464Y-151852827D01*
X69341445Y-151783136D01*
X69363912Y-151745266D01*
X69397882Y-151706063D01*
X69451697Y-151588226D01*
X69470133Y-151460000D01*
X69451697Y-151331774D01*
X69397882Y-151213937D01*
X69313049Y-151116033D01*
X69204069Y-151045996D01*
X69204065Y-151045994D01*
X69204064Y-151045994D01*
X69079774Y-151009500D01*
X69079772Y-151009500D01*
X68950228Y-151009500D01*
X68950226Y-151009500D01*
X68825935Y-151045994D01*
X68825932Y-151045995D01*
X68825931Y-151045996D01*
X68774677Y-151078934D01*
X68716950Y-151116033D01*
X68632118Y-151213937D01*
X68632117Y-151213938D01*
X68578302Y-151331774D01*
X68559867Y-151460000D01*
X68578302Y-151588225D01*
X68632117Y-151706061D01*
X68632120Y-151706067D01*
X68716950Y-151803966D01*
X68723657Y-151809778D01*
X68721814Y-151811904D01*
X68758162Y-151853852D01*
X68766983Y-151881160D01*
X68780348Y-151948318D01*
X68780351Y-151948327D01*
X68837947Y-152087347D01*
X68837950Y-152087353D01*
X68915925Y-152204033D01*
X68921570Y-152212480D01*
X68934001Y-152224909D01*
X68957336Y-152248241D01*
X68957343Y-152248251D01*
X68974781Y-152265685D01*
X68974781Y-152265686D01*
X68980100Y-152271004D01*
X68980108Y-152271012D01*
X70965591Y-154256495D01*
X70965594Y-154256500D01*
X70965595Y-154256500D01*
X71029005Y-154319916D01*
X71029076Y-154319974D01*
X71029080Y-154319978D01*
X71081339Y-154354899D01*
X71154205Y-154403590D01*
X71154208Y-154403592D01*
X71154213Y-154403595D01*
X71219040Y-154430449D01*
X71284197Y-154457440D01*
X71338599Y-154501283D01*
X71360662Y-154567578D01*
X71343381Y-154635277D01*
X71292242Y-154682886D01*
X71236741Y-154696000D01*
X71023654Y-154696000D01*
X71023642Y-154695999D01*
X70975226Y-154695999D01*
X70959041Y-154694938D01*
X70922208Y-154690089D01*
X70890944Y-154681712D01*
X70864185Y-154670629D01*
X70836148Y-154654443D01*
X70806696Y-154631844D01*
X70794501Y-154621149D01*
X68094168Y-151920816D01*
X68060683Y-151859493D01*
X68065667Y-151789801D01*
X68088134Y-151751935D01*
X68127882Y-151706063D01*
X68181697Y-151588226D01*
X68200133Y-151460000D01*
X68181697Y-151331774D01*
X68127882Y-151213937D01*
X68043049Y-151116033D01*
X67934069Y-151045996D01*
X67934065Y-151045994D01*
X67934064Y-151045994D01*
X67809774Y-151009500D01*
X67809772Y-151009500D01*
X67680228Y-151009500D01*
X67680226Y-151009500D01*
X67555935Y-151045994D01*
X67555932Y-151045995D01*
X67555931Y-151045996D01*
X67504677Y-151078934D01*
X67446950Y-151116033D01*
X67362118Y-151213937D01*
X67362117Y-151213938D01*
X67308302Y-151331774D01*
X67289867Y-151460000D01*
X67308302Y-151588225D01*
X67362117Y-151706061D01*
X67362120Y-151706067D01*
X67446949Y-151803965D01*
X67453656Y-151809777D01*
X67451161Y-151812655D01*
X67485215Y-151851744D01*
X67494176Y-151879365D01*
X67499060Y-151903918D01*
X67510362Y-151960741D01*
X67567950Y-152099776D01*
X67567956Y-152099786D01*
X67651557Y-152224909D01*
X67704765Y-152278117D01*
X67704767Y-152278120D01*
X67747884Y-152321239D01*
X67747897Y-152321249D01*
X70386888Y-154960240D01*
X70386905Y-154960260D01*
X70394150Y-154967505D01*
X70394156Y-154967516D01*
X70465726Y-155039084D01*
X70480085Y-155053443D01*
X70605218Y-155137053D01*
X70744259Y-155194643D01*
X70891863Y-155224001D01*
X70967111Y-155224000D01*
X71013661Y-155224000D01*
X71911985Y-155224000D01*
X71928179Y-155225062D01*
X71941854Y-155226863D01*
X71965015Y-155229914D01*
X71996274Y-155238292D01*
X72023030Y-155249376D01*
X72051058Y-155265559D01*
X72080710Y-155288315D01*
X72092897Y-155299006D01*
X72128265Y-155334378D01*
X72128299Y-155334406D01*
X72914226Y-156120333D01*
X72947711Y-156181656D01*
X72942727Y-156251348D01*
X72900855Y-156307281D01*
X72835391Y-156331698D01*
X72826533Y-156332014D01*
X69767988Y-156331730D01*
X69700951Y-156312039D01*
X69655201Y-156259231D01*
X69644000Y-156207730D01*
X69644000Y-155014777D01*
X69643995Y-155014681D01*
X69643995Y-154998153D01*
X69643996Y-154971863D01*
X69614638Y-154824260D01*
X69557048Y-154685220D01*
X69473438Y-154560087D01*
X69437670Y-154524319D01*
X69437669Y-154524316D01*
X69380250Y-154466897D01*
X69380243Y-154466891D01*
X66828810Y-151915458D01*
X66795325Y-151854135D01*
X66800309Y-151784443D01*
X66822775Y-151746578D01*
X66857882Y-151706063D01*
X66911697Y-151588226D01*
X66930133Y-151460000D01*
X66911697Y-151331774D01*
X66857882Y-151213937D01*
X66773049Y-151116033D01*
X66664069Y-151045996D01*
X66664065Y-151045994D01*
X66664064Y-151045994D01*
X66539774Y-151009500D01*
X66539772Y-151009500D01*
X66410228Y-151009500D01*
X66410226Y-151009500D01*
X66285935Y-151045994D01*
X66285932Y-151045995D01*
X66285931Y-151045996D01*
X66234677Y-151078934D01*
X66176950Y-151116033D01*
X66092118Y-151213937D01*
X66092117Y-151213938D01*
X66038302Y-151331774D01*
X66019867Y-151460000D01*
X66038302Y-151588225D01*
X66087320Y-151695557D01*
X66092118Y-151706063D01*
X66176950Y-151803966D01*
X66176953Y-151803969D01*
X66183652Y-151809774D01*
X66181692Y-151812035D01*
X66217630Y-151853501D01*
X66226457Y-151880830D01*
X66233353Y-151915501D01*
X66238814Y-151942960D01*
X66240362Y-151950740D01*
X66246174Y-151964771D01*
X66297950Y-152089776D01*
X66297956Y-152089786D01*
X66381557Y-152214909D01*
X66434765Y-152268117D01*
X66434767Y-152268120D01*
X66477884Y-152311239D01*
X66477897Y-152311249D01*
X69013957Y-154847309D01*
X69013958Y-154847311D01*
X69041129Y-154874482D01*
X69051817Y-154886669D01*
X69074441Y-154916153D01*
X69090625Y-154944187D01*
X69101707Y-154970943D01*
X69110084Y-155002210D01*
X69114938Y-155039084D01*
X69115999Y-155055267D01*
X69115999Y-155108085D01*
X69116000Y-155108094D01*
X69116000Y-156207658D01*
X69096315Y-156274697D01*
X69043511Y-156320452D01*
X68991989Y-156331658D01*
X65592989Y-156331343D01*
X65525951Y-156311652D01*
X65480201Y-156258844D01*
X65469000Y-156207343D01*
X65469000Y-151889510D01*
X65488685Y-151822471D01*
X65499287Y-151808307D01*
X65503045Y-151803969D01*
X65503049Y-151803967D01*
X65587882Y-151706063D01*
X65641697Y-151588226D01*
X65660133Y-151460000D01*
X65641697Y-151331774D01*
X65587882Y-151213937D01*
X65503049Y-151116033D01*
X65394069Y-151045996D01*
X65394065Y-151045994D01*
X65394064Y-151045994D01*
X65269774Y-151009500D01*
X65269772Y-151009500D01*
X65140228Y-151009500D01*
X65140226Y-151009500D01*
X65015935Y-151045994D01*
X65015932Y-151045995D01*
X65015931Y-151045996D01*
X64964677Y-151078934D01*
X64906950Y-151116033D01*
X64822118Y-151213937D01*
X64822117Y-151213938D01*
X64768302Y-151331774D01*
X64749867Y-151460000D01*
X64768302Y-151588225D01*
X64817320Y-151695557D01*
X64822118Y-151706063D01*
X64906951Y-151803967D01*
X64906954Y-151803968D01*
X64910713Y-151808307D01*
X64939738Y-151871863D01*
X64941000Y-151889510D01*
X64941000Y-156207271D01*
X64921315Y-156274310D01*
X64868511Y-156320065D01*
X64816988Y-156331271D01*
X61973820Y-156331007D01*
X61906783Y-156311316D01*
X61866445Y-156269008D01*
X61861223Y-156259963D01*
X61782692Y-156123945D01*
X61782691Y-156123943D01*
X61782690Y-156123942D01*
X61670163Y-155989836D01*
X61536057Y-155877309D01*
X61384446Y-155789775D01*
X61219937Y-155729898D01*
X61047534Y-155699500D01*
X61047532Y-155699500D01*
X60995799Y-155699500D01*
X51924500Y-155699500D01*
X51857461Y-155679815D01*
X51811706Y-155627011D01*
X51800500Y-155575500D01*
X51800500Y-149130000D01*
X116894353Y-149130000D01*
X116914834Y-149272456D01*
X116974622Y-149403371D01*
X116974623Y-149403373D01*
X117068872Y-149512143D01*
X117189947Y-149589953D01*
X117189950Y-149589954D01*
X117189949Y-149589954D01*
X117328036Y-149630499D01*
X117328038Y-149630500D01*
X117328039Y-149630500D01*
X117471962Y-149630500D01*
X117471962Y-149630499D01*
X117610053Y-149589953D01*
X117731128Y-149512143D01*
X117825377Y-149403373D01*
X117885165Y-149272457D01*
X117905647Y-149130000D01*
X117886089Y-148993967D01*
X117885165Y-148987542D01*
X117885164Y-148987541D01*
X117861706Y-148936174D01*
X117850500Y-148884663D01*
X117850500Y-147505335D01*
X117861705Y-147453825D01*
X117885165Y-147402457D01*
X117905647Y-147260000D01*
X117885165Y-147117543D01*
X117825377Y-146986627D01*
X117731128Y-146877857D01*
X117610053Y-146800047D01*
X117610051Y-146800046D01*
X117610049Y-146800045D01*
X117610050Y-146800045D01*
X117471963Y-146759500D01*
X117471961Y-146759500D01*
X117328039Y-146759500D01*
X117328036Y-146759500D01*
X117189949Y-146800045D01*
X117068873Y-146877856D01*
X116974623Y-146986626D01*
X116974622Y-146986628D01*
X116914834Y-147117543D01*
X116894353Y-147260000D01*
X116914834Y-147402453D01*
X116914834Y-147402454D01*
X116914834Y-147402455D01*
X116914835Y-147402457D01*
X116938294Y-147453825D01*
X116949500Y-147505335D01*
X116949500Y-148884663D01*
X116938294Y-148936174D01*
X116914835Y-148987541D01*
X116914834Y-148987542D01*
X116894353Y-149130000D01*
X51800500Y-149130000D01*
X51800500Y-147259999D01*
X81544353Y-147259999D01*
X81549500Y-147295798D01*
X81564834Y-147402456D01*
X81611818Y-147505335D01*
X81624623Y-147533373D01*
X81718872Y-147642143D01*
X81839947Y-147719953D01*
X81839950Y-147719954D01*
X81839949Y-147719954D01*
X81947107Y-147751417D01*
X81963881Y-147756343D01*
X81978036Y-147760499D01*
X81978038Y-147760500D01*
X81978039Y-147760500D01*
X82121962Y-147760500D01*
X82121962Y-147760499D01*
X82260053Y-147719953D01*
X82381128Y-147642143D01*
X82475377Y-147533373D01*
X82535165Y-147402457D01*
X82550500Y-147295799D01*
X82550500Y-147295798D01*
X82555647Y-147260000D01*
X101804353Y-147260000D01*
X101824834Y-147402456D01*
X101871818Y-147505335D01*
X101884623Y-147533373D01*
X101978872Y-147642143D01*
X102099947Y-147719953D01*
X102099950Y-147719954D01*
X102099949Y-147719954D01*
X102207107Y-147751417D01*
X102223881Y-147756343D01*
X102238036Y-147760499D01*
X102238038Y-147760500D01*
X102238039Y-147760500D01*
X102381962Y-147760500D01*
X102381962Y-147760499D01*
X102520053Y-147719953D01*
X102641128Y-147642143D01*
X102735377Y-147533373D01*
X102795165Y-147402457D01*
X102815647Y-147260000D01*
X102795165Y-147117543D01*
X102792484Y-147111673D01*
X102771706Y-147066174D01*
X102760500Y-147014663D01*
X102760500Y-142483335D01*
X102771705Y-142431825D01*
X102795165Y-142380457D01*
X102815647Y-142238000D01*
X102795165Y-142095543D01*
X102735377Y-141964627D01*
X102641128Y-141855857D01*
X102520053Y-141778047D01*
X102520051Y-141778046D01*
X102520049Y-141778045D01*
X102520050Y-141778045D01*
X102381963Y-141737500D01*
X102381961Y-141737500D01*
X102238039Y-141737500D01*
X102238036Y-141737500D01*
X102099949Y-141778045D01*
X101978873Y-141855856D01*
X101884623Y-141964626D01*
X101884622Y-141964628D01*
X101824834Y-142095543D01*
X101804353Y-142238000D01*
X101824834Y-142380453D01*
X101824834Y-142380454D01*
X101824834Y-142380455D01*
X101824835Y-142380457D01*
X101848294Y-142431825D01*
X101859500Y-142483335D01*
X101859500Y-147014663D01*
X101848294Y-147066174D01*
X101824835Y-147117541D01*
X101824834Y-147117542D01*
X101804353Y-147260000D01*
X82555647Y-147260000D01*
X82551762Y-147232977D01*
X82550500Y-147215331D01*
X82550500Y-142274667D01*
X82551762Y-142257020D01*
X82555647Y-142230000D01*
X82547034Y-142170098D01*
X82535165Y-142087543D01*
X82522944Y-142060784D01*
X82479031Y-141964628D01*
X82475377Y-141956627D01*
X82381128Y-141847857D01*
X82260053Y-141770047D01*
X82260051Y-141770046D01*
X82260049Y-141770045D01*
X82260050Y-141770045D01*
X82121963Y-141729500D01*
X82121961Y-141729500D01*
X81978039Y-141729500D01*
X81978036Y-141729500D01*
X81839949Y-141770045D01*
X81718873Y-141847856D01*
X81624623Y-141956626D01*
X81624622Y-141956628D01*
X81564835Y-142087540D01*
X81564834Y-142087544D01*
X81552966Y-142170096D01*
X81552966Y-142170097D01*
X81544353Y-142230000D01*
X81548238Y-142257020D01*
X81549500Y-142274667D01*
X81549500Y-147215331D01*
X81548238Y-147232977D01*
X81544353Y-147259999D01*
X51800500Y-147259999D01*
X51800500Y-109600000D01*
X87474867Y-109600000D01*
X87493302Y-109728225D01*
X87547117Y-109846061D01*
X87547118Y-109846063D01*
X87631951Y-109943967D01*
X87631954Y-109943968D01*
X87635713Y-109948307D01*
X87664738Y-110011863D01*
X87666000Y-110029510D01*
X87666000Y-115144189D01*
X87666004Y-115144282D01*
X87666004Y-115188137D01*
X87695362Y-115335740D01*
X87752952Y-115474780D01*
X87836562Y-115599913D01*
X87872328Y-115635679D01*
X87872330Y-115635683D01*
X87940121Y-115703474D01*
X87940127Y-115703479D01*
X109246888Y-137010240D01*
X109246905Y-137010260D01*
X109254150Y-137017505D01*
X109254156Y-137017516D01*
X109325866Y-137089224D01*
X109340085Y-137103443D01*
X109465218Y-137187053D01*
X109604259Y-137244643D01*
X109751863Y-137274001D01*
X109776029Y-137274000D01*
X109843067Y-137293682D01*
X109869745Y-137316799D01*
X109901948Y-137353965D01*
X109901950Y-137353966D01*
X109901951Y-137353967D01*
X110010931Y-137424004D01*
X110125658Y-137457690D01*
X110135225Y-137460499D01*
X110135227Y-137460500D01*
X110135228Y-137460500D01*
X110264773Y-137460500D01*
X110264773Y-137460499D01*
X110389069Y-137424004D01*
X110498049Y-137353967D01*
X110582882Y-137256063D01*
X110636697Y-137138226D01*
X110655133Y-137010000D01*
X110636697Y-136881774D01*
X110621962Y-136849511D01*
X110612019Y-136780354D01*
X110641043Y-136716798D01*
X110699821Y-136679023D01*
X110734757Y-136674000D01*
X111636343Y-136674000D01*
X111636346Y-136674001D01*
X111674772Y-136674000D01*
X111690955Y-136675060D01*
X111721053Y-136679023D01*
X111727791Y-136679910D01*
X111759055Y-136688287D01*
X111785814Y-136699370D01*
X111813848Y-136715554D01*
X111834906Y-136731712D01*
X111843301Y-136738153D01*
X111855497Y-136748849D01*
X112716891Y-137610243D01*
X112716894Y-137610247D01*
X112720556Y-137613909D01*
X112720564Y-137613924D01*
X112756875Y-137650234D01*
X112810084Y-137703442D01*
X112935217Y-137787052D01*
X112935220Y-137787053D01*
X112935223Y-137787055D01*
X113074241Y-137844636D01*
X113074258Y-137844643D01*
X113221863Y-137874001D01*
X113297111Y-137874000D01*
X113343661Y-137874000D01*
X116966339Y-137874000D01*
X117012889Y-137874000D01*
X117038895Y-137874000D01*
X117045495Y-137874000D01*
X117045582Y-137873995D01*
X117088137Y-137873996D01*
X117235740Y-137844638D01*
X117374779Y-137787048D01*
X117499912Y-137703440D01*
X117553120Y-137650232D01*
X117586037Y-137617317D01*
X117586037Y-137617316D01*
X117597943Y-137605411D01*
X117597952Y-137605398D01*
X117706534Y-137496816D01*
X117767855Y-137463334D01*
X117794213Y-137460500D01*
X117884773Y-137460500D01*
X117884773Y-137460499D01*
X118009069Y-137424004D01*
X118118049Y-137353967D01*
X118202882Y-137256063D01*
X118256697Y-137138226D01*
X118275133Y-137010000D01*
X118256697Y-136881774D01*
X118202882Y-136763937D01*
X118118049Y-136666033D01*
X118009069Y-136595996D01*
X118009065Y-136595994D01*
X118009064Y-136595994D01*
X117884774Y-136559500D01*
X117884772Y-136559500D01*
X117755228Y-136559500D01*
X117755226Y-136559500D01*
X117630935Y-136595994D01*
X117630932Y-136595995D01*
X117630931Y-136595996D01*
X117589517Y-136622611D01*
X117521950Y-136666033D01*
X117437118Y-136763937D01*
X117437117Y-136763938D01*
X117383302Y-136881774D01*
X117364867Y-137009999D01*
X117364867Y-137010000D01*
X117365393Y-137013661D01*
X117366314Y-137020066D01*
X117356367Y-137089224D01*
X117331257Y-137125389D01*
X117212688Y-137243960D01*
X117212687Y-137243960D01*
X117185518Y-137271129D01*
X117173320Y-137281826D01*
X117143847Y-137304440D01*
X117115815Y-137320624D01*
X117089057Y-137331707D01*
X117057789Y-137340084D01*
X117020915Y-137344938D01*
X117004732Y-137345999D01*
X116956358Y-137345999D01*
X116956346Y-137346000D01*
X115814757Y-137346000D01*
X115747718Y-137326315D01*
X115701963Y-137273511D01*
X115692019Y-137204353D01*
X115701963Y-137170488D01*
X115716697Y-137138225D01*
X115735133Y-137010000D01*
X115716697Y-136881774D01*
X115662882Y-136763937D01*
X115578049Y-136666033D01*
X115469069Y-136595996D01*
X115469065Y-136595994D01*
X115469064Y-136595994D01*
X115344774Y-136559500D01*
X115344772Y-136559500D01*
X115215228Y-136559500D01*
X115215226Y-136559500D01*
X115090935Y-136595994D01*
X115090932Y-136595995D01*
X115090931Y-136595996D01*
X115049517Y-136622611D01*
X114981948Y-136666034D01*
X114949745Y-136703201D01*
X114890968Y-136740977D01*
X114856031Y-136746000D01*
X114313654Y-136746000D01*
X114313642Y-136745999D01*
X114265226Y-136745999D01*
X114249045Y-136744939D01*
X114235081Y-136743101D01*
X114212207Y-136740089D01*
X114180940Y-136731712D01*
X114154181Y-136720628D01*
X114126150Y-136704444D01*
X114096705Y-136681851D01*
X114084508Y-136671155D01*
X112103353Y-134690000D01*
X120884867Y-134690000D01*
X120903302Y-134818225D01*
X120957117Y-134936061D01*
X120957120Y-134936067D01*
X121043213Y-135035424D01*
X121072238Y-135098980D01*
X121073500Y-135116626D01*
X121073500Y-148201689D01*
X121073504Y-148201782D01*
X121073504Y-148245637D01*
X121102862Y-148393240D01*
X121102864Y-148393244D01*
X121160450Y-148532276D01*
X121160456Y-148532286D01*
X121244057Y-148657409D01*
X121297265Y-148710617D01*
X121297267Y-148710620D01*
X121340384Y-148753739D01*
X121340397Y-148753749D01*
X123861256Y-151274608D01*
X123894741Y-151335931D01*
X123896314Y-151379928D01*
X123894867Y-151389996D01*
X123894867Y-151389999D01*
X123913302Y-151518225D01*
X123944442Y-151586410D01*
X123967118Y-151636063D01*
X124051951Y-151733967D01*
X124160931Y-151804004D01*
X124263268Y-151834052D01*
X124285225Y-151840499D01*
X124285227Y-151840500D01*
X124285228Y-151840500D01*
X124414773Y-151840500D01*
X124414773Y-151840499D01*
X124539069Y-151804004D01*
X124648049Y-151733967D01*
X124732882Y-151636063D01*
X124786697Y-151518226D01*
X124805133Y-151390000D01*
X124786697Y-151261774D01*
X124732882Y-151143937D01*
X124648049Y-151046033D01*
X124539069Y-150975996D01*
X124539065Y-150975994D01*
X124539064Y-150975994D01*
X124414774Y-150939500D01*
X124414772Y-150939500D01*
X124324214Y-150939500D01*
X124257175Y-150919815D01*
X124236533Y-150903181D01*
X121676370Y-148343018D01*
X121665673Y-148330820D01*
X121646654Y-148306033D01*
X121643059Y-148301347D01*
X121626875Y-148273315D01*
X121615792Y-148246557D01*
X121607415Y-148215289D01*
X121602561Y-148178415D01*
X121601500Y-148162229D01*
X121601501Y-148123846D01*
X121601500Y-148123843D01*
X121601500Y-135122265D01*
X121621185Y-135055226D01*
X121633133Y-135041443D01*
X121632241Y-135040670D01*
X121722879Y-134936067D01*
X121722879Y-134936065D01*
X121722882Y-134936063D01*
X121776697Y-134818226D01*
X121795133Y-134690000D01*
X121776697Y-134561774D01*
X121722882Y-134443937D01*
X121638049Y-134346033D01*
X121529069Y-134275996D01*
X121529065Y-134275994D01*
X121529064Y-134275994D01*
X121404774Y-134239500D01*
X121404772Y-134239500D01*
X121275228Y-134239500D01*
X121275226Y-134239500D01*
X121150935Y-134275994D01*
X121150932Y-134275995D01*
X121150931Y-134275996D01*
X121099677Y-134308934D01*
X121041950Y-134346033D01*
X120957118Y-134443937D01*
X120957117Y-134443938D01*
X120903302Y-134561774D01*
X120884867Y-134690000D01*
X112103353Y-134690000D01*
X107525534Y-130112181D01*
X107492049Y-130050858D01*
X107497033Y-129981166D01*
X107538905Y-129925233D01*
X107604369Y-129900816D01*
X107613215Y-129900500D01*
X115881960Y-129900500D01*
X115881961Y-129900500D01*
X115908153Y-129892809D01*
X115925436Y-129889050D01*
X115929882Y-129888410D01*
X115952457Y-129885165D01*
X115977287Y-129873824D01*
X115993862Y-129867642D01*
X116020053Y-129859953D01*
X116043020Y-129845192D01*
X116058540Y-129836717D01*
X116083373Y-129825377D01*
X116104006Y-129807497D01*
X116118148Y-129796910D01*
X116141128Y-129782143D01*
X116159015Y-129761499D01*
X116171499Y-129749015D01*
X116192143Y-129731128D01*
X116206910Y-129708148D01*
X116217497Y-129694006D01*
X116235377Y-129673373D01*
X116246717Y-129648540D01*
X116255192Y-129633020D01*
X116269953Y-129610053D01*
X116277642Y-129583862D01*
X116283824Y-129567287D01*
X116295165Y-129542457D01*
X116299050Y-129515436D01*
X116302809Y-129498153D01*
X116310500Y-129471961D01*
X116310500Y-129328039D01*
X116310500Y-116014201D01*
X116310500Y-115978039D01*
X116302808Y-115951842D01*
X116299050Y-115934564D01*
X116295165Y-115907546D01*
X116295165Y-115907544D01*
X116295165Y-115907543D01*
X116295163Y-115907538D01*
X116283826Y-115882713D01*
X116277643Y-115866136D01*
X116269953Y-115839948D01*
X116269953Y-115839946D01*
X116255192Y-115816978D01*
X116246714Y-115801451D01*
X116246005Y-115799899D01*
X116235377Y-115776627D01*
X116217500Y-115755996D01*
X116206903Y-115741840D01*
X116192143Y-115718872D01*
X116192142Y-115718871D01*
X116171510Y-115700992D01*
X116159006Y-115688488D01*
X116141128Y-115667857D01*
X116141123Y-115667853D01*
X116118160Y-115653095D01*
X116104000Y-115642496D01*
X116096131Y-115635678D01*
X116083373Y-115624623D01*
X116058541Y-115613282D01*
X116043019Y-115604806D01*
X116043017Y-115604805D01*
X116020053Y-115590047D01*
X116020051Y-115590046D01*
X115993858Y-115582355D01*
X115977288Y-115576174D01*
X115952457Y-115564835D01*
X115925423Y-115560947D01*
X115908154Y-115557190D01*
X115881963Y-115549500D01*
X115881961Y-115549500D01*
X115845799Y-115549500D01*
X107411961Y-115549500D01*
X107268039Y-115549500D01*
X107257899Y-115552477D01*
X107222965Y-115557500D01*
X107202795Y-115557500D01*
X107182025Y-115571921D01*
X107172720Y-115576171D01*
X107156142Y-115582355D01*
X107129945Y-115590047D01*
X107106982Y-115604805D01*
X107091461Y-115613280D01*
X107066628Y-115624621D01*
X107066625Y-115624623D01*
X107046000Y-115642495D01*
X107031840Y-115653095D01*
X107008876Y-115667853D01*
X107008871Y-115667857D01*
X106990993Y-115688489D01*
X106978489Y-115700993D01*
X106957857Y-115718871D01*
X106957853Y-115718876D01*
X106943095Y-115741840D01*
X106932495Y-115756000D01*
X106914623Y-115776625D01*
X106914621Y-115776628D01*
X106903280Y-115801461D01*
X106894805Y-115816982D01*
X106880048Y-115839945D01*
X106872355Y-115866141D01*
X106866175Y-115882710D01*
X106854835Y-115907541D01*
X106854834Y-115907544D01*
X106850948Y-115934568D01*
X106847190Y-115951842D01*
X106839501Y-115978034D01*
X106839500Y-115978042D01*
X106839500Y-129126785D01*
X106819815Y-129193824D01*
X106767011Y-129239579D01*
X106697853Y-129249523D01*
X106634297Y-129220498D01*
X106627819Y-129214466D01*
X93898874Y-116485522D01*
X93888176Y-116473324D01*
X93865557Y-116443844D01*
X93849375Y-116415813D01*
X93838293Y-116389058D01*
X93829915Y-116357789D01*
X93825061Y-116320915D01*
X93824000Y-116304729D01*
X93824001Y-116266346D01*
X93824000Y-116266343D01*
X93824000Y-108211105D01*
X93824000Y-108204777D01*
X93823995Y-108204681D01*
X93823995Y-108196033D01*
X93823996Y-108161863D01*
X93794638Y-108014260D01*
X93737048Y-107875220D01*
X93653438Y-107750087D01*
X93617670Y-107714319D01*
X93617669Y-107714316D01*
X93560250Y-107656897D01*
X93560243Y-107656891D01*
X91148870Y-105245518D01*
X91138173Y-105233320D01*
X91115559Y-105203847D01*
X91099374Y-105175813D01*
X91094541Y-105164144D01*
X91087075Y-105094674D01*
X91115389Y-105035495D01*
X91192882Y-104946063D01*
X91246697Y-104828226D01*
X91265133Y-104700000D01*
X91246697Y-104571774D01*
X91192882Y-104453937D01*
X91108049Y-104356033D01*
X90999069Y-104285996D01*
X90999065Y-104285994D01*
X90999064Y-104285994D01*
X90874774Y-104249500D01*
X90874772Y-104249500D01*
X90745228Y-104249500D01*
X90745226Y-104249500D01*
X90620935Y-104285994D01*
X90620932Y-104285995D01*
X90620931Y-104285996D01*
X90569677Y-104318934D01*
X90511950Y-104356033D01*
X90427118Y-104453937D01*
X90427117Y-104453938D01*
X90373302Y-104571774D01*
X90354867Y-104700000D01*
X90373302Y-104828225D01*
X90410420Y-104909500D01*
X90427118Y-104946063D01*
X90511951Y-105043967D01*
X90511953Y-105043968D01*
X90515717Y-105048312D01*
X90544742Y-105111868D01*
X90546004Y-105129510D01*
X90546004Y-105148137D01*
X90575362Y-105295740D01*
X90575364Y-105295744D01*
X90632950Y-105434776D01*
X90632956Y-105434786D01*
X90716557Y-105559909D01*
X90769765Y-105613117D01*
X90769767Y-105613120D01*
X90812884Y-105656239D01*
X90812897Y-105656249D01*
X93034467Y-107877819D01*
X93067952Y-107939142D01*
X93062968Y-108008834D01*
X93021096Y-108064767D01*
X92955632Y-108089184D01*
X92946786Y-108089500D01*
X92945226Y-108089500D01*
X92820935Y-108125994D01*
X92820932Y-108125995D01*
X92820931Y-108125996D01*
X92769677Y-108158934D01*
X92711950Y-108196033D01*
X92627118Y-108293937D01*
X92627117Y-108293938D01*
X92573302Y-108411774D01*
X92554867Y-108540000D01*
X92573302Y-108668225D01*
X92627117Y-108786061D01*
X92627118Y-108786063D01*
X92711951Y-108883967D01*
X92711954Y-108883968D01*
X92715713Y-108888307D01*
X92744738Y-108951863D01*
X92746000Y-108969510D01*
X92746000Y-117644189D01*
X92746004Y-117644282D01*
X92746004Y-117688137D01*
X92775362Y-117835740D01*
X92775364Y-117835744D01*
X92832950Y-117974776D01*
X92832956Y-117974786D01*
X92916557Y-118099909D01*
X92969765Y-118153117D01*
X92969767Y-118153120D01*
X93012884Y-118196239D01*
X93012896Y-118196248D01*
X106430557Y-131613910D01*
X106430565Y-131613925D01*
X106466875Y-131650234D01*
X106520084Y-131703442D01*
X106645217Y-131787052D01*
X106645220Y-131787053D01*
X106645223Y-131787055D01*
X106784248Y-131844639D01*
X106784258Y-131844643D01*
X106866974Y-131861094D01*
X106928885Y-131893478D01*
X106936498Y-131901511D01*
X106981948Y-131953965D01*
X106981950Y-131953966D01*
X106981951Y-131953967D01*
X107090931Y-132024004D01*
X107215225Y-132060499D01*
X107215227Y-132060500D01*
X107215228Y-132060500D01*
X107344773Y-132060500D01*
X107344773Y-132060499D01*
X107469069Y-132024004D01*
X107578049Y-131953967D01*
X107662882Y-131856063D01*
X107716697Y-131738226D01*
X107735133Y-131610000D01*
X107716697Y-131481774D01*
X107662882Y-131363937D01*
X107578049Y-131266033D01*
X107469069Y-131195996D01*
X107469065Y-131195994D01*
X107469064Y-131195994D01*
X107344774Y-131159500D01*
X107344772Y-131159500D01*
X107215228Y-131159500D01*
X107215226Y-131159500D01*
X107090935Y-131195994D01*
X107090932Y-131195995D01*
X107090931Y-131195996D01*
X106998769Y-131255225D01*
X106974490Y-131270828D01*
X106972682Y-131268014D01*
X106923855Y-131290289D01*
X106854700Y-131280317D01*
X106818578Y-131255225D01*
X93348874Y-117785522D01*
X93338176Y-117773324D01*
X93315557Y-117743844D01*
X93299375Y-117715813D01*
X93288293Y-117689058D01*
X93279915Y-117657789D01*
X93275061Y-117620915D01*
X93274000Y-117604729D01*
X93274001Y-117566346D01*
X93274000Y-117566343D01*
X93274000Y-116906714D01*
X93293685Y-116839675D01*
X93346489Y-116793920D01*
X93415647Y-116783976D01*
X93479203Y-116813001D01*
X93485681Y-116819033D01*
X93519765Y-116853117D01*
X93519767Y-116853120D01*
X93562884Y-116896239D01*
X93562896Y-116896248D01*
X113680557Y-137013910D01*
X113680565Y-137013925D01*
X113716875Y-137050234D01*
X113770084Y-137103442D01*
X113793216Y-137118898D01*
X113838021Y-137172510D01*
X113846728Y-137241835D01*
X113816574Y-137304863D01*
X113757131Y-137341582D01*
X113724325Y-137346000D01*
X113353654Y-137346000D01*
X113353642Y-137345999D01*
X113305226Y-137345999D01*
X113289045Y-137344939D01*
X113278723Y-137343580D01*
X113252207Y-137340089D01*
X113220942Y-137331713D01*
X113194182Y-137320629D01*
X113166151Y-137304445D01*
X113136702Y-137281849D01*
X113124510Y-137271157D01*
X113097313Y-137243960D01*
X113097309Y-137243957D01*
X112266249Y-136412897D01*
X112266239Y-136412884D01*
X112255849Y-136402494D01*
X112255842Y-136402482D01*
X112169918Y-136316560D01*
X112169916Y-136316558D01*
X112169915Y-136316557D01*
X112044782Y-136232947D01*
X111905741Y-136175357D01*
X111758137Y-136145999D01*
X111758135Y-136145999D01*
X111682889Y-136146000D01*
X110593654Y-136146000D01*
X110593642Y-136145999D01*
X110545226Y-136145999D01*
X110529045Y-136144939D01*
X110518723Y-136143580D01*
X110492207Y-136140089D01*
X110460942Y-136131713D01*
X110434182Y-136120629D01*
X110406151Y-136104445D01*
X110376702Y-136081849D01*
X110364510Y-136071157D01*
X110337314Y-136043961D01*
X110337309Y-136043957D01*
X88948870Y-114655518D01*
X88938173Y-114643320D01*
X88915559Y-114613847D01*
X88899375Y-114585815D01*
X88888292Y-114559057D01*
X88879915Y-114527789D01*
X88875061Y-114490915D01*
X88874000Y-114474729D01*
X88874001Y-114436346D01*
X88874000Y-114436343D01*
X88874000Y-105129510D01*
X88893685Y-105062471D01*
X88904287Y-105048307D01*
X88908045Y-105043969D01*
X88908049Y-105043967D01*
X88992882Y-104946063D01*
X89046697Y-104828226D01*
X89065133Y-104700000D01*
X89046697Y-104571774D01*
X88992882Y-104453937D01*
X88908049Y-104356033D01*
X88799069Y-104285996D01*
X88799065Y-104285994D01*
X88799064Y-104285994D01*
X88674774Y-104249500D01*
X88674772Y-104249500D01*
X88545228Y-104249500D01*
X88545226Y-104249500D01*
X88420935Y-104285994D01*
X88420932Y-104285995D01*
X88420931Y-104285996D01*
X88369677Y-104318934D01*
X88311950Y-104356033D01*
X88227118Y-104453937D01*
X88227117Y-104453938D01*
X88173302Y-104571774D01*
X88154867Y-104700000D01*
X88173302Y-104828225D01*
X88210420Y-104909500D01*
X88227118Y-104946063D01*
X88311951Y-105043967D01*
X88311954Y-105043968D01*
X88315713Y-105048307D01*
X88344738Y-105111863D01*
X88346000Y-105129510D01*
X88346000Y-109104746D01*
X88326315Y-109171785D01*
X88273511Y-109217540D01*
X88204353Y-109227484D01*
X88154963Y-109209063D01*
X88136423Y-109197149D01*
X88119069Y-109185996D01*
X88119067Y-109185995D01*
X88119065Y-109185994D01*
X88119066Y-109185994D01*
X87994774Y-109149500D01*
X87994772Y-109149500D01*
X87865228Y-109149500D01*
X87865226Y-109149500D01*
X87740935Y-109185994D01*
X87740932Y-109185995D01*
X87740931Y-109185996D01*
X87705038Y-109209063D01*
X87631950Y-109256033D01*
X87547118Y-109353937D01*
X87547117Y-109353938D01*
X87493302Y-109471774D01*
X87474867Y-109600000D01*
X51800500Y-109600000D01*
X51800500Y-92493933D01*
X84855668Y-92493933D01*
X84881866Y-92642500D01*
X84886135Y-92666711D01*
X84955623Y-92827804D01*
X84955624Y-92827806D01*
X84955626Y-92827809D01*
X85040378Y-92941649D01*
X85060390Y-92968530D01*
X85194786Y-93081302D01*
X85227796Y-93097880D01*
X85351562Y-93160038D01*
X85351563Y-93160038D01*
X85351567Y-93160040D01*
X85522279Y-93200500D01*
X85522282Y-93200500D01*
X85653701Y-93200500D01*
X85653709Y-93200500D01*
X85784255Y-93185241D01*
X85949117Y-93125237D01*
X86095696Y-93028830D01*
X86216092Y-92901218D01*
X86303812Y-92749281D01*
X86354130Y-92581210D01*
X86359213Y-92493933D01*
X92855668Y-92493933D01*
X92881866Y-92642500D01*
X92886135Y-92666711D01*
X92955623Y-92827804D01*
X92955624Y-92827806D01*
X92955626Y-92827809D01*
X93040378Y-92941649D01*
X93060390Y-92968530D01*
X93194786Y-93081302D01*
X93227796Y-93097880D01*
X93351562Y-93160038D01*
X93351563Y-93160038D01*
X93351567Y-93160040D01*
X93522279Y-93200500D01*
X93522282Y-93200500D01*
X93653701Y-93200500D01*
X93653709Y-93200500D01*
X93784255Y-93185241D01*
X93949117Y-93125237D01*
X94095696Y-93028830D01*
X94216092Y-92901218D01*
X94303812Y-92749281D01*
X94354130Y-92581210D01*
X94364331Y-92406065D01*
X94333865Y-92233289D01*
X94264377Y-92072196D01*
X94261421Y-92068226D01*
X94165960Y-91940000D01*
X101140867Y-91940000D01*
X101159302Y-92068225D01*
X101194071Y-92144357D01*
X101213118Y-92186063D01*
X101297951Y-92283967D01*
X101406931Y-92354004D01*
X101523630Y-92388269D01*
X101531225Y-92390499D01*
X101531227Y-92390500D01*
X101621786Y-92390500D01*
X101688825Y-92410185D01*
X101709467Y-92426819D01*
X122243957Y-112961309D01*
X122243958Y-112961311D01*
X122271129Y-112988482D01*
X122281817Y-113000669D01*
X122304441Y-113030153D01*
X122320625Y-113058187D01*
X122331707Y-113084943D01*
X122340084Y-113116210D01*
X122344938Y-113153084D01*
X122345999Y-113169267D01*
X122345999Y-113222085D01*
X122346000Y-113222094D01*
X122346000Y-134214189D01*
X122346004Y-134214282D01*
X122346004Y-134258137D01*
X122375362Y-134405740D01*
X122375364Y-134405744D01*
X122432950Y-134544776D01*
X122432956Y-134544786D01*
X122516557Y-134669909D01*
X122569765Y-134723117D01*
X122569767Y-134723120D01*
X122612884Y-134766239D01*
X122612897Y-134766249D01*
X129063957Y-141217309D01*
X129063958Y-141217311D01*
X129091129Y-141244482D01*
X129101817Y-141256669D01*
X129124441Y-141286153D01*
X129140625Y-141314187D01*
X129151707Y-141340943D01*
X129160084Y-141372210D01*
X129164938Y-141409084D01*
X129165999Y-141425267D01*
X129165999Y-141478085D01*
X129166000Y-141478094D01*
X129166000Y-143260488D01*
X129146315Y-143327527D01*
X129135714Y-143341690D01*
X129047118Y-143443937D01*
X129047117Y-143443938D01*
X128993302Y-143561774D01*
X128974867Y-143690000D01*
X128993302Y-143818225D01*
X129047117Y-143936061D01*
X129047118Y-143936063D01*
X129131951Y-144033967D01*
X129240931Y-144104004D01*
X129365225Y-144140499D01*
X129365227Y-144140500D01*
X129365228Y-144140500D01*
X129494773Y-144140500D01*
X129494773Y-144140499D01*
X129556328Y-144122426D01*
X129619057Y-144104008D01*
X129619059Y-144104006D01*
X129619069Y-144104004D01*
X129619076Y-144103998D01*
X129620474Y-144103361D01*
X129622017Y-144103138D01*
X129627579Y-144101506D01*
X129627813Y-144102304D01*
X129689632Y-144093409D01*
X129753191Y-144122426D01*
X129790973Y-144181199D01*
X129796000Y-144216149D01*
X129796000Y-147834189D01*
X129796004Y-147834282D01*
X129796004Y-147878137D01*
X129825362Y-148025740D01*
X129825364Y-148025744D01*
X129882950Y-148164776D01*
X129882956Y-148164786D01*
X129966557Y-148289909D01*
X130019765Y-148343117D01*
X130019767Y-148343120D01*
X130062884Y-148386239D01*
X130062897Y-148386249D01*
X130211256Y-148534608D01*
X130244741Y-148595931D01*
X130246314Y-148639928D01*
X130244867Y-148649996D01*
X130244867Y-148649999D01*
X130263302Y-148778225D01*
X130311912Y-148884663D01*
X130317118Y-148896063D01*
X130401951Y-148993967D01*
X130510931Y-149064004D01*
X130635225Y-149100499D01*
X130635227Y-149100500D01*
X130635228Y-149100500D01*
X130764773Y-149100500D01*
X130764773Y-149100499D01*
X130889069Y-149064004D01*
X130998049Y-148993967D01*
X131082882Y-148896063D01*
X131136697Y-148778226D01*
X131155133Y-148650000D01*
X131136697Y-148521774D01*
X131082882Y-148403937D01*
X130998049Y-148306033D01*
X130889069Y-148235996D01*
X130889065Y-148235994D01*
X130889064Y-148235994D01*
X130764774Y-148199500D01*
X130764772Y-148199500D01*
X130674215Y-148199500D01*
X130607176Y-148179815D01*
X130586534Y-148163181D01*
X130398874Y-147975522D01*
X130388176Y-147963324D01*
X130365557Y-147933844D01*
X130349375Y-147905813D01*
X130338293Y-147879058D01*
X130329915Y-147847789D01*
X130325061Y-147810915D01*
X130324000Y-147794729D01*
X130324001Y-147756346D01*
X130324000Y-147756343D01*
X130324000Y-142140000D01*
X133334867Y-142140000D01*
X133353302Y-142268225D01*
X133356882Y-142276063D01*
X133407118Y-142386063D01*
X133491951Y-142483967D01*
X133600931Y-142554004D01*
X133725225Y-142590499D01*
X133725227Y-142590500D01*
X133725228Y-142590500D01*
X133854773Y-142590500D01*
X133854773Y-142590499D01*
X133979069Y-142554004D01*
X134088049Y-142483967D01*
X134172882Y-142386063D01*
X134226697Y-142268226D01*
X134245133Y-142140000D01*
X134243686Y-142129939D01*
X134253626Y-142060784D01*
X134274998Y-142030000D01*
X140444867Y-142030000D01*
X140463302Y-142158225D01*
X140496081Y-142230000D01*
X140517118Y-142276063D01*
X140601951Y-142373967D01*
X140710931Y-142444004D01*
X140835225Y-142480499D01*
X140835227Y-142480500D01*
X140835228Y-142480500D01*
X140964773Y-142480500D01*
X140964773Y-142480499D01*
X141089069Y-142444004D01*
X141198049Y-142373967D01*
X141282882Y-142276063D01*
X141336697Y-142158226D01*
X141355133Y-142030000D01*
X141336697Y-141901774D01*
X141282882Y-141783937D01*
X141201053Y-141689500D01*
X141194286Y-141681690D01*
X141165262Y-141618134D01*
X141164000Y-141600488D01*
X141164000Y-140023656D01*
X141164001Y-140023654D01*
X141164000Y-139985225D01*
X141165059Y-139969056D01*
X141169911Y-139932200D01*
X141178287Y-139900941D01*
X141189372Y-139874179D01*
X141205550Y-139846155D01*
X141228149Y-139816702D01*
X141238836Y-139804517D01*
X141266038Y-139777314D01*
X141266037Y-139777314D01*
X141266041Y-139777311D01*
X141355394Y-139687956D01*
X141355403Y-139687950D01*
X141367315Y-139676037D01*
X141367317Y-139676037D01*
X141367503Y-139675850D01*
X141367516Y-139675843D01*
X141400235Y-139643122D01*
X141400236Y-139643123D01*
X141453443Y-139589915D01*
X141537053Y-139464782D01*
X141594643Y-139325741D01*
X141624001Y-139178137D01*
X141624000Y-139178130D01*
X141624039Y-139177939D01*
X141653447Y-139121715D01*
X141652241Y-139120670D01*
X141742879Y-139016067D01*
X141742879Y-139016065D01*
X141742882Y-139016063D01*
X141796697Y-138898226D01*
X141815133Y-138770000D01*
X141796697Y-138641774D01*
X141742882Y-138523937D01*
X141658049Y-138426033D01*
X141549069Y-138355996D01*
X141549065Y-138355994D01*
X141549064Y-138355994D01*
X141424774Y-138319500D01*
X141424772Y-138319500D01*
X141295228Y-138319500D01*
X141295226Y-138319500D01*
X141170935Y-138355994D01*
X141170932Y-138355995D01*
X141170931Y-138355996D01*
X141119677Y-138388934D01*
X141061950Y-138426033D01*
X140977118Y-138523937D01*
X140977117Y-138523938D01*
X140923302Y-138641774D01*
X140904867Y-138770000D01*
X140923302Y-138898225D01*
X140977117Y-139016061D01*
X140977118Y-139016063D01*
X141028864Y-139075782D01*
X141040519Y-139089233D01*
X141069543Y-139152789D01*
X141059599Y-139221948D01*
X141045179Y-139245924D01*
X141031839Y-139263308D01*
X141021147Y-139275500D01*
X140896090Y-139400557D01*
X140896074Y-139400565D01*
X140806561Y-139490080D01*
X140806559Y-139490082D01*
X140722950Y-139615213D01*
X140722944Y-139615223D01*
X140665360Y-139754248D01*
X140665357Y-139754258D01*
X140636183Y-139900941D01*
X140635999Y-139901864D01*
X140636000Y-139951106D01*
X140636000Y-141600488D01*
X140616315Y-141667527D01*
X140605714Y-141681690D01*
X140517118Y-141783937D01*
X140517117Y-141783938D01*
X140463302Y-141901774D01*
X140444867Y-142030000D01*
X134274998Y-142030000D01*
X134278739Y-142024611D01*
X147877376Y-128425975D01*
X147877386Y-128425969D01*
X147895000Y-128408354D01*
X147895013Y-128408346D01*
X147927735Y-128375622D01*
X147927736Y-128375623D01*
X147980943Y-128322415D01*
X148064553Y-128197282D01*
X148122143Y-128058241D01*
X148151501Y-127910637D01*
X148151500Y-127835389D01*
X148151500Y-127788839D01*
X148151500Y-95118605D01*
X148151500Y-95112277D01*
X148151495Y-95112181D01*
X148151495Y-95098430D01*
X148151496Y-95069363D01*
X148122138Y-94921760D01*
X148064548Y-94782720D01*
X147980938Y-94657587D01*
X147953184Y-94629833D01*
X147953175Y-94629822D01*
X147123360Y-93800007D01*
X151860280Y-93800007D01*
X151879140Y-94087757D01*
X151879144Y-94087784D01*
X151935402Y-94370615D01*
X151935407Y-94370635D01*
X152028100Y-94643702D01*
X152028104Y-94643712D01*
X152155653Y-94902356D01*
X152315876Y-95142146D01*
X152315881Y-95142152D01*
X152340835Y-95170608D01*
X152340838Y-95170608D01*
X152767266Y-94744180D01*
X152930130Y-94934870D01*
X153120818Y-95097732D01*
X152694390Y-95524160D01*
X152694390Y-95524161D01*
X152722854Y-95549124D01*
X152962643Y-95709346D01*
X153221287Y-95836895D01*
X153221297Y-95836899D01*
X153494364Y-95929592D01*
X153494384Y-95929597D01*
X153777215Y-95985855D01*
X153777242Y-95985859D01*
X154064993Y-96004720D01*
X154065007Y-96004720D01*
X154352757Y-95985859D01*
X154352784Y-95985855D01*
X154635615Y-95929597D01*
X154635635Y-95929592D01*
X154908702Y-95836899D01*
X154908712Y-95836895D01*
X155167356Y-95709346D01*
X155407141Y-95549126D01*
X155407147Y-95549121D01*
X155435608Y-95524162D01*
X155435608Y-95524161D01*
X155009180Y-95097733D01*
X155199870Y-94934870D01*
X155362733Y-94744180D01*
X155789161Y-95170608D01*
X155789162Y-95170608D01*
X155814121Y-95142147D01*
X155814126Y-95142141D01*
X155974346Y-94902356D01*
X156101895Y-94643712D01*
X156101899Y-94643702D01*
X156194592Y-94370635D01*
X156194597Y-94370615D01*
X156250855Y-94087784D01*
X156250859Y-94087757D01*
X156269720Y-93800007D01*
X156269720Y-93799992D01*
X156250859Y-93512242D01*
X156250855Y-93512215D01*
X156194597Y-93229384D01*
X156194592Y-93229364D01*
X156101899Y-92956297D01*
X156101895Y-92956287D01*
X155974346Y-92697643D01*
X155814124Y-92457854D01*
X155789161Y-92429390D01*
X155789160Y-92429390D01*
X155362732Y-92855818D01*
X155199870Y-92665130D01*
X155009180Y-92502266D01*
X155435608Y-92075838D01*
X155435608Y-92075835D01*
X155407152Y-92050881D01*
X155407146Y-92050876D01*
X155167356Y-91890653D01*
X154908712Y-91763104D01*
X154908702Y-91763100D01*
X154635635Y-91670407D01*
X154635615Y-91670402D01*
X154352784Y-91614144D01*
X154352757Y-91614140D01*
X154065007Y-91595280D01*
X154064993Y-91595280D01*
X153777242Y-91614140D01*
X153777215Y-91614144D01*
X153494384Y-91670402D01*
X153494364Y-91670407D01*
X153221297Y-91763100D01*
X153221287Y-91763104D01*
X152962643Y-91890653D01*
X152722851Y-92050878D01*
X152694390Y-92075837D01*
X153120819Y-92502266D01*
X152930130Y-92665130D01*
X152767266Y-92855819D01*
X152340837Y-92429390D01*
X152315878Y-92457851D01*
X152155653Y-92697643D01*
X152028104Y-92956287D01*
X152028100Y-92956297D01*
X151935407Y-93229364D01*
X151935402Y-93229384D01*
X151879144Y-93512215D01*
X151879140Y-93512242D01*
X151860280Y-93799992D01*
X151860280Y-93800007D01*
X147123360Y-93800007D01*
X146421233Y-93097880D01*
X146387748Y-93036557D01*
X146392732Y-92966865D01*
X146434604Y-92910932D01*
X146496760Y-92886796D01*
X146606132Y-92876024D01*
X146794727Y-92818814D01*
X146968538Y-92725910D01*
X147120883Y-92600883D01*
X147245910Y-92448538D01*
X147338814Y-92274727D01*
X147396024Y-92086132D01*
X147415341Y-91890000D01*
X147396024Y-91693868D01*
X147338814Y-91505273D01*
X147338811Y-91505269D01*
X147338811Y-91505266D01*
X147245913Y-91331467D01*
X147245909Y-91331460D01*
X147120883Y-91179116D01*
X146968539Y-91054090D01*
X146968532Y-91054086D01*
X146794733Y-90961188D01*
X146794727Y-90961186D01*
X146606132Y-90903976D01*
X146606129Y-90903975D01*
X146410000Y-90884659D01*
X146213870Y-90903975D01*
X146025266Y-90961188D01*
X145851467Y-91054086D01*
X145851460Y-91054090D01*
X145699116Y-91179116D01*
X145574090Y-91331460D01*
X145574086Y-91331467D01*
X145481188Y-91505266D01*
X145423975Y-91693870D01*
X145413204Y-91803234D01*
X145387043Y-91868021D01*
X145330008Y-91908379D01*
X145260208Y-91911496D01*
X145202121Y-91878761D01*
X145147098Y-91823739D01*
X145113612Y-91762416D01*
X145111376Y-91748217D01*
X145106024Y-91693868D01*
X145048814Y-91505273D01*
X145048811Y-91505269D01*
X145048811Y-91505266D01*
X144955913Y-91331467D01*
X144955909Y-91331460D01*
X144830883Y-91179116D01*
X144678539Y-91054090D01*
X144678532Y-91054086D01*
X144504733Y-90961188D01*
X144504727Y-90961186D01*
X144316132Y-90903976D01*
X144316129Y-90903975D01*
X144120000Y-90884659D01*
X143923870Y-90903975D01*
X143735266Y-90961188D01*
X143561467Y-91054086D01*
X143561460Y-91054090D01*
X143409116Y-91179116D01*
X143284090Y-91331460D01*
X143284086Y-91331467D01*
X143191188Y-91505266D01*
X143133975Y-91693870D01*
X143114659Y-91890000D01*
X143133975Y-92086129D01*
X143133976Y-92086132D01*
X143190845Y-92273604D01*
X143191188Y-92274733D01*
X143284086Y-92448532D01*
X143284090Y-92448539D01*
X143409116Y-92600883D01*
X143561460Y-92725909D01*
X143561467Y-92725913D01*
X143735266Y-92818811D01*
X143735269Y-92818811D01*
X143735273Y-92818814D01*
X143923868Y-92876024D01*
X144120000Y-92895341D01*
X144316132Y-92876024D01*
X144504727Y-92818814D01*
X144678538Y-92725910D01*
X144830883Y-92600883D01*
X144900344Y-92516244D01*
X144958088Y-92476911D01*
X145027932Y-92475040D01*
X145083875Y-92507227D01*
X145177531Y-92600883D01*
X145240570Y-92663922D01*
X145274054Y-92725245D01*
X145269070Y-92794937D01*
X145227198Y-92850870D01*
X145165042Y-92875006D01*
X145068967Y-92884468D01*
X144880466Y-92941649D01*
X144756476Y-93007923D01*
X145132466Y-93383913D01*
X145122685Y-93385320D01*
X144991900Y-93445048D01*
X144883239Y-93539202D01*
X144805507Y-93660156D01*
X144781923Y-93740475D01*
X144402923Y-93361476D01*
X144336649Y-93485466D01*
X144279468Y-93673967D01*
X144260161Y-93870000D01*
X144279468Y-94066032D01*
X144336651Y-94254537D01*
X144402923Y-94378522D01*
X144781922Y-93999523D01*
X144805507Y-94079844D01*
X144883239Y-94200798D01*
X144991900Y-94294952D01*
X145122685Y-94354680D01*
X145132466Y-94356086D01*
X144756476Y-94732075D01*
X144880462Y-94798348D01*
X145068969Y-94855531D01*
X145068965Y-94855531D01*
X145265000Y-94874838D01*
X145461032Y-94855531D01*
X145649537Y-94798348D01*
X145773523Y-94732076D01*
X145773523Y-94732075D01*
X145397534Y-94356086D01*
X145407315Y-94354680D01*
X145538100Y-94294952D01*
X145646761Y-94200798D01*
X145724493Y-94079844D01*
X145748076Y-93999523D01*
X146127076Y-94378523D01*
X146193348Y-94254537D01*
X146250531Y-94066032D01*
X146259993Y-93969958D01*
X146286153Y-93905171D01*
X146343187Y-93864811D01*
X146412987Y-93861694D01*
X146471077Y-93894430D01*
X147548626Y-94971979D01*
X147559320Y-94984173D01*
X147574291Y-95003684D01*
X147581940Y-95013652D01*
X147598125Y-95041687D01*
X147609207Y-95068443D01*
X147617584Y-95099710D01*
X147622438Y-95136584D01*
X147623499Y-95152767D01*
X147623499Y-95205585D01*
X147623500Y-95205594D01*
X147623500Y-95569538D01*
X147603815Y-95636577D01*
X147551011Y-95682332D01*
X147481853Y-95692276D01*
X147418297Y-95663251D01*
X147380839Y-95605534D01*
X147338348Y-95465461D01*
X147272075Y-95341476D01*
X146893076Y-95720475D01*
X146869493Y-95640156D01*
X146791761Y-95519202D01*
X146683100Y-95425048D01*
X146552315Y-95365320D01*
X146542533Y-95363913D01*
X146918522Y-94987923D01*
X146794537Y-94921651D01*
X146606030Y-94864468D01*
X146606034Y-94864468D01*
X146410000Y-94845161D01*
X146213967Y-94864468D01*
X146025466Y-94921649D01*
X145901476Y-94987923D01*
X146277466Y-95363913D01*
X146267685Y-95365320D01*
X146136900Y-95425048D01*
X146028239Y-95519202D01*
X145950507Y-95640156D01*
X145926923Y-95720476D01*
X145547923Y-95341476D01*
X145481649Y-95465466D01*
X145424468Y-95653967D01*
X145405161Y-95850000D01*
X145424468Y-96046032D01*
X145481651Y-96234537D01*
X145547923Y-96358522D01*
X145926922Y-95979523D01*
X145950507Y-96059844D01*
X146028239Y-96180798D01*
X146136900Y-96274952D01*
X146267685Y-96334680D01*
X146277466Y-96336086D01*
X145901476Y-96712075D01*
X146025462Y-96778348D01*
X146213969Y-96835531D01*
X146213965Y-96835531D01*
X146410000Y-96854838D01*
X146606032Y-96835531D01*
X146794537Y-96778348D01*
X146918523Y-96712076D01*
X146918523Y-96712075D01*
X146542534Y-96336086D01*
X146552315Y-96334680D01*
X146683100Y-96274952D01*
X146791761Y-96180798D01*
X146869493Y-96059844D01*
X146893076Y-95979523D01*
X147272076Y-96358523D01*
X147338348Y-96234537D01*
X147380839Y-96094466D01*
X147419137Y-96036027D01*
X147482949Y-96007571D01*
X147552016Y-96018131D01*
X147604410Y-96064355D01*
X147623500Y-96130461D01*
X147623500Y-127778845D01*
X147623499Y-127778859D01*
X147623499Y-127827273D01*
X147622438Y-127843458D01*
X147617589Y-127880291D01*
X147609212Y-127911556D01*
X147598130Y-127938312D01*
X147581944Y-127966348D01*
X147559345Y-127995800D01*
X147548650Y-128007995D01*
X133903466Y-141653181D01*
X133842143Y-141686666D01*
X133815785Y-141689500D01*
X133725226Y-141689500D01*
X133600935Y-141725994D01*
X133600932Y-141725995D01*
X133600931Y-141725996D01*
X133549677Y-141758934D01*
X133491950Y-141796033D01*
X133407118Y-141893937D01*
X133407117Y-141893938D01*
X133353302Y-142011774D01*
X133334867Y-142140000D01*
X130324000Y-142140000D01*
X130324000Y-141111105D01*
X130324000Y-141104777D01*
X130323995Y-141104681D01*
X130323996Y-141061863D01*
X130294638Y-140914260D01*
X130237048Y-140775220D01*
X130153438Y-140650087D01*
X130117670Y-140614319D01*
X130117669Y-140614316D01*
X130060250Y-140556897D01*
X130060243Y-140556891D01*
X129296370Y-139793018D01*
X129285673Y-139780820D01*
X129263059Y-139751347D01*
X129246875Y-139723315D01*
X129235792Y-139696557D01*
X129227415Y-139665289D01*
X129222561Y-139628415D01*
X129221500Y-139612229D01*
X129221501Y-139573846D01*
X129221500Y-139573843D01*
X129221500Y-135119510D01*
X129241185Y-135052471D01*
X129251787Y-135038307D01*
X129255545Y-135033969D01*
X129255549Y-135033967D01*
X129340382Y-134936063D01*
X129394197Y-134818226D01*
X129412633Y-134690000D01*
X129394197Y-134561774D01*
X129340382Y-134443937D01*
X129255549Y-134346033D01*
X129146569Y-134275996D01*
X129146565Y-134275994D01*
X129146564Y-134275994D01*
X129022274Y-134239500D01*
X129022272Y-134239500D01*
X128892728Y-134239500D01*
X128892726Y-134239500D01*
X128768435Y-134275994D01*
X128768432Y-134275995D01*
X128768431Y-134275996D01*
X128717177Y-134308934D01*
X128659450Y-134346033D01*
X128574618Y-134443937D01*
X128574617Y-134443938D01*
X128520802Y-134561774D01*
X128502367Y-134690000D01*
X128520802Y-134818225D01*
X128574617Y-134936061D01*
X128574618Y-134936063D01*
X128659451Y-135033967D01*
X128659454Y-135033968D01*
X128663213Y-135038307D01*
X128692238Y-135101863D01*
X128693500Y-135119510D01*
X128693500Y-139651689D01*
X128693504Y-139651782D01*
X128693504Y-139695637D01*
X128704080Y-139748810D01*
X128714197Y-139799676D01*
X128707968Y-139869267D01*
X128665104Y-139924444D01*
X128599214Y-139947687D01*
X128531217Y-139931618D01*
X128504898Y-139911546D01*
X122948870Y-134355518D01*
X122938173Y-134343320D01*
X122915559Y-134313847D01*
X122899375Y-134285815D01*
X122888292Y-134259057D01*
X122879915Y-134227789D01*
X122875061Y-134190915D01*
X122874000Y-134174729D01*
X122874001Y-134136346D01*
X122874000Y-134136343D01*
X122874000Y-113135105D01*
X122874000Y-113128777D01*
X122873995Y-113128681D01*
X122873995Y-113116210D01*
X122873996Y-113085863D01*
X122844638Y-112938260D01*
X122787048Y-112799220D01*
X122703438Y-112674087D01*
X122667670Y-112638319D01*
X122667669Y-112638316D01*
X122610250Y-112580897D01*
X122610243Y-112580891D01*
X115389352Y-105360000D01*
X128186657Y-105360000D01*
X128205092Y-105488225D01*
X128237662Y-105559542D01*
X128258908Y-105606063D01*
X128343741Y-105703967D01*
X128452721Y-105774004D01*
X128567448Y-105807690D01*
X128577015Y-105810499D01*
X128577017Y-105810500D01*
X128667576Y-105810500D01*
X128734615Y-105830185D01*
X128755257Y-105846819D01*
X129881122Y-106972685D01*
X129891818Y-106984881D01*
X129914435Y-107014357D01*
X129930620Y-107042391D01*
X129941701Y-107069144D01*
X129950079Y-107100415D01*
X129954939Y-107137343D01*
X129955999Y-107153528D01*
X129955997Y-107203669D01*
X129956000Y-107203700D01*
X129956000Y-123716689D01*
X129956004Y-123716782D01*
X129956004Y-123760637D01*
X129985362Y-123908240D01*
X129985364Y-123908244D01*
X130042950Y-124047276D01*
X130042956Y-124047286D01*
X130126557Y-124172409D01*
X130179765Y-124225617D01*
X130179767Y-124225620D01*
X130222884Y-124268739D01*
X130222897Y-124268749D01*
X136088756Y-130134609D01*
X136122241Y-130195932D01*
X136123814Y-130239930D01*
X136122367Y-130249998D01*
X136122367Y-130249999D01*
X136140802Y-130378225D01*
X136194617Y-130496061D01*
X136194618Y-130496063D01*
X136279451Y-130593967D01*
X136388431Y-130664004D01*
X136512725Y-130700499D01*
X136512727Y-130700500D01*
X136512728Y-130700500D01*
X136642273Y-130700500D01*
X136642273Y-130700499D01*
X136766569Y-130664004D01*
X136875549Y-130593967D01*
X136960382Y-130496063D01*
X137014197Y-130378226D01*
X137032633Y-130250000D01*
X137014197Y-130121774D01*
X136960382Y-130003937D01*
X136875549Y-129906033D01*
X136766569Y-129835996D01*
X136766565Y-129835994D01*
X136766564Y-129835994D01*
X136642274Y-129799500D01*
X136642272Y-129799500D01*
X136551715Y-129799500D01*
X136484676Y-129779815D01*
X136464034Y-129763181D01*
X130558874Y-123858022D01*
X130548176Y-123845824D01*
X130525557Y-123816344D01*
X130509375Y-123788313D01*
X130498293Y-123761558D01*
X130489915Y-123730289D01*
X130485061Y-123693415D01*
X130484000Y-123677229D01*
X130484001Y-123638846D01*
X130484000Y-123638843D01*
X130484000Y-107119315D01*
X130484000Y-107113404D01*
X130483989Y-107113182D01*
X130483989Y-107113104D01*
X130483991Y-107070079D01*
X130454635Y-106922475D01*
X130397047Y-106783434D01*
X130355382Y-106721074D01*
X130313442Y-106658302D01*
X130313440Y-106658300D01*
X130283995Y-106628854D01*
X130283970Y-106628826D01*
X130244164Y-106589021D01*
X130244162Y-106589018D01*
X130220259Y-106565114D01*
X130220244Y-106565101D01*
X129342911Y-105687768D01*
X130889768Y-105687768D01*
X130908203Y-105815993D01*
X130922281Y-105846819D01*
X130962019Y-105933831D01*
X131046852Y-106031735D01*
X131155832Y-106101772D01*
X131270559Y-106135458D01*
X131280126Y-106138267D01*
X131280128Y-106138268D01*
X131370687Y-106138268D01*
X131437726Y-106157953D01*
X131458368Y-106174587D01*
X132396885Y-107113104D01*
X132396920Y-107113145D01*
X132431135Y-107147356D01*
X132441829Y-107159548D01*
X132464455Y-107189032D01*
X132480642Y-107217067D01*
X132491726Y-107243825D01*
X132500104Y-107275086D01*
X132504938Y-107311785D01*
X132506000Y-107327978D01*
X132506000Y-121186689D01*
X132506004Y-121186782D01*
X132506004Y-121230637D01*
X132535362Y-121378240D01*
X132535364Y-121378244D01*
X132592950Y-121517276D01*
X132592956Y-121517286D01*
X132676557Y-121642409D01*
X132729765Y-121695617D01*
X132729767Y-121695620D01*
X132772884Y-121738739D01*
X132772897Y-121738749D01*
X141168756Y-130134608D01*
X141202241Y-130195931D01*
X141203814Y-130239928D01*
X141202367Y-130249996D01*
X141202367Y-130249999D01*
X141220802Y-130378225D01*
X141274617Y-130496061D01*
X141274618Y-130496063D01*
X141359451Y-130593967D01*
X141468431Y-130664004D01*
X141592725Y-130700499D01*
X141592727Y-130700500D01*
X141592728Y-130700500D01*
X141722273Y-130700500D01*
X141722273Y-130700499D01*
X141846569Y-130664004D01*
X141955549Y-130593967D01*
X142040382Y-130496063D01*
X142094197Y-130378226D01*
X142112633Y-130250000D01*
X142094197Y-130121774D01*
X142040382Y-130003937D01*
X141955549Y-129906033D01*
X141846569Y-129835996D01*
X141846565Y-129835994D01*
X141846564Y-129835994D01*
X141722274Y-129799500D01*
X141722272Y-129799500D01*
X141631714Y-129799500D01*
X141564675Y-129779815D01*
X141544033Y-129763181D01*
X133108870Y-121328018D01*
X133098173Y-121315820D01*
X133075559Y-121286347D01*
X133059375Y-121258315D01*
X133048292Y-121231557D01*
X133039915Y-121200289D01*
X133035061Y-121163415D01*
X133034000Y-121147229D01*
X133034001Y-121108846D01*
X133034000Y-121108843D01*
X133034000Y-115177501D01*
X137344353Y-115177501D01*
X137349500Y-115213300D01*
X137364834Y-115319958D01*
X137424622Y-115450873D01*
X137424623Y-115450875D01*
X137518872Y-115559645D01*
X137639947Y-115637455D01*
X137639950Y-115637456D01*
X137639949Y-115637456D01*
X137778036Y-115678001D01*
X137778038Y-115678002D01*
X137778039Y-115678002D01*
X137921962Y-115678002D01*
X137921962Y-115678001D01*
X138060053Y-115637455D01*
X138181128Y-115559645D01*
X138275377Y-115450875D01*
X138335165Y-115319959D01*
X138350500Y-115213301D01*
X138350500Y-115213300D01*
X138355647Y-115177502D01*
X138351762Y-115150479D01*
X138350500Y-115132833D01*
X138350500Y-105454667D01*
X138351762Y-105437020D01*
X138352085Y-105434776D01*
X138355647Y-105410000D01*
X138348036Y-105357067D01*
X138335165Y-105267543D01*
X138287944Y-105164144D01*
X138275379Y-105136630D01*
X138275376Y-105136626D01*
X138242682Y-105098895D01*
X138181128Y-105027857D01*
X138060053Y-104950047D01*
X138060051Y-104950046D01*
X138060049Y-104950045D01*
X138060050Y-104950045D01*
X137921963Y-104909500D01*
X137921961Y-104909500D01*
X137778039Y-104909500D01*
X137778036Y-104909500D01*
X137639949Y-104950045D01*
X137518873Y-105027856D01*
X137424623Y-105136626D01*
X137424620Y-105136630D01*
X137364836Y-105267539D01*
X137364834Y-105267548D01*
X137351964Y-105357065D01*
X137351964Y-105357066D01*
X137344353Y-105410000D01*
X137348238Y-105437020D01*
X137349500Y-105454667D01*
X137349500Y-115132833D01*
X137348238Y-115150479D01*
X137344353Y-115177501D01*
X133034000Y-115177501D01*
X133034000Y-107377679D01*
X133034003Y-107377634D01*
X133034003Y-107371355D01*
X133034020Y-107371293D01*
X133034017Y-107311785D01*
X133034014Y-107244712D01*
X133025512Y-107201982D01*
X133004648Y-107097115D01*
X133004648Y-107097114D01*
X133004647Y-107097113D01*
X133004647Y-107097110D01*
X132947048Y-106958072D01*
X132947047Y-106958070D01*
X132947046Y-106958068D01*
X132863434Y-106832946D01*
X132863429Y-106832939D01*
X132810222Y-106779736D01*
X132810218Y-106779733D01*
X131833644Y-105803159D01*
X131800159Y-105741836D01*
X131798587Y-105697830D01*
X131800034Y-105687768D01*
X131781598Y-105559542D01*
X131727783Y-105441705D01*
X131642950Y-105343801D01*
X131533970Y-105273764D01*
X131533966Y-105273762D01*
X131533965Y-105273762D01*
X131409675Y-105237268D01*
X131409673Y-105237268D01*
X131280129Y-105237268D01*
X131280127Y-105237268D01*
X131155836Y-105273762D01*
X131155833Y-105273763D01*
X131155832Y-105273764D01*
X131104578Y-105306702D01*
X131046851Y-105343801D01*
X130962019Y-105441705D01*
X130962018Y-105441706D01*
X130908203Y-105559542D01*
X130889768Y-105687768D01*
X129342911Y-105687768D01*
X129130533Y-105475390D01*
X129097048Y-105414067D01*
X129095476Y-105370060D01*
X129096923Y-105360000D01*
X129078487Y-105231774D01*
X129024672Y-105113937D01*
X128939839Y-105016033D01*
X128830859Y-104945996D01*
X128830855Y-104945994D01*
X128830854Y-104945994D01*
X128706564Y-104909500D01*
X128706562Y-104909500D01*
X128577018Y-104909500D01*
X128577016Y-104909500D01*
X128452725Y-104945994D01*
X128452722Y-104945995D01*
X128452721Y-104945996D01*
X128446421Y-104950045D01*
X128343740Y-105016033D01*
X128258908Y-105113937D01*
X128258907Y-105113938D01*
X128205092Y-105231774D01*
X128186657Y-105360000D01*
X115389352Y-105360000D01*
X113029352Y-103000000D01*
X126844867Y-103000000D01*
X126863302Y-103128225D01*
X126898186Y-103204608D01*
X126917118Y-103246063D01*
X127001951Y-103343967D01*
X127110931Y-103414004D01*
X127235225Y-103450499D01*
X127235227Y-103450500D01*
X127235228Y-103450500D01*
X127364773Y-103450500D01*
X127364773Y-103450499D01*
X127489069Y-103414004D01*
X127598049Y-103343967D01*
X127682882Y-103246063D01*
X127723790Y-103156487D01*
X127769545Y-103103684D01*
X127836584Y-103084000D01*
X132906343Y-103084000D01*
X132906346Y-103084001D01*
X132944772Y-103084000D01*
X132960944Y-103085059D01*
X132997797Y-103089910D01*
X133029058Y-103098287D01*
X133055820Y-103109372D01*
X133083849Y-103125554D01*
X133113293Y-103148146D01*
X133125485Y-103158838D01*
X133152674Y-103186027D01*
X133152689Y-103186041D01*
X133171256Y-103204608D01*
X133204741Y-103265931D01*
X133206314Y-103309928D01*
X133204867Y-103319996D01*
X133204867Y-103319999D01*
X133223302Y-103448225D01*
X133277117Y-103566061D01*
X133277118Y-103566063D01*
X133361951Y-103663967D01*
X133470931Y-103734004D01*
X133595225Y-103770499D01*
X133595227Y-103770500D01*
X133595228Y-103770500D01*
X133724773Y-103770500D01*
X133724773Y-103770499D01*
X133849069Y-103734004D01*
X133958049Y-103663967D01*
X134042882Y-103566063D01*
X134096697Y-103448226D01*
X134115133Y-103320000D01*
X134096697Y-103191774D01*
X134042882Y-103073937D01*
X133958049Y-102976033D01*
X133849069Y-102905996D01*
X133849065Y-102905994D01*
X133849064Y-102905994D01*
X133724774Y-102869500D01*
X133724772Y-102869500D01*
X133634214Y-102869500D01*
X133567175Y-102849815D01*
X133546533Y-102833181D01*
X133543479Y-102830127D01*
X133543477Y-102830124D01*
X133529444Y-102816091D01*
X133529435Y-102816075D01*
X133439919Y-102726561D01*
X133439917Y-102726559D01*
X133314786Y-102642950D01*
X133314776Y-102642944D01*
X133175751Y-102585360D01*
X133175746Y-102585358D01*
X133175742Y-102585357D01*
X133028137Y-102555999D01*
X133028135Y-102555999D01*
X132952889Y-102556000D01*
X130109836Y-102556000D01*
X130042797Y-102536315D01*
X129997042Y-102483511D01*
X129987098Y-102414353D01*
X130016122Y-102350798D01*
X130067882Y-102291063D01*
X130111073Y-102196488D01*
X130156828Y-102143685D01*
X130223867Y-102124000D01*
X133236031Y-102124000D01*
X133303070Y-102143685D01*
X133329745Y-102166799D01*
X133361948Y-102203965D01*
X133361950Y-102203966D01*
X133361951Y-102203967D01*
X133470931Y-102274004D01*
X133595225Y-102310499D01*
X133595227Y-102310500D01*
X133595228Y-102310500D01*
X133724773Y-102310500D01*
X133724773Y-102310499D01*
X133849069Y-102274004D01*
X133958049Y-102203967D01*
X134042882Y-102106063D01*
X134096697Y-101988226D01*
X134115133Y-101860000D01*
X134096697Y-101731774D01*
X134042882Y-101613937D01*
X133958049Y-101516033D01*
X133849069Y-101445996D01*
X133849065Y-101445994D01*
X133849064Y-101445994D01*
X133724774Y-101409500D01*
X133724772Y-101409500D01*
X133595228Y-101409500D01*
X133595226Y-101409500D01*
X133470935Y-101445994D01*
X133470932Y-101445995D01*
X133470931Y-101445996D01*
X133429435Y-101472663D01*
X133361948Y-101516034D01*
X133329745Y-101553201D01*
X133270968Y-101590977D01*
X133236031Y-101596000D01*
X130046030Y-101596000D01*
X130045934Y-101596004D01*
X130001863Y-101596004D01*
X129943795Y-101607553D01*
X129884514Y-101619344D01*
X129825391Y-101616703D01*
X129785058Y-101604860D01*
X129749773Y-101594500D01*
X129749772Y-101594500D01*
X129620228Y-101594500D01*
X129620226Y-101594500D01*
X129495935Y-101630994D01*
X129495932Y-101630995D01*
X129495931Y-101630996D01*
X129444677Y-101663934D01*
X129386950Y-101701033D01*
X129302118Y-101798937D01*
X129302117Y-101798938D01*
X129248302Y-101916774D01*
X129229867Y-102045000D01*
X129248302Y-102173225D01*
X129262342Y-102203967D01*
X129302118Y-102291063D01*
X129353878Y-102350798D01*
X129382902Y-102414354D01*
X129372958Y-102483512D01*
X129327203Y-102536316D01*
X129260164Y-102556000D01*
X127656030Y-102556000D01*
X127655934Y-102556004D01*
X127611863Y-102556004D01*
X127507647Y-102576732D01*
X127448523Y-102574091D01*
X127364773Y-102549500D01*
X127364772Y-102549500D01*
X127235228Y-102549500D01*
X127235226Y-102549500D01*
X127110935Y-102585994D01*
X127110932Y-102585995D01*
X127110931Y-102585996D01*
X127059677Y-102618934D01*
X127001950Y-102656033D01*
X126917118Y-102753937D01*
X126917117Y-102753938D01*
X126863302Y-102871774D01*
X126844867Y-103000000D01*
X113029352Y-103000000D01*
X105871852Y-95842500D01*
X109027308Y-95842500D01*
X109046053Y-96116562D01*
X109046054Y-96116564D01*
X109101940Y-96385506D01*
X109101945Y-96385523D01*
X109193935Y-96644357D01*
X109320314Y-96888257D01*
X109452881Y-97076063D01*
X109960973Y-96567971D01*
X110040338Y-96681316D01*
X110201184Y-96842162D01*
X110314526Y-96921525D01*
X109807595Y-97428456D01*
X109879323Y-97486811D01*
X110114032Y-97629540D01*
X110365986Y-97738979D01*
X110630500Y-97813093D01*
X110630506Y-97813094D01*
X110902648Y-97850500D01*
X111177352Y-97850500D01*
X111449493Y-97813094D01*
X111449499Y-97813093D01*
X111714013Y-97738979D01*
X111965967Y-97629540D01*
X112200673Y-97486813D01*
X112200687Y-97486803D01*
X112272403Y-97428456D01*
X111765473Y-96921525D01*
X111878816Y-96842162D01*
X112039662Y-96681316D01*
X112119026Y-96567972D01*
X112627117Y-97076064D01*
X112627118Y-97076063D01*
X112759678Y-96888269D01*
X112759682Y-96888263D01*
X112886064Y-96644357D01*
X112978054Y-96385523D01*
X112978059Y-96385506D01*
X113033945Y-96116564D01*
X113033946Y-96116562D01*
X113052691Y-95842505D01*
X114559443Y-95842505D01*
X114579634Y-96086183D01*
X114579636Y-96086195D01*
X114639663Y-96323234D01*
X114737888Y-96547166D01*
X114871632Y-96751878D01*
X115037242Y-96931777D01*
X115037252Y-96931786D01*
X115213245Y-97068767D01*
X115230212Y-97081973D01*
X115445267Y-97198355D01*
X115445270Y-97198356D01*
X115676541Y-97277751D01*
X115676543Y-97277751D01*
X115676545Y-97277752D01*
X115917737Y-97318000D01*
X115917738Y-97318000D01*
X116162262Y-97318000D01*
X116162263Y-97318000D01*
X116403455Y-97277752D01*
X116634733Y-97198355D01*
X116849788Y-97081973D01*
X117042754Y-96931781D01*
X117208368Y-96751877D01*
X117342111Y-96547167D01*
X117440336Y-96323236D01*
X117500364Y-96086192D01*
X117501780Y-96069105D01*
X117520557Y-95842505D01*
X117520557Y-95842500D01*
X119027308Y-95842500D01*
X119046053Y-96116562D01*
X119046054Y-96116564D01*
X119101940Y-96385506D01*
X119101945Y-96385523D01*
X119193935Y-96644357D01*
X119320314Y-96888257D01*
X119452881Y-97076063D01*
X119960973Y-96567971D01*
X120040338Y-96681316D01*
X120201184Y-96842162D01*
X120314526Y-96921525D01*
X119807595Y-97428456D01*
X119879323Y-97486811D01*
X120114032Y-97629540D01*
X120365986Y-97738979D01*
X120630500Y-97813093D01*
X120630506Y-97813094D01*
X120902648Y-97850500D01*
X121177352Y-97850500D01*
X121449493Y-97813094D01*
X121449499Y-97813093D01*
X121714013Y-97738979D01*
X121965967Y-97629540D01*
X122200673Y-97486813D01*
X122200687Y-97486803D01*
X122272403Y-97428456D01*
X121765473Y-96921525D01*
X121878816Y-96842162D01*
X122039662Y-96681316D01*
X122119025Y-96567972D01*
X122627117Y-97076064D01*
X122627118Y-97076063D01*
X122759678Y-96888269D01*
X122759682Y-96888263D01*
X122886064Y-96644357D01*
X122978054Y-96385523D01*
X122978059Y-96385506D01*
X123033945Y-96116564D01*
X123033946Y-96116562D01*
X123052691Y-95842500D01*
X123033946Y-95568437D01*
X123033945Y-95568435D01*
X122978059Y-95299493D01*
X122978054Y-95299476D01*
X122886064Y-95040642D01*
X122759682Y-94796736D01*
X122759678Y-94796730D01*
X122627117Y-94608934D01*
X122119025Y-95117026D01*
X122039662Y-95003684D01*
X121878816Y-94842838D01*
X121765472Y-94763473D01*
X122272403Y-94256542D01*
X122200689Y-94198198D01*
X122200677Y-94198190D01*
X121965967Y-94055459D01*
X121714013Y-93946020D01*
X121449499Y-93871906D01*
X121449493Y-93871905D01*
X121177352Y-93834500D01*
X120902648Y-93834500D01*
X120630506Y-93871905D01*
X120630500Y-93871906D01*
X120365986Y-93946020D01*
X120114032Y-94055459D01*
X119879325Y-94198188D01*
X119879316Y-94198194D01*
X119807595Y-94256542D01*
X120314527Y-94763473D01*
X120201184Y-94842838D01*
X120040338Y-95003684D01*
X119960974Y-95117027D01*
X119452881Y-94608934D01*
X119452880Y-94608934D01*
X119320316Y-94796738D01*
X119193935Y-95040642D01*
X119101945Y-95299476D01*
X119101940Y-95299493D01*
X119046054Y-95568435D01*
X119046053Y-95568437D01*
X119027308Y-95842500D01*
X117520557Y-95842500D01*
X117520557Y-95842494D01*
X117500365Y-95598816D01*
X117500363Y-95598804D01*
X117480205Y-95519202D01*
X117440336Y-95361764D01*
X117342111Y-95137833D01*
X117297378Y-95069363D01*
X117208367Y-94933121D01*
X117042757Y-94753222D01*
X117042747Y-94753213D01*
X116849791Y-94603029D01*
X116849787Y-94603026D01*
X116634734Y-94486645D01*
X116634729Y-94486643D01*
X116403458Y-94407248D01*
X116183926Y-94370615D01*
X116162263Y-94367000D01*
X115917737Y-94367000D01*
X115896074Y-94370615D01*
X115676541Y-94407248D01*
X115445270Y-94486643D01*
X115445265Y-94486645D01*
X115230212Y-94603026D01*
X115230208Y-94603029D01*
X115037252Y-94753213D01*
X115037242Y-94753222D01*
X114871632Y-94933121D01*
X114737888Y-95137833D01*
X114639663Y-95361765D01*
X114579636Y-95598804D01*
X114579634Y-95598816D01*
X114559443Y-95842494D01*
X114559443Y-95842505D01*
X113052691Y-95842505D01*
X113052691Y-95842500D01*
X113033946Y-95568437D01*
X113033945Y-95568435D01*
X112978059Y-95299493D01*
X112978054Y-95299476D01*
X112886064Y-95040642D01*
X112759682Y-94796736D01*
X112759678Y-94796730D01*
X112627117Y-94608934D01*
X112119025Y-95117026D01*
X112039662Y-95003684D01*
X111878816Y-94842838D01*
X111765472Y-94763473D01*
X112272403Y-94256542D01*
X112200689Y-94198198D01*
X112200677Y-94198190D01*
X111965967Y-94055459D01*
X111714013Y-93946020D01*
X111449499Y-93871906D01*
X111449493Y-93871905D01*
X111177352Y-93834500D01*
X110902648Y-93834500D01*
X110630506Y-93871905D01*
X110630500Y-93871906D01*
X110365986Y-93946020D01*
X110114032Y-94055459D01*
X109879325Y-94198188D01*
X109879316Y-94198194D01*
X109807595Y-94256542D01*
X110314527Y-94763473D01*
X110201184Y-94842838D01*
X110040338Y-95003684D01*
X109960974Y-95117027D01*
X109452881Y-94608934D01*
X109452880Y-94608934D01*
X109320316Y-94796738D01*
X109193935Y-95040642D01*
X109101945Y-95299476D01*
X109101940Y-95299493D01*
X109046054Y-95568435D01*
X109046053Y-95568437D01*
X109027308Y-95842500D01*
X105871852Y-95842500D01*
X103829359Y-93800007D01*
X126860280Y-93800007D01*
X126879140Y-94087757D01*
X126879144Y-94087784D01*
X126935402Y-94370615D01*
X126935407Y-94370635D01*
X127028100Y-94643702D01*
X127028104Y-94643712D01*
X127155653Y-94902356D01*
X127315876Y-95142146D01*
X127315881Y-95142152D01*
X127340835Y-95170608D01*
X127340838Y-95170608D01*
X127767266Y-94744180D01*
X127930130Y-94934870D01*
X128120818Y-95097732D01*
X127694390Y-95524160D01*
X127694390Y-95524161D01*
X127722854Y-95549124D01*
X127962643Y-95709346D01*
X128221287Y-95836895D01*
X128221297Y-95836899D01*
X128494364Y-95929592D01*
X128494384Y-95929597D01*
X128777215Y-95985855D01*
X128777242Y-95985859D01*
X129064993Y-96004720D01*
X129065007Y-96004720D01*
X129352757Y-95985859D01*
X129352784Y-95985855D01*
X129635615Y-95929597D01*
X129635635Y-95929592D01*
X129908702Y-95836899D01*
X129908712Y-95836895D01*
X130167356Y-95709346D01*
X130407141Y-95549126D01*
X130407147Y-95549121D01*
X130435608Y-95524162D01*
X130435608Y-95524161D01*
X130009180Y-95097733D01*
X130199870Y-94934870D01*
X130362733Y-94744180D01*
X130789161Y-95170608D01*
X130789162Y-95170608D01*
X130814121Y-95142147D01*
X130814126Y-95142141D01*
X130974346Y-94902356D01*
X131101895Y-94643712D01*
X131101899Y-94643702D01*
X131194592Y-94370635D01*
X131194597Y-94370615D01*
X131250855Y-94087784D01*
X131250859Y-94087757D01*
X131265132Y-93870000D01*
X135100161Y-93870000D01*
X135119468Y-94066032D01*
X135176651Y-94254537D01*
X135242923Y-94378522D01*
X135621922Y-93999523D01*
X135645507Y-94079844D01*
X135723239Y-94200798D01*
X135831900Y-94294952D01*
X135962685Y-94354680D01*
X135972466Y-94356086D01*
X135596476Y-94732075D01*
X135720462Y-94798348D01*
X135908969Y-94855531D01*
X135908965Y-94855531D01*
X136105000Y-94874838D01*
X136117523Y-94873605D01*
X136186169Y-94886620D01*
X136236882Y-94934682D01*
X136253560Y-95002532D01*
X136251301Y-95021196D01*
X136249500Y-95030251D01*
X136249500Y-96669752D01*
X136261131Y-96728229D01*
X136261132Y-96728230D01*
X136305447Y-96794552D01*
X136371769Y-96838867D01*
X136371770Y-96838868D01*
X136430247Y-96850499D01*
X136430250Y-96850500D01*
X136430252Y-96850500D01*
X138069750Y-96850500D01*
X138069751Y-96850499D01*
X138084568Y-96847552D01*
X138128229Y-96838868D01*
X138128229Y-96838867D01*
X138128231Y-96838867D01*
X138194552Y-96794552D01*
X138238867Y-96728231D01*
X138238867Y-96728229D01*
X138238868Y-96728229D01*
X138250499Y-96669752D01*
X138250500Y-96669750D01*
X138250500Y-95850000D01*
X138534659Y-95850000D01*
X138553975Y-96046129D01*
X138559504Y-96064355D01*
X138611128Y-96234537D01*
X138611188Y-96234733D01*
X138704086Y-96408532D01*
X138704090Y-96408539D01*
X138829116Y-96560883D01*
X138981460Y-96685909D01*
X138981467Y-96685913D01*
X139155266Y-96778811D01*
X139155269Y-96778811D01*
X139155273Y-96778814D01*
X139343868Y-96836024D01*
X139540000Y-96855341D01*
X139736132Y-96836024D01*
X139924727Y-96778814D01*
X140098538Y-96685910D01*
X140250883Y-96560883D01*
X140375910Y-96408538D01*
X140468814Y-96234727D01*
X140526024Y-96046132D01*
X140545341Y-95850000D01*
X140824659Y-95850000D01*
X140843975Y-96046129D01*
X140849504Y-96064355D01*
X140901128Y-96234537D01*
X140901188Y-96234733D01*
X140994086Y-96408532D01*
X140994090Y-96408539D01*
X141119116Y-96560883D01*
X141271460Y-96685909D01*
X141271467Y-96685913D01*
X141445266Y-96778811D01*
X141445269Y-96778811D01*
X141445273Y-96778814D01*
X141633868Y-96836024D01*
X141830000Y-96855341D01*
X142026132Y-96836024D01*
X142214727Y-96778814D01*
X142388538Y-96685910D01*
X142540883Y-96560883D01*
X142665910Y-96408538D01*
X142758814Y-96234727D01*
X142816024Y-96046132D01*
X142835341Y-95850000D01*
X143114659Y-95850000D01*
X143133975Y-96046129D01*
X143139504Y-96064355D01*
X143191128Y-96234537D01*
X143191188Y-96234733D01*
X143284086Y-96408532D01*
X143284090Y-96408539D01*
X143409116Y-96560883D01*
X143561460Y-96685909D01*
X143561467Y-96685913D01*
X143735266Y-96778811D01*
X143735269Y-96778811D01*
X143735273Y-96778814D01*
X143923868Y-96836024D01*
X144120000Y-96855341D01*
X144316132Y-96836024D01*
X144504727Y-96778814D01*
X144678538Y-96685910D01*
X144830883Y-96560883D01*
X144955910Y-96408538D01*
X145048814Y-96234727D01*
X145106024Y-96046132D01*
X145125341Y-95850000D01*
X145106024Y-95653868D01*
X145048814Y-95465273D01*
X145048811Y-95465269D01*
X145048811Y-95465266D01*
X144955913Y-95291467D01*
X144955909Y-95291460D01*
X144830883Y-95139116D01*
X144678539Y-95014090D01*
X144678532Y-95014086D01*
X144504733Y-94921188D01*
X144504727Y-94921186D01*
X144351939Y-94874838D01*
X144316129Y-94863975D01*
X144120000Y-94844659D01*
X143923870Y-94863975D01*
X143735266Y-94921188D01*
X143561467Y-95014086D01*
X143561460Y-95014090D01*
X143409116Y-95139116D01*
X143284090Y-95291460D01*
X143284086Y-95291467D01*
X143191188Y-95465266D01*
X143133975Y-95653870D01*
X143114659Y-95850000D01*
X142835341Y-95850000D01*
X142816024Y-95653868D01*
X142758814Y-95465273D01*
X142758811Y-95465269D01*
X142758811Y-95465266D01*
X142665913Y-95291467D01*
X142665909Y-95291460D01*
X142540883Y-95139116D01*
X142388539Y-95014090D01*
X142388532Y-95014086D01*
X142214733Y-94921188D01*
X142214727Y-94921186D01*
X142061939Y-94874838D01*
X142026129Y-94863975D01*
X141830000Y-94844659D01*
X141633870Y-94863975D01*
X141445266Y-94921188D01*
X141271467Y-95014086D01*
X141271460Y-95014090D01*
X141119116Y-95139116D01*
X140994090Y-95291460D01*
X140994086Y-95291467D01*
X140901188Y-95465266D01*
X140843975Y-95653870D01*
X140824659Y-95850000D01*
X140545341Y-95850000D01*
X140526024Y-95653868D01*
X140468814Y-95465273D01*
X140468811Y-95465269D01*
X140468811Y-95465266D01*
X140375913Y-95291467D01*
X140375909Y-95291460D01*
X140250883Y-95139116D01*
X140098539Y-95014090D01*
X140098532Y-95014086D01*
X139924733Y-94921188D01*
X139924727Y-94921186D01*
X139771939Y-94874838D01*
X139736129Y-94863975D01*
X139540000Y-94844659D01*
X139343870Y-94863975D01*
X139155266Y-94921188D01*
X138981467Y-95014086D01*
X138981460Y-95014090D01*
X138829116Y-95139116D01*
X138704090Y-95291460D01*
X138704086Y-95291467D01*
X138611188Y-95465266D01*
X138553975Y-95653870D01*
X138534659Y-95850000D01*
X138250500Y-95850000D01*
X138250500Y-95030250D01*
X138248700Y-95021204D01*
X138254924Y-94951612D01*
X138297784Y-94896433D01*
X138363673Y-94873185D01*
X138382476Y-94873605D01*
X138394999Y-94874839D01*
X138591032Y-94855531D01*
X138779537Y-94798348D01*
X138903523Y-94732076D01*
X138903523Y-94732075D01*
X138527534Y-94356086D01*
X138537315Y-94354680D01*
X138668100Y-94294952D01*
X138776761Y-94200798D01*
X138854493Y-94079844D01*
X138878076Y-93999523D01*
X139257076Y-94378523D01*
X139323348Y-94254537D01*
X139380531Y-94066032D01*
X139399838Y-93870000D01*
X139680161Y-93870000D01*
X139699468Y-94066032D01*
X139756651Y-94254537D01*
X139822923Y-94378522D01*
X140201922Y-93999523D01*
X140225507Y-94079844D01*
X140303239Y-94200798D01*
X140411900Y-94294952D01*
X140542685Y-94354680D01*
X140552466Y-94356086D01*
X140176476Y-94732075D01*
X140300462Y-94798348D01*
X140488969Y-94855531D01*
X140488965Y-94855531D01*
X140685000Y-94874838D01*
X140881032Y-94855531D01*
X141069537Y-94798348D01*
X141193523Y-94732076D01*
X141193523Y-94732075D01*
X140817534Y-94356086D01*
X140827315Y-94354680D01*
X140958100Y-94294952D01*
X141066761Y-94200798D01*
X141144493Y-94079844D01*
X141168076Y-93999523D01*
X141547076Y-94378523D01*
X141613348Y-94254537D01*
X141670531Y-94066032D01*
X141689838Y-93870000D01*
X141969659Y-93870000D01*
X141988975Y-94066129D01*
X141995536Y-94087757D01*
X142046128Y-94254537D01*
X142046188Y-94254733D01*
X142139086Y-94428532D01*
X142139090Y-94428539D01*
X142264116Y-94580883D01*
X142416460Y-94705909D01*
X142416467Y-94705913D01*
X142590266Y-94798811D01*
X142590269Y-94798811D01*
X142590273Y-94798814D01*
X142778868Y-94856024D01*
X142975000Y-94875341D01*
X143171132Y-94856024D01*
X143359727Y-94798814D01*
X143533538Y-94705910D01*
X143685883Y-94580883D01*
X143810910Y-94428538D01*
X143903814Y-94254727D01*
X143961024Y-94066132D01*
X143980341Y-93870000D01*
X143961024Y-93673868D01*
X143903814Y-93485273D01*
X143903811Y-93485269D01*
X143903811Y-93485266D01*
X143810913Y-93311467D01*
X143810909Y-93311460D01*
X143685883Y-93159116D01*
X143533539Y-93034090D01*
X143533532Y-93034086D01*
X143359733Y-92941188D01*
X143359727Y-92941186D01*
X143171132Y-92883976D01*
X143171129Y-92883975D01*
X142975000Y-92864659D01*
X142778870Y-92883975D01*
X142590266Y-92941188D01*
X142416467Y-93034086D01*
X142416460Y-93034090D01*
X142264116Y-93159116D01*
X142139090Y-93311460D01*
X142139086Y-93311467D01*
X142046188Y-93485266D01*
X141988975Y-93673870D01*
X141969659Y-93870000D01*
X141689838Y-93870000D01*
X141670531Y-93673967D01*
X141613348Y-93485462D01*
X141547075Y-93361476D01*
X141168076Y-93740475D01*
X141144493Y-93660156D01*
X141066761Y-93539202D01*
X140958100Y-93445048D01*
X140827315Y-93385320D01*
X140817533Y-93383913D01*
X141193522Y-93007923D01*
X141069537Y-92941651D01*
X140881030Y-92884468D01*
X140881034Y-92884468D01*
X140685000Y-92865161D01*
X140488967Y-92884468D01*
X140300466Y-92941649D01*
X140176476Y-93007923D01*
X140552466Y-93383913D01*
X140542685Y-93385320D01*
X140411900Y-93445048D01*
X140303239Y-93539202D01*
X140225507Y-93660156D01*
X140201923Y-93740475D01*
X139822923Y-93361476D01*
X139756649Y-93485466D01*
X139699468Y-93673967D01*
X139680161Y-93870000D01*
X139399838Y-93870000D01*
X139380531Y-93673967D01*
X139323348Y-93485462D01*
X139257075Y-93361476D01*
X138878076Y-93740475D01*
X138854493Y-93660156D01*
X138776761Y-93539202D01*
X138668100Y-93445048D01*
X138537315Y-93385320D01*
X138527533Y-93383913D01*
X138903522Y-93007923D01*
X138779537Y-92941651D01*
X138591030Y-92884468D01*
X138591034Y-92884468D01*
X138395000Y-92865161D01*
X138198967Y-92884468D01*
X138010466Y-92941649D01*
X137886476Y-93007923D01*
X138262466Y-93383913D01*
X138252685Y-93385320D01*
X138121900Y-93445048D01*
X138013239Y-93539202D01*
X137935507Y-93660156D01*
X137911923Y-93740476D01*
X137532923Y-93361476D01*
X137466649Y-93485466D01*
X137409468Y-93673967D01*
X137390161Y-93870000D01*
X137409468Y-94066032D01*
X137466651Y-94254537D01*
X137532923Y-94378522D01*
X137911922Y-93999523D01*
X137935507Y-94079844D01*
X138013239Y-94200798D01*
X138121900Y-94294952D01*
X138252685Y-94354680D01*
X138262466Y-94356086D01*
X137878201Y-94740350D01*
X137873167Y-94776508D01*
X137827648Y-94829515D01*
X137760697Y-94849499D01*
X137760144Y-94849500D01*
X136739855Y-94849500D01*
X136672816Y-94829815D01*
X136627061Y-94777011D01*
X136621788Y-94740341D01*
X136237534Y-94356086D01*
X136247315Y-94354680D01*
X136378100Y-94294952D01*
X136486761Y-94200798D01*
X136564493Y-94079844D01*
X136588076Y-93999523D01*
X136967076Y-94378523D01*
X137033348Y-94254537D01*
X137090531Y-94066032D01*
X137109838Y-93870000D01*
X137090531Y-93673967D01*
X137033348Y-93485462D01*
X136967075Y-93361476D01*
X136588076Y-93740475D01*
X136564493Y-93660156D01*
X136486761Y-93539202D01*
X136378100Y-93445048D01*
X136247315Y-93385320D01*
X136237533Y-93383913D01*
X136613522Y-93007923D01*
X136489537Y-92941651D01*
X136301030Y-92884468D01*
X136301034Y-92884468D01*
X136105000Y-92865161D01*
X135908967Y-92884468D01*
X135720466Y-92941649D01*
X135596476Y-93007923D01*
X135972466Y-93383913D01*
X135962685Y-93385320D01*
X135831900Y-93445048D01*
X135723239Y-93539202D01*
X135645507Y-93660156D01*
X135621923Y-93740476D01*
X135242923Y-93361476D01*
X135176649Y-93485466D01*
X135119468Y-93673967D01*
X135100161Y-93870000D01*
X131265132Y-93870000D01*
X131269720Y-93800007D01*
X131269720Y-93799992D01*
X131250859Y-93512242D01*
X131250855Y-93512215D01*
X131194597Y-93229384D01*
X131194592Y-93229364D01*
X131101899Y-92956297D01*
X131101895Y-92956287D01*
X130974346Y-92697643D01*
X130814124Y-92457854D01*
X130789161Y-92429390D01*
X130789160Y-92429390D01*
X130362732Y-92855818D01*
X130199870Y-92665130D01*
X130009180Y-92502266D01*
X130435608Y-92075838D01*
X130435608Y-92075835D01*
X130407152Y-92050881D01*
X130407146Y-92050876D01*
X130167356Y-91890653D01*
X130166032Y-91890000D01*
X136244659Y-91890000D01*
X136263975Y-92086129D01*
X136263976Y-92086132D01*
X136320845Y-92273604D01*
X136321188Y-92274733D01*
X136414086Y-92448532D01*
X136414090Y-92448539D01*
X136539116Y-92600883D01*
X136691460Y-92725909D01*
X136691467Y-92725913D01*
X136865266Y-92818811D01*
X136865269Y-92818811D01*
X136865273Y-92818814D01*
X137053868Y-92876024D01*
X137250000Y-92895341D01*
X137446132Y-92876024D01*
X137634727Y-92818814D01*
X137808538Y-92725910D01*
X137960883Y-92600883D01*
X138085910Y-92448538D01*
X138178814Y-92274727D01*
X138236024Y-92086132D01*
X138255341Y-91890000D01*
X138534659Y-91890000D01*
X138553975Y-92086129D01*
X138553976Y-92086132D01*
X138610845Y-92273604D01*
X138611188Y-92274733D01*
X138704086Y-92448532D01*
X138704090Y-92448539D01*
X138829116Y-92600883D01*
X138981460Y-92725909D01*
X138981467Y-92725913D01*
X139155266Y-92818811D01*
X139155269Y-92818811D01*
X139155273Y-92818814D01*
X139343868Y-92876024D01*
X139540000Y-92895341D01*
X139736132Y-92876024D01*
X139924727Y-92818814D01*
X140098538Y-92725910D01*
X140250883Y-92600883D01*
X140375910Y-92448538D01*
X140468814Y-92274727D01*
X140526024Y-92086132D01*
X140545341Y-91890000D01*
X140824659Y-91890000D01*
X140843975Y-92086129D01*
X140843976Y-92086132D01*
X140900845Y-92273604D01*
X140901188Y-92274733D01*
X140994086Y-92448532D01*
X140994090Y-92448539D01*
X141119116Y-92600883D01*
X141271460Y-92725909D01*
X141271467Y-92725913D01*
X141445266Y-92818811D01*
X141445269Y-92818811D01*
X141445273Y-92818814D01*
X141633868Y-92876024D01*
X141830000Y-92895341D01*
X142026132Y-92876024D01*
X142214727Y-92818814D01*
X142388538Y-92725910D01*
X142540883Y-92600883D01*
X142665910Y-92448538D01*
X142758814Y-92274727D01*
X142816024Y-92086132D01*
X142835341Y-91890000D01*
X142816024Y-91693868D01*
X142758814Y-91505273D01*
X142758811Y-91505269D01*
X142758811Y-91505266D01*
X142665913Y-91331467D01*
X142665909Y-91331460D01*
X142540883Y-91179116D01*
X142388539Y-91054090D01*
X142388532Y-91054086D01*
X142214733Y-90961188D01*
X142214727Y-90961186D01*
X142026132Y-90903976D01*
X142026129Y-90903975D01*
X141830000Y-90884659D01*
X141633870Y-90903975D01*
X141445266Y-90961188D01*
X141271467Y-91054086D01*
X141271460Y-91054090D01*
X141119116Y-91179116D01*
X140994090Y-91331460D01*
X140994086Y-91331467D01*
X140901188Y-91505266D01*
X140843975Y-91693870D01*
X140824659Y-91890000D01*
X140545341Y-91890000D01*
X140526024Y-91693868D01*
X140468814Y-91505273D01*
X140468811Y-91505269D01*
X140468811Y-91505266D01*
X140375913Y-91331467D01*
X140375909Y-91331460D01*
X140250883Y-91179116D01*
X140098539Y-91054090D01*
X140098532Y-91054086D01*
X139924733Y-90961188D01*
X139924727Y-90961186D01*
X139736132Y-90903976D01*
X139736129Y-90903975D01*
X139540000Y-90884659D01*
X139343870Y-90903975D01*
X139155266Y-90961188D01*
X138981467Y-91054086D01*
X138981460Y-91054090D01*
X138829116Y-91179116D01*
X138704090Y-91331460D01*
X138704086Y-91331467D01*
X138611188Y-91505266D01*
X138553975Y-91693870D01*
X138534659Y-91890000D01*
X138255341Y-91890000D01*
X138236024Y-91693868D01*
X138178814Y-91505273D01*
X138178811Y-91505269D01*
X138178811Y-91505266D01*
X138085913Y-91331467D01*
X138085909Y-91331460D01*
X137960883Y-91179116D01*
X137808539Y-91054090D01*
X137808532Y-91054086D01*
X137634733Y-90961188D01*
X137634727Y-90961186D01*
X137446132Y-90903976D01*
X137446129Y-90903975D01*
X137250000Y-90884659D01*
X137053870Y-90903975D01*
X136865266Y-90961188D01*
X136691467Y-91054086D01*
X136691460Y-91054090D01*
X136539116Y-91179116D01*
X136414090Y-91331460D01*
X136414086Y-91331467D01*
X136321188Y-91505266D01*
X136263975Y-91693870D01*
X136244659Y-91890000D01*
X130166032Y-91890000D01*
X129908712Y-91763104D01*
X129908702Y-91763100D01*
X129635635Y-91670407D01*
X129635615Y-91670402D01*
X129352784Y-91614144D01*
X129352757Y-91614140D01*
X129065007Y-91595280D01*
X129064993Y-91595280D01*
X128777242Y-91614140D01*
X128777215Y-91614144D01*
X128494384Y-91670402D01*
X128494364Y-91670407D01*
X128221297Y-91763100D01*
X128221287Y-91763104D01*
X127962643Y-91890653D01*
X127722851Y-92050878D01*
X127694390Y-92075837D01*
X128120819Y-92502266D01*
X127930130Y-92665130D01*
X127767266Y-92855819D01*
X127340837Y-92429390D01*
X127315878Y-92457851D01*
X127155653Y-92697643D01*
X127028104Y-92956287D01*
X127028100Y-92956297D01*
X126935407Y-93229364D01*
X126935402Y-93229384D01*
X126879144Y-93512215D01*
X126879140Y-93512242D01*
X126860280Y-93799992D01*
X126860280Y-93800007D01*
X103829359Y-93800007D01*
X102084743Y-92055391D01*
X102051258Y-91994068D01*
X102049686Y-91950062D01*
X102051133Y-91940000D01*
X102032697Y-91811774D01*
X101978882Y-91693937D01*
X101894049Y-91596033D01*
X101785069Y-91525996D01*
X101785065Y-91525994D01*
X101785064Y-91525994D01*
X101660774Y-91489500D01*
X101660772Y-91489500D01*
X101531228Y-91489500D01*
X101531226Y-91489500D01*
X101406935Y-91525994D01*
X101406932Y-91525995D01*
X101406931Y-91525996D01*
X101355677Y-91558934D01*
X101297950Y-91596033D01*
X101213118Y-91693937D01*
X101213117Y-91693938D01*
X101159302Y-91811774D01*
X101140867Y-91940000D01*
X94165960Y-91940000D01*
X94159609Y-91931469D01*
X94025214Y-91818698D01*
X94025212Y-91818697D01*
X93868437Y-91739961D01*
X93868433Y-91739960D01*
X93697721Y-91699500D01*
X93566291Y-91699500D01*
X93461854Y-91711707D01*
X93435743Y-91714759D01*
X93435740Y-91714760D01*
X93270884Y-91774762D01*
X93270880Y-91774764D01*
X93124306Y-91871167D01*
X93124305Y-91871168D01*
X93003910Y-91998778D01*
X92916188Y-92150718D01*
X92865870Y-92318789D01*
X92865869Y-92318794D01*
X92855668Y-92493933D01*
X86359213Y-92493933D01*
X86364331Y-92406065D01*
X86333865Y-92233289D01*
X86264377Y-92072196D01*
X86261421Y-92068226D01*
X86159609Y-91931469D01*
X86025214Y-91818698D01*
X86025212Y-91818697D01*
X85868437Y-91739961D01*
X85868433Y-91739960D01*
X85697721Y-91699500D01*
X85566291Y-91699500D01*
X85461854Y-91711707D01*
X85435743Y-91714759D01*
X85435740Y-91714760D01*
X85270884Y-91774762D01*
X85270880Y-91774764D01*
X85124306Y-91871167D01*
X85124305Y-91871168D01*
X85003910Y-91998778D01*
X84916188Y-92150718D01*
X84865870Y-92318789D01*
X84865869Y-92318794D01*
X84855668Y-92493933D01*
X51800500Y-92493933D01*
X51800500Y-91342500D01*
X114027308Y-91342500D01*
X114046053Y-91616562D01*
X114046054Y-91616564D01*
X114101940Y-91885506D01*
X114101945Y-91885523D01*
X114193935Y-92144357D01*
X114320314Y-92388257D01*
X114452881Y-92576063D01*
X114960973Y-92067971D01*
X115040338Y-92181316D01*
X115201184Y-92342162D01*
X115314526Y-92421525D01*
X114807595Y-92928456D01*
X114879323Y-92986811D01*
X115114032Y-93129540D01*
X115365986Y-93238979D01*
X115630500Y-93313093D01*
X115630506Y-93313094D01*
X115902648Y-93350500D01*
X116177352Y-93350500D01*
X116449493Y-93313094D01*
X116449499Y-93313093D01*
X116714013Y-93238979D01*
X116965967Y-93129540D01*
X117200673Y-92986813D01*
X117200687Y-92986803D01*
X117272403Y-92928456D01*
X116765473Y-92421525D01*
X116878816Y-92342162D01*
X117039662Y-92181316D01*
X117119025Y-92067972D01*
X117627117Y-92576064D01*
X117627118Y-92576063D01*
X117759678Y-92388269D01*
X117759682Y-92388263D01*
X117886064Y-92144357D01*
X117978054Y-91885523D01*
X117978059Y-91885506D01*
X118033945Y-91616564D01*
X118033946Y-91616562D01*
X118052691Y-91342500D01*
X118033946Y-91068437D01*
X118033945Y-91068435D01*
X117978059Y-90799493D01*
X117978054Y-90799476D01*
X117886064Y-90540642D01*
X117759682Y-90296736D01*
X117759678Y-90296730D01*
X117627117Y-90108934D01*
X117119025Y-90617026D01*
X117039662Y-90503684D01*
X116878816Y-90342838D01*
X116765472Y-90263473D01*
X117272403Y-89756542D01*
X117200689Y-89698198D01*
X117200677Y-89698190D01*
X116965967Y-89555459D01*
X116714013Y-89446020D01*
X116449499Y-89371906D01*
X116449493Y-89371905D01*
X116177352Y-89334500D01*
X115902648Y-89334500D01*
X115630506Y-89371905D01*
X115630500Y-89371906D01*
X115365986Y-89446020D01*
X115114032Y-89555459D01*
X114879325Y-89698188D01*
X114879316Y-89698194D01*
X114807595Y-89756542D01*
X115314527Y-90263473D01*
X115201184Y-90342838D01*
X115040338Y-90503684D01*
X114960974Y-90617027D01*
X114452881Y-90108934D01*
X114452880Y-90108934D01*
X114320316Y-90296738D01*
X114193935Y-90540642D01*
X114101945Y-90799476D01*
X114101940Y-90799493D01*
X114046054Y-91068435D01*
X114046053Y-91068437D01*
X114027308Y-91342500D01*
X51800500Y-91342500D01*
X51800500Y-89054500D01*
X51820185Y-88987461D01*
X51872989Y-88941706D01*
X51924500Y-88930500D01*
X158175500Y-88930500D01*
X158242539Y-88950185D01*
G37*
%TD.AperFunction*%
%TA.AperFunction,Conductor*%
G36*
X132416346Y-151654001D02*
G01*
X132454772Y-151654000D01*
X132470944Y-151655059D01*
X132507797Y-151659910D01*
X132539058Y-151668287D01*
X132565820Y-151679372D01*
X132593848Y-151695553D01*
X132622688Y-151717682D01*
X132623289Y-151718143D01*
X132635481Y-151728834D01*
X132648094Y-151741446D01*
X133416523Y-152509875D01*
X133450008Y-152571198D01*
X133445024Y-152640890D01*
X133403152Y-152696823D01*
X133337688Y-152721240D01*
X133304655Y-152719174D01*
X133188137Y-152695999D01*
X133188135Y-152695999D01*
X133112889Y-152696000D01*
X130083654Y-152696000D01*
X130083642Y-152695999D01*
X130035226Y-152695999D01*
X130019045Y-152694939D01*
X130008723Y-152693580D01*
X129982207Y-152690089D01*
X129950940Y-152681712D01*
X129924181Y-152670628D01*
X129896150Y-152654444D01*
X129866705Y-152631851D01*
X129854508Y-152621155D01*
X129285534Y-152052181D01*
X129252049Y-151990858D01*
X129257033Y-151921166D01*
X129298905Y-151865233D01*
X129364369Y-151840816D01*
X129373215Y-151840500D01*
X129494773Y-151840500D01*
X129494773Y-151840499D01*
X129619069Y-151804004D01*
X129728049Y-151733967D01*
X129737445Y-151723124D01*
X129760255Y-151696799D01*
X129819032Y-151659023D01*
X129853969Y-151654000D01*
X132416343Y-151654000D01*
X132416346Y-151654001D01*
G37*
%TD.AperFunction*%
%TD*%
M02*
