%TF.GenerationSoftware,KiCad,Pcbnew,7.0.11*%
%TF.CreationDate,2024-03-22T09:44:27+01:00*%
%TF.ProjectId,kim-1-programmable-memory,6b696d2d-312d-4707-926f-6772616d6d61,rev?*%
%TF.SameCoordinates,Original*%
%TF.FileFunction,Copper,L2,Bot*%
%TF.FilePolarity,Positive*%
%FSLAX46Y46*%
G04 Gerber Fmt 4.6, Leading zero omitted, Abs format (unit mm)*
G04 Created by KiCad (PCBNEW 7.0.11) date 2024-03-22 09:44:27*
%MOMM*%
%LPD*%
G01*
G04 APERTURE LIST*
G04 Aperture macros list*
%AMFreePoly0*
4,1,22,-1.300000,3.270000,1.300000,3.270000,1.300000,-1.970000,1.280250,-2.195743,1.221600,-2.414626,1.125833,-2.620000,0.995858,-2.805624,0.835624,-2.965858,0.650000,-3.095833,0.444626,-3.191600,0.225743,-3.250250,0.000000,-3.270000,-0.225743,-3.250250,-0.444626,-3.191600,-0.650000,-3.095833,-0.835624,-2.965858,-0.995858,-2.805624,-1.125833,-2.620000,-1.221600,-2.414626,-1.280250,-2.195743,
-1.300000,-1.970000,-1.300000,3.270000,-1.300000,3.270000,$1*%
G04 Aperture macros list end*
%TA.AperFunction,ComponentPad*%
%ADD10R,1.700000X1.700000*%
%TD*%
%TA.AperFunction,ComponentPad*%
%ADD11O,1.700000X1.700000*%
%TD*%
%TA.AperFunction,ConnectorPad*%
%ADD12FreePoly0,180.000000*%
%TD*%
%TA.AperFunction,ViaPad*%
%ADD13C,0.500000*%
%TD*%
%TA.AperFunction,ViaPad*%
%ADD14C,0.600000*%
%TD*%
%TA.AperFunction,ViaPad*%
%ADD15C,1.600000*%
%TD*%
%TA.AperFunction,Conductor*%
%ADD16C,0.200000*%
%TD*%
G04 APERTURE END LIST*
D10*
%TO.P,J1,1,Pin_1*%
%TO.N,/~{DECEN}*%
X140650000Y-153380000D03*
D11*
%TO.P,J1,2,Pin_2*%
%TO.N,Net-(J1-Pin_2)*%
X140650000Y-150840000D03*
%TD*%
D12*
%TO.P,J3,A,A0*%
%TO.N,/AB0*%
X65420000Y-159880000D03*
%TO.P,J3,B,A1*%
%TO.N,/AB1*%
X69380000Y-159880000D03*
%TO.P,J3,C,A2*%
%TO.N,/AB2*%
X73340000Y-159880000D03*
%TO.P,J3,D,A3*%
%TO.N,/AB3*%
X77300000Y-159880000D03*
%TO.P,J3,E,A4*%
%TO.N,/AB4*%
X81260000Y-159880000D03*
%TO.P,J3,F,A5*%
%TO.N,/AB5*%
X85220000Y-159880000D03*
%TO.P,J3,H,A6*%
%TO.N,/AB6*%
X89180000Y-159880000D03*
%TO.P,J3,J,A7*%
%TO.N,/AB7*%
X93140000Y-159880000D03*
%TO.P,J3,K,A8*%
%TO.N,/AB8*%
X97100000Y-159880000D03*
%TO.P,J3,L,A9*%
%TO.N,/AB9*%
X101060000Y-159880000D03*
%TO.P,J3,M,A10*%
%TO.N,/AB10*%
X105020000Y-159880000D03*
%TO.P,J3,N,A11*%
%TO.N,/AB11*%
X108980000Y-159880000D03*
%TO.P,J3,P,A12*%
%TO.N,/AB12*%
X112940000Y-159880000D03*
%TO.P,J3,R,A13*%
%TO.N,/AB13*%
X116900000Y-159880000D03*
%TO.P,J3,S,A14*%
%TO.N,/AB14*%
X120860000Y-159880000D03*
%TO.P,J3,T,A15*%
%TO.N,/AB15*%
X124820000Y-159880000D03*
%TO.P,J3,U,\u00D82*%
%TO.N,unconnected-(J3-\u00D82-PadU)*%
X128780000Y-159880000D03*
%TO.P,J3,V,R/~{W}*%
%TO.N,unconnected-(J3-R{slash}~{W}-PadV)*%
X132740000Y-159880000D03*
%TO.P,J3,W,~{R}/W*%
%TO.N,unconnected-(J3-~{R}{slash}W-PadW)*%
X136700000Y-159880000D03*
%TO.P,J3,X,+16V_RAW*%
%TO.N,unconnected-(J3-+16V_RAW-PadX)*%
X140660000Y-159880000D03*
%TO.P,J3,Y,~{\u00D82}*%
%TO.N,unconnected-(J3-~{\u00D82}-PadY)*%
X144620000Y-159880000D03*
%TO.P,J3,Z,RAMRW*%
%TO.N,/RAMR~{W}*%
X148580000Y-159880000D03*
%TD*%
D13*
%TO.N,/RAM~{R}W*%
X103940000Y-148400000D03*
D14*
%TO.N,GND*%
X138440000Y-145970000D03*
X151820000Y-130320000D03*
D13*
X83935000Y-151460000D03*
D14*
X139780000Y-143170000D03*
X151820000Y-110720000D03*
X112990000Y-114020000D03*
D13*
X85210000Y-139270000D03*
X74740000Y-151790000D03*
D14*
X139120000Y-110720000D03*
D13*
X115365000Y-148600000D03*
X68390000Y-151790000D03*
X85808909Y-151831091D03*
D14*
X141040000Y-137820000D03*
D13*
X65210000Y-139320000D03*
D15*
X148580000Y-154970000D03*
D13*
X92158909Y-151831091D03*
X87078909Y-151831091D03*
D14*
X139120000Y-115120000D03*
X149150000Y-143470000D03*
X82150000Y-143620000D03*
X120890000Y-140970000D03*
D13*
X69660000Y-151790000D03*
D14*
X145540000Y-150680000D03*
D13*
X83935000Y-148600000D03*
X94698909Y-151831091D03*
D14*
X146040000Y-139620000D03*
X62150000Y-143620000D03*
X102150000Y-143620000D03*
D13*
X73470000Y-151790000D03*
X72200000Y-151790000D03*
D14*
X128090000Y-140970000D03*
X146040000Y-141470000D03*
X113720000Y-134720000D03*
X126420000Y-110720000D03*
X126420000Y-115120000D03*
X130590000Y-140970000D03*
X123390000Y-140970000D03*
D13*
X67120000Y-151790000D03*
X63935000Y-148600000D03*
X88348909Y-151831091D03*
X136000000Y-155200000D03*
X93428909Y-151831091D03*
X95365000Y-151460000D03*
X65850000Y-151790000D03*
X75365000Y-148600000D03*
X95365000Y-148600000D03*
D14*
X139120000Y-130320000D03*
D13*
X63935000Y-151460000D03*
D14*
X114440000Y-114020000D03*
X146040000Y-136920000D03*
X113720000Y-130320000D03*
D13*
X90888909Y-151831091D03*
D14*
X149150000Y-147770000D03*
X139120000Y-134720000D03*
X143740000Y-150680000D03*
D13*
X75365000Y-151460000D03*
D14*
X151820000Y-115120000D03*
D13*
X89618909Y-151831091D03*
D14*
X136690000Y-139720000D03*
X146040000Y-138720000D03*
X126420000Y-130670000D03*
D13*
X141990000Y-135520000D03*
X70930000Y-151790000D03*
D14*
X134840000Y-139720000D03*
X151820000Y-134720000D03*
X126420000Y-134720000D03*
D13*
%TO.N,/AB0*%
X65205000Y-151460000D03*
%TO.N,/AB1*%
X66475000Y-151460000D03*
%TO.N,/AB2*%
X67745000Y-151460000D03*
%TO.N,/AB3*%
X69015000Y-151460000D03*
%TO.N,/AB4*%
X70285000Y-151460000D03*
%TO.N,/AB5*%
X71555000Y-151460000D03*
%TO.N,/AB6*%
X72825000Y-151460000D03*
%TO.N,/AB7*%
X74095000Y-151460000D03*
%TO.N,/AB8*%
X85205000Y-151460000D03*
%TO.N,/AB9*%
X86475000Y-151460000D03*
%TO.N,/AB10*%
X87745000Y-151460000D03*
%TO.N,/AB11*%
X89015000Y-151460000D03*
%TO.N,/AB12*%
X90285000Y-151460000D03*
%TO.N,/AB13*%
X91555000Y-151460000D03*
%TO.N,/AB14*%
X92825000Y-151460000D03*
%TO.N,/AB15*%
X94095000Y-151460000D03*
%TO.N,/RAMR~{W}*%
X136700000Y-155200000D03*
%TO.N,/RAM~{R}W*%
X141660000Y-134870000D03*
X138440000Y-143270000D03*
%TD*%
D16*
%TO.N,/RAMR~{W}*%
X148579995Y-156817107D02*
G75*
G03*
X148433554Y-156463554I-499995J7D01*
G01*
X147316450Y-155346444D02*
G75*
G03*
X146962893Y-155200000I-353550J-353556D01*
G01*
%TO.N,/RAM~{R}W*%
X138586444Y-137943550D02*
G75*
G03*
X138440000Y-138297107I353556J-353550D01*
G01*
%TO.N,/AB13*%
X92358647Y-152888641D02*
G75*
G03*
X92712198Y-153035091I353553J353541D01*
G01*
%TO.N,/AB15*%
X120737547Y-152527527D02*
G75*
G03*
X120383984Y-152381091I-353547J-353573D01*
G01*
X124819995Y-156817107D02*
G75*
G03*
X124673553Y-156463553I-499995J7D01*
G01*
%TO.N,/AB12*%
X90285005Y-151807893D02*
G75*
G03*
X90431446Y-152161446I499995J-7D01*
G01*
X91485647Y-153215641D02*
G75*
G03*
X91839198Y-153362091I353553J353541D01*
G01*
%TO.N,/AB15*%
X94324647Y-152234641D02*
G75*
G03*
X94678198Y-152381091I353553J353541D01*
G01*
%TO.N,/AB13*%
X91555005Y-151877893D02*
G75*
G03*
X91701446Y-152231446I499995J-7D01*
G01*
X113471547Y-153181527D02*
G75*
G03*
X113117984Y-153035091I-353547J-353573D01*
G01*
%TO.N,/AB15*%
X94095005Y-151797893D02*
G75*
G03*
X94241446Y-152151446I499995J-7D01*
G01*
%TO.N,/AB11*%
X108979995Y-156817107D02*
G75*
G03*
X108833553Y-156463553I-499995J7D01*
G01*
X89015005Y-151837893D02*
G75*
G03*
X89161446Y-152191446I499995J-7D01*
G01*
%TO.N,/AB10*%
X89589647Y-153869641D02*
G75*
G03*
X89943198Y-154016091I353553J353541D01*
G01*
%TO.N,/AB14*%
X93381647Y-152561641D02*
G75*
G03*
X93735198Y-152708091I353553J353541D01*
G01*
%TO.N,/AB13*%
X116899995Y-156817107D02*
G75*
G03*
X116753553Y-156463553I-499995J7D01*
G01*
%TO.N,/AB12*%
X109838547Y-153508527D02*
G75*
G03*
X109484984Y-153362091I-353547J-353573D01*
G01*
%TO.N,/AB11*%
X90512647Y-153542641D02*
G75*
G03*
X90866198Y-153689091I353553J353541D01*
G01*
X106205547Y-153835527D02*
G75*
G03*
X105851984Y-153689091I-353547J-353573D01*
G01*
%TO.N,/AB14*%
X117104547Y-152854527D02*
G75*
G03*
X116750984Y-152708091I-353547J-353573D01*
G01*
X120859995Y-156817107D02*
G75*
G03*
X120713553Y-156463553I-499995J7D01*
G01*
%TO.N,/AB12*%
X112939995Y-156817107D02*
G75*
G03*
X112793553Y-156463553I-499995J7D01*
G01*
%TO.N,/AB10*%
X87745005Y-151817893D02*
G75*
G03*
X87891446Y-152171446I499995J-7D01*
G01*
%TO.N,/AB9*%
X86475005Y-151797893D02*
G75*
G03*
X86621446Y-152151446I499995J-7D01*
G01*
%TO.N,/AB10*%
X102572547Y-154162527D02*
G75*
G03*
X102218984Y-154016091I-353547J-353573D01*
G01*
X105019995Y-156817107D02*
G75*
G03*
X104873553Y-156463553I-499995J7D01*
G01*
%TO.N,/AB14*%
X92825005Y-151797893D02*
G75*
G03*
X92971446Y-152151446I499995J-7D01*
G01*
%TO.N,/AB5*%
X85219995Y-156817107D02*
G75*
G03*
X85073553Y-156463553I-499995J7D01*
G01*
%TO.N,/AB4*%
X81259995Y-156817107D02*
G75*
G03*
X81113553Y-156463553I-499995J7D01*
G01*
%TO.N,/AB2*%
X67745005Y-151737893D02*
G75*
G03*
X67891446Y-152091446I499995J-7D01*
G01*
%TO.N,/AB6*%
X89179995Y-158467107D02*
G75*
G03*
X89033553Y-158113553I-499995J7D01*
G01*
%TO.N,/AB3*%
X69015005Y-151747893D02*
G75*
G03*
X69161446Y-152101446I499995J-7D01*
G01*
X70253550Y-153193556D02*
G75*
G03*
X70607107Y-153340000I353550J353556D01*
G01*
%TO.N,/AB9*%
X88666550Y-154196556D02*
G75*
G03*
X89020107Y-154343000I353550J353556D01*
G01*
X98939449Y-154489443D02*
G75*
G03*
X98585893Y-154343000I-353549J-353557D01*
G01*
%TO.N,/AB6*%
X73492741Y-152590547D02*
G75*
G03*
X73846289Y-152737000I353559J353547D01*
G01*
X83803449Y-152883443D02*
G75*
G03*
X83449893Y-152737000I-353549J-353557D01*
G01*
%TO.N,/AB5*%
X71554969Y-151715445D02*
G75*
G03*
X71701447Y-152068997I500031J45D01*
G01*
X72550024Y-152917530D02*
G75*
G03*
X72903555Y-153064000I353576J353530D01*
G01*
X81820449Y-153210443D02*
G75*
G03*
X81466893Y-153064000I-353549J-353557D01*
G01*
%TO.N,/AB7*%
X93139995Y-156817107D02*
G75*
G03*
X92993553Y-156463553I-499995J7D01*
G01*
%TO.N,/AB0*%
X65205005Y-159457893D02*
G75*
G03*
X65351446Y-159811446I499995J-7D01*
G01*
%TO.N,/AB1*%
X66475005Y-151727893D02*
G75*
G03*
X66621446Y-152081446I499995J-7D01*
G01*
%TO.N,/AB9*%
X101059995Y-156817107D02*
G75*
G03*
X100913553Y-156463553I-499995J7D01*
G01*
%TO.N,/AB8*%
X95306449Y-154816443D02*
G75*
G03*
X94952893Y-154670000I-353549J-353557D01*
G01*
%TO.N,/AB4*%
X71584550Y-153244556D02*
G75*
G03*
X71938107Y-153391000I353550J353556D01*
G01*
X78187449Y-153537443D02*
G75*
G03*
X77833893Y-153391000I-353549J-353557D01*
G01*
%TO.N,/AB8*%
X97099995Y-156817107D02*
G75*
G03*
X96953553Y-156463553I-499995J7D01*
G01*
X85205005Y-151827893D02*
G75*
G03*
X85351446Y-152181446I499995J-7D01*
G01*
X87693550Y-154523556D02*
G75*
G03*
X88047107Y-154670000I353550J353556D01*
G01*
%TO.N,/AB3*%
X71363975Y-153486469D02*
G75*
G03*
X71010445Y-153340000I-353575J-353531D01*
G01*
X77300031Y-159629555D02*
G75*
G03*
X77153552Y-159276002I-500031J-45D01*
G01*
%TO.N,/AB7*%
X84306449Y-152486443D02*
G75*
G03*
X83952893Y-152340000I-353549J-353557D01*
G01*
%TO.N,/AB6*%
X72824993Y-151715711D02*
G75*
G03*
X72971447Y-152069263I500007J11D01*
G01*
%TO.N,/AB2*%
X73339995Y-156377107D02*
G75*
G03*
X73193553Y-156023553I-499995J7D01*
G01*
%TO.N,/AB4*%
X70285005Y-151737893D02*
G75*
G03*
X70431446Y-152091446I499995J-7D01*
G01*
%TO.N,/AB7*%
X86693550Y-154873556D02*
G75*
G03*
X87047107Y-155020000I353550J353556D01*
G01*
X91696449Y-155166443D02*
G75*
G03*
X91342893Y-155020000I-353549J-353557D01*
G01*
%TO.N,/AB2*%
X70353550Y-154553556D02*
G75*
G03*
X70707107Y-154700000I353550J353556D01*
G01*
X72016449Y-154846443D02*
G75*
G03*
X71662893Y-154700000I-353549J-353557D01*
G01*
%TO.N,/AB1*%
X69379995Y-155047107D02*
G75*
G03*
X69233553Y-154693553I-499995J7D01*
G01*
%TO.N,/AB7*%
X74094993Y-151715711D02*
G75*
G03*
X74241447Y-152069263I500007J11D01*
G01*
X74365741Y-152193547D02*
G75*
G03*
X74719289Y-152340000I353559J353547D01*
G01*
%TO.N,/RAM~{R}W*%
X107647107Y-144900005D02*
G75*
G03*
X107293554Y-145046446I-7J-499995D01*
G01*
X136602893Y-144899995D02*
G75*
G03*
X136956447Y-144753553I7J499995D01*
G01*
X136956447Y-144753553D02*
X138440000Y-143270000D01*
X107647107Y-144900000D02*
X136602893Y-144900000D01*
X103940000Y-148400000D02*
X107293554Y-145046446D01*
%TO.N,/RAMR~{W}*%
X148580000Y-156817107D02*
X148580000Y-159880000D01*
X147316447Y-155346447D02*
X148433554Y-156463554D01*
X136700000Y-155200000D02*
X146962893Y-155200000D01*
%TO.N,/AB0*%
X65420000Y-159880000D02*
X65351446Y-159811446D01*
X65205000Y-159457893D02*
X65205000Y-151460000D01*
%TO.N,/AB1*%
X66475000Y-151727893D02*
X66475000Y-151460000D01*
X69233553Y-154693553D02*
X66621446Y-152081446D01*
X69380000Y-159880000D02*
X69380000Y-155047107D01*
%TO.N,/AB2*%
X70353553Y-154553553D02*
X67891446Y-152091446D01*
X71662893Y-154700000D02*
X70707107Y-154700000D01*
X73340000Y-159880000D02*
X73340000Y-156377107D01*
X73193553Y-156023553D02*
X72016446Y-154846446D01*
X67745000Y-151737893D02*
X67745000Y-151460000D01*
%TO.N,/AB3*%
X69015000Y-151747893D02*
X69015000Y-151460000D01*
X77153553Y-159276001D02*
X71363998Y-153486446D01*
X70253553Y-153193553D02*
X69161446Y-152101446D01*
X71010445Y-153340000D02*
X70607107Y-153340000D01*
X77300000Y-159880000D02*
X77300000Y-159629555D01*
%TO.N,/AB4*%
X70285000Y-151737893D02*
X70285000Y-151460000D01*
X71584553Y-153244553D02*
X70431446Y-152091446D01*
X77833893Y-153391000D02*
X71938107Y-153391000D01*
X81113553Y-156463553D02*
X78187446Y-153537446D01*
X81260000Y-159880000D02*
X81260000Y-156817107D01*
%TO.N,/AB5*%
X81466893Y-153064000D02*
X72903555Y-153064000D01*
X72550001Y-152917553D02*
X71701446Y-152068998D01*
X85220000Y-159880000D02*
X85220000Y-156817107D01*
X85073553Y-156463553D02*
X81820446Y-153210446D01*
X71555000Y-151715445D02*
X71555000Y-151460000D01*
%TO.N,/AB6*%
X72825000Y-151715711D02*
X72825000Y-151460000D01*
X83449893Y-152737000D02*
X73846289Y-152737000D01*
X89180000Y-159880000D02*
X89180000Y-158467107D01*
X73492735Y-152590553D02*
X72971446Y-152069264D01*
X89033553Y-158113553D02*
X83803446Y-152883446D01*
%TO.N,/AB7*%
X74365735Y-152193553D02*
X74241446Y-152069264D01*
X92993553Y-156463553D02*
X91696446Y-155166446D01*
X91342893Y-155020000D02*
X87047107Y-155020000D01*
X93140000Y-159880000D02*
X93140000Y-156817107D01*
X86693553Y-154873553D02*
X84306446Y-152486446D01*
X74095000Y-151715711D02*
X74095000Y-151460000D01*
X83952893Y-152340000D02*
X74719289Y-152340000D01*
%TO.N,/AB8*%
X96953553Y-156463553D02*
X95306446Y-154816446D01*
X94952893Y-154670000D02*
X88047107Y-154670000D01*
X87693553Y-154523553D02*
X85351446Y-152181446D01*
X85205000Y-151827893D02*
X85205000Y-151460000D01*
X97100000Y-159880000D02*
X97100000Y-156817107D01*
%TO.N,/AB9*%
X101060000Y-159880000D02*
X101060000Y-156817107D01*
X100913553Y-156463553D02*
X98939446Y-154489446D01*
X98585893Y-154343000D02*
X89020107Y-154343000D01*
X86475000Y-151797893D02*
X86475000Y-151460000D01*
X88666553Y-154196553D02*
X86621446Y-152151446D01*
%TO.N,/AB10*%
X104873553Y-156463553D02*
X102572537Y-154162537D01*
X102218984Y-154016091D02*
X89943198Y-154016091D01*
X87745000Y-151817893D02*
X87745000Y-151460000D01*
X89589644Y-153869644D02*
X87891446Y-152171446D01*
X105020000Y-159880000D02*
X105020000Y-156817107D01*
%TO.N,/AB11*%
X89015000Y-151837893D02*
X89015000Y-151460000D01*
X105851984Y-153689091D02*
X90866198Y-153689091D01*
X108980000Y-159880000D02*
X108980000Y-156817107D01*
X108833553Y-156463553D02*
X106205537Y-153835537D01*
X90512644Y-153542644D02*
X89161446Y-152191446D01*
%TO.N,/AB12*%
X112793553Y-156463553D02*
X109838537Y-153508537D01*
X109484984Y-153362091D02*
X91839198Y-153362091D01*
X91485644Y-153215644D02*
X90431446Y-152161446D01*
X90285000Y-151807893D02*
X90285000Y-151460000D01*
X112940000Y-159880000D02*
X112940000Y-156817107D01*
%TO.N,/AB13*%
X113117984Y-153035091D02*
X92712198Y-153035091D01*
X116900000Y-159880000D02*
X116900000Y-156817107D01*
X116753553Y-156463553D02*
X113471537Y-153181537D01*
X91555000Y-151877893D02*
X91555000Y-151460000D01*
X92358644Y-152888644D02*
X91701446Y-152231446D01*
%TO.N,/AB14*%
X93381644Y-152561644D02*
X92971446Y-152151446D01*
X92825000Y-151797893D02*
X92825000Y-151460000D01*
X120713553Y-156463553D02*
X117104537Y-152854537D01*
X120860000Y-159880000D02*
X120860000Y-156817107D01*
X116750984Y-152708091D02*
X93735198Y-152708091D01*
%TO.N,/AB15*%
X120383984Y-152381091D02*
X94678198Y-152381091D01*
X124673553Y-156463553D02*
X120737537Y-152527537D01*
X94095000Y-151797893D02*
X94095000Y-151460000D01*
X124820000Y-159880000D02*
X124820000Y-156817107D01*
X94324644Y-152234644D02*
X94241446Y-152151446D01*
%TO.N,/RAM~{R}W*%
X138440000Y-143270000D02*
X138440000Y-138297107D01*
X138586447Y-137943553D02*
X141660000Y-134870000D01*
%TD*%
%TA.AperFunction,Conductor*%
%TO.N,GND*%
G36*
X158242539Y-105720185D02*
G01*
X158288294Y-105772989D01*
X158299500Y-105824500D01*
X158299500Y-155575500D01*
X158279815Y-155642539D01*
X158227011Y-155688294D01*
X158175500Y-155699500D01*
X153858872Y-155699500D01*
X153627990Y-155729898D01*
X153598884Y-155733730D01*
X153398091Y-155787532D01*
X153345581Y-155801602D01*
X153345571Y-155801605D01*
X153103309Y-155901953D01*
X153103299Y-155901958D01*
X152876201Y-156033072D01*
X152668148Y-156192718D01*
X152580155Y-156280711D01*
X152518831Y-156314195D01*
X152492416Y-156317029D01*
X148761571Y-156315296D01*
X148694541Y-156295580D01*
X148673948Y-156278977D01*
X148631010Y-156236039D01*
X148631009Y-156236037D01*
X148608071Y-156213098D01*
X148608048Y-156213077D01*
X147569655Y-155174684D01*
X147569653Y-155174681D01*
X147561660Y-155166688D01*
X147561651Y-155166672D01*
X147484388Y-155089410D01*
X147382446Y-155015347D01*
X147270181Y-154958146D01*
X147270178Y-154958144D01*
X147150339Y-154919208D01*
X147025894Y-154899499D01*
X147025890Y-154899499D01*
X146962889Y-154899500D01*
X137092343Y-154899500D01*
X137025304Y-154879815D01*
X136998631Y-154856704D01*
X136998050Y-154856034D01*
X136998049Y-154856033D01*
X136889069Y-154785996D01*
X136889065Y-154785994D01*
X136889064Y-154785994D01*
X136764774Y-154749500D01*
X136764772Y-154749500D01*
X136635228Y-154749500D01*
X136635226Y-154749500D01*
X136510935Y-154785994D01*
X136510932Y-154785995D01*
X136510931Y-154785996D01*
X136472659Y-154810592D01*
X136401950Y-154856033D01*
X136317118Y-154953937D01*
X136317117Y-154953938D01*
X136263302Y-155071774D01*
X136244867Y-155200000D01*
X136263302Y-155328225D01*
X136317117Y-155446061D01*
X136317118Y-155446063D01*
X136368640Y-155505523D01*
X136401369Y-155543296D01*
X136401951Y-155543967D01*
X136510931Y-155614004D01*
X136555230Y-155627011D01*
X136635225Y-155650499D01*
X136635227Y-155650500D01*
X136635228Y-155650500D01*
X136764773Y-155650500D01*
X136764773Y-155650499D01*
X136889069Y-155614004D01*
X136998049Y-155543967D01*
X136998374Y-155543591D01*
X136998631Y-155543296D01*
X136999379Y-155542815D01*
X137004754Y-155538158D01*
X137005423Y-155538930D01*
X137057409Y-155505523D01*
X137092343Y-155500500D01*
X146915300Y-155500500D01*
X146915303Y-155500501D01*
X146954774Y-155500500D01*
X146970956Y-155501560D01*
X146998346Y-155505166D01*
X147029608Y-155513541D01*
X147047571Y-155520982D01*
X147075597Y-155537163D01*
X147084464Y-155543966D01*
X147097485Y-155553957D01*
X147109682Y-155564653D01*
X147648086Y-156103057D01*
X147681571Y-156164380D01*
X147676587Y-156234072D01*
X147634715Y-156290005D01*
X147569251Y-156314422D01*
X147560347Y-156314738D01*
X124990535Y-156304260D01*
X124923505Y-156284544D01*
X124902912Y-156267941D01*
X124871010Y-156236039D01*
X124871009Y-156236037D01*
X124848069Y-156213096D01*
X124848046Y-156213075D01*
X122884723Y-154249752D01*
X139599500Y-154249752D01*
X139611131Y-154308229D01*
X139611132Y-154308230D01*
X139655447Y-154374552D01*
X139721769Y-154418867D01*
X139721770Y-154418868D01*
X139780247Y-154430499D01*
X139780250Y-154430500D01*
X139780252Y-154430500D01*
X141519750Y-154430500D01*
X141519751Y-154430499D01*
X141534568Y-154427552D01*
X141578229Y-154418868D01*
X141578229Y-154418867D01*
X141578231Y-154418867D01*
X141644552Y-154374552D01*
X141688867Y-154308231D01*
X141688867Y-154308229D01*
X141688868Y-154308229D01*
X141700499Y-154249752D01*
X141700500Y-154249750D01*
X141700500Y-152510249D01*
X141700499Y-152510247D01*
X141688868Y-152451770D01*
X141688867Y-152451769D01*
X141644552Y-152385447D01*
X141578230Y-152341132D01*
X141578229Y-152341131D01*
X141519752Y-152329500D01*
X141519748Y-152329500D01*
X139780252Y-152329500D01*
X139780247Y-152329500D01*
X139721770Y-152341131D01*
X139721769Y-152341132D01*
X139655447Y-152385447D01*
X139611132Y-152451769D01*
X139611131Y-152451770D01*
X139599500Y-152510247D01*
X139599500Y-154249752D01*
X122884723Y-154249752D01*
X120990747Y-152355776D01*
X120990724Y-152355749D01*
X120986343Y-152351368D01*
X120986318Y-152351323D01*
X120905478Y-152270491D01*
X120905474Y-152270487D01*
X120803534Y-152196429D01*
X120691263Y-152139229D01*
X120691260Y-152139228D01*
X120691258Y-152139227D01*
X120571428Y-152100296D01*
X120571431Y-152100296D01*
X120446976Y-152080589D01*
X120446975Y-152080589D01*
X120383974Y-152080591D01*
X94686326Y-152080591D01*
X94670141Y-152079530D01*
X94642752Y-152075924D01*
X94611484Y-152067545D01*
X94593533Y-152060109D01*
X94565501Y-152043924D01*
X94543559Y-152027087D01*
X94531363Y-152016392D01*
X94517802Y-152002831D01*
X94503479Y-151988507D01*
X94503478Y-151988506D01*
X94499148Y-151984176D01*
X94499138Y-151984167D01*
X94459680Y-151944709D01*
X94448984Y-151932512D01*
X94434277Y-151913344D01*
X94432167Y-151910594D01*
X94416044Y-151882708D01*
X94415907Y-151882378D01*
X94408356Y-151812922D01*
X94436698Y-151753591D01*
X94477882Y-151706063D01*
X94531697Y-151588226D01*
X94550133Y-151460000D01*
X94531697Y-151331774D01*
X94477882Y-151213937D01*
X94393049Y-151116033D01*
X94284069Y-151045996D01*
X94284065Y-151045994D01*
X94284064Y-151045994D01*
X94159774Y-151009500D01*
X94159772Y-151009500D01*
X94030228Y-151009500D01*
X94030226Y-151009500D01*
X93905935Y-151045994D01*
X93905932Y-151045995D01*
X93905931Y-151045996D01*
X93854677Y-151078934D01*
X93796950Y-151116033D01*
X93712118Y-151213937D01*
X93712117Y-151213938D01*
X93658302Y-151331774D01*
X93639867Y-151460000D01*
X93658302Y-151588225D01*
X93712116Y-151706058D01*
X93712118Y-151706063D01*
X93764218Y-151766190D01*
X93793242Y-151829744D01*
X93794504Y-151847391D01*
X93794504Y-151860893D01*
X93814214Y-151985341D01*
X93853146Y-152105168D01*
X93853148Y-152105173D01*
X93853149Y-152105174D01*
X93899643Y-152196428D01*
X93910354Y-152217449D01*
X93911187Y-152218809D01*
X93911345Y-152219395D01*
X93912562Y-152221783D01*
X93912060Y-152222038D01*
X93929426Y-152286257D01*
X93908305Y-152352857D01*
X93854530Y-152397467D01*
X93805455Y-152407591D01*
X93743326Y-152407591D01*
X93727141Y-152406530D01*
X93699752Y-152402924D01*
X93668484Y-152394545D01*
X93650533Y-152387109D01*
X93622501Y-152370924D01*
X93600559Y-152354087D01*
X93588363Y-152343392D01*
X93574471Y-152329500D01*
X93560479Y-152315507D01*
X93560478Y-152315506D01*
X93556148Y-152311176D01*
X93556138Y-152311167D01*
X93189680Y-151944709D01*
X93178984Y-151932512D01*
X93164277Y-151913344D01*
X93162167Y-151910594D01*
X93146044Y-151882708D01*
X93145907Y-151882378D01*
X93138356Y-151812922D01*
X93166698Y-151753591D01*
X93207882Y-151706063D01*
X93261697Y-151588226D01*
X93280133Y-151460000D01*
X93261697Y-151331774D01*
X93207882Y-151213937D01*
X93123049Y-151116033D01*
X93014069Y-151045996D01*
X93014065Y-151045994D01*
X93014064Y-151045994D01*
X92889774Y-151009500D01*
X92889772Y-151009500D01*
X92760228Y-151009500D01*
X92760226Y-151009500D01*
X92635935Y-151045994D01*
X92635932Y-151045995D01*
X92635931Y-151045996D01*
X92584677Y-151078934D01*
X92526950Y-151116033D01*
X92442118Y-151213937D01*
X92442117Y-151213938D01*
X92388302Y-151331774D01*
X92369867Y-151460000D01*
X92388302Y-151588225D01*
X92442116Y-151706058D01*
X92442118Y-151706063D01*
X92494218Y-151766190D01*
X92523242Y-151829744D01*
X92524504Y-151847391D01*
X92524504Y-151860893D01*
X92544214Y-151985341D01*
X92583146Y-152105168D01*
X92640350Y-152217443D01*
X92640356Y-152217451D01*
X92714407Y-152319376D01*
X92714424Y-152319395D01*
X92758956Y-152363927D01*
X92758957Y-152363929D01*
X92810048Y-152415021D01*
X92810054Y-152415025D01*
X92917939Y-152522910D01*
X92951424Y-152584233D01*
X92946440Y-152653925D01*
X92904568Y-152709858D01*
X92839104Y-152734275D01*
X92830258Y-152734591D01*
X92720326Y-152734591D01*
X92704141Y-152733530D01*
X92676752Y-152729924D01*
X92645484Y-152721545D01*
X92627533Y-152714109D01*
X92599500Y-152697924D01*
X92577557Y-152681086D01*
X92565364Y-152670392D01*
X91919684Y-152024713D01*
X91908987Y-152012515D01*
X91892166Y-151990592D01*
X91875984Y-151962565D01*
X91868547Y-151944609D01*
X91860172Y-151913352D01*
X91856559Y-151885904D01*
X91855500Y-151869736D01*
X91855500Y-151855737D01*
X91855500Y-151847383D01*
X91875185Y-151780347D01*
X91885778Y-151766194D01*
X91937882Y-151706063D01*
X91991697Y-151588226D01*
X92010133Y-151460000D01*
X91991697Y-151331774D01*
X91937882Y-151213937D01*
X91853049Y-151116033D01*
X91744069Y-151045996D01*
X91744065Y-151045994D01*
X91744064Y-151045994D01*
X91619774Y-151009500D01*
X91619772Y-151009500D01*
X91490228Y-151009500D01*
X91490226Y-151009500D01*
X91365935Y-151045994D01*
X91365932Y-151045995D01*
X91365931Y-151045996D01*
X91314677Y-151078934D01*
X91256950Y-151116033D01*
X91172118Y-151213937D01*
X91172117Y-151213938D01*
X91118302Y-151331774D01*
X91099867Y-151460000D01*
X91118302Y-151588225D01*
X91172116Y-151706058D01*
X91172118Y-151706063D01*
X91224214Y-151766186D01*
X91253238Y-151829738D01*
X91254500Y-151847386D01*
X91254500Y-151910811D01*
X91254504Y-151910908D01*
X91254504Y-151940893D01*
X91274214Y-152065341D01*
X91313146Y-152185168D01*
X91370350Y-152297443D01*
X91370356Y-152297451D01*
X91447274Y-152403321D01*
X91446186Y-152404110D01*
X91472258Y-152462293D01*
X91461821Y-152531379D01*
X91415691Y-152583855D01*
X91348513Y-152603061D01*
X91281615Y-152582899D01*
X91261716Y-152566745D01*
X90649680Y-151954709D01*
X90638984Y-151942512D01*
X90622168Y-151920596D01*
X90605986Y-151892568D01*
X90603047Y-151885473D01*
X90595581Y-151816008D01*
X90623896Y-151756826D01*
X90667882Y-151706063D01*
X90721697Y-151588226D01*
X90740133Y-151460000D01*
X90721697Y-151331774D01*
X90667882Y-151213937D01*
X90583049Y-151116033D01*
X90474069Y-151045996D01*
X90474065Y-151045994D01*
X90474064Y-151045994D01*
X90349774Y-151009500D01*
X90349772Y-151009500D01*
X90220228Y-151009500D01*
X90220226Y-151009500D01*
X90095935Y-151045994D01*
X90095932Y-151045995D01*
X90095931Y-151045996D01*
X90044677Y-151078934D01*
X89986950Y-151116033D01*
X89902118Y-151213937D01*
X89902117Y-151213938D01*
X89848302Y-151331774D01*
X89829867Y-151460000D01*
X89848302Y-151588225D01*
X89902116Y-151706058D01*
X89902118Y-151706063D01*
X89954218Y-151766190D01*
X89983242Y-151829744D01*
X89984504Y-151847391D01*
X89984504Y-151870893D01*
X90004214Y-151995341D01*
X90043146Y-152115168D01*
X90100350Y-152227443D01*
X90100356Y-152227451D01*
X90174407Y-152329376D01*
X90174424Y-152329395D01*
X90218956Y-152373927D01*
X90218957Y-152373929D01*
X90259676Y-152414648D01*
X90259682Y-152414653D01*
X91021939Y-153176910D01*
X91055424Y-153238233D01*
X91050440Y-153307925D01*
X91008568Y-153363858D01*
X90943104Y-153388275D01*
X90934258Y-153388591D01*
X90874326Y-153388591D01*
X90858141Y-153387530D01*
X90830752Y-153383924D01*
X90799484Y-153375545D01*
X90781533Y-153368109D01*
X90753501Y-153351924D01*
X90731559Y-153335087D01*
X90719363Y-153324392D01*
X90687148Y-153292176D01*
X90687138Y-153292167D01*
X89379680Y-151984709D01*
X89368984Y-151972512D01*
X89362997Y-151964709D01*
X89352167Y-151950594D01*
X89335984Y-151922564D01*
X89333947Y-151917645D01*
X89328548Y-151904611D01*
X89320171Y-151873348D01*
X89318577Y-151861236D01*
X89329346Y-151792203D01*
X89347805Y-151763855D01*
X89397879Y-151706067D01*
X89397879Y-151706065D01*
X89397882Y-151706063D01*
X89451697Y-151588226D01*
X89470133Y-151460000D01*
X89451697Y-151331774D01*
X89397882Y-151213937D01*
X89313049Y-151116033D01*
X89204069Y-151045996D01*
X89204065Y-151045994D01*
X89204064Y-151045994D01*
X89079774Y-151009500D01*
X89079772Y-151009500D01*
X88950228Y-151009500D01*
X88950226Y-151009500D01*
X88825935Y-151045994D01*
X88825932Y-151045995D01*
X88825931Y-151045996D01*
X88774677Y-151078934D01*
X88716950Y-151116033D01*
X88632118Y-151213937D01*
X88632117Y-151213938D01*
X88578302Y-151331774D01*
X88559867Y-151460000D01*
X88578302Y-151588225D01*
X88632116Y-151706058D01*
X88632118Y-151706063D01*
X88684214Y-151766186D01*
X88713238Y-151829738D01*
X88714500Y-151847386D01*
X88714500Y-151870811D01*
X88714504Y-151870908D01*
X88714504Y-151900893D01*
X88734214Y-152025341D01*
X88773146Y-152145168D01*
X88830350Y-152257443D01*
X88830356Y-152257451D01*
X88904407Y-152359376D01*
X88904424Y-152359395D01*
X88948956Y-152403927D01*
X88948957Y-152403929D01*
X89000048Y-152455021D01*
X89000054Y-152455025D01*
X90048938Y-153503910D01*
X90082423Y-153565233D01*
X90077439Y-153634925D01*
X90035567Y-153690858D01*
X89970103Y-153715275D01*
X89961257Y-153715591D01*
X89951326Y-153715591D01*
X89935141Y-153714530D01*
X89907752Y-153710924D01*
X89876484Y-153702545D01*
X89858533Y-153695109D01*
X89830501Y-153678924D01*
X89808559Y-153662087D01*
X89796363Y-153651392D01*
X89764148Y-153619176D01*
X89764138Y-153619167D01*
X88109680Y-151964709D01*
X88098984Y-151952512D01*
X88095074Y-151947416D01*
X88082167Y-151930594D01*
X88065984Y-151902564D01*
X88060244Y-151888707D01*
X88052779Y-151819238D01*
X88081096Y-151760057D01*
X88127879Y-151706067D01*
X88127879Y-151706065D01*
X88127882Y-151706063D01*
X88181697Y-151588226D01*
X88200133Y-151460000D01*
X88181697Y-151331774D01*
X88127882Y-151213937D01*
X88043049Y-151116033D01*
X87934069Y-151045996D01*
X87934065Y-151045994D01*
X87934064Y-151045994D01*
X87809774Y-151009500D01*
X87809772Y-151009500D01*
X87680228Y-151009500D01*
X87680226Y-151009500D01*
X87555935Y-151045994D01*
X87555932Y-151045995D01*
X87555931Y-151045996D01*
X87504677Y-151078934D01*
X87446950Y-151116033D01*
X87362118Y-151213937D01*
X87362117Y-151213938D01*
X87308302Y-151331774D01*
X87289867Y-151460000D01*
X87308302Y-151588225D01*
X87362116Y-151706058D01*
X87362118Y-151706063D01*
X87414214Y-151766186D01*
X87443238Y-151829738D01*
X87444012Y-151840566D01*
X87444072Y-151840562D01*
X87444076Y-151840610D01*
X87444160Y-151842631D01*
X87444500Y-151847386D01*
X87444500Y-151850811D01*
X87444504Y-151850908D01*
X87444504Y-151880893D01*
X87464214Y-152005341D01*
X87503146Y-152125168D01*
X87560350Y-152237443D01*
X87560356Y-152237451D01*
X87634407Y-152339376D01*
X87634424Y-152339395D01*
X87678956Y-152383927D01*
X87678957Y-152383929D01*
X87730048Y-152435021D01*
X87730054Y-152435025D01*
X89125846Y-153830818D01*
X89159331Y-153892141D01*
X89154347Y-153961833D01*
X89112475Y-154017766D01*
X89047011Y-154042183D01*
X89038165Y-154042499D01*
X89028224Y-154042499D01*
X89012041Y-154041438D01*
X88984654Y-154037833D01*
X88953385Y-154029455D01*
X88935435Y-154022020D01*
X88907404Y-154005837D01*
X88885511Y-153989039D01*
X88873313Y-153978342D01*
X86839680Y-151944709D01*
X86828984Y-151932512D01*
X86814277Y-151913344D01*
X86812167Y-151910594D01*
X86796044Y-151882708D01*
X86795907Y-151882378D01*
X86788356Y-151812922D01*
X86816698Y-151753591D01*
X86857882Y-151706063D01*
X86911697Y-151588226D01*
X86930133Y-151460000D01*
X86911697Y-151331774D01*
X86857882Y-151213937D01*
X86773049Y-151116033D01*
X86664069Y-151045996D01*
X86664065Y-151045994D01*
X86664064Y-151045994D01*
X86539774Y-151009500D01*
X86539772Y-151009500D01*
X86410228Y-151009500D01*
X86410226Y-151009500D01*
X86285935Y-151045994D01*
X86285932Y-151045995D01*
X86285931Y-151045996D01*
X86234677Y-151078934D01*
X86176950Y-151116033D01*
X86092118Y-151213937D01*
X86092117Y-151213938D01*
X86038302Y-151331774D01*
X86019867Y-151460000D01*
X86038302Y-151588225D01*
X86092116Y-151706058D01*
X86092118Y-151706063D01*
X86144218Y-151766190D01*
X86173242Y-151829744D01*
X86174504Y-151847391D01*
X86174504Y-151860893D01*
X86194214Y-151985341D01*
X86233146Y-152105168D01*
X86290350Y-152217443D01*
X86290356Y-152217451D01*
X86364407Y-152319376D01*
X86364424Y-152319395D01*
X86408956Y-152363927D01*
X86408957Y-152363929D01*
X86449676Y-152404648D01*
X86449682Y-152404653D01*
X88202848Y-154157819D01*
X88236333Y-154219142D01*
X88231349Y-154288834D01*
X88189477Y-154344767D01*
X88124013Y-154369184D01*
X88115167Y-154369500D01*
X88104697Y-154369500D01*
X88104685Y-154369499D01*
X88055224Y-154369499D01*
X88039041Y-154368438D01*
X88011654Y-154364833D01*
X87980385Y-154356455D01*
X87962435Y-154349020D01*
X87934403Y-154332837D01*
X87922087Y-154323387D01*
X87912512Y-154316040D01*
X87900317Y-154305345D01*
X85569684Y-151974713D01*
X85558987Y-151962515D01*
X85542166Y-151940592D01*
X85525984Y-151912565D01*
X85518547Y-151894609D01*
X85510174Y-151863369D01*
X85509722Y-151859937D01*
X85520478Y-151790906D01*
X85538947Y-151762537D01*
X85587879Y-151706067D01*
X85587879Y-151706065D01*
X85587882Y-151706063D01*
X85641697Y-151588226D01*
X85660133Y-151460000D01*
X85641697Y-151331774D01*
X85587882Y-151213937D01*
X85503049Y-151116033D01*
X85394069Y-151045996D01*
X85394065Y-151045994D01*
X85394064Y-151045994D01*
X85269774Y-151009500D01*
X85269772Y-151009500D01*
X85140228Y-151009500D01*
X85140226Y-151009500D01*
X85015935Y-151045994D01*
X85015932Y-151045995D01*
X85015931Y-151045996D01*
X84964677Y-151078934D01*
X84906950Y-151116033D01*
X84822118Y-151213937D01*
X84822117Y-151213938D01*
X84768302Y-151331774D01*
X84749867Y-151460000D01*
X84768302Y-151588225D01*
X84822116Y-151706058D01*
X84822118Y-151706063D01*
X84874214Y-151766186D01*
X84903238Y-151829738D01*
X84904500Y-151847386D01*
X84904500Y-151860811D01*
X84904504Y-151860908D01*
X84904504Y-151890893D01*
X84924214Y-152015341D01*
X84963146Y-152135168D01*
X85020350Y-152247443D01*
X85020356Y-152247451D01*
X85094407Y-152349376D01*
X85094424Y-152349395D01*
X85138956Y-152393927D01*
X85138957Y-152393929D01*
X85179676Y-152434648D01*
X85179682Y-152434653D01*
X87252848Y-154507819D01*
X87286333Y-154569142D01*
X87281349Y-154638834D01*
X87239477Y-154694767D01*
X87174013Y-154719184D01*
X87165167Y-154719500D01*
X87104697Y-154719500D01*
X87104685Y-154719499D01*
X87055224Y-154719499D01*
X87039041Y-154718438D01*
X87011654Y-154714833D01*
X86980385Y-154706455D01*
X86962435Y-154699020D01*
X86934404Y-154682837D01*
X86912511Y-154666039D01*
X86900313Y-154655342D01*
X84559653Y-152314682D01*
X84559651Y-152314679D01*
X84558951Y-152313979D01*
X84558940Y-152313959D01*
X84474389Y-152229412D01*
X84474384Y-152229408D01*
X84474383Y-152229407D01*
X84372445Y-152155346D01*
X84260176Y-152098144D01*
X84260175Y-152098143D01*
X84260174Y-152098143D01*
X84140338Y-152059208D01*
X84015894Y-152039499D01*
X84015890Y-152039499D01*
X83952889Y-152039500D01*
X74727426Y-152039500D01*
X74711238Y-152038439D01*
X74683844Y-152034831D01*
X74652576Y-152026452D01*
X74649889Y-152025339D01*
X74645598Y-152023561D01*
X74634626Y-152019016D01*
X74606597Y-152002832D01*
X74584624Y-151985971D01*
X74572434Y-151975281D01*
X74559715Y-151962562D01*
X74544570Y-151947416D01*
X74544569Y-151947415D01*
X74540239Y-151943085D01*
X74540229Y-151943076D01*
X74494656Y-151897503D01*
X74494644Y-151897489D01*
X74478430Y-151881275D01*
X74444945Y-151819952D01*
X74449929Y-151750260D01*
X74472398Y-151712390D01*
X74477882Y-151706063D01*
X74531697Y-151588226D01*
X74550133Y-151460000D01*
X74531697Y-151331774D01*
X74477882Y-151213937D01*
X74393049Y-151116033D01*
X74284069Y-151045996D01*
X74284065Y-151045994D01*
X74284064Y-151045994D01*
X74159774Y-151009500D01*
X74159772Y-151009500D01*
X74030228Y-151009500D01*
X74030226Y-151009500D01*
X73905935Y-151045994D01*
X73905932Y-151045995D01*
X73905931Y-151045996D01*
X73854677Y-151078934D01*
X73796950Y-151116033D01*
X73712118Y-151213937D01*
X73712117Y-151213938D01*
X73658302Y-151331774D01*
X73639867Y-151460000D01*
X73658302Y-151588225D01*
X73712116Y-151706058D01*
X73712118Y-151706063D01*
X73769400Y-151772171D01*
X73775626Y-151779356D01*
X73804385Y-151841158D01*
X73814208Y-151903169D01*
X73853144Y-152022997D01*
X73910353Y-152135270D01*
X73986165Y-152239613D01*
X74009646Y-152305420D01*
X73993821Y-152373474D01*
X73943716Y-152422169D01*
X73885848Y-152436500D01*
X73854426Y-152436500D01*
X73838238Y-152435439D01*
X73823581Y-152433509D01*
X73810844Y-152431831D01*
X73779576Y-152423452D01*
X73761626Y-152416016D01*
X73733597Y-152399832D01*
X73711624Y-152382971D01*
X73699434Y-152372281D01*
X73686548Y-152359395D01*
X73671570Y-152344416D01*
X73671569Y-152344415D01*
X73667239Y-152340085D01*
X73667229Y-152340076D01*
X73224656Y-151897503D01*
X73224644Y-151897489D01*
X73208430Y-151881275D01*
X73174945Y-151819952D01*
X73179929Y-151750260D01*
X73202398Y-151712390D01*
X73207882Y-151706063D01*
X73261697Y-151588226D01*
X73280133Y-151460000D01*
X73261697Y-151331774D01*
X73207882Y-151213937D01*
X73123049Y-151116033D01*
X73014069Y-151045996D01*
X73014065Y-151045994D01*
X73014064Y-151045994D01*
X72889774Y-151009500D01*
X72889772Y-151009500D01*
X72760228Y-151009500D01*
X72760226Y-151009500D01*
X72635935Y-151045994D01*
X72635932Y-151045995D01*
X72635931Y-151045996D01*
X72584677Y-151078934D01*
X72526950Y-151116033D01*
X72442118Y-151213937D01*
X72442117Y-151213938D01*
X72388302Y-151331774D01*
X72369867Y-151460000D01*
X72388302Y-151588225D01*
X72442116Y-151706058D01*
X72442118Y-151706063D01*
X72499400Y-151772171D01*
X72505626Y-151779356D01*
X72534385Y-151841158D01*
X72544208Y-151903169D01*
X72583144Y-152022997D01*
X72621435Y-152098143D01*
X72640304Y-152135174D01*
X72640355Y-152135273D01*
X72714410Y-152237198D01*
X72714409Y-152237198D01*
X72714414Y-152237203D01*
X72714415Y-152237204D01*
X72719239Y-152242028D01*
X72741521Y-152264310D01*
X72741523Y-152264313D01*
X72751166Y-152273955D01*
X72758963Y-152281752D01*
X72758963Y-152281753D01*
X72778407Y-152301196D01*
X72778409Y-152301198D01*
X73029030Y-152551819D01*
X73062515Y-152613142D01*
X73057531Y-152682834D01*
X73015659Y-152738767D01*
X72950195Y-152763184D01*
X72941349Y-152763500D01*
X72911717Y-152763500D01*
X72895521Y-152762438D01*
X72868134Y-152758830D01*
X72836871Y-152750450D01*
X72818917Y-152743012D01*
X72790883Y-152726824D01*
X72775825Y-152715268D01*
X72768778Y-152709859D01*
X72756586Y-152699166D01*
X72722590Y-152665165D01*
X72722545Y-152665126D01*
X71954657Y-151897238D01*
X71954617Y-151897191D01*
X71938562Y-151881139D01*
X71905071Y-151819819D01*
X71910049Y-151750127D01*
X71932522Y-151712248D01*
X71937882Y-151706063D01*
X71991697Y-151588226D01*
X72010133Y-151460000D01*
X71991697Y-151331774D01*
X71937882Y-151213937D01*
X71853049Y-151116033D01*
X71744069Y-151045996D01*
X71744065Y-151045994D01*
X71744064Y-151045994D01*
X71619774Y-151009500D01*
X71619772Y-151009500D01*
X71490228Y-151009500D01*
X71490226Y-151009500D01*
X71365935Y-151045994D01*
X71365932Y-151045995D01*
X71365931Y-151045996D01*
X71314677Y-151078934D01*
X71256950Y-151116033D01*
X71172118Y-151213937D01*
X71172117Y-151213938D01*
X71118302Y-151331774D01*
X71099867Y-151460000D01*
X71118302Y-151588225D01*
X71172117Y-151706061D01*
X71172118Y-151706063D01*
X71235654Y-151779389D01*
X71264412Y-151841182D01*
X71273874Y-151900893D01*
X71274197Y-151902926D01*
X71287747Y-151944615D01*
X71311075Y-152016392D01*
X71313144Y-152022756D01*
X71351562Y-152098144D01*
X71370354Y-152135018D01*
X71370358Y-152135024D01*
X71370359Y-152135025D01*
X71444420Y-152236947D01*
X71444425Y-152236953D01*
X71476847Y-152269371D01*
X71476862Y-152269385D01*
X72086296Y-152878819D01*
X72119781Y-152940142D01*
X72114797Y-153009834D01*
X72072925Y-153065767D01*
X72007461Y-153090184D01*
X71998615Y-153090500D01*
X71995697Y-153090500D01*
X71995685Y-153090499D01*
X71946224Y-153090499D01*
X71930041Y-153089438D01*
X71902654Y-153085833D01*
X71871385Y-153077455D01*
X71853435Y-153070020D01*
X71825404Y-153053837D01*
X71803511Y-153037039D01*
X71791313Y-153026342D01*
X70658131Y-151893160D01*
X70624646Y-151831837D01*
X70629630Y-151762145D01*
X70652098Y-151724278D01*
X70667882Y-151706063D01*
X70721697Y-151588226D01*
X70740133Y-151460000D01*
X70721697Y-151331774D01*
X70667882Y-151213937D01*
X70583049Y-151116033D01*
X70474069Y-151045996D01*
X70474065Y-151045994D01*
X70474064Y-151045994D01*
X70349774Y-151009500D01*
X70349772Y-151009500D01*
X70220228Y-151009500D01*
X70220226Y-151009500D01*
X70095935Y-151045994D01*
X70095932Y-151045995D01*
X70095931Y-151045996D01*
X70044677Y-151078934D01*
X69986950Y-151116033D01*
X69902118Y-151213937D01*
X69902117Y-151213938D01*
X69848302Y-151331774D01*
X69829867Y-151460000D01*
X69848302Y-151588225D01*
X69902116Y-151706058D01*
X69902118Y-151706063D01*
X69961339Y-151774408D01*
X69990098Y-151836212D01*
X70004214Y-151925339D01*
X70004214Y-151925341D01*
X70043146Y-152045168D01*
X70100350Y-152157443D01*
X70100356Y-152157451D01*
X70174407Y-152259376D01*
X70174424Y-152259395D01*
X70218956Y-152303927D01*
X70218957Y-152303929D01*
X70270048Y-152355021D01*
X70270054Y-152355025D01*
X70742846Y-152827818D01*
X70776331Y-152889141D01*
X70771347Y-152958833D01*
X70729475Y-153014766D01*
X70664011Y-153039183D01*
X70655165Y-153039499D01*
X70615224Y-153039499D01*
X70599041Y-153038438D01*
X70571654Y-153034833D01*
X70540385Y-153026455D01*
X70522435Y-153019020D01*
X70494404Y-153002837D01*
X70472511Y-152986039D01*
X70460313Y-152975342D01*
X69383489Y-151898518D01*
X69350004Y-151837195D01*
X69354988Y-151767503D01*
X69377458Y-151729634D01*
X69397879Y-151706067D01*
X69397879Y-151706065D01*
X69397882Y-151706063D01*
X69451697Y-151588226D01*
X69470133Y-151460000D01*
X69451697Y-151331774D01*
X69397882Y-151213937D01*
X69313049Y-151116033D01*
X69204069Y-151045996D01*
X69204065Y-151045994D01*
X69204064Y-151045994D01*
X69079774Y-151009500D01*
X69079772Y-151009500D01*
X68950228Y-151009500D01*
X68950226Y-151009500D01*
X68825935Y-151045994D01*
X68825932Y-151045995D01*
X68825931Y-151045996D01*
X68774677Y-151078934D01*
X68716950Y-151116033D01*
X68632118Y-151213937D01*
X68632117Y-151213938D01*
X68578302Y-151331774D01*
X68559867Y-151460000D01*
X68578302Y-151588225D01*
X68632116Y-151706058D01*
X68632118Y-151706063D01*
X68684216Y-151766188D01*
X68689400Y-151772171D01*
X68718159Y-151833975D01*
X68734214Y-151935341D01*
X68773146Y-152055168D01*
X68830350Y-152167443D01*
X68830356Y-152167451D01*
X68904407Y-152269376D01*
X68904424Y-152269395D01*
X68948956Y-152313927D01*
X68948957Y-152313929D01*
X69000048Y-152365021D01*
X69000054Y-152365025D01*
X70012759Y-153377731D01*
X70012767Y-153377746D01*
X70085611Y-153450589D01*
X70085614Y-153450591D01*
X70085615Y-153450592D01*
X70187554Y-153524653D01*
X70299823Y-153581856D01*
X70419659Y-153620791D01*
X70544110Y-153640501D01*
X70607111Y-153640500D01*
X70654706Y-153640500D01*
X71002283Y-153640500D01*
X71018478Y-153641562D01*
X71045866Y-153645170D01*
X71077130Y-153653549D01*
X71095082Y-153660987D01*
X71123108Y-153677170D01*
X71145223Y-153694141D01*
X71157414Y-153704834D01*
X71192197Y-153739622D01*
X71192238Y-153739657D01*
X71640400Y-154187819D01*
X71673885Y-154249142D01*
X71668901Y-154318834D01*
X71627029Y-154374767D01*
X71561565Y-154399184D01*
X71552719Y-154399500D01*
X70764697Y-154399500D01*
X70764685Y-154399499D01*
X70715224Y-154399499D01*
X70699041Y-154398438D01*
X70671654Y-154394833D01*
X70640385Y-154386455D01*
X70622435Y-154379020D01*
X70594404Y-154362837D01*
X70572511Y-154346039D01*
X70560313Y-154335342D01*
X68118131Y-151893160D01*
X68084646Y-151831837D01*
X68089630Y-151762145D01*
X68112098Y-151724278D01*
X68127882Y-151706063D01*
X68181697Y-151588226D01*
X68200133Y-151460000D01*
X68181697Y-151331774D01*
X68127882Y-151213937D01*
X68043049Y-151116033D01*
X67934069Y-151045996D01*
X67934065Y-151045994D01*
X67934064Y-151045994D01*
X67809774Y-151009500D01*
X67809772Y-151009500D01*
X67680228Y-151009500D01*
X67680226Y-151009500D01*
X67555935Y-151045994D01*
X67555932Y-151045995D01*
X67555931Y-151045996D01*
X67504677Y-151078934D01*
X67446950Y-151116033D01*
X67362118Y-151213937D01*
X67362117Y-151213938D01*
X67308302Y-151331774D01*
X67289867Y-151460000D01*
X67308302Y-151588225D01*
X67362116Y-151706058D01*
X67362118Y-151706063D01*
X67421339Y-151774408D01*
X67450098Y-151836212D01*
X67464214Y-151925339D01*
X67464214Y-151925341D01*
X67503146Y-152045168D01*
X67560350Y-152157443D01*
X67560356Y-152157451D01*
X67634407Y-152259376D01*
X67634424Y-152259395D01*
X67678956Y-152303927D01*
X67678957Y-152303929D01*
X67719676Y-152344648D01*
X67719682Y-152344653D01*
X70103074Y-154728045D01*
X70103095Y-154728068D01*
X70108339Y-154733312D01*
X70108346Y-154733325D01*
X70185611Y-154810589D01*
X70185614Y-154810591D01*
X70185615Y-154810592D01*
X70287554Y-154884653D01*
X70399823Y-154941856D01*
X70519659Y-154980791D01*
X70644110Y-155000501D01*
X70707111Y-155000500D01*
X71615300Y-155000500D01*
X71615303Y-155000501D01*
X71654774Y-155000500D01*
X71670956Y-155001560D01*
X71698346Y-155005166D01*
X71729610Y-155013542D01*
X71747567Y-155020980D01*
X71775593Y-155037160D01*
X71797502Y-155053971D01*
X71809688Y-155064659D01*
X72813345Y-156068316D01*
X72846830Y-156129639D01*
X72841846Y-156199331D01*
X72799974Y-156255264D01*
X72734510Y-156279681D01*
X72725606Y-156279997D01*
X69804442Y-156278640D01*
X69737412Y-156258924D01*
X69691682Y-156206099D01*
X69680500Y-156154640D01*
X69680500Y-155013184D01*
X69680495Y-155013086D01*
X69680495Y-155005166D01*
X69680496Y-154984110D01*
X69660786Y-154859660D01*
X69630370Y-154766044D01*
X69621853Y-154739830D01*
X69621851Y-154739827D01*
X69621851Y-154739825D01*
X69564649Y-154627556D01*
X69492631Y-154528431D01*
X69491651Y-154526680D01*
X69431756Y-154466785D01*
X69431755Y-154466783D01*
X69408069Y-154443096D01*
X69408046Y-154443075D01*
X66852774Y-151887803D01*
X66819289Y-151826480D01*
X66824273Y-151756788D01*
X66846742Y-151718919D01*
X66847814Y-151717682D01*
X66857882Y-151706063D01*
X66911697Y-151588226D01*
X66930133Y-151460000D01*
X66911697Y-151331774D01*
X66857882Y-151213937D01*
X66773049Y-151116033D01*
X66664069Y-151045996D01*
X66664065Y-151045994D01*
X66664064Y-151045994D01*
X66539774Y-151009500D01*
X66539772Y-151009500D01*
X66410228Y-151009500D01*
X66410226Y-151009500D01*
X66285935Y-151045994D01*
X66285932Y-151045995D01*
X66285931Y-151045996D01*
X66234677Y-151078934D01*
X66176950Y-151116033D01*
X66092118Y-151213937D01*
X66092117Y-151213938D01*
X66038302Y-151331774D01*
X66019867Y-151460000D01*
X66038302Y-151588225D01*
X66092116Y-151706058D01*
X66092118Y-151706063D01*
X66149400Y-151772171D01*
X66153277Y-151776645D01*
X66182036Y-151838449D01*
X66194214Y-151915341D01*
X66233146Y-152035168D01*
X66290350Y-152147443D01*
X66290356Y-152147451D01*
X66364407Y-152249376D01*
X66364424Y-152249395D01*
X66408956Y-152293927D01*
X66408957Y-152293929D01*
X66449676Y-152334648D01*
X66449682Y-152334653D01*
X69015314Y-154900285D01*
X69026008Y-154912479D01*
X69042828Y-154934399D01*
X69059015Y-154962435D01*
X69066451Y-154980388D01*
X69074828Y-155011656D01*
X69078438Y-155039081D01*
X69079499Y-155055264D01*
X69079499Y-155104684D01*
X69079500Y-155104697D01*
X69079500Y-156154246D01*
X69059815Y-156221285D01*
X69007011Y-156267040D01*
X68955442Y-156278246D01*
X65629442Y-156276702D01*
X65562412Y-156256986D01*
X65516682Y-156204161D01*
X65505500Y-156152702D01*
X65505500Y-151847386D01*
X65525185Y-151780347D01*
X65535778Y-151766194D01*
X65587882Y-151706063D01*
X65641697Y-151588226D01*
X65660133Y-151460000D01*
X65641697Y-151331774D01*
X65587882Y-151213937D01*
X65503049Y-151116033D01*
X65394069Y-151045996D01*
X65394065Y-151045994D01*
X65394064Y-151045994D01*
X65269774Y-151009500D01*
X65269772Y-151009500D01*
X65140228Y-151009500D01*
X65140226Y-151009500D01*
X65015935Y-151045994D01*
X65015932Y-151045995D01*
X65015931Y-151045996D01*
X64964677Y-151078934D01*
X64906950Y-151116033D01*
X64822118Y-151213937D01*
X64822117Y-151213938D01*
X64768302Y-151331774D01*
X64749867Y-151460000D01*
X64768302Y-151588225D01*
X64822116Y-151706058D01*
X64822118Y-151706063D01*
X64874214Y-151766186D01*
X64903238Y-151829738D01*
X64904500Y-151847386D01*
X64904500Y-156152308D01*
X64884815Y-156219347D01*
X64832011Y-156265102D01*
X64780442Y-156276308D01*
X61941432Y-156274990D01*
X61874402Y-156255274D01*
X61834103Y-156212991D01*
X61833531Y-156212001D01*
X61782692Y-156123945D01*
X61782691Y-156123943D01*
X61782690Y-156123942D01*
X61670163Y-155989836D01*
X61536057Y-155877309D01*
X61384446Y-155789775D01*
X61219937Y-155729898D01*
X61047534Y-155699500D01*
X61047532Y-155699500D01*
X60995799Y-155699500D01*
X51924500Y-155699500D01*
X51857461Y-155679815D01*
X51811706Y-155627011D01*
X51800500Y-155575500D01*
X51800500Y-150840000D01*
X139594417Y-150840000D01*
X139614699Y-151045932D01*
X139635964Y-151116033D01*
X139674768Y-151243954D01*
X139772315Y-151426450D01*
X139772317Y-151426452D01*
X139903589Y-151586410D01*
X140000209Y-151665702D01*
X140063550Y-151717685D01*
X140246046Y-151815232D01*
X140444066Y-151875300D01*
X140444065Y-151875300D01*
X140462529Y-151877118D01*
X140650000Y-151895583D01*
X140855934Y-151875300D01*
X141053954Y-151815232D01*
X141236450Y-151717685D01*
X141396410Y-151586410D01*
X141527685Y-151426450D01*
X141625232Y-151243954D01*
X141685300Y-151045934D01*
X141705583Y-150840000D01*
X141685300Y-150634066D01*
X141625232Y-150436046D01*
X141527685Y-150253550D01*
X141475702Y-150190209D01*
X141396410Y-150093589D01*
X141236452Y-149962317D01*
X141236453Y-149962317D01*
X141236450Y-149962315D01*
X141053954Y-149864768D01*
X140855934Y-149804700D01*
X140855932Y-149804699D01*
X140855934Y-149804699D01*
X140650000Y-149784417D01*
X140444067Y-149804699D01*
X140246043Y-149864769D01*
X140135898Y-149923643D01*
X140063550Y-149962315D01*
X140063548Y-149962316D01*
X140063547Y-149962317D01*
X139903589Y-150093589D01*
X139772317Y-150253547D01*
X139674769Y-150436043D01*
X139614699Y-150634067D01*
X139594417Y-150840000D01*
X51800500Y-150840000D01*
X51800500Y-148400000D01*
X103484867Y-148400000D01*
X103503302Y-148528225D01*
X103557117Y-148646061D01*
X103557118Y-148646063D01*
X103641951Y-148743967D01*
X103750931Y-148814004D01*
X103875225Y-148850499D01*
X103875227Y-148850500D01*
X103875228Y-148850500D01*
X104004773Y-148850500D01*
X104004773Y-148850499D01*
X104129069Y-148814004D01*
X104238049Y-148743967D01*
X104322882Y-148646063D01*
X104376697Y-148528226D01*
X104394324Y-148405621D01*
X104423349Y-148342067D01*
X104429367Y-148335602D01*
X107500296Y-145264674D01*
X107512487Y-145253984D01*
X107534408Y-145237165D01*
X107562430Y-145220986D01*
X107580392Y-145213546D01*
X107611645Y-145205172D01*
X107639095Y-145201559D01*
X107655264Y-145200500D01*
X107694697Y-145200501D01*
X107694700Y-145200500D01*
X136555294Y-145200500D01*
X136602889Y-145200500D01*
X136630737Y-145200500D01*
X136637068Y-145200500D01*
X136637156Y-145200495D01*
X136665890Y-145200496D01*
X136790340Y-145180786D01*
X136910175Y-145141851D01*
X137022444Y-145084649D01*
X137121568Y-145012631D01*
X137123316Y-145011653D01*
X137124378Y-145010590D01*
X137124382Y-145010588D01*
X137129210Y-145005759D01*
X137129212Y-145005759D01*
X137185676Y-144949295D01*
X137202586Y-144932386D01*
X137202586Y-144932383D01*
X137212790Y-144922181D01*
X137212793Y-144922176D01*
X138378152Y-143756819D01*
X138439475Y-143723334D01*
X138465833Y-143720500D01*
X138504773Y-143720500D01*
X138504773Y-143720499D01*
X138629069Y-143684004D01*
X138738049Y-143613967D01*
X138822882Y-143516063D01*
X138876697Y-143398226D01*
X138895133Y-143270000D01*
X138876697Y-143141774D01*
X138822882Y-143023937D01*
X138822880Y-143023935D01*
X138822879Y-143023932D01*
X138770786Y-142963812D01*
X138741762Y-142900256D01*
X138740500Y-142882611D01*
X138740500Y-138344700D01*
X138740501Y-138344697D01*
X138740500Y-138305224D01*
X138741561Y-138289041D01*
X138745166Y-138261651D01*
X138753541Y-138230393D01*
X138760983Y-138212424D01*
X138777157Y-138184409D01*
X138793970Y-138162496D01*
X138804647Y-138150322D01*
X141598152Y-135356819D01*
X141659475Y-135323334D01*
X141685833Y-135320500D01*
X141724773Y-135320500D01*
X141724773Y-135320499D01*
X141849069Y-135284004D01*
X141958049Y-135213967D01*
X142042882Y-135116063D01*
X142096697Y-134998226D01*
X142115133Y-134870000D01*
X142096697Y-134741774D01*
X142042882Y-134623937D01*
X141958049Y-134526033D01*
X141849069Y-134455996D01*
X141849065Y-134455994D01*
X141849064Y-134455994D01*
X141724774Y-134419500D01*
X141724772Y-134419500D01*
X141595228Y-134419500D01*
X141595226Y-134419500D01*
X141470935Y-134455994D01*
X141470932Y-134455995D01*
X141470931Y-134455996D01*
X141419677Y-134488934D01*
X141361950Y-134526033D01*
X141277118Y-134623937D01*
X141277117Y-134623938D01*
X141223302Y-134741774D01*
X141205675Y-134864375D01*
X141176650Y-134927930D01*
X141170618Y-134934408D01*
X138407616Y-137697412D01*
X138407561Y-137697457D01*
X138407566Y-137697462D01*
X138406640Y-137698387D01*
X138406626Y-137698394D01*
X138329410Y-137775611D01*
X138255347Y-137877553D01*
X138198146Y-137989818D01*
X138198144Y-137989821D01*
X138159208Y-138109661D01*
X138139499Y-138234104D01*
X138139500Y-138269264D01*
X138139500Y-142882611D01*
X138119815Y-142949650D01*
X138109214Y-142963812D01*
X138057120Y-143023932D01*
X138057117Y-143023938D01*
X138003302Y-143141774D01*
X137985675Y-143264376D01*
X137956650Y-143327931D01*
X137950618Y-143334409D01*
X136749714Y-144535314D01*
X136737520Y-144546008D01*
X136715600Y-144562828D01*
X136687564Y-144579015D01*
X136669611Y-144586451D01*
X136638343Y-144594828D01*
X136610918Y-144598438D01*
X136594735Y-144599499D01*
X136545315Y-144599499D01*
X136545303Y-144599500D01*
X107614392Y-144599500D01*
X107614292Y-144599504D01*
X107584107Y-144599504D01*
X107459658Y-144619214D01*
X107339831Y-144658146D01*
X107227556Y-144715350D01*
X107125612Y-144789416D01*
X107125110Y-144789919D01*
X107125084Y-144789943D01*
X107081072Y-144833956D01*
X107081071Y-144833958D01*
X107047415Y-144867613D01*
X107047414Y-144867614D01*
X104001848Y-147913181D01*
X103940525Y-147946666D01*
X103914167Y-147949500D01*
X103875226Y-147949500D01*
X103750935Y-147985994D01*
X103750932Y-147985995D01*
X103750931Y-147985996D01*
X103699677Y-148018934D01*
X103641950Y-148056033D01*
X103557118Y-148153937D01*
X103557117Y-148153938D01*
X103503302Y-148271774D01*
X103484867Y-148400000D01*
X51800500Y-148400000D01*
X51800500Y-129941963D01*
X125179500Y-129941963D01*
X125187190Y-129968154D01*
X125190947Y-129985423D01*
X125194835Y-130012455D01*
X125194835Y-130012457D01*
X125206173Y-130037283D01*
X125212355Y-130053858D01*
X125220047Y-130080053D01*
X125234801Y-130103012D01*
X125234806Y-130103019D01*
X125243282Y-130118541D01*
X125254623Y-130143373D01*
X125266437Y-130157007D01*
X125272496Y-130164000D01*
X125283095Y-130178160D01*
X125297853Y-130201123D01*
X125297857Y-130201128D01*
X125318488Y-130219006D01*
X125330992Y-130231510D01*
X125348870Y-130252141D01*
X125348872Y-130252143D01*
X125371844Y-130266905D01*
X125385996Y-130277500D01*
X125406627Y-130295377D01*
X125429899Y-130306005D01*
X125431451Y-130306714D01*
X125446978Y-130315192D01*
X125469947Y-130329953D01*
X125496136Y-130337643D01*
X125512713Y-130343826D01*
X125537538Y-130355163D01*
X125537539Y-130355163D01*
X125537543Y-130355165D01*
X125564564Y-130359050D01*
X125581846Y-130362809D01*
X125608039Y-130370500D01*
X128771960Y-130370500D01*
X128771961Y-130370500D01*
X128798153Y-130362809D01*
X128815436Y-130359050D01*
X128819882Y-130358410D01*
X128842457Y-130355165D01*
X128867287Y-130343824D01*
X128883862Y-130337642D01*
X128910053Y-130329953D01*
X128933020Y-130315192D01*
X128948540Y-130306717D01*
X128973373Y-130295377D01*
X128994006Y-130277497D01*
X129008148Y-130266910D01*
X129031128Y-130252143D01*
X129049015Y-130231499D01*
X129061499Y-130219015D01*
X129082143Y-130201128D01*
X129096910Y-130178148D01*
X129107497Y-130164006D01*
X129125377Y-130143373D01*
X129136717Y-130118540D01*
X129145193Y-130103019D01*
X129159953Y-130080053D01*
X129167644Y-130053858D01*
X129173824Y-130037287D01*
X129185165Y-130012457D01*
X129189050Y-129985435D01*
X129192809Y-129968153D01*
X129200500Y-129941961D01*
X129200500Y-129798039D01*
X129200500Y-121754201D01*
X129200500Y-121718039D01*
X129192808Y-121691842D01*
X129189050Y-121674564D01*
X129185165Y-121647546D01*
X129185165Y-121647544D01*
X129185165Y-121647543D01*
X129185163Y-121647538D01*
X129173826Y-121622713D01*
X129167643Y-121606136D01*
X129159953Y-121579948D01*
X129159953Y-121579946D01*
X129145192Y-121556978D01*
X129136714Y-121541451D01*
X129136005Y-121539899D01*
X129125377Y-121516627D01*
X129107500Y-121495996D01*
X129096903Y-121481840D01*
X129082143Y-121458872D01*
X129082142Y-121458871D01*
X129061510Y-121440992D01*
X129049006Y-121428488D01*
X129031128Y-121407857D01*
X129031123Y-121407853D01*
X129008160Y-121393095D01*
X128994000Y-121382496D01*
X128987007Y-121376437D01*
X128973373Y-121364623D01*
X128948541Y-121353282D01*
X128933019Y-121344806D01*
X128933017Y-121344805D01*
X128910053Y-121330047D01*
X128910051Y-121330046D01*
X128883858Y-121322355D01*
X128867288Y-121316174D01*
X128842457Y-121304835D01*
X128815423Y-121300947D01*
X128798154Y-121297190D01*
X128771963Y-121289500D01*
X128771961Y-121289500D01*
X128735799Y-121289500D01*
X125751961Y-121289500D01*
X125608039Y-121289500D01*
X125608036Y-121289500D01*
X125608034Y-121289501D01*
X125581842Y-121297190D01*
X125564568Y-121300948D01*
X125537544Y-121304834D01*
X125537541Y-121304835D01*
X125512710Y-121316175D01*
X125496141Y-121322355D01*
X125483171Y-121326163D01*
X125469947Y-121330047D01*
X125469945Y-121330047D01*
X125469945Y-121330048D01*
X125446982Y-121344805D01*
X125431461Y-121353280D01*
X125406628Y-121364621D01*
X125406625Y-121364623D01*
X125386000Y-121382495D01*
X125371840Y-121393095D01*
X125348876Y-121407853D01*
X125348871Y-121407857D01*
X125330993Y-121428489D01*
X125318489Y-121440993D01*
X125297857Y-121458871D01*
X125297853Y-121458876D01*
X125283095Y-121481840D01*
X125272495Y-121496000D01*
X125254623Y-121516625D01*
X125254621Y-121516628D01*
X125243280Y-121541461D01*
X125234805Y-121556982D01*
X125220048Y-121579945D01*
X125212355Y-121606141D01*
X125206175Y-121622710D01*
X125194835Y-121647541D01*
X125194834Y-121647544D01*
X125190948Y-121674568D01*
X125187190Y-121691842D01*
X125179501Y-121718034D01*
X125179500Y-121718042D01*
X125179500Y-129941963D01*
X51800500Y-129941963D01*
X51800500Y-115557500D01*
X107207500Y-115557500D01*
X107207500Y-129877500D01*
X115827500Y-129877500D01*
X115827500Y-115557500D01*
X107207500Y-115557500D01*
X51800500Y-115557500D01*
X51800500Y-105824500D01*
X51820185Y-105757461D01*
X51872989Y-105711706D01*
X51924500Y-105700500D01*
X158175500Y-105700500D01*
X158242539Y-105720185D01*
G37*
%TD.AperFunction*%
%TD*%
M02*
