%TF.GenerationSoftware,KiCad,Pcbnew,7.0.11*%
%TF.CreationDate,2024-04-16T11:56:58+02:00*%
%TF.ProjectId,kim-1-programmable-memory,6b696d2d-312d-4707-926f-6772616d6d61,rev?*%
%TF.SameCoordinates,Original*%
%TF.FileFunction,Copper,L1,Top*%
%TF.FilePolarity,Positive*%
%FSLAX46Y46*%
G04 Gerber Fmt 4.6, Leading zero omitted, Abs format (unit mm)*
G04 Created by KiCad (PCBNEW 7.0.11) date 2024-04-16 11:56:58*
%MOMM*%
%LPD*%
G01*
G04 APERTURE LIST*
G04 Aperture macros list*
%AMRoundRect*
0 Rectangle with rounded corners*
0 $1 Rounding radius*
0 $2 $3 $4 $5 $6 $7 $8 $9 X,Y pos of 4 corners*
0 Add a 4 corners polygon primitive as box body*
4,1,4,$2,$3,$4,$5,$6,$7,$8,$9,$2,$3,0*
0 Add four circle primitives for the rounded corners*
1,1,$1+$1,$2,$3*
1,1,$1+$1,$4,$5*
1,1,$1+$1,$6,$7*
1,1,$1+$1,$8,$9*
0 Add four rect primitives between the rounded corners*
20,1,$1+$1,$2,$3,$4,$5,0*
20,1,$1+$1,$4,$5,$6,$7,0*
20,1,$1+$1,$6,$7,$8,$9,0*
20,1,$1+$1,$8,$9,$2,$3,0*%
%AMFreePoly0*
4,1,22,-1.300000,3.270000,1.300000,3.270000,1.300000,-1.970000,1.280250,-2.195743,1.221600,-2.414626,1.125833,-2.620000,0.995858,-2.805624,0.835624,-2.965858,0.650000,-3.095833,0.444626,-3.191600,0.225743,-3.250250,0.000000,-3.270000,-0.225743,-3.250250,-0.444626,-3.191600,-0.650000,-3.095833,-0.835624,-2.965858,-0.995858,-2.805624,-1.125833,-2.620000,-1.221600,-2.414626,-1.280250,-2.195743,
-1.300000,-1.970000,-1.300000,3.270000,-1.300000,3.270000,$1*%
G04 Aperture macros list end*
%TA.AperFunction,ConnectorPad*%
%ADD10FreePoly0,180.000000*%
%TD*%
%TA.AperFunction,ComponentPad*%
%ADD11C,2.550000*%
%TD*%
%TA.AperFunction,ComponentPad*%
%ADD12C,3.616000*%
%TD*%
%TA.AperFunction,SMDPad,CuDef*%
%ADD13RoundRect,0.237500X0.287500X0.237500X-0.287500X0.237500X-0.287500X-0.237500X0.287500X-0.237500X0*%
%TD*%
%TA.AperFunction,SMDPad,CuDef*%
%ADD14RoundRect,0.237500X-0.250000X-0.237500X0.250000X-0.237500X0.250000X0.237500X-0.250000X0.237500X0*%
%TD*%
%TA.AperFunction,SMDPad,CuDef*%
%ADD15RoundRect,0.237500X-0.237500X0.250000X-0.237500X-0.250000X0.237500X-0.250000X0.237500X0.250000X0*%
%TD*%
%TA.AperFunction,SMDPad,CuDef*%
%ADD16RoundRect,0.150000X-0.150000X0.825000X-0.150000X-0.825000X0.150000X-0.825000X0.150000X0.825000X0*%
%TD*%
%TA.AperFunction,SMDPad,CuDef*%
%ADD17RoundRect,0.150000X-0.150000X0.675000X-0.150000X-0.675000X0.150000X-0.675000X0.150000X0.675000X0*%
%TD*%
%TA.AperFunction,SMDPad,CuDef*%
%ADD18RoundRect,0.237500X0.300000X0.237500X-0.300000X0.237500X-0.300000X-0.237500X0.300000X-0.237500X0*%
%TD*%
%TA.AperFunction,SMDPad,CuDef*%
%ADD19RoundRect,0.150000X-0.150000X0.875000X-0.150000X-0.875000X0.150000X-0.875000X0.150000X0.875000X0*%
%TD*%
%TA.AperFunction,ComponentPad*%
%ADD20R,1.700000X1.700000*%
%TD*%
%TA.AperFunction,ComponentPad*%
%ADD21O,1.700000X1.700000*%
%TD*%
%TA.AperFunction,SMDPad,CuDef*%
%ADD22RoundRect,0.237500X-0.300000X-0.237500X0.300000X-0.237500X0.300000X0.237500X-0.300000X0.237500X0*%
%TD*%
%TA.AperFunction,SMDPad,CuDef*%
%ADD23RoundRect,0.150000X0.150000X-0.875000X0.150000X0.875000X-0.150000X0.875000X-0.150000X-0.875000X0*%
%TD*%
%TA.AperFunction,SMDPad,CuDef*%
%ADD24RoundRect,0.162500X-0.617500X-0.162500X0.617500X-0.162500X0.617500X0.162500X-0.617500X0.162500X0*%
%TD*%
%TA.AperFunction,SMDPad,CuDef*%
%ADD25RoundRect,0.250000X0.550000X-1.500000X0.550000X1.500000X-0.550000X1.500000X-0.550000X-1.500000X0*%
%TD*%
%TA.AperFunction,SMDPad,CuDef*%
%ADD26RoundRect,0.250000X0.475000X-0.337500X0.475000X0.337500X-0.475000X0.337500X-0.475000X-0.337500X0*%
%TD*%
%TA.AperFunction,SMDPad,CuDef*%
%ADD27R,1.600000X1.400000*%
%TD*%
%TA.AperFunction,SMDPad,CuDef*%
%ADD28RoundRect,0.237500X-0.237500X0.300000X-0.237500X-0.300000X0.237500X-0.300000X0.237500X0.300000X0*%
%TD*%
%TA.AperFunction,ComponentPad*%
%ADD29C,4.000000*%
%TD*%
%TA.AperFunction,ComponentPad*%
%ADD30R,1.600000X1.600000*%
%TD*%
%TA.AperFunction,ComponentPad*%
%ADD31C,1.600000*%
%TD*%
%TA.AperFunction,SMDPad,CuDef*%
%ADD32R,1.700000X3.500000*%
%TD*%
%TA.AperFunction,SMDPad,CuDef*%
%ADD33RoundRect,0.150000X0.150000X-0.825000X0.150000X0.825000X-0.150000X0.825000X-0.150000X-0.825000X0*%
%TD*%
%TA.AperFunction,SMDPad,CuDef*%
%ADD34RoundRect,0.237500X0.250000X0.237500X-0.250000X0.237500X-0.250000X-0.237500X0.250000X-0.237500X0*%
%TD*%
%TA.AperFunction,SMDPad,CuDef*%
%ADD35RoundRect,0.150000X-0.150000X0.587500X-0.150000X-0.587500X0.150000X-0.587500X0.150000X0.587500X0*%
%TD*%
%TA.AperFunction,SMDPad,CuDef*%
%ADD36RoundRect,0.237500X0.237500X-0.250000X0.237500X0.250000X-0.237500X0.250000X-0.237500X-0.250000X0*%
%TD*%
%TA.AperFunction,SMDPad,CuDef*%
%ADD37R,1.200000X2.200000*%
%TD*%
%TA.AperFunction,SMDPad,CuDef*%
%ADD38R,1.600000X1.500000*%
%TD*%
%TA.AperFunction,SMDPad,CuDef*%
%ADD39R,1.200000X1.800000*%
%TD*%
%TA.AperFunction,SMDPad,CuDef*%
%ADD40R,0.700000X1.600000*%
%TD*%
%TA.AperFunction,ViaPad*%
%ADD41C,0.500000*%
%TD*%
%TA.AperFunction,ViaPad*%
%ADD42C,0.600000*%
%TD*%
%TA.AperFunction,ViaPad*%
%ADD43C,1.000000*%
%TD*%
%TA.AperFunction,ViaPad*%
%ADD44C,1.600000*%
%TD*%
%TA.AperFunction,Conductor*%
%ADD45C,0.200000*%
%TD*%
%TA.AperFunction,Conductor*%
%ADD46C,0.600000*%
%TD*%
%TA.AperFunction,Conductor*%
%ADD47C,1.000000*%
%TD*%
%TA.AperFunction,Conductor*%
%ADD48C,0.500000*%
%TD*%
%TA.AperFunction,Conductor*%
%ADD49C,0.300000*%
%TD*%
%TA.AperFunction,Conductor*%
%ADD50C,1.600000*%
%TD*%
%TA.AperFunction,Conductor*%
%ADD51C,1.200000*%
%TD*%
%TA.AperFunction,Conductor*%
%ADD52C,0.950000*%
%TD*%
G04 APERTURE END LIST*
D10*
%TO.P,J2,1,SYNC*%
%TO.N,unconnected-(J2-SYNC-Pad1)*%
X65420000Y-159880000D03*
%TO.P,J2,2,~{RDY}*%
%TO.N,unconnected-(J2-~{RDY}-Pad2)*%
X69380000Y-159880000D03*
%TO.P,J2,3,\u00D81*%
%TO.N,unconnected-(J2-\u00D81-Pad3)*%
X73340000Y-159880000D03*
%TO.P,J2,4,~{IRQ}*%
%TO.N,unconnected-(J2-~{IRQ}-Pad4)*%
X77300000Y-159880000D03*
%TO.P,J2,5,R0*%
%TO.N,unconnected-(J2-R0-Pad5)*%
X81260000Y-159880000D03*
%TO.P,J2,6,~{NMI}*%
%TO.N,unconnected-(J2-~{NMI}-Pad6)*%
X85220000Y-159880000D03*
%TO.P,J2,7,~{RES}*%
%TO.N,unconnected-(J2-~{RES}-Pad7)*%
X89180000Y-159880000D03*
%TO.P,J2,8,D7*%
%TO.N,/DB7*%
X93140000Y-159880000D03*
%TO.P,J2,9,D6*%
%TO.N,/DB6*%
X97100000Y-159880000D03*
%TO.P,J2,10,D5*%
%TO.N,/DB5*%
X101060000Y-159880000D03*
%TO.P,J2,11,D4*%
%TO.N,/DB4*%
X105020000Y-159880000D03*
%TO.P,J2,12,D3*%
%TO.N,/DB3*%
X108980000Y-159880000D03*
%TO.P,J2,13,D2*%
%TO.N,/DB2*%
X112940000Y-159880000D03*
%TO.P,J2,14,D1*%
%TO.N,/DB1*%
X116900000Y-159880000D03*
%TO.P,J2,15,D0*%
%TO.N,/DB0*%
X120860000Y-159880000D03*
%TO.P,J2,16,K6*%
%TO.N,unconnected-(J2-K6-Pad16)*%
X124820000Y-159880000D03*
%TO.P,J2,17,SST*%
%TO.N,unconnected-(J2-SST-Pad17)*%
X128780000Y-159880000D03*
%TO.P,J2,18,+7.5V_RAW*%
%TO.N,unconnected-(J2-+7.5V_RAW-Pad18)*%
X132740000Y-159880000D03*
%TO.P,J2,19,K7*%
%TO.N,unconnected-(J2-K7-Pad19)*%
X136700000Y-159880000D03*
%TO.P,J2,20,~{DECODE_ENABLE}*%
%TO.N,/~{DECEN}*%
X140660000Y-159880000D03*
%TO.P,J2,21,+5V*%
%TO.N,+5V*%
X144620000Y-159880000D03*
%TO.P,J2,22,GND*%
%TO.N,GND*%
X148580000Y-159880000D03*
%TD*%
D11*
%TO.P,J4,1,In*%
%TO.N,Net-(J4-In)*%
X116040000Y-95842500D03*
D12*
%TO.P,J4,2,Ext*%
%TO.N,GND*%
X116040000Y-91342500D03*
X121040000Y-95842500D03*
X111040000Y-95842500D03*
%TD*%
D13*
%TO.P,D1,1,K*%
%TO.N,Net-(D1-K)*%
X104272500Y-91940000D03*
%TO.P,D1,2,A*%
%TO.N,Net-(D1-A)*%
X102522500Y-91940000D03*
%TD*%
D14*
%TO.P,R2,1*%
%TO.N,/~{CE}*%
X117337500Y-151500000D03*
%TO.P,R2,2*%
%TO.N,+3.3V*%
X119162500Y-151500000D03*
%TD*%
D15*
%TO.P,R10,1*%
%TO.N,/SCK*%
X116260000Y-135187500D03*
%TO.P,R10,2*%
%TO.N,Net-(J5-CLK)*%
X116260000Y-137012500D03*
%TD*%
D16*
%TO.P,U7,1*%
%TO.N,/VIDEO*%
X131970000Y-99465000D03*
%TO.P,U7,2*%
%TO.N,Net-(R15-Pad2)*%
X130700000Y-99465000D03*
%TO.P,U7,3*%
%TO.N,/VIDEO*%
X129430000Y-99465000D03*
%TO.P,U7,4*%
%TO.N,Net-(R14-Pad2)*%
X128160000Y-99465000D03*
%TO.P,U7,5*%
%TO.N,/HSYNC*%
X126890000Y-99465000D03*
%TO.P,U7,6*%
%TO.N,Net-(R12-Pad2)*%
X125620000Y-99465000D03*
%TO.P,U7,7,GND*%
%TO.N,GND*%
X124350000Y-99465000D03*
%TO.P,U7,8*%
%TO.N,Net-(R13-Pad2)*%
X124350000Y-104415000D03*
%TO.P,U7,9*%
%TO.N,/VIDEO*%
X125620000Y-104415000D03*
%TO.P,U7,10*%
%TO.N,Net-(R17-Pad2)*%
X126890000Y-104415000D03*
D17*
%TO.P,U7,11*%
%TO.N,/HSYNC*%
X128160000Y-104265000D03*
D16*
%TO.P,U7,12*%
%TO.N,Net-(R16-Pad2)*%
X129430000Y-104415000D03*
%TO.P,U7,13*%
%TO.N,/VIDEO*%
X130700000Y-104415000D03*
%TO.P,U7,14,VCC*%
%TO.N,+3.3V*%
X131970000Y-104415000D03*
%TD*%
D18*
%TO.P,C5,1*%
%TO.N,GND*%
X119122500Y-150030000D03*
%TO.P,C5,2*%
%TO.N,+3.3V*%
X117397500Y-150030000D03*
%TD*%
D14*
%TO.P,R19,1*%
%TO.N,GND*%
X102485000Y-95130000D03*
%TO.P,R19,2*%
%TO.N,Net-(D1-K)*%
X104310000Y-95130000D03*
%TD*%
D19*
%TO.P,U5,1,A->B*%
%TO.N,/R{slash}~{W}*%
X115365000Y-140730000D03*
%TO.P,U5,2,A0*%
%TO.N,/AD0*%
X114095000Y-140730000D03*
%TO.P,U5,3,A1*%
%TO.N,/AD1*%
X112825000Y-140730000D03*
%TO.P,U5,4,A2*%
%TO.N,/AD2*%
X111555000Y-140730000D03*
%TO.P,U5,5,A3*%
%TO.N,/AD3*%
X110285000Y-140730000D03*
%TO.P,U5,6,A4*%
%TO.N,/AD4*%
X109015000Y-140730000D03*
%TO.P,U5,7,A5*%
%TO.N,/AD5*%
X107745000Y-140730000D03*
%TO.P,U5,8,A6*%
%TO.N,/AD6*%
X106475000Y-140730000D03*
%TO.P,U5,9,A7*%
%TO.N,/AD7*%
X105205000Y-140730000D03*
%TO.P,U5,10,GND*%
%TO.N,GND*%
X103935000Y-140730000D03*
%TO.P,U5,11,B7*%
%TO.N,/DB7*%
X103935000Y-150030000D03*
%TO.P,U5,12,B6*%
%TO.N,/DB6*%
X105205000Y-150030000D03*
%TO.P,U5,13,B5*%
%TO.N,/DB5*%
X106475000Y-150030000D03*
%TO.P,U5,14,B4*%
%TO.N,/DB4*%
X107745000Y-150030000D03*
%TO.P,U5,15,B3*%
%TO.N,/DB3*%
X109015000Y-150030000D03*
%TO.P,U5,16,B2*%
%TO.N,/DB2*%
X110285000Y-150030000D03*
%TO.P,U5,17,B1*%
%TO.N,/DB1*%
X111555000Y-150030000D03*
%TO.P,U5,18,B0*%
%TO.N,/DB0*%
X112825000Y-150030000D03*
%TO.P,U5,19,CE*%
%TO.N,/~{CE}*%
X114095000Y-150030000D03*
%TO.P,U5,20,VCC*%
%TO.N,+3.3V*%
X115365000Y-150030000D03*
%TD*%
D20*
%TO.P,J1,1,Pin_1*%
%TO.N,/~{DECEN}*%
X140650000Y-153380000D03*
D21*
%TO.P,J1,2,Pin_2*%
%TO.N,Net-(J1-Pin_2)*%
X140650000Y-150840000D03*
%TD*%
D22*
%TO.P,C1,1*%
%TO.N,GND*%
X120837500Y-145080000D03*
%TO.P,C1,2*%
%TO.N,+3.3V*%
X122562500Y-145080000D03*
%TD*%
D23*
%TO.P,U4,1,G1*%
%TO.N,Net-(U4-G1)*%
X83935000Y-150030000D03*
%TO.P,U4,2,A0*%
%TO.N,/AB8*%
X85205000Y-150030000D03*
%TO.P,U4,3,A1*%
%TO.N,/AB9*%
X86475000Y-150030000D03*
%TO.P,U4,4,A2*%
%TO.N,/AB10*%
X87745000Y-150030000D03*
%TO.P,U4,5,A3*%
%TO.N,/AB11*%
X89015000Y-150030000D03*
%TO.P,U4,6,A4*%
%TO.N,/AB12*%
X90285000Y-150030000D03*
%TO.P,U4,7,A5*%
%TO.N,/AB13*%
X91555000Y-150030000D03*
%TO.P,U4,8,A6*%
%TO.N,/AB14*%
X92825000Y-150030000D03*
%TO.P,U4,9,A7*%
%TO.N,/AB15*%
X94095000Y-150030000D03*
%TO.P,U4,10,GND*%
%TO.N,GND*%
X95365000Y-150030000D03*
%TO.P,U4,11,Y7*%
%TO.N,/A15*%
X95365000Y-140730000D03*
%TO.P,U4,12,Y6*%
%TO.N,/A14*%
X94095000Y-140730000D03*
%TO.P,U4,13,Y5*%
%TO.N,/A13*%
X92825000Y-140730000D03*
%TO.P,U4,14,Y4*%
%TO.N,/A12*%
X91555000Y-140730000D03*
%TO.P,U4,15,Y3*%
%TO.N,/A11*%
X90285000Y-140730000D03*
%TO.P,U4,16,Y2*%
%TO.N,/A10*%
X89015000Y-140730000D03*
%TO.P,U4,17,Y1*%
%TO.N,/A9*%
X87745000Y-140730000D03*
%TO.P,U4,18,Y0*%
%TO.N,/A8*%
X86475000Y-140730000D03*
%TO.P,U4,19,G2*%
%TO.N,GND*%
X85205000Y-140730000D03*
%TO.P,U4,20,VCC*%
%TO.N,+3.3V*%
X83935000Y-140730000D03*
%TD*%
D24*
%TO.P,U6,1*%
%TO.N,/A14*%
X139780000Y-136870000D03*
%TO.P,U6,2,GND*%
%TO.N,GND*%
X139780000Y-137820000D03*
%TO.P,U6,3*%
%TO.N,/A15*%
X139780000Y-138770000D03*
%TO.P,U6,4*%
%TO.N,Net-(U2-Pad1)*%
X142480000Y-138770000D03*
%TO.P,U6,5,VCC*%
%TO.N,+3.3V*%
X142480000Y-137820000D03*
%TO.P,U6,6*%
%TO.N,/A13*%
X142480000Y-136870000D03*
%TD*%
D25*
%TO.P,C9,1*%
%TO.N,+5V*%
X149150000Y-151230000D03*
%TO.P,C9,2*%
%TO.N,GND*%
X149150000Y-145630000D03*
%TD*%
D18*
%TO.P,C2,1*%
%TO.N,GND*%
X146042500Y-142030000D03*
%TO.P,C2,2*%
%TO.N,+3.3V*%
X144317500Y-142030000D03*
%TD*%
D26*
%TO.P,C8,1*%
%TO.N,+5V*%
X144620000Y-152577500D03*
%TO.P,C8,2*%
%TO.N,GND*%
X144620000Y-150502500D03*
%TD*%
D27*
%TO.P,SW1,1,1*%
%TO.N,Net-(U8-RUN)*%
X124300000Y-136670000D03*
X131500000Y-136670000D03*
%TO.P,SW1,2,2*%
%TO.N,GND*%
X124300000Y-139670000D03*
X131500000Y-139670000D03*
%TD*%
D28*
%TO.P,C4,1*%
%TO.N,GND*%
X82050000Y-139005000D03*
%TO.P,C4,2*%
%TO.N,+3.3V*%
X82050000Y-140730000D03*
%TD*%
D29*
%TO.P,J3,0,PAD*%
%TO.N,GND*%
X154065000Y-93800000D03*
X129065000Y-93800000D03*
D30*
%TO.P,J3,1,1*%
%TO.N,Net-(J3-Pad1)*%
X137250000Y-95850000D03*
D31*
%TO.P,J3,2,2*%
%TO.N,Net-(J3-Pad2)*%
X139540000Y-95850000D03*
%TO.P,J3,3,3*%
%TO.N,Net-(J3-Pad3)*%
X141830000Y-95850000D03*
%TO.P,J3,4,4*%
%TO.N,unconnected-(J3-Pad4)*%
X144120000Y-95850000D03*
%TO.P,J3,5,5*%
%TO.N,GND*%
X146410000Y-95850000D03*
%TO.P,J3,6,6*%
X136105000Y-93870000D03*
%TO.P,J3,7,7*%
X138395000Y-93870000D03*
%TO.P,J3,8,8*%
X140685000Y-93870000D03*
%TO.P,J3,9,P9*%
%TO.N,unconnected-(J3-P9-Pad9)*%
X142975000Y-93870000D03*
%TO.P,J3,10,P10*%
%TO.N,GND*%
X145265000Y-93870000D03*
%TO.P,J3,11,P111*%
%TO.N,unconnected-(J3-P111-Pad11)*%
X137250000Y-91890000D03*
%TO.P,J3,12,P12*%
%TO.N,unconnected-(J3-P12-Pad12)*%
X139540000Y-91890000D03*
%TO.P,J3,13,P13*%
%TO.N,Net-(J3-P13)*%
X141830000Y-91890000D03*
%TO.P,J3,14,P14*%
%TO.N,Net-(J3-P14)*%
X144120000Y-91890000D03*
%TO.P,J3,15,P15*%
%TO.N,unconnected-(J3-P15-Pad15)*%
X146410000Y-91890000D03*
%TD*%
D32*
%TO.P,U8,40,VBUS*%
%TO.N,Net-(Q1-G)*%
X156897500Y-132507500D03*
%TO.P,U8,39,VSYS*%
%TO.N,Net-(Q1-S)*%
X154357500Y-132507500D03*
%TO.P,U8,38,GND*%
%TO.N,GND*%
X151817500Y-132507500D03*
%TO.P,U8,37,3V3_EN*%
%TO.N,unconnected-(U8-3V3_EN-Pad37)*%
X149277500Y-132507500D03*
%TO.P,U8,36,3V3*%
%TO.N,+3.3V*%
X146737500Y-132507500D03*
%TO.P,U8,35,ADC_VREF*%
%TO.N,unconnected-(U8-ADC_VREF-Pad35)*%
X144197500Y-132507500D03*
%TO.P,U8,34,GPIO28_ADC2*%
%TO.N,/VIDEO*%
X141657500Y-132507500D03*
%TO.P,U8,33,AGND*%
%TO.N,GND*%
X139117500Y-132507500D03*
%TO.P,U8,32,GPIO27_ADC1*%
%TO.N,/HSYNC*%
X136577500Y-132507500D03*
%TO.P,U8,31,GPIO26_ADC0*%
%TO.N,/VSYNC*%
X134037500Y-132507500D03*
%TO.P,U8,30,RUN*%
%TO.N,Net-(U8-RUN)*%
X131497500Y-132507500D03*
%TO.P,U8,29,GPIO22*%
%TO.N,/\u00D82*%
X128957500Y-132507500D03*
%TO.P,U8,28,GND*%
%TO.N,GND*%
X126417500Y-132507500D03*
%TO.P,U8,27,GPIO21*%
%TO.N,/R{slash}~{W}*%
X123877500Y-132507500D03*
%TO.P,U8,26,GPIO20*%
%TO.N,/~{CE}*%
X121337500Y-132507500D03*
%TO.P,U8,25,GPIO19*%
%TO.N,/TX*%
X118797500Y-132507500D03*
%TO.P,U8,24,GPIO18*%
%TO.N,/SCK*%
X116257500Y-132507500D03*
%TO.P,U8,23,GND*%
%TO.N,GND*%
X113717500Y-132507500D03*
%TO.P,U8,22,GPIO17*%
%TO.N,/CSn*%
X111177500Y-132507500D03*
%TO.P,U8,21,GPIO16*%
%TO.N,/RX*%
X108637500Y-132507500D03*
%TO.P,U8,20,GPIO15*%
%TO.N,/A15*%
X108637500Y-112927500D03*
%TO.P,U8,19,GPIO14*%
%TO.N,/A14*%
X111177500Y-112927500D03*
%TO.P,U8,18,GND*%
%TO.N,GND*%
X113717500Y-112927500D03*
%TO.P,U8,17,GPIO13*%
%TO.N,/A13*%
X116257500Y-112927500D03*
%TO.P,U8,16,GPIO12*%
%TO.N,/A12*%
X118797500Y-112927500D03*
%TO.P,U8,15,GPIO11*%
%TO.N,/A11*%
X121337500Y-112927500D03*
%TO.P,U8,14,GPIO10*%
%TO.N,/A10*%
X123877500Y-112927500D03*
%TO.P,U8,13,GND*%
%TO.N,GND*%
X126417500Y-112927500D03*
%TO.P,U8,12,GPIO9*%
%TO.N,/A9*%
X128957500Y-112927500D03*
%TO.P,U8,11,GPIO8*%
%TO.N,/A8*%
X131497500Y-112927500D03*
%TO.P,U8,10,GPIO7*%
%TO.N,/AD7*%
X134037500Y-112927500D03*
%TO.P,U8,9,GPIO6*%
%TO.N,/AD6*%
X136577500Y-112927500D03*
%TO.P,U8,8,GND*%
%TO.N,GND*%
X139117500Y-112927500D03*
%TO.P,U8,7,GPIO5*%
%TO.N,/AD5*%
X141657500Y-112927500D03*
%TO.P,U8,6,GPIO4*%
%TO.N,/AD4*%
X144197500Y-112927500D03*
%TO.P,U8,5,GPIO3*%
%TO.N,/AD3*%
X146737500Y-112927500D03*
%TO.P,U8,4,GPIO2*%
%TO.N,/AD2*%
X149277500Y-112927500D03*
%TO.P,U8,3,GND*%
%TO.N,GND*%
X151817500Y-112927500D03*
%TO.P,U8,2,GPIO1*%
%TO.N,/AD1*%
X154357500Y-112927500D03*
%TO.P,U8,1,GPIO0*%
%TO.N,/AD0*%
X156897500Y-112927500D03*
%TD*%
D18*
%TO.P,C7,2*%
%TO.N,+3.3V*%
X133587500Y-104780000D03*
%TO.P,C7,1*%
%TO.N,GND*%
X135312500Y-104780000D03*
%TD*%
D33*
%TO.P,U1,1*%
%TO.N,/~{CE}*%
X124350000Y-150030000D03*
%TO.P,U1,2*%
%TO.N,Net-(U4-G1)*%
X125620000Y-150030000D03*
%TO.P,U1,3*%
%TO.N,GND*%
X126890000Y-150030000D03*
%TO.P,U1,4*%
%TO.N,unconnected-(U1-Pad4)*%
X128160000Y-150030000D03*
%TO.P,U1,5*%
%TO.N,/~{\u00D82}*%
X129430000Y-150030000D03*
%TO.P,U1,6*%
%TO.N,/\u00D82*%
X130700000Y-150030000D03*
%TO.P,U1,7,GND*%
%TO.N,GND*%
X131970000Y-150030000D03*
%TO.P,U1,8*%
%TO.N,Net-(R18-Pad2)*%
X131970000Y-145080000D03*
%TO.P,U1,9*%
%TO.N,/VSYNC*%
X130700000Y-145080000D03*
%TO.P,U1,10*%
%TO.N,Net-(D1-A)*%
X129430000Y-145080000D03*
%TO.P,U1,11*%
%TO.N,Net-(J5-DAT3{slash}CD)*%
X128160000Y-145080000D03*
%TO.P,U1,12*%
%TO.N,/R{slash}~{W}*%
X126890000Y-145080000D03*
%TO.P,U1,13*%
%TO.N,/~{R}{slash}W*%
X125620000Y-145080000D03*
%TO.P,U1,14,VCC*%
%TO.N,+3.3V*%
X124350000Y-145080000D03*
%TD*%
D28*
%TO.P,C3,1*%
%TO.N,GND*%
X61750000Y-139005000D03*
%TO.P,C3,2*%
%TO.N,+3.3V*%
X61750000Y-140730000D03*
%TD*%
D15*
%TO.P,R8,1*%
%TO.N,/CSn*%
X111180000Y-135187500D03*
%TO.P,R8,2*%
%TO.N,Net-(J5-DAT3{slash}CD)*%
X111180000Y-137012500D03*
%TD*%
D34*
%TO.P,R16,2*%
%TO.N,Net-(R16-Pad2)*%
X134550000Y-101860000D03*
%TO.P,R16,1*%
%TO.N,Net-(J3-Pad3)*%
X136375000Y-101860000D03*
%TD*%
D14*
%TO.P,R12,1*%
%TO.N,Net-(J4-In)*%
X120607500Y-101660000D03*
%TO.P,R12,2*%
%TO.N,Net-(R12-Pad2)*%
X122432500Y-101660000D03*
%TD*%
D35*
%TO.P,Q1,1,G*%
%TO.N,Net-(Q1-G)*%
X156580000Y-135515000D03*
%TO.P,Q1,2,S*%
%TO.N,Net-(Q1-S)*%
X154680000Y-135515000D03*
%TO.P,Q1,3,D*%
%TO.N,+5V*%
X155630000Y-137390000D03*
%TD*%
D34*
%TO.P,R15,2*%
%TO.N,Net-(R15-Pad2)*%
X134550000Y-100400000D03*
%TO.P,R15,1*%
%TO.N,Net-(J3-Pad2)*%
X136375000Y-100400000D03*
%TD*%
D36*
%TO.P,R3,1*%
%TO.N,Net-(U4-G1)*%
X122560000Y-149092500D03*
%TO.P,R3,2*%
%TO.N,+3.3V*%
X122560000Y-147267500D03*
%TD*%
D24*
%TO.P,U2,1*%
%TO.N,Net-(U2-Pad1)*%
X139780000Y-142030000D03*
%TO.P,U2,2*%
%TO.N,/~{CE}*%
X139780000Y-142980000D03*
%TO.P,U2,3,GND*%
%TO.N,GND*%
X139780000Y-143930000D03*
%TO.P,U2,4*%
%TO.N,Net-(J1-Pin_2)*%
X142480000Y-143930000D03*
%TO.P,U2,5,VCC*%
%TO.N,+3.3V*%
X142480000Y-142030000D03*
%TD*%
D18*
%TO.P,C6,1*%
%TO.N,GND*%
X146042500Y-137820000D03*
%TO.P,C6,2*%
%TO.N,+3.3V*%
X144317500Y-137820000D03*
%TD*%
D23*
%TO.P,U3,1,G1*%
%TO.N,GND*%
X63935000Y-150030000D03*
%TO.P,U3,2,A0*%
%TO.N,/AB0*%
X65205000Y-150030000D03*
%TO.P,U3,3,A1*%
%TO.N,/AB1*%
X66475000Y-150030000D03*
%TO.P,U3,4,A2*%
%TO.N,/AB2*%
X67745000Y-150030000D03*
%TO.P,U3,5,A3*%
%TO.N,/AB3*%
X69015000Y-150030000D03*
%TO.P,U3,6,A4*%
%TO.N,/AB4*%
X70285000Y-150030000D03*
%TO.P,U3,7,A5*%
%TO.N,/AB5*%
X71555000Y-150030000D03*
%TO.P,U3,8,A6*%
%TO.N,/AB6*%
X72825000Y-150030000D03*
%TO.P,U3,9,A7*%
%TO.N,/AB7*%
X74095000Y-150030000D03*
%TO.P,U3,10,GND*%
%TO.N,GND*%
X75365000Y-150030000D03*
%TO.P,U3,11,Y7*%
%TO.N,/AD7*%
X75365000Y-140730000D03*
%TO.P,U3,12,Y6*%
%TO.N,/AD6*%
X74095000Y-140730000D03*
%TO.P,U3,13,Y5*%
%TO.N,/AD5*%
X72825000Y-140730000D03*
%TO.P,U3,14,Y4*%
%TO.N,/AD4*%
X71555000Y-140730000D03*
%TO.P,U3,15,Y3*%
%TO.N,/AD3*%
X70285000Y-140730000D03*
%TO.P,U3,16,Y2*%
%TO.N,/AD2*%
X69015000Y-140730000D03*
%TO.P,U3,17,Y1*%
%TO.N,/AD1*%
X67745000Y-140730000D03*
%TO.P,U3,18,Y0*%
%TO.N,/AD0*%
X66475000Y-140730000D03*
%TO.P,U3,19,G2*%
%TO.N,GND*%
X65205000Y-140730000D03*
%TO.P,U3,20,VCC*%
%TO.N,+3.3V*%
X63935000Y-140730000D03*
%TD*%
D15*
%TO.P,R9,1*%
%TO.N,/TX*%
X118800000Y-135187500D03*
%TO.P,R9,2*%
%TO.N,Net-(J5-CMD)*%
X118800000Y-137012500D03*
%TD*%
%TO.P,R1,1*%
%TO.N,Net-(J1-Pin_2)*%
X137900000Y-150967500D03*
%TO.P,R1,2*%
%TO.N,+5V*%
X137900000Y-152792500D03*
%TD*%
D14*
%TO.P,R13,1*%
%TO.N,Net-(J4-In)*%
X120607500Y-104400000D03*
%TO.P,R13,2*%
%TO.N,Net-(R13-Pad2)*%
X122432500Y-104400000D03*
%TD*%
D34*
%TO.P,R14,2*%
%TO.N,Net-(R14-Pad2)*%
X134550000Y-98940000D03*
%TO.P,R14,1*%
%TO.N,Net-(J3-Pad1)*%
X136375000Y-98940000D03*
%TD*%
%TO.P,R17,2*%
%TO.N,Net-(R17-Pad2)*%
X134550000Y-103320000D03*
%TO.P,R17,1*%
%TO.N,Net-(J3-P13)*%
X136375000Y-103320000D03*
%TD*%
D36*
%TO.P,R11,2*%
%TO.N,Net-(J5-DAT0)*%
X93010000Y-105765000D03*
%TO.P,R11,1*%
%TO.N,/RX*%
X93010000Y-107590000D03*
%TD*%
D34*
%TO.P,R18,1*%
%TO.N,Net-(J3-P14)*%
X133790000Y-143120000D03*
%TO.P,R18,2*%
%TO.N,Net-(R18-Pad2)*%
X131965000Y-143120000D03*
%TD*%
D37*
%TO.P,J5,10,SHIELD*%
%TO.N,GND*%
X80910000Y-92850000D03*
D38*
X81810000Y-102400000D03*
D39*
X96410000Y-102150000D03*
D37*
X96410000Y-92850000D03*
D40*
%TO.P,J5,9,DET*%
%TO.N,unconnected-(J5-DET-Pad9)*%
X95210000Y-103450000D03*
%TO.P,J5,8,DAT1*%
%TO.N,unconnected-(J5-DAT1-Pad8)*%
X94110000Y-103450000D03*
%TO.P,J5,7,DAT0*%
%TO.N,Net-(J5-DAT0)*%
X93010000Y-103450000D03*
%TO.P,J5,6,VSS*%
%TO.N,GND*%
X91910000Y-103450000D03*
%TO.P,J5,5,CLK*%
%TO.N,Net-(J5-CLK)*%
X90810000Y-103450000D03*
%TO.P,J5,4,VDD*%
%TO.N,+3.3V*%
X89710000Y-103450000D03*
%TO.P,J5,3,CMD*%
%TO.N,Net-(J5-CMD)*%
X88610000Y-103450000D03*
%TO.P,J5,2,DAT3/CD*%
%TO.N,Net-(J5-DAT3{slash}CD)*%
X87510000Y-103450000D03*
%TO.P,J5,1,DAT2*%
%TO.N,unconnected-(J5-DAT2-Pad1)*%
X86410000Y-103450000D03*
%TD*%
D22*
%TO.P,C10,2*%
%TO.N,+3.3V*%
X89710000Y-105750000D03*
%TO.P,C10,1*%
%TO.N,GND*%
X87985000Y-105750000D03*
%TD*%
D15*
%TO.P,R7,1*%
%TO.N,/RX*%
X108637500Y-135187500D03*
%TO.P,R7,2*%
%TO.N,+3.3V*%
X108637500Y-137012500D03*
%TD*%
D14*
%TO.P,R4,2*%
%TO.N,+3.3V*%
X89757500Y-108670000D03*
%TO.P,R4,1*%
%TO.N,Net-(J5-DAT3{slash}CD)*%
X87932500Y-108670000D03*
%TD*%
D22*
%TO.P,C11,2*%
%TO.N,+3.3V*%
X89710000Y-107210000D03*
%TO.P,C11,1*%
%TO.N,GND*%
X87985000Y-107210000D03*
%TD*%
D41*
%TO.N,GND*%
X131150000Y-154160000D03*
X125770000Y-154160000D03*
X153800000Y-153430000D03*
X100925000Y-118420000D03*
X100925000Y-133420000D03*
X156300000Y-103430000D03*
X146300000Y-103430000D03*
X116300000Y-103430000D03*
X106300000Y-93430000D03*
X106300000Y-103430000D03*
X85925000Y-133420000D03*
X76463909Y-133483909D03*
X66300000Y-153430000D03*
X66300000Y-143430000D03*
X66300000Y-133430000D03*
X56300000Y-153430000D03*
X56300000Y-143430000D03*
X56300000Y-133430000D03*
X76300000Y-123430000D03*
X66300000Y-123430000D03*
X56300000Y-123430000D03*
X86300000Y-113430000D03*
X76300000Y-113430000D03*
X56300000Y-113430000D03*
X66300000Y-103430000D03*
X56300000Y-103430000D03*
X76300000Y-93430000D03*
X66300000Y-93430000D03*
X56300000Y-93430000D03*
X127635545Y-105410883D03*
X132520000Y-105740000D03*
X133698909Y-102581091D03*
X129280000Y-101470000D03*
X127000000Y-102340000D03*
X101200000Y-92520000D03*
X87930000Y-104870000D03*
X92460000Y-108980000D03*
X87350000Y-110020000D03*
X107090000Y-130930000D03*
X141232864Y-142645797D03*
X136960000Y-129630000D03*
X141957841Y-129617703D03*
X109880000Y-137640000D03*
X114940000Y-136380000D03*
X117490000Y-136390000D03*
X120670658Y-134894901D03*
X133090000Y-142150000D03*
X128880000Y-143065958D03*
X129901078Y-148628896D03*
X124920000Y-146517500D03*
X129997570Y-151940000D03*
X124790000Y-151940000D03*
D42*
%TO.N,+3.3V*%
X117400000Y-147260000D03*
X117400000Y-149130000D03*
D41*
%TO.N,Net-(U2-Pad1)*%
X141360000Y-138770000D03*
X140900000Y-142030000D03*
D42*
%TO.N,GND*%
X126890000Y-148650000D03*
X151817500Y-110660000D03*
X151817500Y-115190000D03*
X139117500Y-110660000D03*
X139117500Y-115190000D03*
X126417500Y-110660000D03*
X126417500Y-115190000D03*
X114120000Y-114250000D03*
X113290000Y-114250000D03*
X124350000Y-97990000D03*
X124350000Y-100940000D03*
X136360000Y-104780000D03*
X82010000Y-92850000D03*
X79800000Y-92850000D03*
X97510000Y-92850000D03*
X95300000Y-92850000D03*
X97510000Y-102150000D03*
X95300000Y-102150000D03*
X101490000Y-95130000D03*
X83120000Y-102400000D03*
X80500000Y-102400000D03*
D41*
%TO.N,/~{CE}*%
X121340000Y-134690000D03*
%TO.N,Net-(J5-CMD)*%
X117820000Y-137010000D03*
%TO.N,Net-(J5-CLK)*%
X115280000Y-137010000D03*
%TO.N,Net-(J5-DAT3{slash}CD)*%
X87930000Y-109600000D03*
%TO.N,/RX*%
X93010000Y-108540000D03*
%TO.N,Net-(J5-CMD)*%
X88610000Y-104700000D03*
%TO.N,Net-(J5-CLK)*%
X90810000Y-104700000D03*
D42*
%TO.N,GND*%
X91910000Y-104760000D03*
X91910000Y-102150000D03*
X86950000Y-107210000D03*
X86950000Y-105750000D03*
X151817500Y-130250000D03*
X151817500Y-134780000D03*
X139117500Y-130250000D03*
X139117500Y-134780000D03*
X126417500Y-134780000D03*
X126417500Y-130250000D03*
X113717500Y-134780000D03*
X113717500Y-130250000D03*
%TO.N,+3.3V*%
X102310000Y-142238000D03*
%TO.N,GND*%
X62800000Y-139010000D03*
X65210000Y-142130000D03*
X103935000Y-142110000D03*
X103935000Y-139340000D03*
%TO.N,+3.3V*%
X137850000Y-115177502D03*
X137850000Y-105410000D03*
%TO.N,GND*%
X131970000Y-148650000D03*
X139780000Y-144660000D03*
D43*
X147620000Y-145630000D03*
D42*
X85210000Y-139270000D03*
D41*
X74740000Y-151790000D03*
X68390000Y-151790000D03*
X85808909Y-151831091D03*
D42*
X141040000Y-137820000D03*
X65210000Y-139320000D03*
D44*
X148580000Y-154970000D03*
D41*
X92158909Y-151831091D03*
X87078909Y-151831091D03*
D42*
X82050000Y-137877500D03*
X123050000Y-139670000D03*
D41*
X69660000Y-151790000D03*
D43*
X144620000Y-149240000D03*
D41*
X94698909Y-151831091D03*
D42*
X146040000Y-141110000D03*
X61750000Y-137877500D03*
X120250000Y-150030000D03*
D41*
X73470000Y-151790000D03*
X72200000Y-151790000D03*
D42*
X130250000Y-139670000D03*
X146040000Y-142960000D03*
X132750000Y-139670000D03*
X125550000Y-139670000D03*
D41*
X67120000Y-151790000D03*
D42*
X63935000Y-148600000D03*
D41*
X88348909Y-151831091D03*
X93428909Y-151831091D03*
D42*
X95365000Y-151460000D03*
D41*
X65850000Y-151790000D03*
X75365000Y-148600000D03*
D43*
X150670000Y-145630000D03*
D42*
X119820000Y-145080000D03*
X63935000Y-151460000D03*
X146040000Y-136920000D03*
D41*
X90888909Y-151831091D03*
D43*
X143200000Y-150510000D03*
D41*
X75365000Y-151460000D03*
X89618909Y-151831091D03*
D42*
X146040000Y-138720000D03*
D41*
X70930000Y-151790000D03*
%TO.N,/~{R}{slash}W*%
X125620000Y-146460000D03*
%TO.N,/~{\u00D82}*%
X129430000Y-151390000D03*
%TO.N,/~{CE}*%
X124350000Y-151390000D03*
D42*
%TO.N,+3.3V*%
X82050000Y-142230000D03*
X82050000Y-147260000D03*
X102310000Y-147260000D03*
D41*
%TO.N,/AB0*%
X65205000Y-151460000D03*
%TO.N,/AB1*%
X66475000Y-151460000D03*
%TO.N,/AB2*%
X67745000Y-151460000D03*
%TO.N,/AB3*%
X69015000Y-151460000D03*
%TO.N,/AB4*%
X70285000Y-151460000D03*
%TO.N,/AB5*%
X71555000Y-151460000D03*
%TO.N,/AB6*%
X72825000Y-151460000D03*
%TO.N,/AB7*%
X74095000Y-151460000D03*
%TO.N,/AB8*%
X85205000Y-151460000D03*
%TO.N,/AB9*%
X86475000Y-151460000D03*
%TO.N,/AB10*%
X87745000Y-151460000D03*
%TO.N,/AB11*%
X89015000Y-151460000D03*
%TO.N,/AB12*%
X90285000Y-151460000D03*
%TO.N,/AB13*%
X91555000Y-151460000D03*
%TO.N,/AB14*%
X92825000Y-151460000D03*
%TO.N,/AB15*%
X94095000Y-151460000D03*
%TO.N,/RX*%
X107280000Y-131610000D03*
%TO.N,Net-(J5-DAT3{slash}CD)*%
X110200000Y-137010000D03*
%TO.N,Net-(R16-Pad2)*%
X129685000Y-102045000D03*
X133660000Y-101860000D03*
%TO.N,Net-(R17-Pad2)*%
X133660000Y-103320000D03*
X127300000Y-103000000D03*
%TO.N,Net-(J3-P14)*%
X133790000Y-142140000D03*
%TO.N,/\u00D82*%
X128957500Y-134690000D03*
X130700000Y-148650000D03*
%TO.N,Net-(D1-A)*%
X101596000Y-91940000D03*
X129430000Y-143690000D03*
%TO.N,/HSYNC*%
X136577500Y-130250000D03*
X128641790Y-105360000D03*
%TO.N,/VIDEO*%
X141657500Y-130250000D03*
X131344901Y-105687768D03*
%TD*%
D45*
%TO.N,/DB3*%
X108985721Y-159874301D02*
G75*
G03*
X109015000Y-159803579I-70721J70701D01*
G01*
%TO.N,Net-(D1-K)*%
X104309984Y-92018921D02*
G75*
G03*
X104280709Y-91948211I-99984J21D01*
G01*
D46*
%TO.N,+3.3V*%
X89757484Y-107298921D02*
G75*
G03*
X89728209Y-107228211I-99984J21D01*
G01*
D45*
%TO.N,/A13*%
X92912891Y-119074344D02*
G75*
G03*
X92825000Y-119286453I212109J-212156D01*
G01*
%TO.N,/AD4*%
X144142298Y-112247979D02*
G75*
G03*
X144189972Y-112310115I259802J149979D01*
G01*
X144120439Y-112210152D02*
G75*
G03*
X144063193Y-112133754I-346439J-199948D01*
G01*
%TO.N,/R{slash}~{W}*%
X128334867Y-146354976D02*
G75*
G03*
X128617709Y-146237843I33J399976D01*
G01*
%TO.N,/A15*%
X129516449Y-121296443D02*
G75*
G03*
X129162893Y-121150000I-353549J-353557D01*
G01*
X137849995Y-129837107D02*
G75*
G03*
X137703553Y-129483553I-499995J7D01*
G01*
%TO.N,/A13*%
X142929995Y-129997107D02*
G75*
G03*
X142783554Y-129643554I-499995J7D01*
G01*
X133782450Y-120642444D02*
G75*
G03*
X133428893Y-120496000I-353550J-353556D01*
G01*
%TO.N,/~{CE}*%
X129486176Y-152206470D02*
G75*
G03*
X129132645Y-152060000I-353576J-353530D01*
G01*
X139207108Y-142980006D02*
G75*
G03*
X138853555Y-143126446I-8J-499994D01*
G01*
X127803551Y-151913557D02*
G75*
G03*
X128157107Y-152060000I353549J353557D01*
G01*
X127426450Y-151536444D02*
G75*
G03*
X127072893Y-151390000I-353550J-353556D01*
G01*
X131592893Y-152489995D02*
G75*
G03*
X131946447Y-152343553I7J499995D01*
G01*
X129623327Y-152343533D02*
G75*
G03*
X129976859Y-152490000I353573J353533D01*
G01*
X133596443Y-148383550D02*
G75*
G03*
X133450000Y-148737108I353557J-353550D01*
G01*
X133303557Y-150986449D02*
G75*
G03*
X133450000Y-150632893I-353557J353549D01*
G01*
D47*
%TO.N,+3.3V*%
X60575005Y-141827893D02*
G75*
G03*
X60721447Y-142181447I499995J-7D01*
G01*
X88166449Y-100566443D02*
G75*
G03*
X87812893Y-100420000I-353549J-353557D01*
G01*
X60721443Y-119118551D02*
G75*
G03*
X60575000Y-119472107I353557J-353549D01*
G01*
X79627107Y-100420005D02*
G75*
G03*
X79273553Y-100566447I-7J-499995D01*
G01*
X65653551Y-147113557D02*
G75*
G03*
X66007107Y-147260000I353549J353557D01*
G01*
D45*
%TO.N,Net-(U4-G1)*%
X125619994Y-149262108D02*
G75*
G03*
X125473554Y-148908555I-499994J8D01*
G01*
X125171450Y-148606443D02*
G75*
G03*
X124817892Y-148460000I-353550J-353557D01*
G01*
X123399607Y-148460005D02*
G75*
G03*
X123046054Y-148606446I-7J-499995D01*
G01*
X121416050Y-148946056D02*
G75*
G03*
X121769607Y-149092500I353550J353556D01*
G01*
X121146449Y-148676443D02*
G75*
G03*
X120792893Y-148530000I-353549J-353557D01*
G01*
%TO.N,/~{CE}*%
X117966050Y-152128556D02*
G75*
G03*
X118319607Y-152275000I353550J353556D01*
G01*
X119837893Y-152274995D02*
G75*
G03*
X120191446Y-152128554I7J499995D01*
G01*
X121137107Y-151390005D02*
G75*
G03*
X120783553Y-151536447I-7J-499995D01*
G01*
%TO.N,+3.3V*%
X118721050Y-151353556D02*
G75*
G03*
X119074607Y-151500000I353550J353556D01*
G01*
%TO.N,Net-(U4-G1)*%
X84081443Y-148918551D02*
G75*
G03*
X83935000Y-149272107I353557J-353549D01*
G01*
X84677107Y-148530005D02*
G75*
G03*
X84323553Y-148676447I-7J-499995D01*
G01*
%TO.N,/~{CE}*%
X114095006Y-150847892D02*
G75*
G03*
X114241446Y-151201445I499994J-8D01*
G01*
D48*
%TO.N,+3.3V*%
X132188550Y-104633556D02*
G75*
G03*
X132542107Y-104780000I353550J353556D01*
G01*
D45*
%TO.N,/~{CE}*%
X114393550Y-151353557D02*
G75*
G03*
X114747108Y-151500000I353550J353557D01*
G01*
D49*
%TO.N,Net-(J3-Pad1)*%
X137103556Y-98746450D02*
G75*
G03*
X137250000Y-98392893I-353556J353550D01*
G01*
X136702893Y-98939995D02*
G75*
G03*
X137056446Y-98793554I7J499995D01*
G01*
D45*
%TO.N,/A14*%
X109933950Y-111023944D02*
G75*
G03*
X109580393Y-110877500I-353550J-353556D01*
G01*
%TO.N,/A13*%
X92922111Y-119065078D02*
G75*
G03*
X92929959Y-119057052I-349911J349978D01*
G01*
%TO.N,/A14*%
X101777159Y-110877471D02*
G75*
G03*
X101423606Y-111023946I41J-500029D01*
G01*
%TO.N,/A11*%
X90431440Y-120628754D02*
G75*
G03*
X90285000Y-120982315I353560J-353546D01*
G01*
%TO.N,/A13*%
X92975417Y-119009687D02*
G75*
G03*
X92967567Y-119017718I354283J-354213D01*
G01*
%TO.N,/A12*%
X91701466Y-119821228D02*
G75*
G03*
X91555000Y-120174763I353534J-353572D01*
G01*
%TO.N,/A11*%
X101370815Y-109896511D02*
G75*
G03*
X101017262Y-110042946I-15J-499989D01*
G01*
%TO.N,/A9*%
X101084607Y-109242505D02*
G75*
G03*
X100731054Y-109388946I-7J-499995D01*
G01*
X87891444Y-122228550D02*
G75*
G03*
X87745000Y-122582107I353556J-353550D01*
G01*
%TO.N,/A11*%
X118969970Y-110042963D02*
G75*
G03*
X118616432Y-109896500I-353570J-353537D01*
G01*
%TO.N,/A12*%
X116756970Y-110369963D02*
G75*
G03*
X116403432Y-110223500I-353570J-353537D01*
G01*
X101506263Y-110223474D02*
G75*
G03*
X101152710Y-110369946I37J-500026D01*
G01*
%TO.N,/A13*%
X114686950Y-110696944D02*
G75*
G03*
X114333393Y-110550500I-353550J-353556D01*
G01*
X101641711Y-110550508D02*
G75*
G03*
X101288158Y-110696946I-11J-499992D01*
G01*
%TO.N,/A12*%
X118797522Y-112617568D02*
G75*
G03*
X118651053Y-112264016I-500022J-32D01*
G01*
%TO.N,/A11*%
X121337522Y-112617568D02*
G75*
G03*
X121191053Y-112264016I-500022J-32D01*
G01*
%TO.N,/A10*%
X121325950Y-109715944D02*
G75*
G03*
X120972393Y-109569500I-353550J-353556D01*
G01*
X123877495Y-112474607D02*
G75*
G03*
X123731054Y-112121054I-499995J7D01*
G01*
%TO.N,/A9*%
X128957495Y-112474607D02*
G75*
G03*
X128811054Y-112121054I-499995J7D01*
G01*
X126078950Y-109388944D02*
G75*
G03*
X125725393Y-109242500I-353550J-353556D01*
G01*
%TO.N,/A15*%
X106186450Y-111376444D02*
G75*
G03*
X105832893Y-111230000I-353550J-353556D01*
G01*
X101887107Y-111230005D02*
G75*
G03*
X101533554Y-111376446I-7J-499995D01*
G01*
%TO.N,/A10*%
X101227607Y-109569505D02*
G75*
G03*
X100874054Y-109715946I-7J-499995D01*
G01*
X89161444Y-121428550D02*
G75*
G03*
X89015000Y-121782107I353556J-353550D01*
G01*
%TO.N,/A8*%
X100941607Y-108915505D02*
G75*
G03*
X100588054Y-109061946I-7J-499995D01*
G01*
X86621444Y-123028550D02*
G75*
G03*
X86475000Y-123382107I353556J-353550D01*
G01*
X131497495Y-112474607D02*
G75*
G03*
X131351054Y-112121054I-499995J7D01*
G01*
X128291950Y-109061944D02*
G75*
G03*
X127938393Y-108915500I-353550J-353556D01*
G01*
%TO.N,/DB1*%
X111555005Y-150497893D02*
G75*
G03*
X111701447Y-150851447I499995J-7D01*
G01*
%TO.N,/DB0*%
X120859995Y-157617107D02*
G75*
G03*
X120713554Y-157263554I-499995J7D01*
G01*
D49*
%TO.N,Net-(J3-Pad2)*%
X136772893Y-100399995D02*
G75*
G03*
X137126446Y-100253554I7J499995D01*
G01*
X139393556Y-97986450D02*
G75*
G03*
X139540000Y-97632893I-353556J353550D01*
G01*
D45*
%TO.N,/DB2*%
X110285005Y-152737893D02*
G75*
G03*
X110431447Y-153091447I499995J-7D01*
G01*
%TO.N,/DB1*%
X116899995Y-156257107D02*
G75*
G03*
X116753554Y-155903554I-499995J7D01*
G01*
%TO.N,/DB0*%
X112825005Y-150817893D02*
G75*
G03*
X112971447Y-151171447I499995J-7D01*
G01*
X118496450Y-155046444D02*
G75*
G03*
X118142893Y-154900000I-353550J-353556D01*
G01*
X116553551Y-154753557D02*
G75*
G03*
X116907107Y-154900000I353549J353557D01*
G01*
%TO.N,/VIDEO*%
X130700029Y-104835760D02*
G75*
G03*
X130846448Y-105189313I499971J-40D01*
G01*
%TO.N,/HSYNC*%
X128159995Y-102677107D02*
G75*
G03*
X128013553Y-102323553I-499995J7D01*
G01*
%TO.N,/AD1*%
X67745005Y-141877893D02*
G75*
G03*
X67891446Y-142231446I499995J-7D01*
G01*
X70316550Y-144656556D02*
G75*
G03*
X70670107Y-144803000I353550J353556D01*
G01*
%TO.N,/HSYNC*%
X128159998Y-104671103D02*
G75*
G03*
X128306447Y-105024657I500002J3D01*
G01*
%TO.N,/AD1*%
X109569892Y-144802994D02*
G75*
G03*
X109923445Y-144656554I8J499994D01*
G01*
%TO.N,/AD2*%
X111408557Y-141901450D02*
G75*
G03*
X111555000Y-141547892I-353557J353550D01*
G01*
%TO.N,/AD1*%
X112678557Y-141901450D02*
G75*
G03*
X112825000Y-141547892I-353557J353550D01*
G01*
%TO.N,/AD3*%
X141896950Y-107426944D02*
G75*
G03*
X141543393Y-107280500I-353550J-353556D01*
G01*
X70285005Y-141667893D02*
G75*
G03*
X70431446Y-142021446I499995J-7D01*
G01*
X72412550Y-144002556D02*
G75*
G03*
X72766107Y-144149000I353550J353556D01*
G01*
%TO.N,/AD2*%
X69014971Y-141370341D02*
G75*
G03*
X69161446Y-141723894I500029J41D01*
G01*
%TO.N,/AD3*%
X107686892Y-144145994D02*
G75*
G03*
X108040445Y-143999554I8J499994D01*
G01*
X110138557Y-141901450D02*
G75*
G03*
X110285000Y-141547892I-353557J353550D01*
G01*
X146737495Y-112474607D02*
G75*
G03*
X146591054Y-112121054I-499995J7D01*
G01*
%TO.N,/AD0*%
X69703550Y-144983557D02*
G75*
G03*
X70057108Y-145130000I353550J353557D01*
G01*
X110512892Y-145129994D02*
G75*
G03*
X110866445Y-144983554I8J499994D01*
G01*
%TO.N,/VIDEO*%
X131969994Y-98697108D02*
G75*
G03*
X131823554Y-98343555I-499994J8D01*
G01*
X131816450Y-98336443D02*
G75*
G03*
X131462892Y-98190000I-353550J-353557D01*
G01*
%TO.N,/AD0*%
X113948557Y-141901450D02*
G75*
G03*
X114095000Y-141547892I-353557J353550D01*
G01*
%TO.N,/HSYNC*%
X126890005Y-100992893D02*
G75*
G03*
X127036446Y-101346446I499995J-7D01*
G01*
%TO.N,/AD0*%
X66475006Y-141547892D02*
G75*
G03*
X66621446Y-141901445I499994J-8D01*
G01*
%TO.N,/AD3*%
X100176607Y-107280505D02*
G75*
G03*
X99823054Y-107426946I-7J-499995D01*
G01*
X70431444Y-136818550D02*
G75*
G03*
X70285000Y-137172107I353556J-353550D01*
G01*
%TO.N,/VIDEO*%
X129937108Y-98190006D02*
G75*
G03*
X129583555Y-98336446I-8J-499994D01*
G01*
X129576443Y-98343550D02*
G75*
G03*
X129430000Y-98697108I353557J-353550D01*
G01*
%TO.N,/AD2*%
X71767126Y-144329532D02*
G75*
G03*
X72120659Y-144476000I353574J353532D01*
G01*
X108629892Y-144472994D02*
G75*
G03*
X108983445Y-144326554I8J499994D01*
G01*
%TO.N,/VIDEO*%
X129430005Y-100372893D02*
G75*
G03*
X129576446Y-100726446I499995J-7D01*
G01*
X130699995Y-102057107D02*
G75*
G03*
X130553553Y-101703553I-499995J7D01*
G01*
%TO.N,/AD7*%
X134037495Y-112474607D02*
G75*
G03*
X133891054Y-112121054I-499995J7D01*
G01*
X75365005Y-141707893D02*
G75*
G03*
X75511446Y-142061446I499995J-7D01*
G01*
%TO.N,/AD4*%
X71854995Y-141237107D02*
G75*
G03*
X71708553Y-140883553I-499995J7D01*
G01*
X71854971Y-141310341D02*
G75*
G03*
X72001446Y-141663894I500029J41D01*
G01*
%TO.N,/AD7*%
X130504950Y-108734944D02*
G75*
G03*
X130151393Y-108588500I-353550J-353556D01*
G01*
%TO.N,/AD4*%
X144054953Y-112125134D02*
G75*
G03*
X144047062Y-112117062I-365853J-349766D01*
G01*
X139683950Y-107753944D02*
G75*
G03*
X139330393Y-107607500I-353550J-353556D01*
G01*
X106743892Y-143818994D02*
G75*
G03*
X107097445Y-143672554I8J499994D01*
G01*
X100339607Y-107607505D02*
G75*
G03*
X99986054Y-107753946I-7J-499995D01*
G01*
%TO.N,/AD5*%
X141657495Y-112474607D02*
G75*
G03*
X141511054Y-112121054I-499995J7D01*
G01*
X137470950Y-108080944D02*
G75*
G03*
X137117393Y-107934500I-353550J-353556D01*
G01*
X100492607Y-107934505D02*
G75*
G03*
X100139054Y-108080946I-7J-499995D01*
G01*
X72825005Y-141367893D02*
G75*
G03*
X72971446Y-141721446I499995J-7D01*
G01*
%TO.N,/AD7*%
X100788607Y-108588505D02*
G75*
G03*
X100435054Y-108734946I-7J-499995D01*
G01*
X75511444Y-133658550D02*
G75*
G03*
X75365000Y-134012107I353556J-353550D01*
G01*
%TO.N,/AD6*%
X74095005Y-141787893D02*
G75*
G03*
X74241446Y-142141446I499995J-7D01*
G01*
X100635607Y-108261505D02*
G75*
G03*
X100282054Y-108407946I-7J-499995D01*
G01*
X74241444Y-134448550D02*
G75*
G03*
X74095000Y-134802107I353556J-353550D01*
G01*
X106328557Y-141901450D02*
G75*
G03*
X106475000Y-141547892I-353557J353550D01*
G01*
%TO.N,/AD4*%
X74013126Y-143675532D02*
G75*
G03*
X74366659Y-143822000I353574J353532D01*
G01*
%TO.N,/AD7*%
X105058557Y-141901450D02*
G75*
G03*
X105205000Y-141547892I-353557J353550D01*
G01*
%TO.N,/AD5*%
X107598557Y-141901450D02*
G75*
G03*
X107745000Y-141547892I-353557J353550D01*
G01*
%TO.N,/AD6*%
X75118550Y-143018556D02*
G75*
G03*
X75472107Y-143165000I353550J353556D01*
G01*
X104857892Y-143164994D02*
G75*
G03*
X105211445Y-143018554I8J499994D01*
G01*
%TO.N,/AD4*%
X71701444Y-136038550D02*
G75*
G03*
X71555000Y-136392107I353556J-353550D01*
G01*
X108868557Y-141901450D02*
G75*
G03*
X109015000Y-141547892I-353557J353550D01*
G01*
%TO.N,/AD5*%
X74595550Y-143345556D02*
G75*
G03*
X74949107Y-143492000I353550J353556D01*
G01*
X105800892Y-143491994D02*
G75*
G03*
X106154445Y-143345554I8J499994D01*
G01*
X72971444Y-135248550D02*
G75*
G03*
X72825000Y-135602107I353556J-353550D01*
G01*
%TO.N,/AD7*%
X76141550Y-142691556D02*
G75*
G03*
X76495107Y-142838000I353550J353556D01*
G01*
X103914892Y-142837994D02*
G75*
G03*
X104268445Y-142691554I8J499994D01*
G01*
%TO.N,/AD6*%
X136577495Y-112474607D02*
G75*
G03*
X136431054Y-112121054I-499995J7D01*
G01*
X132717950Y-108407944D02*
G75*
G03*
X132364393Y-108261500I-353550J-353556D01*
G01*
%TO.N,Net-(R17-Pad2)*%
X127036443Y-103263551D02*
G75*
G03*
X126890000Y-103617107I353557J-353549D01*
G01*
%TO.N,Net-(R16-Pad2)*%
X129576443Y-102153551D02*
G75*
G03*
X129430000Y-102507107I353557J-353549D01*
G01*
%TO.N,/R{slash}~{W}*%
X126889995Y-144177107D02*
G75*
G03*
X126743553Y-143823553I-499995J7D01*
G01*
X127043550Y-146208557D02*
G75*
G03*
X127397108Y-146355000I353550J353557D01*
G01*
X116618550Y-141983556D02*
G75*
G03*
X116972107Y-142130000I353550J353556D01*
G01*
X125196449Y-142276443D02*
G75*
G03*
X124842893Y-142130000I-353549J-353557D01*
G01*
X126396450Y-141406444D02*
G75*
G03*
X126042893Y-141260000I-353550J-353556D01*
G01*
X123645036Y-141113543D02*
G75*
G03*
X123998578Y-141260000I353564J353543D01*
G01*
X122449985Y-139711422D02*
G75*
G03*
X122596448Y-140064975I500015J22D01*
G01*
X122596457Y-135665036D02*
G75*
G03*
X122450000Y-136018578I353543J-353564D01*
G01*
%TO.N,Net-(R14-Pad2)*%
X128306443Y-98343550D02*
G75*
G03*
X128160000Y-98697108I353557J-353550D01*
G01*
%TO.N,Net-(R15-Pad2)*%
X130700006Y-100232892D02*
G75*
G03*
X130846447Y-100586446I499994J-8D01*
G01*
X130863551Y-100603558D02*
G75*
G03*
X131217108Y-100750000I353549J353558D01*
G01*
%TO.N,/R{slash}~{W}*%
X126890006Y-145847892D02*
G75*
G03*
X127036446Y-146201445I499994J-8D01*
G01*
X123731071Y-134530436D02*
G75*
G03*
X123877500Y-134176864I-353571J353536D01*
G01*
X128643530Y-146211976D02*
G75*
G03*
X128790000Y-145858445I-353530J353576D01*
G01*
X128789995Y-144007107D02*
G75*
G03*
X128643554Y-143653554I-499995J7D01*
G01*
%TO.N,Net-(R15-Pad2)*%
X133992893Y-100749995D02*
G75*
G03*
X134346447Y-100603553I7J499995D01*
G01*
%TO.N,Net-(R14-Pad2)*%
X133606450Y-97996444D02*
G75*
G03*
X133252893Y-97850000I-353550J-353556D01*
G01*
X129007108Y-97850006D02*
G75*
G03*
X128653555Y-97996446I-8J-499994D01*
G01*
D49*
%TO.N,Net-(J3-Pad3)*%
X141683556Y-97216450D02*
G75*
G03*
X141830000Y-96862893I-353556J353550D01*
G01*
D45*
%TO.N,Net-(J3-P13)*%
X141830030Y-94087258D02*
G75*
G03*
X141976447Y-94440812I499970J-42D01*
G01*
X136812893Y-103319995D02*
G75*
G03*
X137166446Y-103173554I7J499995D01*
G01*
D49*
%TO.N,Net-(J3-Pad3)*%
X136832893Y-101859995D02*
G75*
G03*
X137186446Y-101713554I7J499995D01*
G01*
D45*
%TO.N,Net-(J3-P13)*%
X142823556Y-97516450D02*
G75*
G03*
X142970000Y-97162893I-353556J353550D01*
G01*
X142970019Y-95641472D02*
G75*
G03*
X142823553Y-95287920I-500019J-28D01*
G01*
D49*
%TO.N,Net-(J4-In)*%
X120607495Y-100617107D02*
G75*
G03*
X120461053Y-100263553I-499995J7D01*
G01*
D45*
%TO.N,/DB7*%
X103788560Y-152294347D02*
G75*
G03*
X103935000Y-151940786I-353560J353547D01*
G01*
%TO.N,/DB6*%
X105058556Y-152581450D02*
G75*
G03*
X105205000Y-152227893I-353556J353550D01*
G01*
%TO.N,/DB7*%
X102915786Y-152959990D02*
G75*
G03*
X103269339Y-152813554I14J499990D01*
G01*
%TO.N,Net-(J5-DAT3{slash}CD)*%
X128159994Y-144312108D02*
G75*
G03*
X128013553Y-143958554I-499994J8D01*
G01*
X125911449Y-141856442D02*
G75*
G03*
X125557892Y-141710000I-353549J-353558D01*
G01*
X117873550Y-141563556D02*
G75*
G03*
X118227107Y-141710000I353550J353556D01*
G01*
X113468949Y-137158943D02*
G75*
G03*
X113115393Y-137012500I-353549J-353557D01*
G01*
D46*
%TO.N,+3.3V*%
X89709995Y-102257107D02*
G75*
G03*
X89563554Y-101903554I-499995J7D01*
G01*
D45*
%TO.N,/VSYNC*%
X130846443Y-142483551D02*
G75*
G03*
X130700000Y-142837107I353557J-353549D01*
G01*
X133891056Y-139438950D02*
G75*
G03*
X134037500Y-139085393I-353556J353550D01*
G01*
D48*
%TO.N,+3.3V*%
X105327132Y-137012523D02*
G75*
G03*
X104973579Y-137158946I-32J-499977D01*
G01*
X102456431Y-139676062D02*
G75*
G03*
X102310000Y-140029632I353569J-353538D01*
G01*
D45*
%TO.N,/VIDEO*%
X125620005Y-105122893D02*
G75*
G03*
X125766446Y-105476446I499995J-7D01*
G01*
X126113550Y-105823556D02*
G75*
G03*
X126467107Y-105970000I353550J353556D01*
G01*
X130855562Y-105969973D02*
G75*
G03*
X131209115Y-105823554I38J499973D01*
G01*
%TO.N,/AD2*%
X149277535Y-112524750D02*
G75*
G03*
X149131054Y-112171197I-500035J-50D01*
G01*
X144057329Y-107097422D02*
G75*
G03*
X143703750Y-106951000I-353529J-353578D01*
G01*
%TO.N,/AD0*%
X99740107Y-106297005D02*
G75*
G03*
X99386554Y-106443446I-7J-499995D01*
G01*
X156897522Y-112617568D02*
G75*
G03*
X156751053Y-112264016I-500022J-32D01*
G01*
X150930470Y-106443463D02*
G75*
G03*
X150576932Y-106297000I-353570J-353537D01*
G01*
%TO.N,/AD2*%
X100036107Y-106951005D02*
G75*
G03*
X99682554Y-107097446I-7J-499995D01*
G01*
X69161444Y-137618550D02*
G75*
G03*
X69015000Y-137972107I353556J-353550D01*
G01*
%TO.N,/AD1*%
X154357495Y-112474607D02*
G75*
G03*
X154211054Y-112121054I-499995J7D01*
G01*
X67891444Y-138408550D02*
G75*
G03*
X67745000Y-138762107I353556J-353550D01*
G01*
%TO.N,/AD0*%
X66621444Y-139208550D02*
G75*
G03*
X66475000Y-139562107I353556J-353550D01*
G01*
%TO.N,/AD1*%
X148860450Y-106770444D02*
G75*
G03*
X148506893Y-106624000I-353550J-353556D01*
G01*
X99883107Y-106624005D02*
G75*
G03*
X99529554Y-106770446I-7J-499995D01*
G01*
%TO.N,Net-(J5-DAT3{slash}CD)*%
X87363572Y-104387935D02*
G75*
G03*
X87510000Y-104034364I-353572J353535D01*
G01*
X86496458Y-105255035D02*
G75*
G03*
X86350000Y-105608578I353542J-353565D01*
G01*
X86349985Y-107251422D02*
G75*
G03*
X86496447Y-107604974I500015J22D01*
G01*
X87415035Y-108523542D02*
G75*
G03*
X87768578Y-108670000I353565J353542D01*
G01*
D46*
%TO.N,+3.3V*%
X137850005Y-121362893D02*
G75*
G03*
X137996446Y-121716446I499995J-7D01*
G01*
X146737495Y-130664607D02*
G75*
G03*
X146591053Y-130311053I-499995J7D01*
G01*
X134416050Y-105608556D02*
G75*
G03*
X134769607Y-105755000I353550J353556D01*
G01*
X137297893Y-105754995D02*
G75*
G03*
X137651446Y-105608554I7J499995D01*
G01*
D49*
%TO.N,Net-(R12-Pad2)*%
X125473556Y-100826450D02*
G75*
G03*
X125620000Y-100472893I-353556J353550D01*
G01*
X124432893Y-101659995D02*
G75*
G03*
X124786446Y-101513554I7J499995D01*
G01*
D47*
%TO.N,+3.3V*%
X138957107Y-140440005D02*
G75*
G03*
X138603554Y-140586446I-7J-499995D01*
G01*
X131764131Y-147260022D02*
G75*
G03*
X132117685Y-147113553I-31J500022D01*
G01*
D45*
%TO.N,/VIDEO*%
X125620000Y-105122893D02*
X125620000Y-104415000D01*
X126113553Y-105823553D02*
X125766446Y-105476446D01*
X130855562Y-105970000D02*
X126467107Y-105970000D01*
X131344901Y-105687768D02*
X131209115Y-105823554D01*
%TO.N,/AD2*%
X149277500Y-112524750D02*
X149277500Y-113827500D01*
X144057304Y-107097447D02*
X149131054Y-112171197D01*
X100036107Y-106951000D02*
X143703750Y-106951000D01*
X69161447Y-137618553D02*
X99682554Y-107097446D01*
X69015000Y-140730000D02*
X69015000Y-137972107D01*
%TO.N,/AD1*%
X154357500Y-112474607D02*
X154357500Y-113827500D01*
X67891447Y-138408553D02*
X99529554Y-106770446D01*
%TO.N,/AD0*%
X156897500Y-112617568D02*
X156897500Y-113827500D01*
X150930486Y-106443447D02*
X156751054Y-112264015D01*
X99740107Y-106297000D02*
X150576932Y-106297000D01*
X66621447Y-139208553D02*
X99386554Y-106443446D01*
%TO.N,/AD1*%
X67745000Y-140730000D02*
X67745000Y-138762107D01*
%TO.N,/AD0*%
X66475000Y-140730000D02*
X66475000Y-139562107D01*
%TO.N,/AD1*%
X148860447Y-106770447D02*
X154211054Y-112121054D01*
X99883107Y-106624000D02*
X148506893Y-106624000D01*
%TO.N,/A15*%
X108639596Y-113827500D02*
X108637500Y-113827500D01*
X110111010Y-115298914D02*
X108639596Y-113827500D01*
X122253554Y-121003554D02*
X116796447Y-115546447D01*
X129162893Y-121150000D02*
X122607107Y-121150000D01*
X137703553Y-129483553D02*
X129516446Y-121296446D01*
X110111010Y-115298914D02*
G75*
G03*
X110417107Y-115399999I310690J426814D01*
G01*
X138853555Y-138626054D02*
X137996447Y-137768946D01*
X116796450Y-115546444D02*
G75*
G03*
X116442893Y-115400000I-353550J-353556D01*
G01*
X116442893Y-115400000D02*
X110417107Y-115400000D01*
X122253551Y-121003557D02*
G75*
G03*
X122607107Y-121150000I353549J353557D01*
G01*
X139780000Y-138772500D02*
X139207108Y-138772500D01*
X137850006Y-137415392D02*
G75*
G03*
X137996447Y-137768946I499994J-8D01*
G01*
X137850000Y-137415392D02*
X137850000Y-129837107D01*
X138853551Y-138626058D02*
G75*
G03*
X139207108Y-138772500I353549J353558D01*
G01*
%TO.N,/A13*%
X142783553Y-136568947D02*
X142480000Y-136872500D01*
X142930000Y-129997107D02*
X142930000Y-136215393D01*
X122878003Y-120496000D02*
X133428893Y-120496000D01*
X122524449Y-120349555D02*
G75*
G03*
X122878003Y-120496000I353551J353555D01*
G01*
X142783556Y-136568950D02*
G75*
G03*
X142930000Y-136215393I-353556J353550D01*
G01*
X116257500Y-113827500D02*
X116257500Y-113875497D01*
X116403947Y-114229051D02*
X122524450Y-120349554D01*
X133782447Y-120642447D02*
X142783554Y-129643554D01*
X116257502Y-113875497D02*
G75*
G03*
X116403947Y-114229051I499998J-3D01*
G01*
%TO.N,/~{CE}*%
X139207108Y-142980000D02*
X139780000Y-142980000D01*
X129486199Y-152206447D02*
X129623306Y-152343554D01*
X128157107Y-152060000D02*
X129132645Y-152060000D01*
X129976859Y-152490000D02*
X131592893Y-152490000D01*
X133596447Y-148383554D02*
X138853555Y-143126446D01*
X127426447Y-151536447D02*
X127803554Y-151913554D01*
X131946447Y-152343553D02*
X133303554Y-150986446D01*
X133450000Y-150632893D02*
X133450000Y-148737108D01*
X124350000Y-151390000D02*
X127072893Y-151390000D01*
D48*
%TO.N,+3.3V*%
X117400000Y-150027500D02*
X117397500Y-150030000D01*
X117400000Y-149130000D02*
X117400000Y-150027500D01*
D47*
X60575000Y-119472107D02*
X60575000Y-141827893D01*
X87812893Y-100420000D02*
X79627107Y-100420000D01*
X60721447Y-142181447D02*
X65653554Y-147113554D01*
X88930000Y-101330000D02*
X88166446Y-100566446D01*
X79273553Y-100566447D02*
X60721446Y-119118554D01*
X66007107Y-147260000D02*
X120970000Y-147260000D01*
D45*
%TO.N,Net-(U4-G1)*%
X125620000Y-149262108D02*
X125620000Y-150030000D01*
X125171446Y-148606447D02*
X125473554Y-148908555D01*
X123399607Y-148460000D02*
X124817892Y-148460000D01*
X122560000Y-149092500D02*
X123046054Y-148606446D01*
X121416053Y-148946053D02*
X121146446Y-148676446D01*
X122560000Y-149092500D02*
X121769607Y-149092500D01*
X120792893Y-148530000D02*
X84677107Y-148530000D01*
X83935000Y-149272107D02*
X83935000Y-150030000D01*
X84323553Y-148676447D02*
X84081446Y-148918554D01*
%TO.N,/~{CE}*%
X120783553Y-151536447D02*
X120191446Y-152128554D01*
X119837893Y-152275000D02*
X118319607Y-152275000D01*
X124350000Y-151390000D02*
X121137107Y-151390000D01*
X117966053Y-152128553D02*
X117337500Y-151500000D01*
X124350000Y-151390000D02*
X124350000Y-150030000D01*
%TO.N,Net-(U2-Pad1)*%
X141360000Y-138770000D02*
X142480000Y-138770000D01*
X140900000Y-142030000D02*
X139780000Y-142030000D01*
%TO.N,+3.3V*%
X118721053Y-151353553D02*
X117397500Y-150030000D01*
X119162500Y-151500000D02*
X119074607Y-151500000D01*
D46*
X126302500Y-147267500D02*
X126310000Y-147260000D01*
X122560000Y-147267500D02*
X126302500Y-147267500D01*
X120970000Y-147260000D02*
X120977500Y-147267500D01*
X120977500Y-147267500D02*
X122560000Y-147267500D01*
D48*
X115365000Y-150030000D02*
X117397500Y-150030000D01*
%TO.N,GND*%
X126890000Y-148650000D02*
X126890000Y-150030000D01*
D46*
X79800000Y-92850000D02*
X80910000Y-92850000D01*
X82010000Y-92850000D02*
X80910000Y-92850000D01*
X97510000Y-92850000D02*
X96410000Y-92850000D01*
X95300000Y-92850000D02*
X96410000Y-92850000D01*
X83120000Y-102400000D02*
X81810000Y-102400000D01*
X80500000Y-102400000D02*
X81810000Y-102400000D01*
D45*
%TO.N,Net-(J5-DAT3{slash}CD)*%
X87930000Y-108672500D02*
X87932500Y-108670000D01*
X87930000Y-109600000D02*
X87930000Y-108672500D01*
X87510000Y-104034364D02*
X87510000Y-103450000D01*
X86350000Y-107251422D02*
X86350000Y-105608578D01*
X86496447Y-105255024D02*
X87363554Y-104387917D01*
X87415024Y-108523553D02*
X86496446Y-107604975D01*
X87932500Y-108670000D02*
X87768578Y-108670000D01*
%TO.N,Net-(J5-DAT0)*%
X93010000Y-105765000D02*
X93010000Y-103450000D01*
%TO.N,/RX*%
X93010000Y-108540000D02*
X93010000Y-107590000D01*
D48*
%TO.N,GND*%
X87985000Y-107210000D02*
X87985000Y-105750000D01*
X87985000Y-107210000D02*
X86950000Y-107210000D01*
X87985000Y-105750000D02*
X86950000Y-105750000D01*
D46*
%TO.N,+3.3V*%
X89728210Y-107228210D02*
X89710000Y-107210000D01*
X89757500Y-108670000D02*
X89757500Y-107298921D01*
X89710000Y-102257107D02*
X89710000Y-107210000D01*
X89180000Y-101520000D02*
X89563554Y-101903554D01*
D45*
%TO.N,Net-(J5-CMD)*%
X88610000Y-104700000D02*
X88610000Y-103450000D01*
%TO.N,Net-(J5-CLK)*%
X90810000Y-104700000D02*
X90810000Y-103450000D01*
D46*
%TO.N,GND*%
X91910000Y-102150000D02*
X91910000Y-104760000D01*
X97510000Y-102150000D02*
X96410000Y-102150000D01*
X95300000Y-102150000D02*
X96410000Y-102150000D01*
D47*
X144620000Y-149240000D02*
X144620000Y-150502500D01*
X144620000Y-150502500D02*
X144612500Y-150510000D01*
X144612500Y-150510000D02*
X143200000Y-150510000D01*
D46*
X151817500Y-115190000D02*
X151817500Y-112017500D01*
X151817500Y-110660000D02*
X151817500Y-112017500D01*
X139117500Y-115190000D02*
X139117500Y-112017500D01*
X139117500Y-110660000D02*
X139117500Y-112017500D01*
%TO.N,+3.3V*%
X137850000Y-121362893D02*
X137850000Y-115177502D01*
X146591053Y-130311053D02*
X137996446Y-121716446D01*
X146737500Y-131607500D02*
X146737500Y-130664607D01*
X137297893Y-105755000D02*
X134769607Y-105755000D01*
X137850000Y-105410000D02*
X137651446Y-105608554D01*
X134416053Y-105608553D02*
X133587500Y-104780000D01*
%TO.N,GND*%
X126417500Y-110660000D02*
X126417500Y-112017500D01*
X126417500Y-115190000D02*
X126417500Y-112017500D01*
D48*
X124350000Y-100940000D02*
X124350000Y-99465000D01*
X124350000Y-97990000D02*
X124350000Y-99465000D01*
D49*
%TO.N,Net-(R12-Pad2)*%
X125473553Y-100826447D02*
X124786446Y-101513554D01*
X125620000Y-99465000D02*
X125620000Y-100472893D01*
X124432893Y-101660000D02*
X122432500Y-101660000D01*
D48*
%TO.N,GND*%
X136360000Y-104780000D02*
X135312500Y-104780000D01*
X101490000Y-95130000D02*
X102485000Y-95130000D01*
%TO.N,+3.3V*%
X105327132Y-137012500D02*
X108637500Y-137012500D01*
X102310000Y-142238000D02*
X102310000Y-140029632D01*
X102456447Y-139676078D02*
X104973579Y-137158946D01*
D45*
%TO.N,/~{CE}*%
X121340000Y-131610000D02*
X121337500Y-131607500D01*
X121340000Y-134690000D02*
X121340000Y-131610000D01*
%TO.N,Net-(J5-DAT3{slash}CD)*%
X113115393Y-137012500D02*
X111180000Y-137012500D01*
X117873553Y-141563553D02*
X113468946Y-137158946D01*
X125557892Y-141710000D02*
X118227107Y-141710000D01*
X128013553Y-143958554D02*
X125911445Y-141856446D01*
X128160000Y-145080000D02*
X128160000Y-144312108D01*
%TO.N,Net-(J5-CMD)*%
X118797500Y-137010000D02*
X118800000Y-137012500D01*
X117820000Y-137010000D02*
X118797500Y-137010000D01*
%TO.N,Net-(J5-CLK)*%
X116257500Y-137010000D02*
X116260000Y-137012500D01*
X115280000Y-137010000D02*
X116257500Y-137010000D01*
%TO.N,Net-(J5-DAT3{slash}CD)*%
X111177500Y-137010000D02*
X110200000Y-137010000D01*
X111180000Y-137012500D02*
X111177500Y-137010000D01*
D46*
%TO.N,GND*%
X151817500Y-134780000D02*
X151817500Y-131607500D01*
X151817500Y-130250000D02*
X151817500Y-131607500D01*
X139117500Y-130250000D02*
X139117500Y-131607500D01*
X139117500Y-134780000D02*
X139117500Y-131607500D01*
X126417500Y-134780000D02*
X126417500Y-131607500D01*
X126417500Y-130250000D02*
X126417500Y-131607500D01*
X113717500Y-134780000D02*
X113717500Y-131607500D01*
X113717500Y-130250000D02*
X113717500Y-131607500D01*
D45*
%TO.N,/TX*%
X118800000Y-131610000D02*
X118797500Y-131607500D01*
X118800000Y-135187500D02*
X118800000Y-131610000D01*
%TO.N,/SCK*%
X116260000Y-131610000D02*
X116257500Y-131607500D01*
X116260000Y-135187500D02*
X116260000Y-131610000D01*
%TO.N,/CSn*%
X111180000Y-131610000D02*
X111177500Y-131607500D01*
X111180000Y-135187500D02*
X111180000Y-131610000D01*
%TO.N,/RX*%
X108637500Y-135187500D02*
X108637500Y-131607500D01*
%TO.N,Net-(J3-P14)*%
X133790000Y-142140000D02*
X133790000Y-143120000D01*
%TO.N,Net-(R18-Pad2)*%
X131970000Y-143125000D02*
X131965000Y-143120000D01*
X131970000Y-145080000D02*
X131970000Y-143125000D01*
%TO.N,/VSYNC*%
X130700000Y-142837107D02*
X130700000Y-145080000D01*
X133891053Y-139438947D02*
X130846446Y-142483554D01*
X134037500Y-131607500D02*
X134037500Y-139085393D01*
D47*
%TO.N,+3.3V*%
X138957107Y-140440000D02*
X144317500Y-140440000D01*
X132970000Y-146220000D02*
X138603554Y-140586446D01*
X132970000Y-146261238D02*
X132970000Y-146220000D01*
X132117685Y-147113553D02*
X132970000Y-146261238D01*
X126310000Y-147260000D02*
X131764131Y-147260000D01*
D48*
X122560000Y-147267500D02*
X122560000Y-145082500D01*
%TO.N,GND*%
X61755000Y-139010000D02*
X61750000Y-139005000D01*
X62800000Y-139010000D02*
X61755000Y-139010000D01*
X65210000Y-140725000D02*
X65205000Y-140730000D01*
X65210000Y-139320000D02*
X65210000Y-140725000D01*
X65210000Y-140735000D02*
X65205000Y-140730000D01*
X65210000Y-142130000D02*
X65210000Y-140735000D01*
X103935000Y-139340000D02*
X103935000Y-140730000D01*
X103935000Y-142110000D02*
X103935000Y-140730000D01*
D45*
%TO.N,Net-(J1-Pin_2)*%
X140650000Y-150840000D02*
X140650000Y-147307107D01*
X142478515Y-143931485D02*
X142480000Y-143930000D01*
X140796447Y-146953553D02*
X142333554Y-145416446D01*
X142478515Y-145128524D02*
X142478515Y-143931485D01*
X140639658Y-150850342D02*
X140650000Y-150840000D01*
X137900000Y-150967500D02*
X140356815Y-150967500D01*
X140356815Y-150967510D02*
G75*
G03*
X140639658Y-150850342I-15J400010D01*
G01*
X140796444Y-146953550D02*
G75*
G03*
X140650000Y-147307107I353556J-353550D01*
G01*
X142333550Y-145416443D02*
G75*
G03*
X142478514Y-145128524I-376550J370043D01*
G01*
D50*
%TO.N,+5V*%
X146783553Y-151376447D02*
X144766446Y-153393554D01*
X155630000Y-146742893D02*
X155630000Y-141110000D01*
D45*
X144621447Y-152376447D02*
X144650000Y-152405000D01*
D46*
X155630000Y-137390000D02*
X155630000Y-139800000D01*
D51*
X155630000Y-141110000D02*
X155630000Y-139800000D01*
D45*
X137900000Y-152792500D02*
X138316054Y-152376446D01*
D50*
X151496447Y-151083553D02*
X155483554Y-147096446D01*
D45*
X144650000Y-159850000D02*
X144620000Y-159880000D01*
D50*
X149150000Y-151230000D02*
X147137107Y-151230000D01*
D45*
X138669607Y-152230000D02*
X144267893Y-152230000D01*
D50*
X144620000Y-153747107D02*
X144620000Y-159880000D01*
X149150000Y-151230000D02*
X151142893Y-151230000D01*
D45*
X144621450Y-152376444D02*
G75*
G03*
X144267893Y-152230000I-353550J-353556D01*
G01*
D50*
X151142893Y-151229995D02*
G75*
G03*
X151496447Y-151083553I7J499995D01*
G01*
X144766443Y-153393551D02*
G75*
G03*
X144620000Y-153747107I353557J-353549D01*
G01*
X147137107Y-151230005D02*
G75*
G03*
X146783553Y-151376447I-7J-499995D01*
G01*
X155483557Y-147096449D02*
G75*
G03*
X155630000Y-146742893I-353557J353549D01*
G01*
D45*
X138669607Y-152230005D02*
G75*
G03*
X138316054Y-152376446I-7J-499995D01*
G01*
D48*
%TO.N,GND*%
X120837500Y-145080000D02*
X119820000Y-145080000D01*
D46*
X123050000Y-139670000D02*
X124300000Y-139670000D01*
X120250000Y-150030000D02*
X119122500Y-150030000D01*
D48*
X75365000Y-148600000D02*
X75365000Y-150030000D01*
X63935000Y-150030000D02*
X63935000Y-148600000D01*
D46*
X130250000Y-139670000D02*
X131500000Y-139670000D01*
X146042500Y-136922500D02*
X146040000Y-136920000D01*
D48*
X63935000Y-151460000D02*
X63935000Y-150030000D01*
D47*
X147620000Y-145630000D02*
X149150000Y-145630000D01*
D45*
X85205000Y-139275000D02*
X85210000Y-139270000D01*
D46*
X139120000Y-113825000D02*
X139117500Y-113827500D01*
D48*
X131970000Y-148650000D02*
X131970000Y-150030000D01*
D46*
X146040000Y-142960000D02*
X146040000Y-142032500D01*
X125550000Y-139670000D02*
X124300000Y-139670000D01*
X146042500Y-137820000D02*
X146042500Y-136922500D01*
X146040000Y-137822500D02*
X146042500Y-137820000D01*
X146040000Y-138720000D02*
X146040000Y-137822500D01*
D48*
X61750000Y-137877500D02*
X61750000Y-139005000D01*
D46*
X146040000Y-142032500D02*
X146042500Y-142030000D01*
D48*
X82050000Y-137877500D02*
X82050000Y-139005000D01*
D46*
X151820000Y-113830000D02*
X151817500Y-113827500D01*
D48*
X85205000Y-140730000D02*
X85205000Y-139275000D01*
D46*
X146040000Y-142027500D02*
X146042500Y-142030000D01*
X139120000Y-113830000D02*
X139117500Y-113827500D01*
X141040000Y-137820000D02*
X139780000Y-137820000D01*
D48*
X75365000Y-151460000D02*
X75365000Y-150030000D01*
D47*
X150670000Y-145630000D02*
X149150000Y-145630000D01*
D46*
X146040000Y-141110000D02*
X146040000Y-142027500D01*
X151820000Y-113825000D02*
X151817500Y-113827500D01*
X132750000Y-139670000D02*
X131500000Y-139670000D01*
D48*
X95365000Y-151460000D02*
X95365000Y-150030000D01*
D46*
X139780000Y-144660000D02*
X139780000Y-143930000D01*
D50*
X148580000Y-159880000D02*
X148580000Y-154970000D01*
D45*
%TO.N,/A8*%
X128291947Y-109061947D02*
X131351054Y-112121054D01*
X86621447Y-123028553D02*
X100588054Y-109061946D01*
X86475000Y-140730000D02*
X86475000Y-123382107D01*
X131497500Y-112474607D02*
X131497500Y-113827500D01*
X100941607Y-108915500D02*
X127938393Y-108915500D01*
%TO.N,/A9*%
X87745000Y-140730000D02*
X87745000Y-122582107D01*
X128957500Y-112474607D02*
X128957500Y-113827500D01*
X126078947Y-109388947D02*
X128811054Y-112121054D01*
X87891447Y-122228553D02*
X100731054Y-109388946D01*
X101084607Y-109242500D02*
X125725393Y-109242500D01*
%TO.N,/A10*%
X121325947Y-109715947D02*
X123731054Y-112121054D01*
X89161447Y-121428553D02*
X100874054Y-109715946D01*
X123877500Y-112474607D02*
X123877500Y-113827500D01*
X89015000Y-140730000D02*
X89015000Y-121782107D01*
X101227607Y-109569500D02*
X120972393Y-109569500D01*
%TO.N,/A11*%
X101370815Y-109896500D02*
X118616432Y-109896500D01*
X90285000Y-140730000D02*
X90285000Y-120982315D01*
X118969986Y-110042947D02*
X121191054Y-112264015D01*
X90431447Y-120628761D02*
X101017262Y-110042946D01*
X121337500Y-112617568D02*
X121337500Y-113827500D01*
%TO.N,/A12*%
X118797500Y-112617568D02*
X118797500Y-113827500D01*
X91555000Y-140730000D02*
X91555000Y-120174763D01*
X116756986Y-110369947D02*
X118651054Y-112264015D01*
X101506263Y-110223500D02*
X116403432Y-110223500D01*
X91701447Y-119821209D02*
X101152710Y-110369946D01*
%TO.N,/A13*%
X114686947Y-110696947D02*
X116257500Y-112267500D01*
X92929959Y-119057052D02*
X92967566Y-119017717D01*
X92912868Y-119074321D02*
X92922111Y-119065078D01*
X92975417Y-119009687D02*
X101288158Y-110696946D01*
X101641711Y-110550500D02*
X114333393Y-110550500D01*
X92825000Y-140730000D02*
X92825000Y-119286453D01*
%TO.N,/A14*%
X122742555Y-120823000D02*
X130815893Y-120823000D01*
X94095000Y-140730000D02*
X94095000Y-118559659D01*
X94241446Y-118206106D02*
X101423606Y-111023946D01*
X131169447Y-120969447D02*
X140243554Y-130043554D01*
X111177500Y-113827500D02*
X112276554Y-114926554D01*
X140243553Y-136408947D02*
X139780000Y-136872500D01*
X140390000Y-130397107D02*
X140390000Y-136055393D01*
X112630107Y-115073000D02*
X116578341Y-115073000D01*
X109933947Y-111023947D02*
X111177500Y-112267500D01*
X116931895Y-115219447D02*
X122389002Y-120676554D01*
X101777159Y-110877500D02*
X109580393Y-110877500D01*
X140389995Y-130397107D02*
G75*
G03*
X140243554Y-130043554I-499995J7D01*
G01*
X122389025Y-120676531D02*
G75*
G03*
X122742555Y-120823000I353575J353531D01*
G01*
X116931874Y-115219468D02*
G75*
G03*
X116578341Y-115073000I-353574J-353532D01*
G01*
X131169450Y-120969444D02*
G75*
G03*
X130815893Y-120823000I-353550J-353556D01*
G01*
X94241467Y-118206127D02*
G75*
G03*
X94095000Y-118559659I353533J-353573D01*
G01*
X140243556Y-136408950D02*
G75*
G03*
X140390000Y-136055393I-353556J353550D01*
G01*
X112276551Y-114926557D02*
G75*
G03*
X112630107Y-115073000I353549J353557D01*
G01*
%TO.N,/A15*%
X95365000Y-140730000D02*
X95365000Y-117752107D01*
X101887107Y-111230000D02*
X105832893Y-111230000D01*
X106186447Y-111376447D02*
X108637500Y-113827500D01*
X95511446Y-117398554D02*
X101533554Y-111376446D01*
X95511443Y-117398551D02*
G75*
G03*
X95365000Y-117752107I353557J-353549D01*
G01*
%TO.N,/~{R}{slash}W*%
X125620000Y-146460000D02*
X125620000Y-145080000D01*
%TO.N,/~{\u00D82}*%
X129430000Y-151390000D02*
X129430000Y-150030000D01*
%TO.N,/~{CE}*%
X114095000Y-150847892D02*
X114095000Y-150030000D01*
X117337500Y-151500000D02*
X114747108Y-151500000D01*
X114393554Y-151353553D02*
X114241446Y-151201445D01*
D46*
%TO.N,Net-(Q1-G)*%
X156690000Y-131815000D02*
X156897500Y-131607500D01*
D52*
X156580000Y-135515000D02*
X156580000Y-131810000D01*
%TO.N,Net-(Q1-S)*%
X154680000Y-135515000D02*
X154680000Y-132035000D01*
D46*
X154790000Y-132040000D02*
X154357500Y-131607500D01*
D45*
%TO.N,Net-(U8-RUN)*%
X131497500Y-131607500D02*
X131500000Y-136670000D01*
X132140000Y-136670000D02*
X131500000Y-136670000D01*
X131500000Y-136670000D02*
X124300000Y-136670000D01*
D49*
%TO.N,Net-(J3-Pad1)*%
X137250000Y-95850000D02*
X137250000Y-98392893D01*
X136702893Y-98940000D02*
X136375000Y-98940000D01*
X137103553Y-98746447D02*
X137056446Y-98793554D01*
D46*
%TO.N,+3.3V*%
X142480000Y-137820000D02*
X144317500Y-137820000D01*
X63940000Y-140735000D02*
X63935000Y-140730000D01*
D48*
X83935000Y-140730000D02*
X82050000Y-140730000D01*
X61750000Y-140730000D02*
X60720000Y-140730000D01*
X133587500Y-104780000D02*
X132542107Y-104780000D01*
D46*
X115370000Y-150025000D02*
X115365000Y-150030000D01*
D47*
X144463947Y-136676053D02*
X146591054Y-134548946D01*
D46*
X142480000Y-142030000D02*
X144317500Y-142030000D01*
D48*
X63935000Y-140730000D02*
X61750000Y-140730000D01*
D47*
X144317500Y-142030000D02*
X144317500Y-137820000D01*
D46*
X82050000Y-142230000D02*
X82050000Y-140730000D01*
X122560000Y-145082500D02*
X122562500Y-145080000D01*
D48*
X132188553Y-104633553D02*
X131970000Y-104415000D01*
D47*
X146737500Y-134195393D02*
X146737500Y-131607500D01*
D46*
X83940000Y-140735000D02*
X83935000Y-140730000D01*
D47*
X144317500Y-137820000D02*
X144317500Y-137029607D01*
D48*
X122562500Y-145080000D02*
X124350000Y-145080000D01*
D47*
X146591057Y-134548949D02*
G75*
G03*
X146737500Y-134195393I-353557J353549D01*
G01*
X144463944Y-136676050D02*
G75*
G03*
X144317500Y-137029607I353556J-353550D01*
G01*
D45*
%TO.N,/AB0*%
X65205000Y-151460000D02*
X65205000Y-150030000D01*
%TO.N,/AB1*%
X66475000Y-151460000D02*
X66475000Y-150030000D01*
%TO.N,/AB2*%
X67745000Y-151460000D02*
X67745000Y-150030000D01*
%TO.N,/AB3*%
X69015000Y-151460000D02*
X69015000Y-150030000D01*
%TO.N,/AB4*%
X70285000Y-151460000D02*
X70285000Y-150030000D01*
%TO.N,/AB5*%
X71555000Y-151460000D02*
X71555000Y-150030000D01*
%TO.N,/AB6*%
X72825000Y-151460000D02*
X72825000Y-150030000D01*
%TO.N,/AB7*%
X74095000Y-151460000D02*
X74095000Y-150030000D01*
%TO.N,/AB8*%
X85205000Y-151460000D02*
X85205000Y-150030000D01*
%TO.N,/AB9*%
X86475000Y-151460000D02*
X86475000Y-150030000D01*
%TO.N,/AB10*%
X87745000Y-151460000D02*
X87745000Y-150030000D01*
%TO.N,/AB11*%
X89015000Y-151460000D02*
X89015000Y-150030000D01*
%TO.N,/AB12*%
X90285000Y-151460000D02*
X90285000Y-150030000D01*
%TO.N,/AB13*%
X91555000Y-151460000D02*
X91555000Y-150030000D01*
%TO.N,/AB14*%
X92825000Y-151460000D02*
X92825000Y-150030000D01*
%TO.N,/AB15*%
X94095000Y-151460000D02*
X94095000Y-150030000D01*
D49*
%TO.N,Net-(J3-Pad2)*%
X139393553Y-97986447D02*
X137126446Y-100253554D01*
X139540000Y-95850000D02*
X139540000Y-97632893D01*
X136772893Y-100400000D02*
X136375000Y-100400000D01*
D45*
%TO.N,/DB0*%
X116907107Y-154900000D02*
X118142893Y-154900000D01*
X120860000Y-157617107D02*
X120860000Y-159880000D01*
X112971447Y-151171447D02*
X116553554Y-154753554D01*
X112825000Y-150030000D02*
X112825000Y-150817893D01*
X118496447Y-155046447D02*
X120713554Y-157263554D01*
%TO.N,/DB1*%
X111555000Y-150030000D02*
X111555000Y-150497893D01*
X111701447Y-150851447D02*
X116753554Y-155903554D01*
X116900000Y-156257107D02*
X116900000Y-159880000D01*
%TO.N,/DB2*%
X110431447Y-153091447D02*
X112793553Y-155453553D01*
X112940000Y-159880000D02*
X112940000Y-155807107D01*
X110285000Y-150030000D02*
X110285000Y-152737893D01*
X112939995Y-155807107D02*
G75*
G03*
X112793553Y-155453553I-499995J7D01*
G01*
%TO.N,/DB3*%
X109015000Y-150030000D02*
X109015000Y-159803579D01*
X108985710Y-159874290D02*
X108980000Y-159880000D01*
%TO.N,/DB4*%
X105020000Y-159880000D02*
X105020000Y-156617107D01*
X105166447Y-156263553D02*
X107740000Y-153690000D01*
X107745000Y-153685000D02*
X107740000Y-153690000D01*
X107745000Y-150030000D02*
X107745000Y-153685000D01*
X105166444Y-156263550D02*
G75*
G03*
X105020000Y-156617107I353556J-353550D01*
G01*
%TO.N,/DB5*%
X106475000Y-152485000D02*
X106455000Y-152505000D01*
X106475000Y-150030000D02*
X106475000Y-152485000D01*
X101060000Y-159880000D02*
X101060000Y-158107107D01*
X101206447Y-157753553D02*
X106455000Y-152505000D01*
X101206444Y-157753550D02*
G75*
G03*
X101060000Y-158107107I353556J-353550D01*
G01*
%TO.N,/DB6*%
X105058553Y-152581447D02*
X103406447Y-154233553D01*
X97100000Y-159880000D02*
X97100000Y-156497107D01*
X97246447Y-156143553D02*
X98863554Y-154526446D01*
X105205000Y-150030000D02*
X105205000Y-152227893D01*
X99217107Y-154380000D02*
X103052893Y-154380000D01*
X99217107Y-154380005D02*
G75*
G03*
X98863554Y-154526446I-7J-499995D01*
G01*
X97246444Y-156143550D02*
G75*
G03*
X97100000Y-156497107I353556J-353550D01*
G01*
X103052893Y-154379995D02*
G75*
G03*
X103406447Y-154233553I7J499995D01*
G01*
%TO.N,/DB7*%
X103935000Y-150030000D02*
X103935000Y-151940786D01*
X96997107Y-152960000D02*
X102915786Y-152960000D01*
X93140000Y-159880000D02*
X93140000Y-156817107D01*
X103788553Y-152294340D02*
X103269339Y-152813554D01*
X93286447Y-156463553D02*
X96643554Y-153106446D01*
X93286444Y-156463550D02*
G75*
G03*
X93140000Y-156817107I353556J-353550D01*
G01*
X96997107Y-152960005D02*
G75*
G03*
X96643554Y-153106446I-7J-499995D01*
G01*
%TO.N,/~{DECEN}*%
X140650000Y-153380000D02*
X140650000Y-159870000D01*
X140650000Y-159870000D02*
X140660000Y-159880000D01*
D49*
%TO.N,Net-(J3-Pad3)*%
X136832893Y-101860000D02*
X136375000Y-101860000D01*
X141683553Y-97216447D02*
X137186446Y-101713554D01*
X141830000Y-95850000D02*
X141830000Y-96862893D01*
D45*
%TO.N,Net-(J3-P13)*%
X141830000Y-91890000D02*
X141830000Y-94087258D01*
X141976447Y-94440812D02*
X142823554Y-95287919D01*
X142823553Y-97516447D02*
X137166446Y-103173554D01*
X142970000Y-95641472D02*
X142970000Y-97162893D01*
X136812893Y-103320000D02*
X136375000Y-103320000D01*
D49*
%TO.N,Net-(J4-In)*%
X120461053Y-100263553D02*
X116040000Y-95842500D01*
X120607500Y-101660000D02*
X120607500Y-100617107D01*
X120607500Y-104400000D02*
X120607500Y-101660000D01*
D45*
%TO.N,Net-(D1-K)*%
X104280710Y-91948210D02*
X104272500Y-91940000D01*
X104310000Y-95130000D02*
X104310000Y-92018921D01*
%TO.N,/RX*%
X108640000Y-131610000D02*
X108637500Y-131607500D01*
X107280000Y-131610000D02*
X108635000Y-131610000D01*
D48*
X108635000Y-131610000D02*
X108637500Y-131607500D01*
D49*
%TO.N,Net-(R13-Pad2)*%
X122447500Y-104415000D02*
X122432500Y-104400000D01*
X124350000Y-104415000D02*
X122447500Y-104415000D01*
D45*
%TO.N,Net-(R14-Pad2)*%
X128160000Y-99465000D02*
X128160000Y-98697108D01*
X129007108Y-97850000D02*
X133252893Y-97850000D01*
X133606447Y-97996447D02*
X134550000Y-98940000D01*
X128306447Y-98343554D02*
X128653555Y-97996446D01*
%TO.N,Net-(R15-Pad2)*%
X130700000Y-99465000D02*
X130700000Y-100232892D01*
X134346447Y-100603553D02*
X134550000Y-100400000D01*
X131217108Y-100750000D02*
X133992893Y-100750000D01*
X130846447Y-100586446D02*
X130863555Y-100603554D01*
%TO.N,Net-(R16-Pad2)*%
X129685000Y-102045000D02*
X129576446Y-102153554D01*
X129430000Y-102507107D02*
X129430000Y-104415000D01*
X133660000Y-101860000D02*
X134550000Y-101860000D01*
%TO.N,Net-(R17-Pad2)*%
X127300000Y-103000000D02*
X127036446Y-103263554D01*
X126890000Y-103617107D02*
X126890000Y-104415000D01*
X133660000Y-103320000D02*
X134550000Y-103320000D01*
%TO.N,/R{slash}~{W}*%
X126396447Y-141406447D02*
X128643554Y-143653554D01*
X126890000Y-145080000D02*
X126890000Y-144177107D01*
X123731053Y-134530418D02*
X122596446Y-135665025D01*
X122450000Y-136018578D02*
X122450000Y-139711422D01*
X128790000Y-144007107D02*
X128790000Y-145858445D01*
X128643553Y-146211999D02*
X128617709Y-146237843D01*
X126890000Y-145847892D02*
X126890000Y-145080000D01*
X116618553Y-141983553D02*
X115365000Y-140730000D01*
X122596447Y-140064976D02*
X123645025Y-141113554D01*
X128334867Y-146355000D02*
X127397108Y-146355000D01*
X126743553Y-143823553D02*
X125196446Y-142276446D01*
X123877500Y-131607500D02*
X123877500Y-134176864D01*
X123998578Y-141260000D02*
X126042893Y-141260000D01*
X124842893Y-142130000D02*
X116972107Y-142130000D01*
X127043554Y-146208553D02*
X127036446Y-146201445D01*
%TO.N,/\u00D82*%
X130700000Y-150030000D02*
X130700000Y-148650000D01*
X128790000Y-131775000D02*
X128957500Y-131607500D01*
X128957500Y-134690000D02*
X128957500Y-131607500D01*
%TO.N,Net-(D1-A)*%
X102520000Y-91942500D02*
X102522500Y-91940000D01*
X129430000Y-145080000D02*
X129430000Y-143690000D01*
X101596000Y-91940000D02*
X102522500Y-91940000D01*
%TO.N,Net-(U2-Pad1)*%
X139780000Y-142032500D02*
X140207500Y-142032500D01*
X141977500Y-138772500D02*
X142480000Y-138772500D01*
%TO.N,/AD7*%
X75365000Y-140730000D02*
X75365000Y-134012107D01*
X76141553Y-142691553D02*
X75511446Y-142061446D01*
X130504947Y-108734947D02*
X133891054Y-112121054D01*
X75365000Y-141707893D02*
X75365000Y-140730000D01*
X134037500Y-112474607D02*
X134037500Y-113827500D01*
X75511447Y-133658553D02*
X100435054Y-108734946D01*
X105205000Y-140730000D02*
X105205000Y-141547892D01*
X105058553Y-141901446D02*
X104268445Y-142691554D01*
X100788607Y-108588500D02*
X130151393Y-108588500D01*
X103914892Y-142838000D02*
X76495107Y-142838000D01*
%TO.N,/AD6*%
X136577500Y-112474607D02*
X136577500Y-113827500D01*
X74095000Y-140730000D02*
X74095000Y-134802107D01*
X74095000Y-141787893D02*
X74095000Y-140730000D01*
X106328553Y-141901446D02*
X105211445Y-143018554D01*
X100635607Y-108261500D02*
X132364393Y-108261500D01*
X104857892Y-143165000D02*
X75472107Y-143165000D01*
X106475000Y-140730000D02*
X106475000Y-141547892D01*
X74241447Y-134448553D02*
X100282054Y-108407946D01*
X132717947Y-108407947D02*
X136431054Y-112121054D01*
X75118553Y-143018553D02*
X74241446Y-142141446D01*
%TO.N,/AD5*%
X72825000Y-140730000D02*
X72825000Y-135602107D01*
X137470947Y-108080947D02*
X141511054Y-112121054D01*
X72825000Y-141367893D02*
X72825000Y-140730000D01*
X107745000Y-140730000D02*
X107745000Y-141547892D01*
X72971447Y-135248553D02*
X100139054Y-108080946D01*
X74595553Y-143345553D02*
X72971446Y-141721446D01*
X107598553Y-141901446D02*
X106154445Y-143345554D01*
X105800892Y-143492000D02*
X74949107Y-143492000D01*
X100492607Y-107934500D02*
X137117393Y-107934500D01*
X141657500Y-112474607D02*
X141657500Y-113827500D01*
%TO.N,/AD4*%
X144189972Y-112310115D02*
X144197500Y-112317643D01*
X77563968Y-143819000D02*
X77560968Y-143822000D01*
X71708553Y-140883553D02*
X71555000Y-140730000D01*
X109015000Y-140730000D02*
X109015000Y-141547892D01*
X144054953Y-112125134D02*
X144063193Y-112133754D01*
X71701447Y-136038553D02*
X99986054Y-107753946D01*
X108868553Y-141901446D02*
X107097445Y-143672554D01*
X71555000Y-140730000D02*
X71555000Y-136392107D01*
X77560968Y-143822000D02*
X74366659Y-143822000D01*
X106743892Y-143819000D02*
X77563968Y-143819000D01*
X139683947Y-107753947D02*
X144047062Y-112117062D01*
X74013105Y-143675553D02*
X72001446Y-141663894D01*
X144120451Y-112210145D02*
X144142295Y-112247981D01*
X71855000Y-141310341D02*
X71855000Y-141237107D01*
X100339607Y-107607500D02*
X139330393Y-107607500D01*
X144197500Y-112317643D02*
X144197500Y-113827500D01*
%TO.N,/AD3*%
X70285000Y-141667893D02*
X70285000Y-140730000D01*
X70285000Y-140730000D02*
X70285000Y-137172107D01*
X141896947Y-107426947D02*
X146591054Y-112121054D01*
X110285000Y-140730000D02*
X110285000Y-141547892D01*
X107686892Y-144146000D02*
X77699416Y-144146000D01*
X110138553Y-141901446D02*
X108040445Y-143999554D01*
X146737500Y-112474607D02*
X146737500Y-113827500D01*
X77696416Y-144149000D02*
X72766107Y-144149000D01*
X70431447Y-136818553D02*
X99823054Y-107426946D01*
X77699416Y-144146000D02*
X77696416Y-144149000D01*
X72412553Y-144002553D02*
X70431446Y-142021446D01*
X100176607Y-107280500D02*
X141543393Y-107280500D01*
%TO.N,/AD2*%
X111408553Y-141901446D02*
X108983445Y-144326554D01*
X71767105Y-144329553D02*
X69161446Y-141723894D01*
X77834864Y-144473000D02*
X77831864Y-144476000D01*
X69015000Y-141370341D02*
X69015000Y-140730000D01*
X111555000Y-140730000D02*
X111555000Y-141547892D01*
X108629892Y-144473000D02*
X77834864Y-144473000D01*
X77831864Y-144476000D02*
X72120659Y-144476000D01*
%TO.N,/AD1*%
X112678553Y-141901446D02*
X109923445Y-144656554D01*
X112825000Y-140730000D02*
X112825000Y-141547892D01*
X109569892Y-144803000D02*
X70670107Y-144803000D01*
X67745000Y-141877893D02*
X67745000Y-140730000D01*
X70316553Y-144656553D02*
X67891446Y-142231446D01*
%TO.N,/AD0*%
X69703554Y-144983553D02*
X66621446Y-141901445D01*
X66475000Y-141547892D02*
X66475000Y-140730000D01*
X113948553Y-141901446D02*
X110866445Y-144983554D01*
X114095000Y-140730000D02*
X114095000Y-141547892D01*
X110512892Y-145130000D02*
X70057108Y-145130000D01*
%TO.N,/HSYNC*%
X128160000Y-104265000D02*
X128160000Y-104671103D01*
X126890000Y-100992893D02*
X126890000Y-99465000D01*
X136577500Y-131607500D02*
X136577500Y-130250000D01*
X128013553Y-102323553D02*
X127036446Y-101346446D01*
X128306447Y-105024657D02*
X128641790Y-105360000D01*
X128160000Y-104415000D02*
X128160000Y-102677107D01*
%TO.N,/VIDEO*%
X130553553Y-101703553D02*
X129576446Y-100726446D01*
X129576447Y-98343554D02*
X129583555Y-98336446D01*
X130700000Y-104415000D02*
X130700000Y-102057107D01*
X141657500Y-131607500D02*
X141400000Y-131865000D01*
X129430000Y-99465000D02*
X129430000Y-98697108D01*
X141657500Y-131607500D02*
X141657500Y-130250000D01*
X131816446Y-98336447D02*
X131823554Y-98343555D01*
X141660000Y-131610000D02*
X141657500Y-131607500D01*
X130700000Y-104415000D02*
X130700000Y-104835760D01*
X129937108Y-98190000D02*
X131462892Y-98190000D01*
X130846447Y-105189314D02*
X131344901Y-105687768D01*
X129430000Y-100372893D02*
X129430000Y-99465000D01*
X131970000Y-98697108D02*
X131970000Y-99465000D01*
%TD*%
M02*
