M48
; DRILL file {KiCad 7.0.11} date Fri Mar 22 09:44:17 2024
; FORMAT={-:-/ absolute / inch / decimal}
; #@! TF.CreationDate,2024-03-22T09:44:17+01:00
; #@! TF.GenerationSoftware,Kicad,Pcbnew,7.0.11
; #@! TF.FileFunction,MixedPlating,1,2
FMAT,2
INCH
; #@! TA.AperFunction,Plated,PTH,ViaDrill
T1C0.0079
; #@! TA.AperFunction,Plated,PTH,ViaDrill
T2C0.0118
; #@! TA.AperFunction,Plated,PTH,ViaDrill
T3C0.0197
; #@! TA.AperFunction,Plated,PTH,ComponentDrill
T4C0.0394
%
G90
G05
T1
X2.5171Y-5.8504
X2.5171Y-5.963
X2.5671Y-5.963
X2.5673Y-5.485
X2.5925Y-5.976
X2.6171Y-5.963
X2.6425Y-5.976
X2.6671Y-5.963
X2.6925Y-5.976
X2.7171Y-5.963
X2.7425Y-5.976
X2.7671Y-5.963
X2.7925Y-5.976
X2.8171Y-5.963
X2.8425Y-5.976
X2.8671Y-5.963
X2.8925Y-5.976
X2.9171Y-5.963
X2.9425Y-5.976
X2.9671Y-5.8504
X2.9671Y-5.963
X3.3045Y-5.8504
X3.3045Y-5.963
X3.3545Y-5.963
X3.3547Y-5.4831
X3.3783Y-5.9776
X3.4045Y-5.963
X3.4283Y-5.9776
X3.4545Y-5.963
X3.4783Y-5.9776
X3.5045Y-5.963
X3.5283Y-5.9776
X3.5545Y-5.963
X3.5783Y-5.9776
X3.6045Y-5.963
X3.6283Y-5.9776
X3.6545Y-5.963
X3.6783Y-5.9776
X3.7045Y-5.963
X3.7283Y-5.9776
X3.7545Y-5.8504
X3.7545Y-5.963
X4.0921Y-5.8425
X4.5419Y-5.8504
X5.3543Y-6.1102
X5.3819Y-6.1102
X5.4504Y-5.6406
X5.5772Y-5.3098
X5.5902Y-5.3354
T2
X2.4469Y-5.6543
X3.2343Y-5.6543
X4.0217Y-5.6543
X4.4484Y-4.489
X4.4772Y-5.1307
X4.4772Y-5.3039
X4.5055Y-4.489
X4.7594Y-5.55
X4.8579Y-5.55
X4.9772Y-4.3591
X4.9772Y-4.5323
X4.9772Y-5.1445
X4.9772Y-5.3039
X5.0429Y-5.55
X5.1413Y-5.55
X5.3087Y-5.5008
X5.3815Y-5.5008
X5.4504Y-5.7469
X5.4772Y-4.3591
X5.4772Y-4.5323
X5.4772Y-5.1307
X5.4772Y-5.3039
X5.5031Y-5.6366
X5.5528Y-5.426
X5.6591Y-5.9323
X5.7299Y-5.9323
X5.7496Y-5.3906
X5.7496Y-5.4614
X5.7496Y-5.4969
X5.7496Y-5.5697
X5.872Y-5.6484
X5.872Y-5.8177
X5.9772Y-4.3591
X5.9772Y-4.5323
X5.9772Y-5.1307
X5.9772Y-5.3039
T3
X5.8496Y-6.1012
T4
X5.5374Y-5.9386
X5.5374Y-6.0386
M30
