%TF.GenerationSoftware,KiCad,Pcbnew,7.0.11*%
%TF.CreationDate,2025-07-10T10:55:19+02:00*%
%TF.ProjectId,kim-1-programmable-memory,6b696d2d-312d-4707-926f-6772616d6d61,rev?*%
%TF.SameCoordinates,Original*%
%TF.FileFunction,Soldermask,Top*%
%TF.FilePolarity,Negative*%
%FSLAX46Y46*%
G04 Gerber Fmt 4.6, Leading zero omitted, Abs format (unit mm)*
G04 Created by KiCad (PCBNEW 7.0.11) date 2025-07-10 10:55:19*
%MOMM*%
%LPD*%
G01*
G04 APERTURE LIST*
%ADD10R,1.800000X1.800000*%
%ADD11C,1.800000*%
%ADD12C,1.600000*%
%ADD13O,1.600000X1.600000*%
%ADD14C,2.200000*%
%ADD15R,1.700000X1.700000*%
%ADD16O,1.700000X1.700000*%
%ADD17O,1.800000X1.800000*%
%ADD18O,1.500000X1.500000*%
%ADD19R,3.400000X1.600000*%
%ADD20R,1.600000X1.600000*%
%ADD21C,2.754000*%
%ADD22C,3.820000*%
%ADD23C,5.600000*%
%ADD24C,2.000000*%
%ADD25C,4.000000*%
%ADD26R,2.200000X2.200000*%
%ADD27O,2.200000X2.200000*%
%ADD28R,2.000000X2.000000*%
%ADD29O,2.000000X2.000000*%
G04 APERTURE END LIST*
D10*
%TO.C,D1*%
X78050000Y-142250000D03*
D11*
X75510000Y-142250000D03*
%TD*%
D12*
%TO.C,R1*%
X89310000Y-142250000D03*
D13*
X81690000Y-142250000D03*
%TD*%
D14*
%TO.C,J4*%
X85775000Y-138340000D03*
X85775000Y-123740000D03*
D15*
X88775000Y-137040000D03*
D16*
X88775000Y-134500000D03*
X88775000Y-131960000D03*
X88775000Y-129420000D03*
X88775000Y-126880000D03*
X88775000Y-124340000D03*
%TD*%
D17*
%TO.C,U7*%
X97815000Y-70220000D03*
D18*
X98115000Y-73250000D03*
X102965000Y-73250000D03*
D17*
X103265000Y-70220000D03*
D13*
X91650000Y-70090000D03*
D19*
X90750000Y-70090000D03*
D13*
X91650000Y-72630000D03*
D19*
X90750000Y-72630000D03*
D20*
X91650000Y-75170000D03*
D19*
X90750000Y-75170000D03*
D13*
X91650000Y-77710000D03*
D19*
X90750000Y-77710000D03*
D13*
X91650000Y-80250000D03*
D19*
X90750000Y-80250000D03*
D13*
X91650000Y-82790000D03*
D19*
X90750000Y-82790000D03*
D13*
X91650000Y-85330000D03*
D19*
X90750000Y-85330000D03*
D20*
X91650000Y-87870000D03*
D19*
X90750000Y-87870000D03*
D13*
X91650000Y-90410000D03*
D19*
X90750000Y-90410000D03*
D13*
X91650000Y-92950000D03*
D19*
X90750000Y-92950000D03*
D13*
X91650000Y-95490000D03*
D19*
X90750000Y-95490000D03*
D13*
X91650000Y-98030000D03*
D19*
X90750000Y-98030000D03*
D20*
X91650000Y-100570000D03*
D19*
X90750000Y-100570000D03*
D13*
X91650000Y-103110000D03*
D19*
X90750000Y-103110000D03*
D13*
X91650000Y-105650000D03*
D19*
X90750000Y-105650000D03*
D13*
X91650000Y-108190000D03*
D19*
X90750000Y-108190000D03*
D13*
X91650000Y-110730000D03*
D19*
X90750000Y-110730000D03*
D20*
X91650000Y-113270000D03*
D19*
X90750000Y-113270000D03*
D13*
X91650000Y-115810000D03*
D19*
X90750000Y-115810000D03*
D13*
X91650000Y-118350000D03*
D19*
X90750000Y-118350000D03*
D13*
X109430000Y-118350000D03*
D19*
X110330000Y-118350000D03*
D13*
X109430000Y-115810000D03*
D19*
X110330000Y-115810000D03*
D20*
X109430000Y-113270000D03*
D19*
X110330000Y-113270000D03*
D13*
X109430000Y-110730000D03*
D19*
X110330000Y-110730000D03*
D13*
X109430000Y-108190000D03*
D19*
X110330000Y-108190000D03*
D13*
X109430000Y-105650000D03*
D19*
X110330000Y-105650000D03*
D13*
X109430000Y-103110000D03*
D19*
X110330000Y-103110000D03*
D20*
X109430000Y-100570000D03*
D19*
X110330000Y-100570000D03*
D13*
X109430000Y-98030000D03*
D19*
X110330000Y-98030000D03*
D13*
X109430000Y-95490000D03*
D19*
X110330000Y-95490000D03*
D13*
X109430000Y-92950000D03*
D19*
X110330000Y-92950000D03*
D13*
X109430000Y-90410000D03*
D19*
X110330000Y-90410000D03*
D20*
X109430000Y-87870000D03*
D19*
X110330000Y-87870000D03*
D13*
X109430000Y-85330000D03*
D19*
X110330000Y-85330000D03*
D13*
X109430000Y-82790000D03*
D19*
X110330000Y-82790000D03*
D13*
X109430000Y-80250000D03*
D19*
X110330000Y-80250000D03*
D13*
X109430000Y-77710000D03*
D19*
X110330000Y-77710000D03*
D20*
X109430000Y-75170000D03*
D19*
X110330000Y-75170000D03*
D13*
X109430000Y-72630000D03*
D19*
X110330000Y-72630000D03*
D13*
X109430000Y-70090000D03*
D19*
X110330000Y-70090000D03*
%TD*%
D12*
%TO.C,C3*%
X119130000Y-74910000D03*
X124130000Y-74910000D03*
%TD*%
D15*
%TO.C,J6*%
X121790000Y-141700000D03*
%TD*%
D21*
%TO.C,J5*%
X80230000Y-110730000D03*
D22*
X75730000Y-110730000D03*
X80230000Y-105730000D03*
X80230000Y-115730000D03*
%TD*%
D12*
%TO.C,R3*%
X116510000Y-112400000D03*
D13*
X116510000Y-104780000D03*
%TD*%
D20*
%TO.C,U5*%
X112090000Y-138760000D03*
D13*
X112090000Y-136220000D03*
X112090000Y-133680000D03*
X112090000Y-131140000D03*
X112090000Y-128600000D03*
X112090000Y-126060000D03*
X112090000Y-123520000D03*
X104470000Y-123520000D03*
X104470000Y-126060000D03*
X104470000Y-128600000D03*
X104470000Y-131140000D03*
X104470000Y-133680000D03*
X104470000Y-136220000D03*
X104470000Y-138760000D03*
%TD*%
D12*
%TO.C,C6*%
X98500000Y-142250000D03*
X93500000Y-142250000D03*
%TD*%
%TO.C,C5*%
X109470000Y-142250000D03*
X104470000Y-142250000D03*
%TD*%
D23*
%TO.C,REF\u002A\u002A*%
X75540000Y-119410000D03*
%TD*%
D12*
%TO.C,C4*%
X119130000Y-116440000D03*
X124130000Y-116440000D03*
%TD*%
D24*
%TO.C,SW1*%
X120710000Y-111480000D03*
X120710000Y-104980000D03*
X125210000Y-111480000D03*
X125210000Y-104980000D03*
%TD*%
D12*
%TO.C,R10*%
X83460000Y-72080000D03*
D13*
X83460000Y-79700000D03*
%TD*%
D20*
%TO.C,U2*%
X128800000Y-112220000D03*
D13*
X128800000Y-114760000D03*
X128800000Y-117300000D03*
X128800000Y-119840000D03*
X128800000Y-122380000D03*
X128800000Y-124920000D03*
X128800000Y-127460000D03*
X128800000Y-130000000D03*
X128800000Y-132540000D03*
X128800000Y-135080000D03*
X136420000Y-135080000D03*
X136420000Y-132540000D03*
X136420000Y-130000000D03*
X136420000Y-127460000D03*
X136420000Y-124920000D03*
X136420000Y-122380000D03*
X136420000Y-119840000D03*
X136420000Y-117300000D03*
X136420000Y-114760000D03*
X136420000Y-112220000D03*
%TD*%
D12*
%TO.C,C2*%
X131420000Y-108820000D03*
X136420000Y-108820000D03*
%TD*%
D25*
%TO.C,J3*%
X77310000Y-73790000D03*
X77310000Y-98790000D03*
D20*
X79360000Y-90605000D03*
D12*
X79360000Y-88315000D03*
X79360000Y-86025000D03*
X79360000Y-83735000D03*
X79360000Y-81445000D03*
X77380000Y-91750000D03*
X77380000Y-89460000D03*
X77380000Y-87170000D03*
X77380000Y-84880000D03*
X77380000Y-82590000D03*
X75400000Y-90605000D03*
X75400000Y-88315000D03*
X75400000Y-86025000D03*
X75400000Y-83735000D03*
X75400000Y-81445000D03*
%TD*%
D20*
%TO.C,U6*%
X101120000Y-138760000D03*
D13*
X101120000Y-136220000D03*
X101120000Y-133680000D03*
X101120000Y-131140000D03*
X101120000Y-128600000D03*
X101120000Y-126060000D03*
X101120000Y-123520000D03*
X93500000Y-123520000D03*
X93500000Y-126060000D03*
X93500000Y-128600000D03*
X93500000Y-131140000D03*
X93500000Y-133680000D03*
X93500000Y-136220000D03*
X93500000Y-138760000D03*
%TD*%
D12*
%TO.C,C7*%
X139600000Y-136800000D03*
X144600000Y-136800000D03*
%TD*%
D20*
%TO.C,U1*%
X128800000Y-78310000D03*
D13*
X128800000Y-80850000D03*
X128800000Y-83390000D03*
X128800000Y-85930000D03*
X128800000Y-88470000D03*
X128800000Y-91010000D03*
X128800000Y-93550000D03*
X128800000Y-96090000D03*
X128800000Y-98630000D03*
X128800000Y-101170000D03*
X136420000Y-101170000D03*
X136420000Y-98630000D03*
X136420000Y-96090000D03*
X136420000Y-93550000D03*
X136420000Y-91010000D03*
X136420000Y-88470000D03*
X136420000Y-85930000D03*
X136420000Y-83390000D03*
X136420000Y-80850000D03*
X136420000Y-78310000D03*
%TD*%
D20*
%TO.C,U3*%
X116510000Y-78310000D03*
D13*
X116510000Y-80850000D03*
X116510000Y-83390000D03*
X116510000Y-85930000D03*
X116510000Y-88470000D03*
X116510000Y-91010000D03*
X116510000Y-93550000D03*
X116510000Y-96090000D03*
X116510000Y-98630000D03*
X116510000Y-101170000D03*
X124130000Y-101170000D03*
X124130000Y-98630000D03*
X124130000Y-96090000D03*
X124130000Y-93550000D03*
X124130000Y-91010000D03*
X124130000Y-88470000D03*
X124130000Y-85930000D03*
X124130000Y-83390000D03*
X124130000Y-80850000D03*
X124130000Y-78310000D03*
%TD*%
D12*
%TO.C,C1*%
X131420000Y-74910000D03*
X136420000Y-74910000D03*
%TD*%
D15*
%TO.C,J2*%
X118190000Y-141700000D03*
D16*
X118190000Y-139160000D03*
%TD*%
D12*
%TO.C,R8*%
X86900000Y-72080000D03*
D13*
X86900000Y-79700000D03*
%TD*%
D26*
%TO.C,D2*%
X114800000Y-71090000D03*
D27*
X122420000Y-71090000D03*
%TD*%
D12*
%TO.C,R4*%
X84000000Y-110730000D03*
D13*
X84000000Y-118350000D03*
%TD*%
D12*
%TO.C,R7*%
X83460000Y-84330000D03*
D13*
X83460000Y-91950000D03*
%TD*%
D12*
%TO.C,R2*%
X128800000Y-104980000D03*
D13*
X136420000Y-104980000D03*
%TD*%
D15*
%TO.C,J1*%
X140690000Y-79910000D03*
D16*
X140690000Y-82450000D03*
X140690000Y-84990000D03*
X140690000Y-87530000D03*
X140690000Y-90070000D03*
X140690000Y-92610000D03*
X140690000Y-95150000D03*
X140690000Y-97690000D03*
X140690000Y-100230000D03*
X140690000Y-102770000D03*
X140690000Y-105310000D03*
X140690000Y-107850000D03*
X140690000Y-110390000D03*
X140690000Y-112930000D03*
X140690000Y-115470000D03*
X140690000Y-118010000D03*
X140690000Y-120550000D03*
X140690000Y-123090000D03*
X140690000Y-125630000D03*
X140690000Y-128170000D03*
X140690000Y-130710000D03*
X140690000Y-133250000D03*
X143230000Y-79910000D03*
X143230000Y-82450000D03*
X143230000Y-84990000D03*
X143230000Y-87530000D03*
X143230000Y-90070000D03*
X143230000Y-92610000D03*
X143230000Y-95150000D03*
X143230000Y-97690000D03*
X143230000Y-100230000D03*
X143230000Y-102770000D03*
X143230000Y-105310000D03*
X143230000Y-107850000D03*
X143230000Y-110390000D03*
X143230000Y-112930000D03*
X143230000Y-115470000D03*
X143230000Y-118010000D03*
X143230000Y-120550000D03*
X143230000Y-123090000D03*
X143230000Y-125630000D03*
X143230000Y-128170000D03*
X143230000Y-130710000D03*
X143230000Y-133250000D03*
%TD*%
D20*
%TO.C,U4*%
X116510000Y-119840000D03*
D13*
X116510000Y-122380000D03*
X116510000Y-124920000D03*
X116510000Y-127460000D03*
X116510000Y-130000000D03*
X116510000Y-132540000D03*
X116510000Y-135080000D03*
X124130000Y-135080000D03*
X124130000Y-132540000D03*
X124130000Y-130000000D03*
X124130000Y-127460000D03*
X124130000Y-124920000D03*
X124130000Y-122380000D03*
X124130000Y-119840000D03*
%TD*%
D28*
%TO.C,C8*%
X146640000Y-141640000D03*
D29*
X131640000Y-141640000D03*
%TD*%
D12*
%TO.C,R5*%
X87000000Y-110730000D03*
D13*
X87000000Y-118350000D03*
%TD*%
D12*
%TO.C,R6*%
X86900000Y-84350000D03*
D13*
X86900000Y-91970000D03*
%TD*%
D12*
%TO.C,R9*%
X86900000Y-96490000D03*
D13*
X86900000Y-104110000D03*
%TD*%
M02*
