%TF.GenerationSoftware,KiCad,Pcbnew,7.0.11*%
%TF.CreationDate,2025-07-10T10:55:19+02:00*%
%TF.ProjectId,kim-1-programmable-memory,6b696d2d-312d-4707-926f-6772616d6d61,rev?*%
%TF.SameCoordinates,Original*%
%TF.FileFunction,Legend,Top*%
%TF.FilePolarity,Positive*%
%FSLAX46Y46*%
G04 Gerber Fmt 4.6, Leading zero omitted, Abs format (unit mm)*
G04 Created by KiCad (PCBNEW 7.0.11) date 2025-07-10 10:55:19*
%MOMM*%
%LPD*%
G01*
G04 APERTURE LIST*
%ADD10C,0.150000*%
%ADD11C,0.250000*%
%ADD12C,0.120000*%
%ADD13C,0.100000*%
%ADD14C,0.127000*%
%ADD15C,0.400000*%
%ADD16R,1.800000X1.800000*%
%ADD17C,1.800000*%
%ADD18C,1.600000*%
%ADD19O,1.600000X1.600000*%
%ADD20C,2.200000*%
%ADD21R,1.700000X1.700000*%
%ADD22O,1.700000X1.700000*%
%ADD23O,1.800000X1.800000*%
%ADD24O,1.500000X1.500000*%
%ADD25R,3.400000X1.600000*%
%ADD26R,1.600000X1.600000*%
%ADD27C,2.754000*%
%ADD28C,3.820000*%
%ADD29C,5.600000*%
%ADD30C,2.000000*%
%ADD31C,4.000000*%
%ADD32R,2.200000X2.200000*%
%ADD33O,2.200000X2.200000*%
%ADD34R,2.000000X2.000000*%
%ADD35O,2.000000X2.000000*%
G04 APERTURE END LIST*
D10*
X131726667Y-70186580D02*
X131726667Y-69086580D01*
X131726667Y-69086580D02*
X132145715Y-69086580D01*
X132145715Y-69086580D02*
X132250477Y-69138961D01*
X132250477Y-69138961D02*
X132302858Y-69191342D01*
X132302858Y-69191342D02*
X132355239Y-69296104D01*
X132355239Y-69296104D02*
X132355239Y-69453247D01*
X132355239Y-69453247D02*
X132302858Y-69558009D01*
X132302858Y-69558009D02*
X132250477Y-69610390D01*
X132250477Y-69610390D02*
X132145715Y-69662771D01*
X132145715Y-69662771D02*
X131726667Y-69662771D01*
X132826667Y-70186580D02*
X132826667Y-69453247D01*
X132826667Y-69662771D02*
X132879048Y-69558009D01*
X132879048Y-69558009D02*
X132931429Y-69505628D01*
X132931429Y-69505628D02*
X133036191Y-69453247D01*
X133036191Y-69453247D02*
X133140953Y-69453247D01*
X133664762Y-70186580D02*
X133560000Y-70134200D01*
X133560000Y-70134200D02*
X133507619Y-70081819D01*
X133507619Y-70081819D02*
X133455238Y-69977057D01*
X133455238Y-69977057D02*
X133455238Y-69662771D01*
X133455238Y-69662771D02*
X133507619Y-69558009D01*
X133507619Y-69558009D02*
X133560000Y-69505628D01*
X133560000Y-69505628D02*
X133664762Y-69453247D01*
X133664762Y-69453247D02*
X133821905Y-69453247D01*
X133821905Y-69453247D02*
X133926667Y-69505628D01*
X133926667Y-69505628D02*
X133979048Y-69558009D01*
X133979048Y-69558009D02*
X134031429Y-69662771D01*
X134031429Y-69662771D02*
X134031429Y-69977057D01*
X134031429Y-69977057D02*
X133979048Y-70081819D01*
X133979048Y-70081819D02*
X133926667Y-70134200D01*
X133926667Y-70134200D02*
X133821905Y-70186580D01*
X133821905Y-70186580D02*
X133664762Y-70186580D01*
X134974286Y-69453247D02*
X134974286Y-70343723D01*
X134974286Y-70343723D02*
X134921905Y-70448485D01*
X134921905Y-70448485D02*
X134869524Y-70500866D01*
X134869524Y-70500866D02*
X134764762Y-70553247D01*
X134764762Y-70553247D02*
X134607619Y-70553247D01*
X134607619Y-70553247D02*
X134502857Y-70500866D01*
X134974286Y-70134200D02*
X134869524Y-70186580D01*
X134869524Y-70186580D02*
X134660000Y-70186580D01*
X134660000Y-70186580D02*
X134555238Y-70134200D01*
X134555238Y-70134200D02*
X134502857Y-70081819D01*
X134502857Y-70081819D02*
X134450476Y-69977057D01*
X134450476Y-69977057D02*
X134450476Y-69662771D01*
X134450476Y-69662771D02*
X134502857Y-69558009D01*
X134502857Y-69558009D02*
X134555238Y-69505628D01*
X134555238Y-69505628D02*
X134660000Y-69453247D01*
X134660000Y-69453247D02*
X134869524Y-69453247D01*
X134869524Y-69453247D02*
X134974286Y-69505628D01*
X135498095Y-70186580D02*
X135498095Y-69453247D01*
X135498095Y-69662771D02*
X135550476Y-69558009D01*
X135550476Y-69558009D02*
X135602857Y-69505628D01*
X135602857Y-69505628D02*
X135707619Y-69453247D01*
X135707619Y-69453247D02*
X135812381Y-69453247D01*
X136650476Y-70186580D02*
X136650476Y-69610390D01*
X136650476Y-69610390D02*
X136598095Y-69505628D01*
X136598095Y-69505628D02*
X136493333Y-69453247D01*
X136493333Y-69453247D02*
X136283809Y-69453247D01*
X136283809Y-69453247D02*
X136179047Y-69505628D01*
X136650476Y-70134200D02*
X136545714Y-70186580D01*
X136545714Y-70186580D02*
X136283809Y-70186580D01*
X136283809Y-70186580D02*
X136179047Y-70134200D01*
X136179047Y-70134200D02*
X136126666Y-70029438D01*
X136126666Y-70029438D02*
X136126666Y-69924676D01*
X136126666Y-69924676D02*
X136179047Y-69819914D01*
X136179047Y-69819914D02*
X136283809Y-69767533D01*
X136283809Y-69767533D02*
X136545714Y-69767533D01*
X136545714Y-69767533D02*
X136650476Y-69715152D01*
X137174285Y-70186580D02*
X137174285Y-69453247D01*
X137174285Y-69558009D02*
X137226666Y-69505628D01*
X137226666Y-69505628D02*
X137331428Y-69453247D01*
X137331428Y-69453247D02*
X137488571Y-69453247D01*
X137488571Y-69453247D02*
X137593333Y-69505628D01*
X137593333Y-69505628D02*
X137645714Y-69610390D01*
X137645714Y-69610390D02*
X137645714Y-70186580D01*
X137645714Y-69610390D02*
X137698095Y-69505628D01*
X137698095Y-69505628D02*
X137802857Y-69453247D01*
X137802857Y-69453247D02*
X137960000Y-69453247D01*
X137960000Y-69453247D02*
X138064761Y-69505628D01*
X138064761Y-69505628D02*
X138117142Y-69610390D01*
X138117142Y-69610390D02*
X138117142Y-70186580D01*
X138640952Y-70186580D02*
X138640952Y-69453247D01*
X138640952Y-69558009D02*
X138693333Y-69505628D01*
X138693333Y-69505628D02*
X138798095Y-69453247D01*
X138798095Y-69453247D02*
X138955238Y-69453247D01*
X138955238Y-69453247D02*
X139060000Y-69505628D01*
X139060000Y-69505628D02*
X139112381Y-69610390D01*
X139112381Y-69610390D02*
X139112381Y-70186580D01*
X139112381Y-69610390D02*
X139164762Y-69505628D01*
X139164762Y-69505628D02*
X139269524Y-69453247D01*
X139269524Y-69453247D02*
X139426667Y-69453247D01*
X139426667Y-69453247D02*
X139531428Y-69505628D01*
X139531428Y-69505628D02*
X139583809Y-69610390D01*
X139583809Y-69610390D02*
X139583809Y-70186580D01*
X140579048Y-70186580D02*
X140579048Y-69610390D01*
X140579048Y-69610390D02*
X140526667Y-69505628D01*
X140526667Y-69505628D02*
X140421905Y-69453247D01*
X140421905Y-69453247D02*
X140212381Y-69453247D01*
X140212381Y-69453247D02*
X140107619Y-69505628D01*
X140579048Y-70134200D02*
X140474286Y-70186580D01*
X140474286Y-70186580D02*
X140212381Y-70186580D01*
X140212381Y-70186580D02*
X140107619Y-70134200D01*
X140107619Y-70134200D02*
X140055238Y-70029438D01*
X140055238Y-70029438D02*
X140055238Y-69924676D01*
X140055238Y-69924676D02*
X140107619Y-69819914D01*
X140107619Y-69819914D02*
X140212381Y-69767533D01*
X140212381Y-69767533D02*
X140474286Y-69767533D01*
X140474286Y-69767533D02*
X140579048Y-69715152D01*
X141102857Y-70186580D02*
X141102857Y-69086580D01*
X141102857Y-69505628D02*
X141207619Y-69453247D01*
X141207619Y-69453247D02*
X141417143Y-69453247D01*
X141417143Y-69453247D02*
X141521905Y-69505628D01*
X141521905Y-69505628D02*
X141574286Y-69558009D01*
X141574286Y-69558009D02*
X141626667Y-69662771D01*
X141626667Y-69662771D02*
X141626667Y-69977057D01*
X141626667Y-69977057D02*
X141574286Y-70081819D01*
X141574286Y-70081819D02*
X141521905Y-70134200D01*
X141521905Y-70134200D02*
X141417143Y-70186580D01*
X141417143Y-70186580D02*
X141207619Y-70186580D01*
X141207619Y-70186580D02*
X141102857Y-70134200D01*
X142255238Y-70186580D02*
X142150476Y-70134200D01*
X142150476Y-70134200D02*
X142098095Y-70029438D01*
X142098095Y-70029438D02*
X142098095Y-69086580D01*
X143093333Y-70134200D02*
X142988571Y-70186580D01*
X142988571Y-70186580D02*
X142779047Y-70186580D01*
X142779047Y-70186580D02*
X142674285Y-70134200D01*
X142674285Y-70134200D02*
X142621904Y-70029438D01*
X142621904Y-70029438D02*
X142621904Y-69610390D01*
X142621904Y-69610390D02*
X142674285Y-69505628D01*
X142674285Y-69505628D02*
X142779047Y-69453247D01*
X142779047Y-69453247D02*
X142988571Y-69453247D01*
X142988571Y-69453247D02*
X143093333Y-69505628D01*
X143093333Y-69505628D02*
X143145714Y-69610390D01*
X143145714Y-69610390D02*
X143145714Y-69715152D01*
X143145714Y-69715152D02*
X142621904Y-69819914D01*
X127090953Y-71957580D02*
X126724286Y-71433771D01*
X126462381Y-71957580D02*
X126462381Y-70857580D01*
X126462381Y-70857580D02*
X126881429Y-70857580D01*
X126881429Y-70857580D02*
X126986191Y-70909961D01*
X126986191Y-70909961D02*
X127038572Y-70962342D01*
X127038572Y-70962342D02*
X127090953Y-71067104D01*
X127090953Y-71067104D02*
X127090953Y-71224247D01*
X127090953Y-71224247D02*
X127038572Y-71329009D01*
X127038572Y-71329009D02*
X126986191Y-71381390D01*
X126986191Y-71381390D02*
X126881429Y-71433771D01*
X126881429Y-71433771D02*
X126462381Y-71433771D01*
X127510000Y-71643295D02*
X128033810Y-71643295D01*
X127405238Y-71957580D02*
X127771905Y-70857580D01*
X127771905Y-70857580D02*
X128138572Y-71957580D01*
X128505238Y-71957580D02*
X128505238Y-70857580D01*
X128505238Y-70857580D02*
X128871905Y-71643295D01*
X128871905Y-71643295D02*
X129238572Y-70857580D01*
X129238572Y-70857580D02*
X129238572Y-71957580D01*
X130548096Y-70805200D02*
X129605238Y-72219485D01*
X131543334Y-71957580D02*
X131176667Y-71433771D01*
X130914762Y-71957580D02*
X130914762Y-70857580D01*
X130914762Y-70857580D02*
X131333810Y-70857580D01*
X131333810Y-70857580D02*
X131438572Y-70909961D01*
X131438572Y-70909961D02*
X131490953Y-70962342D01*
X131490953Y-70962342D02*
X131543334Y-71067104D01*
X131543334Y-71067104D02*
X131543334Y-71224247D01*
X131543334Y-71224247D02*
X131490953Y-71329009D01*
X131490953Y-71329009D02*
X131438572Y-71381390D01*
X131438572Y-71381390D02*
X131333810Y-71433771D01*
X131333810Y-71433771D02*
X130914762Y-71433771D01*
X132224286Y-70857580D02*
X132433810Y-70857580D01*
X132433810Y-70857580D02*
X132538572Y-70909961D01*
X132538572Y-70909961D02*
X132643334Y-71014723D01*
X132643334Y-71014723D02*
X132695715Y-71224247D01*
X132695715Y-71224247D02*
X132695715Y-71590914D01*
X132695715Y-71590914D02*
X132643334Y-71800438D01*
X132643334Y-71800438D02*
X132538572Y-71905200D01*
X132538572Y-71905200D02*
X132433810Y-71957580D01*
X132433810Y-71957580D02*
X132224286Y-71957580D01*
X132224286Y-71957580D02*
X132119524Y-71905200D01*
X132119524Y-71905200D02*
X132014762Y-71800438D01*
X132014762Y-71800438D02*
X131962381Y-71590914D01*
X131962381Y-71590914D02*
X131962381Y-71224247D01*
X131962381Y-71224247D02*
X132014762Y-71014723D01*
X132014762Y-71014723D02*
X132119524Y-70909961D01*
X132119524Y-70909961D02*
X132224286Y-70857580D01*
X133167143Y-71957580D02*
X133167143Y-70857580D01*
X133167143Y-70857580D02*
X133533810Y-71643295D01*
X133533810Y-71643295D02*
X133900477Y-70857580D01*
X133900477Y-70857580D02*
X133900477Y-71957580D01*
X135210001Y-70805200D02*
X134267143Y-72219485D01*
X135943334Y-71381390D02*
X135576667Y-71381390D01*
X135576667Y-71957580D02*
X135576667Y-70857580D01*
X135576667Y-70857580D02*
X136100477Y-70857580D01*
X136519524Y-71957580D02*
X136519524Y-70857580D01*
X136519524Y-70857580D02*
X136781429Y-70857580D01*
X136781429Y-70857580D02*
X136938572Y-70909961D01*
X136938572Y-70909961D02*
X137043334Y-71014723D01*
X137043334Y-71014723D02*
X137095715Y-71119485D01*
X137095715Y-71119485D02*
X137148096Y-71329009D01*
X137148096Y-71329009D02*
X137148096Y-71486152D01*
X137148096Y-71486152D02*
X137095715Y-71695676D01*
X137095715Y-71695676D02*
X137043334Y-71800438D01*
X137043334Y-71800438D02*
X136938572Y-71905200D01*
X136938572Y-71905200D02*
X136781429Y-71957580D01*
X136781429Y-71957580D02*
X136519524Y-71957580D01*
X138248096Y-71852819D02*
X138195715Y-71905200D01*
X138195715Y-71905200D02*
X138038572Y-71957580D01*
X138038572Y-71957580D02*
X137933810Y-71957580D01*
X137933810Y-71957580D02*
X137776667Y-71905200D01*
X137776667Y-71905200D02*
X137671905Y-71800438D01*
X137671905Y-71800438D02*
X137619524Y-71695676D01*
X137619524Y-71695676D02*
X137567143Y-71486152D01*
X137567143Y-71486152D02*
X137567143Y-71329009D01*
X137567143Y-71329009D02*
X137619524Y-71119485D01*
X137619524Y-71119485D02*
X137671905Y-71014723D01*
X137671905Y-71014723D02*
X137776667Y-70909961D01*
X137776667Y-70909961D02*
X137933810Y-70857580D01*
X137933810Y-70857580D02*
X138038572Y-70857580D01*
X138038572Y-70857580D02*
X138195715Y-70909961D01*
X138195715Y-70909961D02*
X138248096Y-70962342D01*
X139505239Y-70805200D02*
X138562381Y-72219485D01*
X139714762Y-70857580D02*
X140081429Y-71957580D01*
X140081429Y-71957580D02*
X140448096Y-70857580D01*
X140814762Y-71957580D02*
X140814762Y-71224247D01*
X140814762Y-70857580D02*
X140762381Y-70909961D01*
X140762381Y-70909961D02*
X140814762Y-70962342D01*
X140814762Y-70962342D02*
X140867143Y-70909961D01*
X140867143Y-70909961D02*
X140814762Y-70857580D01*
X140814762Y-70857580D02*
X140814762Y-70962342D01*
X141810001Y-71957580D02*
X141810001Y-70857580D01*
X141810001Y-71905200D02*
X141705239Y-71957580D01*
X141705239Y-71957580D02*
X141495715Y-71957580D01*
X141495715Y-71957580D02*
X141390953Y-71905200D01*
X141390953Y-71905200D02*
X141338572Y-71852819D01*
X141338572Y-71852819D02*
X141286191Y-71748057D01*
X141286191Y-71748057D02*
X141286191Y-71433771D01*
X141286191Y-71433771D02*
X141338572Y-71329009D01*
X141338572Y-71329009D02*
X141390953Y-71276628D01*
X141390953Y-71276628D02*
X141495715Y-71224247D01*
X141495715Y-71224247D02*
X141705239Y-71224247D01*
X141705239Y-71224247D02*
X141810001Y-71276628D01*
X142752858Y-71905200D02*
X142648096Y-71957580D01*
X142648096Y-71957580D02*
X142438572Y-71957580D01*
X142438572Y-71957580D02*
X142333810Y-71905200D01*
X142333810Y-71905200D02*
X142281429Y-71800438D01*
X142281429Y-71800438D02*
X142281429Y-71381390D01*
X142281429Y-71381390D02*
X142333810Y-71276628D01*
X142333810Y-71276628D02*
X142438572Y-71224247D01*
X142438572Y-71224247D02*
X142648096Y-71224247D01*
X142648096Y-71224247D02*
X142752858Y-71276628D01*
X142752858Y-71276628D02*
X142805239Y-71381390D01*
X142805239Y-71381390D02*
X142805239Y-71486152D01*
X142805239Y-71486152D02*
X142281429Y-71590914D01*
X143433810Y-71957580D02*
X143329048Y-71905200D01*
X143329048Y-71905200D02*
X143276667Y-71852819D01*
X143276667Y-71852819D02*
X143224286Y-71748057D01*
X143224286Y-71748057D02*
X143224286Y-71433771D01*
X143224286Y-71433771D02*
X143276667Y-71329009D01*
X143276667Y-71329009D02*
X143329048Y-71276628D01*
X143329048Y-71276628D02*
X143433810Y-71224247D01*
X143433810Y-71224247D02*
X143590953Y-71224247D01*
X143590953Y-71224247D02*
X143695715Y-71276628D01*
X143695715Y-71276628D02*
X143748096Y-71329009D01*
X143748096Y-71329009D02*
X143800477Y-71433771D01*
X143800477Y-71433771D02*
X143800477Y-71748057D01*
X143800477Y-71748057D02*
X143748096Y-71852819D01*
X143748096Y-71852819D02*
X143695715Y-71905200D01*
X143695715Y-71905200D02*
X143590953Y-71957580D01*
X143590953Y-71957580D02*
X143433810Y-71957580D01*
X145738572Y-71852819D02*
X145686191Y-71905200D01*
X145686191Y-71905200D02*
X145529048Y-71957580D01*
X145529048Y-71957580D02*
X145424286Y-71957580D01*
X145424286Y-71957580D02*
X145267143Y-71905200D01*
X145267143Y-71905200D02*
X145162381Y-71800438D01*
X145162381Y-71800438D02*
X145110000Y-71695676D01*
X145110000Y-71695676D02*
X145057619Y-71486152D01*
X145057619Y-71486152D02*
X145057619Y-71329009D01*
X145057619Y-71329009D02*
X145110000Y-71119485D01*
X145110000Y-71119485D02*
X145162381Y-71014723D01*
X145162381Y-71014723D02*
X145267143Y-70909961D01*
X145267143Y-70909961D02*
X145424286Y-70857580D01*
X145424286Y-70857580D02*
X145529048Y-70857580D01*
X145529048Y-70857580D02*
X145686191Y-70909961D01*
X145686191Y-70909961D02*
X145738572Y-70962342D01*
X146681429Y-71957580D02*
X146681429Y-71381390D01*
X146681429Y-71381390D02*
X146629048Y-71276628D01*
X146629048Y-71276628D02*
X146524286Y-71224247D01*
X146524286Y-71224247D02*
X146314762Y-71224247D01*
X146314762Y-71224247D02*
X146210000Y-71276628D01*
X146681429Y-71905200D02*
X146576667Y-71957580D01*
X146576667Y-71957580D02*
X146314762Y-71957580D01*
X146314762Y-71957580D02*
X146210000Y-71905200D01*
X146210000Y-71905200D02*
X146157619Y-71800438D01*
X146157619Y-71800438D02*
X146157619Y-71695676D01*
X146157619Y-71695676D02*
X146210000Y-71590914D01*
X146210000Y-71590914D02*
X146314762Y-71538533D01*
X146314762Y-71538533D02*
X146576667Y-71538533D01*
X146576667Y-71538533D02*
X146681429Y-71486152D01*
X147205238Y-71957580D02*
X147205238Y-71224247D01*
X147205238Y-71433771D02*
X147257619Y-71329009D01*
X147257619Y-71329009D02*
X147310000Y-71276628D01*
X147310000Y-71276628D02*
X147414762Y-71224247D01*
X147414762Y-71224247D02*
X147519524Y-71224247D01*
X148357619Y-71957580D02*
X148357619Y-70857580D01*
X148357619Y-71905200D02*
X148252857Y-71957580D01*
X148252857Y-71957580D02*
X148043333Y-71957580D01*
X148043333Y-71957580D02*
X147938571Y-71905200D01*
X147938571Y-71905200D02*
X147886190Y-71852819D01*
X147886190Y-71852819D02*
X147833809Y-71748057D01*
X147833809Y-71748057D02*
X147833809Y-71433771D01*
X147833809Y-71433771D02*
X147886190Y-71329009D01*
X147886190Y-71329009D02*
X147938571Y-71276628D01*
X147938571Y-71276628D02*
X148043333Y-71224247D01*
X148043333Y-71224247D02*
X148252857Y-71224247D01*
X148252857Y-71224247D02*
X148357619Y-71276628D01*
X79281905Y-143514819D02*
X79281905Y-142514819D01*
X79281905Y-142514819D02*
X79520000Y-142514819D01*
X79520000Y-142514819D02*
X79662857Y-142562438D01*
X79662857Y-142562438D02*
X79758095Y-142657676D01*
X79758095Y-142657676D02*
X79805714Y-142752914D01*
X79805714Y-142752914D02*
X79853333Y-142943390D01*
X79853333Y-142943390D02*
X79853333Y-143086247D01*
X79853333Y-143086247D02*
X79805714Y-143276723D01*
X79805714Y-143276723D02*
X79758095Y-143371961D01*
X79758095Y-143371961D02*
X79662857Y-143467200D01*
X79662857Y-143467200D02*
X79520000Y-143514819D01*
X79520000Y-143514819D02*
X79281905Y-143514819D01*
X80805714Y-143514819D02*
X80234286Y-143514819D01*
X80520000Y-143514819D02*
X80520000Y-142514819D01*
X80520000Y-142514819D02*
X80424762Y-142657676D01*
X80424762Y-142657676D02*
X80329524Y-142752914D01*
X80329524Y-142752914D02*
X80234286Y-142800533D01*
X73326009Y-143077142D02*
X73326009Y-143410475D01*
X73849819Y-143410475D02*
X72849819Y-143410475D01*
X72849819Y-143410475D02*
X72849819Y-142934285D01*
X73849819Y-142553332D02*
X72849819Y-142553332D01*
X72849819Y-142553332D02*
X72849819Y-142315237D01*
X72849819Y-142315237D02*
X72897438Y-142172380D01*
X72897438Y-142172380D02*
X72992676Y-142077142D01*
X72992676Y-142077142D02*
X73087914Y-142029523D01*
X73087914Y-142029523D02*
X73278390Y-141981904D01*
X73278390Y-141981904D02*
X73421247Y-141981904D01*
X73421247Y-141981904D02*
X73611723Y-142029523D01*
X73611723Y-142029523D02*
X73706961Y-142077142D01*
X73706961Y-142077142D02*
X73802200Y-142172380D01*
X73802200Y-142172380D02*
X73849819Y-142315237D01*
X73849819Y-142315237D02*
X73849819Y-142553332D01*
X73754580Y-140981904D02*
X73802200Y-141029523D01*
X73802200Y-141029523D02*
X73849819Y-141172380D01*
X73849819Y-141172380D02*
X73849819Y-141267618D01*
X73849819Y-141267618D02*
X73802200Y-141410475D01*
X73802200Y-141410475D02*
X73706961Y-141505713D01*
X73706961Y-141505713D02*
X73611723Y-141553332D01*
X73611723Y-141553332D02*
X73421247Y-141600951D01*
X73421247Y-141600951D02*
X73278390Y-141600951D01*
X73278390Y-141600951D02*
X73087914Y-141553332D01*
X73087914Y-141553332D02*
X72992676Y-141505713D01*
X72992676Y-141505713D02*
X72897438Y-141410475D01*
X72897438Y-141410475D02*
X72849819Y-141267618D01*
X72849819Y-141267618D02*
X72849819Y-141172380D01*
X72849819Y-141172380D02*
X72897438Y-141029523D01*
X72897438Y-141029523D02*
X72945057Y-140981904D01*
X91213333Y-143514819D02*
X90880000Y-143038628D01*
X90641905Y-143514819D02*
X90641905Y-142514819D01*
X90641905Y-142514819D02*
X91022857Y-142514819D01*
X91022857Y-142514819D02*
X91118095Y-142562438D01*
X91118095Y-142562438D02*
X91165714Y-142610057D01*
X91165714Y-142610057D02*
X91213333Y-142705295D01*
X91213333Y-142705295D02*
X91213333Y-142848152D01*
X91213333Y-142848152D02*
X91165714Y-142943390D01*
X91165714Y-142943390D02*
X91118095Y-142991009D01*
X91118095Y-142991009D02*
X91022857Y-143038628D01*
X91022857Y-143038628D02*
X90641905Y-143038628D01*
X92165714Y-143514819D02*
X91594286Y-143514819D01*
X91880000Y-143514819D02*
X91880000Y-142514819D01*
X91880000Y-142514819D02*
X91784762Y-142657676D01*
X91784762Y-142657676D02*
X91689524Y-142752914D01*
X91689524Y-142752914D02*
X91594286Y-142800533D01*
X88466666Y-121114819D02*
X88466666Y-121829104D01*
X88466666Y-121829104D02*
X88419047Y-121971961D01*
X88419047Y-121971961D02*
X88323809Y-122067200D01*
X88323809Y-122067200D02*
X88180952Y-122114819D01*
X88180952Y-122114819D02*
X88085714Y-122114819D01*
X89371428Y-121448152D02*
X89371428Y-122114819D01*
X89133333Y-121067200D02*
X88895238Y-121781485D01*
X88895238Y-121781485D02*
X89514285Y-121781485D01*
X99778095Y-93674819D02*
X99778095Y-94484342D01*
X99778095Y-94484342D02*
X99825714Y-94579580D01*
X99825714Y-94579580D02*
X99873333Y-94627200D01*
X99873333Y-94627200D02*
X99968571Y-94674819D01*
X99968571Y-94674819D02*
X100159047Y-94674819D01*
X100159047Y-94674819D02*
X100254285Y-94627200D01*
X100254285Y-94627200D02*
X100301904Y-94579580D01*
X100301904Y-94579580D02*
X100349523Y-94484342D01*
X100349523Y-94484342D02*
X100349523Y-93674819D01*
X100730476Y-93674819D02*
X101397142Y-93674819D01*
X101397142Y-93674819D02*
X100968571Y-94674819D01*
X99530476Y-72984295D02*
X99530476Y-73631914D01*
X99530476Y-73631914D02*
X99568571Y-73708104D01*
X99568571Y-73708104D02*
X99606666Y-73746200D01*
X99606666Y-73746200D02*
X99682857Y-73784295D01*
X99682857Y-73784295D02*
X99835238Y-73784295D01*
X99835238Y-73784295D02*
X99911428Y-73746200D01*
X99911428Y-73746200D02*
X99949523Y-73708104D01*
X99949523Y-73708104D02*
X99987619Y-73631914D01*
X99987619Y-73631914D02*
X99987619Y-72984295D01*
X100330475Y-73746200D02*
X100444761Y-73784295D01*
X100444761Y-73784295D02*
X100635237Y-73784295D01*
X100635237Y-73784295D02*
X100711428Y-73746200D01*
X100711428Y-73746200D02*
X100749523Y-73708104D01*
X100749523Y-73708104D02*
X100787618Y-73631914D01*
X100787618Y-73631914D02*
X100787618Y-73555723D01*
X100787618Y-73555723D02*
X100749523Y-73479533D01*
X100749523Y-73479533D02*
X100711428Y-73441438D01*
X100711428Y-73441438D02*
X100635237Y-73403342D01*
X100635237Y-73403342D02*
X100482856Y-73365247D01*
X100482856Y-73365247D02*
X100406666Y-73327152D01*
X100406666Y-73327152D02*
X100368571Y-73289057D01*
X100368571Y-73289057D02*
X100330475Y-73212866D01*
X100330475Y-73212866D02*
X100330475Y-73136676D01*
X100330475Y-73136676D02*
X100368571Y-73060485D01*
X100368571Y-73060485D02*
X100406666Y-73022390D01*
X100406666Y-73022390D02*
X100482856Y-72984295D01*
X100482856Y-72984295D02*
X100673333Y-72984295D01*
X100673333Y-72984295D02*
X100787618Y-73022390D01*
X101397142Y-73365247D02*
X101511428Y-73403342D01*
X101511428Y-73403342D02*
X101549523Y-73441438D01*
X101549523Y-73441438D02*
X101587619Y-73517628D01*
X101587619Y-73517628D02*
X101587619Y-73631914D01*
X101587619Y-73631914D02*
X101549523Y-73708104D01*
X101549523Y-73708104D02*
X101511428Y-73746200D01*
X101511428Y-73746200D02*
X101435238Y-73784295D01*
X101435238Y-73784295D02*
X101130476Y-73784295D01*
X101130476Y-73784295D02*
X101130476Y-72984295D01*
X101130476Y-72984295D02*
X101397142Y-72984295D01*
X101397142Y-72984295D02*
X101473333Y-73022390D01*
X101473333Y-73022390D02*
X101511428Y-73060485D01*
X101511428Y-73060485D02*
X101549523Y-73136676D01*
X101549523Y-73136676D02*
X101549523Y-73212866D01*
X101549523Y-73212866D02*
X101511428Y-73289057D01*
X101511428Y-73289057D02*
X101473333Y-73327152D01*
X101473333Y-73327152D02*
X101397142Y-73365247D01*
X101397142Y-73365247D02*
X101130476Y-73365247D01*
D11*
X100540000Y-72402238D02*
X100540000Y-70878428D01*
X100159047Y-71259380D02*
X100540000Y-70878428D01*
X100540000Y-70878428D02*
X100920952Y-71259380D01*
D10*
X116343333Y-74369580D02*
X116295714Y-74417200D01*
X116295714Y-74417200D02*
X116152857Y-74464819D01*
X116152857Y-74464819D02*
X116057619Y-74464819D01*
X116057619Y-74464819D02*
X115914762Y-74417200D01*
X115914762Y-74417200D02*
X115819524Y-74321961D01*
X115819524Y-74321961D02*
X115771905Y-74226723D01*
X115771905Y-74226723D02*
X115724286Y-74036247D01*
X115724286Y-74036247D02*
X115724286Y-73893390D01*
X115724286Y-73893390D02*
X115771905Y-73702914D01*
X115771905Y-73702914D02*
X115819524Y-73607676D01*
X115819524Y-73607676D02*
X115914762Y-73512438D01*
X115914762Y-73512438D02*
X116057619Y-73464819D01*
X116057619Y-73464819D02*
X116152857Y-73464819D01*
X116152857Y-73464819D02*
X116295714Y-73512438D01*
X116295714Y-73512438D02*
X116343333Y-73560057D01*
X116676667Y-73464819D02*
X117295714Y-73464819D01*
X117295714Y-73464819D02*
X116962381Y-73845771D01*
X116962381Y-73845771D02*
X117105238Y-73845771D01*
X117105238Y-73845771D02*
X117200476Y-73893390D01*
X117200476Y-73893390D02*
X117248095Y-73941009D01*
X117248095Y-73941009D02*
X117295714Y-74036247D01*
X117295714Y-74036247D02*
X117295714Y-74274342D01*
X117295714Y-74274342D02*
X117248095Y-74369580D01*
X117248095Y-74369580D02*
X117200476Y-74417200D01*
X117200476Y-74417200D02*
X117105238Y-74464819D01*
X117105238Y-74464819D02*
X116819524Y-74464819D01*
X116819524Y-74464819D02*
X116724286Y-74417200D01*
X116724286Y-74417200D02*
X116676667Y-74369580D01*
X125382295Y-143572380D02*
X124582295Y-143572380D01*
X124582295Y-143572380D02*
X124582295Y-143381904D01*
X124582295Y-143381904D02*
X124620390Y-143267618D01*
X124620390Y-143267618D02*
X124696580Y-143191428D01*
X124696580Y-143191428D02*
X124772771Y-143153333D01*
X124772771Y-143153333D02*
X124925152Y-143115237D01*
X124925152Y-143115237D02*
X125039438Y-143115237D01*
X125039438Y-143115237D02*
X125191819Y-143153333D01*
X125191819Y-143153333D02*
X125268009Y-143191428D01*
X125268009Y-143191428D02*
X125344200Y-143267618D01*
X125344200Y-143267618D02*
X125382295Y-143381904D01*
X125382295Y-143381904D02*
X125382295Y-143572380D01*
X124963247Y-142772380D02*
X124963247Y-142505714D01*
X125382295Y-142391428D02*
X125382295Y-142772380D01*
X125382295Y-142772380D02*
X124582295Y-142772380D01*
X124582295Y-142772380D02*
X124582295Y-142391428D01*
X125306104Y-141591427D02*
X125344200Y-141629523D01*
X125344200Y-141629523D02*
X125382295Y-141743808D01*
X125382295Y-141743808D02*
X125382295Y-141819999D01*
X125382295Y-141819999D02*
X125344200Y-141934285D01*
X125344200Y-141934285D02*
X125268009Y-142010475D01*
X125268009Y-142010475D02*
X125191819Y-142048570D01*
X125191819Y-142048570D02*
X125039438Y-142086666D01*
X125039438Y-142086666D02*
X124925152Y-142086666D01*
X124925152Y-142086666D02*
X124772771Y-142048570D01*
X124772771Y-142048570D02*
X124696580Y-142010475D01*
X124696580Y-142010475D02*
X124620390Y-141934285D01*
X124620390Y-141934285D02*
X124582295Y-141819999D01*
X124582295Y-141819999D02*
X124582295Y-141743808D01*
X124582295Y-141743808D02*
X124620390Y-141629523D01*
X124620390Y-141629523D02*
X124658485Y-141591427D01*
X124963247Y-141248570D02*
X124963247Y-140981904D01*
X125382295Y-140867618D02*
X125382295Y-141248570D01*
X125382295Y-141248570D02*
X124582295Y-141248570D01*
X124582295Y-141248570D02*
X124582295Y-140867618D01*
X125382295Y-140524760D02*
X124582295Y-140524760D01*
X124582295Y-140524760D02*
X125382295Y-140067617D01*
X125382295Y-140067617D02*
X124582295Y-140067617D01*
X124360200Y-143682857D02*
X124360200Y-139957142D01*
X76236031Y-103343794D02*
X76236031Y-104059441D01*
X76236031Y-104059441D02*
X76188322Y-104202571D01*
X76188322Y-104202571D02*
X76092902Y-104297991D01*
X76092902Y-104297991D02*
X75949773Y-104345700D01*
X75949773Y-104345700D02*
X75854353Y-104345700D01*
X77190228Y-103343794D02*
X76713130Y-103343794D01*
X76713130Y-103343794D02*
X76665420Y-103820892D01*
X76665420Y-103820892D02*
X76713130Y-103773183D01*
X76713130Y-103773183D02*
X76808549Y-103725473D01*
X76808549Y-103725473D02*
X77047098Y-103725473D01*
X77047098Y-103725473D02*
X77142518Y-103773183D01*
X77142518Y-103773183D02*
X77190228Y-103820892D01*
X77190228Y-103820892D02*
X77237937Y-103916312D01*
X77237937Y-103916312D02*
X77237937Y-104154861D01*
X77237937Y-104154861D02*
X77190228Y-104250281D01*
X77190228Y-104250281D02*
X77142518Y-104297991D01*
X77142518Y-104297991D02*
X77047098Y-104345700D01*
X77047098Y-104345700D02*
X76808549Y-104345700D01*
X76808549Y-104345700D02*
X76713130Y-104297991D01*
X76713130Y-104297991D02*
X76665420Y-104250281D01*
X116333333Y-114644819D02*
X116000000Y-114168628D01*
X115761905Y-114644819D02*
X115761905Y-113644819D01*
X115761905Y-113644819D02*
X116142857Y-113644819D01*
X116142857Y-113644819D02*
X116238095Y-113692438D01*
X116238095Y-113692438D02*
X116285714Y-113740057D01*
X116285714Y-113740057D02*
X116333333Y-113835295D01*
X116333333Y-113835295D02*
X116333333Y-113978152D01*
X116333333Y-113978152D02*
X116285714Y-114073390D01*
X116285714Y-114073390D02*
X116238095Y-114121009D01*
X116238095Y-114121009D02*
X116142857Y-114168628D01*
X116142857Y-114168628D02*
X115761905Y-114168628D01*
X116666667Y-113644819D02*
X117285714Y-113644819D01*
X117285714Y-113644819D02*
X116952381Y-114025771D01*
X116952381Y-114025771D02*
X117095238Y-114025771D01*
X117095238Y-114025771D02*
X117190476Y-114073390D01*
X117190476Y-114073390D02*
X117238095Y-114121009D01*
X117238095Y-114121009D02*
X117285714Y-114216247D01*
X117285714Y-114216247D02*
X117285714Y-114454342D01*
X117285714Y-114454342D02*
X117238095Y-114549580D01*
X117238095Y-114549580D02*
X117190476Y-114597200D01*
X117190476Y-114597200D02*
X117095238Y-114644819D01*
X117095238Y-114644819D02*
X116809524Y-114644819D01*
X116809524Y-114644819D02*
X116714286Y-114597200D01*
X116714286Y-114597200D02*
X116666667Y-114549580D01*
X111908095Y-140734819D02*
X111908095Y-141544342D01*
X111908095Y-141544342D02*
X111955714Y-141639580D01*
X111955714Y-141639580D02*
X112003333Y-141687200D01*
X112003333Y-141687200D02*
X112098571Y-141734819D01*
X112098571Y-141734819D02*
X112289047Y-141734819D01*
X112289047Y-141734819D02*
X112384285Y-141687200D01*
X112384285Y-141687200D02*
X112431904Y-141639580D01*
X112431904Y-141639580D02*
X112479523Y-141544342D01*
X112479523Y-141544342D02*
X112479523Y-140734819D01*
X113431904Y-140734819D02*
X112955714Y-140734819D01*
X112955714Y-140734819D02*
X112908095Y-141211009D01*
X112908095Y-141211009D02*
X112955714Y-141163390D01*
X112955714Y-141163390D02*
X113050952Y-141115771D01*
X113050952Y-141115771D02*
X113289047Y-141115771D01*
X113289047Y-141115771D02*
X113384285Y-141163390D01*
X113384285Y-141163390D02*
X113431904Y-141211009D01*
X113431904Y-141211009D02*
X113479523Y-141306247D01*
X113479523Y-141306247D02*
X113479523Y-141544342D01*
X113479523Y-141544342D02*
X113431904Y-141639580D01*
X113431904Y-141639580D02*
X113384285Y-141687200D01*
X113384285Y-141687200D02*
X113289047Y-141734819D01*
X113289047Y-141734819D02*
X113050952Y-141734819D01*
X113050952Y-141734819D02*
X112955714Y-141687200D01*
X112955714Y-141687200D02*
X112908095Y-141639580D01*
X100423333Y-143419580D02*
X100375714Y-143467200D01*
X100375714Y-143467200D02*
X100232857Y-143514819D01*
X100232857Y-143514819D02*
X100137619Y-143514819D01*
X100137619Y-143514819D02*
X99994762Y-143467200D01*
X99994762Y-143467200D02*
X99899524Y-143371961D01*
X99899524Y-143371961D02*
X99851905Y-143276723D01*
X99851905Y-143276723D02*
X99804286Y-143086247D01*
X99804286Y-143086247D02*
X99804286Y-142943390D01*
X99804286Y-142943390D02*
X99851905Y-142752914D01*
X99851905Y-142752914D02*
X99899524Y-142657676D01*
X99899524Y-142657676D02*
X99994762Y-142562438D01*
X99994762Y-142562438D02*
X100137619Y-142514819D01*
X100137619Y-142514819D02*
X100232857Y-142514819D01*
X100232857Y-142514819D02*
X100375714Y-142562438D01*
X100375714Y-142562438D02*
X100423333Y-142610057D01*
X101280476Y-142514819D02*
X101090000Y-142514819D01*
X101090000Y-142514819D02*
X100994762Y-142562438D01*
X100994762Y-142562438D02*
X100947143Y-142610057D01*
X100947143Y-142610057D02*
X100851905Y-142752914D01*
X100851905Y-142752914D02*
X100804286Y-142943390D01*
X100804286Y-142943390D02*
X100804286Y-143324342D01*
X100804286Y-143324342D02*
X100851905Y-143419580D01*
X100851905Y-143419580D02*
X100899524Y-143467200D01*
X100899524Y-143467200D02*
X100994762Y-143514819D01*
X100994762Y-143514819D02*
X101185238Y-143514819D01*
X101185238Y-143514819D02*
X101280476Y-143467200D01*
X101280476Y-143467200D02*
X101328095Y-143419580D01*
X101328095Y-143419580D02*
X101375714Y-143324342D01*
X101375714Y-143324342D02*
X101375714Y-143086247D01*
X101375714Y-143086247D02*
X101328095Y-142991009D01*
X101328095Y-142991009D02*
X101280476Y-142943390D01*
X101280476Y-142943390D02*
X101185238Y-142895771D01*
X101185238Y-142895771D02*
X100994762Y-142895771D01*
X100994762Y-142895771D02*
X100899524Y-142943390D01*
X100899524Y-142943390D02*
X100851905Y-142991009D01*
X100851905Y-142991009D02*
X100804286Y-143086247D01*
X111393333Y-143419580D02*
X111345714Y-143467200D01*
X111345714Y-143467200D02*
X111202857Y-143514819D01*
X111202857Y-143514819D02*
X111107619Y-143514819D01*
X111107619Y-143514819D02*
X110964762Y-143467200D01*
X110964762Y-143467200D02*
X110869524Y-143371961D01*
X110869524Y-143371961D02*
X110821905Y-143276723D01*
X110821905Y-143276723D02*
X110774286Y-143086247D01*
X110774286Y-143086247D02*
X110774286Y-142943390D01*
X110774286Y-142943390D02*
X110821905Y-142752914D01*
X110821905Y-142752914D02*
X110869524Y-142657676D01*
X110869524Y-142657676D02*
X110964762Y-142562438D01*
X110964762Y-142562438D02*
X111107619Y-142514819D01*
X111107619Y-142514819D02*
X111202857Y-142514819D01*
X111202857Y-142514819D02*
X111345714Y-142562438D01*
X111345714Y-142562438D02*
X111393333Y-142610057D01*
X112298095Y-142514819D02*
X111821905Y-142514819D01*
X111821905Y-142514819D02*
X111774286Y-142991009D01*
X111774286Y-142991009D02*
X111821905Y-142943390D01*
X111821905Y-142943390D02*
X111917143Y-142895771D01*
X111917143Y-142895771D02*
X112155238Y-142895771D01*
X112155238Y-142895771D02*
X112250476Y-142943390D01*
X112250476Y-142943390D02*
X112298095Y-142991009D01*
X112298095Y-142991009D02*
X112345714Y-143086247D01*
X112345714Y-143086247D02*
X112345714Y-143324342D01*
X112345714Y-143324342D02*
X112298095Y-143419580D01*
X112298095Y-143419580D02*
X112250476Y-143467200D01*
X112250476Y-143467200D02*
X112155238Y-143514819D01*
X112155238Y-143514819D02*
X111917143Y-143514819D01*
X111917143Y-143514819D02*
X111821905Y-143467200D01*
X111821905Y-143467200D02*
X111774286Y-143419580D01*
X116343333Y-115899580D02*
X116295714Y-115947200D01*
X116295714Y-115947200D02*
X116152857Y-115994819D01*
X116152857Y-115994819D02*
X116057619Y-115994819D01*
X116057619Y-115994819D02*
X115914762Y-115947200D01*
X115914762Y-115947200D02*
X115819524Y-115851961D01*
X115819524Y-115851961D02*
X115771905Y-115756723D01*
X115771905Y-115756723D02*
X115724286Y-115566247D01*
X115724286Y-115566247D02*
X115724286Y-115423390D01*
X115724286Y-115423390D02*
X115771905Y-115232914D01*
X115771905Y-115232914D02*
X115819524Y-115137676D01*
X115819524Y-115137676D02*
X115914762Y-115042438D01*
X115914762Y-115042438D02*
X116057619Y-114994819D01*
X116057619Y-114994819D02*
X116152857Y-114994819D01*
X116152857Y-114994819D02*
X116295714Y-115042438D01*
X116295714Y-115042438D02*
X116343333Y-115090057D01*
X117200476Y-115328152D02*
X117200476Y-115994819D01*
X116962381Y-114947200D02*
X116724286Y-115661485D01*
X116724286Y-115661485D02*
X117343333Y-115661485D01*
X121626667Y-108627200D02*
X121769524Y-108674819D01*
X121769524Y-108674819D02*
X122007619Y-108674819D01*
X122007619Y-108674819D02*
X122102857Y-108627200D01*
X122102857Y-108627200D02*
X122150476Y-108579580D01*
X122150476Y-108579580D02*
X122198095Y-108484342D01*
X122198095Y-108484342D02*
X122198095Y-108389104D01*
X122198095Y-108389104D02*
X122150476Y-108293866D01*
X122150476Y-108293866D02*
X122102857Y-108246247D01*
X122102857Y-108246247D02*
X122007619Y-108198628D01*
X122007619Y-108198628D02*
X121817143Y-108151009D01*
X121817143Y-108151009D02*
X121721905Y-108103390D01*
X121721905Y-108103390D02*
X121674286Y-108055771D01*
X121674286Y-108055771D02*
X121626667Y-107960533D01*
X121626667Y-107960533D02*
X121626667Y-107865295D01*
X121626667Y-107865295D02*
X121674286Y-107770057D01*
X121674286Y-107770057D02*
X121721905Y-107722438D01*
X121721905Y-107722438D02*
X121817143Y-107674819D01*
X121817143Y-107674819D02*
X122055238Y-107674819D01*
X122055238Y-107674819D02*
X122198095Y-107722438D01*
X122531429Y-107674819D02*
X122769524Y-108674819D01*
X122769524Y-108674819D02*
X122960000Y-107960533D01*
X122960000Y-107960533D02*
X123150476Y-108674819D01*
X123150476Y-108674819D02*
X123388572Y-107674819D01*
X124293333Y-108674819D02*
X123721905Y-108674819D01*
X124007619Y-108674819D02*
X124007619Y-107674819D01*
X124007619Y-107674819D02*
X123912381Y-107817676D01*
X123912381Y-107817676D02*
X123817143Y-107912914D01*
X123817143Y-107912914D02*
X123721905Y-107960533D01*
X121477618Y-114144819D02*
X121144285Y-113668628D01*
X120906190Y-114144819D02*
X120906190Y-113144819D01*
X120906190Y-113144819D02*
X121287142Y-113144819D01*
X121287142Y-113144819D02*
X121382380Y-113192438D01*
X121382380Y-113192438D02*
X121429999Y-113240057D01*
X121429999Y-113240057D02*
X121477618Y-113335295D01*
X121477618Y-113335295D02*
X121477618Y-113478152D01*
X121477618Y-113478152D02*
X121429999Y-113573390D01*
X121429999Y-113573390D02*
X121382380Y-113621009D01*
X121382380Y-113621009D02*
X121287142Y-113668628D01*
X121287142Y-113668628D02*
X120906190Y-113668628D01*
X121906190Y-113621009D02*
X122239523Y-113621009D01*
X122382380Y-114144819D02*
X121906190Y-114144819D01*
X121906190Y-114144819D02*
X121906190Y-113144819D01*
X121906190Y-113144819D02*
X122382380Y-113144819D01*
X122763333Y-114097200D02*
X122906190Y-114144819D01*
X122906190Y-114144819D02*
X123144285Y-114144819D01*
X123144285Y-114144819D02*
X123239523Y-114097200D01*
X123239523Y-114097200D02*
X123287142Y-114049580D01*
X123287142Y-114049580D02*
X123334761Y-113954342D01*
X123334761Y-113954342D02*
X123334761Y-113859104D01*
X123334761Y-113859104D02*
X123287142Y-113763866D01*
X123287142Y-113763866D02*
X123239523Y-113716247D01*
X123239523Y-113716247D02*
X123144285Y-113668628D01*
X123144285Y-113668628D02*
X122953809Y-113621009D01*
X122953809Y-113621009D02*
X122858571Y-113573390D01*
X122858571Y-113573390D02*
X122810952Y-113525771D01*
X122810952Y-113525771D02*
X122763333Y-113430533D01*
X122763333Y-113430533D02*
X122763333Y-113335295D01*
X122763333Y-113335295D02*
X122810952Y-113240057D01*
X122810952Y-113240057D02*
X122858571Y-113192438D01*
X122858571Y-113192438D02*
X122953809Y-113144819D01*
X122953809Y-113144819D02*
X123191904Y-113144819D01*
X123191904Y-113144819D02*
X123334761Y-113192438D01*
X123763333Y-113621009D02*
X124096666Y-113621009D01*
X124239523Y-114144819D02*
X123763333Y-114144819D01*
X123763333Y-114144819D02*
X123763333Y-113144819D01*
X123763333Y-113144819D02*
X124239523Y-113144819D01*
X124525238Y-113144819D02*
X125096666Y-113144819D01*
X124810952Y-114144819D02*
X124810952Y-113144819D01*
X82817142Y-70604819D02*
X82483809Y-70128628D01*
X82245714Y-70604819D02*
X82245714Y-69604819D01*
X82245714Y-69604819D02*
X82626666Y-69604819D01*
X82626666Y-69604819D02*
X82721904Y-69652438D01*
X82721904Y-69652438D02*
X82769523Y-69700057D01*
X82769523Y-69700057D02*
X82817142Y-69795295D01*
X82817142Y-69795295D02*
X82817142Y-69938152D01*
X82817142Y-69938152D02*
X82769523Y-70033390D01*
X82769523Y-70033390D02*
X82721904Y-70081009D01*
X82721904Y-70081009D02*
X82626666Y-70128628D01*
X82626666Y-70128628D02*
X82245714Y-70128628D01*
X83769523Y-70604819D02*
X83198095Y-70604819D01*
X83483809Y-70604819D02*
X83483809Y-69604819D01*
X83483809Y-69604819D02*
X83388571Y-69747676D01*
X83388571Y-69747676D02*
X83293333Y-69842914D01*
X83293333Y-69842914D02*
X83198095Y-69890533D01*
X84388571Y-69604819D02*
X84483809Y-69604819D01*
X84483809Y-69604819D02*
X84579047Y-69652438D01*
X84579047Y-69652438D02*
X84626666Y-69700057D01*
X84626666Y-69700057D02*
X84674285Y-69795295D01*
X84674285Y-69795295D02*
X84721904Y-69985771D01*
X84721904Y-69985771D02*
X84721904Y-70223866D01*
X84721904Y-70223866D02*
X84674285Y-70414342D01*
X84674285Y-70414342D02*
X84626666Y-70509580D01*
X84626666Y-70509580D02*
X84579047Y-70557200D01*
X84579047Y-70557200D02*
X84483809Y-70604819D01*
X84483809Y-70604819D02*
X84388571Y-70604819D01*
X84388571Y-70604819D02*
X84293333Y-70557200D01*
X84293333Y-70557200D02*
X84245714Y-70509580D01*
X84245714Y-70509580D02*
X84198095Y-70414342D01*
X84198095Y-70414342D02*
X84150476Y-70223866D01*
X84150476Y-70223866D02*
X84150476Y-69985771D01*
X84150476Y-69985771D02*
X84198095Y-69795295D01*
X84198095Y-69795295D02*
X84245714Y-69700057D01*
X84245714Y-69700057D02*
X84293333Y-69652438D01*
X84293333Y-69652438D02*
X84388571Y-69604819D01*
X128038095Y-109344819D02*
X128038095Y-110154342D01*
X128038095Y-110154342D02*
X128085714Y-110249580D01*
X128085714Y-110249580D02*
X128133333Y-110297200D01*
X128133333Y-110297200D02*
X128228571Y-110344819D01*
X128228571Y-110344819D02*
X128419047Y-110344819D01*
X128419047Y-110344819D02*
X128514285Y-110297200D01*
X128514285Y-110297200D02*
X128561904Y-110249580D01*
X128561904Y-110249580D02*
X128609523Y-110154342D01*
X128609523Y-110154342D02*
X128609523Y-109344819D01*
X129038095Y-109440057D02*
X129085714Y-109392438D01*
X129085714Y-109392438D02*
X129180952Y-109344819D01*
X129180952Y-109344819D02*
X129419047Y-109344819D01*
X129419047Y-109344819D02*
X129514285Y-109392438D01*
X129514285Y-109392438D02*
X129561904Y-109440057D01*
X129561904Y-109440057D02*
X129609523Y-109535295D01*
X129609523Y-109535295D02*
X129609523Y-109630533D01*
X129609523Y-109630533D02*
X129561904Y-109773390D01*
X129561904Y-109773390D02*
X128990476Y-110344819D01*
X128990476Y-110344819D02*
X129609523Y-110344819D01*
X128633333Y-108279580D02*
X128585714Y-108327200D01*
X128585714Y-108327200D02*
X128442857Y-108374819D01*
X128442857Y-108374819D02*
X128347619Y-108374819D01*
X128347619Y-108374819D02*
X128204762Y-108327200D01*
X128204762Y-108327200D02*
X128109524Y-108231961D01*
X128109524Y-108231961D02*
X128061905Y-108136723D01*
X128061905Y-108136723D02*
X128014286Y-107946247D01*
X128014286Y-107946247D02*
X128014286Y-107803390D01*
X128014286Y-107803390D02*
X128061905Y-107612914D01*
X128061905Y-107612914D02*
X128109524Y-107517676D01*
X128109524Y-107517676D02*
X128204762Y-107422438D01*
X128204762Y-107422438D02*
X128347619Y-107374819D01*
X128347619Y-107374819D02*
X128442857Y-107374819D01*
X128442857Y-107374819D02*
X128585714Y-107422438D01*
X128585714Y-107422438D02*
X128633333Y-107470057D01*
X129014286Y-107470057D02*
X129061905Y-107422438D01*
X129061905Y-107422438D02*
X129157143Y-107374819D01*
X129157143Y-107374819D02*
X129395238Y-107374819D01*
X129395238Y-107374819D02*
X129490476Y-107422438D01*
X129490476Y-107422438D02*
X129538095Y-107470057D01*
X129538095Y-107470057D02*
X129585714Y-107565295D01*
X129585714Y-107565295D02*
X129585714Y-107660533D01*
X129585714Y-107660533D02*
X129538095Y-107803390D01*
X129538095Y-107803390D02*
X128966667Y-108374819D01*
X128966667Y-108374819D02*
X129585714Y-108374819D01*
X76556666Y-68684819D02*
X76556666Y-69399104D01*
X76556666Y-69399104D02*
X76509047Y-69541961D01*
X76509047Y-69541961D02*
X76413809Y-69637200D01*
X76413809Y-69637200D02*
X76270952Y-69684819D01*
X76270952Y-69684819D02*
X76175714Y-69684819D01*
X76937619Y-68684819D02*
X77556666Y-68684819D01*
X77556666Y-68684819D02*
X77223333Y-69065771D01*
X77223333Y-69065771D02*
X77366190Y-69065771D01*
X77366190Y-69065771D02*
X77461428Y-69113390D01*
X77461428Y-69113390D02*
X77509047Y-69161009D01*
X77509047Y-69161009D02*
X77556666Y-69256247D01*
X77556666Y-69256247D02*
X77556666Y-69494342D01*
X77556666Y-69494342D02*
X77509047Y-69589580D01*
X77509047Y-69589580D02*
X77461428Y-69637200D01*
X77461428Y-69637200D02*
X77366190Y-69684819D01*
X77366190Y-69684819D02*
X77080476Y-69684819D01*
X77080476Y-69684819D02*
X76985238Y-69637200D01*
X76985238Y-69637200D02*
X76937619Y-69589580D01*
X100968095Y-140734819D02*
X100968095Y-141544342D01*
X100968095Y-141544342D02*
X101015714Y-141639580D01*
X101015714Y-141639580D02*
X101063333Y-141687200D01*
X101063333Y-141687200D02*
X101158571Y-141734819D01*
X101158571Y-141734819D02*
X101349047Y-141734819D01*
X101349047Y-141734819D02*
X101444285Y-141687200D01*
X101444285Y-141687200D02*
X101491904Y-141639580D01*
X101491904Y-141639580D02*
X101539523Y-141544342D01*
X101539523Y-141544342D02*
X101539523Y-140734819D01*
X102444285Y-140734819D02*
X102253809Y-140734819D01*
X102253809Y-140734819D02*
X102158571Y-140782438D01*
X102158571Y-140782438D02*
X102110952Y-140830057D01*
X102110952Y-140830057D02*
X102015714Y-140972914D01*
X102015714Y-140972914D02*
X101968095Y-141163390D01*
X101968095Y-141163390D02*
X101968095Y-141544342D01*
X101968095Y-141544342D02*
X102015714Y-141639580D01*
X102015714Y-141639580D02*
X102063333Y-141687200D01*
X102063333Y-141687200D02*
X102158571Y-141734819D01*
X102158571Y-141734819D02*
X102349047Y-141734819D01*
X102349047Y-141734819D02*
X102444285Y-141687200D01*
X102444285Y-141687200D02*
X102491904Y-141639580D01*
X102491904Y-141639580D02*
X102539523Y-141544342D01*
X102539523Y-141544342D02*
X102539523Y-141306247D01*
X102539523Y-141306247D02*
X102491904Y-141211009D01*
X102491904Y-141211009D02*
X102444285Y-141163390D01*
X102444285Y-141163390D02*
X102349047Y-141115771D01*
X102349047Y-141115771D02*
X102158571Y-141115771D01*
X102158571Y-141115771D02*
X102063333Y-141163390D01*
X102063333Y-141163390D02*
X102015714Y-141211009D01*
X102015714Y-141211009D02*
X101968095Y-141306247D01*
X146533333Y-138049580D02*
X146485714Y-138097200D01*
X146485714Y-138097200D02*
X146342857Y-138144819D01*
X146342857Y-138144819D02*
X146247619Y-138144819D01*
X146247619Y-138144819D02*
X146104762Y-138097200D01*
X146104762Y-138097200D02*
X146009524Y-138001961D01*
X146009524Y-138001961D02*
X145961905Y-137906723D01*
X145961905Y-137906723D02*
X145914286Y-137716247D01*
X145914286Y-137716247D02*
X145914286Y-137573390D01*
X145914286Y-137573390D02*
X145961905Y-137382914D01*
X145961905Y-137382914D02*
X146009524Y-137287676D01*
X146009524Y-137287676D02*
X146104762Y-137192438D01*
X146104762Y-137192438D02*
X146247619Y-137144819D01*
X146247619Y-137144819D02*
X146342857Y-137144819D01*
X146342857Y-137144819D02*
X146485714Y-137192438D01*
X146485714Y-137192438D02*
X146533333Y-137240057D01*
X146866667Y-137144819D02*
X147533333Y-137144819D01*
X147533333Y-137144819D02*
X147104762Y-138144819D01*
X128038095Y-75434819D02*
X128038095Y-76244342D01*
X128038095Y-76244342D02*
X128085714Y-76339580D01*
X128085714Y-76339580D02*
X128133333Y-76387200D01*
X128133333Y-76387200D02*
X128228571Y-76434819D01*
X128228571Y-76434819D02*
X128419047Y-76434819D01*
X128419047Y-76434819D02*
X128514285Y-76387200D01*
X128514285Y-76387200D02*
X128561904Y-76339580D01*
X128561904Y-76339580D02*
X128609523Y-76244342D01*
X128609523Y-76244342D02*
X128609523Y-75434819D01*
X129609523Y-76434819D02*
X129038095Y-76434819D01*
X129323809Y-76434819D02*
X129323809Y-75434819D01*
X129323809Y-75434819D02*
X129228571Y-75577676D01*
X129228571Y-75577676D02*
X129133333Y-75672914D01*
X129133333Y-75672914D02*
X129038095Y-75720533D01*
X115748095Y-75434819D02*
X115748095Y-76244342D01*
X115748095Y-76244342D02*
X115795714Y-76339580D01*
X115795714Y-76339580D02*
X115843333Y-76387200D01*
X115843333Y-76387200D02*
X115938571Y-76434819D01*
X115938571Y-76434819D02*
X116129047Y-76434819D01*
X116129047Y-76434819D02*
X116224285Y-76387200D01*
X116224285Y-76387200D02*
X116271904Y-76339580D01*
X116271904Y-76339580D02*
X116319523Y-76244342D01*
X116319523Y-76244342D02*
X116319523Y-75434819D01*
X116700476Y-75434819D02*
X117319523Y-75434819D01*
X117319523Y-75434819D02*
X116986190Y-75815771D01*
X116986190Y-75815771D02*
X117129047Y-75815771D01*
X117129047Y-75815771D02*
X117224285Y-75863390D01*
X117224285Y-75863390D02*
X117271904Y-75911009D01*
X117271904Y-75911009D02*
X117319523Y-76006247D01*
X117319523Y-76006247D02*
X117319523Y-76244342D01*
X117319523Y-76244342D02*
X117271904Y-76339580D01*
X117271904Y-76339580D02*
X117224285Y-76387200D01*
X117224285Y-76387200D02*
X117129047Y-76434819D01*
X117129047Y-76434819D02*
X116843333Y-76434819D01*
X116843333Y-76434819D02*
X116748095Y-76387200D01*
X116748095Y-76387200D02*
X116700476Y-76339580D01*
X128633333Y-74369580D02*
X128585714Y-74417200D01*
X128585714Y-74417200D02*
X128442857Y-74464819D01*
X128442857Y-74464819D02*
X128347619Y-74464819D01*
X128347619Y-74464819D02*
X128204762Y-74417200D01*
X128204762Y-74417200D02*
X128109524Y-74321961D01*
X128109524Y-74321961D02*
X128061905Y-74226723D01*
X128061905Y-74226723D02*
X128014286Y-74036247D01*
X128014286Y-74036247D02*
X128014286Y-73893390D01*
X128014286Y-73893390D02*
X128061905Y-73702914D01*
X128061905Y-73702914D02*
X128109524Y-73607676D01*
X128109524Y-73607676D02*
X128204762Y-73512438D01*
X128204762Y-73512438D02*
X128347619Y-73464819D01*
X128347619Y-73464819D02*
X128442857Y-73464819D01*
X128442857Y-73464819D02*
X128585714Y-73512438D01*
X128585714Y-73512438D02*
X128633333Y-73560057D01*
X129585714Y-74464819D02*
X129014286Y-74464819D01*
X129300000Y-74464819D02*
X129300000Y-73464819D01*
X129300000Y-73464819D02*
X129204762Y-73607676D01*
X129204762Y-73607676D02*
X129109524Y-73702914D01*
X129109524Y-73702914D02*
X129014286Y-73750533D01*
X115203247Y-143566904D02*
X115203247Y-143300238D01*
X115622295Y-143185952D02*
X115622295Y-143566904D01*
X115622295Y-143566904D02*
X114822295Y-143566904D01*
X114822295Y-143566904D02*
X114822295Y-143185952D01*
X115622295Y-142919285D02*
X115088961Y-142500237D01*
X115088961Y-142919285D02*
X115622295Y-142500237D01*
X115088961Y-142309761D02*
X115088961Y-142004999D01*
X114822295Y-142195475D02*
X115508009Y-142195475D01*
X115508009Y-142195475D02*
X115584200Y-142157380D01*
X115584200Y-142157380D02*
X115622295Y-142081190D01*
X115622295Y-142081190D02*
X115622295Y-142004999D01*
X115317533Y-141738332D02*
X115317533Y-141128809D01*
X115622295Y-140747856D02*
X114822295Y-140747856D01*
X114822295Y-140747856D02*
X114822295Y-140557380D01*
X114822295Y-140557380D02*
X114860390Y-140443094D01*
X114860390Y-140443094D02*
X114936580Y-140366904D01*
X114936580Y-140366904D02*
X115012771Y-140328809D01*
X115012771Y-140328809D02*
X115165152Y-140290713D01*
X115165152Y-140290713D02*
X115279438Y-140290713D01*
X115279438Y-140290713D02*
X115431819Y-140328809D01*
X115431819Y-140328809D02*
X115508009Y-140366904D01*
X115508009Y-140366904D02*
X115584200Y-140443094D01*
X115584200Y-140443094D02*
X115622295Y-140557380D01*
X115622295Y-140557380D02*
X115622295Y-140747856D01*
X115203247Y-139947856D02*
X115203247Y-139681190D01*
X115622295Y-139566904D02*
X115622295Y-139947856D01*
X115622295Y-139947856D02*
X114822295Y-139947856D01*
X114822295Y-139947856D02*
X114822295Y-139566904D01*
X115546104Y-138766903D02*
X115584200Y-138804999D01*
X115584200Y-138804999D02*
X115622295Y-138919284D01*
X115622295Y-138919284D02*
X115622295Y-138995475D01*
X115622295Y-138995475D02*
X115584200Y-139109761D01*
X115584200Y-139109761D02*
X115508009Y-139185951D01*
X115508009Y-139185951D02*
X115431819Y-139224046D01*
X115431819Y-139224046D02*
X115279438Y-139262142D01*
X115279438Y-139262142D02*
X115165152Y-139262142D01*
X115165152Y-139262142D02*
X115012771Y-139224046D01*
X115012771Y-139224046D02*
X114936580Y-139185951D01*
X114936580Y-139185951D02*
X114860390Y-139109761D01*
X114860390Y-139109761D02*
X114822295Y-138995475D01*
X114822295Y-138995475D02*
X114822295Y-138919284D01*
X114822295Y-138919284D02*
X114860390Y-138804999D01*
X114860390Y-138804999D02*
X114898485Y-138766903D01*
X115203247Y-138424046D02*
X115203247Y-138157380D01*
X115622295Y-138043094D02*
X115622295Y-138424046D01*
X115622295Y-138424046D02*
X114822295Y-138424046D01*
X114822295Y-138424046D02*
X114822295Y-138043094D01*
X115622295Y-137700236D02*
X114822295Y-137700236D01*
X114822295Y-137700236D02*
X115622295Y-137243093D01*
X115622295Y-137243093D02*
X114822295Y-137243093D01*
X114600200Y-140858333D02*
X114600200Y-137132618D01*
X86733333Y-70604819D02*
X86400000Y-70128628D01*
X86161905Y-70604819D02*
X86161905Y-69604819D01*
X86161905Y-69604819D02*
X86542857Y-69604819D01*
X86542857Y-69604819D02*
X86638095Y-69652438D01*
X86638095Y-69652438D02*
X86685714Y-69700057D01*
X86685714Y-69700057D02*
X86733333Y-69795295D01*
X86733333Y-69795295D02*
X86733333Y-69938152D01*
X86733333Y-69938152D02*
X86685714Y-70033390D01*
X86685714Y-70033390D02*
X86638095Y-70081009D01*
X86638095Y-70081009D02*
X86542857Y-70128628D01*
X86542857Y-70128628D02*
X86161905Y-70128628D01*
X87304762Y-70033390D02*
X87209524Y-69985771D01*
X87209524Y-69985771D02*
X87161905Y-69938152D01*
X87161905Y-69938152D02*
X87114286Y-69842914D01*
X87114286Y-69842914D02*
X87114286Y-69795295D01*
X87114286Y-69795295D02*
X87161905Y-69700057D01*
X87161905Y-69700057D02*
X87209524Y-69652438D01*
X87209524Y-69652438D02*
X87304762Y-69604819D01*
X87304762Y-69604819D02*
X87495238Y-69604819D01*
X87495238Y-69604819D02*
X87590476Y-69652438D01*
X87590476Y-69652438D02*
X87638095Y-69700057D01*
X87638095Y-69700057D02*
X87685714Y-69795295D01*
X87685714Y-69795295D02*
X87685714Y-69842914D01*
X87685714Y-69842914D02*
X87638095Y-69938152D01*
X87638095Y-69938152D02*
X87590476Y-69985771D01*
X87590476Y-69985771D02*
X87495238Y-70033390D01*
X87495238Y-70033390D02*
X87304762Y-70033390D01*
X87304762Y-70033390D02*
X87209524Y-70081009D01*
X87209524Y-70081009D02*
X87161905Y-70128628D01*
X87161905Y-70128628D02*
X87114286Y-70223866D01*
X87114286Y-70223866D02*
X87114286Y-70414342D01*
X87114286Y-70414342D02*
X87161905Y-70509580D01*
X87161905Y-70509580D02*
X87209524Y-70557200D01*
X87209524Y-70557200D02*
X87304762Y-70604819D01*
X87304762Y-70604819D02*
X87495238Y-70604819D01*
X87495238Y-70604819D02*
X87590476Y-70557200D01*
X87590476Y-70557200D02*
X87638095Y-70509580D01*
X87638095Y-70509580D02*
X87685714Y-70414342D01*
X87685714Y-70414342D02*
X87685714Y-70223866D01*
X87685714Y-70223866D02*
X87638095Y-70128628D01*
X87638095Y-70128628D02*
X87590476Y-70081009D01*
X87590476Y-70081009D02*
X87495238Y-70033390D01*
X122101905Y-69564819D02*
X122101905Y-68564819D01*
X122101905Y-68564819D02*
X122340000Y-68564819D01*
X122340000Y-68564819D02*
X122482857Y-68612438D01*
X122482857Y-68612438D02*
X122578095Y-68707676D01*
X122578095Y-68707676D02*
X122625714Y-68802914D01*
X122625714Y-68802914D02*
X122673333Y-68993390D01*
X122673333Y-68993390D02*
X122673333Y-69136247D01*
X122673333Y-69136247D02*
X122625714Y-69326723D01*
X122625714Y-69326723D02*
X122578095Y-69421961D01*
X122578095Y-69421961D02*
X122482857Y-69517200D01*
X122482857Y-69517200D02*
X122340000Y-69564819D01*
X122340000Y-69564819D02*
X122101905Y-69564819D01*
X123054286Y-68660057D02*
X123101905Y-68612438D01*
X123101905Y-68612438D02*
X123197143Y-68564819D01*
X123197143Y-68564819D02*
X123435238Y-68564819D01*
X123435238Y-68564819D02*
X123530476Y-68612438D01*
X123530476Y-68612438D02*
X123578095Y-68660057D01*
X123578095Y-68660057D02*
X123625714Y-68755295D01*
X123625714Y-68755295D02*
X123625714Y-68850533D01*
X123625714Y-68850533D02*
X123578095Y-68993390D01*
X123578095Y-68993390D02*
X123006667Y-69564819D01*
X123006667Y-69564819D02*
X123625714Y-69564819D01*
X114538095Y-69444819D02*
X114538095Y-68444819D01*
X115109523Y-69444819D02*
X114680952Y-68873390D01*
X115109523Y-68444819D02*
X114538095Y-69016247D01*
X83833333Y-109364819D02*
X83500000Y-108888628D01*
X83261905Y-109364819D02*
X83261905Y-108364819D01*
X83261905Y-108364819D02*
X83642857Y-108364819D01*
X83642857Y-108364819D02*
X83738095Y-108412438D01*
X83738095Y-108412438D02*
X83785714Y-108460057D01*
X83785714Y-108460057D02*
X83833333Y-108555295D01*
X83833333Y-108555295D02*
X83833333Y-108698152D01*
X83833333Y-108698152D02*
X83785714Y-108793390D01*
X83785714Y-108793390D02*
X83738095Y-108841009D01*
X83738095Y-108841009D02*
X83642857Y-108888628D01*
X83642857Y-108888628D02*
X83261905Y-108888628D01*
X84690476Y-108698152D02*
X84690476Y-109364819D01*
X84452381Y-108317200D02*
X84214286Y-109031485D01*
X84214286Y-109031485D02*
X84833333Y-109031485D01*
X83303333Y-82924819D02*
X82970000Y-82448628D01*
X82731905Y-82924819D02*
X82731905Y-81924819D01*
X82731905Y-81924819D02*
X83112857Y-81924819D01*
X83112857Y-81924819D02*
X83208095Y-81972438D01*
X83208095Y-81972438D02*
X83255714Y-82020057D01*
X83255714Y-82020057D02*
X83303333Y-82115295D01*
X83303333Y-82115295D02*
X83303333Y-82258152D01*
X83303333Y-82258152D02*
X83255714Y-82353390D01*
X83255714Y-82353390D02*
X83208095Y-82401009D01*
X83208095Y-82401009D02*
X83112857Y-82448628D01*
X83112857Y-82448628D02*
X82731905Y-82448628D01*
X83636667Y-81924819D02*
X84303333Y-81924819D01*
X84303333Y-81924819D02*
X83874762Y-82924819D01*
X138523333Y-106344819D02*
X138190000Y-105868628D01*
X137951905Y-106344819D02*
X137951905Y-105344819D01*
X137951905Y-105344819D02*
X138332857Y-105344819D01*
X138332857Y-105344819D02*
X138428095Y-105392438D01*
X138428095Y-105392438D02*
X138475714Y-105440057D01*
X138475714Y-105440057D02*
X138523333Y-105535295D01*
X138523333Y-105535295D02*
X138523333Y-105678152D01*
X138523333Y-105678152D02*
X138475714Y-105773390D01*
X138475714Y-105773390D02*
X138428095Y-105821009D01*
X138428095Y-105821009D02*
X138332857Y-105868628D01*
X138332857Y-105868628D02*
X137951905Y-105868628D01*
X138904286Y-105440057D02*
X138951905Y-105392438D01*
X138951905Y-105392438D02*
X139047143Y-105344819D01*
X139047143Y-105344819D02*
X139285238Y-105344819D01*
X139285238Y-105344819D02*
X139380476Y-105392438D01*
X139380476Y-105392438D02*
X139428095Y-105440057D01*
X139428095Y-105440057D02*
X139475714Y-105535295D01*
X139475714Y-105535295D02*
X139475714Y-105630533D01*
X139475714Y-105630533D02*
X139428095Y-105773390D01*
X139428095Y-105773390D02*
X138856667Y-106344819D01*
X138856667Y-106344819D02*
X139475714Y-106344819D01*
X146011666Y-76334819D02*
X146011666Y-77049104D01*
X146011666Y-77049104D02*
X145964047Y-77191961D01*
X145964047Y-77191961D02*
X145868809Y-77287200D01*
X145868809Y-77287200D02*
X145725952Y-77334819D01*
X145725952Y-77334819D02*
X145630714Y-77334819D01*
X147011666Y-77334819D02*
X146440238Y-77334819D01*
X146725952Y-77334819D02*
X146725952Y-76334819D01*
X146725952Y-76334819D02*
X146630714Y-76477676D01*
X146630714Y-76477676D02*
X146535476Y-76572914D01*
X146535476Y-76572914D02*
X146440238Y-76620533D01*
X115748095Y-116964819D02*
X115748095Y-117774342D01*
X115748095Y-117774342D02*
X115795714Y-117869580D01*
X115795714Y-117869580D02*
X115843333Y-117917200D01*
X115843333Y-117917200D02*
X115938571Y-117964819D01*
X115938571Y-117964819D02*
X116129047Y-117964819D01*
X116129047Y-117964819D02*
X116224285Y-117917200D01*
X116224285Y-117917200D02*
X116271904Y-117869580D01*
X116271904Y-117869580D02*
X116319523Y-117774342D01*
X116319523Y-117774342D02*
X116319523Y-116964819D01*
X117224285Y-117298152D02*
X117224285Y-117964819D01*
X116986190Y-116917200D02*
X116748095Y-117631485D01*
X116748095Y-117631485D02*
X117367142Y-117631485D01*
X131453333Y-144449580D02*
X131405714Y-144497200D01*
X131405714Y-144497200D02*
X131262857Y-144544819D01*
X131262857Y-144544819D02*
X131167619Y-144544819D01*
X131167619Y-144544819D02*
X131024762Y-144497200D01*
X131024762Y-144497200D02*
X130929524Y-144401961D01*
X130929524Y-144401961D02*
X130881905Y-144306723D01*
X130881905Y-144306723D02*
X130834286Y-144116247D01*
X130834286Y-144116247D02*
X130834286Y-143973390D01*
X130834286Y-143973390D02*
X130881905Y-143782914D01*
X130881905Y-143782914D02*
X130929524Y-143687676D01*
X130929524Y-143687676D02*
X131024762Y-143592438D01*
X131024762Y-143592438D02*
X131167619Y-143544819D01*
X131167619Y-143544819D02*
X131262857Y-143544819D01*
X131262857Y-143544819D02*
X131405714Y-143592438D01*
X131405714Y-143592438D02*
X131453333Y-143640057D01*
X132024762Y-143973390D02*
X131929524Y-143925771D01*
X131929524Y-143925771D02*
X131881905Y-143878152D01*
X131881905Y-143878152D02*
X131834286Y-143782914D01*
X131834286Y-143782914D02*
X131834286Y-143735295D01*
X131834286Y-143735295D02*
X131881905Y-143640057D01*
X131881905Y-143640057D02*
X131929524Y-143592438D01*
X131929524Y-143592438D02*
X132024762Y-143544819D01*
X132024762Y-143544819D02*
X132215238Y-143544819D01*
X132215238Y-143544819D02*
X132310476Y-143592438D01*
X132310476Y-143592438D02*
X132358095Y-143640057D01*
X132358095Y-143640057D02*
X132405714Y-143735295D01*
X132405714Y-143735295D02*
X132405714Y-143782914D01*
X132405714Y-143782914D02*
X132358095Y-143878152D01*
X132358095Y-143878152D02*
X132310476Y-143925771D01*
X132310476Y-143925771D02*
X132215238Y-143973390D01*
X132215238Y-143973390D02*
X132024762Y-143973390D01*
X132024762Y-143973390D02*
X131929524Y-144021009D01*
X131929524Y-144021009D02*
X131881905Y-144068628D01*
X131881905Y-144068628D02*
X131834286Y-144163866D01*
X131834286Y-144163866D02*
X131834286Y-144354342D01*
X131834286Y-144354342D02*
X131881905Y-144449580D01*
X131881905Y-144449580D02*
X131929524Y-144497200D01*
X131929524Y-144497200D02*
X132024762Y-144544819D01*
X132024762Y-144544819D02*
X132215238Y-144544819D01*
X132215238Y-144544819D02*
X132310476Y-144497200D01*
X132310476Y-144497200D02*
X132358095Y-144449580D01*
X132358095Y-144449580D02*
X132405714Y-144354342D01*
X132405714Y-144354342D02*
X132405714Y-144163866D01*
X132405714Y-144163866D02*
X132358095Y-144068628D01*
X132358095Y-144068628D02*
X132310476Y-144021009D01*
X132310476Y-144021009D02*
X132215238Y-143973390D01*
X86833333Y-109364819D02*
X86500000Y-108888628D01*
X86261905Y-109364819D02*
X86261905Y-108364819D01*
X86261905Y-108364819D02*
X86642857Y-108364819D01*
X86642857Y-108364819D02*
X86738095Y-108412438D01*
X86738095Y-108412438D02*
X86785714Y-108460057D01*
X86785714Y-108460057D02*
X86833333Y-108555295D01*
X86833333Y-108555295D02*
X86833333Y-108698152D01*
X86833333Y-108698152D02*
X86785714Y-108793390D01*
X86785714Y-108793390D02*
X86738095Y-108841009D01*
X86738095Y-108841009D02*
X86642857Y-108888628D01*
X86642857Y-108888628D02*
X86261905Y-108888628D01*
X87738095Y-108364819D02*
X87261905Y-108364819D01*
X87261905Y-108364819D02*
X87214286Y-108841009D01*
X87214286Y-108841009D02*
X87261905Y-108793390D01*
X87261905Y-108793390D02*
X87357143Y-108745771D01*
X87357143Y-108745771D02*
X87595238Y-108745771D01*
X87595238Y-108745771D02*
X87690476Y-108793390D01*
X87690476Y-108793390D02*
X87738095Y-108841009D01*
X87738095Y-108841009D02*
X87785714Y-108936247D01*
X87785714Y-108936247D02*
X87785714Y-109174342D01*
X87785714Y-109174342D02*
X87738095Y-109269580D01*
X87738095Y-109269580D02*
X87690476Y-109317200D01*
X87690476Y-109317200D02*
X87595238Y-109364819D01*
X87595238Y-109364819D02*
X87357143Y-109364819D01*
X87357143Y-109364819D02*
X87261905Y-109317200D01*
X87261905Y-109317200D02*
X87214286Y-109269580D01*
X86743333Y-82924819D02*
X86410000Y-82448628D01*
X86171905Y-82924819D02*
X86171905Y-81924819D01*
X86171905Y-81924819D02*
X86552857Y-81924819D01*
X86552857Y-81924819D02*
X86648095Y-81972438D01*
X86648095Y-81972438D02*
X86695714Y-82020057D01*
X86695714Y-82020057D02*
X86743333Y-82115295D01*
X86743333Y-82115295D02*
X86743333Y-82258152D01*
X86743333Y-82258152D02*
X86695714Y-82353390D01*
X86695714Y-82353390D02*
X86648095Y-82401009D01*
X86648095Y-82401009D02*
X86552857Y-82448628D01*
X86552857Y-82448628D02*
X86171905Y-82448628D01*
X87600476Y-81924819D02*
X87410000Y-81924819D01*
X87410000Y-81924819D02*
X87314762Y-81972438D01*
X87314762Y-81972438D02*
X87267143Y-82020057D01*
X87267143Y-82020057D02*
X87171905Y-82162914D01*
X87171905Y-82162914D02*
X87124286Y-82353390D01*
X87124286Y-82353390D02*
X87124286Y-82734342D01*
X87124286Y-82734342D02*
X87171905Y-82829580D01*
X87171905Y-82829580D02*
X87219524Y-82877200D01*
X87219524Y-82877200D02*
X87314762Y-82924819D01*
X87314762Y-82924819D02*
X87505238Y-82924819D01*
X87505238Y-82924819D02*
X87600476Y-82877200D01*
X87600476Y-82877200D02*
X87648095Y-82829580D01*
X87648095Y-82829580D02*
X87695714Y-82734342D01*
X87695714Y-82734342D02*
X87695714Y-82496247D01*
X87695714Y-82496247D02*
X87648095Y-82401009D01*
X87648095Y-82401009D02*
X87600476Y-82353390D01*
X87600476Y-82353390D02*
X87505238Y-82305771D01*
X87505238Y-82305771D02*
X87314762Y-82305771D01*
X87314762Y-82305771D02*
X87219524Y-82353390D01*
X87219524Y-82353390D02*
X87171905Y-82401009D01*
X87171905Y-82401009D02*
X87124286Y-82496247D01*
X86763333Y-95084819D02*
X86430000Y-94608628D01*
X86191905Y-95084819D02*
X86191905Y-94084819D01*
X86191905Y-94084819D02*
X86572857Y-94084819D01*
X86572857Y-94084819D02*
X86668095Y-94132438D01*
X86668095Y-94132438D02*
X86715714Y-94180057D01*
X86715714Y-94180057D02*
X86763333Y-94275295D01*
X86763333Y-94275295D02*
X86763333Y-94418152D01*
X86763333Y-94418152D02*
X86715714Y-94513390D01*
X86715714Y-94513390D02*
X86668095Y-94561009D01*
X86668095Y-94561009D02*
X86572857Y-94608628D01*
X86572857Y-94608628D02*
X86191905Y-94608628D01*
X87239524Y-95084819D02*
X87430000Y-95084819D01*
X87430000Y-95084819D02*
X87525238Y-95037200D01*
X87525238Y-95037200D02*
X87572857Y-94989580D01*
X87572857Y-94989580D02*
X87668095Y-94846723D01*
X87668095Y-94846723D02*
X87715714Y-94656247D01*
X87715714Y-94656247D02*
X87715714Y-94275295D01*
X87715714Y-94275295D02*
X87668095Y-94180057D01*
X87668095Y-94180057D02*
X87620476Y-94132438D01*
X87620476Y-94132438D02*
X87525238Y-94084819D01*
X87525238Y-94084819D02*
X87334762Y-94084819D01*
X87334762Y-94084819D02*
X87239524Y-94132438D01*
X87239524Y-94132438D02*
X87191905Y-94180057D01*
X87191905Y-94180057D02*
X87144286Y-94275295D01*
X87144286Y-94275295D02*
X87144286Y-94513390D01*
X87144286Y-94513390D02*
X87191905Y-94608628D01*
X87191905Y-94608628D02*
X87239524Y-94656247D01*
X87239524Y-94656247D02*
X87334762Y-94703866D01*
X87334762Y-94703866D02*
X87525238Y-94703866D01*
X87525238Y-94703866D02*
X87620476Y-94656247D01*
X87620476Y-94656247D02*
X87668095Y-94608628D01*
X87668095Y-94608628D02*
X87715714Y-94513390D01*
D12*
%TO.C,D1*%
X78340000Y-143486000D02*
X78340000Y-143330000D01*
X78340000Y-141170000D02*
X78340000Y-141014000D01*
X75107666Y-143328608D02*
G75*
G03*
X78339999Y-143485515I1672334J1078608D01*
G01*
X75738871Y-143329836D02*
G75*
G03*
X77820960Y-143329999I1041129J1079836D01*
G01*
X77820960Y-141170001D02*
G75*
G03*
X75738871Y-141170164I-1040960J-1079999D01*
G01*
X78339999Y-141014485D02*
G75*
G03*
X75107666Y-141171392I-1559999J-1235515D01*
G01*
%TO.C,R1*%
X88770000Y-143620000D02*
X82230000Y-143620000D01*
X88770000Y-143290000D02*
X88770000Y-143620000D01*
X88770000Y-141210000D02*
X88770000Y-140880000D01*
X88770000Y-140880000D02*
X82230000Y-140880000D01*
X82230000Y-143620000D02*
X82230000Y-143290000D01*
X82230000Y-140880000D02*
X82230000Y-141210000D01*
D13*
%TO.C,J4*%
X90165000Y-139540000D02*
X86775000Y-139540000D01*
X90165000Y-122540000D02*
X90165000Y-139540000D01*
D12*
X90105000Y-138370000D02*
X88775000Y-138370000D01*
X90105000Y-137040000D02*
X90105000Y-138370000D01*
X90105000Y-135770000D02*
X90105000Y-123010000D01*
X90105000Y-135770000D02*
X87445000Y-135770000D01*
X90105000Y-123010000D02*
X87445000Y-123010000D01*
X87445000Y-135770000D02*
X87445000Y-123010000D01*
D13*
X86775000Y-122540000D02*
X90165000Y-122540000D01*
X84775000Y-139540000D02*
X72165000Y-139540000D01*
X72165000Y-139540000D02*
X72165000Y-122540000D01*
X72165000Y-122540000D02*
X84775000Y-122540000D01*
D12*
%TO.C,U7*%
X90040000Y-68720000D02*
X90040000Y-69020000D01*
X90040000Y-68720000D02*
X111040000Y-68720000D01*
X90040000Y-71120000D02*
X90040000Y-71520000D01*
X90040000Y-71387000D02*
X93047000Y-71387000D01*
X90040000Y-73720000D02*
X90040000Y-74120000D01*
X90040000Y-76220000D02*
X90040000Y-76620000D01*
X90040000Y-78820000D02*
X90040000Y-79220000D01*
X90040000Y-81320000D02*
X90040000Y-81720000D01*
X90040000Y-83820000D02*
X90040000Y-84220000D01*
X90040000Y-86420000D02*
X90040000Y-86820000D01*
X90040000Y-88920000D02*
X90040000Y-89320000D01*
X90040000Y-91520000D02*
X90040000Y-91920000D01*
X90040000Y-94020000D02*
X90040000Y-94420000D01*
X90040000Y-96520000D02*
X90040000Y-96920000D01*
X90040000Y-99120000D02*
X90040000Y-99520000D01*
X90040000Y-101620000D02*
X90040000Y-102020000D01*
X90040000Y-104220000D02*
X90040000Y-104620000D01*
X90040000Y-106720000D02*
X90040000Y-107120000D01*
X90040000Y-109320000D02*
X90040000Y-109720000D01*
X90040000Y-111820000D02*
X90040000Y-112220000D01*
X90040000Y-114320000D02*
X90040000Y-114720000D01*
X93047000Y-71387000D02*
X93047000Y-68720000D01*
X96840000Y-119720000D02*
X90040000Y-119720000D01*
X99040000Y-119720000D02*
X99440000Y-119720000D01*
X101640000Y-119720000D02*
X102040000Y-119720000D01*
X111040000Y-68720000D02*
X111040000Y-69020000D01*
X111040000Y-71120000D02*
X111040000Y-71520000D01*
X111040000Y-73720000D02*
X111040000Y-74120000D01*
X111040000Y-76220000D02*
X111040000Y-76620000D01*
X111040000Y-78820000D02*
X111040000Y-79220000D01*
X111040000Y-81320000D02*
X111040000Y-81720000D01*
X111040000Y-83820000D02*
X111040000Y-84220000D01*
X111040000Y-86420000D02*
X111040000Y-86820000D01*
X111040000Y-88920000D02*
X111040000Y-89320000D01*
X111040000Y-91520000D02*
X111040000Y-91920000D01*
X111040000Y-94020000D02*
X111040000Y-94420000D01*
X111040000Y-96520000D02*
X111040000Y-96920000D01*
X111040000Y-99120000D02*
X111040000Y-99520000D01*
X111040000Y-101620000D02*
X111040000Y-102020000D01*
X111040000Y-104220000D02*
X111040000Y-104620000D01*
X111040000Y-106720000D02*
X111040000Y-107120000D01*
X111040000Y-109320000D02*
X111040000Y-109720000D01*
X111040000Y-111820000D02*
X111040000Y-112220000D01*
X111040000Y-114320000D02*
X111040000Y-114720000D01*
X111040000Y-116920000D02*
X111040000Y-117320000D01*
X111040000Y-119720000D02*
X104240000Y-119720000D01*
%TO.C,C3*%
X119010000Y-73540000D02*
X119010000Y-73855000D01*
X119010000Y-73540000D02*
X124250000Y-73540000D01*
X119010000Y-75965000D02*
X119010000Y-76280000D01*
X119010000Y-76280000D02*
X124250000Y-76280000D01*
X124250000Y-73540000D02*
X124250000Y-73855000D01*
X124250000Y-75965000D02*
X124250000Y-76280000D01*
%TO.C,J6*%
X120460000Y-140370000D02*
X121790000Y-140370000D01*
X120460000Y-141700000D02*
X120460000Y-140370000D01*
X120460000Y-142970000D02*
X120460000Y-143030000D01*
X120460000Y-142970000D02*
X123120000Y-142970000D01*
X120460000Y-143030000D02*
X123120000Y-143030000D01*
X123120000Y-142970000D02*
X123120000Y-143030000D01*
D14*
%TO.C,J5*%
X73280000Y-114880000D02*
X75030000Y-114880000D01*
X75030000Y-105430000D02*
X75030000Y-106580000D01*
X75030000Y-106580000D02*
X73280000Y-106580000D01*
X75030000Y-114880000D02*
X75030000Y-116030000D01*
X75030000Y-116030000D02*
X78130000Y-116030000D01*
X78230000Y-105430000D02*
X75030000Y-105430000D01*
X81530000Y-109830000D02*
X81530000Y-107330000D01*
X81530000Y-114080000D02*
X81530000Y-111530000D01*
D15*
X83280000Y-105530000D02*
G75*
G03*
X82880000Y-105530000I-200000J0D01*
G01*
X82880000Y-105530000D02*
G75*
G03*
X83280000Y-105530000I200000J0D01*
G01*
D12*
%TO.C,R3*%
X115140000Y-111860000D02*
X115140000Y-105320000D01*
X115470000Y-111860000D02*
X115140000Y-111860000D01*
X117550000Y-111860000D02*
X117880000Y-111860000D01*
X117880000Y-111860000D02*
X117880000Y-105320000D01*
X115140000Y-105320000D02*
X115470000Y-105320000D01*
X117880000Y-105320000D02*
X117550000Y-105320000D01*
%TO.C,U5*%
X113420000Y-140150000D02*
X113420000Y-122130000D01*
X113420000Y-122130000D02*
X103140000Y-122130000D01*
X110930000Y-140090000D02*
X110930000Y-122190000D01*
X110930000Y-122190000D02*
X105630000Y-122190000D01*
X109280000Y-140090000D02*
X110930000Y-140090000D01*
X105630000Y-140090000D02*
X107280000Y-140090000D01*
X105630000Y-122190000D02*
X105630000Y-140090000D01*
X103140000Y-140150000D02*
X113420000Y-140150000D01*
X103140000Y-122130000D02*
X103140000Y-140150000D01*
X109280000Y-140090000D02*
G75*
G03*
X107280000Y-140090000I-1000000J0D01*
G01*
%TO.C,C6*%
X98620000Y-143620000D02*
X98620000Y-143305000D01*
X98620000Y-143620000D02*
X93380000Y-143620000D01*
X98620000Y-141195000D02*
X98620000Y-140880000D01*
X98620000Y-140880000D02*
X93380000Y-140880000D01*
X93380000Y-143620000D02*
X93380000Y-143305000D01*
X93380000Y-141195000D02*
X93380000Y-140880000D01*
%TO.C,C5*%
X109590000Y-143620000D02*
X109590000Y-143305000D01*
X109590000Y-143620000D02*
X104350000Y-143620000D01*
X109590000Y-141195000D02*
X109590000Y-140880000D01*
X109590000Y-140880000D02*
X104350000Y-140880000D01*
X104350000Y-143620000D02*
X104350000Y-143305000D01*
X104350000Y-141195000D02*
X104350000Y-140880000D01*
%TO.C,C4*%
X119010000Y-115070000D02*
X119010000Y-115385000D01*
X119010000Y-115070000D02*
X124250000Y-115070000D01*
X119010000Y-117495000D02*
X119010000Y-117810000D01*
X119010000Y-117810000D02*
X124250000Y-117810000D01*
X124250000Y-115070000D02*
X124250000Y-115385000D01*
X124250000Y-117495000D02*
X124250000Y-117810000D01*
%TO.C,SW1*%
X122210000Y-111730000D02*
X123710000Y-111730000D01*
X126210000Y-110480000D02*
X126210000Y-105980000D01*
X119710000Y-105980000D02*
X119710000Y-110480000D01*
X123710000Y-104730000D02*
X122210000Y-104730000D01*
%TO.C,R10*%
X84830000Y-72620000D02*
X84830000Y-79160000D01*
X84500000Y-72620000D02*
X84830000Y-72620000D01*
X82420000Y-72620000D02*
X82090000Y-72620000D01*
X82090000Y-72620000D02*
X82090000Y-79160000D01*
X84830000Y-79160000D02*
X84500000Y-79160000D01*
X82090000Y-79160000D02*
X82420000Y-79160000D01*
%TO.C,U2*%
X127470000Y-110830000D02*
X127470000Y-136470000D01*
X127470000Y-136470000D02*
X137750000Y-136470000D01*
X129960000Y-110890000D02*
X129960000Y-136410000D01*
X129960000Y-136410000D02*
X135260000Y-136410000D01*
X131610000Y-110890000D02*
X129960000Y-110890000D01*
X135260000Y-110890000D02*
X133610000Y-110890000D01*
X135260000Y-136410000D02*
X135260000Y-110890000D01*
X137750000Y-110830000D02*
X127470000Y-110830000D01*
X137750000Y-136470000D02*
X137750000Y-110830000D01*
X131610000Y-110890000D02*
G75*
G03*
X133610000Y-110890000I1000000J0D01*
G01*
%TO.C,C2*%
X131300000Y-107450000D02*
X131300000Y-107765000D01*
X131300000Y-107450000D02*
X136540000Y-107450000D01*
X131300000Y-109875000D02*
X131300000Y-110190000D01*
X131300000Y-110190000D02*
X136540000Y-110190000D01*
X136540000Y-107450000D02*
X136540000Y-107765000D01*
X136540000Y-109875000D02*
X136540000Y-110190000D01*
%TO.C,J3*%
X81030000Y-70805000D02*
X81030000Y-101775000D01*
X72430000Y-70805000D02*
X81030000Y-70805000D01*
X81924338Y-90355000D02*
X81924338Y-90855000D01*
X81491325Y-90605000D02*
X81924338Y-90355000D01*
X81924338Y-90855000D02*
X81491325Y-90605000D01*
X81030000Y-101775000D02*
X72430000Y-101775000D01*
%TO.C,U6*%
X102450000Y-140150000D02*
X102450000Y-122130000D01*
X102450000Y-122130000D02*
X92170000Y-122130000D01*
X99960000Y-140090000D02*
X99960000Y-122190000D01*
X99960000Y-122190000D02*
X94660000Y-122190000D01*
X98310000Y-140090000D02*
X99960000Y-140090000D01*
X94660000Y-140090000D02*
X96310000Y-140090000D01*
X94660000Y-122190000D02*
X94660000Y-140090000D01*
X92170000Y-140150000D02*
X102450000Y-140150000D01*
X92170000Y-122130000D02*
X92170000Y-140150000D01*
X98310000Y-140090000D02*
G75*
G03*
X96310000Y-140090000I-1000000J0D01*
G01*
%TO.C,C7*%
X139480000Y-135430000D02*
X139480000Y-135745000D01*
X139480000Y-135430000D02*
X144720000Y-135430000D01*
X139480000Y-137855000D02*
X139480000Y-138170000D01*
X139480000Y-138170000D02*
X144720000Y-138170000D01*
X144720000Y-135430000D02*
X144720000Y-135745000D01*
X144720000Y-137855000D02*
X144720000Y-138170000D01*
%TO.C,U1*%
X127470000Y-76920000D02*
X127470000Y-102560000D01*
X127470000Y-102560000D02*
X137750000Y-102560000D01*
X129960000Y-76980000D02*
X129960000Y-102500000D01*
X129960000Y-102500000D02*
X135260000Y-102500000D01*
X131610000Y-76980000D02*
X129960000Y-76980000D01*
X135260000Y-76980000D02*
X133610000Y-76980000D01*
X135260000Y-102500000D02*
X135260000Y-76980000D01*
X137750000Y-76920000D02*
X127470000Y-76920000D01*
X137750000Y-102560000D02*
X137750000Y-76920000D01*
X131610000Y-76980000D02*
G75*
G03*
X133610000Y-76980000I1000000J0D01*
G01*
%TO.C,U3*%
X115180000Y-76920000D02*
X115180000Y-102560000D01*
X115180000Y-102560000D02*
X125460000Y-102560000D01*
X117670000Y-76980000D02*
X117670000Y-102500000D01*
X117670000Y-102500000D02*
X122970000Y-102500000D01*
X119320000Y-76980000D02*
X117670000Y-76980000D01*
X122970000Y-76980000D02*
X121320000Y-76980000D01*
X122970000Y-102500000D02*
X122970000Y-76980000D01*
X125460000Y-76920000D02*
X115180000Y-76920000D01*
X125460000Y-102560000D02*
X125460000Y-76920000D01*
X119320000Y-76980000D02*
G75*
G03*
X121320000Y-76980000I1000000J0D01*
G01*
%TO.C,C1*%
X131300000Y-73540000D02*
X131300000Y-73855000D01*
X131300000Y-73540000D02*
X136540000Y-73540000D01*
X131300000Y-75965000D02*
X131300000Y-76280000D01*
X131300000Y-76280000D02*
X136540000Y-76280000D01*
X136540000Y-73540000D02*
X136540000Y-73855000D01*
X136540000Y-75965000D02*
X136540000Y-76280000D01*
%TO.C,J2*%
X119520000Y-143030000D02*
X118190000Y-143030000D01*
X119520000Y-141700000D02*
X119520000Y-143030000D01*
X119520000Y-140430000D02*
X119520000Y-137830000D01*
X119520000Y-140430000D02*
X116860000Y-140430000D01*
X119520000Y-137830000D02*
X116860000Y-137830000D01*
X116860000Y-140430000D02*
X116860000Y-137830000D01*
%TO.C,R8*%
X88270000Y-72620000D02*
X88270000Y-79160000D01*
X87940000Y-72620000D02*
X88270000Y-72620000D01*
X85860000Y-72620000D02*
X85530000Y-72620000D01*
X85530000Y-72620000D02*
X85530000Y-79160000D01*
X88270000Y-79160000D02*
X87940000Y-79160000D01*
X85530000Y-79160000D02*
X85860000Y-79160000D01*
%TO.C,D2*%
X115890000Y-69620000D02*
X121330000Y-69620000D01*
X115890000Y-69750000D02*
X115890000Y-69620000D01*
X115890000Y-72430000D02*
X115890000Y-72560000D01*
X115890000Y-72560000D02*
X121330000Y-72560000D01*
X116670000Y-69620000D02*
X116670000Y-72560000D01*
X116790000Y-69620000D02*
X116790000Y-72560000D01*
X116910000Y-69620000D02*
X116910000Y-72560000D01*
X121330000Y-69620000D02*
X121330000Y-69750000D01*
X121330000Y-72560000D02*
X121330000Y-72430000D01*
%TO.C,R4*%
X85370000Y-111270000D02*
X85370000Y-117810000D01*
X85040000Y-111270000D02*
X85370000Y-111270000D01*
X82960000Y-111270000D02*
X82630000Y-111270000D01*
X82630000Y-111270000D02*
X82630000Y-117810000D01*
X85370000Y-117810000D02*
X85040000Y-117810000D01*
X82630000Y-117810000D02*
X82960000Y-117810000D01*
%TO.C,R7*%
X84830000Y-84870000D02*
X84830000Y-91410000D01*
X84500000Y-84870000D02*
X84830000Y-84870000D01*
X82420000Y-84870000D02*
X82090000Y-84870000D01*
X82090000Y-84870000D02*
X82090000Y-91410000D01*
X84830000Y-91410000D02*
X84500000Y-91410000D01*
X82090000Y-91410000D02*
X82420000Y-91410000D01*
%TO.C,R2*%
X129340000Y-103610000D02*
X135880000Y-103610000D01*
X129340000Y-103940000D02*
X129340000Y-103610000D01*
X129340000Y-106020000D02*
X129340000Y-106350000D01*
X129340000Y-106350000D02*
X135880000Y-106350000D01*
X135880000Y-103610000D02*
X135880000Y-103940000D01*
X135880000Y-106350000D02*
X135880000Y-106020000D01*
%TO.C,J1*%
X139420000Y-78640000D02*
X140690000Y-78640000D01*
X139420000Y-79910000D02*
X139420000Y-78640000D01*
X141732929Y-82070000D02*
X142187071Y-82070000D01*
X141732929Y-82830000D02*
X142187071Y-82830000D01*
X141732929Y-84610000D02*
X142187071Y-84610000D01*
X141732929Y-85370000D02*
X142187071Y-85370000D01*
X141732929Y-87150000D02*
X142187071Y-87150000D01*
X141732929Y-87910000D02*
X142187071Y-87910000D01*
X141732929Y-89690000D02*
X142187071Y-89690000D01*
X141732929Y-90450000D02*
X142187071Y-90450000D01*
X141732929Y-92230000D02*
X142187071Y-92230000D01*
X141732929Y-92990000D02*
X142187071Y-92990000D01*
X141732929Y-94770000D02*
X142187071Y-94770000D01*
X141732929Y-95530000D02*
X142187071Y-95530000D01*
X141732929Y-97310000D02*
X142187071Y-97310000D01*
X141732929Y-98070000D02*
X142187071Y-98070000D01*
X141732929Y-99850000D02*
X142187071Y-99850000D01*
X141732929Y-100610000D02*
X142187071Y-100610000D01*
X141732929Y-102390000D02*
X142187071Y-102390000D01*
X141732929Y-103150000D02*
X142187071Y-103150000D01*
X141732929Y-104930000D02*
X142187071Y-104930000D01*
X141732929Y-105690000D02*
X142187071Y-105690000D01*
X141732929Y-107470000D02*
X142187071Y-107470000D01*
X141732929Y-108230000D02*
X142187071Y-108230000D01*
X141732929Y-110010000D02*
X142187071Y-110010000D01*
X141732929Y-110770000D02*
X142187071Y-110770000D01*
X141732929Y-112550000D02*
X142187071Y-112550000D01*
X141732929Y-113310000D02*
X142187071Y-113310000D01*
X141732929Y-115090000D02*
X142187071Y-115090000D01*
X141732929Y-115850000D02*
X142187071Y-115850000D01*
X141732929Y-117630000D02*
X142187071Y-117630000D01*
X141732929Y-118390000D02*
X142187071Y-118390000D01*
X141732929Y-120170000D02*
X142187071Y-120170000D01*
X141732929Y-120930000D02*
X142187071Y-120930000D01*
X141732929Y-122710000D02*
X142187071Y-122710000D01*
X141732929Y-123470000D02*
X142187071Y-123470000D01*
X141732929Y-125250000D02*
X142187071Y-125250000D01*
X141732929Y-126010000D02*
X142187071Y-126010000D01*
X141732929Y-127790000D02*
X142187071Y-127790000D01*
X141732929Y-128550000D02*
X142187071Y-128550000D01*
X141732929Y-130330000D02*
X142187071Y-130330000D01*
X141732929Y-131090000D02*
X142187071Y-131090000D01*
X141732929Y-132870000D02*
X142187071Y-132870000D01*
X141732929Y-133630000D02*
X142187071Y-133630000D01*
X141800000Y-79530000D02*
X142187071Y-79530000D01*
X141800000Y-80290000D02*
X142187071Y-80290000D01*
X144272929Y-79530000D02*
X144670000Y-79530000D01*
X144272929Y-80290000D02*
X144670000Y-80290000D01*
X144272929Y-82070000D02*
X144670000Y-82070000D01*
X144272929Y-82830000D02*
X144670000Y-82830000D01*
X144272929Y-84610000D02*
X144670000Y-84610000D01*
X144272929Y-85370000D02*
X144670000Y-85370000D01*
X144272929Y-87150000D02*
X144670000Y-87150000D01*
X144272929Y-87910000D02*
X144670000Y-87910000D01*
X144272929Y-89690000D02*
X144670000Y-89690000D01*
X144272929Y-90450000D02*
X144670000Y-90450000D01*
X144272929Y-92230000D02*
X144670000Y-92230000D01*
X144272929Y-92990000D02*
X144670000Y-92990000D01*
X144272929Y-94770000D02*
X144670000Y-94770000D01*
X144272929Y-95530000D02*
X144670000Y-95530000D01*
X144272929Y-97310000D02*
X144670000Y-97310000D01*
X144272929Y-98070000D02*
X144670000Y-98070000D01*
X144272929Y-99850000D02*
X144670000Y-99850000D01*
X144272929Y-100610000D02*
X144670000Y-100610000D01*
X144272929Y-102390000D02*
X144670000Y-102390000D01*
X144272929Y-103150000D02*
X144670000Y-103150000D01*
X144272929Y-104930000D02*
X144670000Y-104930000D01*
X144272929Y-105690000D02*
X144670000Y-105690000D01*
X144272929Y-107470000D02*
X144670000Y-107470000D01*
X144272929Y-108230000D02*
X144670000Y-108230000D01*
X144272929Y-110010000D02*
X144670000Y-110010000D01*
X144272929Y-110770000D02*
X144670000Y-110770000D01*
X144272929Y-112550000D02*
X144670000Y-112550000D01*
X144272929Y-113310000D02*
X144670000Y-113310000D01*
X144272929Y-115090000D02*
X144670000Y-115090000D01*
X144272929Y-115850000D02*
X144670000Y-115850000D01*
X144272929Y-117630000D02*
X144670000Y-117630000D01*
X144272929Y-118390000D02*
X144670000Y-118390000D01*
X144272929Y-120170000D02*
X144670000Y-120170000D01*
X144272929Y-120930000D02*
X144670000Y-120930000D01*
X144272929Y-122710000D02*
X144670000Y-122710000D01*
X144272929Y-123470000D02*
X144670000Y-123470000D01*
X144272929Y-125250000D02*
X144670000Y-125250000D01*
X144272929Y-126010000D02*
X144670000Y-126010000D01*
X144272929Y-127790000D02*
X144670000Y-127790000D01*
X144272929Y-128550000D02*
X144670000Y-128550000D01*
X144272929Y-130330000D02*
X144670000Y-130330000D01*
X144272929Y-131090000D02*
X144670000Y-131090000D01*
X144272929Y-132870000D02*
X144670000Y-132870000D01*
X144272929Y-133630000D02*
X144670000Y-133630000D01*
X144670000Y-78580000D02*
X144670000Y-134580000D01*
X144670000Y-81180000D02*
X147330000Y-81180000D01*
X144670000Y-83720000D02*
X147330000Y-83720000D01*
X144670000Y-86260000D02*
X147330000Y-86260000D01*
X144670000Y-88800000D02*
X147330000Y-88800000D01*
X144670000Y-91340000D02*
X147330000Y-91340000D01*
X144670000Y-93880000D02*
X147330000Y-93880000D01*
X144670000Y-96420000D02*
X147330000Y-96420000D01*
X144670000Y-98960000D02*
X147330000Y-98960000D01*
X144670000Y-101500000D02*
X147330000Y-101500000D01*
X144670000Y-104040000D02*
X147330000Y-104040000D01*
X144670000Y-106580000D02*
X147330000Y-106580000D01*
X144670000Y-109120000D02*
X147330000Y-109120000D01*
X144670000Y-111660000D02*
X147330000Y-111660000D01*
X144670000Y-114200000D02*
X147330000Y-114200000D01*
X144670000Y-116740000D02*
X147330000Y-116740000D01*
X144670000Y-119280000D02*
X147330000Y-119280000D01*
X144670000Y-121820000D02*
X147330000Y-121820000D01*
X144670000Y-124360000D02*
X147330000Y-124360000D01*
X144670000Y-126900000D02*
X147330000Y-126900000D01*
X144670000Y-129440000D02*
X147330000Y-129440000D01*
X144670000Y-131980000D02*
X147330000Y-131980000D01*
X144670000Y-134580000D02*
X147330000Y-134580000D01*
X147330000Y-78580000D02*
X144670000Y-78580000D01*
X147330000Y-79530000D02*
X153330000Y-79530000D01*
X147330000Y-79590000D02*
X153330000Y-79590000D01*
X147330000Y-79710000D02*
X153330000Y-79710000D01*
X147330000Y-79830000D02*
X153330000Y-79830000D01*
X147330000Y-79950000D02*
X153330000Y-79950000D01*
X147330000Y-80070000D02*
X153330000Y-80070000D01*
X147330000Y-80190000D02*
X153330000Y-80190000D01*
X147330000Y-82070000D02*
X153330000Y-82070000D01*
X147330000Y-84610000D02*
X153330000Y-84610000D01*
X147330000Y-87150000D02*
X153330000Y-87150000D01*
X147330000Y-89690000D02*
X153330000Y-89690000D01*
X147330000Y-92230000D02*
X153330000Y-92230000D01*
X147330000Y-94770000D02*
X153330000Y-94770000D01*
X147330000Y-97310000D02*
X153330000Y-97310000D01*
X147330000Y-99850000D02*
X153330000Y-99850000D01*
X147330000Y-102390000D02*
X153330000Y-102390000D01*
X147330000Y-104930000D02*
X153330000Y-104930000D01*
X147330000Y-107470000D02*
X153330000Y-107470000D01*
X147330000Y-110010000D02*
X153330000Y-110010000D01*
X147330000Y-112550000D02*
X153330000Y-112550000D01*
X147330000Y-115090000D02*
X153330000Y-115090000D01*
X147330000Y-117630000D02*
X153330000Y-117630000D01*
X147330000Y-120170000D02*
X153330000Y-120170000D01*
X147330000Y-122710000D02*
X153330000Y-122710000D01*
X147330000Y-125250000D02*
X153330000Y-125250000D01*
X147330000Y-127790000D02*
X153330000Y-127790000D01*
X147330000Y-130330000D02*
X153330000Y-130330000D01*
X147330000Y-132870000D02*
X153330000Y-132870000D01*
X147330000Y-134580000D02*
X147330000Y-78580000D01*
X153330000Y-79530000D02*
X153330000Y-80290000D01*
X153330000Y-80290000D02*
X147330000Y-80290000D01*
X153330000Y-82070000D02*
X153330000Y-82830000D01*
X153330000Y-82830000D02*
X147330000Y-82830000D01*
X153330000Y-84610000D02*
X153330000Y-85370000D01*
X153330000Y-85370000D02*
X147330000Y-85370000D01*
X153330000Y-87150000D02*
X153330000Y-87910000D01*
X153330000Y-87910000D02*
X147330000Y-87910000D01*
X153330000Y-89690000D02*
X153330000Y-90450000D01*
X153330000Y-90450000D02*
X147330000Y-90450000D01*
X153330000Y-92230000D02*
X153330000Y-92990000D01*
X153330000Y-92990000D02*
X147330000Y-92990000D01*
X153330000Y-94770000D02*
X153330000Y-95530000D01*
X153330000Y-95530000D02*
X147330000Y-95530000D01*
X153330000Y-97310000D02*
X153330000Y-98070000D01*
X153330000Y-98070000D02*
X147330000Y-98070000D01*
X153330000Y-99850000D02*
X153330000Y-100610000D01*
X153330000Y-100610000D02*
X147330000Y-100610000D01*
X153330000Y-102390000D02*
X153330000Y-103150000D01*
X153330000Y-103150000D02*
X147330000Y-103150000D01*
X153330000Y-104930000D02*
X153330000Y-105690000D01*
X153330000Y-105690000D02*
X147330000Y-105690000D01*
X153330000Y-107470000D02*
X153330000Y-108230000D01*
X153330000Y-108230000D02*
X147330000Y-108230000D01*
X153330000Y-110010000D02*
X153330000Y-110770000D01*
X153330000Y-110770000D02*
X147330000Y-110770000D01*
X153330000Y-112550000D02*
X153330000Y-113310000D01*
X153330000Y-113310000D02*
X147330000Y-113310000D01*
X153330000Y-115090000D02*
X153330000Y-115850000D01*
X153330000Y-115850000D02*
X147330000Y-115850000D01*
X153330000Y-117630000D02*
X153330000Y-118390000D01*
X153330000Y-118390000D02*
X147330000Y-118390000D01*
X153330000Y-120170000D02*
X153330000Y-120930000D01*
X153330000Y-120930000D02*
X147330000Y-120930000D01*
X153330000Y-122710000D02*
X153330000Y-123470000D01*
X153330000Y-123470000D02*
X147330000Y-123470000D01*
X153330000Y-125250000D02*
X153330000Y-126010000D01*
X153330000Y-126010000D02*
X147330000Y-126010000D01*
X153330000Y-127790000D02*
X153330000Y-128550000D01*
X153330000Y-128550000D02*
X147330000Y-128550000D01*
X153330000Y-130330000D02*
X153330000Y-131090000D01*
X153330000Y-131090000D02*
X147330000Y-131090000D01*
X153330000Y-132870000D02*
X153330000Y-133630000D01*
X153330000Y-133630000D02*
X147330000Y-133630000D01*
%TO.C,U4*%
X115180000Y-118450000D02*
X115180000Y-136470000D01*
X115180000Y-136470000D02*
X125460000Y-136470000D01*
X117670000Y-118510000D02*
X117670000Y-136410000D01*
X117670000Y-136410000D02*
X122970000Y-136410000D01*
X119320000Y-118510000D02*
X117670000Y-118510000D01*
X122970000Y-118510000D02*
X121320000Y-118510000D01*
X122970000Y-136410000D02*
X122970000Y-118510000D01*
X125460000Y-118450000D02*
X115180000Y-118450000D01*
X125460000Y-136470000D02*
X125460000Y-118450000D01*
X119320000Y-118510000D02*
G75*
G03*
X121320000Y-118510000I1000000J0D01*
G01*
%TO.C,C8*%
X146010000Y-143840000D02*
X144510000Y-143840000D01*
X145400000Y-141640000D02*
X144260000Y-141640000D01*
X145260000Y-144590000D02*
X145260000Y-143090000D01*
X144260000Y-144760000D02*
X144260000Y-138520000D01*
X144260000Y-144760000D02*
X142760000Y-144760000D01*
X144260000Y-138520000D02*
X142760000Y-138520000D01*
X142760000Y-144760000D02*
X142010000Y-144010000D01*
X142760000Y-138520000D02*
X142010000Y-139270000D01*
X142010000Y-144010000D02*
X141260000Y-144760000D01*
X142010000Y-139270000D02*
X141260000Y-138520000D01*
X141260000Y-144760000D02*
X134020000Y-144760000D01*
X141260000Y-138520000D02*
X134020000Y-138520000D01*
X134020000Y-144760000D02*
X134020000Y-138520000D01*
X132880000Y-141640000D02*
X134020000Y-141640000D01*
%TO.C,R5*%
X88370000Y-111270000D02*
X88370000Y-117810000D01*
X88040000Y-111270000D02*
X88370000Y-111270000D01*
X85960000Y-111270000D02*
X85630000Y-111270000D01*
X85630000Y-111270000D02*
X85630000Y-117810000D01*
X88370000Y-117810000D02*
X88040000Y-117810000D01*
X85630000Y-117810000D02*
X85960000Y-117810000D01*
%TO.C,R6*%
X88270000Y-84890000D02*
X88270000Y-91430000D01*
X87940000Y-84890000D02*
X88270000Y-84890000D01*
X85860000Y-84890000D02*
X85530000Y-84890000D01*
X85530000Y-84890000D02*
X85530000Y-91430000D01*
X88270000Y-91430000D02*
X87940000Y-91430000D01*
X85530000Y-91430000D02*
X85860000Y-91430000D01*
%TO.C,R9*%
X88270000Y-97030000D02*
X88270000Y-103570000D01*
X87940000Y-97030000D02*
X88270000Y-97030000D01*
X85860000Y-97030000D02*
X85530000Y-97030000D01*
X85530000Y-97030000D02*
X85530000Y-103570000D01*
X88270000Y-103570000D02*
X87940000Y-103570000D01*
X85530000Y-103570000D02*
X85860000Y-103570000D01*
%TD*%
%LPC*%
D16*
%TO.C,D1*%
X78050000Y-142250000D03*
D17*
X75510000Y-142250000D03*
%TD*%
D18*
%TO.C,R1*%
X89310000Y-142250000D03*
D19*
X81690000Y-142250000D03*
%TD*%
D20*
%TO.C,J4*%
X85775000Y-138340000D03*
X85775000Y-123740000D03*
D21*
X88775000Y-137040000D03*
D22*
X88775000Y-134500000D03*
X88775000Y-131960000D03*
X88775000Y-129420000D03*
X88775000Y-126880000D03*
X88775000Y-124340000D03*
%TD*%
D23*
%TO.C,U7*%
X97815000Y-70220000D03*
D24*
X98115000Y-73250000D03*
X102965000Y-73250000D03*
D23*
X103265000Y-70220000D03*
D19*
X91650000Y-70090000D03*
D25*
X90750000Y-70090000D03*
D19*
X91650000Y-72630000D03*
D25*
X90750000Y-72630000D03*
D26*
X91650000Y-75170000D03*
D25*
X90750000Y-75170000D03*
D19*
X91650000Y-77710000D03*
D25*
X90750000Y-77710000D03*
D19*
X91650000Y-80250000D03*
D25*
X90750000Y-80250000D03*
D19*
X91650000Y-82790000D03*
D25*
X90750000Y-82790000D03*
D19*
X91650000Y-85330000D03*
D25*
X90750000Y-85330000D03*
D26*
X91650000Y-87870000D03*
D25*
X90750000Y-87870000D03*
D19*
X91650000Y-90410000D03*
D25*
X90750000Y-90410000D03*
D19*
X91650000Y-92950000D03*
D25*
X90750000Y-92950000D03*
D19*
X91650000Y-95490000D03*
D25*
X90750000Y-95490000D03*
D19*
X91650000Y-98030000D03*
D25*
X90750000Y-98030000D03*
D26*
X91650000Y-100570000D03*
D25*
X90750000Y-100570000D03*
D19*
X91650000Y-103110000D03*
D25*
X90750000Y-103110000D03*
D19*
X91650000Y-105650000D03*
D25*
X90750000Y-105650000D03*
D19*
X91650000Y-108190000D03*
D25*
X90750000Y-108190000D03*
D19*
X91650000Y-110730000D03*
D25*
X90750000Y-110730000D03*
D26*
X91650000Y-113270000D03*
D25*
X90750000Y-113270000D03*
D19*
X91650000Y-115810000D03*
D25*
X90750000Y-115810000D03*
D19*
X91650000Y-118350000D03*
D25*
X90750000Y-118350000D03*
D19*
X109430000Y-118350000D03*
D25*
X110330000Y-118350000D03*
D19*
X109430000Y-115810000D03*
D25*
X110330000Y-115810000D03*
D26*
X109430000Y-113270000D03*
D25*
X110330000Y-113270000D03*
D19*
X109430000Y-110730000D03*
D25*
X110330000Y-110730000D03*
D19*
X109430000Y-108190000D03*
D25*
X110330000Y-108190000D03*
D19*
X109430000Y-105650000D03*
D25*
X110330000Y-105650000D03*
D19*
X109430000Y-103110000D03*
D25*
X110330000Y-103110000D03*
D26*
X109430000Y-100570000D03*
D25*
X110330000Y-100570000D03*
D19*
X109430000Y-98030000D03*
D25*
X110330000Y-98030000D03*
D19*
X109430000Y-95490000D03*
D25*
X110330000Y-95490000D03*
D19*
X109430000Y-92950000D03*
D25*
X110330000Y-92950000D03*
D19*
X109430000Y-90410000D03*
D25*
X110330000Y-90410000D03*
D26*
X109430000Y-87870000D03*
D25*
X110330000Y-87870000D03*
D19*
X109430000Y-85330000D03*
D25*
X110330000Y-85330000D03*
D19*
X109430000Y-82790000D03*
D25*
X110330000Y-82790000D03*
D19*
X109430000Y-80250000D03*
D25*
X110330000Y-80250000D03*
D19*
X109430000Y-77710000D03*
D25*
X110330000Y-77710000D03*
D26*
X109430000Y-75170000D03*
D25*
X110330000Y-75170000D03*
D19*
X109430000Y-72630000D03*
D25*
X110330000Y-72630000D03*
D19*
X109430000Y-70090000D03*
D25*
X110330000Y-70090000D03*
%TD*%
D18*
%TO.C,C3*%
X119130000Y-74910000D03*
X124130000Y-74910000D03*
%TD*%
D21*
%TO.C,J6*%
X121790000Y-141700000D03*
%TD*%
D27*
%TO.C,J5*%
X80230000Y-110730000D03*
D28*
X75730000Y-110730000D03*
X80230000Y-105730000D03*
X80230000Y-115730000D03*
%TD*%
D18*
%TO.C,R3*%
X116510000Y-112400000D03*
D19*
X116510000Y-104780000D03*
%TD*%
D26*
%TO.C,U5*%
X112090000Y-138760000D03*
D19*
X112090000Y-136220000D03*
X112090000Y-133680000D03*
X112090000Y-131140000D03*
X112090000Y-128600000D03*
X112090000Y-126060000D03*
X112090000Y-123520000D03*
X104470000Y-123520000D03*
X104470000Y-126060000D03*
X104470000Y-128600000D03*
X104470000Y-131140000D03*
X104470000Y-133680000D03*
X104470000Y-136220000D03*
X104470000Y-138760000D03*
%TD*%
D18*
%TO.C,C6*%
X98500000Y-142250000D03*
X93500000Y-142250000D03*
%TD*%
%TO.C,C5*%
X109470000Y-142250000D03*
X104470000Y-142250000D03*
%TD*%
D29*
%TO.C,REF\u002A\u002A*%
X75540000Y-119410000D03*
%TD*%
D18*
%TO.C,C4*%
X119130000Y-116440000D03*
X124130000Y-116440000D03*
%TD*%
D30*
%TO.C,SW1*%
X120710000Y-111480000D03*
X120710000Y-104980000D03*
X125210000Y-111480000D03*
X125210000Y-104980000D03*
%TD*%
D18*
%TO.C,R10*%
X83460000Y-72080000D03*
D19*
X83460000Y-79700000D03*
%TD*%
D26*
%TO.C,U2*%
X128800000Y-112220000D03*
D19*
X128800000Y-114760000D03*
X128800000Y-117300000D03*
X128800000Y-119840000D03*
X128800000Y-122380000D03*
X128800000Y-124920000D03*
X128800000Y-127460000D03*
X128800000Y-130000000D03*
X128800000Y-132540000D03*
X128800000Y-135080000D03*
X136420000Y-135080000D03*
X136420000Y-132540000D03*
X136420000Y-130000000D03*
X136420000Y-127460000D03*
X136420000Y-124920000D03*
X136420000Y-122380000D03*
X136420000Y-119840000D03*
X136420000Y-117300000D03*
X136420000Y-114760000D03*
X136420000Y-112220000D03*
%TD*%
D18*
%TO.C,C2*%
X131420000Y-108820000D03*
X136420000Y-108820000D03*
%TD*%
D31*
%TO.C,J3*%
X77310000Y-73790000D03*
X77310000Y-98790000D03*
D26*
X79360000Y-90605000D03*
D18*
X79360000Y-88315000D03*
X79360000Y-86025000D03*
X79360000Y-83735000D03*
X79360000Y-81445000D03*
X77380000Y-91750000D03*
X77380000Y-89460000D03*
X77380000Y-87170000D03*
X77380000Y-84880000D03*
X77380000Y-82590000D03*
X75400000Y-90605000D03*
X75400000Y-88315000D03*
X75400000Y-86025000D03*
X75400000Y-83735000D03*
X75400000Y-81445000D03*
%TD*%
D26*
%TO.C,U6*%
X101120000Y-138760000D03*
D19*
X101120000Y-136220000D03*
X101120000Y-133680000D03*
X101120000Y-131140000D03*
X101120000Y-128600000D03*
X101120000Y-126060000D03*
X101120000Y-123520000D03*
X93500000Y-123520000D03*
X93500000Y-126060000D03*
X93500000Y-128600000D03*
X93500000Y-131140000D03*
X93500000Y-133680000D03*
X93500000Y-136220000D03*
X93500000Y-138760000D03*
%TD*%
D18*
%TO.C,C7*%
X139600000Y-136800000D03*
X144600000Y-136800000D03*
%TD*%
D26*
%TO.C,U1*%
X128800000Y-78310000D03*
D19*
X128800000Y-80850000D03*
X128800000Y-83390000D03*
X128800000Y-85930000D03*
X128800000Y-88470000D03*
X128800000Y-91010000D03*
X128800000Y-93550000D03*
X128800000Y-96090000D03*
X128800000Y-98630000D03*
X128800000Y-101170000D03*
X136420000Y-101170000D03*
X136420000Y-98630000D03*
X136420000Y-96090000D03*
X136420000Y-93550000D03*
X136420000Y-91010000D03*
X136420000Y-88470000D03*
X136420000Y-85930000D03*
X136420000Y-83390000D03*
X136420000Y-80850000D03*
X136420000Y-78310000D03*
%TD*%
D26*
%TO.C,U3*%
X116510000Y-78310000D03*
D19*
X116510000Y-80850000D03*
X116510000Y-83390000D03*
X116510000Y-85930000D03*
X116510000Y-88470000D03*
X116510000Y-91010000D03*
X116510000Y-93550000D03*
X116510000Y-96090000D03*
X116510000Y-98630000D03*
X116510000Y-101170000D03*
X124130000Y-101170000D03*
X124130000Y-98630000D03*
X124130000Y-96090000D03*
X124130000Y-93550000D03*
X124130000Y-91010000D03*
X124130000Y-88470000D03*
X124130000Y-85930000D03*
X124130000Y-83390000D03*
X124130000Y-80850000D03*
X124130000Y-78310000D03*
%TD*%
D18*
%TO.C,C1*%
X131420000Y-74910000D03*
X136420000Y-74910000D03*
%TD*%
D21*
%TO.C,J2*%
X118190000Y-141700000D03*
D22*
X118190000Y-139160000D03*
%TD*%
D18*
%TO.C,R8*%
X86900000Y-72080000D03*
D19*
X86900000Y-79700000D03*
%TD*%
D32*
%TO.C,D2*%
X114800000Y-71090000D03*
D33*
X122420000Y-71090000D03*
%TD*%
D18*
%TO.C,R4*%
X84000000Y-110730000D03*
D19*
X84000000Y-118350000D03*
%TD*%
D18*
%TO.C,R7*%
X83460000Y-84330000D03*
D19*
X83460000Y-91950000D03*
%TD*%
D18*
%TO.C,R2*%
X128800000Y-104980000D03*
D19*
X136420000Y-104980000D03*
%TD*%
D21*
%TO.C,J1*%
X140690000Y-79910000D03*
D22*
X140690000Y-82450000D03*
X140690000Y-84990000D03*
X140690000Y-87530000D03*
X140690000Y-90070000D03*
X140690000Y-92610000D03*
X140690000Y-95150000D03*
X140690000Y-97690000D03*
X140690000Y-100230000D03*
X140690000Y-102770000D03*
X140690000Y-105310000D03*
X140690000Y-107850000D03*
X140690000Y-110390000D03*
X140690000Y-112930000D03*
X140690000Y-115470000D03*
X140690000Y-118010000D03*
X140690000Y-120550000D03*
X140690000Y-123090000D03*
X140690000Y-125630000D03*
X140690000Y-128170000D03*
X140690000Y-130710000D03*
X140690000Y-133250000D03*
X143230000Y-79910000D03*
X143230000Y-82450000D03*
X143230000Y-84990000D03*
X143230000Y-87530000D03*
X143230000Y-90070000D03*
X143230000Y-92610000D03*
X143230000Y-95150000D03*
X143230000Y-97690000D03*
X143230000Y-100230000D03*
X143230000Y-102770000D03*
X143230000Y-105310000D03*
X143230000Y-107850000D03*
X143230000Y-110390000D03*
X143230000Y-112930000D03*
X143230000Y-115470000D03*
X143230000Y-118010000D03*
X143230000Y-120550000D03*
X143230000Y-123090000D03*
X143230000Y-125630000D03*
X143230000Y-128170000D03*
X143230000Y-130710000D03*
X143230000Y-133250000D03*
%TD*%
D26*
%TO.C,U4*%
X116510000Y-119840000D03*
D19*
X116510000Y-122380000D03*
X116510000Y-124920000D03*
X116510000Y-127460000D03*
X116510000Y-130000000D03*
X116510000Y-132540000D03*
X116510000Y-135080000D03*
X124130000Y-135080000D03*
X124130000Y-132540000D03*
X124130000Y-130000000D03*
X124130000Y-127460000D03*
X124130000Y-124920000D03*
X124130000Y-122380000D03*
X124130000Y-119840000D03*
%TD*%
D34*
%TO.C,C8*%
X146640000Y-141640000D03*
D35*
X131640000Y-141640000D03*
%TD*%
D18*
%TO.C,R5*%
X87000000Y-110730000D03*
D19*
X87000000Y-118350000D03*
%TD*%
D18*
%TO.C,R6*%
X86900000Y-84350000D03*
D19*
X86900000Y-91970000D03*
%TD*%
D18*
%TO.C,R9*%
X86900000Y-96490000D03*
D19*
X86900000Y-104110000D03*
%TD*%
%LPD*%
M02*
