M48
; DRILL file {KiCad 7.0.11} date Thu Jul 10 10:55:14 2025
; FORMAT={-:-/ absolute / inch / decimal}
; #@! TF.CreationDate,2025-07-10T10:55:14+02:00
; #@! TF.GenerationSoftware,Kicad,Pcbnew,7.0.11
; #@! TF.FileFunction,MixedPlating,1,2
FMAT,2
INCH
; #@! TA.AperFunction,Plated,PTH,ViaDrill
T1C0.0098
; #@! TA.AperFunction,Plated,PTH,ComponentDrill
T2C0.0315
; #@! TA.AperFunction,Plated,PTH,ComponentDrill
T3C0.0354
; #@! TA.AperFunction,Plated,PTH,ComponentDrill
T4C0.0394
; #@! TA.AperFunction,Plated,PTH,ComponentDrill
T5C0.0402
; #@! TA.AperFunction,Plated,PTH,ComponentDrill
T6C0.0433
; #@! TA.AperFunction,Plated,PTH,ComponentDrill
T7C0.0669
; #@! TA.AperFunction,Plated,PTH,ComponentDrill
T8C0.1024
; #@! TA.AperFunction,Plated,PTH,ComponentDrill
T9C0.1260
; #@! TA.AperFunction,NonPlated,NPTH,ComponentDrill
T10C0.0591
; #@! TA.AperFunction,NonPlated,NPTH,ComponentDrill
T11C0.0709
; #@! TA.AperFunction,NonPlated,NPTH,ComponentDrill
T12C0.0866
%
G90
G05
T1
X2.9587Y-4.9579
X2.9587Y-5.1579
X2.9587Y-5.3579
X3.1587Y-4.9579
X3.1587Y-5.1579
X3.1587Y-5.3579
X3.3587Y-4.9579
X3.3587Y-5.1579
X3.3587Y-5.3579
X3.7815Y-3.5594
X3.7815Y-3.6594
X3.7815Y-3.7921
X3.7815Y-4.1594
X3.7815Y-4.2594
X3.9815Y-3.0594
X3.9815Y-3.1594
X3.9815Y-3.2594
X3.9815Y-3.3594
X3.9815Y-3.4594
X3.9815Y-3.5594
X3.9815Y-3.7921
X3.9815Y-4.0594
X3.9815Y-4.1594
X3.9815Y-4.2594
X4.1815Y-3.0594
X4.1815Y-3.1594
X4.1815Y-3.2594
X4.1815Y-3.3594
X4.1815Y-3.4594
X4.1815Y-3.6594
X4.1815Y-3.7921
X4.1815Y-4.0594
X4.1815Y-4.1594
X4.1815Y-4.2594
X4.674Y-2.7437
X4.874Y-2.7437
X5.074Y-2.7437
X5.1642Y-4.5433
X5.1642Y-4.7433
X5.1642Y-4.9433
X5.1642Y-5.1433
X5.1642Y-5.3433
X5.274Y-2.7437
X5.474Y-2.7437
X5.474Y-2.9437
X5.674Y-2.7437
X5.874Y-2.7437
X5.874Y-2.9437
X5.874Y-3.1437
X5.874Y-3.3437
X5.874Y-3.5437
X5.874Y-3.7437
X5.874Y-3.9437
X5.874Y-4.1437
X5.874Y-4.3437
X5.874Y-4.5437
X5.874Y-4.7437
X5.874Y-4.9437
X5.874Y-5.1437
X5.874Y-5.3437
X5.874Y-5.5437
T2
X3.2161Y-5.6004
X3.2858Y-2.8378
X3.2858Y-3.1378
X3.2858Y-3.3201
X3.2858Y-3.6201
X3.3071Y-4.3594
X3.3071Y-4.6594
X3.4213Y-2.8378
X3.4213Y-3.1378
X3.4213Y-3.3209
X3.4213Y-3.6209
X3.4213Y-3.7988
X3.4213Y-4.0988
X3.4252Y-4.3594
X3.4252Y-4.6594
X3.5161Y-5.6004
X3.6811Y-4.863
X3.6811Y-4.963
X3.6811Y-5.063
X3.6811Y-5.163
X3.6811Y-5.263
X3.6811Y-5.363
X3.6811Y-5.463
X3.6811Y-5.6004
X3.878Y-5.6004
X3.9811Y-4.863
X3.9811Y-4.963
X3.9811Y-5.063
X3.9811Y-5.163
X3.9811Y-5.263
X3.9811Y-5.363
X3.9811Y-5.463
X4.113Y-4.863
X4.113Y-4.963
X4.113Y-5.063
X4.113Y-5.163
X4.113Y-5.263
X4.113Y-5.363
X4.113Y-5.463
X4.113Y-5.6004
X4.3098Y-5.6004
X4.413Y-4.863
X4.413Y-4.963
X4.413Y-5.063
X4.413Y-5.163
X4.413Y-5.263
X4.413Y-5.363
X4.413Y-5.463
X4.587Y-3.0831
X4.587Y-3.1831
X4.587Y-3.2831
X4.587Y-3.3831
X4.587Y-3.4831
X4.587Y-3.5831
X4.587Y-3.6831
X4.587Y-3.7831
X4.587Y-3.8831
X4.587Y-3.9831
X4.587Y-4.1252
X4.587Y-4.4252
X4.587Y-4.7181
X4.587Y-4.8181
X4.587Y-4.9181
X4.587Y-5.0181
X4.587Y-5.1181
X4.587Y-5.2181
X4.587Y-5.3181
X4.6902Y-2.9492
X4.6902Y-4.5843
X4.887Y-2.9492
X4.887Y-3.0831
X4.887Y-3.1831
X4.887Y-3.2831
X4.887Y-3.3831
X4.887Y-3.4831
X4.887Y-3.5831
X4.887Y-3.6831
X4.887Y-3.7831
X4.887Y-3.8831
X4.887Y-3.9831
X4.887Y-4.5843
X4.887Y-4.7181
X4.887Y-4.8181
X4.887Y-4.9181
X4.887Y-5.0181
X4.887Y-5.1181
X4.887Y-5.2181
X4.887Y-5.3181
X5.0709Y-3.0831
X5.0709Y-3.1831
X5.0709Y-3.2831
X5.0709Y-3.3831
X5.0709Y-3.4831
X5.0709Y-3.5831
X5.0709Y-3.6831
X5.0709Y-3.7831
X5.0709Y-3.8831
X5.0709Y-3.9831
X5.0709Y-4.1331
X5.0709Y-4.4181
X5.0709Y-4.5181
X5.0709Y-4.6181
X5.0709Y-4.7181
X5.0709Y-4.8181
X5.0709Y-4.9181
X5.0709Y-5.0181
X5.0709Y-5.1181
X5.0709Y-5.2181
X5.0709Y-5.3181
X5.174Y-2.9492
X5.174Y-4.2843
X5.3709Y-2.9492
X5.3709Y-3.0831
X5.3709Y-3.1831
X5.3709Y-3.2831
X5.3709Y-3.3831
X5.3709Y-3.4831
X5.3709Y-3.5831
X5.3709Y-3.6831
X5.3709Y-3.7831
X5.3709Y-3.8831
X5.3709Y-3.9831
X5.3709Y-4.1331
X5.3709Y-4.2843
X5.3709Y-4.4181
X5.3709Y-4.5181
X5.3709Y-4.6181
X5.3709Y-4.7181
X5.3709Y-4.8181
X5.3709Y-4.9181
X5.3709Y-5.0181
X5.3709Y-5.1181
X5.3709Y-5.2181
X5.3709Y-5.3181
X5.4961Y-5.3858
X5.6929Y-5.3858
T3
X2.9728Y-5.6004
X3.0728Y-5.6004
T4
X2.9685Y-3.2065
X2.9685Y-3.2967
X2.9685Y-3.3868
X2.9685Y-3.477
X2.9685Y-3.5671
X3.0465Y-3.2516
X3.0465Y-3.3417
X3.0465Y-3.4319
X3.0465Y-3.522
X3.0465Y-3.6122
X3.1244Y-3.2065
X3.1244Y-3.2967
X3.1244Y-3.3868
X3.1244Y-3.477
X3.1244Y-3.5671
X3.4951Y-4.8953
X3.4951Y-4.9953
X3.4951Y-5.0953
X3.4951Y-5.1953
X3.4951Y-5.2953
X3.4951Y-5.3953
X4.6531Y-5.4787
X4.6531Y-5.5787
X4.7949Y-5.5787
X5.1827Y-5.5764
X5.539Y-3.1461
X5.539Y-3.2461
X5.539Y-3.3461
X5.539Y-3.4461
X5.539Y-3.5461
X5.539Y-3.6461
X5.539Y-3.7461
X5.539Y-3.8461
X5.539Y-3.9461
X5.539Y-4.0461
X5.539Y-4.1461
X5.539Y-4.2461
X5.539Y-4.3461
X5.539Y-4.4461
X5.539Y-4.5461
X5.539Y-4.6461
X5.539Y-4.7461
X5.539Y-4.8461
X5.539Y-4.9461
X5.539Y-5.0461
X5.539Y-5.1461
X5.539Y-5.2461
X5.639Y-3.1461
X5.639Y-3.2461
X5.639Y-3.3461
X5.639Y-3.4461
X5.639Y-3.5461
X5.639Y-3.6461
X5.639Y-3.7461
X5.639Y-3.8461
X5.639Y-3.9461
X5.639Y-4.0461
X5.639Y-4.1461
X5.639Y-4.2461
X5.639Y-4.3461
X5.639Y-4.4461
X5.639Y-4.5461
X5.639Y-4.6461
X5.639Y-4.7461
X5.639Y-4.8461
X5.639Y-4.9461
X5.639Y-5.0461
X5.639Y-5.1461
X5.639Y-5.2461
X5.7732Y-5.5764
T5
X3.6083Y-2.7594
X3.6083Y-2.8594
X3.6083Y-2.9594
X3.6083Y-3.0594
X3.6083Y-3.1594
X3.6083Y-3.2594
X3.6083Y-3.3594
X3.6083Y-3.4594
X3.6083Y-3.5594
X3.6083Y-3.6594
X3.6083Y-3.7594
X3.6083Y-3.8594
X3.6083Y-3.9594
X3.6083Y-4.0594
X3.6083Y-4.1594
X3.6083Y-4.2594
X3.6083Y-4.3594
X3.6083Y-4.4594
X3.6083Y-4.5594
X3.6083Y-4.6594
X4.3083Y-2.7594
X4.3083Y-2.8594
X4.3083Y-2.9594
X4.3083Y-3.0594
X4.3083Y-3.1594
X4.3083Y-3.2594
X4.3083Y-3.3594
X4.3083Y-3.4594
X4.3083Y-3.5594
X4.3083Y-3.6594
X4.3083Y-3.7594
X4.3083Y-3.8594
X4.3083Y-3.9594
X4.3083Y-4.0594
X4.3083Y-4.1594
X4.3083Y-4.2594
X4.3083Y-4.3594
X4.3083Y-4.4594
X4.3083Y-4.5594
X4.3083Y-4.6594
T6
X4.5197Y-2.7988
X4.7524Y-4.1331
X4.7524Y-4.389
X4.8197Y-2.7988
X4.9295Y-4.1331
X4.9295Y-4.389
T7
X3.1587Y-4.3594
T8
X2.9815Y-4.3594
X3.1587Y-4.1626
X3.1587Y-4.5563
T9
X2.974Y-4.7012
X3.0437Y-2.9051
X3.0437Y-3.8894
T10
X3.8628Y-2.8839
X4.0537Y-2.8839
T11
X3.851Y-2.7646
X4.0656Y-2.7646
T12
X3.377Y-4.8717
X3.377Y-5.4465
M30
